M48
; DRILL file {KiCad 8.0.7} date 2025-07-12T21:11:03-0700
; FORMAT={-:-/ absolute / metric / decimal}
; #@! TF.CreationDate,2025-07-12T21:11:03-07:00
; #@! TF.GenerationSoftware,Kicad,Pcbnew,8.0.7
; #@! TF.FileFunction,Plated,1,4,PTH
FMAT,2
METRIC
; #@! TA.AperFunction,Plated,PTH,ComponentDrill
T1C0.203
; #@! TA.AperFunction,Plated,PTH,ViaDrill
T2C0.250
; #@! TA.AperFunction,Plated,PTH,ComponentDrill
T3C0.250
; #@! TA.AperFunction,Plated,PTH,ViaDrill
T4C0.300
; #@! TA.AperFunction,Plated,PTH,ComponentDrill
T5C0.600
; #@! TA.AperFunction,Plated,PTH,ComponentDrill
T6C0.900
; #@! TA.AperFunction,Plated,PTH,ComponentDrill
T7C1.000
; #@! TA.AperFunction,Plated,PTH,ComponentDrill
T8C1.800
; #@! TA.AperFunction,Plated,PTH,ComponentDrill
T9C1.900
; #@! TA.AperFunction,Plated,PTH,ComponentDrill
T10C2.200
%
G90
G05
T1
X105.186Y-51.916
X105.327Y-50.31
X106.06Y-51.183
X106.067Y-52.966
X106.376Y-49.429
X106.94Y-52.233
X107.109Y-50.303
X107.673Y-53.106
X107.982Y-49.57
X107.99Y-51.352
X108.723Y-52.226
X108.863Y-50.619
T2
X74.9Y-58.45
X75.1Y-59.1
X75.65Y-58.2
X75.85Y-58.85
X76.05Y-59.5
X76.35Y-45.6
X76.375Y-46.35
X76.4Y-37.8
X76.4Y-57.95
X76.6Y-58.6
X76.7Y-37.3
X76.8Y-59.25
X76.821Y-40.975
X77.0Y-36.75
X77.0Y-40.35
X77.2Y-37.65
X77.35Y-44.23
X77.35Y-45.6
X77.35Y-58.35
X77.495Y-40.981
X77.5Y-37.1
X77.55Y-59.0
X77.75Y-49.75
X77.78Y-47.42
X78.0Y-37.45
X78.0Y-50.5
X78.0Y-51.25
X78.1Y-58.1
X78.2Y-41.0
X78.25Y-40.3
X78.3Y-58.75
X78.5Y-49.5
X78.65Y-45.45
X78.65Y-47.22
X78.75Y-50.25
X78.75Y-51.0
X79.25Y-49.25
X79.5Y-50.0
X79.5Y-50.75
X82.6Y-38.5
X83.6Y-64.575
X83.6Y-65.375
X83.6Y-66.175
X83.6Y-66.975
X84.4Y-64.575
X84.4Y-65.375
X84.4Y-66.175
X84.4Y-66.975
X84.8Y-60.475
X85.2Y-64.575
X85.2Y-65.375
X85.2Y-66.175
X85.2Y-66.975
X85.45Y-60.475
X85.95Y-61.075
X85.95Y-61.7
X85.95Y-62.35
X86.0Y-39.5
X86.0Y-64.575
X86.0Y-65.375
X86.0Y-66.175
X86.0Y-66.975
X86.1Y-60.475
X86.75Y-60.475
X86.8Y-64.575
X86.8Y-65.375
X86.8Y-66.175
X86.8Y-66.975
X87.25Y-41.75
X87.25Y-42.75
X87.25Y-43.75
X87.25Y-44.75
X87.25Y-45.75
X87.25Y-46.75
X87.25Y-47.75
X88.75Y-28.25
X89.707Y-27.807
X91.15Y-27.55
X92.813Y-58.013
X93.125Y-31.125
X93.5Y-57.7
X93.75Y-24.75
X94.0Y-32.5
X94.0Y-33.2
X94.0Y-33.9
X94.254Y-58.922
X94.3Y-57.7
X94.3Y-58.25
X94.7Y-32.5
X94.7Y-33.2
X94.7Y-33.9
X94.9Y-57.7
X94.9Y-58.25
X94.9Y-58.85
X95.4Y-32.5
X95.4Y-33.2
X95.4Y-33.9
X95.5Y-57.7
X95.5Y-58.25
X95.5Y-58.85
X96.1Y-57.7
X96.1Y-58.25
X96.1Y-58.85
X96.7Y-31.7
X96.7Y-57.7
X96.7Y-58.25
X96.7Y-58.85
X96.7Y-59.45
X97.4Y-38.7
X97.5Y-57.7
X97.6Y-47.0
X98.2Y-49.35
X98.3Y-57.7
X98.8Y-32.8
X98.8Y-46.45
X99.0Y-37.7
X99.05Y-57.7
X99.54Y-53.96
X99.55Y-44.75
X99.55Y-45.45
X99.7Y-37.7
X99.75Y-57.7
X99.76Y-34.22
X100.3Y-44.75
X100.32Y-54.26
X100.4Y-37.7
X100.418Y-36.318
X100.45Y-57.7
X100.5Y-40.6
X100.75Y-58.6
X100.9Y-46.4
X101.01Y-54.26
X101.1Y-37.7
X101.1Y-61.325
X101.15Y-57.7
X101.3Y-65.575
X101.3Y-66.375
X101.3Y-67.175
X101.3Y-67.975
X101.5Y-58.6
X101.75Y-61.325
X101.85Y-51.3
X101.85Y-57.7
X102.0Y-43.6
X102.0Y-50.0
X102.1Y-65.575
X102.1Y-66.375
X102.1Y-67.175
X102.1Y-67.975
X102.25Y-58.6
X102.25Y-61.925
X102.25Y-62.55
X102.25Y-63.2
X102.25Y-46.42
X102.3Y-36.1
X102.3Y-36.7
X102.4Y-61.325
X102.55Y-57.7
X102.9Y-36.1
X102.9Y-65.575
X102.9Y-66.375
X102.9Y-67.175
X102.9Y-67.975
X103.05Y-61.325
X103.25Y-57.7
X103.408Y-46.429
X103.7Y-65.575
X103.7Y-66.375
X103.7Y-67.175
X103.7Y-67.975
X103.925Y-36.9
X103.93Y-36.15
X103.985Y-53.376
X104.0Y-61.05
X104.0Y-61.65
X104.425Y-48.125
X104.5Y-65.575
X104.5Y-66.375
X104.5Y-67.175
X104.5Y-67.975
X104.6Y-60.45
X104.6Y-61.05
X104.6Y-61.65
X105.2Y-60.45
X105.2Y-61.05
X105.2Y-61.65
X105.312Y-41.625
X105.8Y-24.3
X105.8Y-25.0
X105.8Y-25.65
X106.55Y-24.3
X106.55Y-25.0
X106.55Y-25.65
X106.6Y-40.3
X106.885Y-55.685
X106.9Y-35.9
X107.15Y-64.575
X107.15Y-65.375
X107.15Y-66.175
X107.15Y-66.975
X107.3Y-25.0
X107.3Y-25.65
X107.415Y-56.215
X107.65Y-46.775
X107.8Y-46.0
X107.95Y-64.575
X107.95Y-65.375
X107.95Y-66.175
X107.95Y-66.975
X108.0Y-25.05
X108.0Y-25.65
X108.65Y-27.8
X108.75Y-64.575
X108.75Y-65.375
X108.75Y-66.175
X108.75Y-66.975
X108.9Y-35.4
X109.35Y-60.475
X109.4Y-37.1
X109.5Y-61.075
X109.5Y-61.7
X109.5Y-62.35
X109.55Y-64.575
X109.55Y-65.375
X109.55Y-66.175
X109.55Y-66.975
X109.6Y-36.1
X110.0Y-60.475
X110.075Y-35.425
X110.1Y-36.8
X110.175Y-43.475
X110.25Y-40.95
X110.35Y-64.575
X110.35Y-65.375
X110.35Y-66.175
X110.35Y-66.975
X110.43Y-48.68
X110.65Y-60.475
X111.025Y-49.475
X111.35Y-51.8
X111.9Y-40.95
X111.95Y-34.075
X112.1Y-39.5
X112.35Y-54.05
X112.525Y-51.575
X112.85Y-45.95
X113.0Y-38.0
X113.0Y-38.825
X113.0Y-54.7
X113.05Y-54.05
X113.15Y-55.95
X113.15Y-56.6
X113.25Y-51.8
X113.45Y-55.3
X113.451Y-48.744
X113.475Y-50.07
X113.7Y-33.8
X113.7Y-54.7
X113.75Y-49.4
X113.85Y-55.95
X113.85Y-56.6
X113.9Y-52.4
X114.2Y-55.3
X114.5Y-53.0
X114.55Y-55.95
X114.55Y-56.6
X114.9Y-45.4
X115.075Y-51.725
X115.2Y-53.7
X115.5Y-46.1
X115.8Y-54.3
X116.032Y-42.532
X116.4Y-54.9
X116.4Y-55.5
X116.4Y-56.1
X116.4Y-56.7
X116.4Y-57.3
X116.4Y-57.9
X116.775Y-38.57
X116.8Y-37.8
X117.0Y-56.1
X117.0Y-56.7
X117.0Y-57.3
X117.0Y-57.9
X117.25Y-53.75
X117.365Y-41.475
X117.365Y-42.335
X117.365Y-43.148
X117.375Y-43.972
X117.6Y-56.7
X117.6Y-57.3
X117.6Y-57.9
X120.081Y-48.316
X120.5Y-50.2
X120.5Y-50.9
X121.1Y-53.2
X121.1Y-54.0
X121.2Y-50.2
X121.2Y-50.9
X123.0Y-38.1
X123.0Y-38.75
X123.0Y-39.4
X123.0Y-53.25
X123.65Y-38.1
X123.65Y-38.75
X123.65Y-39.4
X123.8Y-53.25
X124.3Y-39.4
X124.95Y-42.475
X125.4Y-50.8
T3
X89.675Y-71.975
X89.675Y-72.475
X89.675Y-72.975
X90.075Y-71.975
X90.075Y-72.475
X90.075Y-72.975
X90.475Y-71.975
X90.475Y-72.475
X90.475Y-72.975
X91.15Y-70.5
X91.15Y-70.9
X91.15Y-71.3
X91.15Y-73.65
X91.15Y-74.05
X91.15Y-74.45
X91.65Y-70.5
X91.65Y-70.9
X91.65Y-71.3
X91.65Y-73.65
X91.65Y-74.05
X91.65Y-74.45
X92.15Y-70.5
X92.15Y-70.9
X92.15Y-71.3
X92.15Y-73.65
X92.15Y-74.05
X92.15Y-74.45
X92.825Y-71.975
X92.825Y-72.475
X92.825Y-72.975
X93.225Y-71.975
X93.225Y-72.475
X93.225Y-72.975
X93.625Y-71.975
X93.625Y-72.475
X93.625Y-72.975
X98.025Y-73.125
X98.025Y-73.625
X98.025Y-74.125
X98.425Y-73.125
X98.425Y-73.625
X98.425Y-74.125
X98.825Y-73.125
X98.825Y-73.625
X98.825Y-74.125
X99.5Y-71.65
X99.5Y-72.05
X99.5Y-72.45
X99.5Y-74.8
X99.5Y-75.2
X99.5Y-75.6
X100.0Y-71.65
X100.0Y-72.05
X100.0Y-72.45
X100.0Y-74.8
X100.0Y-75.2
X100.0Y-75.6
X100.5Y-71.65
X100.5Y-72.05
X100.5Y-72.45
X100.5Y-74.8
X100.5Y-75.2
X100.5Y-75.6
X101.175Y-73.125
X101.175Y-73.625
X101.175Y-74.125
X101.575Y-73.125
X101.575Y-73.625
X101.575Y-74.125
X101.975Y-73.125
X101.975Y-73.625
X101.975Y-74.125
X106.675Y-72.0
X106.675Y-72.5
X106.675Y-73.0
X107.075Y-72.0
X107.075Y-72.5
X107.075Y-73.0
X107.475Y-72.0
X107.475Y-72.5
X107.475Y-73.0
X108.15Y-70.525
X108.15Y-70.925
X108.15Y-71.325
X108.15Y-73.675
X108.15Y-74.075
X108.15Y-74.475
X108.65Y-70.525
X108.65Y-70.925
X108.65Y-71.325
X108.65Y-73.675
X108.65Y-74.075
X108.65Y-74.475
X109.15Y-70.525
X109.15Y-70.925
X109.15Y-71.325
X109.15Y-73.675
X109.15Y-74.075
X109.15Y-74.475
X109.825Y-72.0
X109.825Y-72.5
X109.825Y-73.0
X110.225Y-72.0
X110.225Y-72.5
X110.225Y-73.0
X110.625Y-72.0
X110.625Y-72.5
X110.625Y-73.0
T4
X79.45Y-37.7
X80.5Y-37.45
X80.9Y-63.4
X81.7Y-63.4
X81.7Y-64.2
X81.7Y-65.0
X82.0Y-61.2
X82.0Y-62.0
X82.5Y-34.75
X82.6Y-60.2
X83.3Y-35.35
X83.4Y-60.2
X83.55Y-41.05
X83.6Y-38.6
X84.05Y-37.7
X84.4Y-38.6
X85.2Y-37.65
X85.55Y-29.7
X86.4Y-36.65
X86.4Y-37.65
X86.55Y-30.6
X87.25Y-40.7
X87.4Y-31.6
X87.6Y-36.65
X87.85Y-32.9
X87.85Y-33.95
X88.55Y-54.325
X88.85Y-33.95
X88.9Y-35.085
X88.9Y-35.985
X88.9Y-38.65
X90.15Y-36.9
X92.4Y-59.975
X92.4Y-60.775
X95.95Y-40.425
X96.122Y-60.975
X96.122Y-61.775
X97.64Y-53.2
X98.27Y-27.125
X98.7Y-52.2
X99.5Y-52.2
X100.02Y-27.125
X101.77Y-27.125
X102.0Y-40.6
X102.9Y-36.7
X103.5Y-45.3
X104.43Y-33.65
X105.157Y-55.507
X105.425Y-47.2
X105.45Y-45.1
X105.7Y-31.225
X105.957Y-55.507
X106.075Y-44.55
X106.8Y-62.29
X106.801Y-38.599
X106.85Y-60.95
X106.93Y-33.65
X107.0Y-47.2
X107.3Y-39.3
X107.425Y-44.675
X107.51Y-62.29
X107.528Y-60.972
X107.53Y-61.62
X108.636Y-46.925
X110.3Y-44.675
X112.03Y-52.31
X112.03Y-53.11
X112.1Y-31.275
X112.6Y-33.675
X113.15Y-30.975
X114.0Y-30.975
X115.225Y-34.375
X115.775Y-33.625
X116.188Y-59.975
X116.188Y-60.775
X117.38Y-46.05
X118.25Y-54.7
X118.34Y-39.49
X118.35Y-37.95
X118.425Y-63.775
X118.425Y-67.225
X119.15Y-55.7
X119.425Y-56.9
X119.95Y-55.1
X121.55Y-56.2
X122.55Y-54.05
T6
X90.3Y-71.125
X90.3Y-73.825
X93.0Y-71.125
X93.0Y-73.825
X98.65Y-72.275
X98.65Y-74.975
X101.35Y-72.275
X101.35Y-74.975
X107.3Y-71.15
X107.3Y-73.85
X110.0Y-71.15
X110.0Y-73.85
T7
X73.091Y-49.619
X75.001Y-60.452
T8
X91.65Y-72.475
X100.0Y-73.625
X108.65Y-72.5
T9
X83.46Y-50.837
X84.328Y-55.761
T10
X77.483Y-63.0
X116.712Y-30.083
X122.517Y-63.0
T5
X95.68Y-25.325G85X95.68Y-24.525
G05
X95.68Y-29.675G85X95.68Y-28.575
G05
X104.32Y-25.325G85X104.32Y-24.525
G05
X104.32Y-29.675G85X104.32Y-28.575
G05
M30
