%TF.GenerationSoftware,KiCad,Pcbnew,8.0.7*%
%TF.CreationDate,2025-07-12T21:06:11-07:00*%
%TF.ProjectId,FOCdriver,464f4364-7269-4766-9572-2e6b69636164,1.0*%
%TF.SameCoordinates,Original*%
%TF.FileFunction,Paste,Top*%
%TF.FilePolarity,Positive*%
%FSLAX46Y46*%
G04 Gerber Fmt 4.6, Leading zero omitted, Abs format (unit mm)*
G04 Created by KiCad (PCBNEW 8.0.7) date 2025-07-12 21:06:11*
%MOMM*%
%LPD*%
G01*
G04 APERTURE LIST*
G04 Aperture macros list*
%AMRoundRect*
0 Rectangle with rounded corners*
0 $1 Rounding radius*
0 $2 $3 $4 $5 $6 $7 $8 $9 X,Y pos of 4 corners*
0 Add a 4 corners polygon primitive as box body*
4,1,4,$2,$3,$4,$5,$6,$7,$8,$9,$2,$3,0*
0 Add four circle primitives for the rounded corners*
1,1,$1+$1,$2,$3*
1,1,$1+$1,$4,$5*
1,1,$1+$1,$6,$7*
1,1,$1+$1,$8,$9*
0 Add four rect primitives between the rounded corners*
20,1,$1+$1,$2,$3,$4,$5,0*
20,1,$1+$1,$4,$5,$6,$7,0*
20,1,$1+$1,$6,$7,$8,$9,0*
20,1,$1+$1,$8,$9,$2,$3,0*%
%AMHorizOval*
0 Thick line with rounded ends*
0 $1 width*
0 $2 $3 position (X,Y) of the first rounded end (center of the circle)*
0 $4 $5 position (X,Y) of the second rounded end (center of the circle)*
0 Add line between two ends*
20,1,$1,$2,$3,$4,$5,0*
0 Add two circle primitives to create the rounded ends*
1,1,$1,$2,$3*
1,1,$1,$4,$5*%
G04 Aperture macros list end*
%ADD10C,0.000000*%
%ADD11R,0.900000X0.900000*%
%ADD12R,0.457200X0.965200*%
%ADD13RoundRect,0.200000X0.200000X0.275000X-0.200000X0.275000X-0.200000X-0.275000X0.200000X-0.275000X0*%
%ADD14RoundRect,0.250000X0.250000X0.475000X-0.250000X0.475000X-0.250000X-0.475000X0.250000X-0.475000X0*%
%ADD15RoundRect,0.225000X-0.250000X0.225000X-0.250000X-0.225000X0.250000X-0.225000X0.250000X0.225000X0*%
%ADD16RoundRect,0.112500X-0.143350X0.165116X-0.078232X-0.204187X0.143350X-0.165116X0.078232X0.204187X0*%
%ADD17RoundRect,0.150000X-0.408875X0.495930X-0.589419X0.256339X0.408875X-0.495930X0.589419X-0.256339X0*%
%ADD18RoundRect,0.250000X-0.308478X0.670702X-0.729748X0.111657X0.308478X-0.670702X0.729748X-0.111657X0*%
%ADD19RoundRect,0.225000X0.250000X-0.225000X0.250000X0.225000X-0.250000X0.225000X-0.250000X-0.225000X0*%
%ADD20RoundRect,0.225000X0.225000X0.250000X-0.225000X0.250000X-0.225000X-0.250000X0.225000X-0.250000X0*%
%ADD21RoundRect,0.200000X0.275000X-0.200000X0.275000X0.200000X-0.275000X0.200000X-0.275000X-0.200000X0*%
%ADD22RoundRect,0.075000X-0.700000X-0.075000X0.700000X-0.075000X0.700000X0.075000X-0.700000X0.075000X0*%
%ADD23RoundRect,0.075000X-0.075000X-0.700000X0.075000X-0.700000X0.075000X0.700000X-0.075000X0.700000X0*%
%ADD24RoundRect,0.150000X0.200000X-0.150000X0.200000X0.150000X-0.200000X0.150000X-0.200000X-0.150000X0*%
%ADD25RoundRect,0.250000X-0.325000X-0.650000X0.325000X-0.650000X0.325000X0.650000X-0.325000X0.650000X0*%
%ADD26RoundRect,0.225000X-0.225000X-0.250000X0.225000X-0.250000X0.225000X0.250000X-0.225000X0.250000X0*%
%ADD27RoundRect,0.150000X0.150000X0.625000X-0.150000X0.625000X-0.150000X-0.625000X0.150000X-0.625000X0*%
%ADD28RoundRect,0.250000X0.350000X0.650000X-0.350000X0.650000X-0.350000X-0.650000X0.350000X-0.650000X0*%
%ADD29RoundRect,0.250000X-0.262500X-0.450000X0.262500X-0.450000X0.262500X0.450000X-0.262500X0.450000X0*%
%ADD30RoundRect,0.243750X0.456250X-0.243750X0.456250X0.243750X-0.456250X0.243750X-0.456250X-0.243750X0*%
%ADD31RoundRect,0.250000X0.325000X0.650000X-0.325000X0.650000X-0.325000X-0.650000X0.325000X-0.650000X0*%
%ADD32RoundRect,0.114000X0.266000X0.521000X-0.266000X0.521000X-0.266000X-0.521000X0.266000X-0.521000X0*%
%ADD33RoundRect,0.250000X-0.250000X-0.475000X0.250000X-0.475000X0.250000X0.475000X-0.250000X0.475000X0*%
%ADD34RoundRect,0.150000X-0.512500X-0.150000X0.512500X-0.150000X0.512500X0.150000X-0.512500X0.150000X0*%
%ADD35RoundRect,0.250000X0.625000X-0.312500X0.625000X0.312500X-0.625000X0.312500X-0.625000X-0.312500X0*%
%ADD36RoundRect,0.250000X0.450000X-0.262500X0.450000X0.262500X-0.450000X0.262500X-0.450000X-0.262500X0*%
%ADD37R,0.600000X1.240000*%
%ADD38R,0.300000X1.240000*%
%ADD39RoundRect,0.200000X-0.275000X0.200000X-0.275000X-0.200000X0.275000X-0.200000X0.275000X0.200000X0*%
%ADD40R,1.700000X0.900000*%
%ADD41RoundRect,0.150000X-0.276753X0.580114X-0.509897X0.391318X0.276753X-0.580114X0.509897X-0.391318X0*%
%ADD42RoundRect,0.250000X-0.137057X0.725407X-0.681059X0.284883X0.137057X-0.725407X0.681059X-0.284883X0*%
%ADD43RoundRect,0.150000X-0.150000X-0.200000X0.150000X-0.200000X0.150000X0.200000X-0.150000X0.200000X0*%
%ADD44RoundRect,0.150000X-0.128190X0.629835X-0.400083X0.503050X0.128190X-0.629835X0.400083X-0.503050X0*%
%ADD45RoundRect,0.250000X0.042506X0.737016X-0.591910X0.441184X-0.042506X-0.737016X0.591910X-0.441184X0*%
%ADD46RoundRect,0.150000X-0.150000X0.512500X-0.150000X-0.512500X0.150000X-0.512500X0.150000X0.512500X0*%
%ADD47RoundRect,0.375000X0.217361X0.926825X-0.521245X0.796589X-0.217361X-0.926825X0.521245X-0.796589X0*%
%ADD48RoundRect,0.250000X0.511196X-0.163719X0.424372X0.328685X-0.511196X0.163719X-0.424372X-0.328685X0*%
%ADD49R,0.900000X1.700000*%
%ADD50HorizOval,0.230000X0.141717X0.118915X-0.141717X-0.118915X0*%
%ADD51HorizOval,0.230000X-0.118915X0.141717X0.118915X-0.141717X0*%
%ADD52R,1.400000X1.200000*%
%ADD53RoundRect,0.225000X0.157969X-0.296936X0.311878X0.125926X-0.157969X0.296936X-0.311878X-0.125926X0*%
%ADD54RoundRect,0.150000X0.625000X-0.150000X0.625000X0.150000X-0.625000X0.150000X-0.625000X-0.150000X0*%
%ADD55RoundRect,0.208333X0.291667X-0.391667X0.291667X0.391667X-0.291667X0.391667X-0.291667X-0.391667X0*%
%ADD56RoundRect,0.225000X0.285273X-0.178170X0.207131X0.264994X-0.285273X0.178170X-0.207131X-0.264994X0*%
%ADD57RoundRect,0.200000X-0.200000X-0.275000X0.200000X-0.275000X0.200000X0.275000X-0.200000X0.275000X0*%
G04 APERTURE END LIST*
D10*
%TO.C,U3*%
G36*
X105918812Y-51171044D02*
G01*
X105022540Y-51923106D01*
X104270478Y-51026834D01*
X105166750Y-50274772D01*
X105918812Y-51171044D01*
G37*
G36*
X106799431Y-52220525D02*
G01*
X105903159Y-52972587D01*
X105151097Y-52076315D01*
X106047369Y-51324253D01*
X106799431Y-52220525D01*
G37*
G36*
X106968293Y-50290425D02*
G01*
X106072021Y-51042487D01*
X105319959Y-50146215D01*
X106216231Y-49394153D01*
X106968293Y-50290425D01*
G37*
G36*
X107680050Y-53270006D02*
G01*
X106783778Y-54022068D01*
X106031716Y-53125796D01*
X106927988Y-52373734D01*
X107680050Y-53270006D01*
G37*
G36*
X107848912Y-51339906D02*
G01*
X106952640Y-52091968D01*
X106200578Y-51195696D01*
X107096850Y-50443634D01*
X107848912Y-51339906D01*
G37*
G36*
X108017774Y-49409806D02*
G01*
X107121502Y-50161868D01*
X106369440Y-49265596D01*
X107265712Y-48513534D01*
X108017774Y-49409806D01*
G37*
G36*
X108729531Y-52389387D02*
G01*
X107833259Y-53141449D01*
X107081197Y-52245177D01*
X107977469Y-51493115D01*
X108729531Y-52389387D01*
G37*
G36*
X108898393Y-50459287D02*
G01*
X108002121Y-51211349D01*
X107250059Y-50315077D01*
X108146331Y-49563015D01*
X108898393Y-50459287D01*
G37*
G36*
X109779012Y-51508768D02*
G01*
X108882740Y-52260830D01*
X108130678Y-51364558D01*
X109026950Y-50612496D01*
X109779012Y-51508768D01*
G37*
%TD*%
D11*
%TO.C,Q5*%
X107145000Y-66925000D03*
X108195000Y-66925000D03*
X109245000Y-66925000D03*
X110345000Y-66925000D03*
X107145000Y-65775000D03*
X108195000Y-65775000D03*
X109245000Y-65775000D03*
X110345000Y-65775000D03*
X107145000Y-64625000D03*
X108195000Y-64625000D03*
X109245000Y-64625000D03*
X110345000Y-64625000D03*
D12*
X106840000Y-63429400D03*
X108110000Y-63429400D03*
X109380000Y-63429400D03*
X110650000Y-63429400D03*
X110650000Y-69220600D03*
X106840000Y-69220600D03*
X108110000Y-69220600D03*
X109380000Y-69220600D03*
%TD*%
D11*
%TO.C,Q3*%
X101310000Y-67975000D03*
X102360000Y-67975000D03*
X103410000Y-67975000D03*
X104510000Y-67975000D03*
X101310000Y-66825000D03*
X102360000Y-66825000D03*
X103410000Y-66825000D03*
X104510000Y-66825000D03*
X101310000Y-65675000D03*
X102360000Y-65675000D03*
X103410000Y-65675000D03*
X104510000Y-65675000D03*
D12*
X101005000Y-64479400D03*
X102275000Y-64479400D03*
X103545000Y-64479400D03*
X104815000Y-64479400D03*
X104815000Y-70270600D03*
X101005000Y-70270600D03*
X102275000Y-70270600D03*
X103545000Y-70270600D03*
%TD*%
D11*
%TO.C,Q1*%
X83605000Y-66920600D03*
X84655000Y-66920600D03*
X85705000Y-66920600D03*
X86805000Y-66920600D03*
X83605000Y-65770600D03*
X84655000Y-65770600D03*
X85705000Y-65770600D03*
X86805000Y-65770600D03*
X83605000Y-64620600D03*
X84655000Y-64620600D03*
X85705000Y-64620600D03*
X86805000Y-64620600D03*
D12*
X83300000Y-63425000D03*
X84570000Y-63425000D03*
X85840000Y-63425000D03*
X87110000Y-63425000D03*
X87110000Y-69216200D03*
X83300000Y-69216200D03*
X84570000Y-69216200D03*
X85840000Y-69216200D03*
%TD*%
D11*
%TO.C,Q2*%
X92960000Y-65720600D03*
X91910000Y-65720600D03*
X90860000Y-65720600D03*
X89760000Y-65720600D03*
X92960000Y-66870600D03*
X91910000Y-66870600D03*
X90860000Y-66870600D03*
X89760000Y-66870600D03*
X92960000Y-68020600D03*
X91910000Y-68020600D03*
X90860000Y-68020600D03*
X89760000Y-68020600D03*
D12*
X93265000Y-69216200D03*
X91995000Y-69216200D03*
X90725000Y-69216200D03*
X89455000Y-69216200D03*
X89455000Y-63425000D03*
X93265000Y-63425000D03*
X91995000Y-63425000D03*
X90725000Y-63425000D03*
%TD*%
D11*
%TO.C,Q6*%
X116465000Y-65725000D03*
X115415000Y-65725000D03*
X114365000Y-65725000D03*
X113265000Y-65725000D03*
X116465000Y-66875000D03*
X115415000Y-66875000D03*
X114365000Y-66875000D03*
X113265000Y-66875000D03*
X116465000Y-68025000D03*
X115415000Y-68025000D03*
X114365000Y-68025000D03*
X113265000Y-68025000D03*
D12*
X116770000Y-69220600D03*
X115500000Y-69220600D03*
X114230000Y-69220600D03*
X112960000Y-69220600D03*
X112960000Y-63429400D03*
X116770000Y-63429400D03*
X115500000Y-63429400D03*
X114230000Y-63429400D03*
%TD*%
D11*
%TO.C,Q4*%
X98800000Y-66775000D03*
X97750000Y-66775000D03*
X96700000Y-66775000D03*
X95600000Y-66775000D03*
X98800000Y-67925000D03*
X97750000Y-67925000D03*
X96700000Y-67925000D03*
X95600000Y-67925000D03*
X98800000Y-69075000D03*
X97750000Y-69075000D03*
X96700000Y-69075000D03*
X95600000Y-69075000D03*
D12*
X99105000Y-70270600D03*
X97835000Y-70270600D03*
X96565000Y-70270600D03*
X95295000Y-70270600D03*
X95295000Y-64479400D03*
X99105000Y-64479400D03*
X97835000Y-64479400D03*
X96565000Y-64479400D03*
%TD*%
D13*
%TO.C,R5*%
X98245000Y-31225000D03*
X96595000Y-31225000D03*
%TD*%
D14*
%TO.C,C48*%
X99540000Y-53960000D03*
X97640000Y-53960000D03*
%TD*%
D15*
%TO.C,C22*%
X78100000Y-43225000D03*
X78100000Y-44775000D03*
%TD*%
D16*
%TO.C,D2*%
X74985338Y-46931904D03*
X75350000Y-49000000D03*
%TD*%
D17*
%TO.C,J11*%
X81932291Y-35758935D03*
X81330476Y-36557572D03*
D18*
X79619937Y-32388677D03*
X77453403Y-35263765D03*
%TD*%
D19*
%TO.C,C54*%
X99675000Y-36900000D03*
X99675000Y-35350000D03*
%TD*%
D20*
%TO.C,C1*%
X108450000Y-36825000D03*
X106900000Y-36825000D03*
%TD*%
D21*
%TO.C,R14*%
X122125000Y-42175000D03*
X122125000Y-40525000D03*
%TD*%
D22*
%TO.C,U1*%
X108750000Y-37950000D03*
X108750000Y-38450000D03*
X108750000Y-38950000D03*
X108750000Y-39450000D03*
X108750000Y-39950000D03*
X108750000Y-40450000D03*
X108750000Y-40950000D03*
X108750000Y-41450000D03*
X108750000Y-41950000D03*
X108750000Y-42450000D03*
X108750000Y-42950000D03*
X108750000Y-43450000D03*
X108750000Y-43950000D03*
X108750000Y-44450000D03*
X108750000Y-44950000D03*
X108750000Y-45450000D03*
D23*
X110675000Y-47375000D03*
X111175000Y-47375000D03*
X111675000Y-47375000D03*
X112175000Y-47375000D03*
X112675000Y-47375000D03*
X113175000Y-47375000D03*
X113675000Y-47375000D03*
X114175000Y-47375000D03*
X114675000Y-47375000D03*
X115175000Y-47375000D03*
X115675000Y-47375000D03*
X116175000Y-47375000D03*
X116675000Y-47375000D03*
X117175000Y-47375000D03*
X117675000Y-47375000D03*
X118175000Y-47375000D03*
D22*
X120100000Y-45450000D03*
X120100000Y-44950000D03*
X120100000Y-44450000D03*
X120100000Y-43950000D03*
X120100000Y-43450000D03*
X120100000Y-42950000D03*
X120100000Y-42450000D03*
X120100000Y-41950000D03*
X120100000Y-41450000D03*
X120100000Y-40950000D03*
X120100000Y-40450000D03*
X120100000Y-39950000D03*
X120100000Y-39450000D03*
X120100000Y-38950000D03*
X120100000Y-38450000D03*
X120100000Y-37950000D03*
D23*
X118175000Y-36025000D03*
X117675000Y-36025000D03*
X117175000Y-36025000D03*
X116675000Y-36025000D03*
X116175000Y-36025000D03*
X115675000Y-36025000D03*
X115175000Y-36025000D03*
X114675000Y-36025000D03*
X114175000Y-36025000D03*
X113675000Y-36025000D03*
X113175000Y-36025000D03*
X112675000Y-36025000D03*
X112175000Y-36025000D03*
X111675000Y-36025000D03*
X111175000Y-36025000D03*
X110675000Y-36025000D03*
%TD*%
D24*
%TO.C,D7*%
X90950000Y-58005000D03*
X90950000Y-59405000D03*
%TD*%
D20*
%TO.C,C4*%
X107000000Y-45825000D03*
X105450000Y-45825000D03*
%TD*%
D21*
%TO.C,R1*%
X96800000Y-40400000D03*
X96800000Y-38750000D03*
%TD*%
D25*
%TO.C,C58*%
X98470000Y-62520600D03*
X101420000Y-62520600D03*
%TD*%
D24*
%TO.C,D10*%
X109350000Y-57979400D03*
X109350000Y-59379400D03*
%TD*%
D26*
%TO.C,C9*%
X117625000Y-50580000D03*
X119175000Y-50580000D03*
%TD*%
D27*
%TO.C,J2*%
X110450000Y-31000000D03*
X109450000Y-31000000D03*
X108450000Y-31000000D03*
X107450000Y-31000000D03*
D28*
X111750000Y-27125000D03*
X106150000Y-27125000D03*
%TD*%
D15*
%TO.C,C46*%
X120625000Y-52075000D03*
X120625000Y-53625000D03*
%TD*%
D29*
%TO.C,FB2*%
X117237500Y-52300000D03*
X119062500Y-52300000D03*
%TD*%
D21*
%TO.C,R19*%
X99490000Y-60250000D03*
X99490000Y-58600000D03*
%TD*%
D26*
%TO.C,C3*%
X119275000Y-47675000D03*
X120825000Y-47675000D03*
%TD*%
D24*
%TO.C,D8*%
X106450000Y-58747500D03*
X106450000Y-60147500D03*
%TD*%
D30*
%TO.C,D4*%
X93750000Y-30408750D03*
X93750000Y-28533750D03*
%TD*%
D31*
%TO.C,C60*%
X113325000Y-61520600D03*
X110375000Y-61520600D03*
%TD*%
D32*
%TO.C,SW1*%
X90100000Y-32315000D03*
X90100000Y-38665000D03*
%TD*%
D13*
%TO.C,R2*%
X101225000Y-43600000D03*
X99575000Y-43600000D03*
%TD*%
D26*
%TO.C,C53*%
X96650000Y-32750000D03*
X98200000Y-32750000D03*
%TD*%
D33*
%TO.C,C61*%
X106820000Y-61720600D03*
X108720000Y-61720600D03*
%TD*%
D34*
%TO.C,U4*%
X103292500Y-32700000D03*
X103292500Y-33650000D03*
X103292500Y-34600000D03*
X105567500Y-34600000D03*
X105567500Y-33650000D03*
X105567500Y-32700000D03*
%TD*%
D26*
%TO.C,C44*%
X101010000Y-52790000D03*
X102559998Y-52790000D03*
%TD*%
D35*
%TO.C,R17*%
X93220295Y-61775000D03*
X93220295Y-58850000D03*
%TD*%
D36*
%TO.C,FB1*%
X74850000Y-45450000D03*
X74850000Y-43625000D03*
%TD*%
D26*
%TO.C,C6*%
X103100000Y-41850000D03*
X104650000Y-41850000D03*
%TD*%
D37*
%TO.C,J1*%
X103200000Y-29725000D03*
X102400000Y-29725000D03*
D38*
X101250000Y-29725000D03*
X100250000Y-29725000D03*
X99750000Y-29725000D03*
X98750000Y-29725000D03*
D37*
X97600000Y-29725000D03*
X96800000Y-29725000D03*
X96800000Y-29725000D03*
X97600000Y-29725000D03*
D38*
X98250000Y-29725000D03*
X99250000Y-29725000D03*
X100750000Y-29725000D03*
X101750000Y-29725000D03*
D37*
X102400000Y-29725000D03*
X103200000Y-29725000D03*
%TD*%
D26*
%TO.C,C47*%
X101010000Y-54260000D03*
X102560002Y-54260000D03*
%TD*%
D39*
%TO.C,R13*%
X93750000Y-25478750D03*
X93750000Y-27128750D03*
%TD*%
D15*
%TO.C,C18*%
X85975000Y-40875000D03*
X85975000Y-42425000D03*
%TD*%
D21*
%TO.C,R18*%
X107880000Y-60075000D03*
X107880000Y-58425000D03*
%TD*%
D33*
%TO.C,C57*%
X83260000Y-61620600D03*
X85160000Y-61620600D03*
%TD*%
D26*
%TO.C,C8*%
X114650000Y-49125000D03*
X116200000Y-49125000D03*
%TD*%
D35*
%TO.C,R23*%
X116975000Y-61845600D03*
X116975000Y-58920600D03*
%TD*%
D40*
%TO.C,SW2(B3U-1000)1*%
X100425000Y-41900000D03*
X100425000Y-38500000D03*
%TD*%
D41*
%TO.C,J10*%
X85914204Y-31810983D03*
X85137058Y-32440303D03*
D42*
X84485877Y-27981426D03*
X81688152Y-30246979D03*
%TD*%
D43*
%TO.C,D6*%
X92875000Y-53285000D03*
X91475000Y-53285000D03*
%TD*%
D19*
%TO.C,C55*%
X101175000Y-36900000D03*
X101175000Y-35350000D03*
%TD*%
D21*
%TO.C,R16*%
X89468600Y-59525000D03*
X89468600Y-57875000D03*
%TD*%
D44*
%TO.C,J9*%
X91186087Y-28732302D03*
X90279780Y-29154921D03*
X89373472Y-29577539D03*
D45*
X90726642Y-24670956D03*
X86557626Y-26615000D03*
%TD*%
D31*
%TO.C,C56*%
X89775000Y-61470600D03*
X86825000Y-61470600D03*
%TD*%
D24*
%TO.C,D11*%
X114400000Y-57975000D03*
X114400000Y-59375000D03*
%TD*%
D46*
%TO.C,U7*%
X84500000Y-39975002D03*
X83550000Y-39975001D03*
X82600000Y-39975001D03*
X82600000Y-42250000D03*
X83550000Y-42250001D03*
X84500000Y-42250001D03*
%TD*%
D47*
%TO.C,L1*%
X84093788Y-45657502D03*
X80450000Y-46300000D03*
%TD*%
D26*
%TO.C,C51*%
X109350000Y-34225000D03*
X110900000Y-34225000D03*
%TD*%
D24*
%TO.C,D9*%
X98020000Y-58745000D03*
X98020000Y-60145000D03*
%TD*%
D46*
%TO.C,U6*%
X98175000Y-34425000D03*
X97225000Y-34425000D03*
X96275000Y-34425000D03*
X96275000Y-36700000D03*
X98175000Y-36700000D03*
%TD*%
D21*
%TO.C,R21*%
X110820000Y-59500000D03*
X110820000Y-57850000D03*
%TD*%
D13*
%TO.C,R4*%
X104675000Y-31225000D03*
X103025000Y-31225000D03*
%TD*%
D39*
%TO.C,TH1*%
X118420000Y-64695000D03*
X118420000Y-66345000D03*
%TD*%
D48*
%TO.C,C19*%
X78779932Y-48221134D03*
X78450000Y-46350000D03*
%TD*%
D49*
%TO.C,SW1(B3U-1000)1*%
X96900000Y-42800000D03*
X93500000Y-42800000D03*
%TD*%
D30*
%TO.C,D5*%
X123875000Y-42487500D03*
X123875000Y-40612500D03*
%TD*%
D50*
%TO.C,U3*%
X103356944Y-51408284D03*
X103678337Y-51791305D03*
X103999732Y-52174329D03*
X104321126Y-52557350D03*
X104642520Y-52940373D03*
X104963914Y-53323396D03*
X105285306Y-53706416D03*
X105606701Y-54089440D03*
X105928095Y-54472461D03*
X106249490Y-54855485D03*
D51*
X107165228Y-54935602D03*
X107548249Y-54614209D03*
X107931273Y-54292814D03*
X108314294Y-53971420D03*
X108697317Y-53650026D03*
X109080340Y-53328632D03*
X109463360Y-53007240D03*
X109846384Y-52685845D03*
X110229405Y-52364451D03*
X110612429Y-52043056D03*
D50*
X110692546Y-51127318D03*
X110371151Y-50744295D03*
X110049758Y-50361273D03*
X109728363Y-49978249D03*
X109406970Y-49595229D03*
X109085576Y-49212206D03*
X108764182Y-48829183D03*
X108442789Y-48446162D03*
X108121394Y-48063138D03*
X107800000Y-47680117D03*
D51*
X106884262Y-47600000D03*
X106501239Y-47921395D03*
X106118217Y-48242788D03*
X105735193Y-48564183D03*
X105352173Y-48885576D03*
X104969150Y-49206970D03*
X104586127Y-49528364D03*
X104203106Y-49849757D03*
X103820082Y-50171152D03*
X103437061Y-50492546D03*
%TD*%
D52*
%TO.C,Y1*%
X105475000Y-38425000D03*
X103275000Y-38425000D03*
X103275000Y-40125000D03*
X105475000Y-40125000D03*
%TD*%
D53*
%TO.C,C10*%
X75300000Y-41950000D03*
X75830132Y-40493476D03*
%TD*%
D21*
%TO.C,R22*%
X112920000Y-59508100D03*
X112920000Y-57858100D03*
%TD*%
D35*
%TO.C,R20*%
X95500000Y-62833100D03*
X95500000Y-59908100D03*
%TD*%
D20*
%TO.C,C7*%
X105475000Y-36825000D03*
X103925000Y-36825000D03*
%TD*%
D26*
%TO.C,C5*%
X117625000Y-49125000D03*
X119175000Y-49125000D03*
%TD*%
D14*
%TO.C,C59*%
X104920000Y-62670600D03*
X103020000Y-62670600D03*
%TD*%
D15*
%TO.C,C23*%
X76600000Y-43225000D03*
X76600000Y-44775000D03*
%TD*%
D19*
%TO.C,C21*%
X79600000Y-43150000D03*
X79600000Y-41600000D03*
%TD*%
D26*
%TO.C,C45*%
X114650000Y-50580000D03*
X116200000Y-50580000D03*
%TD*%
D54*
%TO.C,J8*%
X123000000Y-52500000D03*
X123000000Y-51500000D03*
X123000000Y-50500000D03*
X123000000Y-49500000D03*
X123000000Y-48500000D03*
X123000000Y-47500000D03*
D55*
X126875000Y-53800000D03*
X126875000Y-46200000D03*
%TD*%
D56*
%TO.C,C63*%
X77050000Y-48576452D03*
X76780846Y-47050000D03*
%TD*%
D57*
%TO.C,R15*%
X91350000Y-54750000D03*
X93000000Y-54750000D03*
%TD*%
D19*
%TO.C,C20*%
X81100000Y-42900000D03*
X81100000Y-41350000D03*
%TD*%
M02*
