%TF.GenerationSoftware,KiCad,Pcbnew,8.0.7*%
%TF.CreationDate,2025-07-12T21:11:19-07:00*%
%TF.ProjectId,FOCdriver,464f4364-7269-4766-9572-2e6b69636164,1.0*%
%TF.SameCoordinates,Original*%
%TF.FileFunction,Drillmap*%
%TF.FilePolarity,Positive*%
%FSLAX45Y45*%
G04 Gerber Fmt 4.5, Leading zero omitted, Abs format (unit mm)*
G04 Created by KiCad (PCBNEW 8.0.7) date 2025-07-12 21:11:19*
%MOMM*%
%LPD*%
G01*
G04 APERTURE LIST*
%ADD10C,0.200000*%
%ADD11C,0.100000*%
G04 APERTURE END LIST*
D10*
X12665299Y-5460370D02*
X12750000Y-5475000D01*
X11492500Y-2742500D02*
G75*
G02*
X11964025Y-3138177I178750J-265780D01*
G01*
X12750000Y-4525000D02*
G75*
G02*
X12750000Y-5475000I-2750000J-475000D01*
G01*
X7595791Y-6621659D02*
X7804248Y-6586695D01*
X12481360Y-6076389D02*
G75*
G02*
X12175287Y-6611328I-229690J-223611D01*
G01*
X10543406Y-2151367D02*
X10543743Y-2348359D01*
X12175287Y-6611332D02*
G75*
G02*
X7804248Y-6586695I-2176502J1612207D01*
G01*
X11964027Y-3138178D02*
G75*
G02*
X12666761Y-4539378I-1964027J-1861822D01*
G01*
X7595791Y-6621659D02*
G75*
G02*
X10543406Y-2151367I2404209J1621659D01*
G01*
X10543743Y-2348359D02*
G75*
G02*
X11492499Y-2742502I-544963J-2650761D01*
G01*
X12750000Y-4525000D02*
X12666761Y-4539378D01*
X12665299Y-5460370D02*
G75*
G02*
X12481360Y-6076389I-2665309J460370D01*
G01*
D11*
X9678500Y-2828000D02*
X9743500Y-2893000D01*
X9743500Y-2828000D02*
X9678500Y-2893000D01*
X10256500Y-2828000D02*
X10321500Y-2893000D01*
X10321500Y-2828000D02*
X10256500Y-2893000D01*
D10*
X7350777Y-8029182D02*
X7350777Y-7829182D01*
X7350777Y-7829182D02*
X7398396Y-7829182D01*
X7398396Y-7829182D02*
X7426967Y-7838706D01*
X7426967Y-7838706D02*
X7446015Y-7857753D01*
X7446015Y-7857753D02*
X7455539Y-7876801D01*
X7455539Y-7876801D02*
X7465063Y-7914896D01*
X7465063Y-7914896D02*
X7465063Y-7943468D01*
X7465063Y-7943468D02*
X7455539Y-7981563D01*
X7455539Y-7981563D02*
X7446015Y-8000611D01*
X7446015Y-8000611D02*
X7426967Y-8019658D01*
X7426967Y-8019658D02*
X7398396Y-8029182D01*
X7398396Y-8029182D02*
X7350777Y-8029182D01*
X7550777Y-8029182D02*
X7550777Y-7895849D01*
X7550777Y-7933944D02*
X7560301Y-7914896D01*
X7560301Y-7914896D02*
X7569824Y-7905372D01*
X7569824Y-7905372D02*
X7588872Y-7895849D01*
X7588872Y-7895849D02*
X7607920Y-7895849D01*
X7674586Y-8029182D02*
X7674586Y-7895849D01*
X7674586Y-7829182D02*
X7665063Y-7838706D01*
X7665063Y-7838706D02*
X7674586Y-7848230D01*
X7674586Y-7848230D02*
X7684110Y-7838706D01*
X7684110Y-7838706D02*
X7674586Y-7829182D01*
X7674586Y-7829182D02*
X7674586Y-7848230D01*
X7798396Y-8029182D02*
X7779348Y-8019658D01*
X7779348Y-8019658D02*
X7769824Y-8000611D01*
X7769824Y-8000611D02*
X7769824Y-7829182D01*
X7903158Y-8029182D02*
X7884110Y-8019658D01*
X7884110Y-8019658D02*
X7874586Y-8000611D01*
X7874586Y-8000611D02*
X7874586Y-7829182D01*
X8131729Y-8029182D02*
X8131729Y-7829182D01*
X8131729Y-7829182D02*
X8198396Y-7972039D01*
X8198396Y-7972039D02*
X8265063Y-7829182D01*
X8265063Y-7829182D02*
X8265063Y-8029182D01*
X8446015Y-8029182D02*
X8446015Y-7924420D01*
X8446015Y-7924420D02*
X8436491Y-7905372D01*
X8436491Y-7905372D02*
X8417444Y-7895849D01*
X8417444Y-7895849D02*
X8379348Y-7895849D01*
X8379348Y-7895849D02*
X8360301Y-7905372D01*
X8446015Y-8019658D02*
X8426967Y-8029182D01*
X8426967Y-8029182D02*
X8379348Y-8029182D01*
X8379348Y-8029182D02*
X8360301Y-8019658D01*
X8360301Y-8019658D02*
X8350777Y-8000611D01*
X8350777Y-8000611D02*
X8350777Y-7981563D01*
X8350777Y-7981563D02*
X8360301Y-7962515D01*
X8360301Y-7962515D02*
X8379348Y-7952992D01*
X8379348Y-7952992D02*
X8426967Y-7952992D01*
X8426967Y-7952992D02*
X8446015Y-7943468D01*
X8541253Y-7895849D02*
X8541253Y-8095849D01*
X8541253Y-7905372D02*
X8560301Y-7895849D01*
X8560301Y-7895849D02*
X8598396Y-7895849D01*
X8598396Y-7895849D02*
X8617444Y-7905372D01*
X8617444Y-7905372D02*
X8626967Y-7914896D01*
X8626967Y-7914896D02*
X8636491Y-7933944D01*
X8636491Y-7933944D02*
X8636491Y-7991087D01*
X8636491Y-7991087D02*
X8626967Y-8010134D01*
X8626967Y-8010134D02*
X8617444Y-8019658D01*
X8617444Y-8019658D02*
X8598396Y-8029182D01*
X8598396Y-8029182D02*
X8560301Y-8029182D01*
X8560301Y-8029182D02*
X8541253Y-8019658D01*
X8722206Y-8010134D02*
X8731729Y-8019658D01*
X8731729Y-8019658D02*
X8722206Y-8029182D01*
X8722206Y-8029182D02*
X8712682Y-8019658D01*
X8712682Y-8019658D02*
X8722206Y-8010134D01*
X8722206Y-8010134D02*
X8722206Y-8029182D01*
X8722206Y-7905372D02*
X8731729Y-7914896D01*
X8731729Y-7914896D02*
X8722206Y-7924420D01*
X8722206Y-7924420D02*
X8712682Y-7914896D01*
X8712682Y-7914896D02*
X8722206Y-7905372D01*
X8722206Y-7905372D02*
X8722206Y-7924420D01*
D11*
X7025000Y-8325198D02*
X7090000Y-8390198D01*
X7090000Y-8325198D02*
X7025000Y-8390198D01*
D10*
X7388872Y-8249182D02*
X7407920Y-8249182D01*
X7407920Y-8249182D02*
X7426967Y-8258706D01*
X7426967Y-8258706D02*
X7436491Y-8268230D01*
X7436491Y-8268230D02*
X7446015Y-8287277D01*
X7446015Y-8287277D02*
X7455539Y-8325372D01*
X7455539Y-8325372D02*
X7455539Y-8372992D01*
X7455539Y-8372992D02*
X7446015Y-8411087D01*
X7446015Y-8411087D02*
X7436491Y-8430134D01*
X7436491Y-8430134D02*
X7426967Y-8439658D01*
X7426967Y-8439658D02*
X7407920Y-8449182D01*
X7407920Y-8449182D02*
X7388872Y-8449182D01*
X7388872Y-8449182D02*
X7369824Y-8439658D01*
X7369824Y-8439658D02*
X7360301Y-8430134D01*
X7360301Y-8430134D02*
X7350777Y-8411087D01*
X7350777Y-8411087D02*
X7341253Y-8372992D01*
X7341253Y-8372992D02*
X7341253Y-8325372D01*
X7341253Y-8325372D02*
X7350777Y-8287277D01*
X7350777Y-8287277D02*
X7360301Y-8268230D01*
X7360301Y-8268230D02*
X7369824Y-8258706D01*
X7369824Y-8258706D02*
X7388872Y-8249182D01*
X7541253Y-8430134D02*
X7550777Y-8439658D01*
X7550777Y-8439658D02*
X7541253Y-8449182D01*
X7541253Y-8449182D02*
X7531729Y-8439658D01*
X7531729Y-8439658D02*
X7541253Y-8430134D01*
X7541253Y-8430134D02*
X7541253Y-8449182D01*
X7722205Y-8249182D02*
X7684110Y-8249182D01*
X7684110Y-8249182D02*
X7665063Y-8258706D01*
X7665063Y-8258706D02*
X7655539Y-8268230D01*
X7655539Y-8268230D02*
X7636491Y-8296801D01*
X7636491Y-8296801D02*
X7626967Y-8334896D01*
X7626967Y-8334896D02*
X7626967Y-8411087D01*
X7626967Y-8411087D02*
X7636491Y-8430134D01*
X7636491Y-8430134D02*
X7646015Y-8439658D01*
X7646015Y-8439658D02*
X7665063Y-8449182D01*
X7665063Y-8449182D02*
X7703158Y-8449182D01*
X7703158Y-8449182D02*
X7722205Y-8439658D01*
X7722205Y-8439658D02*
X7731729Y-8430134D01*
X7731729Y-8430134D02*
X7741253Y-8411087D01*
X7741253Y-8411087D02*
X7741253Y-8363468D01*
X7741253Y-8363468D02*
X7731729Y-8344420D01*
X7731729Y-8344420D02*
X7722205Y-8334896D01*
X7722205Y-8334896D02*
X7703158Y-8325372D01*
X7703158Y-8325372D02*
X7665063Y-8325372D01*
X7665063Y-8325372D02*
X7646015Y-8334896D01*
X7646015Y-8334896D02*
X7636491Y-8344420D01*
X7636491Y-8344420D02*
X7626967Y-8363468D01*
X7922205Y-8249182D02*
X7826967Y-8249182D01*
X7826967Y-8249182D02*
X7817444Y-8344420D01*
X7817444Y-8344420D02*
X7826967Y-8334896D01*
X7826967Y-8334896D02*
X7846015Y-8325372D01*
X7846015Y-8325372D02*
X7893634Y-8325372D01*
X7893634Y-8325372D02*
X7912682Y-8334896D01*
X7912682Y-8334896D02*
X7922205Y-8344420D01*
X7922205Y-8344420D02*
X7931729Y-8363468D01*
X7931729Y-8363468D02*
X7931729Y-8411087D01*
X7931729Y-8411087D02*
X7922205Y-8430134D01*
X7922205Y-8430134D02*
X7912682Y-8439658D01*
X7912682Y-8439658D02*
X7893634Y-8449182D01*
X7893634Y-8449182D02*
X7846015Y-8449182D01*
X7846015Y-8449182D02*
X7826967Y-8439658D01*
X7826967Y-8439658D02*
X7817444Y-8430134D01*
X8055539Y-8249182D02*
X8074586Y-8249182D01*
X8074586Y-8249182D02*
X8093634Y-8258706D01*
X8093634Y-8258706D02*
X8103158Y-8268230D01*
X8103158Y-8268230D02*
X8112682Y-8287277D01*
X8112682Y-8287277D02*
X8122205Y-8325372D01*
X8122205Y-8325372D02*
X8122205Y-8372992D01*
X8122205Y-8372992D02*
X8112682Y-8411087D01*
X8112682Y-8411087D02*
X8103158Y-8430134D01*
X8103158Y-8430134D02*
X8093634Y-8439658D01*
X8093634Y-8439658D02*
X8074586Y-8449182D01*
X8074586Y-8449182D02*
X8055539Y-8449182D01*
X8055539Y-8449182D02*
X8036491Y-8439658D01*
X8036491Y-8439658D02*
X8026967Y-8430134D01*
X8026967Y-8430134D02*
X8017444Y-8411087D01*
X8017444Y-8411087D02*
X8007920Y-8372992D01*
X8007920Y-8372992D02*
X8007920Y-8325372D01*
X8007920Y-8325372D02*
X8017444Y-8287277D01*
X8017444Y-8287277D02*
X8026967Y-8268230D01*
X8026967Y-8268230D02*
X8036491Y-8258706D01*
X8036491Y-8258706D02*
X8055539Y-8249182D01*
X8207920Y-8449182D02*
X8207920Y-8315849D01*
X8207920Y-8334896D02*
X8217444Y-8325372D01*
X8217444Y-8325372D02*
X8236491Y-8315849D01*
X8236491Y-8315849D02*
X8265063Y-8315849D01*
X8265063Y-8315849D02*
X8284110Y-8325372D01*
X8284110Y-8325372D02*
X8293634Y-8344420D01*
X8293634Y-8344420D02*
X8293634Y-8449182D01*
X8293634Y-8344420D02*
X8303158Y-8325372D01*
X8303158Y-8325372D02*
X8322205Y-8315849D01*
X8322205Y-8315849D02*
X8350777Y-8315849D01*
X8350777Y-8315849D02*
X8369825Y-8325372D01*
X8369825Y-8325372D02*
X8379348Y-8344420D01*
X8379348Y-8344420D02*
X8379348Y-8449182D01*
X8474587Y-8449182D02*
X8474587Y-8315849D01*
X8474587Y-8334896D02*
X8484110Y-8325372D01*
X8484110Y-8325372D02*
X8503158Y-8315849D01*
X8503158Y-8315849D02*
X8531729Y-8315849D01*
X8531729Y-8315849D02*
X8550777Y-8325372D01*
X8550777Y-8325372D02*
X8560301Y-8344420D01*
X8560301Y-8344420D02*
X8560301Y-8449182D01*
X8560301Y-8344420D02*
X8569825Y-8325372D01*
X8569825Y-8325372D02*
X8588872Y-8315849D01*
X8588872Y-8315849D02*
X8617444Y-8315849D01*
X8617444Y-8315849D02*
X8636491Y-8325372D01*
X8636491Y-8325372D02*
X8646015Y-8344420D01*
X8646015Y-8344420D02*
X8646015Y-8449182D01*
X9036491Y-8239658D02*
X8865063Y-8496801D01*
X9293634Y-8249182D02*
X9312682Y-8249182D01*
X9312682Y-8249182D02*
X9331730Y-8258706D01*
X9331730Y-8258706D02*
X9341253Y-8268230D01*
X9341253Y-8268230D02*
X9350777Y-8287277D01*
X9350777Y-8287277D02*
X9360301Y-8325372D01*
X9360301Y-8325372D02*
X9360301Y-8372992D01*
X9360301Y-8372992D02*
X9350777Y-8411087D01*
X9350777Y-8411087D02*
X9341253Y-8430134D01*
X9341253Y-8430134D02*
X9331730Y-8439658D01*
X9331730Y-8439658D02*
X9312682Y-8449182D01*
X9312682Y-8449182D02*
X9293634Y-8449182D01*
X9293634Y-8449182D02*
X9274587Y-8439658D01*
X9274587Y-8439658D02*
X9265063Y-8430134D01*
X9265063Y-8430134D02*
X9255539Y-8411087D01*
X9255539Y-8411087D02*
X9246015Y-8372992D01*
X9246015Y-8372992D02*
X9246015Y-8325372D01*
X9246015Y-8325372D02*
X9255539Y-8287277D01*
X9255539Y-8287277D02*
X9265063Y-8268230D01*
X9265063Y-8268230D02*
X9274587Y-8258706D01*
X9274587Y-8258706D02*
X9293634Y-8249182D01*
X9446015Y-8430134D02*
X9455539Y-8439658D01*
X9455539Y-8439658D02*
X9446015Y-8449182D01*
X9446015Y-8449182D02*
X9436491Y-8439658D01*
X9436491Y-8439658D02*
X9446015Y-8430134D01*
X9446015Y-8430134D02*
X9446015Y-8449182D01*
X9579349Y-8249182D02*
X9598396Y-8249182D01*
X9598396Y-8249182D02*
X9617444Y-8258706D01*
X9617444Y-8258706D02*
X9626968Y-8268230D01*
X9626968Y-8268230D02*
X9636491Y-8287277D01*
X9636491Y-8287277D02*
X9646015Y-8325372D01*
X9646015Y-8325372D02*
X9646015Y-8372992D01*
X9646015Y-8372992D02*
X9636491Y-8411087D01*
X9636491Y-8411087D02*
X9626968Y-8430134D01*
X9626968Y-8430134D02*
X9617444Y-8439658D01*
X9617444Y-8439658D02*
X9598396Y-8449182D01*
X9598396Y-8449182D02*
X9579349Y-8449182D01*
X9579349Y-8449182D02*
X9560301Y-8439658D01*
X9560301Y-8439658D02*
X9550777Y-8430134D01*
X9550777Y-8430134D02*
X9541253Y-8411087D01*
X9541253Y-8411087D02*
X9531730Y-8372992D01*
X9531730Y-8372992D02*
X9531730Y-8325372D01*
X9531730Y-8325372D02*
X9541253Y-8287277D01*
X9541253Y-8287277D02*
X9550777Y-8268230D01*
X9550777Y-8268230D02*
X9560301Y-8258706D01*
X9560301Y-8258706D02*
X9579349Y-8249182D01*
X9722206Y-8268230D02*
X9731730Y-8258706D01*
X9731730Y-8258706D02*
X9750777Y-8249182D01*
X9750777Y-8249182D02*
X9798396Y-8249182D01*
X9798396Y-8249182D02*
X9817444Y-8258706D01*
X9817444Y-8258706D02*
X9826968Y-8268230D01*
X9826968Y-8268230D02*
X9836491Y-8287277D01*
X9836491Y-8287277D02*
X9836491Y-8306325D01*
X9836491Y-8306325D02*
X9826968Y-8334896D01*
X9826968Y-8334896D02*
X9712682Y-8449182D01*
X9712682Y-8449182D02*
X9836491Y-8449182D01*
X10017444Y-8249182D02*
X9922206Y-8249182D01*
X9922206Y-8249182D02*
X9912682Y-8344420D01*
X9912682Y-8344420D02*
X9922206Y-8334896D01*
X9922206Y-8334896D02*
X9941253Y-8325372D01*
X9941253Y-8325372D02*
X9988872Y-8325372D01*
X9988872Y-8325372D02*
X10007920Y-8334896D01*
X10007920Y-8334896D02*
X10017444Y-8344420D01*
X10017444Y-8344420D02*
X10026968Y-8363468D01*
X10026968Y-8363468D02*
X10026968Y-8411087D01*
X10026968Y-8411087D02*
X10017444Y-8430134D01*
X10017444Y-8430134D02*
X10007920Y-8439658D01*
X10007920Y-8439658D02*
X9988872Y-8449182D01*
X9988872Y-8449182D02*
X9941253Y-8449182D01*
X9941253Y-8449182D02*
X9922206Y-8439658D01*
X9922206Y-8439658D02*
X9912682Y-8430134D01*
X10198396Y-8249182D02*
X10160301Y-8249182D01*
X10160301Y-8249182D02*
X10141253Y-8258706D01*
X10141253Y-8258706D02*
X10131730Y-8268230D01*
X10131730Y-8268230D02*
X10112682Y-8296801D01*
X10112682Y-8296801D02*
X10103158Y-8334896D01*
X10103158Y-8334896D02*
X10103158Y-8411087D01*
X10103158Y-8411087D02*
X10112682Y-8430134D01*
X10112682Y-8430134D02*
X10122206Y-8439658D01*
X10122206Y-8439658D02*
X10141253Y-8449182D01*
X10141253Y-8449182D02*
X10179349Y-8449182D01*
X10179349Y-8449182D02*
X10198396Y-8439658D01*
X10198396Y-8439658D02*
X10207920Y-8430134D01*
X10207920Y-8430134D02*
X10217444Y-8411087D01*
X10217444Y-8411087D02*
X10217444Y-8363468D01*
X10217444Y-8363468D02*
X10207920Y-8344420D01*
X10207920Y-8344420D02*
X10198396Y-8334896D01*
X10198396Y-8334896D02*
X10179349Y-8325372D01*
X10179349Y-8325372D02*
X10141253Y-8325372D01*
X10141253Y-8325372D02*
X10122206Y-8334896D01*
X10122206Y-8334896D02*
X10112682Y-8344420D01*
X10112682Y-8344420D02*
X10103158Y-8363468D01*
X10293634Y-8249182D02*
X10293634Y-8287277D01*
X10369825Y-8249182D02*
X10369825Y-8287277D01*
X10665063Y-8525373D02*
X10655539Y-8515849D01*
X10655539Y-8515849D02*
X10636492Y-8487277D01*
X10636492Y-8487277D02*
X10626968Y-8468230D01*
X10626968Y-8468230D02*
X10617444Y-8439658D01*
X10617444Y-8439658D02*
X10607920Y-8392039D01*
X10607920Y-8392039D02*
X10607920Y-8353944D01*
X10607920Y-8353944D02*
X10617444Y-8306325D01*
X10617444Y-8306325D02*
X10626968Y-8277753D01*
X10626968Y-8277753D02*
X10636492Y-8258706D01*
X10636492Y-8258706D02*
X10655539Y-8230134D01*
X10655539Y-8230134D02*
X10665063Y-8220611D01*
X10731730Y-8268230D02*
X10741253Y-8258706D01*
X10741253Y-8258706D02*
X10760301Y-8249182D01*
X10760301Y-8249182D02*
X10807920Y-8249182D01*
X10807920Y-8249182D02*
X10826968Y-8258706D01*
X10826968Y-8258706D02*
X10836492Y-8268230D01*
X10836492Y-8268230D02*
X10846015Y-8287277D01*
X10846015Y-8287277D02*
X10846015Y-8306325D01*
X10846015Y-8306325D02*
X10836492Y-8334896D01*
X10836492Y-8334896D02*
X10722206Y-8449182D01*
X10722206Y-8449182D02*
X10846015Y-8449182D01*
X11084111Y-8449182D02*
X11084111Y-8249182D01*
X11169825Y-8449182D02*
X11169825Y-8344420D01*
X11169825Y-8344420D02*
X11160301Y-8325372D01*
X11160301Y-8325372D02*
X11141254Y-8315849D01*
X11141254Y-8315849D02*
X11112682Y-8315849D01*
X11112682Y-8315849D02*
X11093634Y-8325372D01*
X11093634Y-8325372D02*
X11084111Y-8334896D01*
X11293634Y-8449182D02*
X11274587Y-8439658D01*
X11274587Y-8439658D02*
X11265063Y-8430134D01*
X11265063Y-8430134D02*
X11255539Y-8411087D01*
X11255539Y-8411087D02*
X11255539Y-8353944D01*
X11255539Y-8353944D02*
X11265063Y-8334896D01*
X11265063Y-8334896D02*
X11274587Y-8325372D01*
X11274587Y-8325372D02*
X11293634Y-8315849D01*
X11293634Y-8315849D02*
X11322206Y-8315849D01*
X11322206Y-8315849D02*
X11341253Y-8325372D01*
X11341253Y-8325372D02*
X11350777Y-8334896D01*
X11350777Y-8334896D02*
X11360301Y-8353944D01*
X11360301Y-8353944D02*
X11360301Y-8411087D01*
X11360301Y-8411087D02*
X11350777Y-8430134D01*
X11350777Y-8430134D02*
X11341253Y-8439658D01*
X11341253Y-8439658D02*
X11322206Y-8449182D01*
X11322206Y-8449182D02*
X11293634Y-8449182D01*
X11474587Y-8449182D02*
X11455539Y-8439658D01*
X11455539Y-8439658D02*
X11446015Y-8420611D01*
X11446015Y-8420611D02*
X11446015Y-8249182D01*
X11626968Y-8439658D02*
X11607920Y-8449182D01*
X11607920Y-8449182D02*
X11569825Y-8449182D01*
X11569825Y-8449182D02*
X11550777Y-8439658D01*
X11550777Y-8439658D02*
X11541253Y-8420611D01*
X11541253Y-8420611D02*
X11541253Y-8344420D01*
X11541253Y-8344420D02*
X11550777Y-8325372D01*
X11550777Y-8325372D02*
X11569825Y-8315849D01*
X11569825Y-8315849D02*
X11607920Y-8315849D01*
X11607920Y-8315849D02*
X11626968Y-8325372D01*
X11626968Y-8325372D02*
X11636492Y-8344420D01*
X11636492Y-8344420D02*
X11636492Y-8363468D01*
X11636492Y-8363468D02*
X11541253Y-8382515D01*
X11712682Y-8439658D02*
X11731730Y-8449182D01*
X11731730Y-8449182D02*
X11769825Y-8449182D01*
X11769825Y-8449182D02*
X11788873Y-8439658D01*
X11788873Y-8439658D02*
X11798396Y-8420611D01*
X11798396Y-8420611D02*
X11798396Y-8411087D01*
X11798396Y-8411087D02*
X11788873Y-8392039D01*
X11788873Y-8392039D02*
X11769825Y-8382515D01*
X11769825Y-8382515D02*
X11741253Y-8382515D01*
X11741253Y-8382515D02*
X11722206Y-8372992D01*
X11722206Y-8372992D02*
X11712682Y-8353944D01*
X11712682Y-8353944D02*
X11712682Y-8344420D01*
X11712682Y-8344420D02*
X11722206Y-8325372D01*
X11722206Y-8325372D02*
X11741253Y-8315849D01*
X11741253Y-8315849D02*
X11769825Y-8315849D01*
X11769825Y-8315849D02*
X11788873Y-8325372D01*
X11865063Y-8525373D02*
X11874587Y-8515849D01*
X11874587Y-8515849D02*
X11893634Y-8487277D01*
X11893634Y-8487277D02*
X11903158Y-8468230D01*
X11903158Y-8468230D02*
X11912682Y-8439658D01*
X11912682Y-8439658D02*
X11922206Y-8392039D01*
X11922206Y-8392039D02*
X11922206Y-8353944D01*
X11922206Y-8353944D02*
X11912682Y-8306325D01*
X11912682Y-8306325D02*
X11903158Y-8277753D01*
X11903158Y-8277753D02*
X11893634Y-8258706D01*
X11893634Y-8258706D02*
X11874587Y-8230134D01*
X11874587Y-8230134D02*
X11865063Y-8220611D01*
X12226968Y-8525373D02*
X12217444Y-8515849D01*
X12217444Y-8515849D02*
X12198396Y-8487277D01*
X12198396Y-8487277D02*
X12188873Y-8468230D01*
X12188873Y-8468230D02*
X12179349Y-8439658D01*
X12179349Y-8439658D02*
X12169825Y-8392039D01*
X12169825Y-8392039D02*
X12169825Y-8353944D01*
X12169825Y-8353944D02*
X12179349Y-8306325D01*
X12179349Y-8306325D02*
X12188873Y-8277753D01*
X12188873Y-8277753D02*
X12198396Y-8258706D01*
X12198396Y-8258706D02*
X12217444Y-8230134D01*
X12217444Y-8230134D02*
X12226968Y-8220611D01*
X12303158Y-8315849D02*
X12303158Y-8449182D01*
X12303158Y-8334896D02*
X12312682Y-8325372D01*
X12312682Y-8325372D02*
X12331730Y-8315849D01*
X12331730Y-8315849D02*
X12360301Y-8315849D01*
X12360301Y-8315849D02*
X12379349Y-8325372D01*
X12379349Y-8325372D02*
X12388873Y-8344420D01*
X12388873Y-8344420D02*
X12388873Y-8449182D01*
X12512682Y-8449182D02*
X12493634Y-8439658D01*
X12493634Y-8439658D02*
X12484111Y-8430134D01*
X12484111Y-8430134D02*
X12474587Y-8411087D01*
X12474587Y-8411087D02*
X12474587Y-8353944D01*
X12474587Y-8353944D02*
X12484111Y-8334896D01*
X12484111Y-8334896D02*
X12493634Y-8325372D01*
X12493634Y-8325372D02*
X12512682Y-8315849D01*
X12512682Y-8315849D02*
X12541254Y-8315849D01*
X12541254Y-8315849D02*
X12560301Y-8325372D01*
X12560301Y-8325372D02*
X12569825Y-8334896D01*
X12569825Y-8334896D02*
X12579349Y-8353944D01*
X12579349Y-8353944D02*
X12579349Y-8411087D01*
X12579349Y-8411087D02*
X12569825Y-8430134D01*
X12569825Y-8430134D02*
X12560301Y-8439658D01*
X12560301Y-8439658D02*
X12541254Y-8449182D01*
X12541254Y-8449182D02*
X12512682Y-8449182D01*
X12636492Y-8315849D02*
X12712682Y-8315849D01*
X12665063Y-8249182D02*
X12665063Y-8420611D01*
X12665063Y-8420611D02*
X12674587Y-8439658D01*
X12674587Y-8439658D02*
X12693634Y-8449182D01*
X12693634Y-8449182D02*
X12712682Y-8449182D01*
X12931730Y-8315849D02*
X12931730Y-8515849D01*
X12931730Y-8325372D02*
X12950777Y-8315849D01*
X12950777Y-8315849D02*
X12988873Y-8315849D01*
X12988873Y-8315849D02*
X13007920Y-8325372D01*
X13007920Y-8325372D02*
X13017444Y-8334896D01*
X13017444Y-8334896D02*
X13026968Y-8353944D01*
X13026968Y-8353944D02*
X13026968Y-8411087D01*
X13026968Y-8411087D02*
X13017444Y-8430134D01*
X13017444Y-8430134D02*
X13007920Y-8439658D01*
X13007920Y-8439658D02*
X12988873Y-8449182D01*
X12988873Y-8449182D02*
X12950777Y-8449182D01*
X12950777Y-8449182D02*
X12931730Y-8439658D01*
X13141254Y-8449182D02*
X13122206Y-8439658D01*
X13122206Y-8439658D02*
X13112682Y-8420611D01*
X13112682Y-8420611D02*
X13112682Y-8249182D01*
X13303158Y-8449182D02*
X13303158Y-8344420D01*
X13303158Y-8344420D02*
X13293635Y-8325372D01*
X13293635Y-8325372D02*
X13274587Y-8315849D01*
X13274587Y-8315849D02*
X13236492Y-8315849D01*
X13236492Y-8315849D02*
X13217444Y-8325372D01*
X13303158Y-8439658D02*
X13284111Y-8449182D01*
X13284111Y-8449182D02*
X13236492Y-8449182D01*
X13236492Y-8449182D02*
X13217444Y-8439658D01*
X13217444Y-8439658D02*
X13207920Y-8420611D01*
X13207920Y-8420611D02*
X13207920Y-8401563D01*
X13207920Y-8401563D02*
X13217444Y-8382515D01*
X13217444Y-8382515D02*
X13236492Y-8372992D01*
X13236492Y-8372992D02*
X13284111Y-8372992D01*
X13284111Y-8372992D02*
X13303158Y-8363468D01*
X13369825Y-8315849D02*
X13446015Y-8315849D01*
X13398396Y-8249182D02*
X13398396Y-8420611D01*
X13398396Y-8420611D02*
X13407920Y-8439658D01*
X13407920Y-8439658D02*
X13426968Y-8449182D01*
X13426968Y-8449182D02*
X13446015Y-8449182D01*
X13588873Y-8439658D02*
X13569825Y-8449182D01*
X13569825Y-8449182D02*
X13531730Y-8449182D01*
X13531730Y-8449182D02*
X13512682Y-8439658D01*
X13512682Y-8439658D02*
X13503158Y-8420611D01*
X13503158Y-8420611D02*
X13503158Y-8344420D01*
X13503158Y-8344420D02*
X13512682Y-8325372D01*
X13512682Y-8325372D02*
X13531730Y-8315849D01*
X13531730Y-8315849D02*
X13569825Y-8315849D01*
X13569825Y-8315849D02*
X13588873Y-8325372D01*
X13588873Y-8325372D02*
X13598396Y-8344420D01*
X13598396Y-8344420D02*
X13598396Y-8363468D01*
X13598396Y-8363468D02*
X13503158Y-8382515D01*
X13769825Y-8449182D02*
X13769825Y-8249182D01*
X13769825Y-8439658D02*
X13750777Y-8449182D01*
X13750777Y-8449182D02*
X13712682Y-8449182D01*
X13712682Y-8449182D02*
X13693635Y-8439658D01*
X13693635Y-8439658D02*
X13684111Y-8430134D01*
X13684111Y-8430134D02*
X13674587Y-8411087D01*
X13674587Y-8411087D02*
X13674587Y-8353944D01*
X13674587Y-8353944D02*
X13684111Y-8334896D01*
X13684111Y-8334896D02*
X13693635Y-8325372D01*
X13693635Y-8325372D02*
X13712682Y-8315849D01*
X13712682Y-8315849D02*
X13750777Y-8315849D01*
X13750777Y-8315849D02*
X13769825Y-8325372D01*
X13846016Y-8525373D02*
X13855539Y-8515849D01*
X13855539Y-8515849D02*
X13874587Y-8487277D01*
X13874587Y-8487277D02*
X13884111Y-8468230D01*
X13884111Y-8468230D02*
X13893635Y-8439658D01*
X13893635Y-8439658D02*
X13903158Y-8392039D01*
X13903158Y-8392039D02*
X13903158Y-8353944D01*
X13903158Y-8353944D02*
X13893635Y-8306325D01*
X13893635Y-8306325D02*
X13884111Y-8277753D01*
X13884111Y-8277753D02*
X13874587Y-8258706D01*
X13874587Y-8258706D02*
X13855539Y-8230134D01*
X13855539Y-8230134D02*
X13846016Y-8220611D01*
M02*
