%TF.GenerationSoftware,KiCad,Pcbnew,8.0.7*%
%TF.CreationDate,2025-07-12T21:06:10-07:00*%
%TF.ProjectId,FOCdriver,464f4364-7269-4766-9572-2e6b69636164,1.0*%
%TF.SameCoordinates,Original*%
%TF.FileFunction,Copper,L2,Inr*%
%TF.FilePolarity,Positive*%
%FSLAX46Y46*%
G04 Gerber Fmt 4.6, Leading zero omitted, Abs format (unit mm)*
G04 Created by KiCad (PCBNEW 8.0.7) date 2025-07-12 21:06:10*
%MOMM*%
%LPD*%
G01*
G04 APERTURE LIST*
G04 Aperture macros list*
%AMRoundRect*
0 Rectangle with rounded corners*
0 $1 Rounding radius*
0 $2 $3 $4 $5 $6 $7 $8 $9 X,Y pos of 4 corners*
0 Add a 4 corners polygon primitive as box body*
4,1,4,$2,$3,$4,$5,$6,$7,$8,$9,$2,$3,0*
0 Add four circle primitives for the rounded corners*
1,1,$1+$1,$2,$3*
1,1,$1+$1,$4,$5*
1,1,$1+$1,$6,$7*
1,1,$1+$1,$8,$9*
0 Add four rect primitives between the rounded corners*
20,1,$1+$1,$2,$3,$4,$5,0*
20,1,$1+$1,$4,$5,$6,$7,0*
20,1,$1+$1,$6,$7,$8,$9,0*
20,1,$1+$1,$8,$9,$2,$3,0*%
G04 Aperture macros list end*
%TA.AperFunction,ComponentPad*%
%ADD10C,3.800000*%
%TD*%
%TA.AperFunction,ComponentPad*%
%ADD11C,0.550000*%
%TD*%
%TA.AperFunction,ComponentPad*%
%ADD12C,1.800000*%
%TD*%
%TA.AperFunction,ComponentPad*%
%ADD13RoundRect,0.675000X1.575000X-1.575000X1.575000X1.575000X-1.575000X1.575000X-1.575000X-1.575000X0*%
%TD*%
%TA.AperFunction,ComponentPad*%
%ADD14C,1.400000*%
%TD*%
%TA.AperFunction,ComponentPad*%
%ADD15RoundRect,0.770000X1.135287X-0.794936X0.794936X1.135287X-1.135287X0.794936X-0.794936X-1.135287X0*%
%TD*%
%TA.AperFunction,ComponentPad*%
%ADD16C,3.500000*%
%TD*%
%TA.AperFunction,ComponentPad*%
%ADD17O,1.000000X2.100000*%
%TD*%
%TA.AperFunction,ComponentPad*%
%ADD18O,1.000000X1.800000*%
%TD*%
%TA.AperFunction,ComponentPad*%
%ADD19C,0.499999*%
%TD*%
%TA.AperFunction,ViaPad*%
%ADD20C,0.550000*%
%TD*%
%TA.AperFunction,ViaPad*%
%ADD21C,0.600000*%
%TD*%
G04 APERTURE END LIST*
D10*
%TO.N,GND*%
%TO.C,H1*%
X122516661Y-63000000D03*
%TD*%
%TO.N,GND*%
%TO.C,H3*%
X116712478Y-30082844D03*
%TD*%
D11*
%TO.N,SH_A*%
%TO.C,J4*%
X91150000Y-74450000D03*
X91650000Y-74450000D03*
X92150000Y-74450000D03*
X91150000Y-74050000D03*
X91650000Y-74050000D03*
X92150000Y-74050000D03*
D12*
X90300000Y-73825000D03*
X93000000Y-73825000D03*
D11*
X91150000Y-73650000D03*
X91650000Y-73650000D03*
X92150000Y-73650000D03*
X89675000Y-72975000D03*
X90075000Y-72975000D03*
X90475000Y-72975000D03*
X92825000Y-72975000D03*
X93225000Y-72975000D03*
X93625000Y-72975000D03*
X89675000Y-72475000D03*
X90075000Y-72475000D03*
X90475000Y-72475000D03*
D13*
X91650000Y-72475000D03*
D11*
X92825000Y-72475000D03*
X93225000Y-72475000D03*
X93625000Y-72475000D03*
X89675000Y-71975000D03*
X90075000Y-71975000D03*
X90475000Y-71975000D03*
X92825000Y-71975000D03*
X93225000Y-71975000D03*
X93625000Y-71975000D03*
X91150000Y-71300000D03*
X91650000Y-71300000D03*
X92150000Y-71300000D03*
D12*
X90300000Y-71125000D03*
X93000000Y-71125000D03*
D11*
X91150000Y-70900000D03*
X91650000Y-70900000D03*
X92150000Y-70900000D03*
X91150000Y-70500000D03*
X91650000Y-70500000D03*
X92150000Y-70500000D03*
%TD*%
D10*
%TO.N,GND*%
%TO.C,H2*%
X77483340Y-63000000D03*
%TD*%
D14*
%TO.N,*%
%TO.C,J3*%
X75001225Y-60451900D03*
X73091095Y-49619015D03*
D15*
%TO.N,GND*%
X83460117Y-50836956D03*
D16*
%TO.N,DCBUS*%
X84328358Y-55760995D03*
%TD*%
D11*
%TO.N,SH_B*%
%TO.C,J5*%
X99500000Y-75600000D03*
X100000000Y-75600000D03*
X100500000Y-75600000D03*
X99500000Y-75200000D03*
X100000000Y-75200000D03*
X100500000Y-75200000D03*
D12*
X98650000Y-74975000D03*
X101350000Y-74975000D03*
D11*
X99500000Y-74800000D03*
X100000000Y-74800000D03*
X100500000Y-74800000D03*
X98025000Y-74125000D03*
X98425000Y-74125000D03*
X98825000Y-74125000D03*
X101175000Y-74125000D03*
X101575000Y-74125000D03*
X101975000Y-74125000D03*
X98025000Y-73625000D03*
X98425000Y-73625000D03*
X98825000Y-73625000D03*
D13*
X100000000Y-73625000D03*
D11*
X101175000Y-73625000D03*
X101575000Y-73625000D03*
X101975000Y-73625000D03*
X98025000Y-73125000D03*
X98425000Y-73125000D03*
X98825000Y-73125000D03*
X101175000Y-73125000D03*
X101575000Y-73125000D03*
X101975000Y-73125000D03*
X99500000Y-72450000D03*
X100000000Y-72450000D03*
X100500000Y-72450000D03*
D12*
X98650000Y-72275000D03*
X101350000Y-72275000D03*
D11*
X99500000Y-72050000D03*
X100000000Y-72050000D03*
X100500000Y-72050000D03*
X99500000Y-71650000D03*
X100000000Y-71650000D03*
X100500000Y-71650000D03*
%TD*%
D17*
%TO.N,GND*%
%TO.C,J1*%
X104320000Y-29125000D03*
D18*
X104320000Y-24925000D03*
D17*
X95680000Y-29125000D03*
D18*
X95680000Y-24925000D03*
%TD*%
D11*
%TO.N,SH_C*%
%TO.C,J6*%
X108150000Y-74475000D03*
X108650000Y-74475000D03*
X109150000Y-74475000D03*
X108150000Y-74075000D03*
X108650000Y-74075000D03*
X109150000Y-74075000D03*
D12*
X107300000Y-73850000D03*
X110000000Y-73850000D03*
D11*
X108150000Y-73675000D03*
X108650000Y-73675000D03*
X109150000Y-73675000D03*
X106675000Y-73000000D03*
X107075000Y-73000000D03*
X107475000Y-73000000D03*
X109825000Y-73000000D03*
X110225000Y-73000000D03*
X110625000Y-73000000D03*
X106675000Y-72500000D03*
X107075000Y-72500000D03*
X107475000Y-72500000D03*
D13*
X108650000Y-72500000D03*
D11*
X109825000Y-72500000D03*
X110225000Y-72500000D03*
X110625000Y-72500000D03*
X106675000Y-72000000D03*
X107075000Y-72000000D03*
X107475000Y-72000000D03*
X109825000Y-72000000D03*
X110225000Y-72000000D03*
X110625000Y-72000000D03*
X108150000Y-71325000D03*
X108650000Y-71325000D03*
X109150000Y-71325000D03*
D12*
X107300000Y-71150000D03*
X110000000Y-71150000D03*
D11*
X108150000Y-70925000D03*
X108650000Y-70925000D03*
X109150000Y-70925000D03*
X108150000Y-70525000D03*
X108650000Y-70525000D03*
X109150000Y-70525000D03*
%TD*%
D19*
%TO.N,GND*%
%TO.C,U3*%
X105186404Y-51916148D03*
X106067023Y-52965629D03*
X105326917Y-50310079D03*
X106059695Y-51183370D03*
X106940314Y-52232851D03*
X107673092Y-53106142D03*
X106376398Y-49429460D03*
X107109176Y-50302751D03*
X107989795Y-51352232D03*
X108722573Y-52225523D03*
X107982467Y-49569973D03*
X108863086Y-50619454D03*
%TD*%
D20*
%TO.N,DVCC*%
X110075000Y-35425000D03*
X102000000Y-50000000D03*
X113700000Y-33800000D03*
X99700000Y-37700000D03*
X109400000Y-37100000D03*
X102300000Y-36700000D03*
X112850000Y-45950000D03*
X116031587Y-42531587D03*
X99000000Y-37700000D03*
X107800000Y-46000000D03*
X100400000Y-37700000D03*
X102900000Y-36100000D03*
X97400000Y-38700000D03*
X102300000Y-36100000D03*
X110100000Y-36800000D03*
X100900000Y-46400000D03*
X100418413Y-36318413D03*
X109600000Y-36100000D03*
X108900000Y-35400000D03*
D21*
X102900000Y-36700000D03*
D20*
X101100000Y-37700000D03*
D21*
X118350000Y-37950000D03*
D20*
%TO.N,AVCC*%
X120500000Y-50200000D03*
X121200000Y-50200000D03*
X115075000Y-51725000D03*
X111025000Y-49475000D03*
X121200000Y-50900000D03*
X120500000Y-50900000D03*
D21*
X118425000Y-63775000D03*
D20*
%TO.N,NRST*%
X110250000Y-40950000D03*
D21*
X95950000Y-40425000D03*
%TO.N,SWCLK*%
X115225000Y-34375000D03*
X113150000Y-30975000D03*
%TO.N,SWDIO*%
X115775000Y-33625000D03*
X114000000Y-30975000D03*
D20*
%TO.N,BOOT0*%
X112100000Y-39500000D03*
X100500000Y-40600000D03*
%TO.N,CAN_TX*%
X113000000Y-38000000D03*
%TO.N,5V*%
X78250000Y-40300000D03*
X76821431Y-40974993D03*
X78000000Y-50500000D03*
X78500000Y-49500000D03*
X77000000Y-40350000D03*
X78000000Y-51250000D03*
X78750000Y-50250000D03*
X79500000Y-50750000D03*
X79250000Y-49250000D03*
X78750000Y-51000000D03*
X79500000Y-50000000D03*
X78200000Y-41000000D03*
X77494983Y-40980623D03*
X77750000Y-49750000D03*
%TO.N,DCBUS*%
X110350000Y-65375000D03*
X107950000Y-66175000D03*
X107150000Y-66975000D03*
X109500000Y-61075000D03*
X86100000Y-60475000D03*
X84400000Y-65375000D03*
X86000000Y-64575000D03*
X110000000Y-60475000D03*
X102250000Y-61925000D03*
X85200000Y-64575000D03*
X103984998Y-53376023D03*
X99540000Y-53960000D03*
X76600000Y-58600000D03*
X85200000Y-66175000D03*
X84800000Y-60475000D03*
X107950000Y-66975000D03*
X107950000Y-65375000D03*
D21*
X88550000Y-54325000D03*
D20*
X85450000Y-60475000D03*
X110350000Y-64575000D03*
X85950000Y-61700000D03*
X86000000Y-66175000D03*
X104500000Y-66375000D03*
X83600000Y-64575000D03*
X85200000Y-66975000D03*
X101300000Y-67175000D03*
X86750000Y-60475000D03*
X76800000Y-59250000D03*
X108750000Y-64575000D03*
X102900000Y-67175000D03*
X107150000Y-66175000D03*
X86800000Y-66975000D03*
X102100000Y-65575000D03*
X101100000Y-61325000D03*
X86000000Y-65375000D03*
X101300000Y-66375000D03*
X102900000Y-66375000D03*
X84400000Y-66975000D03*
X104500000Y-65575000D03*
X109550000Y-66175000D03*
X102250000Y-62550000D03*
X102900000Y-67975000D03*
X109550000Y-66975000D03*
X102100000Y-66375000D03*
X109550000Y-65375000D03*
X100320000Y-54260000D03*
X76050000Y-59500000D03*
X102100000Y-67175000D03*
X86000000Y-66975000D03*
X85950000Y-62350000D03*
X101010000Y-54260000D03*
X83600000Y-65375000D03*
X77350000Y-58350000D03*
X103700000Y-67975000D03*
X107150000Y-65375000D03*
X102400000Y-61325000D03*
X104500000Y-67175000D03*
X74900000Y-58450000D03*
X86800000Y-64575000D03*
X108750000Y-66975000D03*
X103700000Y-65575000D03*
X107950000Y-64575000D03*
X86800000Y-65375000D03*
X83600000Y-66175000D03*
X85200000Y-65375000D03*
X110350000Y-66175000D03*
X77550000Y-59000000D03*
X107150000Y-64575000D03*
X110650000Y-60475000D03*
X78100000Y-58100000D03*
X84400000Y-66175000D03*
X102250000Y-63200000D03*
X103700000Y-66375000D03*
X110350000Y-66975000D03*
X109550000Y-64575000D03*
X109350000Y-60475000D03*
X108750000Y-66175000D03*
X104500000Y-67975000D03*
X109500000Y-62350000D03*
X75850000Y-58850000D03*
X83600000Y-66975000D03*
X109500000Y-61700000D03*
X108750000Y-65375000D03*
X101300000Y-65575000D03*
X101750000Y-61325000D03*
X78300000Y-58750000D03*
X86800000Y-66175000D03*
X76400000Y-57950000D03*
X84400000Y-64575000D03*
X102100000Y-67975000D03*
X103050000Y-61325000D03*
X85950000Y-61075000D03*
X75100000Y-59100000D03*
X102900000Y-65575000D03*
X75650000Y-58200000D03*
X101300000Y-67975000D03*
X103700000Y-67175000D03*
D21*
%TO.N,Net-(D1-A)*%
X101770000Y-27125000D03*
X100020000Y-27125000D03*
X106930000Y-33650000D03*
X98270000Y-27125000D03*
D20*
%TO.N,Net-(U7-FB)*%
X82600000Y-38500000D03*
%TO.N,VBAT_Sense*%
X115500000Y-46100000D03*
%TO.N,TEMP_Sense*%
X114900000Y-45400000D03*
D21*
X119425000Y-56900000D03*
X118425000Y-67225000D03*
%TO.N,Net-(U3-DVDD)*%
X105425000Y-47200000D03*
D20*
%TO.N,nFAULT*%
X110430478Y-48680478D03*
%TO.N,CAN_RX*%
X113000000Y-38825000D03*
D21*
%TO.N,CAL*%
X106075000Y-44550000D03*
X107000000Y-47200000D03*
%TO.N,SA_P*%
X92400000Y-60775000D03*
X105156747Y-55506747D03*
D20*
%TO.N,SB_P*%
X107415166Y-56215166D03*
D21*
X96122448Y-61775000D03*
D20*
%TO.N,DR_EN*%
X107649990Y-46774990D03*
X104425002Y-48125000D03*
X102250001Y-46420000D03*
X103407951Y-46428876D03*
X110175000Y-43475000D03*
D21*
%TO.N,SC_P*%
X112030000Y-53110000D03*
X116187889Y-60775000D03*
%TO.N,SA_N*%
X105956747Y-55506747D03*
X92400000Y-59975000D03*
D20*
%TO.N,4V5*%
X123650000Y-38750000D03*
X124300000Y-39400000D03*
X77000000Y-36750000D03*
X125400000Y-50800000D03*
X105800000Y-24300000D03*
X106550000Y-25650000D03*
X123000000Y-39400000D03*
X78000000Y-37450000D03*
X108650000Y-27800000D03*
X107300000Y-25000000D03*
X94000000Y-32500000D03*
X94700000Y-33900000D03*
X76700000Y-37300000D03*
X77500000Y-37100000D03*
X108000000Y-25650000D03*
X95400000Y-33200000D03*
X94700000Y-32500000D03*
X105800000Y-25650000D03*
X108000000Y-25050000D03*
X94700000Y-33200000D03*
X123000000Y-38100000D03*
X94000000Y-33900000D03*
X105800000Y-25000000D03*
X107300000Y-25650000D03*
X76400000Y-37800000D03*
X95400000Y-33900000D03*
X106550000Y-24300000D03*
X123650000Y-39400000D03*
X95400000Y-32500000D03*
X77200000Y-37650000D03*
X93750000Y-24750000D03*
X94000000Y-33200000D03*
X123000000Y-38750000D03*
X123650000Y-38100000D03*
X106550000Y-25000000D03*
%TO.N,I2C3_SCL*%
X116800000Y-37800000D03*
X88750000Y-28250000D03*
%TO.N,I2C3_SDA*%
X89706587Y-27806587D03*
X116775000Y-38570406D03*
%TO.N,SPI2_MOSI*%
X117364708Y-41475000D03*
%TO.N,Encoder_CS*%
X117375000Y-43971928D03*
D21*
%TO.N,DR_CS*%
X108636210Y-46925224D03*
X107425000Y-44675000D03*
D20*
%TO.N,SPI2_MISO*%
X117364708Y-42335290D03*
%TO.N,SPI2_SCK*%
X117364708Y-43148464D03*
D21*
%TO.N,CAN+*%
X88900000Y-35085000D03*
%TO.N,CAN-*%
X88900000Y-35985000D03*
D20*
%TO.N,SB_N*%
X106884834Y-55684834D03*
D21*
X96122448Y-60975000D03*
%TO.N,GND*%
X97640000Y-53200000D03*
D20*
X91150000Y-27550000D03*
X123000000Y-53250000D03*
X99760000Y-34220000D03*
X95500000Y-58250000D03*
X103250000Y-57700000D03*
D21*
X112600000Y-33675000D03*
D20*
X94900000Y-58850000D03*
X104000000Y-61050000D03*
X117600000Y-57300000D03*
X102000000Y-43600000D03*
X111900000Y-40950000D03*
X123800000Y-53250000D03*
D21*
X106800735Y-38599265D03*
X82500000Y-34750000D03*
D20*
X104000000Y-61650000D03*
D21*
X118340000Y-39490000D03*
D20*
X96700000Y-57700000D03*
X98800000Y-32800000D03*
D21*
X86400000Y-36650000D03*
D20*
X100450000Y-57700000D03*
D21*
X87400000Y-31600000D03*
D20*
X113900000Y-52400000D03*
X92813009Y-58013009D03*
X94900000Y-57700000D03*
X121100000Y-53200000D03*
D21*
X81700000Y-64200000D03*
X102000000Y-40600000D03*
D20*
X77350000Y-44230000D03*
X115200000Y-53700000D03*
D21*
X119950000Y-55100000D03*
D20*
X117250000Y-53750000D03*
X113450000Y-55300000D03*
D21*
X110300000Y-44675000D03*
X106800000Y-62290000D03*
X82600000Y-60200000D03*
X99500000Y-52200000D03*
D20*
X102250000Y-58600000D03*
X98200000Y-49350000D03*
X114200000Y-55300000D03*
D21*
X107300000Y-39300000D03*
D20*
X101850000Y-51300000D03*
X78650000Y-45450000D03*
X117000000Y-57300000D03*
X87250000Y-42750000D03*
X104600000Y-61050000D03*
X111950000Y-34075000D03*
D21*
X83600000Y-38600000D03*
D20*
X105200000Y-60450000D03*
D21*
X87850000Y-32900000D03*
D20*
X99750000Y-57700000D03*
X113850000Y-56600000D03*
X117000000Y-57900000D03*
X87250000Y-45750000D03*
D21*
X118250000Y-54700000D03*
D20*
X76375000Y-46350000D03*
D21*
X81700000Y-65000000D03*
D20*
X76350000Y-45600000D03*
X117600000Y-56700000D03*
X96100000Y-58250000D03*
X94900000Y-58250000D03*
D21*
X86550000Y-30600000D03*
D20*
X86000000Y-39500000D03*
X96700000Y-58850000D03*
D21*
X88850000Y-33950000D03*
X80500000Y-37450000D03*
D20*
X121100000Y-54000000D03*
X113475000Y-50070000D03*
D21*
X85550000Y-29700000D03*
D20*
X120080668Y-48315937D03*
X111350000Y-51800000D03*
X113150000Y-56600000D03*
D21*
X106850000Y-60950000D03*
D20*
X87250000Y-44750000D03*
X77780000Y-47420000D03*
X113451309Y-48744056D03*
D21*
X83300000Y-35350000D03*
D20*
X96700000Y-31700000D03*
X100300000Y-44750000D03*
X101850000Y-57700000D03*
X116400000Y-55500000D03*
X113000000Y-54700000D03*
D21*
X104430000Y-33650000D03*
D20*
X112525000Y-51575000D03*
X105200000Y-61050000D03*
X96100000Y-57700000D03*
D21*
X82000000Y-62000000D03*
D20*
X104600000Y-61650000D03*
X99550000Y-45450000D03*
D21*
X79450000Y-37700000D03*
D20*
X87250000Y-46750000D03*
D21*
X83550000Y-41050000D03*
X103500000Y-45300000D03*
X117380000Y-46050000D03*
D20*
X87250000Y-43750000D03*
X77350000Y-45600000D03*
X117600000Y-57900000D03*
X96100000Y-58850000D03*
X101500000Y-58600000D03*
D21*
X105700000Y-31225000D03*
D20*
X99550000Y-44750000D03*
D21*
X87600000Y-36650000D03*
D20*
X95500000Y-58850000D03*
D21*
X105450000Y-45100000D03*
X107527814Y-60971685D03*
D20*
X117000000Y-56100000D03*
X106600000Y-40300000D03*
X116400000Y-54900000D03*
X78650000Y-47220000D03*
D21*
X84400000Y-38600000D03*
D20*
X96700000Y-58250000D03*
X98800000Y-46450000D03*
D21*
X121550000Y-56200000D03*
D20*
X112350000Y-54050000D03*
D21*
X119150000Y-55700000D03*
D20*
X104600000Y-60450000D03*
X94253973Y-58921781D03*
X114500000Y-53000000D03*
X101150000Y-57700000D03*
X103930000Y-36150000D03*
X100750000Y-58600000D03*
X113700000Y-54700000D03*
X103925000Y-36900000D03*
D21*
X98700000Y-52200000D03*
D20*
X114550000Y-56600000D03*
X105311828Y-41624999D03*
X113750000Y-49400000D03*
X93500000Y-57700000D03*
X114550000Y-55950000D03*
X115800000Y-54300000D03*
X97600000Y-47000000D03*
X113250000Y-51800000D03*
X105200000Y-61650000D03*
X116400000Y-56700000D03*
D21*
X82000000Y-61200000D03*
X80900000Y-63400000D03*
D20*
X95500000Y-57700000D03*
X113150000Y-55950000D03*
X87250000Y-41750000D03*
X94300000Y-57700000D03*
X124950000Y-42475000D03*
D21*
X85200000Y-37650000D03*
X84050000Y-37700000D03*
D20*
X116400000Y-56100000D03*
D21*
X87850000Y-33950000D03*
D20*
X116400000Y-57300000D03*
D21*
X112100000Y-31275000D03*
D20*
X94300000Y-58250000D03*
X113850000Y-55950000D03*
X87250000Y-47750000D03*
D21*
X122550000Y-54050000D03*
D20*
X117000000Y-56700000D03*
X113050000Y-54050000D03*
D21*
X81700000Y-63400000D03*
X83400000Y-60200000D03*
D20*
X96700000Y-59450000D03*
X98300000Y-57700000D03*
D21*
X90150000Y-36900000D03*
X86400000Y-37650000D03*
X107510000Y-62290000D03*
X107530000Y-61620000D03*
D20*
X99050000Y-57700000D03*
X102550000Y-57700000D03*
X106900000Y-35900000D03*
X97500000Y-57700000D03*
X116400000Y-57900000D03*
X93125000Y-31125000D03*
D21*
X87250000Y-40700000D03*
%TO.N,SC_N*%
X112030000Y-52310000D03*
X116187889Y-59975000D03*
%TO.N,Net-(R3-Pad2)*%
X88900000Y-38650000D03*
%TD*%
%TA.AperFunction,Conductor*%
%TO.N,GND*%
G36*
X100137921Y-21075871D02*
G01*
X101196373Y-21100296D01*
X101200876Y-21100482D01*
X102257701Y-21163790D01*
X102262193Y-21164142D01*
X103315982Y-21266249D01*
X103320475Y-21266768D01*
X104369808Y-21407535D01*
X104374228Y-21408211D01*
X105255838Y-21559649D01*
X105318576Y-21590399D01*
X105354731Y-21650187D01*
X105358844Y-21681647D01*
X105361863Y-23444120D01*
X105359579Y-23466764D01*
X105361183Y-23481102D01*
X105361951Y-23494663D01*
X105361958Y-23498735D01*
X105363606Y-23506948D01*
X105365045Y-23516180D01*
X105365168Y-23516451D01*
X105371327Y-23524300D01*
X105380787Y-23533726D01*
X105384850Y-23537971D01*
X105398199Y-23552600D01*
X105403774Y-23553746D01*
X105419105Y-23558436D01*
X105431648Y-23560908D01*
X105442676Y-23562116D01*
X105645503Y-23607498D01*
X105706624Y-23641345D01*
X105739745Y-23702865D01*
X105734348Y-23772526D01*
X105692146Y-23828211D01*
X105653361Y-23847482D01*
X105600440Y-23863021D01*
X105485413Y-23936942D01*
X105485409Y-23936946D01*
X105395872Y-24040278D01*
X105395867Y-24040285D01*
X105339070Y-24164654D01*
X105339068Y-24164662D01*
X105319610Y-24300000D01*
X105339068Y-24435337D01*
X105339070Y-24435345D01*
X105395867Y-24559712D01*
X105395871Y-24559719D01*
X105403740Y-24568801D01*
X105432763Y-24632358D01*
X105422816Y-24701516D01*
X105403740Y-24731199D01*
X105395871Y-24740280D01*
X105395867Y-24740287D01*
X105339070Y-24864654D01*
X105339068Y-24864662D01*
X105319610Y-25000000D01*
X105339068Y-25135337D01*
X105339070Y-25135345D01*
X105399554Y-25267786D01*
X105397853Y-25268562D01*
X105414425Y-25325001D01*
X105397853Y-25381437D01*
X105399554Y-25382214D01*
X105339070Y-25514654D01*
X105339068Y-25514662D01*
X105319610Y-25650000D01*
X105339068Y-25785337D01*
X105339070Y-25785345D01*
X105395867Y-25909714D01*
X105395872Y-25909721D01*
X105485409Y-26013053D01*
X105485413Y-26013057D01*
X105545979Y-26051979D01*
X105600439Y-26086978D01*
X105666036Y-26106239D01*
X105731632Y-26125500D01*
X105731633Y-26125500D01*
X105868367Y-26125500D01*
X105999561Y-26086978D01*
X106107962Y-26017313D01*
X106175001Y-25997630D01*
X106242037Y-26017313D01*
X106350439Y-26086978D01*
X106350441Y-26086978D01*
X106350442Y-26086979D01*
X106481632Y-26125500D01*
X106481633Y-26125500D01*
X106618367Y-26125500D01*
X106749561Y-26086978D01*
X106857962Y-26017313D01*
X106925001Y-25997630D01*
X106992037Y-26017313D01*
X107100439Y-26086978D01*
X107100441Y-26086978D01*
X107100442Y-26086979D01*
X107231632Y-26125500D01*
X107231633Y-26125500D01*
X107368367Y-26125500D01*
X107499561Y-26086978D01*
X107582963Y-26033379D01*
X107650001Y-26013696D01*
X107717036Y-26033379D01*
X107800439Y-26086978D01*
X107800441Y-26086978D01*
X107800442Y-26086979D01*
X107931632Y-26125500D01*
X107931633Y-26125500D01*
X108068367Y-26125500D01*
X108199561Y-26086978D01*
X108314589Y-26013055D01*
X108404130Y-25909718D01*
X108460931Y-25785342D01*
X108480390Y-25650000D01*
X108460931Y-25514658D01*
X108409257Y-25401510D01*
X108399314Y-25332353D01*
X108409256Y-25298491D01*
X108460931Y-25185342D01*
X108480390Y-25050000D01*
X108460931Y-24914658D01*
X108447345Y-24884908D01*
X108404132Y-24790285D01*
X108404127Y-24790278D01*
X108314590Y-24686946D01*
X108314586Y-24686942D01*
X108202113Y-24614662D01*
X108199561Y-24613022D01*
X108199560Y-24613021D01*
X108199559Y-24613021D01*
X108068368Y-24574500D01*
X108068367Y-24574500D01*
X107931633Y-24574500D01*
X107931632Y-24574500D01*
X107800441Y-24613020D01*
X107755938Y-24641620D01*
X107688898Y-24661303D01*
X107621863Y-24641619D01*
X107501814Y-24564470D01*
X107499561Y-24563022D01*
X107499560Y-24563021D01*
X107499559Y-24563021D01*
X107368368Y-24524500D01*
X107368367Y-24524500D01*
X107231633Y-24524500D01*
X107231630Y-24524500D01*
X107172950Y-24541730D01*
X107103081Y-24541730D01*
X107044303Y-24503955D01*
X107015278Y-24440399D01*
X107015278Y-24405106D01*
X107017889Y-24386945D01*
X107030390Y-24300000D01*
X107010931Y-24164658D01*
X107001690Y-24144424D01*
X106991748Y-24075268D01*
X107020774Y-24011713D01*
X107079552Y-23973939D01*
X107145743Y-23972921D01*
X107241302Y-23997815D01*
X107245387Y-23998955D01*
X108139346Y-24265304D01*
X108143358Y-24266576D01*
X109027517Y-24563796D01*
X109031516Y-24565218D01*
X109904773Y-24892934D01*
X109908746Y-24894504D01*
X110608822Y-25185337D01*
X110770110Y-25252341D01*
X110774057Y-25254062D01*
X111622431Y-25641566D01*
X111626315Y-25643422D01*
X112460759Y-26060161D01*
X112464573Y-26062150D01*
X113284041Y-26507603D01*
X113287723Y-26509688D01*
X114065396Y-26968092D01*
X114091264Y-26983340D01*
X114094935Y-26985591D01*
X114876342Y-27483535D01*
X114886177Y-27490496D01*
X114898482Y-27500136D01*
X114902847Y-27501537D01*
X114903781Y-27501496D01*
X114903783Y-27501497D01*
X114920353Y-27500773D01*
X114930215Y-27500738D01*
X114946779Y-27501339D01*
X114946780Y-27501338D01*
X114947710Y-27501372D01*
X114952070Y-27499938D01*
X114952797Y-27499359D01*
X114952799Y-27499359D01*
X114962192Y-27491886D01*
X114975803Y-27482472D01*
X115249987Y-27318750D01*
X115261756Y-27312556D01*
X115555033Y-27177774D01*
X115567416Y-27172870D01*
X115873464Y-27070337D01*
X115886298Y-27066792D01*
X116201594Y-26997691D01*
X116214710Y-26995548D01*
X116535591Y-26960683D01*
X116548887Y-26959958D01*
X116871668Y-26959727D01*
X116884949Y-26960433D01*
X117205872Y-26994840D01*
X117219021Y-26996969D01*
X117534398Y-27065617D01*
X117547248Y-27069147D01*
X117853425Y-27171237D01*
X117865822Y-27176125D01*
X118052156Y-27261438D01*
X118159286Y-27310487D01*
X118171086Y-27316678D01*
X118448430Y-27481751D01*
X118459490Y-27489165D01*
X118701815Y-27671249D01*
X118717527Y-27683055D01*
X118727733Y-27691619D01*
X118894733Y-27847794D01*
X118963468Y-27912074D01*
X118972698Y-27921686D01*
X119183411Y-28166161D01*
X119191556Y-28176707D01*
X119374826Y-28442394D01*
X119381791Y-28453752D01*
X119535488Y-28737569D01*
X119541190Y-28749600D01*
X119663539Y-29048262D01*
X119667921Y-29060846D01*
X119757517Y-29370921D01*
X119760522Y-29383903D01*
X119816327Y-29701798D01*
X119817923Y-29715029D01*
X119839290Y-30037076D01*
X119839456Y-30050401D01*
X119826141Y-30372873D01*
X119824877Y-30386138D01*
X119777032Y-30705332D01*
X119774351Y-30718386D01*
X119692532Y-31030595D01*
X119688466Y-31043286D01*
X119574794Y-31341813D01*
X119567858Y-31356903D01*
X119561771Y-31368101D01*
X119561113Y-31372652D01*
X119564768Y-31389743D01*
X119566456Y-31399546D01*
X119568726Y-31416855D01*
X119570869Y-31420924D01*
X119582584Y-31431445D01*
X119591274Y-31440060D01*
X120252496Y-32163745D01*
X120255505Y-32167163D01*
X120893774Y-32919433D01*
X120896656Y-32922959D01*
X121506880Y-33698169D01*
X121509630Y-33701797D01*
X121752891Y-34035337D01*
X122090970Y-34498883D01*
X122093586Y-34502611D01*
X122645293Y-35320547D01*
X122647769Y-35324369D01*
X123169026Y-36161945D01*
X123171361Y-36165854D01*
X123661544Y-37022060D01*
X123663734Y-37026054D01*
X123889094Y-37455539D01*
X123902813Y-37524048D01*
X123877314Y-37589099D01*
X123820695Y-37630038D01*
X123750930Y-37633867D01*
X123744358Y-37632131D01*
X123718369Y-37624500D01*
X123718367Y-37624500D01*
X123581633Y-37624500D01*
X123581632Y-37624500D01*
X123450440Y-37663021D01*
X123392038Y-37700553D01*
X123324998Y-37720237D01*
X123257962Y-37700553D01*
X123202113Y-37664662D01*
X123199561Y-37663022D01*
X123199560Y-37663021D01*
X123199559Y-37663021D01*
X123068368Y-37624500D01*
X123068367Y-37624500D01*
X122931633Y-37624500D01*
X122931632Y-37624500D01*
X122800440Y-37663021D01*
X122685413Y-37736942D01*
X122685409Y-37736946D01*
X122595872Y-37840278D01*
X122595867Y-37840285D01*
X122539070Y-37964654D01*
X122539068Y-37964662D01*
X122519610Y-38100000D01*
X122539068Y-38235337D01*
X122539070Y-38235345D01*
X122599554Y-38367786D01*
X122597853Y-38368562D01*
X122614425Y-38425001D01*
X122597853Y-38481437D01*
X122599554Y-38482214D01*
X122539070Y-38614654D01*
X122539068Y-38614662D01*
X122519610Y-38750000D01*
X122539068Y-38885337D01*
X122539070Y-38885345D01*
X122599554Y-39017786D01*
X122597853Y-39018562D01*
X122614425Y-39075001D01*
X122597853Y-39131437D01*
X122599554Y-39132214D01*
X122539070Y-39264654D01*
X122539068Y-39264662D01*
X122519610Y-39400000D01*
X122539068Y-39535337D01*
X122539070Y-39535345D01*
X122595867Y-39659714D01*
X122595872Y-39659721D01*
X122685409Y-39763053D01*
X122685413Y-39763057D01*
X122742037Y-39799446D01*
X122800439Y-39836978D01*
X122866036Y-39856239D01*
X122931632Y-39875500D01*
X122931633Y-39875500D01*
X123068367Y-39875500D01*
X123199561Y-39836978D01*
X123257964Y-39799445D01*
X123325000Y-39779762D01*
X123392035Y-39799445D01*
X123450439Y-39836978D01*
X123450441Y-39836978D01*
X123450442Y-39836979D01*
X123581632Y-39875500D01*
X123581633Y-39875500D01*
X123718367Y-39875500D01*
X123849561Y-39836978D01*
X123907964Y-39799445D01*
X123975000Y-39779762D01*
X124042035Y-39799445D01*
X124100439Y-39836978D01*
X124100441Y-39836978D01*
X124100442Y-39836979D01*
X124231632Y-39875500D01*
X124231633Y-39875500D01*
X124368367Y-39875500D01*
X124499561Y-39836978D01*
X124614589Y-39763055D01*
X124704130Y-39659718D01*
X124704132Y-39659712D01*
X124708924Y-39652258D01*
X124710958Y-39653565D01*
X124748204Y-39610567D01*
X124815241Y-39590872D01*
X124882283Y-39610546D01*
X124928046Y-39663343D01*
X124928994Y-39665470D01*
X124945125Y-39702607D01*
X124946863Y-39706817D01*
X125306433Y-40625564D01*
X125308014Y-40629835D01*
X125633583Y-41561105D01*
X125635007Y-41565430D01*
X125926177Y-42508076D01*
X125927441Y-42512452D01*
X126183795Y-43465139D01*
X126184897Y-43469557D01*
X126406097Y-44431015D01*
X126407036Y-44435471D01*
X126592999Y-45405535D01*
X126593408Y-45407775D01*
X126597385Y-45430801D01*
X126598043Y-45431441D01*
X126603364Y-45437999D01*
X126603401Y-45437964D01*
X126612127Y-45447142D01*
X126626225Y-45458846D01*
X126632559Y-45465006D01*
X126649105Y-45467390D01*
X126658639Y-45469148D01*
X126665660Y-45470731D01*
X126665669Y-45470729D01*
X126666373Y-45470748D01*
X126680939Y-45471977D01*
X126681120Y-45472004D01*
X126681120Y-45472003D01*
X126681121Y-45472004D01*
X126688081Y-45470801D01*
X126711590Y-45462797D01*
X127312881Y-45358937D01*
X127382290Y-45366924D01*
X127436365Y-45411170D01*
X127456518Y-45462115D01*
X127571250Y-46201532D01*
X127571828Y-46205734D01*
X127685029Y-47146697D01*
X127685464Y-47150917D01*
X127766419Y-48095239D01*
X127766709Y-48099470D01*
X127815321Y-49046004D01*
X127815466Y-49050243D01*
X127831675Y-49997879D01*
X127831675Y-50002121D01*
X127815466Y-50949756D01*
X127815321Y-50953995D01*
X127766709Y-51900529D01*
X127766419Y-51904760D01*
X127685464Y-52849082D01*
X127685029Y-52853302D01*
X127571828Y-53794265D01*
X127571250Y-53798467D01*
X127456518Y-54537883D01*
X127426787Y-54601111D01*
X127367591Y-54638229D01*
X127312878Y-54641061D01*
X127296482Y-54638229D01*
X127005441Y-54587958D01*
X126696974Y-54534677D01*
X126673459Y-54526672D01*
X126666502Y-54525470D01*
X126666306Y-54525499D01*
X126651774Y-54526725D01*
X126651039Y-54526743D01*
X126644036Y-54528321D01*
X126634485Y-54530083D01*
X126617941Y-54532468D01*
X126611604Y-54538631D01*
X126597499Y-54550342D01*
X126588782Y-54559511D01*
X126588746Y-54559477D01*
X126583433Y-54566026D01*
X126582766Y-54566674D01*
X126578781Y-54589749D01*
X126578404Y-54591825D01*
X126407365Y-55490587D01*
X126406505Y-55494719D01*
X126205236Y-56386008D01*
X126204237Y-56390108D01*
X125972740Y-57274087D01*
X125971601Y-57278151D01*
X125710167Y-58153704D01*
X125708891Y-58157726D01*
X125417815Y-59023876D01*
X125416403Y-59027853D01*
X125096014Y-59883614D01*
X125094467Y-59887541D01*
X124747441Y-60726347D01*
X124742581Y-60736713D01*
X124734971Y-60751166D01*
X124734389Y-60755525D01*
X124738271Y-60772966D01*
X124739954Y-60782145D01*
X124742510Y-60799807D01*
X124744605Y-60803684D01*
X124754586Y-60812499D01*
X124765874Y-60823847D01*
X124976697Y-61065108D01*
X124984923Y-61075612D01*
X125166220Y-61334718D01*
X125170332Y-61340594D01*
X125177381Y-61351920D01*
X125333246Y-61635282D01*
X125339038Y-61647300D01*
X125463562Y-61945774D01*
X125468029Y-61958345D01*
X125559768Y-62268473D01*
X125562858Y-62281452D01*
X125620743Y-62599621D01*
X125622422Y-62612856D01*
X125645792Y-62935419D01*
X125646039Y-62948758D01*
X125634619Y-63271966D01*
X125633431Y-63285253D01*
X125587357Y-63605351D01*
X125584749Y-63618435D01*
X125504548Y-63931745D01*
X125500549Y-63944472D01*
X125387158Y-64247340D01*
X125381815Y-64259565D01*
X125236538Y-64548505D01*
X125229913Y-64560084D01*
X125054433Y-64831748D01*
X125046601Y-64842549D01*
X124842960Y-65093777D01*
X124834014Y-65103674D01*
X124604559Y-65331572D01*
X124594602Y-65340451D01*
X124341978Y-65542390D01*
X124331124Y-65550147D01*
X124058287Y-65723765D01*
X124046662Y-65730312D01*
X123756729Y-65873624D01*
X123744469Y-65878883D01*
X123440837Y-65990211D01*
X123428082Y-65994123D01*
X123114242Y-66072186D01*
X123101142Y-66074705D01*
X122780738Y-66118601D01*
X122767441Y-66119699D01*
X122444157Y-66128917D01*
X122430821Y-66128579D01*
X122108427Y-66103015D01*
X122095203Y-66101246D01*
X121780804Y-66041832D01*
X121764435Y-66037564D01*
X121752646Y-66033613D01*
X121747961Y-66033764D01*
X121731960Y-66040299D01*
X121722317Y-66043779D01*
X121718544Y-66044966D01*
X121705837Y-66048966D01*
X121702140Y-66051839D01*
X121693956Y-66065045D01*
X121686794Y-66075389D01*
X121074671Y-66870119D01*
X121071761Y-66873754D01*
X120426047Y-67649970D01*
X120423002Y-67653493D01*
X119748621Y-68404893D01*
X119745446Y-68408300D01*
X119043319Y-69133857D01*
X119040019Y-69137142D01*
X118311116Y-69835852D01*
X118307694Y-69839010D01*
X117553121Y-70509815D01*
X117549584Y-70512843D01*
X116770319Y-71154875D01*
X116766670Y-71157768D01*
X115963862Y-71770077D01*
X115960107Y-71772831D01*
X115134870Y-72354571D01*
X115131014Y-72357182D01*
X114284535Y-72907512D01*
X114280584Y-72909977D01*
X113414003Y-73428159D01*
X113409962Y-73430473D01*
X112524564Y-73915737D01*
X112520439Y-73917898D01*
X111617449Y-74369574D01*
X111613246Y-74371579D01*
X111210040Y-74554672D01*
X111140861Y-74564467D01*
X111077367Y-74535305D01*
X111039719Y-74476446D01*
X111039869Y-74406577D01*
X111047682Y-74386675D01*
X111051641Y-74378693D01*
X111097600Y-74193889D01*
X111100500Y-74151123D01*
X111100499Y-73906618D01*
X111101028Y-73895175D01*
X111102284Y-73881622D01*
X111105215Y-73850000D01*
X111101027Y-73804821D01*
X111100499Y-73793379D01*
X111100499Y-73042885D01*
X111101761Y-73025237D01*
X111102818Y-73017885D01*
X111105390Y-73000000D01*
X111101761Y-72974761D01*
X111100499Y-72957114D01*
X111100499Y-72542886D01*
X111101761Y-72525238D01*
X111102819Y-72517881D01*
X111105390Y-72500000D01*
X111101761Y-72474761D01*
X111100499Y-72457114D01*
X111100499Y-72042885D01*
X111101761Y-72025237D01*
X111102818Y-72017885D01*
X111105390Y-72000000D01*
X111101761Y-71974760D01*
X111100499Y-71957113D01*
X111100499Y-71206625D01*
X111101028Y-71195183D01*
X111105215Y-71149999D01*
X111101028Y-71104813D01*
X111100499Y-71093372D01*
X111100499Y-70848877D01*
X111100498Y-70848876D01*
X111097600Y-70806111D01*
X111051641Y-70621307D01*
X110997118Y-70511371D01*
X110967032Y-70450707D01*
X110967030Y-70450704D01*
X110847722Y-70302278D01*
X110847721Y-70302277D01*
X110699295Y-70182969D01*
X110699292Y-70182967D01*
X110528697Y-70098360D01*
X110343892Y-70052400D01*
X110318229Y-70050660D01*
X110301123Y-70049500D01*
X110101976Y-70049500D01*
X109898024Y-70049500D01*
X109898023Y-70049500D01*
X109218368Y-70049500D01*
X109218367Y-70049500D01*
X109081633Y-70049500D01*
X109081631Y-70049500D01*
X108718368Y-70049500D01*
X108718367Y-70049500D01*
X108581633Y-70049500D01*
X108581631Y-70049500D01*
X108218369Y-70049500D01*
X108218367Y-70049500D01*
X108081633Y-70049500D01*
X108081630Y-70049500D01*
X107401980Y-70049500D01*
X107401976Y-70049500D01*
X107198024Y-70049500D01*
X107198018Y-70049500D01*
X106998878Y-70049500D01*
X106998874Y-70049501D01*
X106956113Y-70052399D01*
X106956112Y-70052399D01*
X106771303Y-70098360D01*
X106600707Y-70182967D01*
X106600704Y-70182969D01*
X106452278Y-70302277D01*
X106452277Y-70302278D01*
X106332969Y-70450704D01*
X106332967Y-70450707D01*
X106248360Y-70621302D01*
X106202400Y-70806107D01*
X106199500Y-70848879D01*
X106199500Y-71093382D01*
X106198971Y-71104823D01*
X106194785Y-71149998D01*
X106194785Y-71150000D01*
X106198971Y-71195176D01*
X106199500Y-71206617D01*
X106199500Y-71957118D01*
X106198238Y-71974763D01*
X106194610Y-71999998D01*
X106194610Y-71999999D01*
X106198238Y-72025235D01*
X106199500Y-72042881D01*
X106199500Y-72457118D01*
X106198238Y-72474763D01*
X106194610Y-72499999D01*
X106198238Y-72525235D01*
X106199500Y-72542881D01*
X106199500Y-72957118D01*
X106198238Y-72974763D01*
X106194610Y-72999999D01*
X106198238Y-73025235D01*
X106199500Y-73042881D01*
X106199500Y-73793376D01*
X106198971Y-73804815D01*
X106194785Y-73849997D01*
X106194785Y-73850002D01*
X106198971Y-73895184D01*
X106199500Y-73906622D01*
X106199500Y-74151121D01*
X106199501Y-74151125D01*
X106202399Y-74193886D01*
X106202399Y-74193887D01*
X106225641Y-74287344D01*
X106248359Y-74378693D01*
X106248359Y-74378694D01*
X106248360Y-74378696D01*
X106332967Y-74549292D01*
X106332969Y-74549295D01*
X106452277Y-74697721D01*
X106452278Y-74697722D01*
X106600704Y-74817030D01*
X106600707Y-74817032D01*
X106771302Y-74901639D01*
X106771303Y-74901639D01*
X106771307Y-74901641D01*
X106956111Y-74947600D01*
X106998877Y-74950500D01*
X107173355Y-74950499D01*
X107173361Y-74950500D01*
X107198024Y-74950500D01*
X107453330Y-74950500D01*
X107453339Y-74950499D01*
X108067191Y-74950499D01*
X108067199Y-74950500D01*
X108081633Y-74950500D01*
X108243030Y-74950500D01*
X108243034Y-74950499D01*
X108567191Y-74950499D01*
X108567199Y-74950500D01*
X108581633Y-74950500D01*
X108743030Y-74950500D01*
X108743034Y-74950499D01*
X109071631Y-74950499D01*
X109071643Y-74950500D01*
X109081633Y-74950500D01*
X109232801Y-74950500D01*
X109232809Y-74950499D01*
X109665396Y-74950499D01*
X109732435Y-74970184D01*
X109778190Y-75022988D01*
X109788134Y-75092146D01*
X109759109Y-75155702D01*
X109708048Y-75190933D01*
X108802887Y-75522513D01*
X108798486Y-75524032D01*
X107838055Y-75835487D01*
X107833599Y-75836840D01*
X106862158Y-76112011D01*
X106857655Y-76113196D01*
X105876568Y-76351700D01*
X105872023Y-76352715D01*
X104882645Y-76554219D01*
X104878065Y-76555062D01*
X103881857Y-76719269D01*
X103877249Y-76719940D01*
X102875548Y-76846632D01*
X102870918Y-76847129D01*
X101865212Y-76936115D01*
X101860567Y-76936439D01*
X100852161Y-76987607D01*
X100847507Y-76987755D01*
X99837950Y-77001023D01*
X99833293Y-77000997D01*
X98823921Y-76976349D01*
X98819269Y-76976148D01*
X97811530Y-76913619D01*
X97806888Y-76913243D01*
X96802242Y-76812923D01*
X96797618Y-76812374D01*
X95797401Y-76674399D01*
X95792801Y-76673676D01*
X94798499Y-76498248D01*
X94793934Y-76497354D01*
X94288536Y-76388474D01*
X93806905Y-76284714D01*
X93802372Y-76283648D01*
X92824011Y-76034094D01*
X92819521Y-76032858D01*
X91851267Y-75746760D01*
X91846827Y-75745357D01*
X90889954Y-75423093D01*
X90885570Y-75421524D01*
X90210188Y-75165445D01*
X90154482Y-75123272D01*
X90130420Y-75057676D01*
X90145641Y-74989485D01*
X90195313Y-74940348D01*
X90254150Y-74925500D01*
X90453330Y-74925500D01*
X90453339Y-74925499D01*
X91067191Y-74925499D01*
X91067199Y-74925500D01*
X91081633Y-74925500D01*
X91243030Y-74925500D01*
X91243034Y-74925499D01*
X91567191Y-74925499D01*
X91567199Y-74925500D01*
X91581633Y-74925500D01*
X91743030Y-74925500D01*
X91743034Y-74925499D01*
X92071631Y-74925499D01*
X92071643Y-74925500D01*
X92081633Y-74925500D01*
X92232801Y-74925500D01*
X92232809Y-74925499D01*
X92891890Y-74925499D01*
X92891910Y-74925500D01*
X92898024Y-74925500D01*
X93108090Y-74925500D01*
X93108110Y-74925499D01*
X93301123Y-74925499D01*
X93301123Y-74925498D01*
X93343889Y-74922600D01*
X93528693Y-74876641D01*
X93699296Y-74792030D01*
X93847722Y-74672722D01*
X93967030Y-74524296D01*
X94051641Y-74353693D01*
X94097600Y-74168889D01*
X94100500Y-74126123D01*
X94100499Y-73881618D01*
X94101028Y-73870175D01*
X94105215Y-73825000D01*
X94101027Y-73779821D01*
X94100499Y-73768379D01*
X94100499Y-73124998D01*
X97544610Y-73124998D01*
X97544610Y-73124999D01*
X97548238Y-73150235D01*
X97549500Y-73167881D01*
X97549500Y-73582118D01*
X97548238Y-73599763D01*
X97544610Y-73624999D01*
X97548238Y-73650235D01*
X97549500Y-73667881D01*
X97549500Y-74082118D01*
X97548238Y-74099761D01*
X97544610Y-74125000D01*
X97544771Y-74126123D01*
X97548238Y-74150235D01*
X97549500Y-74167881D01*
X97549500Y-74918376D01*
X97548971Y-74929815D01*
X97544785Y-74974997D01*
X97544785Y-74975002D01*
X97548971Y-75020184D01*
X97549500Y-75031622D01*
X97549500Y-75276121D01*
X97549501Y-75276125D01*
X97552399Y-75318886D01*
X97552399Y-75318887D01*
X97582933Y-75441666D01*
X97597350Y-75499637D01*
X97598360Y-75503696D01*
X97682967Y-75674292D01*
X97682969Y-75674295D01*
X97802277Y-75822721D01*
X97802278Y-75822722D01*
X97950704Y-75942030D01*
X97950707Y-75942032D01*
X98121302Y-76026639D01*
X98121303Y-76026639D01*
X98121307Y-76026641D01*
X98306111Y-76072600D01*
X98348877Y-76075500D01*
X98523355Y-76075499D01*
X98523361Y-76075500D01*
X98548024Y-76075500D01*
X98803330Y-76075500D01*
X98803339Y-76075499D01*
X99417191Y-76075499D01*
X99417199Y-76075500D01*
X99431633Y-76075500D01*
X99593030Y-76075500D01*
X99593034Y-76075499D01*
X99917191Y-76075499D01*
X99917199Y-76075500D01*
X99931633Y-76075500D01*
X100093030Y-76075500D01*
X100093034Y-76075499D01*
X100421631Y-76075499D01*
X100421643Y-76075500D01*
X100431633Y-76075500D01*
X100582801Y-76075500D01*
X100582809Y-76075499D01*
X101241890Y-76075499D01*
X101241910Y-76075500D01*
X101248024Y-76075500D01*
X101458090Y-76075500D01*
X101458110Y-76075499D01*
X101651123Y-76075499D01*
X101651123Y-76075498D01*
X101693889Y-76072600D01*
X101878693Y-76026641D01*
X102049296Y-75942030D01*
X102197722Y-75822722D01*
X102317030Y-75674296D01*
X102401641Y-75503693D01*
X102447600Y-75318889D01*
X102450500Y-75276123D01*
X102450499Y-75031618D01*
X102451028Y-75020175D01*
X102451679Y-75013152D01*
X102455215Y-74975000D01*
X102451027Y-74929821D01*
X102450499Y-74918379D01*
X102450499Y-74167885D01*
X102451761Y-74150237D01*
X102451966Y-74148810D01*
X102455390Y-74125000D01*
X102451761Y-74099761D01*
X102450499Y-74082114D01*
X102450499Y-73667886D01*
X102451761Y-73650238D01*
X102451959Y-73648856D01*
X102455390Y-73625000D01*
X102451761Y-73599761D01*
X102450499Y-73582114D01*
X102450499Y-73167885D01*
X102451761Y-73150237D01*
X102452048Y-73148243D01*
X102455390Y-73125000D01*
X102451761Y-73099760D01*
X102450499Y-73082113D01*
X102450499Y-72331625D01*
X102451028Y-72320183D01*
X102455215Y-72274999D01*
X102451028Y-72229813D01*
X102450499Y-72218372D01*
X102450499Y-71973877D01*
X102450498Y-71973876D01*
X102447600Y-71931111D01*
X102401641Y-71746307D01*
X102324141Y-71590042D01*
X102317032Y-71575707D01*
X102317030Y-71575704D01*
X102197722Y-71427278D01*
X102197721Y-71427277D01*
X102049295Y-71307969D01*
X102049292Y-71307967D01*
X101878697Y-71223360D01*
X101693892Y-71177400D01*
X101668229Y-71175660D01*
X101651123Y-71174500D01*
X101451976Y-71174500D01*
X101248024Y-71174500D01*
X101248023Y-71174500D01*
X100568368Y-71174500D01*
X100568367Y-71174500D01*
X100431633Y-71174500D01*
X100431631Y-71174500D01*
X100068368Y-71174500D01*
X100068367Y-71174500D01*
X99931633Y-71174500D01*
X99931631Y-71174500D01*
X99568369Y-71174500D01*
X99568367Y-71174500D01*
X99431633Y-71174500D01*
X99431630Y-71174500D01*
X98751980Y-71174500D01*
X98751976Y-71174500D01*
X98548024Y-71174500D01*
X98548018Y-71174500D01*
X98348878Y-71174500D01*
X98348874Y-71174501D01*
X98306113Y-71177399D01*
X98306112Y-71177399D01*
X98121303Y-71223360D01*
X97950707Y-71307967D01*
X97950704Y-71307969D01*
X97802278Y-71427277D01*
X97802277Y-71427278D01*
X97682969Y-71575704D01*
X97682967Y-71575707D01*
X97598360Y-71746302D01*
X97552400Y-71931107D01*
X97549500Y-71973879D01*
X97549500Y-72218382D01*
X97548971Y-72229823D01*
X97544785Y-72274998D01*
X97544785Y-72275000D01*
X97548971Y-72320176D01*
X97549500Y-72331617D01*
X97549500Y-73082118D01*
X97548238Y-73099763D01*
X97544610Y-73124998D01*
X94100499Y-73124998D01*
X94100499Y-73017885D01*
X94101761Y-73000237D01*
X94101851Y-72999610D01*
X94105390Y-72975000D01*
X94101761Y-72949761D01*
X94100499Y-72932114D01*
X94100499Y-72517886D01*
X94101761Y-72500238D01*
X94101959Y-72498856D01*
X94105390Y-72475000D01*
X94101761Y-72449761D01*
X94100499Y-72432114D01*
X94100499Y-72017885D01*
X94101761Y-72000237D01*
X94101795Y-71999999D01*
X94105390Y-71975000D01*
X94101761Y-71949760D01*
X94100499Y-71932113D01*
X94100499Y-71181625D01*
X94101028Y-71170183D01*
X94102179Y-71157768D01*
X94105215Y-71125000D01*
X94103344Y-71104813D01*
X94101028Y-71079813D01*
X94100499Y-71068372D01*
X94100499Y-70823877D01*
X94100498Y-70823876D01*
X94097600Y-70781111D01*
X94051641Y-70596307D01*
X94008745Y-70509815D01*
X93967032Y-70425707D01*
X93967030Y-70425704D01*
X93847722Y-70277278D01*
X93847721Y-70277277D01*
X93699295Y-70157969D01*
X93699292Y-70157967D01*
X93528697Y-70073360D01*
X93343892Y-70027400D01*
X93318229Y-70025660D01*
X93301123Y-70024500D01*
X93101976Y-70024500D01*
X92898024Y-70024500D01*
X92898023Y-70024500D01*
X92218368Y-70024500D01*
X92218367Y-70024500D01*
X92081633Y-70024500D01*
X92081631Y-70024500D01*
X91718368Y-70024500D01*
X91718367Y-70024500D01*
X91581633Y-70024500D01*
X91581631Y-70024500D01*
X91218369Y-70024500D01*
X91218367Y-70024500D01*
X91081633Y-70024500D01*
X91081630Y-70024500D01*
X90401980Y-70024500D01*
X90401976Y-70024500D01*
X90198024Y-70024500D01*
X90198018Y-70024500D01*
X89998878Y-70024500D01*
X89998874Y-70024501D01*
X89956113Y-70027399D01*
X89956112Y-70027399D01*
X89771303Y-70073360D01*
X89600707Y-70157967D01*
X89600704Y-70157969D01*
X89452278Y-70277277D01*
X89452277Y-70277278D01*
X89332969Y-70425704D01*
X89332967Y-70425707D01*
X89248360Y-70596302D01*
X89202400Y-70781107D01*
X89199500Y-70823879D01*
X89199500Y-71068382D01*
X89198971Y-71079823D01*
X89194785Y-71124998D01*
X89194785Y-71125000D01*
X89198971Y-71170176D01*
X89199500Y-71181617D01*
X89199500Y-71932118D01*
X89198238Y-71949763D01*
X89194610Y-71974998D01*
X89194610Y-71974999D01*
X89198238Y-72000235D01*
X89199500Y-72017881D01*
X89199500Y-72432118D01*
X89198238Y-72449763D01*
X89194610Y-72474999D01*
X89198238Y-72500235D01*
X89199500Y-72517881D01*
X89199500Y-72932118D01*
X89198238Y-72949763D01*
X89194610Y-72974999D01*
X89198238Y-73000235D01*
X89199500Y-73017881D01*
X89199500Y-73768376D01*
X89198971Y-73779815D01*
X89194785Y-73824997D01*
X89194785Y-73825002D01*
X89198971Y-73870184D01*
X89199500Y-73881622D01*
X89199500Y-74126121D01*
X89199501Y-74126125D01*
X89202399Y-74168886D01*
X89202399Y-74168887D01*
X89248360Y-74353696D01*
X89332967Y-74524292D01*
X89332969Y-74524295D01*
X89368203Y-74568128D01*
X89394862Y-74632712D01*
X89382371Y-74701456D01*
X89334698Y-74752535D01*
X89266977Y-74769730D01*
X89223272Y-74760028D01*
X89007211Y-74668687D01*
X89002956Y-74666794D01*
X88088375Y-74238988D01*
X88084195Y-74236936D01*
X87186332Y-73775099D01*
X87182232Y-73772891D01*
X86302378Y-73277687D01*
X86298364Y-73275328D01*
X85437698Y-72747423D01*
X85433775Y-72744914D01*
X84593504Y-72185043D01*
X84589705Y-72182407D01*
X83771071Y-71591399D01*
X83767361Y-71588613D01*
X83236920Y-71174500D01*
X82971491Y-70967280D01*
X82967882Y-70964352D01*
X82830900Y-70848877D01*
X82428690Y-70509815D01*
X82195935Y-70313603D01*
X82192431Y-70310536D01*
X81445415Y-69631221D01*
X81442030Y-69628024D01*
X81415904Y-69602409D01*
X80721072Y-68921163D01*
X80717845Y-68917878D01*
X80023909Y-68184419D01*
X80020773Y-68180977D01*
X79354891Y-67422008D01*
X79351886Y-67418450D01*
X79202516Y-67234718D01*
X78714962Y-66635004D01*
X78712112Y-66631361D01*
X78108025Y-65828504D01*
X78101973Y-65819694D01*
X78098149Y-65813578D01*
X78089364Y-65802951D01*
X78089274Y-65802826D01*
X78089272Y-65802825D01*
X78089270Y-65802823D01*
X78076973Y-65798061D01*
X78074070Y-65796755D01*
X78068156Y-65795392D01*
X78057446Y-65792412D01*
X78042644Y-65787569D01*
X78033174Y-65790623D01*
X78015619Y-65794904D01*
X76074589Y-66120467D01*
X76005217Y-66112143D01*
X75951357Y-66067635D01*
X75950019Y-66065614D01*
X75443489Y-65284041D01*
X75441081Y-65280171D01*
X75335698Y-65103674D01*
X75020036Y-64575000D01*
X83119610Y-64575000D01*
X83139068Y-64710337D01*
X83139070Y-64710345D01*
X83195867Y-64834714D01*
X83195870Y-64834718D01*
X83247062Y-64893798D01*
X83276086Y-64957354D01*
X83266142Y-65026513D01*
X83247062Y-65056202D01*
X83195870Y-65115281D01*
X83195867Y-65115285D01*
X83139070Y-65239654D01*
X83139068Y-65239662D01*
X83119610Y-65375000D01*
X83139068Y-65510337D01*
X83139070Y-65510345D01*
X83195867Y-65634714D01*
X83195870Y-65634718D01*
X83247062Y-65693798D01*
X83276086Y-65757354D01*
X83266142Y-65826513D01*
X83247062Y-65856202D01*
X83195870Y-65915281D01*
X83195867Y-65915285D01*
X83139070Y-66039654D01*
X83139068Y-66039662D01*
X83119610Y-66175000D01*
X83139068Y-66310337D01*
X83139070Y-66310345D01*
X83195867Y-66434714D01*
X83195870Y-66434718D01*
X83247062Y-66493798D01*
X83276086Y-66557354D01*
X83266142Y-66626513D01*
X83247062Y-66656202D01*
X83195870Y-66715281D01*
X83195867Y-66715285D01*
X83139070Y-66839654D01*
X83139068Y-66839662D01*
X83119610Y-66975000D01*
X83139068Y-67110337D01*
X83139070Y-67110345D01*
X83195867Y-67234714D01*
X83195872Y-67234721D01*
X83285409Y-67338053D01*
X83285413Y-67338057D01*
X83326634Y-67364547D01*
X83400439Y-67411978D01*
X83466036Y-67431239D01*
X83531632Y-67450500D01*
X83531633Y-67450500D01*
X83668367Y-67450500D01*
X83799561Y-67411978D01*
X83914589Y-67338055D01*
X83914596Y-67338046D01*
X83918794Y-67334410D01*
X83982349Y-67305384D01*
X84051508Y-67315325D01*
X84081206Y-67334410D01*
X84085406Y-67338050D01*
X84085411Y-67338055D01*
X84200439Y-67411978D01*
X84266036Y-67431239D01*
X84331632Y-67450500D01*
X84331633Y-67450500D01*
X84468367Y-67450500D01*
X84599561Y-67411978D01*
X84714589Y-67338055D01*
X84714596Y-67338046D01*
X84718794Y-67334410D01*
X84782349Y-67305384D01*
X84851508Y-67315325D01*
X84881206Y-67334410D01*
X84885406Y-67338050D01*
X84885411Y-67338055D01*
X85000439Y-67411978D01*
X85066036Y-67431239D01*
X85131632Y-67450500D01*
X85131633Y-67450500D01*
X85268367Y-67450500D01*
X85399561Y-67411978D01*
X85514589Y-67338055D01*
X85514596Y-67338046D01*
X85518794Y-67334410D01*
X85582349Y-67305384D01*
X85651508Y-67315325D01*
X85681206Y-67334410D01*
X85685406Y-67338050D01*
X85685411Y-67338055D01*
X85800439Y-67411978D01*
X85866036Y-67431239D01*
X85931632Y-67450500D01*
X85931633Y-67450500D01*
X86068367Y-67450500D01*
X86199561Y-67411978D01*
X86314589Y-67338055D01*
X86314596Y-67338046D01*
X86318794Y-67334410D01*
X86382349Y-67305384D01*
X86451508Y-67315325D01*
X86481206Y-67334410D01*
X86485406Y-67338050D01*
X86485411Y-67338055D01*
X86600439Y-67411978D01*
X86666036Y-67431239D01*
X86731632Y-67450500D01*
X86731633Y-67450500D01*
X86868367Y-67450500D01*
X86999561Y-67411978D01*
X87114589Y-67338055D01*
X87204130Y-67234718D01*
X87260931Y-67110342D01*
X87280390Y-66975000D01*
X87260931Y-66839658D01*
X87239462Y-66792648D01*
X87204132Y-66715285D01*
X87204130Y-66715283D01*
X87204130Y-66715282D01*
X87152935Y-66656199D01*
X87123912Y-66592648D01*
X87133855Y-66523489D01*
X87152933Y-66493802D01*
X87204130Y-66434718D01*
X87260931Y-66310342D01*
X87280390Y-66175000D01*
X87260931Y-66039658D01*
X87238349Y-65990211D01*
X87204132Y-65915285D01*
X87204130Y-65915283D01*
X87204130Y-65915282D01*
X87152935Y-65856199D01*
X87123912Y-65792648D01*
X87133855Y-65723489D01*
X87152933Y-65693802D01*
X87204130Y-65634718D01*
X87231402Y-65575000D01*
X100819610Y-65575000D01*
X100839068Y-65710337D01*
X100839070Y-65710345D01*
X100895867Y-65834714D01*
X100895870Y-65834718D01*
X100947062Y-65893798D01*
X100976086Y-65957354D01*
X100966142Y-66026513D01*
X100947062Y-66056202D01*
X100895870Y-66115281D01*
X100895867Y-66115285D01*
X100839070Y-66239654D01*
X100839068Y-66239662D01*
X100819610Y-66375000D01*
X100839068Y-66510337D01*
X100839070Y-66510345D01*
X100895867Y-66634714D01*
X100895870Y-66634718D01*
X100947062Y-66693798D01*
X100976086Y-66757354D01*
X100966142Y-66826513D01*
X100947062Y-66856202D01*
X100895870Y-66915281D01*
X100895867Y-66915285D01*
X100839070Y-67039654D01*
X100839068Y-67039662D01*
X100819610Y-67175000D01*
X100839068Y-67310337D01*
X100839070Y-67310345D01*
X100895867Y-67434714D01*
X100895870Y-67434718D01*
X100947062Y-67493798D01*
X100976086Y-67557354D01*
X100966142Y-67626513D01*
X100947062Y-67656202D01*
X100895870Y-67715281D01*
X100895867Y-67715285D01*
X100839070Y-67839654D01*
X100839068Y-67839662D01*
X100819610Y-67975000D01*
X100839068Y-68110337D01*
X100839070Y-68110345D01*
X100895867Y-68234714D01*
X100895872Y-68234721D01*
X100985409Y-68338053D01*
X100985413Y-68338057D01*
X101045979Y-68376979D01*
X101100439Y-68411978D01*
X101166036Y-68431239D01*
X101231632Y-68450500D01*
X101231633Y-68450500D01*
X101368367Y-68450500D01*
X101499561Y-68411978D01*
X101614589Y-68338055D01*
X101614596Y-68338046D01*
X101618794Y-68334410D01*
X101682349Y-68305384D01*
X101751508Y-68315325D01*
X101781206Y-68334410D01*
X101785406Y-68338050D01*
X101785411Y-68338055D01*
X101900439Y-68411978D01*
X101966036Y-68431239D01*
X102031632Y-68450500D01*
X102031633Y-68450500D01*
X102168367Y-68450500D01*
X102299561Y-68411978D01*
X102414589Y-68338055D01*
X102414596Y-68338046D01*
X102418794Y-68334410D01*
X102482349Y-68305384D01*
X102551508Y-68315325D01*
X102581206Y-68334410D01*
X102585406Y-68338050D01*
X102585411Y-68338055D01*
X102700439Y-68411978D01*
X102766036Y-68431239D01*
X102831632Y-68450500D01*
X102831633Y-68450500D01*
X102968367Y-68450500D01*
X103099561Y-68411978D01*
X103214589Y-68338055D01*
X103214596Y-68338046D01*
X103218794Y-68334410D01*
X103282349Y-68305384D01*
X103351508Y-68315325D01*
X103381206Y-68334410D01*
X103385406Y-68338050D01*
X103385411Y-68338055D01*
X103500439Y-68411978D01*
X103566036Y-68431239D01*
X103631632Y-68450500D01*
X103631633Y-68450500D01*
X103768367Y-68450500D01*
X103899561Y-68411978D01*
X104014589Y-68338055D01*
X104014596Y-68338046D01*
X104018794Y-68334410D01*
X104082349Y-68305384D01*
X104151508Y-68315325D01*
X104181206Y-68334410D01*
X104185406Y-68338050D01*
X104185411Y-68338055D01*
X104300439Y-68411978D01*
X104366036Y-68431239D01*
X104431632Y-68450500D01*
X104431633Y-68450500D01*
X104568367Y-68450500D01*
X104699561Y-68411978D01*
X104814589Y-68338055D01*
X104904130Y-68234718D01*
X104960931Y-68110342D01*
X104980390Y-67975000D01*
X104960931Y-67839658D01*
X104948677Y-67812827D01*
X104904132Y-67715285D01*
X104904130Y-67715283D01*
X104904130Y-67715282D01*
X104852935Y-67656199D01*
X104823912Y-67592648D01*
X104833855Y-67523489D01*
X104852933Y-67493802D01*
X104904130Y-67434718D01*
X104960931Y-67310342D01*
X104980390Y-67175000D01*
X104960931Y-67039658D01*
X104948677Y-67012827D01*
X104904132Y-66915285D01*
X104904130Y-66915283D01*
X104904130Y-66915282D01*
X104852935Y-66856199D01*
X104823912Y-66792648D01*
X104833855Y-66723489D01*
X104852933Y-66693802D01*
X104904130Y-66634718D01*
X104904817Y-66633215D01*
X104939461Y-66557354D01*
X104960931Y-66510342D01*
X104980390Y-66375000D01*
X104960931Y-66239658D01*
X104937688Y-66188764D01*
X104904132Y-66115285D01*
X104904130Y-66115283D01*
X104904130Y-66115282D01*
X104852935Y-66056199D01*
X104823912Y-65992648D01*
X104833855Y-65923489D01*
X104852933Y-65893802D01*
X104904130Y-65834718D01*
X104960931Y-65710342D01*
X104980390Y-65575000D01*
X104960931Y-65439658D01*
X104948677Y-65412827D01*
X104904132Y-65315285D01*
X104904127Y-65315278D01*
X104814590Y-65211946D01*
X104814586Y-65211942D01*
X104699559Y-65138021D01*
X104568368Y-65099500D01*
X104568367Y-65099500D01*
X104431633Y-65099500D01*
X104431632Y-65099500D01*
X104300440Y-65138021D01*
X104185413Y-65211942D01*
X104181201Y-65215593D01*
X104117644Y-65244616D01*
X104048486Y-65234671D01*
X104018799Y-65215593D01*
X104014586Y-65211942D01*
X103899559Y-65138021D01*
X103768368Y-65099500D01*
X103768367Y-65099500D01*
X103631633Y-65099500D01*
X103631632Y-65099500D01*
X103500440Y-65138021D01*
X103385413Y-65211942D01*
X103381201Y-65215593D01*
X103317644Y-65244616D01*
X103248486Y-65234671D01*
X103218799Y-65215593D01*
X103214586Y-65211942D01*
X103099559Y-65138021D01*
X102968368Y-65099500D01*
X102968367Y-65099500D01*
X102831633Y-65099500D01*
X102831632Y-65099500D01*
X102700440Y-65138021D01*
X102585413Y-65211942D01*
X102581201Y-65215593D01*
X102517644Y-65244616D01*
X102448486Y-65234671D01*
X102418799Y-65215593D01*
X102414586Y-65211942D01*
X102299559Y-65138021D01*
X102168368Y-65099500D01*
X102168367Y-65099500D01*
X102031633Y-65099500D01*
X102031632Y-65099500D01*
X101900440Y-65138021D01*
X101785413Y-65211942D01*
X101781201Y-65215593D01*
X101717644Y-65244616D01*
X101648486Y-65234671D01*
X101618799Y-65215593D01*
X101614586Y-65211942D01*
X101499559Y-65138021D01*
X101368368Y-65099500D01*
X101368367Y-65099500D01*
X101231633Y-65099500D01*
X101231632Y-65099500D01*
X101100440Y-65138021D01*
X100985413Y-65211942D01*
X100985409Y-65211946D01*
X100895872Y-65315278D01*
X100895867Y-65315285D01*
X100839070Y-65439654D01*
X100839068Y-65439662D01*
X100819610Y-65575000D01*
X87231402Y-65575000D01*
X87260931Y-65510342D01*
X87280390Y-65375000D01*
X87260931Y-65239658D01*
X87248273Y-65211942D01*
X87204132Y-65115285D01*
X87204130Y-65115283D01*
X87204130Y-65115282D01*
X87152935Y-65056199D01*
X87123912Y-64992648D01*
X87133855Y-64923489D01*
X87152933Y-64893802D01*
X87204130Y-64834718D01*
X87205487Y-64831748D01*
X87216383Y-64807887D01*
X87260931Y-64710342D01*
X87280390Y-64575000D01*
X106669610Y-64575000D01*
X106689068Y-64710337D01*
X106689070Y-64710345D01*
X106745867Y-64834714D01*
X106745870Y-64834718D01*
X106797062Y-64893798D01*
X106826086Y-64957354D01*
X106816142Y-65026513D01*
X106797062Y-65056202D01*
X106745870Y-65115281D01*
X106745867Y-65115285D01*
X106689070Y-65239654D01*
X106689068Y-65239662D01*
X106669610Y-65375000D01*
X106689068Y-65510337D01*
X106689070Y-65510345D01*
X106745867Y-65634714D01*
X106745870Y-65634718D01*
X106797062Y-65693798D01*
X106826086Y-65757354D01*
X106816142Y-65826513D01*
X106797062Y-65856202D01*
X106745870Y-65915281D01*
X106745867Y-65915285D01*
X106689070Y-66039654D01*
X106689068Y-66039662D01*
X106669610Y-66175000D01*
X106689068Y-66310337D01*
X106689070Y-66310345D01*
X106745867Y-66434714D01*
X106745870Y-66434718D01*
X106797062Y-66493798D01*
X106826086Y-66557354D01*
X106816142Y-66626513D01*
X106797062Y-66656202D01*
X106745870Y-66715281D01*
X106745867Y-66715285D01*
X106689070Y-66839654D01*
X106689068Y-66839662D01*
X106669610Y-66975000D01*
X106689068Y-67110337D01*
X106689070Y-67110345D01*
X106745867Y-67234714D01*
X106745872Y-67234721D01*
X106835409Y-67338053D01*
X106835413Y-67338057D01*
X106876634Y-67364547D01*
X106950439Y-67411978D01*
X107016036Y-67431239D01*
X107081632Y-67450500D01*
X107081633Y-67450500D01*
X107218367Y-67450500D01*
X107349561Y-67411978D01*
X107464589Y-67338055D01*
X107464596Y-67338046D01*
X107468794Y-67334410D01*
X107532349Y-67305384D01*
X107601508Y-67315325D01*
X107631206Y-67334410D01*
X107635406Y-67338050D01*
X107635411Y-67338055D01*
X107750439Y-67411978D01*
X107816036Y-67431239D01*
X107881632Y-67450500D01*
X107881633Y-67450500D01*
X108018367Y-67450500D01*
X108149561Y-67411978D01*
X108264589Y-67338055D01*
X108264596Y-67338046D01*
X108268794Y-67334410D01*
X108332349Y-67305384D01*
X108401508Y-67315325D01*
X108431206Y-67334410D01*
X108435406Y-67338050D01*
X108435411Y-67338055D01*
X108550439Y-67411978D01*
X108616036Y-67431239D01*
X108681632Y-67450500D01*
X108681633Y-67450500D01*
X108818367Y-67450500D01*
X108949561Y-67411978D01*
X109064589Y-67338055D01*
X109064596Y-67338046D01*
X109068794Y-67334410D01*
X109132349Y-67305384D01*
X109201508Y-67315325D01*
X109231206Y-67334410D01*
X109235406Y-67338050D01*
X109235411Y-67338055D01*
X109350439Y-67411978D01*
X109416036Y-67431239D01*
X109481632Y-67450500D01*
X109481633Y-67450500D01*
X109618367Y-67450500D01*
X109749561Y-67411978D01*
X109864589Y-67338055D01*
X109864596Y-67338046D01*
X109868794Y-67334410D01*
X109932349Y-67305384D01*
X110001508Y-67315325D01*
X110031206Y-67334410D01*
X110035406Y-67338050D01*
X110035411Y-67338055D01*
X110150439Y-67411978D01*
X110216036Y-67431239D01*
X110281632Y-67450500D01*
X110281633Y-67450500D01*
X110418367Y-67450500D01*
X110549561Y-67411978D01*
X110664589Y-67338055D01*
X110754130Y-67234718D01*
X110758568Y-67225000D01*
X117919353Y-67225000D01*
X117939834Y-67367456D01*
X117970552Y-67434717D01*
X117999623Y-67498373D01*
X118093872Y-67607143D01*
X118214947Y-67684953D01*
X118214950Y-67684954D01*
X118214949Y-67684954D01*
X118353036Y-67725499D01*
X118353038Y-67725500D01*
X118353039Y-67725500D01*
X118496962Y-67725500D01*
X118496962Y-67725499D01*
X118635053Y-67684953D01*
X118756128Y-67607143D01*
X118850377Y-67498373D01*
X118910165Y-67367457D01*
X118930647Y-67225000D01*
X118910165Y-67082543D01*
X118850377Y-66951627D01*
X118756128Y-66842857D01*
X118635053Y-66765047D01*
X118635051Y-66765046D01*
X118635049Y-66765045D01*
X118635050Y-66765045D01*
X118496963Y-66724500D01*
X118496961Y-66724500D01*
X118353039Y-66724500D01*
X118353036Y-66724500D01*
X118214949Y-66765045D01*
X118093873Y-66842856D01*
X117999623Y-66951626D01*
X117999622Y-66951628D01*
X117939834Y-67082543D01*
X117919353Y-67225000D01*
X110758568Y-67225000D01*
X110810931Y-67110342D01*
X110830390Y-66975000D01*
X110810931Y-66839658D01*
X110789462Y-66792648D01*
X110754132Y-66715285D01*
X110754130Y-66715283D01*
X110754130Y-66715282D01*
X110702935Y-66656199D01*
X110673912Y-66592648D01*
X110683855Y-66523489D01*
X110702933Y-66493802D01*
X110754130Y-66434718D01*
X110810931Y-66310342D01*
X110830390Y-66175000D01*
X110810931Y-66039658D01*
X110788349Y-65990211D01*
X110754132Y-65915285D01*
X110754130Y-65915283D01*
X110754130Y-65915282D01*
X110702935Y-65856199D01*
X110673912Y-65792648D01*
X110683855Y-65723489D01*
X110702933Y-65693802D01*
X110754130Y-65634718D01*
X110810931Y-65510342D01*
X110830390Y-65375000D01*
X110810931Y-65239658D01*
X110798273Y-65211942D01*
X110754132Y-65115285D01*
X110754130Y-65115283D01*
X110754130Y-65115282D01*
X110702935Y-65056199D01*
X110673912Y-64992648D01*
X110683855Y-64923489D01*
X110702933Y-64893802D01*
X110754130Y-64834718D01*
X110755487Y-64831748D01*
X110766383Y-64807887D01*
X110810931Y-64710342D01*
X110830390Y-64575000D01*
X110810931Y-64439658D01*
X110778775Y-64369246D01*
X110754132Y-64315285D01*
X110754127Y-64315278D01*
X110664590Y-64211946D01*
X110664586Y-64211942D01*
X110549559Y-64138021D01*
X110418368Y-64099500D01*
X110418367Y-64099500D01*
X110281633Y-64099500D01*
X110281632Y-64099500D01*
X110150440Y-64138021D01*
X110035413Y-64211942D01*
X110031201Y-64215593D01*
X109967644Y-64244616D01*
X109898486Y-64234671D01*
X109868799Y-64215593D01*
X109864586Y-64211942D01*
X109749559Y-64138021D01*
X109618368Y-64099500D01*
X109618367Y-64099500D01*
X109481633Y-64099500D01*
X109481632Y-64099500D01*
X109350440Y-64138021D01*
X109235413Y-64211942D01*
X109231201Y-64215593D01*
X109167644Y-64244616D01*
X109098486Y-64234671D01*
X109068799Y-64215593D01*
X109064586Y-64211942D01*
X108949559Y-64138021D01*
X108818368Y-64099500D01*
X108818367Y-64099500D01*
X108681633Y-64099500D01*
X108681632Y-64099500D01*
X108550440Y-64138021D01*
X108435413Y-64211942D01*
X108431201Y-64215593D01*
X108367644Y-64244616D01*
X108298486Y-64234671D01*
X108268799Y-64215593D01*
X108264586Y-64211942D01*
X108149559Y-64138021D01*
X108018368Y-64099500D01*
X108018367Y-64099500D01*
X107881633Y-64099500D01*
X107881632Y-64099500D01*
X107750440Y-64138021D01*
X107635413Y-64211942D01*
X107631201Y-64215593D01*
X107567644Y-64244616D01*
X107498486Y-64234671D01*
X107468799Y-64215593D01*
X107464586Y-64211942D01*
X107349559Y-64138021D01*
X107218368Y-64099500D01*
X107218367Y-64099500D01*
X107081633Y-64099500D01*
X107081632Y-64099500D01*
X106950440Y-64138021D01*
X106835413Y-64211942D01*
X106835409Y-64211946D01*
X106745872Y-64315278D01*
X106745867Y-64315285D01*
X106689070Y-64439654D01*
X106689068Y-64439662D01*
X106669610Y-64575000D01*
X87280390Y-64575000D01*
X87260931Y-64439658D01*
X87228775Y-64369246D01*
X87204132Y-64315285D01*
X87204127Y-64315278D01*
X87114590Y-64211946D01*
X87114586Y-64211942D01*
X86999559Y-64138021D01*
X86868368Y-64099500D01*
X86868367Y-64099500D01*
X86731633Y-64099500D01*
X86731632Y-64099500D01*
X86600440Y-64138021D01*
X86485413Y-64211942D01*
X86481201Y-64215593D01*
X86417644Y-64244616D01*
X86348486Y-64234671D01*
X86318799Y-64215593D01*
X86314586Y-64211942D01*
X86199559Y-64138021D01*
X86068368Y-64099500D01*
X86068367Y-64099500D01*
X85931633Y-64099500D01*
X85931632Y-64099500D01*
X85800440Y-64138021D01*
X85685413Y-64211942D01*
X85681201Y-64215593D01*
X85617644Y-64244616D01*
X85548486Y-64234671D01*
X85518799Y-64215593D01*
X85514586Y-64211942D01*
X85399559Y-64138021D01*
X85268368Y-64099500D01*
X85268367Y-64099500D01*
X85131633Y-64099500D01*
X85131632Y-64099500D01*
X85000440Y-64138021D01*
X84885413Y-64211942D01*
X84881201Y-64215593D01*
X84817644Y-64244616D01*
X84748486Y-64234671D01*
X84718799Y-64215593D01*
X84714586Y-64211942D01*
X84599559Y-64138021D01*
X84468368Y-64099500D01*
X84468367Y-64099500D01*
X84331633Y-64099500D01*
X84331632Y-64099500D01*
X84200440Y-64138021D01*
X84085413Y-64211942D01*
X84081201Y-64215593D01*
X84017644Y-64244616D01*
X83948486Y-64234671D01*
X83918799Y-64215593D01*
X83914586Y-64211942D01*
X83799559Y-64138021D01*
X83668368Y-64099500D01*
X83668367Y-64099500D01*
X83531633Y-64099500D01*
X83531632Y-64099500D01*
X83400440Y-64138021D01*
X83285413Y-64211942D01*
X83285409Y-64211946D01*
X83195872Y-64315278D01*
X83195867Y-64315285D01*
X83139070Y-64439654D01*
X83139068Y-64439662D01*
X83119610Y-64575000D01*
X75020036Y-64575000D01*
X74898334Y-64371172D01*
X74896094Y-64367259D01*
X74571380Y-63775000D01*
X117919353Y-63775000D01*
X117939834Y-63917456D01*
X117946360Y-63931745D01*
X117999623Y-64048373D01*
X118093872Y-64157143D01*
X118214947Y-64234953D01*
X118214950Y-64234954D01*
X118214949Y-64234954D01*
X118353036Y-64275499D01*
X118353038Y-64275500D01*
X118353039Y-64275500D01*
X118496962Y-64275500D01*
X118496962Y-64275499D01*
X118635053Y-64234953D01*
X118756128Y-64157143D01*
X118850377Y-64048373D01*
X118910165Y-63917457D01*
X118930647Y-63775000D01*
X118910165Y-63632543D01*
X118850377Y-63501627D01*
X118756128Y-63392857D01*
X118635053Y-63315047D01*
X118635051Y-63315046D01*
X118635049Y-63315045D01*
X118635050Y-63315045D01*
X118496963Y-63274500D01*
X118496961Y-63274500D01*
X118353039Y-63274500D01*
X118353036Y-63274500D01*
X118214949Y-63315045D01*
X118093873Y-63392856D01*
X117999623Y-63501626D01*
X117999622Y-63501628D01*
X117939834Y-63632543D01*
X117919353Y-63775000D01*
X74571380Y-63775000D01*
X74387134Y-63438946D01*
X74385021Y-63434919D01*
X74335097Y-63335345D01*
X73910511Y-62488505D01*
X73908550Y-62484407D01*
X73469146Y-61521197D01*
X73467339Y-61517034D01*
X73460984Y-61501628D01*
X73063641Y-60538346D01*
X73061981Y-60534101D01*
X73031559Y-60451900D01*
X74095765Y-60451900D01*
X74115551Y-60640156D01*
X74115552Y-60640159D01*
X74174043Y-60820177D01*
X74174046Y-60820184D01*
X74268692Y-60984116D01*
X74350523Y-61074998D01*
X74395354Y-61124788D01*
X74548490Y-61236048D01*
X74548495Y-61236051D01*
X74721417Y-61313042D01*
X74721422Y-61313044D01*
X74906579Y-61352400D01*
X74906580Y-61352400D01*
X75095869Y-61352400D01*
X75095871Y-61352400D01*
X75281028Y-61313044D01*
X75453955Y-61236051D01*
X75607096Y-61124788D01*
X75733758Y-60984116D01*
X75828404Y-60820184D01*
X75886899Y-60640156D01*
X75904257Y-60475000D01*
X84319610Y-60475000D01*
X84339068Y-60610337D01*
X84339070Y-60610345D01*
X84395867Y-60734714D01*
X84395872Y-60734721D01*
X84485409Y-60838053D01*
X84485413Y-60838057D01*
X84542037Y-60874446D01*
X84600439Y-60911978D01*
X84666036Y-60931239D01*
X84731632Y-60950500D01*
X84731633Y-60950500D01*
X84868367Y-60950500D01*
X84999561Y-60911978D01*
X85057964Y-60874445D01*
X85125000Y-60854762D01*
X85192035Y-60874445D01*
X85250439Y-60911978D01*
X85250440Y-60911978D01*
X85250443Y-60911980D01*
X85351141Y-60941546D01*
X85380544Y-60950180D01*
X85439322Y-60987954D01*
X85468348Y-61051509D01*
X85469610Y-61069157D01*
X85469610Y-61074999D01*
X85489068Y-61210337D01*
X85489068Y-61210339D01*
X85489068Y-61210340D01*
X85489069Y-61210342D01*
X85506437Y-61248373D01*
X85546450Y-61335989D01*
X85556393Y-61405148D01*
X85546450Y-61439011D01*
X85489068Y-61564660D01*
X85489068Y-61564662D01*
X85469610Y-61700000D01*
X85489068Y-61835337D01*
X85489070Y-61835345D01*
X85549554Y-61967786D01*
X85547853Y-61968562D01*
X85564425Y-62025001D01*
X85547853Y-62081437D01*
X85549554Y-62082214D01*
X85489070Y-62214654D01*
X85489068Y-62214662D01*
X85469610Y-62350000D01*
X85489068Y-62485337D01*
X85489070Y-62485345D01*
X85545867Y-62609714D01*
X85545872Y-62609721D01*
X85635409Y-62713053D01*
X85635413Y-62713057D01*
X85695979Y-62751979D01*
X85750439Y-62786978D01*
X85816036Y-62806239D01*
X85881632Y-62825500D01*
X85881633Y-62825500D01*
X86018367Y-62825500D01*
X86149561Y-62786978D01*
X86264589Y-62713055D01*
X86354130Y-62609718D01*
X86410931Y-62485342D01*
X86430390Y-62350000D01*
X86410931Y-62214658D01*
X86384665Y-62157143D01*
X86350446Y-62082214D01*
X86352148Y-62081436D01*
X86335574Y-62025014D01*
X86352143Y-61968561D01*
X86350446Y-61967786D01*
X86409738Y-61837954D01*
X86410931Y-61835342D01*
X86430390Y-61700000D01*
X86410931Y-61564658D01*
X86363293Y-61460345D01*
X86353550Y-61439011D01*
X86343606Y-61369853D01*
X86353550Y-61335989D01*
X86393561Y-61248377D01*
X86410931Y-61210342D01*
X86430390Y-61075000D01*
X86429691Y-61070141D01*
X86428086Y-61058976D01*
X86438027Y-60989817D01*
X86483781Y-60937012D01*
X86550820Y-60917326D01*
X86585758Y-60922349D01*
X86681632Y-60950500D01*
X86681633Y-60950500D01*
X86818367Y-60950500D01*
X86949561Y-60911978D01*
X87064589Y-60838055D01*
X87154130Y-60734718D01*
X87210931Y-60610342D01*
X87230390Y-60475000D01*
X87210931Y-60339658D01*
X87189987Y-60293797D01*
X87154132Y-60215285D01*
X87154127Y-60215278D01*
X87064590Y-60111946D01*
X87064586Y-60111942D01*
X86949559Y-60038021D01*
X86818368Y-59999500D01*
X86818367Y-59999500D01*
X86681633Y-59999500D01*
X86681632Y-59999500D01*
X86550440Y-60038021D01*
X86492038Y-60075553D01*
X86424998Y-60095237D01*
X86357962Y-60075553D01*
X86299559Y-60038021D01*
X86168368Y-59999500D01*
X86168367Y-59999500D01*
X86031633Y-59999500D01*
X86031632Y-59999500D01*
X85900440Y-60038021D01*
X85842038Y-60075553D01*
X85774998Y-60095237D01*
X85707962Y-60075553D01*
X85649559Y-60038021D01*
X85518368Y-59999500D01*
X85518367Y-59999500D01*
X85381633Y-59999500D01*
X85381632Y-59999500D01*
X85250440Y-60038021D01*
X85192038Y-60075553D01*
X85124998Y-60095237D01*
X85057962Y-60075553D01*
X84999559Y-60038021D01*
X84868368Y-59999500D01*
X84868367Y-59999500D01*
X84731633Y-59999500D01*
X84731632Y-59999500D01*
X84600440Y-60038021D01*
X84485413Y-60111942D01*
X84485409Y-60111946D01*
X84395872Y-60215278D01*
X84395867Y-60215285D01*
X84339070Y-60339654D01*
X84339068Y-60339662D01*
X84319610Y-60475000D01*
X75904257Y-60475000D01*
X75906685Y-60451900D01*
X75886899Y-60263644D01*
X75845582Y-60136487D01*
X75843588Y-60066647D01*
X75879668Y-60006814D01*
X75942369Y-59975986D01*
X75972764Y-59975551D01*
X75972764Y-59975500D01*
X75976400Y-59975500D01*
X75981162Y-59975432D01*
X75981631Y-59975499D01*
X75981633Y-59975500D01*
X75981635Y-59975500D01*
X76118367Y-59975500D01*
X76120070Y-59975000D01*
X91894353Y-59975000D01*
X91914834Y-60117456D01*
X91974622Y-60248371D01*
X91974625Y-60248377D01*
X92013983Y-60293798D01*
X92043008Y-60357353D01*
X92033064Y-60426512D01*
X92013983Y-60456202D01*
X91974625Y-60501622D01*
X91974622Y-60501628D01*
X91914834Y-60632543D01*
X91894353Y-60775000D01*
X91914834Y-60917456D01*
X91945277Y-60984116D01*
X91974623Y-61048373D01*
X92068872Y-61157143D01*
X92189947Y-61234953D01*
X92189950Y-61234954D01*
X92189949Y-61234954D01*
X92328036Y-61275499D01*
X92328038Y-61275500D01*
X92328039Y-61275500D01*
X92471962Y-61275500D01*
X92471962Y-61275499D01*
X92610053Y-61234953D01*
X92731128Y-61157143D01*
X92825377Y-61048373D01*
X92858886Y-60975000D01*
X95616801Y-60975000D01*
X95637282Y-61117456D01*
X95697070Y-61248371D01*
X95697073Y-61248377D01*
X95736431Y-61293798D01*
X95765456Y-61357353D01*
X95755512Y-61426512D01*
X95736431Y-61456202D01*
X95697073Y-61501622D01*
X95697070Y-61501628D01*
X95637282Y-61632543D01*
X95616801Y-61775000D01*
X95637282Y-61917456D01*
X95660622Y-61968562D01*
X95697071Y-62048373D01*
X95791320Y-62157143D01*
X95912395Y-62234953D01*
X95912398Y-62234954D01*
X95912397Y-62234954D01*
X96050484Y-62275499D01*
X96050486Y-62275500D01*
X96050487Y-62275500D01*
X96194410Y-62275500D01*
X96194410Y-62275499D01*
X96332501Y-62234953D01*
X96453576Y-62157143D01*
X96547825Y-62048373D01*
X96607613Y-61917457D01*
X96628095Y-61775000D01*
X96607613Y-61632543D01*
X96547825Y-61501627D01*
X96547823Y-61501625D01*
X96547822Y-61501622D01*
X96508465Y-61456203D01*
X96479439Y-61392648D01*
X96489165Y-61325000D01*
X100619610Y-61325000D01*
X100639068Y-61460337D01*
X100639070Y-61460345D01*
X100695867Y-61584714D01*
X100695872Y-61584721D01*
X100785409Y-61688053D01*
X100785413Y-61688057D01*
X100842037Y-61724446D01*
X100900439Y-61761978D01*
X100944788Y-61775000D01*
X101031632Y-61800500D01*
X101031633Y-61800500D01*
X101168367Y-61800500D01*
X101299561Y-61761978D01*
X101357964Y-61724445D01*
X101425000Y-61704762D01*
X101492035Y-61724445D01*
X101550439Y-61761978D01*
X101550440Y-61761978D01*
X101550443Y-61761980D01*
X101651141Y-61791546D01*
X101680544Y-61800180D01*
X101739322Y-61837954D01*
X101768348Y-61901509D01*
X101769610Y-61919157D01*
X101769610Y-61924999D01*
X101789068Y-62060337D01*
X101789068Y-62060339D01*
X101789068Y-62060340D01*
X101789069Y-62060342D01*
X101798703Y-62081437D01*
X101846450Y-62185989D01*
X101856393Y-62255148D01*
X101846450Y-62289011D01*
X101789068Y-62414660D01*
X101789068Y-62414662D01*
X101769610Y-62550000D01*
X101789068Y-62685337D01*
X101789070Y-62685345D01*
X101849554Y-62817786D01*
X101847853Y-62818562D01*
X101864425Y-62875001D01*
X101847853Y-62931437D01*
X101849554Y-62932214D01*
X101789070Y-63064654D01*
X101789068Y-63064662D01*
X101769610Y-63200000D01*
X101789068Y-63335337D01*
X101789070Y-63335345D01*
X101845867Y-63459714D01*
X101845872Y-63459721D01*
X101935409Y-63563053D01*
X101935413Y-63563057D01*
X101995979Y-63601979D01*
X102050439Y-63636978D01*
X102116036Y-63656239D01*
X102181632Y-63675500D01*
X102181633Y-63675500D01*
X102318367Y-63675500D01*
X102449561Y-63636978D01*
X102564589Y-63563055D01*
X102654130Y-63459718D01*
X102710931Y-63335342D01*
X102730390Y-63200000D01*
X102710931Y-63064658D01*
X102658001Y-62948758D01*
X102650446Y-62932214D01*
X102652148Y-62931436D01*
X102635574Y-62875014D01*
X102652143Y-62818561D01*
X102650446Y-62817786D01*
X102698274Y-62713057D01*
X102710931Y-62685342D01*
X102730390Y-62550000D01*
X102710931Y-62414658D01*
X102694983Y-62379737D01*
X102653550Y-62289011D01*
X102643606Y-62219853D01*
X102653550Y-62185989D01*
X102677464Y-62133622D01*
X102710931Y-62060342D01*
X102730390Y-61925000D01*
X102729305Y-61917457D01*
X102728086Y-61908976D01*
X102738027Y-61839817D01*
X102783781Y-61787012D01*
X102850820Y-61767326D01*
X102885758Y-61772349D01*
X102981632Y-61800500D01*
X102981633Y-61800500D01*
X103118367Y-61800500D01*
X103249561Y-61761978D01*
X103364589Y-61688055D01*
X103454130Y-61584718D01*
X103510931Y-61460342D01*
X103530390Y-61325000D01*
X103510931Y-61189658D01*
X103477958Y-61117457D01*
X103454132Y-61065285D01*
X103454127Y-61065278D01*
X103364590Y-60961946D01*
X103364586Y-60961942D01*
X103249559Y-60888021D01*
X103118368Y-60849500D01*
X103118367Y-60849500D01*
X102981633Y-60849500D01*
X102981632Y-60849500D01*
X102850440Y-60888021D01*
X102792038Y-60925553D01*
X102724998Y-60945237D01*
X102657962Y-60925553D01*
X102599559Y-60888021D01*
X102468368Y-60849500D01*
X102468367Y-60849500D01*
X102331633Y-60849500D01*
X102331632Y-60849500D01*
X102200440Y-60888021D01*
X102142038Y-60925553D01*
X102074998Y-60945237D01*
X102007962Y-60925553D01*
X101949559Y-60888021D01*
X101818368Y-60849500D01*
X101818367Y-60849500D01*
X101681633Y-60849500D01*
X101681632Y-60849500D01*
X101550440Y-60888021D01*
X101492038Y-60925553D01*
X101424998Y-60945237D01*
X101357962Y-60925553D01*
X101299559Y-60888021D01*
X101168368Y-60849500D01*
X101168367Y-60849500D01*
X101031633Y-60849500D01*
X101031632Y-60849500D01*
X100900440Y-60888021D01*
X100785413Y-60961942D01*
X100785409Y-60961946D01*
X100695872Y-61065278D01*
X100695867Y-61065285D01*
X100639070Y-61189654D01*
X100639068Y-61189662D01*
X100619610Y-61325000D01*
X96489165Y-61325000D01*
X96489382Y-61323489D01*
X96508465Y-61293797D01*
X96547822Y-61248377D01*
X96547822Y-61248375D01*
X96547825Y-61248373D01*
X96607613Y-61117457D01*
X96628095Y-60975000D01*
X96607613Y-60832543D01*
X96547825Y-60701627D01*
X96453576Y-60592857D01*
X96332501Y-60515047D01*
X96332499Y-60515046D01*
X96332497Y-60515045D01*
X96332498Y-60515045D01*
X96196114Y-60475000D01*
X108869610Y-60475000D01*
X108889068Y-60610337D01*
X108889070Y-60610345D01*
X108945867Y-60734714D01*
X108945869Y-60734716D01*
X108945870Y-60734718D01*
X108964611Y-60756346D01*
X109016086Y-60815753D01*
X109045110Y-60879309D01*
X109041350Y-60931885D01*
X109039069Y-60939651D01*
X109019610Y-61075000D01*
X109039068Y-61210337D01*
X109039068Y-61210339D01*
X109039068Y-61210340D01*
X109039069Y-61210342D01*
X109056437Y-61248373D01*
X109096450Y-61335989D01*
X109106393Y-61405148D01*
X109096450Y-61439011D01*
X109039068Y-61564660D01*
X109039068Y-61564662D01*
X109019610Y-61700000D01*
X109039068Y-61835337D01*
X109039070Y-61835345D01*
X109099554Y-61967786D01*
X109097853Y-61968562D01*
X109114425Y-62025001D01*
X109097853Y-62081437D01*
X109099554Y-62082214D01*
X109039070Y-62214654D01*
X109039068Y-62214662D01*
X109019610Y-62350000D01*
X109039068Y-62485337D01*
X109039070Y-62485345D01*
X109095867Y-62609714D01*
X109095872Y-62609721D01*
X109185409Y-62713053D01*
X109185413Y-62713057D01*
X109245979Y-62751979D01*
X109300439Y-62786978D01*
X109366036Y-62806239D01*
X109431632Y-62825500D01*
X109431633Y-62825500D01*
X109568367Y-62825500D01*
X109699561Y-62786978D01*
X109814589Y-62713055D01*
X109904130Y-62609718D01*
X109960931Y-62485342D01*
X109980390Y-62350000D01*
X109960931Y-62214658D01*
X109934665Y-62157143D01*
X109900446Y-62082214D01*
X109902148Y-62081436D01*
X109885574Y-62025014D01*
X109902143Y-61968561D01*
X109900446Y-61967786D01*
X109959738Y-61837954D01*
X109960931Y-61835342D01*
X109980390Y-61700000D01*
X109960931Y-61564658D01*
X109913293Y-61460345D01*
X109903550Y-61439011D01*
X109893606Y-61369853D01*
X109903550Y-61335989D01*
X109943561Y-61248377D01*
X109960931Y-61210342D01*
X109980390Y-61075000D01*
X109980390Y-61074998D01*
X109980390Y-61069157D01*
X110000075Y-61002118D01*
X110052879Y-60956363D01*
X110069452Y-60950181D01*
X110131764Y-60931885D01*
X110199556Y-60911980D01*
X110199557Y-60911979D01*
X110199561Y-60911978D01*
X110257964Y-60874445D01*
X110325000Y-60854762D01*
X110392035Y-60874445D01*
X110450439Y-60911978D01*
X110450441Y-60911978D01*
X110450442Y-60911979D01*
X110581632Y-60950500D01*
X110581633Y-60950500D01*
X110718367Y-60950500D01*
X110849561Y-60911978D01*
X110964589Y-60838055D01*
X111054130Y-60734718D01*
X111110931Y-60610342D01*
X111130390Y-60475000D01*
X111110931Y-60339658D01*
X111089987Y-60293797D01*
X111054132Y-60215285D01*
X111054127Y-60215278D01*
X110964590Y-60111946D01*
X110964586Y-60111942D01*
X110849559Y-60038021D01*
X110718368Y-59999500D01*
X110718367Y-59999500D01*
X110581633Y-59999500D01*
X110581632Y-59999500D01*
X110450440Y-60038021D01*
X110392038Y-60075553D01*
X110324998Y-60095237D01*
X110257962Y-60075553D01*
X110199559Y-60038021D01*
X110068368Y-59999500D01*
X110068367Y-59999500D01*
X109931633Y-59999500D01*
X109931632Y-59999500D01*
X109800440Y-60038021D01*
X109742038Y-60075553D01*
X109674998Y-60095237D01*
X109607962Y-60075553D01*
X109549559Y-60038021D01*
X109418368Y-59999500D01*
X109418367Y-59999500D01*
X109281633Y-59999500D01*
X109281632Y-59999500D01*
X109150440Y-60038021D01*
X109035413Y-60111942D01*
X109035409Y-60111946D01*
X108945872Y-60215278D01*
X108945867Y-60215285D01*
X108889070Y-60339654D01*
X108889068Y-60339662D01*
X108869610Y-60475000D01*
X96196114Y-60475000D01*
X96194411Y-60474500D01*
X96194409Y-60474500D01*
X96050487Y-60474500D01*
X96050484Y-60474500D01*
X95912397Y-60515045D01*
X95791321Y-60592856D01*
X95697071Y-60701626D01*
X95697070Y-60701628D01*
X95637282Y-60832543D01*
X95616801Y-60975000D01*
X92858886Y-60975000D01*
X92885165Y-60917457D01*
X92905647Y-60775000D01*
X92885165Y-60632543D01*
X92825377Y-60501627D01*
X92825375Y-60501625D01*
X92825374Y-60501622D01*
X92786017Y-60456203D01*
X92756991Y-60392648D01*
X92766934Y-60323489D01*
X92786017Y-60293797D01*
X92825374Y-60248377D01*
X92825374Y-60248375D01*
X92825377Y-60248373D01*
X92885165Y-60117457D01*
X92905647Y-59975000D01*
X115682242Y-59975000D01*
X115702723Y-60117456D01*
X115762511Y-60248371D01*
X115762514Y-60248377D01*
X115801872Y-60293798D01*
X115830897Y-60357353D01*
X115820953Y-60426512D01*
X115801872Y-60456202D01*
X115762514Y-60501622D01*
X115762511Y-60501628D01*
X115702723Y-60632543D01*
X115682242Y-60775000D01*
X115702723Y-60917456D01*
X115733166Y-60984116D01*
X115762512Y-61048373D01*
X115856761Y-61157143D01*
X115977836Y-61234953D01*
X115977839Y-61234954D01*
X115977838Y-61234954D01*
X116115925Y-61275499D01*
X116115927Y-61275500D01*
X116115928Y-61275500D01*
X116259851Y-61275500D01*
X116259851Y-61275499D01*
X116397942Y-61234953D01*
X116519017Y-61157143D01*
X116613266Y-61048373D01*
X116673054Y-60917457D01*
X116693536Y-60775000D01*
X116673054Y-60632543D01*
X116613266Y-60501627D01*
X116613264Y-60501625D01*
X116613263Y-60501622D01*
X116573906Y-60456203D01*
X116544880Y-60392648D01*
X116554823Y-60323489D01*
X116573906Y-60293797D01*
X116613263Y-60248377D01*
X116613263Y-60248375D01*
X116613266Y-60248373D01*
X116673054Y-60117457D01*
X116693536Y-59975000D01*
X116673054Y-59832543D01*
X116613266Y-59701627D01*
X116519017Y-59592857D01*
X116397942Y-59515047D01*
X116397940Y-59515046D01*
X116397938Y-59515045D01*
X116397939Y-59515045D01*
X116259852Y-59474500D01*
X116259850Y-59474500D01*
X116115928Y-59474500D01*
X116115925Y-59474500D01*
X115977838Y-59515045D01*
X115856762Y-59592856D01*
X115856761Y-59592856D01*
X115856761Y-59592857D01*
X115848239Y-59602692D01*
X115762512Y-59701626D01*
X115762511Y-59701628D01*
X115702723Y-59832543D01*
X115682242Y-59975000D01*
X92905647Y-59975000D01*
X92885165Y-59832543D01*
X92825377Y-59701627D01*
X92731128Y-59592857D01*
X92610053Y-59515047D01*
X92610051Y-59515046D01*
X92610049Y-59515045D01*
X92610050Y-59515045D01*
X92471963Y-59474500D01*
X92471961Y-59474500D01*
X92328039Y-59474500D01*
X92328036Y-59474500D01*
X92189949Y-59515045D01*
X92068873Y-59592856D01*
X92068872Y-59592856D01*
X92068872Y-59592857D01*
X92060350Y-59602692D01*
X91974623Y-59701626D01*
X91974622Y-59701628D01*
X91914834Y-59832543D01*
X91894353Y-59975000D01*
X76120070Y-59975000D01*
X76249561Y-59936978D01*
X76364589Y-59863055D01*
X76454130Y-59759718D01*
X76456085Y-59755436D01*
X76501837Y-59702633D01*
X76568876Y-59682946D01*
X76603813Y-59687968D01*
X76653755Y-59702633D01*
X76731632Y-59725500D01*
X76731633Y-59725500D01*
X76868367Y-59725500D01*
X76999561Y-59686978D01*
X77114589Y-59613055D01*
X77204130Y-59509718D01*
X77206085Y-59505436D01*
X77251837Y-59452633D01*
X77318876Y-59432946D01*
X77353813Y-59437968D01*
X77403755Y-59452633D01*
X77481632Y-59475500D01*
X77481633Y-59475500D01*
X77618367Y-59475500D01*
X77749561Y-59436978D01*
X77864589Y-59363055D01*
X77954130Y-59259718D01*
X77956085Y-59255436D01*
X78001837Y-59202633D01*
X78068876Y-59182946D01*
X78103813Y-59187968D01*
X78153755Y-59202633D01*
X78231632Y-59225500D01*
X78231633Y-59225500D01*
X78368367Y-59225500D01*
X78499561Y-59186978D01*
X78614589Y-59113055D01*
X78704130Y-59009718D01*
X78760931Y-58885342D01*
X78780390Y-58750000D01*
X78760931Y-58614658D01*
X78721854Y-58529091D01*
X78704132Y-58490285D01*
X78704130Y-58490283D01*
X78704130Y-58490282D01*
X78614589Y-58386945D01*
X78609971Y-58383977D01*
X78564216Y-58331175D01*
X78554271Y-58262016D01*
X78559519Y-58244167D01*
X78558433Y-58243849D01*
X78560931Y-58235342D01*
X78567409Y-58190285D01*
X78580390Y-58100000D01*
X78560931Y-57964658D01*
X78539576Y-57917898D01*
X78504132Y-57840285D01*
X78504127Y-57840278D01*
X78414590Y-57736946D01*
X78414586Y-57736942D01*
X78299559Y-57663021D01*
X78168368Y-57624500D01*
X78168367Y-57624500D01*
X78031633Y-57624500D01*
X78031632Y-57624500D01*
X77900440Y-57663021D01*
X77785413Y-57736942D01*
X77785409Y-57736946D01*
X77695872Y-57840278D01*
X77695867Y-57840285D01*
X77693910Y-57844572D01*
X77648152Y-57897373D01*
X77581111Y-57917053D01*
X77546184Y-57912030D01*
X77418368Y-57874500D01*
X77418367Y-57874500D01*
X77281633Y-57874500D01*
X77281632Y-57874500D01*
X77150443Y-57913020D01*
X77150440Y-57913021D01*
X77150439Y-57913022D01*
X77101346Y-57944572D01*
X77060681Y-57970705D01*
X76993641Y-57990388D01*
X76926602Y-57970702D01*
X76880848Y-57917898D01*
X76870906Y-57884038D01*
X76860931Y-57814658D01*
X76848677Y-57787827D01*
X76804132Y-57690285D01*
X76804127Y-57690278D01*
X76714590Y-57586946D01*
X76714586Y-57586942D01*
X76599559Y-57513021D01*
X76468368Y-57474500D01*
X76468367Y-57474500D01*
X76331633Y-57474500D01*
X76331632Y-57474500D01*
X76200440Y-57513021D01*
X76085413Y-57586942D01*
X76085409Y-57586946D01*
X75995872Y-57690278D01*
X75995867Y-57690285D01*
X75993910Y-57694572D01*
X75948152Y-57747373D01*
X75881111Y-57767053D01*
X75846184Y-57762030D01*
X75718368Y-57724500D01*
X75718367Y-57724500D01*
X75581633Y-57724500D01*
X75581632Y-57724500D01*
X75450440Y-57763021D01*
X75335413Y-57836942D01*
X75335409Y-57836946D01*
X75245872Y-57940278D01*
X75245867Y-57940285D01*
X75243910Y-57944572D01*
X75198152Y-57997373D01*
X75131111Y-58017053D01*
X75096184Y-58012030D01*
X74968368Y-57974500D01*
X74968367Y-57974500D01*
X74831633Y-57974500D01*
X74831632Y-57974500D01*
X74700440Y-58013021D01*
X74585413Y-58086942D01*
X74585409Y-58086946D01*
X74495872Y-58190278D01*
X74495867Y-58190285D01*
X74439070Y-58314654D01*
X74439068Y-58314662D01*
X74419610Y-58450000D01*
X74439068Y-58585337D01*
X74439070Y-58585345D01*
X74495867Y-58709714D01*
X74495872Y-58709721D01*
X74585409Y-58813053D01*
X74585411Y-58813055D01*
X74590025Y-58816020D01*
X74635782Y-58868822D01*
X74645729Y-58937980D01*
X74640491Y-58955834D01*
X74641567Y-58956150D01*
X74639069Y-58964657D01*
X74619610Y-59100000D01*
X74639068Y-59235337D01*
X74639070Y-59235345D01*
X74695867Y-59359714D01*
X74695869Y-59359716D01*
X74695870Y-59359718D01*
X74737889Y-59408211D01*
X74766913Y-59471767D01*
X74756969Y-59540925D01*
X74711214Y-59593729D01*
X74694612Y-59602692D01*
X74548492Y-59667750D01*
X74548490Y-59667751D01*
X74395354Y-59779011D01*
X74268691Y-59919685D01*
X74174046Y-60083615D01*
X74174043Y-60083622D01*
X74115552Y-60263640D01*
X74115551Y-60263644D01*
X74095765Y-60451900D01*
X73031559Y-60451900D01*
X72973045Y-60293797D01*
X72694527Y-59541244D01*
X72693025Y-59536944D01*
X72684072Y-59509718D01*
X72362314Y-58531265D01*
X72360973Y-58526920D01*
X72076103Y-57539763D01*
X72067436Y-57509729D01*
X72066265Y-57505377D01*
X71834042Y-56573332D01*
X71810301Y-56478044D01*
X71809281Y-56473601D01*
X71775254Y-56311911D01*
X71659314Y-55760993D01*
X82372876Y-55760993D01*
X82372876Y-55760996D01*
X82392780Y-56039294D01*
X82452085Y-56311911D01*
X82452087Y-56311918D01*
X82512391Y-56473601D01*
X82549589Y-56573333D01*
X82549591Y-56573337D01*
X82683298Y-56818202D01*
X82683303Y-56818210D01*
X82850496Y-57041555D01*
X82850512Y-57041573D01*
X83047779Y-57238840D01*
X83047797Y-57238856D01*
X83271142Y-57406049D01*
X83271150Y-57406054D01*
X83516015Y-57539761D01*
X83516019Y-57539763D01*
X83516021Y-57539764D01*
X83777435Y-57637266D01*
X83895833Y-57663022D01*
X84050058Y-57696572D01*
X84050060Y-57696572D01*
X84050064Y-57696573D01*
X84297372Y-57714260D01*
X84328357Y-57716477D01*
X84328358Y-57716477D01*
X84328359Y-57716477D01*
X84356239Y-57714482D01*
X84606652Y-57696573D01*
X84615851Y-57694572D01*
X84645816Y-57688053D01*
X84879281Y-57637266D01*
X85140695Y-57539764D01*
X85385571Y-57406051D01*
X85608926Y-57238850D01*
X85806213Y-57041563D01*
X85912185Y-56900000D01*
X118919353Y-56900000D01*
X118939834Y-57042456D01*
X118999622Y-57173371D01*
X118999623Y-57173373D01*
X119093872Y-57282143D01*
X119214947Y-57359953D01*
X119214950Y-57359954D01*
X119214949Y-57359954D01*
X119353036Y-57400499D01*
X119353038Y-57400500D01*
X119353039Y-57400500D01*
X119496962Y-57400500D01*
X119496962Y-57400499D01*
X119635053Y-57359953D01*
X119756128Y-57282143D01*
X119850377Y-57173373D01*
X119910165Y-57042457D01*
X119930647Y-56900000D01*
X119910165Y-56757543D01*
X119850377Y-56626627D01*
X119756128Y-56517857D01*
X119635053Y-56440047D01*
X119635051Y-56440046D01*
X119635049Y-56440045D01*
X119635050Y-56440045D01*
X119496963Y-56399500D01*
X119496961Y-56399500D01*
X119353039Y-56399500D01*
X119353036Y-56399500D01*
X119214949Y-56440045D01*
X119093873Y-56517856D01*
X118999623Y-56626626D01*
X118999622Y-56626628D01*
X118939834Y-56757543D01*
X118919353Y-56900000D01*
X85912185Y-56900000D01*
X85973414Y-56818208D01*
X86107127Y-56573332D01*
X86204629Y-56311918D01*
X86263936Y-56039289D01*
X86283840Y-55760995D01*
X86282254Y-55738826D01*
X86277130Y-55667177D01*
X86265656Y-55506747D01*
X104651100Y-55506747D01*
X104671581Y-55649203D01*
X104712511Y-55738826D01*
X104731370Y-55780120D01*
X104825619Y-55888890D01*
X104946694Y-55966700D01*
X104946697Y-55966701D01*
X104946696Y-55966701D01*
X105084783Y-56007246D01*
X105084785Y-56007247D01*
X105084786Y-56007247D01*
X105228709Y-56007247D01*
X105228709Y-56007246D01*
X105335868Y-55975782D01*
X105366797Y-55966701D01*
X105366798Y-55966701D01*
X105366800Y-55966700D01*
X105487875Y-55888890D01*
X105487876Y-55888888D01*
X105489707Y-55887712D01*
X105556747Y-55868027D01*
X105623786Y-55887711D01*
X105623787Y-55887712D01*
X105625617Y-55888888D01*
X105625619Y-55888890D01*
X105674124Y-55920062D01*
X105746695Y-55966701D01*
X105884783Y-56007246D01*
X105884785Y-56007247D01*
X105884786Y-56007247D01*
X106028709Y-56007247D01*
X106028709Y-56007246D01*
X106135868Y-55975782D01*
X106166797Y-55966701D01*
X106166797Y-55966700D01*
X106166800Y-55966700D01*
X106287875Y-55888890D01*
X106287875Y-55888889D01*
X106295336Y-55884095D01*
X106297096Y-55886834D01*
X106346139Y-55864413D01*
X106415302Y-55874329D01*
X106468124Y-55920062D01*
X106476630Y-55935631D01*
X106480704Y-55944552D01*
X106480706Y-55944555D01*
X106570243Y-56047887D01*
X106570247Y-56047891D01*
X106619944Y-56079828D01*
X106685273Y-56121812D01*
X106750870Y-56141073D01*
X106816466Y-56160334D01*
X106816467Y-56160334D01*
X106819446Y-56160334D01*
X106822304Y-56161173D01*
X106825244Y-56161596D01*
X106825183Y-56162018D01*
X106886485Y-56180019D01*
X106932240Y-56232823D01*
X106942184Y-56266688D01*
X106954234Y-56350502D01*
X106954236Y-56350511D01*
X107011033Y-56474880D01*
X107011038Y-56474887D01*
X107100575Y-56578219D01*
X107100579Y-56578223D01*
X107161145Y-56617145D01*
X107215605Y-56652144D01*
X107281202Y-56671405D01*
X107346798Y-56690666D01*
X107346799Y-56690666D01*
X107483533Y-56690666D01*
X107614727Y-56652144D01*
X107729755Y-56578221D01*
X107819296Y-56474884D01*
X107876097Y-56350508D01*
X107895556Y-56215166D01*
X107876097Y-56079824D01*
X107861512Y-56047887D01*
X107819298Y-55955451D01*
X107819293Y-55955444D01*
X107729756Y-55852112D01*
X107729752Y-55852108D01*
X107614725Y-55778187D01*
X107483534Y-55739666D01*
X107483533Y-55739666D01*
X107480554Y-55739666D01*
X107477695Y-55738826D01*
X107474756Y-55738404D01*
X107474816Y-55737981D01*
X107413515Y-55719981D01*
X107367760Y-55667177D01*
X107357816Y-55633312D01*
X107345765Y-55549492D01*
X107318864Y-55490587D01*
X107288966Y-55425119D01*
X107288961Y-55425112D01*
X107199424Y-55321780D01*
X107199420Y-55321776D01*
X107084393Y-55247855D01*
X106953202Y-55209334D01*
X106953201Y-55209334D01*
X106816467Y-55209334D01*
X106816466Y-55209334D01*
X106685274Y-55247855D01*
X106576406Y-55317819D01*
X106509367Y-55337503D01*
X106442327Y-55317818D01*
X106396574Y-55265014D01*
X106382126Y-55233377D01*
X106382123Y-55233373D01*
X106361293Y-55209334D01*
X106287875Y-55124604D01*
X106166800Y-55046794D01*
X106166798Y-55046793D01*
X106166796Y-55046792D01*
X106166797Y-55046792D01*
X106028710Y-55006247D01*
X106028708Y-55006247D01*
X105884786Y-55006247D01*
X105884783Y-55006247D01*
X105746696Y-55046792D01*
X105623786Y-55125782D01*
X105556747Y-55145466D01*
X105489708Y-55125782D01*
X105405145Y-55071437D01*
X105366800Y-55046794D01*
X105366798Y-55046793D01*
X105366796Y-55046792D01*
X105366797Y-55046792D01*
X105228710Y-55006247D01*
X105228708Y-55006247D01*
X105084786Y-55006247D01*
X105084783Y-55006247D01*
X104946696Y-55046792D01*
X104825620Y-55124603D01*
X104731370Y-55233373D01*
X104731369Y-55233375D01*
X104671581Y-55364290D01*
X104651100Y-55506747D01*
X86265656Y-55506747D01*
X86263936Y-55482701D01*
X86262294Y-55475154D01*
X86212848Y-55247855D01*
X86204629Y-55210072D01*
X86107127Y-54948658D01*
X86041366Y-54828227D01*
X85973417Y-54703787D01*
X85973412Y-54703779D01*
X85806219Y-54480434D01*
X85806203Y-54480416D01*
X85650787Y-54325000D01*
X88044353Y-54325000D01*
X88064834Y-54467456D01*
X88124622Y-54598371D01*
X88124623Y-54598373D01*
X88218872Y-54707143D01*
X88339947Y-54784953D01*
X88339950Y-54784954D01*
X88339949Y-54784954D01*
X88447107Y-54816417D01*
X88473969Y-54824305D01*
X88478036Y-54825499D01*
X88478038Y-54825500D01*
X88478039Y-54825500D01*
X88621962Y-54825500D01*
X88621962Y-54825499D01*
X88760053Y-54784953D01*
X88881128Y-54707143D01*
X88975377Y-54598373D01*
X89035165Y-54467457D01*
X89055647Y-54325000D01*
X89035165Y-54182543D01*
X88975377Y-54051627D01*
X88895982Y-53960000D01*
X99059610Y-53960000D01*
X99079068Y-54095337D01*
X99079070Y-54095345D01*
X99135867Y-54219714D01*
X99135872Y-54219721D01*
X99225409Y-54323053D01*
X99225413Y-54323057D01*
X99285979Y-54361979D01*
X99340439Y-54396978D01*
X99406036Y-54416239D01*
X99471632Y-54435500D01*
X99471633Y-54435500D01*
X99608367Y-54435500D01*
X99739561Y-54396978D01*
X99739561Y-54396977D01*
X99742503Y-54396114D01*
X99812373Y-54396114D01*
X99871151Y-54433888D01*
X99890232Y-54463579D01*
X99915869Y-54519716D01*
X99915872Y-54519721D01*
X100005409Y-54623053D01*
X100005413Y-54623057D01*
X100033429Y-54641061D01*
X100120439Y-54696978D01*
X100155058Y-54707143D01*
X100251632Y-54735500D01*
X100251633Y-54735500D01*
X100388367Y-54735500D01*
X100519561Y-54696978D01*
X100597964Y-54646592D01*
X100665001Y-54626909D01*
X100732035Y-54646592D01*
X100810439Y-54696978D01*
X100810441Y-54696978D01*
X100810442Y-54696979D01*
X100941632Y-54735500D01*
X100941633Y-54735500D01*
X101078367Y-54735500D01*
X101209561Y-54696978D01*
X101324589Y-54623055D01*
X101414130Y-54519718D01*
X101470931Y-54395342D01*
X101490390Y-54260000D01*
X101470931Y-54124658D01*
X101437578Y-54051626D01*
X101414132Y-54000285D01*
X101414127Y-54000278D01*
X101324590Y-53896946D01*
X101324586Y-53896942D01*
X101233736Y-53838558D01*
X101209561Y-53823022D01*
X101209560Y-53823021D01*
X101209559Y-53823021D01*
X101078368Y-53784500D01*
X101078367Y-53784500D01*
X100941633Y-53784500D01*
X100941632Y-53784500D01*
X100810440Y-53823021D01*
X100732038Y-53873406D01*
X100664998Y-53893090D01*
X100597962Y-53873406D01*
X100545499Y-53839691D01*
X100519561Y-53823022D01*
X100519560Y-53823021D01*
X100519559Y-53823021D01*
X100388368Y-53784500D01*
X100388367Y-53784500D01*
X100251633Y-53784500D01*
X100251630Y-53784500D01*
X100117495Y-53823885D01*
X100047625Y-53823885D01*
X99988848Y-53786110D01*
X99969769Y-53756424D01*
X99944130Y-53700282D01*
X99866334Y-53610500D01*
X99854590Y-53596946D01*
X99854586Y-53596942D01*
X99739559Y-53523021D01*
X99608368Y-53484500D01*
X99608367Y-53484500D01*
X99471633Y-53484500D01*
X99471632Y-53484500D01*
X99340440Y-53523021D01*
X99225413Y-53596942D01*
X99225409Y-53596946D01*
X99135872Y-53700278D01*
X99135867Y-53700285D01*
X99079070Y-53824654D01*
X99079068Y-53824662D01*
X99059610Y-53960000D01*
X88895982Y-53960000D01*
X88881128Y-53942857D01*
X88760053Y-53865047D01*
X88760051Y-53865046D01*
X88760049Y-53865045D01*
X88760050Y-53865045D01*
X88621963Y-53824500D01*
X88621961Y-53824500D01*
X88478039Y-53824500D01*
X88478036Y-53824500D01*
X88339949Y-53865045D01*
X88218873Y-53942856D01*
X88124623Y-54051626D01*
X88124622Y-54051628D01*
X88064834Y-54182543D01*
X88044353Y-54325000D01*
X85650787Y-54325000D01*
X85608936Y-54283149D01*
X85608918Y-54283133D01*
X85385573Y-54115940D01*
X85385565Y-54115935D01*
X85140700Y-53982228D01*
X85140696Y-53982226D01*
X85035142Y-53942857D01*
X84879281Y-53884724D01*
X84879277Y-53884723D01*
X84879274Y-53884722D01*
X84606657Y-53825417D01*
X84328359Y-53805513D01*
X84328357Y-53805513D01*
X84050058Y-53825417D01*
X83777441Y-53884722D01*
X83777436Y-53884723D01*
X83777435Y-53884724D01*
X83714233Y-53908296D01*
X83516019Y-53982226D01*
X83516015Y-53982228D01*
X83271150Y-54115935D01*
X83271142Y-54115940D01*
X83047797Y-54283133D01*
X83047779Y-54283149D01*
X82850512Y-54480416D01*
X82850496Y-54480434D01*
X82683303Y-54703779D01*
X82683298Y-54703787D01*
X82549591Y-54948652D01*
X82549589Y-54948656D01*
X82452085Y-55210078D01*
X82392780Y-55482695D01*
X82372876Y-55760993D01*
X71659314Y-55760993D01*
X71591257Y-55437604D01*
X71590417Y-55433214D01*
X71410604Y-54389835D01*
X71409916Y-54385349D01*
X71273954Y-53376023D01*
X103504608Y-53376023D01*
X103524066Y-53511360D01*
X103524068Y-53511368D01*
X103580865Y-53635737D01*
X103580870Y-53635744D01*
X103670407Y-53739076D01*
X103670411Y-53739080D01*
X103697392Y-53756419D01*
X103785437Y-53813001D01*
X103825151Y-53824662D01*
X103916630Y-53851523D01*
X103916631Y-53851523D01*
X104053365Y-53851523D01*
X104184559Y-53813001D01*
X104299587Y-53739078D01*
X104389128Y-53635741D01*
X104445929Y-53511365D01*
X104465388Y-53376023D01*
X104445929Y-53240681D01*
X104433675Y-53213850D01*
X104389130Y-53116308D01*
X104389125Y-53116301D01*
X104299588Y-53012969D01*
X104299584Y-53012965D01*
X104184557Y-52939044D01*
X104053366Y-52900523D01*
X104053365Y-52900523D01*
X103916631Y-52900523D01*
X103916630Y-52900523D01*
X103785438Y-52939044D01*
X103670411Y-53012965D01*
X103670407Y-53012969D01*
X103580870Y-53116301D01*
X103580865Y-53116308D01*
X103524068Y-53240677D01*
X103524066Y-53240685D01*
X103504608Y-53376023D01*
X71273954Y-53376023D01*
X71268577Y-53336105D01*
X71268063Y-53331665D01*
X71168506Y-52310000D01*
X111524353Y-52310000D01*
X111544834Y-52452456D01*
X111604622Y-52583371D01*
X111604625Y-52583377D01*
X111643983Y-52628798D01*
X111673008Y-52692353D01*
X111663064Y-52761512D01*
X111643983Y-52791202D01*
X111604625Y-52836622D01*
X111604622Y-52836628D01*
X111544834Y-52967543D01*
X111524353Y-53110000D01*
X111544834Y-53252456D01*
X111583056Y-53336149D01*
X111604623Y-53383373D01*
X111698872Y-53492143D01*
X111819947Y-53569953D01*
X111819950Y-53569954D01*
X111819949Y-53569954D01*
X111958036Y-53610499D01*
X111958038Y-53610500D01*
X111958039Y-53610500D01*
X112101962Y-53610500D01*
X112101962Y-53610499D01*
X112240053Y-53569953D01*
X112361128Y-53492143D01*
X112455377Y-53383373D01*
X112515165Y-53252457D01*
X112535647Y-53110000D01*
X112515165Y-52967543D01*
X112455377Y-52836627D01*
X112455375Y-52836625D01*
X112455374Y-52836622D01*
X112416017Y-52791203D01*
X112386991Y-52727648D01*
X112396934Y-52658489D01*
X112416017Y-52628797D01*
X112455374Y-52583377D01*
X112455374Y-52583375D01*
X112455377Y-52583373D01*
X112515165Y-52452457D01*
X112535647Y-52310000D01*
X112515165Y-52167543D01*
X112455377Y-52036627D01*
X112361128Y-51927857D01*
X112240053Y-51850047D01*
X112240051Y-51850046D01*
X112240049Y-51850045D01*
X112240050Y-51850045D01*
X112101963Y-51809500D01*
X112101961Y-51809500D01*
X111958039Y-51809500D01*
X111958036Y-51809500D01*
X111819949Y-51850045D01*
X111698873Y-51927856D01*
X111604623Y-52036626D01*
X111604622Y-52036628D01*
X111544834Y-52167543D01*
X111524353Y-52310000D01*
X71168506Y-52310000D01*
X71165383Y-52277954D01*
X71165025Y-52273415D01*
X71158625Y-52167543D01*
X71101139Y-51216599D01*
X71100953Y-51212145D01*
X71075950Y-50153679D01*
X71075927Y-50149220D01*
X71082897Y-49619015D01*
X72185635Y-49619015D01*
X72205421Y-49807271D01*
X72205422Y-49807274D01*
X72263913Y-49987292D01*
X72263916Y-49987299D01*
X72358562Y-50151231D01*
X72456247Y-50259721D01*
X72485224Y-50291903D01*
X72638360Y-50403163D01*
X72638365Y-50403166D01*
X72811287Y-50480157D01*
X72811292Y-50480159D01*
X72996449Y-50519515D01*
X72996450Y-50519515D01*
X73185739Y-50519515D01*
X73185741Y-50519515D01*
X73370898Y-50480159D01*
X73543825Y-50403166D01*
X73696966Y-50291903D01*
X73823628Y-50151231D01*
X73918274Y-49987299D01*
X73976769Y-49807271D01*
X73982788Y-49750000D01*
X77269610Y-49750000D01*
X77289068Y-49885337D01*
X77289070Y-49885345D01*
X77345867Y-50009714D01*
X77345872Y-50009721D01*
X77435409Y-50113053D01*
X77435413Y-50113057D01*
X77513990Y-50163554D01*
X77559746Y-50216357D01*
X77569690Y-50285516D01*
X77559747Y-50319377D01*
X77552456Y-50335345D01*
X77539068Y-50364660D01*
X77539068Y-50364662D01*
X77519610Y-50500000D01*
X77539068Y-50635337D01*
X77539070Y-50635345D01*
X77595867Y-50759714D01*
X77595869Y-50759716D01*
X77595870Y-50759718D01*
X77621001Y-50788722D01*
X77625400Y-50793798D01*
X77654424Y-50857354D01*
X77644480Y-50926513D01*
X77625400Y-50956202D01*
X77595870Y-50990282D01*
X77595867Y-50990285D01*
X77539070Y-51114654D01*
X77539068Y-51114662D01*
X77519610Y-51250000D01*
X77539068Y-51385337D01*
X77539070Y-51385345D01*
X77595867Y-51509714D01*
X77595872Y-51509721D01*
X77685409Y-51613053D01*
X77685413Y-51613057D01*
X77745979Y-51651979D01*
X77800439Y-51686978D01*
X77866036Y-51706239D01*
X77931632Y-51725500D01*
X77931633Y-51725500D01*
X78068367Y-51725500D01*
X78070070Y-51725000D01*
X114594610Y-51725000D01*
X114614068Y-51860337D01*
X114614070Y-51860345D01*
X114670867Y-51984714D01*
X114670872Y-51984721D01*
X114760409Y-52088053D01*
X114760413Y-52088057D01*
X114820979Y-52126979D01*
X114875439Y-52161978D01*
X114894392Y-52167543D01*
X115006632Y-52200500D01*
X115006633Y-52200500D01*
X115143367Y-52200500D01*
X115274561Y-52161978D01*
X115389589Y-52088055D01*
X115479130Y-51984718D01*
X115535931Y-51860342D01*
X115555390Y-51725000D01*
X115535931Y-51589658D01*
X115499424Y-51509719D01*
X115479132Y-51465285D01*
X115479127Y-51465278D01*
X115389590Y-51361946D01*
X115389586Y-51361942D01*
X115274559Y-51288021D01*
X115143368Y-51249500D01*
X115143367Y-51249500D01*
X115006633Y-51249500D01*
X115006632Y-51249500D01*
X114875440Y-51288021D01*
X114760413Y-51361942D01*
X114760409Y-51361946D01*
X114670872Y-51465278D01*
X114670867Y-51465285D01*
X114614070Y-51589654D01*
X114614068Y-51589662D01*
X114594610Y-51725000D01*
X78070070Y-51725000D01*
X78199561Y-51686978D01*
X78314589Y-51613055D01*
X78404130Y-51509718D01*
X78406085Y-51505436D01*
X78451837Y-51452633D01*
X78518876Y-51432946D01*
X78553813Y-51437968D01*
X78603755Y-51452633D01*
X78681632Y-51475500D01*
X78681633Y-51475500D01*
X78818367Y-51475500D01*
X78949561Y-51436978D01*
X79064589Y-51363055D01*
X79154130Y-51259718D01*
X79156085Y-51255436D01*
X79201837Y-51202633D01*
X79268876Y-51182946D01*
X79303813Y-51187968D01*
X79353755Y-51202633D01*
X79431632Y-51225500D01*
X79431633Y-51225500D01*
X79568367Y-51225500D01*
X79699561Y-51186978D01*
X79814589Y-51113055D01*
X79904130Y-51009718D01*
X79960931Y-50885342D01*
X79980390Y-50750000D01*
X79960931Y-50614658D01*
X79944103Y-50577811D01*
X79904132Y-50490285D01*
X79904130Y-50490283D01*
X79904130Y-50490282D01*
X79874599Y-50456201D01*
X79845575Y-50392647D01*
X79855518Y-50323489D01*
X79874597Y-50293800D01*
X79904130Y-50259718D01*
X79960931Y-50135342D01*
X79980390Y-50000000D01*
X101519610Y-50000000D01*
X101539068Y-50135337D01*
X101539070Y-50135345D01*
X101595867Y-50259714D01*
X101595872Y-50259721D01*
X101685409Y-50363053D01*
X101685413Y-50363057D01*
X101745979Y-50401979D01*
X101800439Y-50436978D01*
X101865913Y-50456203D01*
X101931632Y-50475500D01*
X101931633Y-50475500D01*
X102068367Y-50475500D01*
X102199561Y-50436978D01*
X102314589Y-50363055D01*
X102404130Y-50259718D01*
X102431402Y-50200000D01*
X120019610Y-50200000D01*
X120039068Y-50335337D01*
X120039070Y-50335345D01*
X120095867Y-50459712D01*
X120095871Y-50459719D01*
X120103740Y-50468801D01*
X120132763Y-50532358D01*
X120122816Y-50601516D01*
X120103740Y-50631199D01*
X120095871Y-50640280D01*
X120095867Y-50640287D01*
X120039070Y-50764654D01*
X120039068Y-50764662D01*
X120019610Y-50900000D01*
X120039068Y-51035337D01*
X120039070Y-51035345D01*
X120095867Y-51159714D01*
X120095872Y-51159721D01*
X120185409Y-51263053D01*
X120185413Y-51263057D01*
X120224259Y-51288021D01*
X120300439Y-51336978D01*
X120366036Y-51356239D01*
X120431632Y-51375500D01*
X120431633Y-51375500D01*
X120568367Y-51375500D01*
X120699561Y-51336978D01*
X120782963Y-51283379D01*
X120850001Y-51263696D01*
X120917036Y-51283379D01*
X121000439Y-51336978D01*
X121000441Y-51336978D01*
X121000442Y-51336979D01*
X121131632Y-51375500D01*
X121131633Y-51375500D01*
X121268367Y-51375500D01*
X121399561Y-51336978D01*
X121514589Y-51263055D01*
X121604130Y-51159718D01*
X121660931Y-51035342D01*
X121680390Y-50900000D01*
X121666012Y-50800000D01*
X124919610Y-50800000D01*
X124939068Y-50935337D01*
X124939070Y-50935345D01*
X124995867Y-51059714D01*
X124995872Y-51059721D01*
X125085409Y-51163053D01*
X125085413Y-51163057D01*
X125116362Y-51182946D01*
X125200439Y-51236978D01*
X125243085Y-51249500D01*
X125331632Y-51275500D01*
X125331633Y-51275500D01*
X125468367Y-51275500D01*
X125599561Y-51236978D01*
X125714589Y-51163055D01*
X125804130Y-51059718D01*
X125860931Y-50935342D01*
X125880390Y-50800000D01*
X125860931Y-50664658D01*
X125845651Y-50631199D01*
X125804132Y-50540285D01*
X125804127Y-50540278D01*
X125714590Y-50436946D01*
X125714586Y-50436942D01*
X125602113Y-50364662D01*
X125599561Y-50363022D01*
X125599560Y-50363021D01*
X125599559Y-50363021D01*
X125468368Y-50324500D01*
X125468367Y-50324500D01*
X125331633Y-50324500D01*
X125331632Y-50324500D01*
X125200440Y-50363021D01*
X125085413Y-50436942D01*
X125085409Y-50436946D01*
X124995872Y-50540278D01*
X124995867Y-50540285D01*
X124939070Y-50664654D01*
X124939068Y-50664662D01*
X124919610Y-50800000D01*
X121666012Y-50800000D01*
X121660931Y-50764658D01*
X121632530Y-50702470D01*
X121604132Y-50640286D01*
X121604131Y-50640285D01*
X121604130Y-50640282D01*
X121596262Y-50631201D01*
X121567238Y-50567651D01*
X121577179Y-50498492D01*
X121596259Y-50468801D01*
X121604130Y-50459718D01*
X121660931Y-50335342D01*
X121680390Y-50200000D01*
X121660931Y-50064658D01*
X121632371Y-50002121D01*
X121604132Y-49940285D01*
X121604127Y-49940278D01*
X121514590Y-49836946D01*
X121514586Y-49836942D01*
X121399559Y-49763021D01*
X121268368Y-49724500D01*
X121268367Y-49724500D01*
X121131633Y-49724500D01*
X121131632Y-49724500D01*
X121000440Y-49763021D01*
X120917038Y-49816619D01*
X120849998Y-49836303D01*
X120782962Y-49816619D01*
X120699559Y-49763021D01*
X120568368Y-49724500D01*
X120568367Y-49724500D01*
X120431633Y-49724500D01*
X120431632Y-49724500D01*
X120300440Y-49763021D01*
X120185413Y-49836942D01*
X120185409Y-49836946D01*
X120095872Y-49940278D01*
X120095867Y-49940285D01*
X120039070Y-50064654D01*
X120039068Y-50064662D01*
X120019610Y-50200000D01*
X102431402Y-50200000D01*
X102460931Y-50135342D01*
X102480390Y-50000000D01*
X102460931Y-49864658D01*
X102438992Y-49816619D01*
X102404132Y-49740285D01*
X102404127Y-49740278D01*
X102314590Y-49636946D01*
X102314586Y-49636942D01*
X102199559Y-49563021D01*
X102068368Y-49524500D01*
X102068367Y-49524500D01*
X101931633Y-49524500D01*
X101931632Y-49524500D01*
X101800440Y-49563021D01*
X101685413Y-49636942D01*
X101685409Y-49636946D01*
X101595872Y-49740278D01*
X101595867Y-49740285D01*
X101539070Y-49864654D01*
X101539068Y-49864662D01*
X101519610Y-50000000D01*
X79980390Y-50000000D01*
X79960931Y-49864658D01*
X79938992Y-49816619D01*
X79904132Y-49740285D01*
X79904127Y-49740278D01*
X79814590Y-49636946D01*
X79814589Y-49636945D01*
X79784741Y-49617763D01*
X79736007Y-49586444D01*
X79690253Y-49533641D01*
X79680309Y-49464483D01*
X79690249Y-49430627D01*
X79710931Y-49385342D01*
X79730390Y-49250000D01*
X79710931Y-49114658D01*
X79697864Y-49086046D01*
X79654132Y-48990285D01*
X79654127Y-48990278D01*
X79564590Y-48886946D01*
X79564586Y-48886942D01*
X79466623Y-48823987D01*
X79449561Y-48813022D01*
X79449560Y-48813021D01*
X79449559Y-48813021D01*
X79318368Y-48774500D01*
X79318367Y-48774500D01*
X79181633Y-48774500D01*
X79181632Y-48774500D01*
X79050440Y-48813021D01*
X78935413Y-48886942D01*
X78935409Y-48886946D01*
X78845872Y-48990278D01*
X78845867Y-48990285D01*
X78843910Y-48994572D01*
X78798152Y-49047373D01*
X78731111Y-49067053D01*
X78696184Y-49062030D01*
X78568368Y-49024500D01*
X78568367Y-49024500D01*
X78431633Y-49024500D01*
X78431632Y-49024500D01*
X78300440Y-49063021D01*
X78185413Y-49136942D01*
X78185409Y-49136946D01*
X78095872Y-49240278D01*
X78095867Y-49240285D01*
X78093910Y-49244572D01*
X78048152Y-49297373D01*
X77981111Y-49317053D01*
X77946184Y-49312030D01*
X77818368Y-49274500D01*
X77818367Y-49274500D01*
X77681633Y-49274500D01*
X77681632Y-49274500D01*
X77550440Y-49313021D01*
X77435413Y-49386942D01*
X77435409Y-49386946D01*
X77345872Y-49490278D01*
X77345867Y-49490285D01*
X77289070Y-49614654D01*
X77289068Y-49614662D01*
X77269610Y-49750000D01*
X73982788Y-49750000D01*
X73996555Y-49619015D01*
X73976769Y-49430759D01*
X73918274Y-49250731D01*
X73823628Y-49086799D01*
X73696966Y-48946127D01*
X73688803Y-48940196D01*
X73543829Y-48834866D01*
X73543824Y-48834863D01*
X73370902Y-48757872D01*
X73370897Y-48757870D01*
X73225096Y-48726880D01*
X73185741Y-48718515D01*
X72996449Y-48718515D01*
X72963992Y-48725413D01*
X72811292Y-48757870D01*
X72811287Y-48757872D01*
X72638365Y-48834863D01*
X72638360Y-48834866D01*
X72485224Y-48946126D01*
X72358561Y-49086800D01*
X72263916Y-49250730D01*
X72263913Y-49250737D01*
X72205467Y-49430616D01*
X72205421Y-49430759D01*
X72185635Y-49619015D01*
X71082897Y-49619015D01*
X71089844Y-49090557D01*
X71089984Y-49086090D01*
X71110243Y-48680478D01*
X109950088Y-48680478D01*
X109969546Y-48815815D01*
X109969548Y-48815823D01*
X110026345Y-48940192D01*
X110026350Y-48940199D01*
X110115887Y-49043531D01*
X110115891Y-49043535D01*
X110152487Y-49067053D01*
X110230917Y-49117456D01*
X110296514Y-49136717D01*
X110362110Y-49155978D01*
X110455006Y-49155978D01*
X110522045Y-49175663D01*
X110567800Y-49228467D01*
X110577744Y-49297625D01*
X110567802Y-49331483D01*
X110564071Y-49339654D01*
X110564068Y-49339661D01*
X110564068Y-49339662D01*
X110544610Y-49475000D01*
X110564068Y-49610337D01*
X110564070Y-49610345D01*
X110620867Y-49734714D01*
X110620872Y-49734721D01*
X110710409Y-49838053D01*
X110710413Y-49838057D01*
X110770979Y-49876979D01*
X110825439Y-49911978D01*
X110891036Y-49931239D01*
X110956632Y-49950500D01*
X110956633Y-49950500D01*
X111093367Y-49950500D01*
X111224561Y-49911978D01*
X111339589Y-49838055D01*
X111429130Y-49734718D01*
X111433797Y-49724500D01*
X111473781Y-49636946D01*
X111485931Y-49610342D01*
X111505390Y-49475000D01*
X111485931Y-49339658D01*
X111445322Y-49250737D01*
X111429132Y-49215285D01*
X111429127Y-49215278D01*
X111339590Y-49111946D01*
X111339586Y-49111942D01*
X111248736Y-49053558D01*
X111224561Y-49038022D01*
X111224560Y-49038021D01*
X111224559Y-49038021D01*
X111093368Y-48999500D01*
X111093367Y-48999500D01*
X111000472Y-48999500D01*
X110933433Y-48979815D01*
X110887678Y-48927011D01*
X110877734Y-48857853D01*
X110887675Y-48823994D01*
X110891409Y-48815820D01*
X110910868Y-48680478D01*
X110891409Y-48545136D01*
X110865340Y-48488053D01*
X110834610Y-48420763D01*
X110834605Y-48420756D01*
X110745068Y-48317424D01*
X110745064Y-48317420D01*
X110630037Y-48243499D01*
X110498846Y-48204978D01*
X110498845Y-48204978D01*
X110362111Y-48204978D01*
X110362110Y-48204978D01*
X110230918Y-48243499D01*
X110115891Y-48317420D01*
X110115887Y-48317424D01*
X110026350Y-48420756D01*
X110026345Y-48420763D01*
X109969548Y-48545132D01*
X109969546Y-48545140D01*
X109950088Y-48680478D01*
X71110243Y-48680478D01*
X71137988Y-48125000D01*
X103944612Y-48125000D01*
X103964070Y-48260337D01*
X103964072Y-48260345D01*
X104020869Y-48384714D01*
X104020874Y-48384721D01*
X104110411Y-48488053D01*
X104110415Y-48488057D01*
X104170981Y-48526979D01*
X104225441Y-48561978D01*
X104234286Y-48564575D01*
X104356634Y-48600500D01*
X104356635Y-48600500D01*
X104493369Y-48600500D01*
X104624563Y-48561978D01*
X104739591Y-48488055D01*
X104829132Y-48384718D01*
X104885933Y-48260342D01*
X104905392Y-48125000D01*
X104885933Y-47989658D01*
X104873679Y-47962827D01*
X104829134Y-47865285D01*
X104829129Y-47865278D01*
X104739592Y-47761946D01*
X104739588Y-47761942D01*
X104624561Y-47688021D01*
X104493370Y-47649500D01*
X104493369Y-47649500D01*
X104356635Y-47649500D01*
X104356634Y-47649500D01*
X104225442Y-47688021D01*
X104110415Y-47761942D01*
X104110411Y-47761946D01*
X104020874Y-47865278D01*
X104020869Y-47865285D01*
X103964072Y-47989654D01*
X103964070Y-47989662D01*
X103944612Y-48125000D01*
X71137988Y-48125000D01*
X71142800Y-48028650D01*
X71143110Y-48024124D01*
X71214713Y-47200000D01*
X104919353Y-47200000D01*
X104939834Y-47342456D01*
X104977862Y-47425724D01*
X104999623Y-47473373D01*
X105093872Y-47582143D01*
X105214947Y-47659953D01*
X105214950Y-47659954D01*
X105214949Y-47659954D01*
X105353036Y-47700499D01*
X105353038Y-47700500D01*
X105353039Y-47700500D01*
X105496962Y-47700500D01*
X105496962Y-47700499D01*
X105635053Y-47659953D01*
X105756128Y-47582143D01*
X105850377Y-47473373D01*
X105910165Y-47342457D01*
X105930647Y-47200000D01*
X106494353Y-47200000D01*
X106514834Y-47342456D01*
X106552862Y-47425724D01*
X106574623Y-47473373D01*
X106668872Y-47582143D01*
X106789947Y-47659953D01*
X106789950Y-47659954D01*
X106789949Y-47659954D01*
X106928036Y-47700499D01*
X106928038Y-47700500D01*
X106928039Y-47700500D01*
X107071962Y-47700500D01*
X107071962Y-47700499D01*
X107210053Y-47659953D01*
X107331128Y-47582143D01*
X107425377Y-47473373D01*
X107485165Y-47342457D01*
X107485165Y-47342452D01*
X107486018Y-47339551D01*
X107487655Y-47337002D01*
X107488849Y-47334390D01*
X107489224Y-47334561D01*
X107523795Y-47280774D01*
X107587351Y-47251752D01*
X107604994Y-47250490D01*
X107718357Y-47250490D01*
X107849551Y-47211968D01*
X107964579Y-47138045D01*
X107981377Y-47118658D01*
X108040152Y-47080884D01*
X108110022Y-47080882D01*
X108168801Y-47118655D01*
X108187884Y-47148347D01*
X108210833Y-47198597D01*
X108305082Y-47307367D01*
X108426157Y-47385177D01*
X108426160Y-47385178D01*
X108426159Y-47385178D01*
X108564246Y-47425723D01*
X108564248Y-47425724D01*
X108564249Y-47425724D01*
X108708172Y-47425724D01*
X108708172Y-47425723D01*
X108846263Y-47385177D01*
X108967338Y-47307367D01*
X109061587Y-47198597D01*
X109121375Y-47067681D01*
X109141857Y-46925224D01*
X109121375Y-46782767D01*
X109061587Y-46651851D01*
X108967338Y-46543081D01*
X108846263Y-46465271D01*
X108846261Y-46465270D01*
X108846259Y-46465269D01*
X108846260Y-46465269D01*
X108708173Y-46424724D01*
X108708171Y-46424724D01*
X108564249Y-46424724D01*
X108564246Y-46424724D01*
X108426159Y-46465269D01*
X108305082Y-46543080D01*
X108275405Y-46577329D01*
X108216627Y-46615102D01*
X108146757Y-46615100D01*
X108087980Y-46577325D01*
X108068901Y-46547639D01*
X108058731Y-46525370D01*
X108048789Y-46456213D01*
X108077815Y-46392658D01*
X108104487Y-46369546D01*
X108114589Y-46363055D01*
X108204130Y-46259718D01*
X108260931Y-46135342D01*
X108280390Y-46000000D01*
X108273201Y-45950000D01*
X112369610Y-45950000D01*
X112389068Y-46085337D01*
X112389070Y-46085345D01*
X112445867Y-46209714D01*
X112445872Y-46209721D01*
X112535409Y-46313053D01*
X112535413Y-46313057D01*
X112569406Y-46334902D01*
X112650439Y-46386978D01*
X112694788Y-46400000D01*
X112781632Y-46425500D01*
X112781633Y-46425500D01*
X112918367Y-46425500D01*
X113049561Y-46386978D01*
X113164589Y-46313055D01*
X113254130Y-46209718D01*
X113255950Y-46205734D01*
X113276707Y-46160282D01*
X113310931Y-46085342D01*
X113330390Y-45950000D01*
X113310931Y-45814658D01*
X113298677Y-45787827D01*
X113254132Y-45690285D01*
X113254127Y-45690278D01*
X113164590Y-45586946D01*
X113164586Y-45586942D01*
X113049559Y-45513021D01*
X112918368Y-45474500D01*
X112918367Y-45474500D01*
X112781633Y-45474500D01*
X112781632Y-45474500D01*
X112650440Y-45513021D01*
X112535413Y-45586942D01*
X112535409Y-45586946D01*
X112445872Y-45690278D01*
X112445867Y-45690285D01*
X112389070Y-45814654D01*
X112389068Y-45814662D01*
X112369610Y-45950000D01*
X108273201Y-45950000D01*
X108260931Y-45864658D01*
X108248290Y-45836978D01*
X108204132Y-45740285D01*
X108204127Y-45740278D01*
X108114590Y-45636946D01*
X108114586Y-45636942D01*
X107999559Y-45563021D01*
X107868368Y-45524500D01*
X107868367Y-45524500D01*
X107731633Y-45524500D01*
X107731632Y-45524500D01*
X107600440Y-45563021D01*
X107485413Y-45636942D01*
X107485409Y-45636946D01*
X107395872Y-45740278D01*
X107395867Y-45740285D01*
X107339070Y-45864654D01*
X107339068Y-45864662D01*
X107319610Y-46000000D01*
X107339068Y-46135337D01*
X107339068Y-46135339D01*
X107339068Y-46135340D01*
X107339069Y-46135342D01*
X107384738Y-46235342D01*
X107391257Y-46249617D01*
X107401200Y-46318776D01*
X107372175Y-46382331D01*
X107345502Y-46405443D01*
X107335403Y-46411933D01*
X107335399Y-46411936D01*
X107245862Y-46515268D01*
X107245859Y-46515273D01*
X107194755Y-46627174D01*
X107149000Y-46679978D01*
X107081960Y-46699662D01*
X107079685Y-46699500D01*
X107071961Y-46699500D01*
X106928039Y-46699500D01*
X106928036Y-46699500D01*
X106789949Y-46740045D01*
X106668873Y-46817856D01*
X106574623Y-46926626D01*
X106574622Y-46926628D01*
X106514834Y-47057543D01*
X106494353Y-47200000D01*
X105930647Y-47200000D01*
X105910165Y-47057543D01*
X105850377Y-46926627D01*
X105756128Y-46817857D01*
X105635053Y-46740047D01*
X105635051Y-46740046D01*
X105635049Y-46740045D01*
X105635050Y-46740045D01*
X105496963Y-46699500D01*
X105496961Y-46699500D01*
X105353039Y-46699500D01*
X105353036Y-46699500D01*
X105214949Y-46740045D01*
X105093873Y-46817856D01*
X104999623Y-46926626D01*
X104999622Y-46926628D01*
X104939834Y-47057543D01*
X104919353Y-47200000D01*
X71214713Y-47200000D01*
X71234750Y-46969375D01*
X71235219Y-46964935D01*
X71305304Y-46400000D01*
X100419610Y-46400000D01*
X100439068Y-46535337D01*
X100439070Y-46535345D01*
X100495867Y-46659714D01*
X100495872Y-46659721D01*
X100585409Y-46763053D01*
X100585413Y-46763057D01*
X100645979Y-46801979D01*
X100700439Y-46836978D01*
X100766036Y-46856239D01*
X100831632Y-46875500D01*
X100831633Y-46875500D01*
X100968367Y-46875500D01*
X101099561Y-46836978D01*
X101214589Y-46763055D01*
X101304130Y-46659718D01*
X101360931Y-46535342D01*
X101377514Y-46420000D01*
X101769611Y-46420000D01*
X101789069Y-46555337D01*
X101789071Y-46555345D01*
X101845868Y-46679714D01*
X101845873Y-46679721D01*
X101935410Y-46783053D01*
X101935414Y-46783057D01*
X101989564Y-46817856D01*
X102050440Y-46856978D01*
X102080669Y-46865854D01*
X102181633Y-46895500D01*
X102181634Y-46895500D01*
X102318368Y-46895500D01*
X102449562Y-46856978D01*
X102564590Y-46783055D01*
X102654131Y-46679718D01*
X102663264Y-46659721D01*
X102714616Y-46547275D01*
X102717843Y-46548748D01*
X102746393Y-46504245D01*
X102809924Y-46475168D01*
X102879091Y-46485054D01*
X102931933Y-46530766D01*
X102946646Y-46562945D01*
X102947019Y-46564217D01*
X103003818Y-46688590D01*
X103003823Y-46688597D01*
X103093360Y-46791929D01*
X103093364Y-46791933D01*
X103133704Y-46817857D01*
X103208390Y-46865854D01*
X103273987Y-46885115D01*
X103339583Y-46904376D01*
X103339584Y-46904376D01*
X103476318Y-46904376D01*
X103607512Y-46865854D01*
X103722540Y-46791931D01*
X103812081Y-46688594D01*
X103816137Y-46679714D01*
X103828861Y-46651851D01*
X103868882Y-46564218D01*
X103888341Y-46428876D01*
X103868882Y-46293534D01*
X103842308Y-46235345D01*
X103812083Y-46169161D01*
X103812078Y-46169154D01*
X103722541Y-46065822D01*
X103722537Y-46065818D01*
X103607510Y-45991897D01*
X103476319Y-45953376D01*
X103476318Y-45953376D01*
X103339584Y-45953376D01*
X103339583Y-45953376D01*
X103208391Y-45991897D01*
X103093364Y-46065818D01*
X103093360Y-46065822D01*
X103003823Y-46169154D01*
X103003818Y-46169161D01*
X102943336Y-46301601D01*
X102940129Y-46300136D01*
X102911434Y-46344739D01*
X102847863Y-46373731D01*
X102778710Y-46363752D01*
X102725929Y-46317970D01*
X102711303Y-46285922D01*
X102710932Y-46284662D01*
X102710932Y-46284658D01*
X102676706Y-46209714D01*
X102654133Y-46160285D01*
X102654128Y-46160278D01*
X102564591Y-46056946D01*
X102564587Y-46056942D01*
X102473737Y-45998558D01*
X102449562Y-45983022D01*
X102449561Y-45983021D01*
X102449560Y-45983021D01*
X102318369Y-45944500D01*
X102318368Y-45944500D01*
X102181634Y-45944500D01*
X102181633Y-45944500D01*
X102050441Y-45983021D01*
X101935414Y-46056942D01*
X101935410Y-46056946D01*
X101845873Y-46160278D01*
X101845868Y-46160285D01*
X101789071Y-46284654D01*
X101789069Y-46284662D01*
X101769611Y-46420000D01*
X101377514Y-46420000D01*
X101380390Y-46400000D01*
X101360931Y-46264658D01*
X101317319Y-46169161D01*
X101304132Y-46140285D01*
X101304127Y-46140278D01*
X101214590Y-46036946D01*
X101214586Y-46036942D01*
X101102113Y-45964662D01*
X101099561Y-45963022D01*
X101099560Y-45963021D01*
X101099559Y-45963021D01*
X100968368Y-45924500D01*
X100968367Y-45924500D01*
X100831633Y-45924500D01*
X100831632Y-45924500D01*
X100700440Y-45963021D01*
X100585413Y-46036942D01*
X100585409Y-46036946D01*
X100495872Y-46140278D01*
X100495867Y-46140285D01*
X100439070Y-46264654D01*
X100439068Y-46264662D01*
X100419610Y-46400000D01*
X71305304Y-46400000D01*
X71365570Y-45914211D01*
X71366204Y-45909779D01*
X71448570Y-45400000D01*
X114419610Y-45400000D01*
X114439068Y-45535337D01*
X114439070Y-45535345D01*
X114495867Y-45659714D01*
X114495872Y-45659721D01*
X114585409Y-45763053D01*
X114585413Y-45763057D01*
X114645979Y-45801979D01*
X114700439Y-45836978D01*
X114711702Y-45840285D01*
X114831632Y-45875500D01*
X114908784Y-45875500D01*
X114975823Y-45895185D01*
X115021578Y-45947989D01*
X115031522Y-46017146D01*
X115019610Y-46099999D01*
X115039068Y-46235337D01*
X115039070Y-46235345D01*
X115095867Y-46359714D01*
X115095872Y-46359721D01*
X115185409Y-46463053D01*
X115185413Y-46463057D01*
X115245979Y-46501979D01*
X115300439Y-46536978D01*
X115340524Y-46548748D01*
X115431632Y-46575500D01*
X115431633Y-46575500D01*
X115568367Y-46575500D01*
X115699561Y-46536978D01*
X115814589Y-46463055D01*
X115904130Y-46359718D01*
X115960931Y-46235342D01*
X115980390Y-46100000D01*
X115960931Y-45964658D01*
X115937911Y-45914251D01*
X115904132Y-45840285D01*
X115904127Y-45840278D01*
X115814590Y-45736946D01*
X115814586Y-45736942D01*
X115699559Y-45663021D01*
X115568368Y-45624500D01*
X115568367Y-45624500D01*
X115491216Y-45624500D01*
X115424177Y-45604815D01*
X115378422Y-45552011D01*
X115368478Y-45482854D01*
X115380390Y-45400000D01*
X115371399Y-45337468D01*
X115360931Y-45264658D01*
X115348677Y-45237827D01*
X115304132Y-45140285D01*
X115304127Y-45140278D01*
X115214590Y-45036946D01*
X115214586Y-45036942D01*
X115099559Y-44963021D01*
X114968368Y-44924500D01*
X114968367Y-44924500D01*
X114831633Y-44924500D01*
X114831632Y-44924500D01*
X114700440Y-44963021D01*
X114585413Y-45036942D01*
X114585409Y-45036946D01*
X114495872Y-45140278D01*
X114495867Y-45140285D01*
X114439070Y-45264654D01*
X114439068Y-45264662D01*
X114419610Y-45400000D01*
X71448570Y-45400000D01*
X71535071Y-44864630D01*
X71535877Y-44860165D01*
X71543219Y-44823373D01*
X71597766Y-44550000D01*
X105569353Y-44550000D01*
X105589834Y-44692456D01*
X105646921Y-44817456D01*
X105649623Y-44823373D01*
X105743872Y-44932143D01*
X105864947Y-45009953D01*
X105864950Y-45009954D01*
X105864949Y-45009954D01*
X106003036Y-45050499D01*
X106003038Y-45050500D01*
X106003039Y-45050500D01*
X106146962Y-45050500D01*
X106146962Y-45050499D01*
X106285053Y-45009953D01*
X106406128Y-44932143D01*
X106500377Y-44823373D01*
X106560165Y-44692457D01*
X106562675Y-44675000D01*
X106919353Y-44675000D01*
X106939834Y-44817456D01*
X106972863Y-44889778D01*
X106999623Y-44948373D01*
X107093872Y-45057143D01*
X107214947Y-45134953D01*
X107214950Y-45134954D01*
X107214949Y-45134954D01*
X107322107Y-45166417D01*
X107346452Y-45173566D01*
X107353036Y-45175499D01*
X107353038Y-45175500D01*
X107353039Y-45175500D01*
X107496962Y-45175500D01*
X107496962Y-45175499D01*
X107635053Y-45134953D01*
X107756128Y-45057143D01*
X107850377Y-44948373D01*
X107910165Y-44817457D01*
X107930647Y-44675000D01*
X107910165Y-44532543D01*
X107850377Y-44401627D01*
X107756128Y-44292857D01*
X107635053Y-44215047D01*
X107635051Y-44215046D01*
X107635049Y-44215045D01*
X107635050Y-44215045D01*
X107496963Y-44174500D01*
X107496961Y-44174500D01*
X107353039Y-44174500D01*
X107353036Y-44174500D01*
X107214949Y-44215045D01*
X107093873Y-44292856D01*
X106999623Y-44401626D01*
X106999622Y-44401628D01*
X106939834Y-44532543D01*
X106919353Y-44675000D01*
X106562675Y-44675000D01*
X106580647Y-44550000D01*
X106560165Y-44407543D01*
X106500377Y-44276627D01*
X106406128Y-44167857D01*
X106285053Y-44090047D01*
X106285051Y-44090046D01*
X106285049Y-44090045D01*
X106285050Y-44090045D01*
X106146963Y-44049500D01*
X106146961Y-44049500D01*
X106003039Y-44049500D01*
X106003036Y-44049500D01*
X105864949Y-44090045D01*
X105743873Y-44167856D01*
X105649623Y-44276626D01*
X105649622Y-44276628D01*
X105589834Y-44407543D01*
X105569353Y-44550000D01*
X71597766Y-44550000D01*
X71743042Y-43821928D01*
X71744014Y-43817488D01*
X71763718Y-43734721D01*
X71825547Y-43475000D01*
X109694610Y-43475000D01*
X109714068Y-43610337D01*
X109714070Y-43610345D01*
X109770867Y-43734714D01*
X109770872Y-43734721D01*
X109860409Y-43838053D01*
X109860413Y-43838057D01*
X109920979Y-43876979D01*
X109975439Y-43911978D01*
X110041036Y-43931239D01*
X110106632Y-43950500D01*
X110106633Y-43950500D01*
X110243367Y-43950500D01*
X110374561Y-43911978D01*
X110489589Y-43838055D01*
X110579130Y-43734718D01*
X110635931Y-43610342D01*
X110655390Y-43475000D01*
X110635931Y-43339658D01*
X110623677Y-43312827D01*
X110579132Y-43215285D01*
X110579127Y-43215278D01*
X110489590Y-43111946D01*
X110489586Y-43111942D01*
X110374559Y-43038021D01*
X110243368Y-42999500D01*
X110243367Y-42999500D01*
X110106633Y-42999500D01*
X110106632Y-42999500D01*
X109975440Y-43038021D01*
X109860413Y-43111942D01*
X109860409Y-43111946D01*
X109770872Y-43215278D01*
X109770867Y-43215285D01*
X109714070Y-43339654D01*
X109714068Y-43339662D01*
X109694610Y-43475000D01*
X71825547Y-43475000D01*
X71989200Y-42787558D01*
X71990318Y-42783215D01*
X72060086Y-42531587D01*
X115551197Y-42531587D01*
X115570655Y-42666924D01*
X115570657Y-42666932D01*
X115627454Y-42791301D01*
X115627459Y-42791308D01*
X115716996Y-42894640D01*
X115717000Y-42894644D01*
X115777566Y-42933566D01*
X115832026Y-42968565D01*
X115897623Y-42987826D01*
X115963219Y-43007087D01*
X115963220Y-43007087D01*
X116099954Y-43007087D01*
X116231148Y-42968565D01*
X116346176Y-42894642D01*
X116435717Y-42791305D01*
X116492518Y-42666929D01*
X116511977Y-42531587D01*
X116492518Y-42396245D01*
X116464681Y-42335290D01*
X116435719Y-42271872D01*
X116435714Y-42271865D01*
X116346177Y-42168533D01*
X116346173Y-42168529D01*
X116231146Y-42094608D01*
X116099955Y-42056087D01*
X116099954Y-42056087D01*
X115963220Y-42056087D01*
X115963219Y-42056087D01*
X115832027Y-42094608D01*
X115717000Y-42168529D01*
X115716996Y-42168533D01*
X115627459Y-42271865D01*
X115627454Y-42271872D01*
X115570657Y-42396241D01*
X115570655Y-42396249D01*
X115551197Y-42531587D01*
X72060086Y-42531587D01*
X72273201Y-41762957D01*
X72274472Y-41758679D01*
X72523119Y-40974993D01*
X76341041Y-40974993D01*
X76360499Y-41110330D01*
X76360501Y-41110338D01*
X76417298Y-41234707D01*
X76417303Y-41234714D01*
X76506840Y-41338046D01*
X76506844Y-41338050D01*
X76567410Y-41376972D01*
X76621870Y-41411971D01*
X76667946Y-41425500D01*
X76753063Y-41450493D01*
X76753064Y-41450493D01*
X76889798Y-41450493D01*
X77020989Y-41411972D01*
X77020989Y-41411971D01*
X77020992Y-41411971D01*
X77086789Y-41369685D01*
X77153826Y-41350002D01*
X77220862Y-41369685D01*
X77295422Y-41417601D01*
X77295424Y-41417601D01*
X77295425Y-41417602D01*
X77426615Y-41456123D01*
X77426616Y-41456123D01*
X77563350Y-41456123D01*
X77694541Y-41417602D01*
X77694541Y-41417601D01*
X77694544Y-41417601D01*
X77765378Y-41372078D01*
X77832415Y-41352395D01*
X77899451Y-41372078D01*
X78000439Y-41436978D01*
X78000441Y-41436978D01*
X78000442Y-41436979D01*
X78131632Y-41475500D01*
X78131633Y-41475500D01*
X78268367Y-41475500D01*
X78270070Y-41475000D01*
X116884318Y-41475000D01*
X116903776Y-41610337D01*
X116903778Y-41610345D01*
X116960575Y-41734714D01*
X116960580Y-41734721D01*
X117037890Y-41823944D01*
X117066914Y-41887500D01*
X117056970Y-41956658D01*
X117037890Y-41986346D01*
X116960580Y-42075568D01*
X116960575Y-42075575D01*
X116903778Y-42199944D01*
X116903776Y-42199952D01*
X116884318Y-42335290D01*
X116903776Y-42470627D01*
X116903778Y-42470635D01*
X116960575Y-42595004D01*
X116960577Y-42595006D01*
X116960578Y-42595008D01*
X117010000Y-42652045D01*
X117017478Y-42660675D01*
X117046502Y-42724231D01*
X117036558Y-42793389D01*
X117017478Y-42823079D01*
X116960578Y-42888746D01*
X116960575Y-42888749D01*
X116903778Y-43013118D01*
X116903776Y-43013126D01*
X116884318Y-43148464D01*
X116903776Y-43283801D01*
X116903778Y-43283809D01*
X116960575Y-43408178D01*
X116960580Y-43408186D01*
X117027081Y-43484932D01*
X117056106Y-43548487D01*
X117046162Y-43617646D01*
X117027082Y-43647335D01*
X116970872Y-43712205D01*
X116970867Y-43712213D01*
X116914070Y-43836582D01*
X116914068Y-43836590D01*
X116894610Y-43971928D01*
X116914068Y-44107265D01*
X116914070Y-44107273D01*
X116970867Y-44231642D01*
X116970872Y-44231649D01*
X117060409Y-44334981D01*
X117060413Y-44334985D01*
X117120979Y-44373907D01*
X117175439Y-44408906D01*
X117241036Y-44428167D01*
X117306632Y-44447428D01*
X117306633Y-44447428D01*
X117443367Y-44447428D01*
X117574561Y-44408906D01*
X117689589Y-44334983D01*
X117779130Y-44231646D01*
X117786712Y-44215045D01*
X117805228Y-44174500D01*
X117835931Y-44107270D01*
X117855390Y-43971928D01*
X117835931Y-43836586D01*
X117823677Y-43809755D01*
X117779132Y-43712213D01*
X117779130Y-43712211D01*
X117779130Y-43712210D01*
X117712625Y-43635458D01*
X117683601Y-43571902D01*
X117693545Y-43502744D01*
X117712625Y-43473055D01*
X117768838Y-43408182D01*
X117825639Y-43283806D01*
X117845098Y-43148464D01*
X117825639Y-43013122D01*
X117771530Y-42894640D01*
X117768840Y-42888749D01*
X117768837Y-42888745D01*
X117711937Y-42823078D01*
X117682913Y-42759524D01*
X117692857Y-42690365D01*
X117711935Y-42660677D01*
X117768838Y-42595008D01*
X117825639Y-42470632D01*
X117845098Y-42335290D01*
X117825639Y-42199948D01*
X117777532Y-42094608D01*
X117768840Y-42075575D01*
X117768837Y-42075571D01*
X117691524Y-41986345D01*
X117662500Y-41922792D01*
X117672444Y-41853633D01*
X117691524Y-41823944D01*
X117768838Y-41734718D01*
X117825639Y-41610342D01*
X117845098Y-41475000D01*
X117825639Y-41339658D01*
X117789133Y-41259721D01*
X117768840Y-41215285D01*
X117768835Y-41215278D01*
X117679298Y-41111946D01*
X117679294Y-41111942D01*
X117564267Y-41038021D01*
X117433076Y-40999500D01*
X117433075Y-40999500D01*
X117296341Y-40999500D01*
X117296340Y-40999500D01*
X117165148Y-41038021D01*
X117050121Y-41111942D01*
X117050117Y-41111946D01*
X116960580Y-41215278D01*
X116960575Y-41215285D01*
X116903778Y-41339654D01*
X116903776Y-41339662D01*
X116884318Y-41475000D01*
X78270070Y-41475000D01*
X78399561Y-41436978D01*
X78514589Y-41363055D01*
X78604130Y-41259718D01*
X78660931Y-41135342D01*
X78680390Y-41000000D01*
X78660931Y-40864658D01*
X78608354Y-40749531D01*
X78600491Y-40732313D01*
X78590547Y-40663155D01*
X78619570Y-40599602D01*
X78654130Y-40559718D01*
X78710931Y-40435342D01*
X78712418Y-40425000D01*
X95444353Y-40425000D01*
X95464834Y-40567456D01*
X95508539Y-40663155D01*
X95524623Y-40698373D01*
X95618872Y-40807143D01*
X95739947Y-40884953D01*
X95739950Y-40884954D01*
X95739949Y-40884954D01*
X95878036Y-40925499D01*
X95878038Y-40925500D01*
X95878039Y-40925500D01*
X96021962Y-40925500D01*
X96021962Y-40925499D01*
X96160053Y-40884953D01*
X96281128Y-40807143D01*
X96375377Y-40698373D01*
X96420303Y-40600000D01*
X100019610Y-40600000D01*
X100039068Y-40735337D01*
X100039070Y-40735345D01*
X100095867Y-40859714D01*
X100095872Y-40859721D01*
X100185409Y-40963053D01*
X100185413Y-40963057D01*
X100242121Y-40999500D01*
X100300439Y-41036978D01*
X100366036Y-41056239D01*
X100431632Y-41075500D01*
X100431633Y-41075500D01*
X100568367Y-41075500D01*
X100699561Y-41036978D01*
X100814589Y-40963055D01*
X100825901Y-40950000D01*
X109769610Y-40950000D01*
X109789068Y-41085337D01*
X109789070Y-41085345D01*
X109845867Y-41209714D01*
X109845872Y-41209721D01*
X109935409Y-41313053D01*
X109935413Y-41313057D01*
X109976813Y-41339662D01*
X110050439Y-41386978D01*
X110116036Y-41406239D01*
X110181632Y-41425500D01*
X110181633Y-41425500D01*
X110318367Y-41425500D01*
X110449561Y-41386978D01*
X110564589Y-41313055D01*
X110654130Y-41209718D01*
X110710931Y-41085342D01*
X110730390Y-40950000D01*
X110710931Y-40814658D01*
X110698677Y-40787827D01*
X110654132Y-40690285D01*
X110654127Y-40690278D01*
X110564590Y-40586946D01*
X110564586Y-40586942D01*
X110449559Y-40513021D01*
X110318368Y-40474500D01*
X110318367Y-40474500D01*
X110181633Y-40474500D01*
X110181632Y-40474500D01*
X110050440Y-40513021D01*
X109935413Y-40586942D01*
X109935409Y-40586946D01*
X109845872Y-40690278D01*
X109845867Y-40690285D01*
X109789070Y-40814654D01*
X109789068Y-40814662D01*
X109769610Y-40950000D01*
X100825901Y-40950000D01*
X100904130Y-40859718D01*
X100960931Y-40735342D01*
X100980390Y-40600000D01*
X100960931Y-40464658D01*
X100933415Y-40404406D01*
X100904132Y-40340285D01*
X100904127Y-40340278D01*
X100814590Y-40236946D01*
X100814586Y-40236942D01*
X100702113Y-40164662D01*
X100699561Y-40163022D01*
X100699560Y-40163021D01*
X100699559Y-40163021D01*
X100568368Y-40124500D01*
X100568367Y-40124500D01*
X100431633Y-40124500D01*
X100431632Y-40124500D01*
X100300440Y-40163021D01*
X100185413Y-40236942D01*
X100185409Y-40236946D01*
X100095872Y-40340278D01*
X100095867Y-40340285D01*
X100039070Y-40464654D01*
X100039068Y-40464662D01*
X100019610Y-40600000D01*
X96420303Y-40600000D01*
X96435165Y-40567457D01*
X96455647Y-40425000D01*
X96435165Y-40282543D01*
X96375377Y-40151627D01*
X96281128Y-40042857D01*
X96160053Y-39965047D01*
X96160051Y-39965046D01*
X96160049Y-39965045D01*
X96160050Y-39965045D01*
X96021963Y-39924500D01*
X96021961Y-39924500D01*
X95878039Y-39924500D01*
X95878036Y-39924500D01*
X95739949Y-39965045D01*
X95618873Y-40042856D01*
X95524623Y-40151626D01*
X95524622Y-40151628D01*
X95464834Y-40282543D01*
X95444353Y-40425000D01*
X78712418Y-40425000D01*
X78730390Y-40300000D01*
X78710931Y-40164658D01*
X78692591Y-40124500D01*
X78654132Y-40040285D01*
X78654127Y-40040278D01*
X78564590Y-39936946D01*
X78564586Y-39936942D01*
X78449559Y-39863021D01*
X78318368Y-39824500D01*
X78318367Y-39824500D01*
X78181633Y-39824500D01*
X78181632Y-39824500D01*
X78050440Y-39863021D01*
X77935413Y-39936942D01*
X77935409Y-39936946D01*
X77845872Y-40040278D01*
X77845867Y-40040285D01*
X77789070Y-40164654D01*
X77789068Y-40164662D01*
X77769610Y-40300000D01*
X77782034Y-40386413D01*
X77772090Y-40455572D01*
X77726335Y-40508376D01*
X77659295Y-40528060D01*
X77624360Y-40523037D01*
X77565443Y-40505737D01*
X77506666Y-40467962D01*
X77477641Y-40404406D01*
X77477641Y-40369112D01*
X77480390Y-40350000D01*
X77460931Y-40214658D01*
X77448677Y-40187827D01*
X77404132Y-40090285D01*
X77404127Y-40090278D01*
X77314590Y-39986946D01*
X77314586Y-39986942D01*
X77199559Y-39913021D01*
X77068368Y-39874500D01*
X77068367Y-39874500D01*
X76931633Y-39874500D01*
X76931632Y-39874500D01*
X76800440Y-39913021D01*
X76685413Y-39986942D01*
X76685409Y-39986946D01*
X76595872Y-40090278D01*
X76595867Y-40090285D01*
X76539070Y-40214654D01*
X76539068Y-40214662D01*
X76519610Y-40350000D01*
X76539069Y-40485343D01*
X76539714Y-40487540D01*
X76539713Y-40489828D01*
X76540331Y-40494120D01*
X76539713Y-40494208D01*
X76539712Y-40557410D01*
X76510298Y-40603197D01*
X76512650Y-40605235D01*
X76417301Y-40715275D01*
X76417298Y-40715278D01*
X76360501Y-40839647D01*
X76360499Y-40839655D01*
X76341041Y-40974993D01*
X72523119Y-40974993D01*
X72594668Y-40749483D01*
X72596112Y-40745212D01*
X72953154Y-39748548D01*
X72954769Y-39744286D01*
X73052554Y-39500000D01*
X111619610Y-39500000D01*
X111639068Y-39635337D01*
X111639070Y-39635345D01*
X111695867Y-39759714D01*
X111695872Y-39759721D01*
X111785409Y-39863053D01*
X111785413Y-39863057D01*
X111845979Y-39901979D01*
X111900439Y-39936978D01*
X111966036Y-39956239D01*
X112031632Y-39975500D01*
X112031633Y-39975500D01*
X112168367Y-39975500D01*
X112299561Y-39936978D01*
X112414589Y-39863055D01*
X112504130Y-39759718D01*
X112560931Y-39635342D01*
X112580390Y-39500000D01*
X112560931Y-39364658D01*
X112559669Y-39355880D01*
X112561727Y-39355584D01*
X112561719Y-39297508D01*
X112599485Y-39238725D01*
X112663036Y-39209691D01*
X112732196Y-39219624D01*
X112747731Y-39228105D01*
X112800439Y-39261978D01*
X112800441Y-39261978D01*
X112800442Y-39261979D01*
X112931632Y-39300500D01*
X112931633Y-39300500D01*
X113068367Y-39300500D01*
X113199561Y-39261978D01*
X113314589Y-39188055D01*
X113404130Y-39084718D01*
X113460931Y-38960342D01*
X113480390Y-38825000D01*
X113460931Y-38689658D01*
X113436123Y-38635337D01*
X113406471Y-38570406D01*
X116294610Y-38570406D01*
X116314068Y-38705743D01*
X116314070Y-38705751D01*
X116370867Y-38830120D01*
X116370872Y-38830127D01*
X116460409Y-38933459D01*
X116460413Y-38933463D01*
X116501262Y-38959714D01*
X116575439Y-39007384D01*
X116610865Y-39017786D01*
X116706632Y-39045906D01*
X116706633Y-39045906D01*
X116843367Y-39045906D01*
X116974561Y-39007384D01*
X117089589Y-38933461D01*
X117179130Y-38830124D01*
X117235931Y-38705748D01*
X117255390Y-38570406D01*
X117235931Y-38435064D01*
X117209243Y-38376626D01*
X117179132Y-38310691D01*
X117179127Y-38310683D01*
X117153259Y-38280830D01*
X117124234Y-38217274D01*
X117134178Y-38148116D01*
X117153258Y-38118428D01*
X117201239Y-38063055D01*
X117204127Y-38059722D01*
X117204128Y-38059720D01*
X117204130Y-38059718D01*
X117254237Y-37950000D01*
X117844353Y-37950000D01*
X117864834Y-38092456D01*
X117924127Y-38222287D01*
X117924623Y-38223373D01*
X118018872Y-38332143D01*
X118139947Y-38409953D01*
X118139950Y-38409954D01*
X118139949Y-38409954D01*
X118278036Y-38450499D01*
X118278038Y-38450500D01*
X118278039Y-38450500D01*
X118421962Y-38450500D01*
X118421962Y-38450499D01*
X118560053Y-38409953D01*
X118681128Y-38332143D01*
X118775377Y-38223373D01*
X118835165Y-38092457D01*
X118855647Y-37950000D01*
X118835165Y-37807543D01*
X118775377Y-37676627D01*
X118681128Y-37567857D01*
X118560053Y-37490047D01*
X118560051Y-37490046D01*
X118560049Y-37490045D01*
X118560050Y-37490045D01*
X118421963Y-37449500D01*
X118421961Y-37449500D01*
X118278039Y-37449500D01*
X118278036Y-37449500D01*
X118139949Y-37490045D01*
X118018873Y-37567856D01*
X117924623Y-37676626D01*
X117924622Y-37676628D01*
X117864834Y-37807543D01*
X117844353Y-37950000D01*
X117254237Y-37950000D01*
X117260931Y-37935342D01*
X117280390Y-37800000D01*
X117260931Y-37664658D01*
X117246076Y-37632131D01*
X117204132Y-37540285D01*
X117204127Y-37540278D01*
X117114590Y-37436946D01*
X117114586Y-37436942D01*
X116999559Y-37363021D01*
X116868368Y-37324500D01*
X116868367Y-37324500D01*
X116731633Y-37324500D01*
X116731632Y-37324500D01*
X116600440Y-37363021D01*
X116485413Y-37436942D01*
X116485409Y-37436946D01*
X116395872Y-37540278D01*
X116395867Y-37540285D01*
X116339070Y-37664654D01*
X116339068Y-37664662D01*
X116319610Y-37800000D01*
X116339068Y-37935337D01*
X116339070Y-37935345D01*
X116395867Y-38059714D01*
X116395869Y-38059716D01*
X116395870Y-38059718D01*
X116421740Y-38089574D01*
X116450765Y-38153128D01*
X116440822Y-38222287D01*
X116421741Y-38251977D01*
X116370872Y-38310683D01*
X116370867Y-38310691D01*
X116314070Y-38435060D01*
X116314068Y-38435068D01*
X116294610Y-38570406D01*
X113406471Y-38570406D01*
X113404132Y-38565285D01*
X113404130Y-38565283D01*
X113404130Y-38565282D01*
X113342104Y-38493700D01*
X113313081Y-38430147D01*
X113323025Y-38360989D01*
X113342102Y-38331302D01*
X113404130Y-38259718D01*
X113460931Y-38135342D01*
X113480390Y-38000000D01*
X113460931Y-37864658D01*
X113447540Y-37835337D01*
X113404132Y-37740285D01*
X113404127Y-37740278D01*
X113314590Y-37636946D01*
X113314586Y-37636942D01*
X113218977Y-37575500D01*
X113199561Y-37563022D01*
X113199560Y-37563021D01*
X113199559Y-37563021D01*
X113068368Y-37524500D01*
X113068367Y-37524500D01*
X112931633Y-37524500D01*
X112931632Y-37524500D01*
X112800440Y-37563021D01*
X112685413Y-37636942D01*
X112685409Y-37636946D01*
X112595872Y-37740278D01*
X112595867Y-37740285D01*
X112539070Y-37864654D01*
X112539068Y-37864662D01*
X112519610Y-38000000D01*
X112539068Y-38135337D01*
X112539070Y-38135345D01*
X112595867Y-38259714D01*
X112595870Y-38259718D01*
X112657893Y-38331298D01*
X112686917Y-38394855D01*
X112676973Y-38464013D01*
X112657893Y-38493702D01*
X112595870Y-38565281D01*
X112595867Y-38565285D01*
X112539070Y-38689654D01*
X112539068Y-38689662D01*
X112519610Y-38825000D01*
X112540331Y-38969120D01*
X112538274Y-38969415D01*
X112538276Y-39027504D01*
X112500504Y-39086283D01*
X112436949Y-39115310D01*
X112367790Y-39105369D01*
X112352260Y-39096889D01*
X112299559Y-39063021D01*
X112168368Y-39024500D01*
X112168367Y-39024500D01*
X112031633Y-39024500D01*
X112031632Y-39024500D01*
X111900440Y-39063021D01*
X111785413Y-39136942D01*
X111785409Y-39136946D01*
X111695872Y-39240278D01*
X111695867Y-39240285D01*
X111639070Y-39364654D01*
X111639068Y-39364662D01*
X111619610Y-39500000D01*
X73052554Y-39500000D01*
X73348220Y-38761366D01*
X73349945Y-38757278D01*
X73464072Y-38500000D01*
X82119610Y-38500000D01*
X82139068Y-38635337D01*
X82139070Y-38635345D01*
X82195867Y-38759714D01*
X82195872Y-38759721D01*
X82285409Y-38863053D01*
X82285413Y-38863057D01*
X82345979Y-38901979D01*
X82400439Y-38936978D01*
X82466036Y-38956239D01*
X82531632Y-38975500D01*
X82531633Y-38975500D01*
X82668367Y-38975500D01*
X82799561Y-38936978D01*
X82914589Y-38863055D01*
X83004130Y-38759718D01*
X83054237Y-38650000D01*
X88394353Y-38650000D01*
X88414834Y-38792456D01*
X88457256Y-38885345D01*
X88474623Y-38923373D01*
X88568872Y-39032143D01*
X88689947Y-39109953D01*
X88689950Y-39109954D01*
X88689949Y-39109954D01*
X88828036Y-39150499D01*
X88828038Y-39150500D01*
X88828039Y-39150500D01*
X88971962Y-39150500D01*
X88971962Y-39150499D01*
X89110053Y-39109953D01*
X89231128Y-39032143D01*
X89325377Y-38923373D01*
X89385165Y-38792457D01*
X89398458Y-38700000D01*
X96919610Y-38700000D01*
X96939068Y-38835337D01*
X96939070Y-38835345D01*
X96995867Y-38959714D01*
X96995872Y-38959721D01*
X97085409Y-39063053D01*
X97085413Y-39063057D01*
X97119124Y-39084721D01*
X97200439Y-39136978D01*
X97246491Y-39150500D01*
X97331632Y-39175500D01*
X97331633Y-39175500D01*
X97468367Y-39175500D01*
X97599561Y-39136978D01*
X97714589Y-39063055D01*
X97804130Y-38959718D01*
X97860931Y-38835342D01*
X97880390Y-38700000D01*
X97860931Y-38564658D01*
X97834847Y-38507543D01*
X97804132Y-38440285D01*
X97804127Y-38440278D01*
X97714590Y-38336946D01*
X97714586Y-38336942D01*
X97618977Y-38275500D01*
X97599561Y-38263022D01*
X97599560Y-38263021D01*
X97599559Y-38263021D01*
X97468368Y-38224500D01*
X97468367Y-38224500D01*
X97331633Y-38224500D01*
X97331632Y-38224500D01*
X97200440Y-38263021D01*
X97085413Y-38336942D01*
X97085409Y-38336946D01*
X96995872Y-38440278D01*
X96995867Y-38440285D01*
X96939070Y-38564654D01*
X96939068Y-38564662D01*
X96919610Y-38700000D01*
X89398458Y-38700000D01*
X89405647Y-38650000D01*
X89385165Y-38507543D01*
X89325377Y-38376627D01*
X89231128Y-38267857D01*
X89110053Y-38190047D01*
X89110051Y-38190046D01*
X89110049Y-38190045D01*
X89110050Y-38190045D01*
X88971963Y-38149500D01*
X88971961Y-38149500D01*
X88828039Y-38149500D01*
X88828036Y-38149500D01*
X88689949Y-38190045D01*
X88568873Y-38267856D01*
X88474623Y-38376626D01*
X88474622Y-38376628D01*
X88414834Y-38507543D01*
X88394353Y-38650000D01*
X83054237Y-38650000D01*
X83060931Y-38635342D01*
X83080390Y-38500000D01*
X83060931Y-38364658D01*
X83028047Y-38292652D01*
X83004132Y-38240285D01*
X83004127Y-38240278D01*
X82914590Y-38136946D01*
X82914586Y-38136942D01*
X82821928Y-38077396D01*
X82799561Y-38063022D01*
X82799560Y-38063021D01*
X82799559Y-38063021D01*
X82668368Y-38024500D01*
X82668367Y-38024500D01*
X82531633Y-38024500D01*
X82531632Y-38024500D01*
X82400440Y-38063021D01*
X82285413Y-38136942D01*
X82285409Y-38136946D01*
X82195872Y-38240278D01*
X82195867Y-38240285D01*
X82139070Y-38364654D01*
X82139068Y-38364662D01*
X82119610Y-38500000D01*
X73464072Y-38500000D01*
X73774589Y-37800000D01*
X75919610Y-37800000D01*
X75939068Y-37935337D01*
X75939070Y-37935345D01*
X75995867Y-38059714D01*
X75995872Y-38059721D01*
X76085409Y-38163053D01*
X76085413Y-38163057D01*
X76127412Y-38190047D01*
X76200439Y-38236978D01*
X76211702Y-38240285D01*
X76331632Y-38275500D01*
X76331633Y-38275500D01*
X76468367Y-38275500D01*
X76599561Y-38236978D01*
X76714589Y-38163055D01*
X76788813Y-38077394D01*
X76847589Y-38039621D01*
X76917459Y-38039621D01*
X76949558Y-38054279D01*
X77000439Y-38086978D01*
X77000441Y-38086978D01*
X77000442Y-38086979D01*
X77131632Y-38125500D01*
X77131633Y-38125500D01*
X77268367Y-38125500D01*
X77399561Y-38086978D01*
X77514589Y-38013055D01*
X77604130Y-37909718D01*
X77604134Y-37909708D01*
X77604810Y-37908659D01*
X77605766Y-37907829D01*
X77609938Y-37903016D01*
X77610630Y-37903615D01*
X77657613Y-37862902D01*
X77726771Y-37852957D01*
X77776166Y-37871379D01*
X77800439Y-37886978D01*
X77866036Y-37906239D01*
X77931632Y-37925500D01*
X77931633Y-37925500D01*
X78068367Y-37925500D01*
X78199561Y-37886978D01*
X78314589Y-37813055D01*
X78404130Y-37709718D01*
X78408568Y-37700000D01*
X98519610Y-37700000D01*
X98539068Y-37835337D01*
X98539070Y-37835345D01*
X98595867Y-37959714D01*
X98595872Y-37959721D01*
X98685409Y-38063053D01*
X98685413Y-38063057D01*
X98722636Y-38086978D01*
X98800439Y-38136978D01*
X98838372Y-38148116D01*
X98931632Y-38175500D01*
X98931633Y-38175500D01*
X99068367Y-38175500D01*
X99199561Y-38136978D01*
X99282963Y-38083379D01*
X99350001Y-38063696D01*
X99417036Y-38083379D01*
X99500439Y-38136978D01*
X99500441Y-38136978D01*
X99500442Y-38136979D01*
X99631632Y-38175500D01*
X99631633Y-38175500D01*
X99768367Y-38175500D01*
X99899561Y-38136978D01*
X99982963Y-38083379D01*
X100050001Y-38063696D01*
X100117036Y-38083379D01*
X100200439Y-38136978D01*
X100200441Y-38136978D01*
X100200442Y-38136979D01*
X100331632Y-38175500D01*
X100331633Y-38175500D01*
X100468367Y-38175500D01*
X100599561Y-38136978D01*
X100682963Y-38083379D01*
X100750001Y-38063696D01*
X100817036Y-38083379D01*
X100900439Y-38136978D01*
X100900441Y-38136978D01*
X100900442Y-38136979D01*
X101031632Y-38175500D01*
X101031633Y-38175500D01*
X101168367Y-38175500D01*
X101299561Y-38136978D01*
X101414589Y-38063055D01*
X101504130Y-37959718D01*
X101560931Y-37835342D01*
X101580390Y-37700000D01*
X101560931Y-37564658D01*
X101526856Y-37490045D01*
X101504132Y-37440285D01*
X101504127Y-37440278D01*
X101414590Y-37336946D01*
X101414586Y-37336942D01*
X101299559Y-37263021D01*
X101168368Y-37224500D01*
X101168367Y-37224500D01*
X101031633Y-37224500D01*
X101031632Y-37224500D01*
X100900440Y-37263021D01*
X100817038Y-37316619D01*
X100749998Y-37336303D01*
X100682962Y-37316619D01*
X100599559Y-37263021D01*
X100468368Y-37224500D01*
X100468367Y-37224500D01*
X100331633Y-37224500D01*
X100331632Y-37224500D01*
X100200440Y-37263021D01*
X100117038Y-37316619D01*
X100049998Y-37336303D01*
X99982962Y-37316619D01*
X99899559Y-37263021D01*
X99768368Y-37224500D01*
X99768367Y-37224500D01*
X99631633Y-37224500D01*
X99631632Y-37224500D01*
X99500440Y-37263021D01*
X99417038Y-37316619D01*
X99349998Y-37336303D01*
X99282962Y-37316619D01*
X99199559Y-37263021D01*
X99068368Y-37224500D01*
X99068367Y-37224500D01*
X98931633Y-37224500D01*
X98931632Y-37224500D01*
X98800440Y-37263021D01*
X98685413Y-37336942D01*
X98685409Y-37336946D01*
X98595872Y-37440278D01*
X98595867Y-37440285D01*
X98539070Y-37564654D01*
X98539068Y-37564662D01*
X98519610Y-37700000D01*
X78408568Y-37700000D01*
X78460931Y-37585342D01*
X78480390Y-37450000D01*
X78460931Y-37314658D01*
X78441216Y-37271489D01*
X78404132Y-37190285D01*
X78404127Y-37190278D01*
X78314590Y-37086946D01*
X78314586Y-37086942D01*
X78216695Y-37024033D01*
X78199561Y-37013022D01*
X78199560Y-37013021D01*
X78199559Y-37013021D01*
X78068368Y-36974500D01*
X78068367Y-36974500D01*
X78045116Y-36974500D01*
X77978077Y-36954815D01*
X77932322Y-36902013D01*
X77905123Y-36842457D01*
X77904130Y-36840282D01*
X77899852Y-36835345D01*
X77814590Y-36736946D01*
X77814586Y-36736942D01*
X77702113Y-36664662D01*
X77699561Y-36663022D01*
X77699560Y-36663021D01*
X77699559Y-36663021D01*
X77568368Y-36624500D01*
X77568367Y-36624500D01*
X77545116Y-36624500D01*
X77478077Y-36604815D01*
X77432322Y-36552013D01*
X77404131Y-36490285D01*
X77404130Y-36490282D01*
X77399986Y-36485500D01*
X77314590Y-36386946D01*
X77314586Y-36386942D01*
X77213533Y-36322001D01*
X77199561Y-36313022D01*
X77199560Y-36313021D01*
X77199559Y-36313021D01*
X77068368Y-36274500D01*
X77068367Y-36274500D01*
X76931633Y-36274500D01*
X76931632Y-36274500D01*
X76800440Y-36313021D01*
X76685413Y-36386942D01*
X76685409Y-36386946D01*
X76595872Y-36490278D01*
X76595867Y-36490285D01*
X76539070Y-36614654D01*
X76539068Y-36614662D01*
X76519610Y-36750000D01*
X76521523Y-36763309D01*
X76511576Y-36832467D01*
X76465824Y-36885266D01*
X76385413Y-36936943D01*
X76385409Y-36936946D01*
X76295872Y-37040278D01*
X76295867Y-37040285D01*
X76239070Y-37164654D01*
X76239068Y-37164662D01*
X76219637Y-37299810D01*
X76190612Y-37363366D01*
X76163938Y-37386479D01*
X76085411Y-37436944D01*
X76085409Y-37436946D01*
X75995872Y-37540278D01*
X75995867Y-37540285D01*
X75939070Y-37664654D01*
X75939068Y-37664662D01*
X75919610Y-37800000D01*
X73774589Y-37800000D01*
X73779265Y-37789458D01*
X73781138Y-37785437D01*
X74245750Y-36834027D01*
X74247787Y-36830043D01*
X74747029Y-35896394D01*
X74749229Y-35892457D01*
X75219946Y-35085000D01*
X88394353Y-35085000D01*
X88414834Y-35227456D01*
X88443243Y-35289662D01*
X88474623Y-35358373D01*
X88524063Y-35415430D01*
X88557308Y-35453798D01*
X88586332Y-35517354D01*
X88576388Y-35586512D01*
X88557308Y-35616202D01*
X88474623Y-35711627D01*
X88474622Y-35711628D01*
X88414834Y-35842543D01*
X88394353Y-35985000D01*
X88414834Y-36127456D01*
X88464105Y-36235342D01*
X88474623Y-36258373D01*
X88568872Y-36367143D01*
X88689947Y-36444953D01*
X88689950Y-36444954D01*
X88689949Y-36444954D01*
X88828036Y-36485499D01*
X88828038Y-36485500D01*
X88828039Y-36485500D01*
X88971962Y-36485500D01*
X88971962Y-36485499D01*
X89110053Y-36444953D01*
X89231128Y-36367143D01*
X89273352Y-36318413D01*
X99938023Y-36318413D01*
X99957481Y-36453750D01*
X99957483Y-36453758D01*
X100014280Y-36578127D01*
X100014285Y-36578134D01*
X100103822Y-36681466D01*
X100103826Y-36681470D01*
X100164392Y-36720392D01*
X100218852Y-36755391D01*
X100284449Y-36774652D01*
X100350045Y-36793913D01*
X100350046Y-36793913D01*
X100486780Y-36793913D01*
X100617974Y-36755391D01*
X100733002Y-36681468D01*
X100822543Y-36578131D01*
X100879344Y-36453755D01*
X100898803Y-36318413D01*
X100879344Y-36183071D01*
X100853945Y-36127456D01*
X100841407Y-36100000D01*
X101819610Y-36100000D01*
X101839068Y-36235337D01*
X101839068Y-36235339D01*
X101839068Y-36235340D01*
X101839069Y-36235342D01*
X101881555Y-36328372D01*
X101890742Y-36348489D01*
X101900685Y-36417648D01*
X101890742Y-36451510D01*
X101873036Y-36490281D01*
X101839068Y-36564660D01*
X101839068Y-36564662D01*
X101819610Y-36700000D01*
X101839068Y-36835337D01*
X101839070Y-36835345D01*
X101895867Y-36959714D01*
X101895872Y-36959721D01*
X101985409Y-37063053D01*
X101985413Y-37063057D01*
X102023120Y-37087289D01*
X102100439Y-37136978D01*
X102166036Y-37156239D01*
X102231632Y-37175500D01*
X102231633Y-37175500D01*
X102368367Y-37175500D01*
X102499561Y-37136978D01*
X102509838Y-37130372D01*
X102576874Y-37110687D01*
X102643912Y-37130368D01*
X102689947Y-37159953D01*
X102689948Y-37159953D01*
X102689951Y-37159955D01*
X102828036Y-37200499D01*
X102828038Y-37200500D01*
X102828039Y-37200500D01*
X102971962Y-37200500D01*
X102971962Y-37200499D01*
X103079121Y-37169035D01*
X103110050Y-37159954D01*
X103110050Y-37159953D01*
X103110053Y-37159953D01*
X103231128Y-37082143D01*
X103325377Y-36973373D01*
X103385165Y-36842457D01*
X103405647Y-36700000D01*
X103385165Y-36557543D01*
X103339136Y-36456754D01*
X103323000Y-36421422D01*
X103313056Y-36352263D01*
X103323000Y-36318398D01*
X103333146Y-36296182D01*
X103360931Y-36235342D01*
X103380390Y-36100000D01*
X103360931Y-35964658D01*
X103336595Y-35911370D01*
X103304132Y-35840285D01*
X103304127Y-35840278D01*
X103214590Y-35736946D01*
X103214586Y-35736942D01*
X103099559Y-35663021D01*
X102968368Y-35624500D01*
X102968367Y-35624500D01*
X102831633Y-35624500D01*
X102831632Y-35624500D01*
X102700441Y-35663020D01*
X102700434Y-35663024D01*
X102667038Y-35684486D01*
X102599998Y-35704170D01*
X102532962Y-35684486D01*
X102499565Y-35663024D01*
X102499558Y-35663020D01*
X102368368Y-35624500D01*
X102368367Y-35624500D01*
X102231633Y-35624500D01*
X102231632Y-35624500D01*
X102100440Y-35663021D01*
X101985413Y-35736942D01*
X101985409Y-35736946D01*
X101895872Y-35840278D01*
X101895867Y-35840285D01*
X101839070Y-35964654D01*
X101839068Y-35964662D01*
X101819610Y-36100000D01*
X100841407Y-36100000D01*
X100822545Y-36058698D01*
X100822540Y-36058691D01*
X100733003Y-35955359D01*
X100732999Y-35955355D01*
X100617972Y-35881434D01*
X100486781Y-35842913D01*
X100486780Y-35842913D01*
X100350046Y-35842913D01*
X100350045Y-35842913D01*
X100218853Y-35881434D01*
X100103826Y-35955355D01*
X100103822Y-35955359D01*
X100014285Y-36058691D01*
X100014280Y-36058698D01*
X99957483Y-36183067D01*
X99957481Y-36183075D01*
X99938023Y-36318413D01*
X89273352Y-36318413D01*
X89325377Y-36258373D01*
X89385165Y-36127457D01*
X89405647Y-35985000D01*
X89385165Y-35842543D01*
X89325377Y-35711627D01*
X89242689Y-35616199D01*
X89213666Y-35552647D01*
X89223610Y-35483489D01*
X89242687Y-35453802D01*
X89289307Y-35400000D01*
X108419610Y-35400000D01*
X108439068Y-35535337D01*
X108439070Y-35535345D01*
X108495867Y-35659714D01*
X108495872Y-35659721D01*
X108585409Y-35763053D01*
X108585413Y-35763057D01*
X108624309Y-35788053D01*
X108700439Y-35836978D01*
X108711702Y-35840285D01*
X108831632Y-35875500D01*
X108831633Y-35875500D01*
X108968367Y-35875500D01*
X108974841Y-35873598D01*
X109044711Y-35873597D01*
X109103490Y-35911370D01*
X109132516Y-35974925D01*
X109132517Y-36010221D01*
X109119610Y-36099998D01*
X109119610Y-36099999D01*
X109139068Y-36235337D01*
X109139070Y-36235345D01*
X109195867Y-36359714D01*
X109195872Y-36359721D01*
X109279951Y-36456754D01*
X109308976Y-36520309D01*
X109299032Y-36589468D01*
X109253277Y-36642272D01*
X109221175Y-36656933D01*
X109200439Y-36663021D01*
X109085413Y-36736942D01*
X109085409Y-36736946D01*
X108995872Y-36840278D01*
X108995867Y-36840285D01*
X108939070Y-36964654D01*
X108939068Y-36964662D01*
X108919610Y-37100000D01*
X108939068Y-37235337D01*
X108939070Y-37235345D01*
X108995867Y-37359714D01*
X108995872Y-37359721D01*
X109085409Y-37463053D01*
X109085413Y-37463057D01*
X109127412Y-37490047D01*
X109200439Y-37536978D01*
X109211702Y-37540285D01*
X109331632Y-37575500D01*
X109331633Y-37575500D01*
X109468367Y-37575500D01*
X109599561Y-37536978D01*
X109714589Y-37463055D01*
X109804130Y-37359718D01*
X109820308Y-37324292D01*
X109866061Y-37271489D01*
X109933101Y-37251804D01*
X109968036Y-37256827D01*
X110031630Y-37275499D01*
X110031632Y-37275500D01*
X110031633Y-37275500D01*
X110168367Y-37275500D01*
X110299561Y-37236978D01*
X110414589Y-37163055D01*
X110504130Y-37059718D01*
X110560931Y-36935342D01*
X110580390Y-36800000D01*
X110560931Y-36664658D01*
X110542591Y-36624500D01*
X110504132Y-36540285D01*
X110504127Y-36540278D01*
X110414590Y-36436946D01*
X110414586Y-36436942D01*
X110299559Y-36363021D01*
X110159857Y-36322001D01*
X110160614Y-36319420D01*
X110109729Y-36296182D01*
X110071955Y-36237403D01*
X110068194Y-36184824D01*
X110080390Y-36100000D01*
X110070710Y-36032674D01*
X110080654Y-35963518D01*
X110126408Y-35910714D01*
X110158511Y-35896053D01*
X110274558Y-35861979D01*
X110274559Y-35861979D01*
X110389586Y-35788057D01*
X110389586Y-35788056D01*
X110389589Y-35788055D01*
X110479130Y-35684718D01*
X110535931Y-35560342D01*
X110555390Y-35425000D01*
X110535931Y-35289658D01*
X110507524Y-35227456D01*
X110479132Y-35165285D01*
X110479127Y-35165278D01*
X110389590Y-35061946D01*
X110389586Y-35061942D01*
X110274559Y-34988021D01*
X110143368Y-34949500D01*
X110143367Y-34949500D01*
X110006633Y-34949500D01*
X110006632Y-34949500D01*
X109875440Y-34988021D01*
X109760413Y-35061942D01*
X109760409Y-35061946D01*
X109670872Y-35165278D01*
X109670867Y-35165285D01*
X109614070Y-35289654D01*
X109614068Y-35289662D01*
X109612035Y-35303804D01*
X109583009Y-35367359D01*
X109524231Y-35405133D01*
X109454361Y-35405133D01*
X109395583Y-35367358D01*
X109366559Y-35303802D01*
X109364525Y-35289654D01*
X109360931Y-35264658D01*
X109315549Y-35165285D01*
X109304132Y-35140285D01*
X109304127Y-35140278D01*
X109214590Y-35036946D01*
X109214586Y-35036942D01*
X109099559Y-34963021D01*
X108968368Y-34924500D01*
X108968367Y-34924500D01*
X108831633Y-34924500D01*
X108831632Y-34924500D01*
X108700440Y-34963021D01*
X108585413Y-35036942D01*
X108585409Y-35036946D01*
X108495872Y-35140278D01*
X108495867Y-35140285D01*
X108439070Y-35264654D01*
X108439068Y-35264662D01*
X108419610Y-35400000D01*
X89289307Y-35400000D01*
X89325377Y-35358373D01*
X89385165Y-35227457D01*
X89405647Y-35085000D01*
X89385165Y-34942543D01*
X89325377Y-34811627D01*
X89231128Y-34702857D01*
X89110053Y-34625047D01*
X89110051Y-34625046D01*
X89110049Y-34625045D01*
X89110050Y-34625045D01*
X88971963Y-34584500D01*
X88971961Y-34584500D01*
X88828039Y-34584500D01*
X88828036Y-34584500D01*
X88689949Y-34625045D01*
X88568873Y-34702856D01*
X88474623Y-34811626D01*
X88474622Y-34811628D01*
X88414834Y-34942543D01*
X88394353Y-35085000D01*
X75219946Y-35085000D01*
X75282422Y-34977830D01*
X75284785Y-34973945D01*
X75851226Y-34079546D01*
X75853722Y-34075759D01*
X76452675Y-33202748D01*
X76455294Y-33199077D01*
X76973705Y-32500000D01*
X93519610Y-32500000D01*
X93539068Y-32635337D01*
X93539070Y-32635345D01*
X93595867Y-32759712D01*
X93595871Y-32759719D01*
X93603740Y-32768801D01*
X93632763Y-32832358D01*
X93622816Y-32901516D01*
X93603740Y-32931199D01*
X93595871Y-32940280D01*
X93595867Y-32940287D01*
X93539070Y-33064654D01*
X93539068Y-33064662D01*
X93519610Y-33200000D01*
X93539068Y-33335337D01*
X93539070Y-33335345D01*
X93595867Y-33459712D01*
X93595871Y-33459719D01*
X93603740Y-33468801D01*
X93632763Y-33532358D01*
X93622816Y-33601516D01*
X93603740Y-33631199D01*
X93595871Y-33640280D01*
X93595867Y-33640287D01*
X93539070Y-33764654D01*
X93539068Y-33764662D01*
X93519610Y-33900000D01*
X93539068Y-34035337D01*
X93539070Y-34035345D01*
X93595867Y-34159714D01*
X93595872Y-34159721D01*
X93685409Y-34263053D01*
X93685413Y-34263057D01*
X93745979Y-34301979D01*
X93800439Y-34336978D01*
X93866036Y-34356239D01*
X93931632Y-34375500D01*
X93931633Y-34375500D01*
X94068367Y-34375500D01*
X94199561Y-34336978D01*
X94282963Y-34283379D01*
X94350001Y-34263696D01*
X94417036Y-34283379D01*
X94500439Y-34336978D01*
X94500441Y-34336978D01*
X94500442Y-34336979D01*
X94631632Y-34375500D01*
X94631633Y-34375500D01*
X94768367Y-34375500D01*
X94899561Y-34336978D01*
X94982963Y-34283379D01*
X95050001Y-34263696D01*
X95117036Y-34283379D01*
X95200439Y-34336978D01*
X95200441Y-34336978D01*
X95200442Y-34336979D01*
X95331632Y-34375500D01*
X95331633Y-34375500D01*
X95468367Y-34375500D01*
X95470070Y-34375000D01*
X114719353Y-34375000D01*
X114739834Y-34517456D01*
X114770453Y-34584500D01*
X114799623Y-34648373D01*
X114893872Y-34757143D01*
X115014947Y-34834953D01*
X115014950Y-34834954D01*
X115014949Y-34834954D01*
X115153036Y-34875499D01*
X115153038Y-34875500D01*
X115153039Y-34875500D01*
X115296962Y-34875500D01*
X115296962Y-34875499D01*
X115435053Y-34834953D01*
X115556128Y-34757143D01*
X115650377Y-34648373D01*
X115710165Y-34517457D01*
X115730647Y-34375000D01*
X115715140Y-34267146D01*
X115725084Y-34197989D01*
X115770839Y-34145185D01*
X115837878Y-34125500D01*
X115846962Y-34125500D01*
X115846962Y-34125499D01*
X115985053Y-34084953D01*
X116106128Y-34007143D01*
X116200377Y-33898373D01*
X116260165Y-33767457D01*
X116280647Y-33625000D01*
X116260165Y-33482543D01*
X116200377Y-33351627D01*
X116106128Y-33242857D01*
X115985053Y-33165047D01*
X115985051Y-33165046D01*
X115985049Y-33165045D01*
X115985050Y-33165045D01*
X115846963Y-33124500D01*
X115846961Y-33124500D01*
X115703039Y-33124500D01*
X115703036Y-33124500D01*
X115564949Y-33165045D01*
X115443873Y-33242856D01*
X115349623Y-33351626D01*
X115349622Y-33351628D01*
X115289834Y-33482543D01*
X115272729Y-33601516D01*
X115269353Y-33625000D01*
X115280130Y-33699959D01*
X115284860Y-33732853D01*
X115274916Y-33802011D01*
X115229161Y-33854815D01*
X115162122Y-33874500D01*
X115153036Y-33874500D01*
X115014949Y-33915045D01*
X114893873Y-33992856D01*
X114799623Y-34101626D01*
X114799622Y-34101628D01*
X114739834Y-34232543D01*
X114719353Y-34375000D01*
X95470070Y-34375000D01*
X95599561Y-34336978D01*
X95714589Y-34263055D01*
X95804130Y-34159718D01*
X95860931Y-34035342D01*
X95880390Y-33900000D01*
X95860931Y-33764658D01*
X95815262Y-33664658D01*
X95808568Y-33650000D01*
X106424353Y-33650000D01*
X106444834Y-33792456D01*
X106504622Y-33923371D01*
X106504623Y-33923373D01*
X106598872Y-34032143D01*
X106719947Y-34109953D01*
X106719950Y-34109954D01*
X106719949Y-34109954D01*
X106858036Y-34150499D01*
X106858038Y-34150500D01*
X106858039Y-34150500D01*
X107001962Y-34150500D01*
X107001962Y-34150499D01*
X107140053Y-34109953D01*
X107261128Y-34032143D01*
X107355377Y-33923373D01*
X107411720Y-33800000D01*
X113219610Y-33800000D01*
X113239068Y-33935337D01*
X113239070Y-33935345D01*
X113295867Y-34059714D01*
X113295872Y-34059721D01*
X113385409Y-34163053D01*
X113385413Y-34163057D01*
X113439770Y-34197989D01*
X113500439Y-34236978D01*
X113566036Y-34256239D01*
X113631632Y-34275500D01*
X113631633Y-34275500D01*
X113768367Y-34275500D01*
X113899561Y-34236978D01*
X114014589Y-34163055D01*
X114104130Y-34059718D01*
X114160931Y-33935342D01*
X114180390Y-33800000D01*
X114160931Y-33664658D01*
X114121269Y-33577811D01*
X114104132Y-33540285D01*
X114104127Y-33540278D01*
X114014590Y-33436946D01*
X114014586Y-33436942D01*
X113920731Y-33376627D01*
X113899561Y-33363022D01*
X113899560Y-33363021D01*
X113899559Y-33363021D01*
X113768368Y-33324500D01*
X113768367Y-33324500D01*
X113631633Y-33324500D01*
X113631632Y-33324500D01*
X113500440Y-33363021D01*
X113385413Y-33436942D01*
X113385409Y-33436946D01*
X113295872Y-33540278D01*
X113295867Y-33540285D01*
X113239070Y-33664654D01*
X113239068Y-33664662D01*
X113219610Y-33800000D01*
X107411720Y-33800000D01*
X107415165Y-33792457D01*
X107435647Y-33650000D01*
X107415165Y-33507543D01*
X107355377Y-33376627D01*
X107261128Y-33267857D01*
X107140053Y-33190047D01*
X107140051Y-33190046D01*
X107140049Y-33190045D01*
X107140050Y-33190045D01*
X107001963Y-33149500D01*
X107001961Y-33149500D01*
X106858039Y-33149500D01*
X106858036Y-33149500D01*
X106719949Y-33190045D01*
X106598873Y-33267856D01*
X106504623Y-33376626D01*
X106504622Y-33376628D01*
X106444834Y-33507543D01*
X106424353Y-33650000D01*
X95808568Y-33650000D01*
X95804132Y-33640286D01*
X95804131Y-33640285D01*
X95804130Y-33640282D01*
X95796262Y-33631201D01*
X95767238Y-33567651D01*
X95777179Y-33498492D01*
X95796259Y-33468801D01*
X95804130Y-33459718D01*
X95860931Y-33335342D01*
X95880390Y-33200000D01*
X95860931Y-33064658D01*
X95804130Y-32940282D01*
X95796262Y-32931201D01*
X95767238Y-32867651D01*
X95777179Y-32798492D01*
X95796259Y-32768801D01*
X95804130Y-32759718D01*
X95860931Y-32635342D01*
X95880390Y-32500000D01*
X95860931Y-32364658D01*
X95848677Y-32337827D01*
X95804132Y-32240285D01*
X95804127Y-32240278D01*
X95714590Y-32136946D01*
X95714586Y-32136942D01*
X95599559Y-32063021D01*
X95468368Y-32024500D01*
X95468367Y-32024500D01*
X95331633Y-32024500D01*
X95331632Y-32024500D01*
X95200440Y-32063021D01*
X95117038Y-32116619D01*
X95049998Y-32136303D01*
X94982962Y-32116619D01*
X94899559Y-32063021D01*
X94768368Y-32024500D01*
X94768367Y-32024500D01*
X94631633Y-32024500D01*
X94631632Y-32024500D01*
X94500440Y-32063021D01*
X94417038Y-32116619D01*
X94349998Y-32136303D01*
X94282962Y-32116619D01*
X94199559Y-32063021D01*
X94068368Y-32024500D01*
X94068367Y-32024500D01*
X93931633Y-32024500D01*
X93931632Y-32024500D01*
X93800440Y-32063021D01*
X93685413Y-32136942D01*
X93685409Y-32136946D01*
X93595872Y-32240278D01*
X93595867Y-32240285D01*
X93539070Y-32364654D01*
X93539068Y-32364662D01*
X93519610Y-32500000D01*
X76973705Y-32500000D01*
X77085949Y-32348639D01*
X77088654Y-32345129D01*
X77750145Y-31518436D01*
X77753030Y-31514964D01*
X78218652Y-30975000D01*
X112644353Y-30975000D01*
X112664834Y-31117456D01*
X112724622Y-31248371D01*
X112724623Y-31248373D01*
X112818872Y-31357143D01*
X112939947Y-31434953D01*
X112939950Y-31434954D01*
X112939949Y-31434954D01*
X113078036Y-31475499D01*
X113078038Y-31475500D01*
X113078039Y-31475500D01*
X113221962Y-31475500D01*
X113221962Y-31475499D01*
X113360053Y-31434953D01*
X113481128Y-31357143D01*
X113481285Y-31356961D01*
X113481486Y-31356832D01*
X113487828Y-31351337D01*
X113488617Y-31352248D01*
X113540059Y-31319186D01*
X113609929Y-31319182D01*
X113661384Y-31352246D01*
X113662172Y-31351337D01*
X113668492Y-31356813D01*
X113668705Y-31356950D01*
X113668872Y-31357143D01*
X113668873Y-31357144D01*
X113694450Y-31373581D01*
X113789947Y-31434953D01*
X113789950Y-31434954D01*
X113789949Y-31434954D01*
X113928036Y-31475499D01*
X113928038Y-31475500D01*
X113928039Y-31475500D01*
X114071962Y-31475500D01*
X114071962Y-31475499D01*
X114210053Y-31434953D01*
X114331128Y-31357143D01*
X114425377Y-31248373D01*
X114485165Y-31117457D01*
X114505647Y-30975000D01*
X114485165Y-30832543D01*
X114425377Y-30701627D01*
X114331128Y-30592857D01*
X114210053Y-30515047D01*
X114210051Y-30515046D01*
X114210049Y-30515045D01*
X114210050Y-30515045D01*
X114071963Y-30474500D01*
X114071961Y-30474500D01*
X113928039Y-30474500D01*
X113928036Y-30474500D01*
X113789949Y-30515045D01*
X113668872Y-30592857D01*
X113668711Y-30593043D01*
X113668504Y-30593175D01*
X113662172Y-30598663D01*
X113661382Y-30597752D01*
X113609932Y-30630816D01*
X113540063Y-30630814D01*
X113488617Y-30597752D01*
X113487828Y-30598663D01*
X113481495Y-30593175D01*
X113481289Y-30593043D01*
X113481128Y-30592857D01*
X113360053Y-30515047D01*
X113360051Y-30515046D01*
X113360049Y-30515045D01*
X113360050Y-30515045D01*
X113221963Y-30474500D01*
X113221961Y-30474500D01*
X113078039Y-30474500D01*
X113078036Y-30474500D01*
X112939949Y-30515045D01*
X112818873Y-30592856D01*
X112818872Y-30592856D01*
X112818872Y-30592857D01*
X112813841Y-30598663D01*
X112724623Y-30701626D01*
X112724622Y-30701628D01*
X112664834Y-30832543D01*
X112644353Y-30975000D01*
X78218652Y-30975000D01*
X78444409Y-30713198D01*
X78447417Y-30709836D01*
X79167856Y-29933958D01*
X79170961Y-29930737D01*
X79919394Y-29181895D01*
X79922626Y-29178778D01*
X80698069Y-28457955D01*
X80701416Y-28454955D01*
X80938833Y-28250000D01*
X88269610Y-28250000D01*
X88289068Y-28385337D01*
X88289070Y-28385345D01*
X88345867Y-28509714D01*
X88345872Y-28509721D01*
X88435409Y-28613053D01*
X88435413Y-28613057D01*
X88495979Y-28651979D01*
X88550439Y-28686978D01*
X88596811Y-28700594D01*
X88681632Y-28725500D01*
X88681633Y-28725500D01*
X88818367Y-28725500D01*
X88949561Y-28686978D01*
X89064589Y-28613055D01*
X89137219Y-28529234D01*
X96534500Y-28529234D01*
X96534500Y-28680766D01*
X96539813Y-28700594D01*
X96573719Y-28827136D01*
X96611602Y-28892750D01*
X96649485Y-28958365D01*
X96756635Y-29065515D01*
X96887865Y-29141281D01*
X97034234Y-29180500D01*
X97034236Y-29180500D01*
X97185764Y-29180500D01*
X97185766Y-29180500D01*
X97332135Y-29141281D01*
X97463365Y-29065515D01*
X97570515Y-28958365D01*
X97646281Y-28827135D01*
X97685500Y-28680766D01*
X97685500Y-28529234D01*
X102314500Y-28529234D01*
X102314500Y-28680766D01*
X102319813Y-28700594D01*
X102353719Y-28827136D01*
X102391602Y-28892750D01*
X102429485Y-28958365D01*
X102536635Y-29065515D01*
X102667865Y-29141281D01*
X102814234Y-29180500D01*
X102814236Y-29180500D01*
X102965764Y-29180500D01*
X102965766Y-29180500D01*
X103112135Y-29141281D01*
X103243365Y-29065515D01*
X103350515Y-28958365D01*
X103426281Y-28827135D01*
X103465500Y-28680766D01*
X103465500Y-28529234D01*
X103426281Y-28382865D01*
X103350515Y-28251635D01*
X103243365Y-28144485D01*
X103177750Y-28106602D01*
X103112136Y-28068719D01*
X103038950Y-28049109D01*
X102965766Y-28029500D01*
X102814234Y-28029500D01*
X102667863Y-28068719D01*
X102536635Y-28144485D01*
X102536632Y-28144487D01*
X102429487Y-28251632D01*
X102429485Y-28251635D01*
X102353719Y-28382863D01*
X102333593Y-28457977D01*
X102314500Y-28529234D01*
X97685500Y-28529234D01*
X97646281Y-28382865D01*
X97570515Y-28251635D01*
X97463365Y-28144485D01*
X97397750Y-28106602D01*
X97332136Y-28068719D01*
X97258950Y-28049109D01*
X97185766Y-28029500D01*
X97034234Y-28029500D01*
X96887863Y-28068719D01*
X96756635Y-28144485D01*
X96756632Y-28144487D01*
X96649487Y-28251632D01*
X96649485Y-28251635D01*
X96573719Y-28382863D01*
X96553593Y-28457977D01*
X96534500Y-28529234D01*
X89137219Y-28529234D01*
X89154130Y-28509718D01*
X89210931Y-28385342D01*
X89227177Y-28272346D01*
X89256200Y-28208793D01*
X89314978Y-28171018D01*
X89384848Y-28171018D01*
X89416953Y-28185679D01*
X89507026Y-28243565D01*
X89572623Y-28262826D01*
X89638219Y-28282087D01*
X89638220Y-28282087D01*
X89774954Y-28282087D01*
X89906148Y-28243565D01*
X90021176Y-28169642D01*
X90110717Y-28066305D01*
X90167518Y-27941929D01*
X90186977Y-27806587D01*
X90186030Y-27800000D01*
X108169610Y-27800000D01*
X108189068Y-27935337D01*
X108189070Y-27935345D01*
X108245867Y-28059714D01*
X108245872Y-28059721D01*
X108335409Y-28163053D01*
X108335413Y-28163057D01*
X108370615Y-28185679D01*
X108450439Y-28236978D01*
X108494788Y-28250000D01*
X108581632Y-28275500D01*
X108581633Y-28275500D01*
X108718367Y-28275500D01*
X108849561Y-28236978D01*
X108964589Y-28163055D01*
X109054130Y-28059718D01*
X109110931Y-27935342D01*
X109130390Y-27800000D01*
X109110931Y-27664658D01*
X109057140Y-27546872D01*
X109054132Y-27540285D01*
X109054127Y-27540278D01*
X108964590Y-27436946D01*
X108964586Y-27436942D01*
X108873736Y-27378558D01*
X108849561Y-27363022D01*
X108849560Y-27363021D01*
X108849559Y-27363021D01*
X108718368Y-27324500D01*
X108718367Y-27324500D01*
X108581633Y-27324500D01*
X108581632Y-27324500D01*
X108450440Y-27363021D01*
X108335413Y-27436942D01*
X108335409Y-27436946D01*
X108245872Y-27540278D01*
X108245867Y-27540285D01*
X108189070Y-27664654D01*
X108189068Y-27664662D01*
X108169610Y-27800000D01*
X90186030Y-27800000D01*
X90167518Y-27671245D01*
X90128110Y-27584954D01*
X90110719Y-27546872D01*
X90110714Y-27546865D01*
X90021177Y-27443533D01*
X90021173Y-27443529D01*
X89906146Y-27369608D01*
X89774955Y-27331087D01*
X89774954Y-27331087D01*
X89638220Y-27331087D01*
X89638219Y-27331087D01*
X89507027Y-27369608D01*
X89392000Y-27443529D01*
X89391996Y-27443533D01*
X89302459Y-27546865D01*
X89302454Y-27546872D01*
X89245657Y-27671241D01*
X89245655Y-27671249D01*
X89229410Y-27784238D01*
X89200385Y-27847794D01*
X89141607Y-27885568D01*
X89071737Y-27885568D01*
X89039634Y-27870907D01*
X88949559Y-27813021D01*
X88818368Y-27774500D01*
X88818367Y-27774500D01*
X88681633Y-27774500D01*
X88681632Y-27774500D01*
X88550440Y-27813021D01*
X88435413Y-27886942D01*
X88435409Y-27886946D01*
X88345872Y-27990278D01*
X88345867Y-27990285D01*
X88289070Y-28114654D01*
X88289068Y-28114662D01*
X88269610Y-28250000D01*
X80938833Y-28250000D01*
X81502853Y-27763098D01*
X81506271Y-27760255D01*
X82299287Y-27125000D01*
X97764353Y-27125000D01*
X97784834Y-27267456D01*
X97831486Y-27369608D01*
X97844623Y-27398373D01*
X97938872Y-27507143D01*
X98059947Y-27584953D01*
X98059950Y-27584954D01*
X98059949Y-27584954D01*
X98198036Y-27625499D01*
X98198038Y-27625500D01*
X98198039Y-27625500D01*
X98341962Y-27625500D01*
X98341962Y-27625499D01*
X98480053Y-27584953D01*
X98601128Y-27507143D01*
X98695377Y-27398373D01*
X98755165Y-27267457D01*
X98775647Y-27125000D01*
X99514353Y-27125000D01*
X99534834Y-27267456D01*
X99581486Y-27369608D01*
X99594623Y-27398373D01*
X99688872Y-27507143D01*
X99809947Y-27584953D01*
X99809950Y-27584954D01*
X99809949Y-27584954D01*
X99948036Y-27625499D01*
X99948038Y-27625500D01*
X99948039Y-27625500D01*
X100091962Y-27625500D01*
X100091962Y-27625499D01*
X100230053Y-27584953D01*
X100351128Y-27507143D01*
X100445377Y-27398373D01*
X100505165Y-27267457D01*
X100525647Y-27125000D01*
X101264353Y-27125000D01*
X101284834Y-27267456D01*
X101331486Y-27369608D01*
X101344623Y-27398373D01*
X101438872Y-27507143D01*
X101559947Y-27584953D01*
X101559950Y-27584954D01*
X101559949Y-27584954D01*
X101698036Y-27625499D01*
X101698038Y-27625500D01*
X101698039Y-27625500D01*
X101841962Y-27625500D01*
X101841962Y-27625499D01*
X101980053Y-27584953D01*
X102101128Y-27507143D01*
X102195377Y-27398373D01*
X102255165Y-27267457D01*
X102275647Y-27125000D01*
X102255165Y-26982543D01*
X102195377Y-26851627D01*
X102101128Y-26742857D01*
X101980053Y-26665047D01*
X101980051Y-26665046D01*
X101980049Y-26665045D01*
X101980050Y-26665045D01*
X101841963Y-26624500D01*
X101841961Y-26624500D01*
X101698039Y-26624500D01*
X101698036Y-26624500D01*
X101559949Y-26665045D01*
X101438873Y-26742856D01*
X101344623Y-26851626D01*
X101344622Y-26851628D01*
X101284834Y-26982543D01*
X101264353Y-27125000D01*
X100525647Y-27125000D01*
X100505165Y-26982543D01*
X100445377Y-26851627D01*
X100351128Y-26742857D01*
X100230053Y-26665047D01*
X100230051Y-26665046D01*
X100230049Y-26665045D01*
X100230050Y-26665045D01*
X100091963Y-26624500D01*
X100091961Y-26624500D01*
X99948039Y-26624500D01*
X99948036Y-26624500D01*
X99809949Y-26665045D01*
X99688873Y-26742856D01*
X99594623Y-26851626D01*
X99594622Y-26851628D01*
X99534834Y-26982543D01*
X99514353Y-27125000D01*
X98775647Y-27125000D01*
X98755165Y-26982543D01*
X98695377Y-26851627D01*
X98601128Y-26742857D01*
X98480053Y-26665047D01*
X98480051Y-26665046D01*
X98480049Y-26665045D01*
X98480050Y-26665045D01*
X98341963Y-26624500D01*
X98341961Y-26624500D01*
X98198039Y-26624500D01*
X98198036Y-26624500D01*
X98059949Y-26665045D01*
X97938873Y-26742856D01*
X97844623Y-26851626D01*
X97844622Y-26851628D01*
X97784834Y-26982543D01*
X97764353Y-27125000D01*
X82299287Y-27125000D01*
X82332638Y-27098284D01*
X82336162Y-27095566D01*
X83186231Y-26464464D01*
X83189890Y-26461850D01*
X84062633Y-25862381D01*
X84066326Y-25859943D01*
X84960495Y-25292965D01*
X84964319Y-25290638D01*
X85878709Y-24756914D01*
X85882614Y-24754730D01*
X85891448Y-24750000D01*
X93269610Y-24750000D01*
X93289068Y-24885337D01*
X93289070Y-24885345D01*
X93345867Y-25009714D01*
X93345872Y-25009721D01*
X93435409Y-25113053D01*
X93435413Y-25113057D01*
X93470095Y-25135345D01*
X93550439Y-25186978D01*
X93616036Y-25206239D01*
X93681632Y-25225500D01*
X93681633Y-25225500D01*
X93818367Y-25225500D01*
X93949561Y-25186978D01*
X94064589Y-25113055D01*
X94154130Y-25009718D01*
X94210931Y-24885342D01*
X94230390Y-24750000D01*
X94210931Y-24614658D01*
X94189989Y-24568801D01*
X94154132Y-24490285D01*
X94154127Y-24490278D01*
X94064590Y-24386946D01*
X94064586Y-24386942D01*
X93949559Y-24313021D01*
X93818368Y-24274500D01*
X93818367Y-24274500D01*
X93681633Y-24274500D01*
X93681632Y-24274500D01*
X93550440Y-24313021D01*
X93435413Y-24386942D01*
X93435409Y-24386946D01*
X93345872Y-24490278D01*
X93345867Y-24490285D01*
X93289070Y-24614654D01*
X93289068Y-24614662D01*
X93269610Y-24750000D01*
X85891448Y-24750000D01*
X86815987Y-24254981D01*
X86820008Y-24252922D01*
X87771117Y-23787815D01*
X87775150Y-23785933D01*
X88742717Y-23356092D01*
X88746872Y-23354336D01*
X89729568Y-22960353D01*
X89733799Y-22958747D01*
X90730281Y-22601159D01*
X90734569Y-22599708D01*
X91743538Y-22278978D01*
X91747838Y-22277697D01*
X92767952Y-21994255D01*
X92772287Y-21993136D01*
X93802086Y-21747388D01*
X93806499Y-21746420D01*
X94844640Y-21538684D01*
X94849102Y-21537876D01*
X95894212Y-21368431D01*
X95898615Y-21367800D01*
X96949191Y-21236886D01*
X96953711Y-21236406D01*
X98008419Y-21144189D01*
X98012931Y-21143879D01*
X99070306Y-21090487D01*
X99074780Y-21090344D01*
X100133401Y-21075851D01*
X100137921Y-21075871D01*
G37*
%TD.AperFunction*%
%TD*%
%TA.AperFunction,NonConductor*%
G36*
X124264590Y-38239846D02*
G01*
X124309396Y-38290617D01*
X124532744Y-38757145D01*
X124543937Y-38826113D01*
X124516067Y-38890183D01*
X124457983Y-38929015D01*
X124388124Y-38930280D01*
X124385965Y-38929667D01*
X124368368Y-38924500D01*
X124368367Y-38924500D01*
X124248404Y-38924500D01*
X124181365Y-38904815D01*
X124135610Y-38852011D01*
X124125666Y-38782854D01*
X124130390Y-38750000D01*
X124110931Y-38614658D01*
X124088381Y-38565281D01*
X124050446Y-38482214D01*
X124052148Y-38481436D01*
X124035574Y-38425014D01*
X124052142Y-38368562D01*
X124050445Y-38367787D01*
X124054130Y-38359718D01*
X124084759Y-38292649D01*
X124130511Y-38239847D01*
X124197551Y-38220162D01*
X124264590Y-38239846D01*
G37*
%TD.AperFunction*%
M02*
