%TF.GenerationSoftware,KiCad,Pcbnew,8.0.7*%
%TF.CreationDate,2025-07-12T21:06:11-07:00*%
%TF.ProjectId,FOCdriver,464f4364-7269-4766-9572-2e6b69636164,1.0*%
%TF.SameCoordinates,Original*%
%TF.FileFunction,Soldermask,Top*%
%TF.FilePolarity,Negative*%
%FSLAX46Y46*%
G04 Gerber Fmt 4.6, Leading zero omitted, Abs format (unit mm)*
G04 Created by KiCad (PCBNEW 8.0.7) date 2025-07-12 21:06:11*
%MOMM*%
%LPD*%
G01*
G04 APERTURE LIST*
G04 Aperture macros list*
%AMRoundRect*
0 Rectangle with rounded corners*
0 $1 Rounding radius*
0 $2 $3 $4 $5 $6 $7 $8 $9 X,Y pos of 4 corners*
0 Add a 4 corners polygon primitive as box body*
4,1,4,$2,$3,$4,$5,$6,$7,$8,$9,$2,$3,0*
0 Add four circle primitives for the rounded corners*
1,1,$1+$1,$2,$3*
1,1,$1+$1,$4,$5*
1,1,$1+$1,$6,$7*
1,1,$1+$1,$8,$9*
0 Add four rect primitives between the rounded corners*
20,1,$1+$1,$2,$3,$4,$5,0*
20,1,$1+$1,$4,$5,$6,$7,0*
20,1,$1+$1,$6,$7,$8,$9,0*
20,1,$1+$1,$8,$9,$2,$3,0*%
%AMHorizOval*
0 Thick line with rounded ends*
0 $1 width*
0 $2 $3 position (X,Y) of the first rounded end (center of the circle)*
0 $4 $5 position (X,Y) of the second rounded end (center of the circle)*
0 Add line between two ends*
20,1,$1,$2,$3,$4,$5,0*
0 Add two circle primitives to create the rounded ends*
1,1,$1,$2,$3*
1,1,$1,$4,$5*%
%AMRotRect*
0 Rectangle, with rotation*
0 The origin of the aperture is its center*
0 $1 length*
0 $2 width*
0 $3 Rotation angle, in degrees counterclockwise*
0 Add horizontal line*
21,1,$1,$2,0,0,$3*%
G04 Aperture macros list end*
%ADD10C,0.000000*%
%ADD11R,4.445000X3.760000*%
%ADD12R,0.457200X0.965200*%
%ADD13RoundRect,0.200000X0.200000X0.275000X-0.200000X0.275000X-0.200000X-0.275000X0.200000X-0.275000X0*%
%ADD14RoundRect,0.250000X0.250000X0.475000X-0.250000X0.475000X-0.250000X-0.475000X0.250000X-0.475000X0*%
%ADD15C,0.400000*%
%ADD16RoundRect,0.225000X-0.250000X0.225000X-0.250000X-0.225000X0.250000X-0.225000X0.250000X0.225000X0*%
%ADD17RoundRect,0.112500X-0.143350X0.165116X-0.078232X-0.204187X0.143350X-0.165116X0.078232X0.204187X0*%
%ADD18C,3.800000*%
%ADD19RoundRect,0.150000X-0.408875X0.495930X-0.589419X0.256339X0.408875X-0.495930X0.589419X-0.256339X0*%
%ADD20RoundRect,0.250000X-0.308478X0.670702X-0.729748X0.111657X0.308478X-0.670702X0.729748X-0.111657X0*%
%ADD21RoundRect,0.225000X0.250000X-0.225000X0.250000X0.225000X-0.250000X0.225000X-0.250000X-0.225000X0*%
%ADD22RoundRect,0.225000X0.225000X0.250000X-0.225000X0.250000X-0.225000X-0.250000X0.225000X-0.250000X0*%
%ADD23RoundRect,0.200000X0.275000X-0.200000X0.275000X0.200000X-0.275000X0.200000X-0.275000X-0.200000X0*%
%ADD24RoundRect,0.075000X-0.700000X-0.075000X0.700000X-0.075000X0.700000X0.075000X-0.700000X0.075000X0*%
%ADD25RoundRect,0.075000X-0.075000X-0.700000X0.075000X-0.700000X0.075000X0.700000X-0.075000X0.700000X0*%
%ADD26C,0.550000*%
%ADD27C,1.800000*%
%ADD28RoundRect,0.675000X1.575000X-1.575000X1.575000X1.575000X-1.575000X1.575000X-1.575000X-1.575000X0*%
%ADD29RoundRect,0.150000X0.200000X-0.150000X0.200000X0.150000X-0.200000X0.150000X-0.200000X-0.150000X0*%
%ADD30RoundRect,0.250000X-0.325000X-0.650000X0.325000X-0.650000X0.325000X0.650000X-0.325000X0.650000X0*%
%ADD31RoundRect,0.225000X-0.225000X-0.250000X0.225000X-0.250000X0.225000X0.250000X-0.225000X0.250000X0*%
%ADD32RoundRect,0.150000X0.150000X0.625000X-0.150000X0.625000X-0.150000X-0.625000X0.150000X-0.625000X0*%
%ADD33RoundRect,0.250000X0.350000X0.650000X-0.350000X0.650000X-0.350000X-0.650000X0.350000X-0.650000X0*%
%ADD34RoundRect,0.250000X-0.262500X-0.450000X0.262500X-0.450000X0.262500X0.450000X-0.262500X0.450000X0*%
%ADD35RoundRect,0.243750X0.456250X-0.243750X0.456250X0.243750X-0.456250X0.243750X-0.456250X-0.243750X0*%
%ADD36RoundRect,0.250000X0.325000X0.650000X-0.325000X0.650000X-0.325000X-0.650000X0.325000X-0.650000X0*%
%ADD37RoundRect,0.114000X0.266000X0.521000X-0.266000X0.521000X-0.266000X-0.521000X0.266000X-0.521000X0*%
%ADD38RoundRect,0.250000X-0.250000X-0.475000X0.250000X-0.475000X0.250000X0.475000X-0.250000X0.475000X0*%
%ADD39RoundRect,0.150000X-0.512500X-0.150000X0.512500X-0.150000X0.512500X0.150000X-0.512500X0.150000X0*%
%ADD40RoundRect,0.250000X0.625000X-0.312500X0.625000X0.312500X-0.625000X0.312500X-0.625000X-0.312500X0*%
%ADD41RoundRect,0.250000X0.450000X-0.262500X0.450000X0.262500X-0.450000X0.262500X-0.450000X-0.262500X0*%
%ADD42C,1.400000*%
%ADD43RoundRect,0.770000X1.135287X-0.794936X0.794936X1.135287X-1.135287X0.794936X-0.794936X-1.135287X0*%
%ADD44C,3.500000*%
%ADD45C,0.650000*%
%ADD46R,0.600000X1.240000*%
%ADD47R,0.300000X1.240000*%
%ADD48O,1.000000X2.100000*%
%ADD49O,1.000000X1.800000*%
%ADD50RoundRect,0.200000X-0.275000X0.200000X-0.275000X-0.200000X0.275000X-0.200000X0.275000X0.200000X0*%
%ADD51R,1.700000X0.900000*%
%ADD52RoundRect,0.150000X-0.276753X0.580114X-0.509897X0.391318X0.276753X-0.580114X0.509897X-0.391318X0*%
%ADD53RoundRect,0.250000X-0.137057X0.725407X-0.681059X0.284883X0.137057X-0.725407X0.681059X-0.284883X0*%
%ADD54RoundRect,0.150000X-0.150000X-0.200000X0.150000X-0.200000X0.150000X0.200000X-0.150000X0.200000X0*%
%ADD55RoundRect,0.150000X-0.128190X0.629835X-0.400083X0.503050X0.128190X-0.629835X0.400083X-0.503050X0*%
%ADD56RoundRect,0.250000X0.042506X0.737016X-0.591910X0.441184X-0.042506X-0.737016X0.591910X-0.441184X0*%
%ADD57RoundRect,0.150000X-0.150000X0.512500X-0.150000X-0.512500X0.150000X-0.512500X0.150000X0.512500X0*%
%ADD58RoundRect,0.375000X0.217361X0.926825X-0.521245X0.796589X-0.217361X-0.926825X0.521245X-0.796589X0*%
%ADD59RoundRect,0.250000X0.511196X-0.163719X0.424372X0.328685X-0.511196X0.163719X-0.424372X-0.328685X0*%
%ADD60R,0.900000X1.700000*%
%ADD61HorizOval,0.230000X0.141717X0.118915X-0.141717X-0.118915X0*%
%ADD62HorizOval,0.230000X-0.118915X0.141717X0.118915X-0.141717X0*%
%ADD63C,0.499999*%
%ADD64RotRect,4.150000X4.150000X40.000000*%
%ADD65R,1.400000X1.200000*%
%ADD66RoundRect,0.225000X0.157969X-0.296936X0.311878X0.125926X-0.157969X0.296936X-0.311878X-0.125926X0*%
%ADD67RoundRect,0.150000X0.625000X-0.150000X0.625000X0.150000X-0.625000X0.150000X-0.625000X-0.150000X0*%
%ADD68RoundRect,0.208333X0.291667X-0.391667X0.291667X0.391667X-0.291667X0.391667X-0.291667X-0.391667X0*%
%ADD69RoundRect,0.225000X0.285273X-0.178170X0.207131X0.264994X-0.285273X0.178170X-0.207131X-0.264994X0*%
%ADD70RoundRect,0.200000X-0.200000X-0.275000X0.200000X-0.275000X0.200000X0.275000X-0.200000X0.275000X0*%
G04 APERTURE END LIST*
D10*
%TO.C,Q5*%
G36*
X110967500Y-67645800D02*
G01*
X106522500Y-67645800D01*
X106522500Y-63886600D01*
X110967500Y-63886600D01*
X110967500Y-67645800D01*
G37*
%TO.C,Q3*%
G36*
X105132500Y-68695800D02*
G01*
X100687500Y-68695800D01*
X100687500Y-64936600D01*
X105132500Y-64936600D01*
X105132500Y-68695800D01*
G37*
%TO.C,Q1*%
G36*
X87427500Y-67641400D02*
G01*
X82982500Y-67641400D01*
X82982500Y-63882200D01*
X87427500Y-63882200D01*
X87427500Y-67641400D01*
G37*
%TO.C,Q2*%
G36*
X93582500Y-68759000D02*
G01*
X89137500Y-68759000D01*
X89137500Y-64999800D01*
X93582500Y-64999800D01*
X93582500Y-68759000D01*
G37*
%TO.C,Q6*%
G36*
X117087500Y-68763400D02*
G01*
X112642500Y-68763400D01*
X112642500Y-65004200D01*
X117087500Y-65004200D01*
X117087500Y-68763400D01*
G37*
%TO.C,Q4*%
G36*
X99422500Y-69813400D02*
G01*
X94977500Y-69813400D01*
X94977500Y-66054200D01*
X99422500Y-66054200D01*
X99422500Y-69813400D01*
G37*
%TD*%
D11*
%TO.C,Q5*%
X108745000Y-65775000D03*
D12*
X106840000Y-63429400D03*
X108110000Y-63429400D03*
X109380000Y-63429400D03*
X110650000Y-63429400D03*
X110650000Y-69220600D03*
X106840000Y-69220600D03*
X108110000Y-69220600D03*
X109380000Y-69220600D03*
%TD*%
D11*
%TO.C,Q3*%
X102910000Y-66825000D03*
D12*
X101005000Y-64479400D03*
X102275000Y-64479400D03*
X103545000Y-64479400D03*
X104815000Y-64479400D03*
X104815000Y-70270600D03*
X101005000Y-70270600D03*
X102275000Y-70270600D03*
X103545000Y-70270600D03*
%TD*%
D11*
%TO.C,Q1*%
X85205000Y-65770600D03*
D12*
X83300000Y-63425000D03*
X84570000Y-63425000D03*
X85840000Y-63425000D03*
X87110000Y-63425000D03*
X87110000Y-69216200D03*
X83300000Y-69216200D03*
X84570000Y-69216200D03*
X85840000Y-69216200D03*
%TD*%
D11*
%TO.C,Q2*%
X91360000Y-66870600D03*
D12*
X93265000Y-69216200D03*
X91995000Y-69216200D03*
X90725000Y-69216200D03*
X89455000Y-69216200D03*
X89455000Y-63425000D03*
X93265000Y-63425000D03*
X91995000Y-63425000D03*
X90725000Y-63425000D03*
%TD*%
D11*
%TO.C,Q6*%
X114865000Y-66875000D03*
D12*
X116770000Y-69220600D03*
X115500000Y-69220600D03*
X114230000Y-69220600D03*
X112960000Y-69220600D03*
X112960000Y-63429400D03*
X116770000Y-63429400D03*
X115500000Y-63429400D03*
X114230000Y-63429400D03*
%TD*%
D11*
%TO.C,Q4*%
X97200000Y-67925000D03*
D12*
X99105000Y-70270600D03*
X97835000Y-70270600D03*
X96565000Y-70270600D03*
X95295000Y-70270600D03*
X95295000Y-64479400D03*
X99105000Y-64479400D03*
X97835000Y-64479400D03*
X96565000Y-64479400D03*
%TD*%
D13*
%TO.C,R5*%
X98245000Y-31225000D03*
X96595000Y-31225000D03*
%TD*%
D14*
%TO.C,C48*%
X99540000Y-53960000D03*
X97640000Y-53960000D03*
%TD*%
D15*
%TO.C,TP22*%
X123125000Y-45375000D03*
%TD*%
%TO.C,TP24*%
X110100000Y-49125000D03*
%TD*%
D16*
%TO.C,C22*%
X78100000Y-43225000D03*
X78100000Y-44775000D03*
%TD*%
D17*
%TO.C,D2*%
X74985338Y-46931904D03*
X75350000Y-49000000D03*
%TD*%
D18*
%TO.C,H1*%
X122516661Y-63000000D03*
%TD*%
D19*
%TO.C,J11*%
X81932291Y-35758935D03*
X81330476Y-36557572D03*
D20*
X79619937Y-32388677D03*
X77453403Y-35263765D03*
%TD*%
D15*
%TO.C,TP6*%
X120800000Y-49100000D03*
%TD*%
D18*
%TO.C,H3*%
X116712478Y-30082844D03*
%TD*%
D21*
%TO.C,C54*%
X99675000Y-36900000D03*
X99675000Y-35350000D03*
%TD*%
D22*
%TO.C,C1*%
X108450000Y-36825000D03*
X106900000Y-36825000D03*
%TD*%
D23*
%TO.C,R14*%
X122125000Y-42175000D03*
X122125000Y-40525000D03*
%TD*%
D24*
%TO.C,U1*%
X108750000Y-37950000D03*
X108750000Y-38450000D03*
X108750000Y-38950000D03*
X108750000Y-39450000D03*
X108750000Y-39950000D03*
X108750000Y-40450000D03*
X108750000Y-40950000D03*
X108750000Y-41450000D03*
X108750000Y-41950000D03*
X108750000Y-42450000D03*
X108750000Y-42950000D03*
X108750000Y-43450000D03*
X108750000Y-43950000D03*
X108750000Y-44450000D03*
X108750000Y-44950000D03*
X108750000Y-45450000D03*
D25*
X110675000Y-47375000D03*
X111175000Y-47375000D03*
X111675000Y-47375000D03*
X112175000Y-47375000D03*
X112675000Y-47375000D03*
X113175000Y-47375000D03*
X113675000Y-47375000D03*
X114175000Y-47375000D03*
X114675000Y-47375000D03*
X115175000Y-47375000D03*
X115675000Y-47375000D03*
X116175000Y-47375000D03*
X116675000Y-47375000D03*
X117175000Y-47375000D03*
X117675000Y-47375000D03*
X118175000Y-47375000D03*
D24*
X120100000Y-45450000D03*
X120100000Y-44950000D03*
X120100000Y-44450000D03*
X120100000Y-43950000D03*
X120100000Y-43450000D03*
X120100000Y-42950000D03*
X120100000Y-42450000D03*
X120100000Y-41950000D03*
X120100000Y-41450000D03*
X120100000Y-40950000D03*
X120100000Y-40450000D03*
X120100000Y-39950000D03*
X120100000Y-39450000D03*
X120100000Y-38950000D03*
X120100000Y-38450000D03*
X120100000Y-37950000D03*
D25*
X118175000Y-36025000D03*
X117675000Y-36025000D03*
X117175000Y-36025000D03*
X116675000Y-36025000D03*
X116175000Y-36025000D03*
X115675000Y-36025000D03*
X115175000Y-36025000D03*
X114675000Y-36025000D03*
X114175000Y-36025000D03*
X113675000Y-36025000D03*
X113175000Y-36025000D03*
X112675000Y-36025000D03*
X112175000Y-36025000D03*
X111675000Y-36025000D03*
X111175000Y-36025000D03*
X110675000Y-36025000D03*
%TD*%
D26*
%TO.C,J4*%
X91150000Y-74450000D03*
X91650000Y-74450000D03*
X92150000Y-74450000D03*
X91150000Y-74050000D03*
X91650000Y-74050000D03*
X92150000Y-74050000D03*
D27*
X90300000Y-73825000D03*
X93000000Y-73825000D03*
D26*
X91150000Y-73650000D03*
X91650000Y-73650000D03*
X92150000Y-73650000D03*
X89675000Y-72975000D03*
X90075000Y-72975000D03*
X90475000Y-72975000D03*
X92825000Y-72975000D03*
X93225000Y-72975000D03*
X93625000Y-72975000D03*
X89675000Y-72475000D03*
X90075000Y-72475000D03*
X90475000Y-72475000D03*
D28*
X91650000Y-72475000D03*
D26*
X92825000Y-72475000D03*
X93225000Y-72475000D03*
X93625000Y-72475000D03*
X89675000Y-71975000D03*
X90075000Y-71975000D03*
X90475000Y-71975000D03*
X92825000Y-71975000D03*
X93225000Y-71975000D03*
X93625000Y-71975000D03*
X91150000Y-71300000D03*
X91650000Y-71300000D03*
X92150000Y-71300000D03*
D27*
X90300000Y-71125000D03*
X93000000Y-71125000D03*
D26*
X91150000Y-70900000D03*
X91650000Y-70900000D03*
X92150000Y-70900000D03*
X91150000Y-70500000D03*
X91650000Y-70500000D03*
X92150000Y-70500000D03*
%TD*%
D29*
%TO.C,D7*%
X90950000Y-58005000D03*
X90950000Y-59405000D03*
%TD*%
D22*
%TO.C,C4*%
X107000000Y-45825000D03*
X105450000Y-45825000D03*
%TD*%
D15*
%TO.C,TP14*%
X109200000Y-47700000D03*
%TD*%
D23*
%TO.C,R1*%
X96800000Y-40400000D03*
X96800000Y-38750000D03*
%TD*%
D15*
%TO.C,TP16*%
X107350000Y-43450000D03*
%TD*%
D30*
%TO.C,C58*%
X98470000Y-62520600D03*
X101420000Y-62520600D03*
%TD*%
D29*
%TO.C,D10*%
X109350000Y-57979400D03*
X109350000Y-59379400D03*
%TD*%
D15*
%TO.C,TP17*%
X102250000Y-48050000D03*
%TD*%
D31*
%TO.C,C9*%
X117625000Y-50580000D03*
X119175000Y-50580000D03*
%TD*%
D32*
%TO.C,J2*%
X110450000Y-31000000D03*
X109450000Y-31000000D03*
X108450000Y-31000000D03*
X107450000Y-31000000D03*
D33*
X111750000Y-27125000D03*
X106150000Y-27125000D03*
%TD*%
D16*
%TO.C,C46*%
X120625000Y-52075000D03*
X120625000Y-53625000D03*
%TD*%
D34*
%TO.C,FB2*%
X117237500Y-52300000D03*
X119062500Y-52300000D03*
%TD*%
D23*
%TO.C,R19*%
X99490000Y-60250000D03*
X99490000Y-58600000D03*
%TD*%
D31*
%TO.C,C3*%
X119275000Y-47675000D03*
X120825000Y-47675000D03*
%TD*%
D15*
%TO.C,TP26*%
X112975000Y-34600000D03*
%TD*%
D29*
%TO.C,D8*%
X106450000Y-58747500D03*
X106450000Y-60147500D03*
%TD*%
D35*
%TO.C,D4*%
X93750000Y-30408750D03*
X93750000Y-28533750D03*
%TD*%
D36*
%TO.C,C60*%
X113325000Y-61520600D03*
X110375000Y-61520600D03*
%TD*%
D37*
%TO.C,SW1*%
X90100000Y-32315000D03*
X90100000Y-38665000D03*
%TD*%
D15*
%TO.C,TP11*%
X104500000Y-43200000D03*
%TD*%
D13*
%TO.C,R2*%
X101225000Y-43600000D03*
X99575000Y-43600000D03*
%TD*%
D31*
%TO.C,C53*%
X96650000Y-32750000D03*
X98200000Y-32750000D03*
%TD*%
D18*
%TO.C,H2*%
X77483340Y-63000000D03*
%TD*%
D38*
%TO.C,C61*%
X106820000Y-61720600D03*
X108720000Y-61720600D03*
%TD*%
D39*
%TO.C,U4*%
X103292500Y-32700000D03*
X103292500Y-33650000D03*
X103292500Y-34600000D03*
X105567500Y-34600000D03*
X105567500Y-33650000D03*
X105567500Y-32700000D03*
%TD*%
D31*
%TO.C,C44*%
X101010000Y-52790000D03*
X102559998Y-52790000D03*
%TD*%
D40*
%TO.C,R17*%
X93220295Y-61775000D03*
X93220295Y-58850000D03*
%TD*%
D41*
%TO.C,FB1*%
X74850000Y-45450000D03*
X74850000Y-43625000D03*
%TD*%
D42*
%TO.C,J3*%
X75001225Y-60451900D03*
X73091095Y-49619015D03*
D43*
X83460117Y-50836956D03*
D44*
X84328358Y-55760995D03*
%TD*%
D26*
%TO.C,J5*%
X99500000Y-75600000D03*
X100000000Y-75600000D03*
X100500000Y-75600000D03*
X99500000Y-75200000D03*
X100000000Y-75200000D03*
X100500000Y-75200000D03*
D27*
X98650000Y-74975000D03*
X101350000Y-74975000D03*
D26*
X99500000Y-74800000D03*
X100000000Y-74800000D03*
X100500000Y-74800000D03*
X98025000Y-74125000D03*
X98425000Y-74125000D03*
X98825000Y-74125000D03*
X101175000Y-74125000D03*
X101575000Y-74125000D03*
X101975000Y-74125000D03*
X98025000Y-73625000D03*
X98425000Y-73625000D03*
X98825000Y-73625000D03*
D28*
X100000000Y-73625000D03*
D26*
X101175000Y-73625000D03*
X101575000Y-73625000D03*
X101975000Y-73625000D03*
X98025000Y-73125000D03*
X98425000Y-73125000D03*
X98825000Y-73125000D03*
X101175000Y-73125000D03*
X101575000Y-73125000D03*
X101975000Y-73125000D03*
X99500000Y-72450000D03*
X100000000Y-72450000D03*
X100500000Y-72450000D03*
D27*
X98650000Y-72275000D03*
X101350000Y-72275000D03*
D26*
X99500000Y-72050000D03*
X100000000Y-72050000D03*
X100500000Y-72050000D03*
X99500000Y-71650000D03*
X100000000Y-71650000D03*
X100500000Y-71650000D03*
%TD*%
D31*
%TO.C,C6*%
X103100000Y-41850000D03*
X104650000Y-41850000D03*
%TD*%
D45*
%TO.C,J1*%
X102890000Y-28605000D03*
X97110000Y-28605000D03*
D46*
X103200000Y-29725000D03*
X102400000Y-29725000D03*
D47*
X101250000Y-29725000D03*
X100250000Y-29725000D03*
X99750000Y-29725000D03*
X98750000Y-29725000D03*
D46*
X97600000Y-29725000D03*
X96800000Y-29725000D03*
X96800000Y-29725000D03*
X97600000Y-29725000D03*
D47*
X98250000Y-29725000D03*
X99250000Y-29725000D03*
X100750000Y-29725000D03*
X101750000Y-29725000D03*
D46*
X102400000Y-29725000D03*
X103200000Y-29725000D03*
D48*
X104320000Y-29125000D03*
D49*
X104320000Y-24925000D03*
D48*
X95680000Y-29125000D03*
D49*
X95680000Y-24925000D03*
%TD*%
D31*
%TO.C,C47*%
X101010000Y-54260000D03*
X102560002Y-54260000D03*
%TD*%
D50*
%TO.C,R13*%
X93750000Y-25478750D03*
X93750000Y-27128750D03*
%TD*%
D16*
%TO.C,C18*%
X85975000Y-40875000D03*
X85975000Y-42425000D03*
%TD*%
D23*
%TO.C,R18*%
X107880000Y-60075000D03*
X107880000Y-58425000D03*
%TD*%
D38*
%TO.C,C57*%
X83260000Y-61620600D03*
X85160000Y-61620600D03*
%TD*%
D31*
%TO.C,C8*%
X114650000Y-49125000D03*
X116200000Y-49125000D03*
%TD*%
D40*
%TO.C,R23*%
X116975000Y-61845600D03*
X116975000Y-58920600D03*
%TD*%
D51*
%TO.C,SW2(B3U-1000)1*%
X100425000Y-41900000D03*
X100425000Y-38500000D03*
%TD*%
D26*
%TO.C,J6*%
X108150000Y-74475000D03*
X108650000Y-74475000D03*
X109150000Y-74475000D03*
X108150000Y-74075000D03*
X108650000Y-74075000D03*
X109150000Y-74075000D03*
D27*
X107300000Y-73850000D03*
X110000000Y-73850000D03*
D26*
X108150000Y-73675000D03*
X108650000Y-73675000D03*
X109150000Y-73675000D03*
X106675000Y-73000000D03*
X107075000Y-73000000D03*
X107475000Y-73000000D03*
X109825000Y-73000000D03*
X110225000Y-73000000D03*
X110625000Y-73000000D03*
X106675000Y-72500000D03*
X107075000Y-72500000D03*
X107475000Y-72500000D03*
D28*
X108650000Y-72500000D03*
D26*
X109825000Y-72500000D03*
X110225000Y-72500000D03*
X110625000Y-72500000D03*
X106675000Y-72000000D03*
X107075000Y-72000000D03*
X107475000Y-72000000D03*
X109825000Y-72000000D03*
X110225000Y-72000000D03*
X110625000Y-72000000D03*
X108150000Y-71325000D03*
X108650000Y-71325000D03*
X109150000Y-71325000D03*
D27*
X107300000Y-71150000D03*
X110000000Y-71150000D03*
D26*
X108150000Y-70925000D03*
X108650000Y-70925000D03*
X109150000Y-70925000D03*
X108150000Y-70525000D03*
X108650000Y-70525000D03*
X109150000Y-70525000D03*
%TD*%
D52*
%TO.C,J10*%
X85914204Y-31810983D03*
X85137058Y-32440303D03*
D53*
X84485877Y-27981426D03*
X81688152Y-30246979D03*
%TD*%
D15*
%TO.C,TP9*%
X106600000Y-43100000D03*
%TD*%
D54*
%TO.C,D6*%
X92875000Y-53285000D03*
X91475000Y-53285000D03*
%TD*%
D15*
%TO.C,TP7*%
X98200000Y-38200000D03*
%TD*%
%TO.C,TP13*%
X109775000Y-47275000D03*
%TD*%
D21*
%TO.C,C55*%
X101175000Y-36900000D03*
X101175000Y-35350000D03*
%TD*%
D23*
%TO.C,R16*%
X89468600Y-59525000D03*
X89468600Y-57875000D03*
%TD*%
D55*
%TO.C,J9*%
X91186087Y-28732302D03*
X90279780Y-29154921D03*
X89373472Y-29577539D03*
D56*
X90726642Y-24670956D03*
X86557626Y-26615000D03*
%TD*%
D15*
%TO.C,TP1*%
X88800000Y-53600000D03*
%TD*%
D36*
%TO.C,C56*%
X89775000Y-61470600D03*
X86825000Y-61470600D03*
%TD*%
D29*
%TO.C,D11*%
X114400000Y-57975000D03*
X114400000Y-59375000D03*
%TD*%
D15*
%TO.C,TP10*%
X104500000Y-44200000D03*
%TD*%
D57*
%TO.C,U7*%
X84500000Y-39975002D03*
X83550000Y-39975001D03*
X82600000Y-39975001D03*
X82600000Y-42250000D03*
X83550000Y-42250001D03*
X84500000Y-42250001D03*
%TD*%
D15*
%TO.C,TP27*%
X113825000Y-34600000D03*
%TD*%
D58*
%TO.C,L1*%
X84093788Y-45657502D03*
X80450000Y-46300000D03*
%TD*%
D31*
%TO.C,C51*%
X109350000Y-34225000D03*
X110900000Y-34225000D03*
%TD*%
D29*
%TO.C,D9*%
X98020000Y-58745000D03*
X98020000Y-60145000D03*
%TD*%
D15*
%TO.C,TP25*%
X121500000Y-44950000D03*
%TD*%
%TO.C,TP2*%
X88800000Y-52100000D03*
%TD*%
%TO.C,TP15*%
X108536210Y-47525224D03*
%TD*%
D57*
%TO.C,U6*%
X98175000Y-34425000D03*
X97225000Y-34425000D03*
X96275000Y-34425000D03*
X96275000Y-36700000D03*
X98175000Y-36700000D03*
%TD*%
D23*
%TO.C,R21*%
X110820000Y-59500000D03*
X110820000Y-57850000D03*
%TD*%
D13*
%TO.C,R4*%
X104675000Y-31225000D03*
X103025000Y-31225000D03*
%TD*%
D15*
%TO.C,TP8*%
X95400000Y-38200000D03*
%TD*%
%TO.C,TP20*%
X122875000Y-44350000D03*
%TD*%
D50*
%TO.C,TH1*%
X118420000Y-64695000D03*
X118420000Y-66345000D03*
%TD*%
D59*
%TO.C,C19*%
X78779932Y-48221134D03*
X78450000Y-46350000D03*
%TD*%
D60*
%TO.C,SW1(B3U-1000)1*%
X96900000Y-42800000D03*
X93500000Y-42800000D03*
%TD*%
D35*
%TO.C,D5*%
X123875000Y-42487500D03*
X123875000Y-40612500D03*
%TD*%
D61*
%TO.C,U3*%
X103356944Y-51408284D03*
X103678337Y-51791305D03*
X103999732Y-52174329D03*
X104321126Y-52557350D03*
X104642520Y-52940373D03*
X104963914Y-53323396D03*
X105285306Y-53706416D03*
X105606701Y-54089440D03*
X105928095Y-54472461D03*
X106249490Y-54855485D03*
D62*
X107165228Y-54935602D03*
X107548249Y-54614209D03*
X107931273Y-54292814D03*
X108314294Y-53971420D03*
X108697317Y-53650026D03*
X109080340Y-53328632D03*
X109463360Y-53007240D03*
X109846384Y-52685845D03*
X110229405Y-52364451D03*
X110612429Y-52043056D03*
D61*
X110692546Y-51127318D03*
X110371151Y-50744295D03*
X110049758Y-50361273D03*
X109728363Y-49978249D03*
X109406970Y-49595229D03*
X109085576Y-49212206D03*
X108764182Y-48829183D03*
X108442789Y-48446162D03*
X108121394Y-48063138D03*
X107800000Y-47680117D03*
D62*
X106884262Y-47600000D03*
X106501239Y-47921395D03*
X106118217Y-48242788D03*
X105735193Y-48564183D03*
X105352173Y-48885576D03*
X104969150Y-49206970D03*
X104586127Y-49528364D03*
X104203106Y-49849757D03*
X103820082Y-50171152D03*
X103437061Y-50492546D03*
D63*
X105186404Y-51916148D03*
X106067023Y-52965629D03*
X105326917Y-50310079D03*
X106059695Y-51183370D03*
X106940314Y-52232851D03*
X107673092Y-53106142D03*
D64*
X107024745Y-51267801D03*
D63*
X106376398Y-49429460D03*
X107109176Y-50302751D03*
X107989795Y-51352232D03*
X108722573Y-52225523D03*
X107982467Y-49569973D03*
X108863086Y-50619454D03*
%TD*%
D15*
%TO.C,TP5*%
X79300000Y-38900000D03*
%TD*%
D65*
%TO.C,Y1*%
X105475000Y-38425000D03*
X103275000Y-38425000D03*
X103275000Y-40125000D03*
X105475000Y-40125000D03*
%TD*%
D15*
%TO.C,TP4*%
X121550000Y-52000000D03*
%TD*%
%TO.C,TP12*%
X109700000Y-48600000D03*
%TD*%
D66*
%TO.C,C10*%
X75300000Y-41950000D03*
X75830132Y-40493476D03*
%TD*%
D23*
%TO.C,R22*%
X112920000Y-59508100D03*
X112920000Y-57858100D03*
%TD*%
D40*
%TO.C,R20*%
X95500000Y-62833100D03*
X95500000Y-59908100D03*
%TD*%
D22*
%TO.C,C7*%
X105475000Y-36825000D03*
X103925000Y-36825000D03*
%TD*%
D15*
%TO.C,TP21*%
X124725000Y-45350000D03*
%TD*%
D31*
%TO.C,C5*%
X117625000Y-49125000D03*
X119175000Y-49125000D03*
%TD*%
D14*
%TO.C,C59*%
X104920000Y-62670600D03*
X103020000Y-62670600D03*
%TD*%
D16*
%TO.C,C23*%
X76600000Y-43225000D03*
X76600000Y-44775000D03*
%TD*%
D15*
%TO.C,TP23*%
X122475000Y-46000000D03*
%TD*%
D21*
%TO.C,C21*%
X79600000Y-43150000D03*
X79600000Y-41600000D03*
%TD*%
D31*
%TO.C,C45*%
X114650000Y-50580000D03*
X116200000Y-50580000D03*
%TD*%
D67*
%TO.C,J8*%
X123000000Y-52500000D03*
X123000000Y-51500000D03*
X123000000Y-50500000D03*
X123000000Y-49500000D03*
X123000000Y-48500000D03*
X123000000Y-47500000D03*
D68*
X126875000Y-53800000D03*
X126875000Y-46200000D03*
%TD*%
D69*
%TO.C,C63*%
X77050000Y-48576452D03*
X76780846Y-47050000D03*
%TD*%
D15*
%TO.C,TP3*%
X79200000Y-40300000D03*
%TD*%
D70*
%TO.C,R15*%
X91350000Y-54750000D03*
X93000000Y-54750000D03*
%TD*%
D21*
%TO.C,C20*%
X81100000Y-42900000D03*
X81100000Y-41350000D03*
%TD*%
M02*
