%TF.GenerationSoftware,KiCad,Pcbnew,8.0.7*%
%TF.CreationDate,2025-07-12T21:06:11-07:00*%
%TF.ProjectId,FOCdriver,464f4364-7269-4766-9572-2e6b69636164,1.0*%
%TF.SameCoordinates,Original*%
%TF.FileFunction,Soldermask,Bot*%
%TF.FilePolarity,Negative*%
%FSLAX46Y46*%
G04 Gerber Fmt 4.6, Leading zero omitted, Abs format (unit mm)*
G04 Created by KiCad (PCBNEW 8.0.7) date 2025-07-12 21:06:11*
%MOMM*%
%LPD*%
G01*
G04 APERTURE LIST*
G04 Aperture macros list*
%AMRoundRect*
0 Rectangle with rounded corners*
0 $1 Rounding radius*
0 $2 $3 $4 $5 $6 $7 $8 $9 X,Y pos of 4 corners*
0 Add a 4 corners polygon primitive as box body*
4,1,4,$2,$3,$4,$5,$6,$7,$8,$9,$2,$3,0*
0 Add four circle primitives for the rounded corners*
1,1,$1+$1,$2,$3*
1,1,$1+$1,$4,$5*
1,1,$1+$1,$6,$7*
1,1,$1+$1,$8,$9*
0 Add four rect primitives between the rounded corners*
20,1,$1+$1,$2,$3,$4,$5,0*
20,1,$1+$1,$4,$5,$6,$7,0*
20,1,$1+$1,$6,$7,$8,$9,0*
20,1,$1+$1,$8,$9,$2,$3,0*%
G04 Aperture macros list end*
%ADD10C,3.800000*%
%ADD11C,0.550000*%
%ADD12C,1.800000*%
%ADD13RoundRect,0.675000X1.575000X-1.575000X1.575000X1.575000X-1.575000X1.575000X-1.575000X-1.575000X0*%
%ADD14C,1.400000*%
%ADD15RoundRect,0.770000X1.135287X-0.794936X0.794936X1.135287X-1.135287X0.794936X-0.794936X-1.135287X0*%
%ADD16C,3.500000*%
%ADD17C,0.650000*%
%ADD18O,1.000000X2.100000*%
%ADD19O,1.000000X1.800000*%
%ADD20C,0.499999*%
%ADD21RoundRect,0.250000X0.650000X-0.325000X0.650000X0.325000X-0.650000X0.325000X-0.650000X-0.325000X0*%
%ADD22RoundRect,0.225000X-0.250000X0.225000X-0.250000X-0.225000X0.250000X-0.225000X0.250000X0.225000X0*%
%ADD23RoundRect,0.225000X-0.225000X-0.250000X0.225000X-0.250000X0.225000X0.250000X-0.225000X0.250000X0*%
%ADD24RoundRect,0.150000X-0.150000X0.512500X-0.150000X-0.512500X0.150000X-0.512500X0.150000X0.512500X0*%
%ADD25RoundRect,0.200000X-0.200000X-0.275000X0.200000X-0.275000X0.200000X0.275000X-0.200000X0.275000X0*%
%ADD26RoundRect,0.200000X0.200000X0.275000X-0.200000X0.275000X-0.200000X-0.275000X0.200000X-0.275000X0*%
%ADD27RoundRect,0.225000X-0.285273X0.178170X-0.207131X-0.264994X0.285273X-0.178170X0.207131X0.264994X0*%
%ADD28RoundRect,0.150000X0.825000X0.150000X-0.825000X0.150000X-0.825000X-0.150000X0.825000X-0.150000X0*%
%ADD29RoundRect,0.225000X0.250000X-0.225000X0.250000X0.225000X-0.250000X0.225000X-0.250000X-0.225000X0*%
%ADD30RoundRect,0.200000X-0.275000X0.200000X-0.275000X-0.200000X0.275000X-0.200000X0.275000X0.200000X0*%
%ADD31RoundRect,0.250000X-1.059975X0.828524X-0.712679X-1.141091X1.059975X-0.828524X0.712679X1.141091X0*%
%ADD32RoundRect,0.200000X-0.305552X0.149208X-0.236092X-0.244715X0.305552X-0.149208X0.236092X0.244715X0*%
%ADD33RoundRect,0.100000X-0.637500X-0.100000X0.637500X-0.100000X0.637500X0.100000X-0.637500X0.100000X0*%
%ADD34RoundRect,0.225000X0.225000X0.250000X-0.225000X0.250000X-0.225000X-0.250000X0.225000X-0.250000X0*%
%ADD35RoundRect,0.112500X-0.112500X0.187500X-0.112500X-0.187500X0.112500X-0.187500X0.112500X0.187500X0*%
%ADD36RoundRect,0.250000X-0.325000X-0.650000X0.325000X-0.650000X0.325000X0.650000X-0.325000X0.650000X0*%
%ADD37RoundRect,0.225000X0.011663X0.336138X-0.333057X0.046884X-0.011663X-0.336138X0.333057X-0.046884X0*%
G04 APERTURE END LIST*
D10*
%TO.C,H1*%
X122516661Y-63000000D03*
%TD*%
%TO.C,H3*%
X116712478Y-30082844D03*
%TD*%
D11*
%TO.C,J4*%
X91150000Y-74450000D03*
X91650000Y-74450000D03*
X92150000Y-74450000D03*
X91150000Y-74050000D03*
X91650000Y-74050000D03*
X92150000Y-74050000D03*
D12*
X90300000Y-73825000D03*
X93000000Y-73825000D03*
D11*
X91150000Y-73650000D03*
X91650000Y-73650000D03*
X92150000Y-73650000D03*
X89675000Y-72975000D03*
X90075000Y-72975000D03*
X90475000Y-72975000D03*
X92825000Y-72975000D03*
X93225000Y-72975000D03*
X93625000Y-72975000D03*
X89675000Y-72475000D03*
X90075000Y-72475000D03*
X90475000Y-72475000D03*
D13*
X91650000Y-72475000D03*
D11*
X92825000Y-72475000D03*
X93225000Y-72475000D03*
X93625000Y-72475000D03*
X89675000Y-71975000D03*
X90075000Y-71975000D03*
X90475000Y-71975000D03*
X92825000Y-71975000D03*
X93225000Y-71975000D03*
X93625000Y-71975000D03*
X91150000Y-71300000D03*
X91650000Y-71300000D03*
X92150000Y-71300000D03*
D12*
X90300000Y-71125000D03*
X93000000Y-71125000D03*
D11*
X91150000Y-70900000D03*
X91650000Y-70900000D03*
X92150000Y-70900000D03*
X91150000Y-70500000D03*
X91650000Y-70500000D03*
X92150000Y-70500000D03*
%TD*%
D10*
%TO.C,H2*%
X77483340Y-63000000D03*
%TD*%
D14*
%TO.C,J3*%
X75001225Y-60451900D03*
X73091095Y-49619015D03*
D15*
X83460117Y-50836956D03*
D16*
X84328358Y-55760995D03*
%TD*%
D11*
%TO.C,J5*%
X99500000Y-75600000D03*
X100000000Y-75600000D03*
X100500000Y-75600000D03*
X99500000Y-75200000D03*
X100000000Y-75200000D03*
X100500000Y-75200000D03*
D12*
X98650000Y-74975000D03*
X101350000Y-74975000D03*
D11*
X99500000Y-74800000D03*
X100000000Y-74800000D03*
X100500000Y-74800000D03*
X98025000Y-74125000D03*
X98425000Y-74125000D03*
X98825000Y-74125000D03*
X101175000Y-74125000D03*
X101575000Y-74125000D03*
X101975000Y-74125000D03*
X98025000Y-73625000D03*
X98425000Y-73625000D03*
X98825000Y-73625000D03*
D13*
X100000000Y-73625000D03*
D11*
X101175000Y-73625000D03*
X101575000Y-73625000D03*
X101975000Y-73625000D03*
X98025000Y-73125000D03*
X98425000Y-73125000D03*
X98825000Y-73125000D03*
X101175000Y-73125000D03*
X101575000Y-73125000D03*
X101975000Y-73125000D03*
X99500000Y-72450000D03*
X100000000Y-72450000D03*
X100500000Y-72450000D03*
D12*
X98650000Y-72275000D03*
X101350000Y-72275000D03*
D11*
X99500000Y-72050000D03*
X100000000Y-72050000D03*
X100500000Y-72050000D03*
X99500000Y-71650000D03*
X100000000Y-71650000D03*
X100500000Y-71650000D03*
%TD*%
D17*
%TO.C,J1*%
X102890000Y-28605000D03*
X97110000Y-28605000D03*
D18*
X104320000Y-29125000D03*
D19*
X104320000Y-24925000D03*
D18*
X95680000Y-29125000D03*
D19*
X95680000Y-24925000D03*
%TD*%
D11*
%TO.C,J6*%
X108150000Y-74475000D03*
X108650000Y-74475000D03*
X109150000Y-74475000D03*
X108150000Y-74075000D03*
X108650000Y-74075000D03*
X109150000Y-74075000D03*
D12*
X107300000Y-73850000D03*
X110000000Y-73850000D03*
D11*
X108150000Y-73675000D03*
X108650000Y-73675000D03*
X109150000Y-73675000D03*
X106675000Y-73000000D03*
X107075000Y-73000000D03*
X107475000Y-73000000D03*
X109825000Y-73000000D03*
X110225000Y-73000000D03*
X110625000Y-73000000D03*
X106675000Y-72500000D03*
X107075000Y-72500000D03*
X107475000Y-72500000D03*
D13*
X108650000Y-72500000D03*
D11*
X109825000Y-72500000D03*
X110225000Y-72500000D03*
X110625000Y-72500000D03*
X106675000Y-72000000D03*
X107075000Y-72000000D03*
X107475000Y-72000000D03*
X109825000Y-72000000D03*
X110225000Y-72000000D03*
X110625000Y-72000000D03*
X108150000Y-71325000D03*
X108650000Y-71325000D03*
X109150000Y-71325000D03*
D12*
X107300000Y-71150000D03*
X110000000Y-71150000D03*
D11*
X108150000Y-70925000D03*
X108650000Y-70925000D03*
X109150000Y-70925000D03*
X108150000Y-70525000D03*
X108650000Y-70525000D03*
X109150000Y-70525000D03*
%TD*%
D20*
%TO.C,U3*%
X105186404Y-51916148D03*
X106067023Y-52965629D03*
X105326917Y-50310079D03*
X106059695Y-51183370D03*
X106940314Y-52232851D03*
X107673092Y-53106142D03*
X106376398Y-49429460D03*
X107109176Y-50302751D03*
X107989795Y-51352232D03*
X108722573Y-52225523D03*
X107982467Y-49569973D03*
X108863086Y-50619454D03*
%TD*%
D21*
%TO.C,C38*%
X93100000Y-64950000D03*
X93100000Y-62000000D03*
%TD*%
%TO.C,C24*%
X97675000Y-66450000D03*
X97675000Y-63500000D03*
%TD*%
D22*
%TO.C,C12*%
X99055000Y-34625000D03*
X99055000Y-36175000D03*
%TD*%
D23*
%TO.C,C41*%
X119400000Y-57325000D03*
X120950000Y-57325000D03*
%TD*%
D24*
%TO.C,U5*%
X121025000Y-43887500D03*
X121975000Y-43887500D03*
X122925000Y-43887500D03*
X122925000Y-46162500D03*
X121025000Y-46162500D03*
%TD*%
D21*
%TO.C,C27*%
X109700000Y-61975000D03*
X109700000Y-59025000D03*
%TD*%
%TO.C,C34*%
X114400000Y-64975000D03*
X114400000Y-62025000D03*
%TD*%
D23*
%TO.C,C62*%
X99350000Y-46400000D03*
X100900000Y-46400000D03*
%TD*%
D25*
%TO.C,R9*%
X79250001Y-38800001D03*
X80899999Y-38799999D03*
%TD*%
D26*
%TO.C,R12*%
X112325000Y-45850000D03*
X110675000Y-45850000D03*
%TD*%
D27*
%TO.C,C43*%
X77065423Y-55586774D03*
X77334579Y-57113226D03*
%TD*%
D28*
%TO.C,U2*%
X97100000Y-33630000D03*
X97100000Y-34900000D03*
X97100000Y-36170000D03*
X97100000Y-37440000D03*
X92150000Y-37440000D03*
X92150000Y-36170000D03*
X92150000Y-34900000D03*
X92150000Y-33630000D03*
%TD*%
D29*
%TO.C,C16*%
X119500000Y-46350000D03*
X119500000Y-44800000D03*
%TD*%
D30*
%TO.C,R24*%
X113800000Y-33375000D03*
X113800000Y-35025000D03*
%TD*%
D21*
%TO.C,C39*%
X95400000Y-66450000D03*
X95400000Y-63500000D03*
%TD*%
D31*
%TO.C,D3*%
X79470038Y-53316838D03*
X80216724Y-57551510D03*
%TD*%
D32*
%TO.C,R11*%
X75600000Y-55800000D03*
X75886520Y-57424932D03*
%TD*%
D25*
%TO.C,R25*%
X112674293Y-36799293D03*
X114324293Y-36799293D03*
%TD*%
D21*
%TO.C,C30*%
X100000000Y-66450000D03*
X100000000Y-63500000D03*
%TD*%
%TO.C,C37*%
X90800000Y-64950000D03*
X90800000Y-62000000D03*
%TD*%
D33*
%TO.C,U8*%
X97137500Y-51950000D03*
X97137500Y-51300000D03*
X97137500Y-50650000D03*
X97137500Y-50000000D03*
X97137500Y-49350000D03*
X97137500Y-48700000D03*
X97137500Y-48050000D03*
X102862500Y-48050000D03*
X102862500Y-48700000D03*
X102862500Y-49350000D03*
X102862500Y-50000000D03*
X102862500Y-50650000D03*
X102862500Y-51300000D03*
X102862500Y-51950000D03*
%TD*%
D21*
%TO.C,C36*%
X88500000Y-64975000D03*
X88500000Y-62025000D03*
%TD*%
D27*
%TO.C,C42*%
X75099104Y-52936014D03*
X75368260Y-54462466D03*
%TD*%
D34*
%TO.C,C15*%
X122975000Y-42225000D03*
X121425000Y-42225000D03*
%TD*%
D21*
%TO.C,C33*%
X112100000Y-64975000D03*
X112100000Y-62025000D03*
%TD*%
D22*
%TO.C,C13*%
X108800000Y-30500000D03*
X108800000Y-32050000D03*
%TD*%
D21*
%TO.C,C32*%
X107100000Y-64950000D03*
X107100000Y-62000000D03*
%TD*%
D30*
%TO.C,R3*%
X88900000Y-36975000D03*
X88900000Y-38625000D03*
%TD*%
D22*
%TO.C,C2*%
X118340000Y-37940000D03*
X118340000Y-39490000D03*
%TD*%
D35*
%TO.C,D12*%
X77575000Y-38400000D03*
X77575000Y-40500000D03*
%TD*%
D36*
%TO.C,C28*%
X87300000Y-53000000D03*
X90250000Y-53000000D03*
%TD*%
%TO.C,C35*%
X86625000Y-60000000D03*
X89575000Y-60000000D03*
%TD*%
D23*
%TO.C,C52*%
X111745000Y-49460000D03*
X113295000Y-49460000D03*
%TD*%
D35*
%TO.C,D1*%
X112100000Y-30350000D03*
X112100000Y-32450000D03*
%TD*%
D26*
%TO.C,R7*%
X124600000Y-56925000D03*
X122950000Y-56925000D03*
%TD*%
D21*
%TO.C,C31*%
X104800000Y-64950000D03*
X104800000Y-62000000D03*
%TD*%
D37*
%TO.C,C49*%
X105233685Y-52531839D03*
X104046315Y-53528161D03*
%TD*%
D22*
%TO.C,C50*%
X105425000Y-45650000D03*
X105425000Y-47200000D03*
%TD*%
D26*
%TO.C,R8*%
X80900000Y-40350000D03*
X79250000Y-40350000D03*
%TD*%
D22*
%TO.C,C14*%
X110300000Y-30500000D03*
X110300000Y-32050000D03*
%TD*%
D36*
%TO.C,C29*%
X87325000Y-55400000D03*
X90275000Y-55400000D03*
%TD*%
D25*
%TO.C,R6*%
X122950000Y-58400000D03*
X124600000Y-58400000D03*
%TD*%
D34*
%TO.C,C11*%
X111900000Y-40950000D03*
X110350000Y-40950000D03*
%TD*%
D23*
%TO.C,C40*%
X123000000Y-55450000D03*
X124550000Y-55450000D03*
%TD*%
D36*
%TO.C,C26*%
X87300000Y-57700000D03*
X90250000Y-57700000D03*
%TD*%
D23*
%TO.C,C17*%
X120975000Y-47850000D03*
X122525000Y-47850000D03*
%TD*%
D26*
%TO.C,R10*%
X121000000Y-58800000D03*
X119350000Y-58800000D03*
%TD*%
D21*
%TO.C,C25*%
X116700000Y-64975000D03*
X116700000Y-62025000D03*
%TD*%
M02*
