M48
; DRILL file {KiCad 8.0.7} date 2025-10-10T17:09:58-0700
; FORMAT={-:-/ absolute / metric / decimal}
; #@! TF.CreationDate,2025-10-10T17:09:58-07:00
; #@! TF.GenerationSoftware,Kicad,Pcbnew,8.0.7
; #@! TF.FileFunction,Plated,1,6,PTH
FMAT,2
METRIC
; #@! TA.AperFunction,Plated,PTH,ComponentDrill
T1C0.250
; #@! TA.AperFunction,Plated,PTH,ViaDrill
T2C0.300
; #@! TA.AperFunction,Plated,PTH,ComponentDrill
T3C0.300
; #@! TA.AperFunction,Plated,PTH,ComponentDrill
T4C0.600
; #@! TA.AperFunction,Plated,PTH,ComponentDrill
T5C0.900
; #@! TA.AperFunction,Plated,PTH,ComponentDrill
T6C1.000
; #@! TA.AperFunction,Plated,PTH,ComponentDrill
T7C1.800
; #@! TA.AperFunction,Plated,PTH,ComponentDrill
T8C1.900
; #@! TA.AperFunction,Plated,PTH,ComponentDrill
T9C2.200
%
G90
G05
T1
X141.025Y-118.0
X141.025Y-118.5
X141.025Y-119.0
X141.425Y-118.0
X141.425Y-118.5
X141.425Y-119.0
X141.825Y-118.0
X141.825Y-118.5
X141.825Y-119.0
X142.5Y-116.525
X142.5Y-116.925
X142.5Y-117.325
X142.5Y-119.675
X142.5Y-120.075
X142.5Y-120.475
X143.0Y-116.525
X143.0Y-116.925
X143.0Y-117.325
X143.0Y-119.675
X143.0Y-120.075
X143.0Y-120.475
X143.5Y-116.525
X143.5Y-116.925
X143.5Y-117.325
X143.5Y-119.675
X143.5Y-120.075
X143.5Y-120.475
X144.175Y-118.0
X144.175Y-118.5
X144.175Y-119.0
X144.575Y-118.0
X144.575Y-118.5
X144.575Y-119.0
X144.975Y-118.0
X144.975Y-118.5
X144.975Y-119.0
X148.025Y-118.0
X148.025Y-118.5
X148.025Y-119.0
X148.425Y-118.0
X148.425Y-118.5
X148.425Y-119.0
X148.825Y-118.0
X148.825Y-118.5
X148.825Y-119.0
X149.5Y-116.525
X149.5Y-116.925
X149.5Y-117.325
X149.5Y-119.675
X149.5Y-120.075
X149.5Y-120.475
X150.0Y-116.525
X150.0Y-116.925
X150.0Y-117.325
X150.0Y-119.675
X150.0Y-120.075
X150.0Y-120.475
X150.5Y-116.525
X150.5Y-116.925
X150.5Y-117.325
X150.5Y-119.675
X150.5Y-120.075
X150.5Y-120.475
X151.175Y-118.0
X151.175Y-118.5
X151.175Y-119.0
X151.575Y-118.0
X151.575Y-118.5
X151.575Y-119.0
X151.975Y-118.0
X151.975Y-118.5
X151.975Y-119.0
X155.025Y-118.0
X155.025Y-118.5
X155.025Y-119.0
X155.425Y-118.0
X155.425Y-118.5
X155.425Y-119.0
X155.825Y-118.0
X155.825Y-118.5
X155.825Y-119.0
X156.5Y-116.525
X156.5Y-116.925
X156.5Y-117.325
X156.5Y-119.675
X156.5Y-120.075
X156.5Y-120.475
X157.0Y-116.525
X157.0Y-116.925
X157.0Y-117.325
X157.0Y-119.675
X157.0Y-120.075
X157.0Y-120.475
X157.5Y-116.525
X157.5Y-116.925
X157.5Y-117.325
X157.5Y-119.675
X157.5Y-120.075
X157.5Y-120.475
X158.175Y-118.0
X158.175Y-118.5
X158.175Y-119.0
X158.575Y-118.0
X158.575Y-118.5
X158.575Y-119.0
X158.975Y-118.0
X158.975Y-118.5
X158.975Y-119.0
T2
X128.6Y-101.9
X128.6Y-103.6
X128.85Y-109.6
X128.85Y-112.4
X129.1Y-85.2
X129.35Y-110.65
X129.35Y-111.35
X130.2Y-110.65
X130.2Y-111.35
X130.35Y-101.9
X130.35Y-103.6
X130.95Y-97.85
X131.05Y-110.65
X131.05Y-111.35
X131.2Y-105.3
X131.2Y-107.05
X131.6Y-96.9
X132.05Y-101.9
X132.05Y-103.6
X132.9Y-105.3
X132.9Y-107.05
X133.2Y-78.0
X133.2Y-78.8
X133.2Y-79.575
X133.9Y-87.4
X133.9Y-89.975
X133.9Y-90.875
X134.15Y-78.0
X134.15Y-78.8
X134.15Y-79.575
X134.9Y-84.25
X135.05Y-110.65
X135.05Y-111.35
X135.1Y-78.0
X135.1Y-78.8
X135.1Y-79.55
X135.4Y-83.45
X135.9Y-110.65
X135.9Y-111.35
X136.0Y-84.25
X136.05Y-78.0
X136.05Y-78.8
X136.65Y-95.95
X136.65Y-96.962
X136.65Y-97.975
X136.65Y-98.987
X136.65Y-100.0
X136.75Y-110.65
X136.75Y-111.35
X136.8Y-82.15
X137.1Y-94.65
X137.4Y-90.775
X137.65Y-104.9
X137.65Y-106.05
X137.65Y-107.25
X137.65Y-108.5
X137.7Y-88.45
X137.875Y-82.925
X138.0Y-100.0
X138.675Y-82.925
X139.15Y-111.2
X139.15Y-112.05
X139.15Y-112.95
X139.25Y-100.0
X139.3Y-104.9
X139.3Y-106.0
X139.3Y-107.2
X139.3Y-108.5
X139.4Y-89.5
X139.4Y-90.75
X139.4Y-92.675
X139.475Y-82.925
X140.0Y-111.2
X140.0Y-112.05
X140.0Y-112.95
X140.2Y-89.5
X140.275Y-82.925
X140.275Y-83.75
X140.275Y-84.65
X140.5Y-100.0
X140.55Y-104.8
X140.85Y-111.2
X140.85Y-112.05
X140.85Y-112.95
X141.0Y-89.5
X141.0Y-90.75
X141.0Y-92.675
X141.05Y-82.9
X141.05Y-83.725
X141.05Y-84.625
X141.75Y-100.0
X141.75Y-101.0
X141.8Y-103.2
X141.95Y-86.555
X142.25Y-102.0
X142.5Y-78.0
X142.5Y-78.8
X142.5Y-79.6
X142.5Y-80.45
X142.6Y-90.725
X142.6Y-92.65
X143.1Y-94.75
X143.25Y-105.85
X143.25Y-106.9
X143.25Y-107.95
X143.525Y-78.84
X143.75Y-108.75
X143.925Y-80.55
X144.1Y-104.5
X144.25Y-94.75
X144.7Y-83.7
X144.7Y-105.85
X144.783Y-107.9
X144.783Y-108.7
X144.9Y-106.8
X145.55Y-103.65
X145.55Y-105.05
X145.55Y-105.85
X145.65Y-84.537
X145.775Y-86.0
X145.85Y-98.95
X145.85Y-106.8
X146.3Y-78.2
X146.3Y-79.0
X146.3Y-79.8
X146.75Y-105.85
X147.0Y-103.65
X147.0Y-105.05
X148.15Y-89.95
X148.3Y-106.8
X148.45Y-87.95
X148.5Y-103.65
X148.5Y-105.05
X148.55Y-98.3
X148.55Y-98.975
X148.6Y-91.2
X148.6Y-92.2
X149.2Y-87.4
X149.25Y-85.4
X149.25Y-89.85
X149.3Y-101.4
X149.3Y-106.8
X149.4Y-84.475
X149.525Y-97.325
X149.55Y-92.85
X149.72Y-82.27
X150.0Y-80.95
X150.0Y-103.65
X150.0Y-105.05
X150.0Y-107.9
X150.0Y-108.7
X150.208Y-101.4
X150.29Y-89.0
X150.625Y-98.8
X150.735Y-82.275
X150.8Y-109.0
X150.821Y-92.479
X151.0Y-80.95
X151.117Y-101.4
X151.15Y-111.2
X151.15Y-112.05
X151.15Y-112.95
X151.3Y-89.2
X151.3Y-90.0
X151.3Y-90.8
X151.5Y-103.65
X151.5Y-105.05
X151.5Y-109.0
X152.0Y-111.2
X152.0Y-112.05
X152.0Y-112.95
X152.1Y-80.35
X152.2Y-109.0
X152.35Y-87.35
X152.35Y-91.8
X152.85Y-111.2
X152.85Y-112.05
X152.85Y-112.95
X152.95Y-82.825
X152.967Y-103.917
X153.0Y-105.05
X153.45Y-106.725
X153.533Y-104.483
X153.7Y-89.2
X153.75Y-105.25
X153.96Y-82.8
X154.2Y-84.475
X154.2Y-96.3
X154.3Y-80.35
X154.35Y-106.725
X154.667Y-105.29
X154.925Y-89.2
X155.0Y-80.35
X155.15Y-111.2
X155.15Y-112.05
X155.15Y-112.95
X155.233Y-105.856
X155.4Y-106.725
X155.625Y-95.65
X155.75Y-86.45
X156.0Y-111.2
X156.0Y-112.05
X156.0Y-112.95
X156.025Y-92.15
X156.15Y-89.2
X156.2Y-96.7
X156.85Y-111.2
X156.85Y-112.05
X156.85Y-112.95
X156.95Y-86.45
X157.35Y-91.85
X157.4Y-89.2
X157.445Y-95.65
X157.45Y-96.65
X158.0Y-97.65
X158.95Y-97.75
X159.1Y-106.75
X159.1Y-107.9
X159.2Y-88.0
X159.315Y-105.881
X159.55Y-108.7
X159.633Y-98.337
X159.881Y-105.315
X160.0Y-81.625
X160.2Y-87.1
X160.2Y-99.25
X160.447Y-107.887
X160.447Y-108.687
X160.45Y-91.75
X160.575Y-105.725
X160.575Y-106.825
X160.6Y-104.9
X160.8Y-88.75
X160.8Y-89.71
X160.85Y-95.95
X161.0Y-84.3
X161.0Y-99.55
X161.25Y-96.7
X161.4Y-100.9
X161.47Y-102.55
X161.55Y-104.9
X161.55Y-105.85
X161.55Y-106.825
X161.6Y-100.1
X161.95Y-95.15
X162.0Y-84.275
X162.1Y-89.3
X162.2Y-95.825
X162.4Y-100.9
X162.4Y-105.9
X162.4Y-106.8
X162.5Y-94.6
X162.5Y-117.3
X162.625Y-88.8
X163.0Y-81.6
X163.0Y-101.5
X163.0Y-102.3
X163.1Y-95.975
X163.2Y-88.1
X163.35Y-110.65
X163.35Y-111.35
X163.525Y-107.9
X163.7Y-99.45
X164.065Y-96.7
X164.1Y-88.1
X164.1Y-95.3
X164.2Y-110.65
X164.2Y-111.35
X164.3Y-115.5
X164.325Y-107.9
X164.35Y-104.05
X164.65Y-100.5
X164.95Y-94.4
X165.025Y-101.24
X165.025Y-102.15
X165.025Y-103.05
X165.05Y-110.65
X165.05Y-111.35
X165.15Y-107.9
X165.2Y-96.7
X165.2Y-99.75
X165.56Y-101.24
X165.56Y-102.7
X165.7Y-94.95
X166.0Y-105.6
X166.375Y-88.8
X166.775Y-96.7
X167.25Y-94.15
X167.87Y-86.825
X167.9Y-88.8
X168.04Y-100.275
X168.1Y-95.85
X168.35Y-90.7
X168.35Y-91.7
X168.6Y-86.8
X168.65Y-92.65
X168.8Y-101.725
X168.8Y-102.75
X168.9Y-93.7
X168.95Y-110.65
X168.95Y-111.35
X169.45Y-97.1
X169.8Y-110.65
X169.8Y-111.35
X170.65Y-110.65
X170.65Y-111.35
X171.2Y-103.825
X171.25Y-109.6
X171.25Y-112.4
T3
X144.775Y-91.712
X145.325Y-90.763
X145.325Y-92.662
X145.875Y-91.712
X155.475Y-101.215
X155.475Y-102.585
X156.615Y-100.075
X156.615Y-101.215
X156.615Y-102.585
X156.615Y-103.725
X157.985Y-100.075
X157.985Y-101.215
X157.985Y-102.585
X157.985Y-103.725
X159.125Y-101.215
X159.125Y-102.585
T5
X141.65Y-117.15
X141.65Y-119.85
X144.35Y-117.15
X144.35Y-119.85
X148.65Y-117.15
X148.65Y-119.85
X151.35Y-117.15
X151.35Y-119.85
X155.65Y-117.15
X155.65Y-119.85
X158.35Y-117.15
X158.35Y-119.85
T6
X129.438Y-94.5
X129.438Y-105.5
T7
X143.0Y-118.5
X150.0Y-118.5
X157.0Y-118.5
T8
X139.438Y-97.5
X139.438Y-102.5
T9
X131.0Y-81.0
X131.0Y-119.0
X169.0Y-81.0
X169.0Y-119.0
T4
X147.48Y-79.575G85X147.48Y-78.775
G05
X147.48Y-83.925G85X147.48Y-82.825
G05
X156.12Y-79.575G85X156.12Y-78.775
G05
X156.12Y-83.925G85X156.12Y-82.825
G05
M30
