%TF.GenerationSoftware,KiCad,Pcbnew,8.0.7*%
%TF.CreationDate,2025-10-10T17:09:57-07:00*%
%TF.ProjectId,CurlDrive-2,4375726c-4472-4697-9665-2d322e6b6963,rev?*%
%TF.SameCoordinates,Original*%
%TF.FileFunction,Copper,L5,Inr*%
%TF.FilePolarity,Positive*%
%FSLAX46Y46*%
G04 Gerber Fmt 4.6, Leading zero omitted, Abs format (unit mm)*
G04 Created by KiCad (PCBNEW 8.0.7) date 2025-10-10 17:09:57*
%MOMM*%
%LPD*%
G01*
G04 APERTURE LIST*
G04 Aperture macros list*
%AMRoundRect*
0 Rectangle with rounded corners*
0 $1 Rounding radius*
0 $2 $3 $4 $5 $6 $7 $8 $9 X,Y pos of 4 corners*
0 Add a 4 corners polygon primitive as box body*
4,1,4,$2,$3,$4,$5,$6,$7,$8,$9,$2,$3,0*
0 Add four circle primitives for the rounded corners*
1,1,$1+$1,$2,$3*
1,1,$1+$1,$4,$5*
1,1,$1+$1,$6,$7*
1,1,$1+$1,$8,$9*
0 Add four rect primitives between the rounded corners*
20,1,$1+$1,$2,$3,$4,$5,0*
20,1,$1+$1,$4,$5,$6,$7,0*
20,1,$1+$1,$6,$7,$8,$9,0*
20,1,$1+$1,$8,$9,$2,$3,0*%
G04 Aperture macros list end*
%TA.AperFunction,ComponentPad*%
%ADD10C,3.800000*%
%TD*%
%TA.AperFunction,ComponentPad*%
%ADD11C,0.550000*%
%TD*%
%TA.AperFunction,ComponentPad*%
%ADD12C,1.800000*%
%TD*%
%TA.AperFunction,ComponentPad*%
%ADD13RoundRect,0.675000X1.575000X-1.575000X1.575000X1.575000X-1.575000X1.575000X-1.575000X-1.575000X0*%
%TD*%
%TA.AperFunction,ComponentPad*%
%ADD14C,1.400000*%
%TD*%
%TA.AperFunction,ComponentPad*%
%ADD15RoundRect,0.770000X0.980000X-0.980000X0.980000X0.980000X-0.980000X0.980000X-0.980000X-0.980000X0*%
%TD*%
%TA.AperFunction,ComponentPad*%
%ADD16C,3.500000*%
%TD*%
%TA.AperFunction,ComponentPad*%
%ADD17O,1.000000X2.100000*%
%TD*%
%TA.AperFunction,ComponentPad*%
%ADD18O,1.000000X1.800000*%
%TD*%
%TA.AperFunction,HeatsinkPad*%
%ADD19C,0.499999*%
%TD*%
%TA.AperFunction,ComponentPad*%
%ADD20C,0.500000*%
%TD*%
%TA.AperFunction,ViaPad*%
%ADD21C,0.600000*%
%TD*%
%TA.AperFunction,ViaPad*%
%ADD22C,0.400000*%
%TD*%
G04 APERTURE END LIST*
D10*
X131000000Y-81000000D03*
X131000000Y-119000000D03*
X169000000Y-119000000D03*
X169000000Y-81000000D03*
D11*
X142500000Y-120475000D03*
X143000000Y-120475000D03*
X143500000Y-120475000D03*
X142500000Y-120075000D03*
X143000000Y-120075000D03*
X143500000Y-120075000D03*
D12*
X141650000Y-119850000D03*
X144350000Y-119850000D03*
D11*
X142500000Y-119675000D03*
X143000000Y-119675000D03*
X143500000Y-119675000D03*
X141025000Y-119000000D03*
X141425000Y-119000000D03*
X141825000Y-119000000D03*
X144175000Y-119000000D03*
X144575000Y-119000000D03*
X144975000Y-119000000D03*
X141025000Y-118500000D03*
X141425000Y-118500000D03*
X141825000Y-118500000D03*
D13*
X143000000Y-118500000D03*
D11*
X144175000Y-118500000D03*
X144575000Y-118500000D03*
X144975000Y-118500000D03*
X141025000Y-118000000D03*
X141425000Y-118000000D03*
X141825000Y-118000000D03*
X144175000Y-118000000D03*
X144575000Y-118000000D03*
X144975000Y-118000000D03*
X142500000Y-117325000D03*
X143000000Y-117325000D03*
X143500000Y-117325000D03*
D12*
X141650000Y-117150000D03*
X144350000Y-117150000D03*
D11*
X142500000Y-116925000D03*
X143000000Y-116925000D03*
X143500000Y-116925000D03*
X142500000Y-116525000D03*
X143000000Y-116525000D03*
X143500000Y-116525000D03*
X156500000Y-120475000D03*
X157000000Y-120475000D03*
X157500000Y-120475000D03*
X156500000Y-120075000D03*
X157000000Y-120075000D03*
X157500000Y-120075000D03*
D12*
X155650000Y-119850000D03*
X158350000Y-119850000D03*
D11*
X156500000Y-119675000D03*
X157000000Y-119675000D03*
X157500000Y-119675000D03*
X155025000Y-119000000D03*
X155425000Y-119000000D03*
X155825000Y-119000000D03*
X158175000Y-119000000D03*
X158575000Y-119000000D03*
X158975000Y-119000000D03*
X155025000Y-118500000D03*
X155425000Y-118500000D03*
X155825000Y-118500000D03*
D13*
X157000000Y-118500000D03*
D11*
X158175000Y-118500000D03*
X158575000Y-118500000D03*
X158975000Y-118500000D03*
X155025000Y-118000000D03*
X155425000Y-118000000D03*
X155825000Y-118000000D03*
X158175000Y-118000000D03*
X158575000Y-118000000D03*
X158975000Y-118000000D03*
X156500000Y-117325000D03*
X157000000Y-117325000D03*
X157500000Y-117325000D03*
D12*
X155650000Y-117150000D03*
X158350000Y-117150000D03*
D11*
X156500000Y-116925000D03*
X157000000Y-116925000D03*
X157500000Y-116925000D03*
X156500000Y-116525000D03*
X157000000Y-116525000D03*
X157500000Y-116525000D03*
D14*
X129437500Y-105500000D03*
X129437500Y-94500000D03*
D15*
X139437500Y-97500000D03*
D16*
X139437500Y-102500000D03*
D17*
X156120000Y-83375000D03*
D18*
X156120000Y-79175000D03*
D17*
X147480000Y-83375000D03*
D18*
X147480000Y-79175000D03*
D19*
X155474999Y-101214999D03*
X155474999Y-102584999D03*
X156614999Y-100074999D03*
X156614999Y-101214999D03*
X156614999Y-102584999D03*
X156614999Y-103724999D03*
X157984999Y-100074999D03*
X157984999Y-101214999D03*
X157984999Y-102584999D03*
X157984999Y-103724999D03*
X159124999Y-101214999D03*
X159124999Y-102584999D03*
D11*
X149500000Y-120475000D03*
X150000000Y-120475000D03*
X150500000Y-120475000D03*
X149500000Y-120075000D03*
X150000000Y-120075000D03*
X150500000Y-120075000D03*
D12*
X148650000Y-119850000D03*
X151350000Y-119850000D03*
D11*
X149500000Y-119675000D03*
X150000000Y-119675000D03*
X150500000Y-119675000D03*
X148025000Y-119000000D03*
X148425000Y-119000000D03*
X148825000Y-119000000D03*
X151175000Y-119000000D03*
X151575000Y-119000000D03*
X151975000Y-119000000D03*
X148025000Y-118500000D03*
X148425000Y-118500000D03*
X148825000Y-118500000D03*
D13*
X150000000Y-118500000D03*
D11*
X151175000Y-118500000D03*
X151575000Y-118500000D03*
X151975000Y-118500000D03*
X148025000Y-118000000D03*
X148425000Y-118000000D03*
X148825000Y-118000000D03*
X151175000Y-118000000D03*
X151575000Y-118000000D03*
X151975000Y-118000000D03*
X149500000Y-117325000D03*
X150000000Y-117325000D03*
X150500000Y-117325000D03*
D12*
X148650000Y-117150000D03*
X151350000Y-117150000D03*
D11*
X149500000Y-116925000D03*
X150000000Y-116925000D03*
X150500000Y-116925000D03*
X149500000Y-116525000D03*
X150000000Y-116525000D03*
X150500000Y-116525000D03*
D20*
X145875000Y-91712500D03*
X145325000Y-92662500D03*
X145325000Y-90762500D03*
X144775000Y-91712500D03*
D21*
X141050000Y-84625000D03*
X168040000Y-100275000D03*
X158950000Y-97750000D03*
X138000000Y-100000000D03*
D22*
X153450000Y-106725000D03*
D21*
X133200000Y-78000000D03*
D22*
X165025000Y-103050000D03*
D21*
X136650000Y-97975000D03*
X146750000Y-105850000D03*
X137650000Y-107250000D03*
X163100000Y-95975000D03*
D22*
X147000000Y-105050000D03*
X150000000Y-103650000D03*
X143250000Y-107950000D03*
D21*
X136050000Y-78800000D03*
X162100000Y-89300000D03*
D22*
X145550000Y-103650000D03*
D21*
X137650000Y-104900000D03*
D22*
X165560000Y-101240000D03*
D21*
X170650000Y-110650000D03*
D22*
X145550000Y-105050000D03*
D21*
X162400000Y-105900000D03*
X139300000Y-107200000D03*
X130200000Y-111350000D03*
X134150000Y-78000000D03*
X166000000Y-105600000D03*
D22*
X163700000Y-99450000D03*
X160575000Y-105725000D03*
D21*
X139400000Y-92675000D03*
X128850000Y-112400000D03*
X144250000Y-94750000D03*
D22*
X153960000Y-82800000D03*
D21*
X137875000Y-82925000D03*
X129350000Y-110650000D03*
X141050000Y-82900000D03*
X149300000Y-106800000D03*
X137400000Y-90775000D03*
X168350000Y-90700000D03*
D22*
X162500000Y-117300000D03*
X164650000Y-100500000D03*
D21*
X134150000Y-79575000D03*
X171250000Y-109600000D03*
X136650000Y-96962500D03*
D22*
X148500000Y-103650000D03*
X149720000Y-82270000D03*
D21*
X149250000Y-85400000D03*
X142500000Y-78800000D03*
X162400000Y-106800000D03*
X148450000Y-87950000D03*
D22*
X151500000Y-109000000D03*
D21*
X135100000Y-78800000D03*
X129100000Y-85200000D03*
D22*
X150800000Y-109000000D03*
X144700000Y-105850000D03*
D21*
X136800000Y-82150000D03*
X140275000Y-83750000D03*
X169800000Y-111350000D03*
D22*
X159550000Y-108700000D03*
X151500000Y-105050000D03*
D21*
X142500000Y-80450000D03*
X169800000Y-110650000D03*
X137650000Y-106050000D03*
X171250000Y-112400000D03*
X168950000Y-111350000D03*
D22*
X144100000Y-104500000D03*
D21*
X145550000Y-105850000D03*
X145850000Y-98950000D03*
X133200000Y-78800000D03*
X166775000Y-96700000D03*
X154925000Y-89200000D03*
X137700000Y-88450000D03*
X136650000Y-98987500D03*
X139400000Y-90750000D03*
X140550000Y-104800000D03*
D22*
X153000000Y-105050000D03*
D21*
X139475000Y-82925000D03*
X136650000Y-95950000D03*
X141750000Y-100000000D03*
X131050000Y-110650000D03*
X129350000Y-111350000D03*
X142600000Y-92650000D03*
X133200000Y-79575000D03*
X144900000Y-106800000D03*
X161550000Y-105850000D03*
D22*
X159100000Y-107900000D03*
D21*
X160575000Y-106825000D03*
X140500000Y-100000000D03*
X128850000Y-109600000D03*
X160800000Y-89710000D03*
X156025000Y-92150000D03*
X139300000Y-106000000D03*
X130200000Y-110650000D03*
X135100000Y-78000000D03*
X163000000Y-102300000D03*
X142250000Y-102000000D03*
X165200000Y-99750000D03*
X141000000Y-92675000D03*
D22*
X151500000Y-103650000D03*
X153750000Y-105250000D03*
D21*
X148300000Y-106800000D03*
X137650000Y-108500000D03*
D22*
X164350000Y-104050000D03*
D21*
X155750000Y-86450000D03*
D22*
X159100000Y-106750000D03*
D21*
X170650000Y-111350000D03*
X145850000Y-106800000D03*
X141750000Y-101000000D03*
X143925000Y-80550000D03*
X153700000Y-89200000D03*
X131050000Y-111350000D03*
D22*
X143750000Y-108750000D03*
D21*
X141000000Y-90750000D03*
D22*
X165560000Y-102700000D03*
X165025000Y-102150000D03*
D21*
X141800000Y-103200000D03*
X139250000Y-100000000D03*
X140275000Y-82925000D03*
X139300000Y-104900000D03*
X157445000Y-95650000D03*
X142500000Y-78000000D03*
D22*
X154350000Y-106725000D03*
D21*
X136050000Y-78000000D03*
D22*
X155400000Y-106725000D03*
X152200000Y-109000000D03*
D21*
X168950000Y-110650000D03*
X138675000Y-82925000D03*
X135100000Y-79550000D03*
X141050000Y-83725000D03*
D22*
X130950000Y-97850000D03*
D21*
X139300000Y-108500000D03*
X156150000Y-89200000D03*
X142600000Y-90725000D03*
X157400000Y-89200000D03*
D22*
X148500000Y-105050000D03*
X150000000Y-105050000D03*
D21*
X143525000Y-78840000D03*
X161550000Y-106825000D03*
X152350000Y-91800000D03*
D22*
X143250000Y-105850000D03*
D21*
X141950000Y-86555000D03*
X136650000Y-100000000D03*
X152350000Y-87350000D03*
X150625000Y-98800000D03*
X163000000Y-81600000D03*
X148550000Y-98975000D03*
X148550000Y-98300000D03*
X171200000Y-103825000D03*
X140275000Y-84650000D03*
D22*
X147000000Y-103650000D03*
D21*
X134150000Y-78800000D03*
D22*
X143250000Y-106900000D03*
D21*
X144700000Y-83700000D03*
X160600000Y-104900000D03*
X145775000Y-86000000D03*
D22*
X165025000Y-101240000D03*
D21*
X142500000Y-79600000D03*
X161550000Y-104900000D03*
X148600000Y-91200000D03*
X157450000Y-96650000D03*
X149525000Y-97325000D03*
X149250000Y-89850000D03*
X159200000Y-88000000D03*
X151300000Y-89200000D03*
X160200000Y-87100000D03*
X143100000Y-94750000D03*
X151300000Y-90000000D03*
X167900000Y-88800000D03*
X162200000Y-95825000D03*
X160800000Y-88750000D03*
X160000000Y-81625000D03*
X168100000Y-95850000D03*
X151300000Y-90800000D03*
X150208333Y-101400000D03*
X165050000Y-110650000D03*
X151150000Y-111200000D03*
X135900000Y-110650000D03*
X130350000Y-103600000D03*
X132050000Y-103600000D03*
X132900000Y-105300000D03*
X146300000Y-78200000D03*
X156000000Y-112050000D03*
X131200000Y-105300000D03*
X130350000Y-101900000D03*
X140000000Y-111200000D03*
X152850000Y-111200000D03*
X152000000Y-112050000D03*
X140000000Y-112950000D03*
X132900000Y-107050000D03*
X156000000Y-111200000D03*
X149300000Y-101400000D03*
X139150000Y-111200000D03*
X164200000Y-111350000D03*
X155150000Y-112050000D03*
X151150000Y-112050000D03*
X155150000Y-112950000D03*
X146300000Y-79000000D03*
X140850000Y-112950000D03*
X128600000Y-101900000D03*
X140850000Y-112050000D03*
X135050000Y-110650000D03*
X136750000Y-111350000D03*
X163350000Y-111350000D03*
X151116666Y-101400000D03*
X135050000Y-111350000D03*
X146300000Y-79800000D03*
X163350000Y-110650000D03*
X140000000Y-112050000D03*
X136750000Y-110650000D03*
X155150000Y-111200000D03*
X152000000Y-111200000D03*
X164200000Y-110650000D03*
X156850000Y-112950000D03*
X152850000Y-112950000D03*
X156850000Y-111200000D03*
X128600000Y-103600000D03*
X140850000Y-111200000D03*
X152850000Y-112050000D03*
X131200000Y-107050000D03*
X132050000Y-101900000D03*
X139150000Y-112950000D03*
X152000000Y-112950000D03*
X156850000Y-112050000D03*
X165050000Y-111350000D03*
X151150000Y-112950000D03*
X156000000Y-112950000D03*
X139150000Y-112050000D03*
X135900000Y-111350000D03*
D22*
X150290000Y-89000000D03*
X157350000Y-91850000D03*
D21*
X151000000Y-80950000D03*
X152100000Y-80350000D03*
X156950000Y-86450000D03*
X150000000Y-80950000D03*
X154200000Y-84475000D03*
X149400000Y-84475000D03*
X133900000Y-87400000D03*
X139400000Y-89500000D03*
X163525000Y-107900000D03*
X148600000Y-92200000D03*
X155000000Y-80350000D03*
X165150000Y-107900000D03*
X154300000Y-80350000D03*
X164325000Y-107900000D03*
X141000000Y-89500000D03*
X140200000Y-89500000D03*
X168800000Y-101725000D03*
X161470000Y-102550000D03*
X168800000Y-102750000D03*
X135400000Y-83450000D03*
X134900000Y-84250000D03*
X149200000Y-87400000D03*
X136000000Y-84250000D03*
D22*
X165200000Y-96700000D03*
X131600000Y-96900000D03*
X164065000Y-96700000D03*
X164300000Y-115500000D03*
D21*
X158000000Y-97650000D03*
D22*
X152950000Y-82825000D03*
X150735000Y-82275000D03*
X161000000Y-84300000D03*
X168600000Y-86800000D03*
X167870000Y-86825000D03*
X162000000Y-84275000D03*
X168350000Y-91700000D03*
X168900000Y-93700000D03*
X168650000Y-92650000D03*
D21*
X133900000Y-90875000D03*
X133900000Y-89975000D03*
D22*
X152967157Y-103917157D03*
X144783112Y-108700000D03*
X144783112Y-107900000D03*
X153532843Y-104482843D03*
X150000000Y-108700000D03*
X155232843Y-105855843D03*
X154667157Y-105290157D03*
X150000000Y-107900000D03*
X160447259Y-108687000D03*
X159314970Y-105880798D03*
X159880656Y-105315112D03*
X160447259Y-107887000D03*
X148150000Y-89950000D03*
X162625000Y-88800000D03*
X137100000Y-94650000D03*
D21*
X145650000Y-84537500D03*
D22*
X161250000Y-96700000D03*
X163000000Y-101500000D03*
X162400000Y-100900000D03*
X165700000Y-94950000D03*
X166375000Y-88800000D03*
X164950000Y-94400000D03*
X161400000Y-100900000D03*
X164100000Y-95300000D03*
X161600000Y-100100000D03*
X160850000Y-95950000D03*
X161000000Y-99550000D03*
X162500000Y-94600000D03*
X159633009Y-98337099D03*
X161950000Y-95150000D03*
X160200000Y-99250000D03*
X169450000Y-97100000D03*
X160450000Y-91750000D03*
X156200000Y-96700000D03*
X154200000Y-96300000D03*
X155625000Y-95650000D03*
X163200000Y-88100000D03*
X150820868Y-92479132D03*
X149550000Y-92850000D03*
X164100000Y-88100000D03*
X167250000Y-94150000D03*
%TA.AperFunction,Conductor*%
G36*
X169000611Y-77500007D02*
G01*
X169178777Y-77502338D01*
X169187805Y-77502871D01*
X169542745Y-77540177D01*
X169552960Y-77541795D01*
X169901426Y-77615864D01*
X169911421Y-77618543D01*
X170250217Y-77728626D01*
X170259891Y-77732339D01*
X170395823Y-77792859D01*
X170585327Y-77877231D01*
X170594548Y-77881930D01*
X170903048Y-78060043D01*
X170911732Y-78065681D01*
X171199947Y-78275081D01*
X171207986Y-78281593D01*
X171420978Y-78473371D01*
X171472716Y-78519956D01*
X171480043Y-78527283D01*
X171718401Y-78792006D01*
X171724919Y-78800055D01*
X171870186Y-78999997D01*
X171934316Y-79088264D01*
X171939959Y-79096955D01*
X172118066Y-79405445D01*
X172122771Y-79414678D01*
X172267660Y-79740108D01*
X172271373Y-79749782D01*
X172381456Y-80088578D01*
X172384139Y-80098588D01*
X172458202Y-80447029D01*
X172459823Y-80457264D01*
X172497127Y-80812182D01*
X172497661Y-80821235D01*
X172499992Y-80999388D01*
X172500000Y-81000683D01*
X172500000Y-118999316D01*
X172499992Y-119000611D01*
X172497661Y-119178764D01*
X172497127Y-119187817D01*
X172459823Y-119542735D01*
X172458202Y-119552970D01*
X172384139Y-119901411D01*
X172381456Y-119911421D01*
X172271373Y-120250217D01*
X172267660Y-120259891D01*
X172122771Y-120585321D01*
X172118066Y-120594554D01*
X171939959Y-120903044D01*
X171934316Y-120911735D01*
X171724923Y-121199940D01*
X171718401Y-121207993D01*
X171480043Y-121472716D01*
X171472716Y-121480043D01*
X171207993Y-121718401D01*
X171199940Y-121724923D01*
X170911735Y-121934316D01*
X170903044Y-121939959D01*
X170594554Y-122118066D01*
X170585321Y-122122771D01*
X170259891Y-122267660D01*
X170250217Y-122271373D01*
X169911421Y-122381456D01*
X169901411Y-122384139D01*
X169552970Y-122458202D01*
X169542735Y-122459823D01*
X169187817Y-122497127D01*
X169178764Y-122497661D01*
X169000612Y-122499992D01*
X168999317Y-122500000D01*
X131000683Y-122500000D01*
X130999388Y-122499992D01*
X130821235Y-122497661D01*
X130812182Y-122497127D01*
X130457264Y-122459823D01*
X130447029Y-122458202D01*
X130098588Y-122384139D01*
X130088578Y-122381456D01*
X129749782Y-122271373D01*
X129740108Y-122267660D01*
X129414678Y-122122771D01*
X129405445Y-122118066D01*
X129096955Y-121939959D01*
X129088264Y-121934316D01*
X128800059Y-121724923D01*
X128792011Y-121718405D01*
X128527283Y-121480043D01*
X128519956Y-121472716D01*
X128281593Y-121207986D01*
X128275081Y-121199947D01*
X128065681Y-120911732D01*
X128060040Y-120903044D01*
X128054655Y-120893717D01*
X127881930Y-120594548D01*
X127877228Y-120585321D01*
X127732339Y-120259891D01*
X127728626Y-120250217D01*
X127618543Y-119911421D01*
X127615864Y-119901426D01*
X127541795Y-119552960D01*
X127540177Y-119542745D01*
X127502871Y-119187805D01*
X127502338Y-119178777D01*
X127500008Y-119000611D01*
X127500004Y-118999996D01*
X128894592Y-118999996D01*
X128894592Y-119000003D01*
X128914201Y-119286682D01*
X128914202Y-119286686D01*
X128972666Y-119568032D01*
X129068896Y-119838797D01*
X129201099Y-120093936D01*
X129366811Y-120328698D01*
X129562947Y-120538708D01*
X129785853Y-120720055D01*
X129785859Y-120720059D01*
X129785861Y-120720060D01*
X130031370Y-120869358D01*
X130031382Y-120869365D01*
X130218237Y-120950526D01*
X130294942Y-120983844D01*
X130571642Y-121061371D01*
X130856322Y-121100500D01*
X130856328Y-121100500D01*
X131143672Y-121100500D01*
X131143678Y-121100500D01*
X131428358Y-121061371D01*
X131705058Y-120983844D01*
X131912552Y-120893717D01*
X131968617Y-120869365D01*
X131968620Y-120869362D01*
X131968625Y-120869361D01*
X132214147Y-120720055D01*
X132437053Y-120538708D01*
X132633189Y-120328698D01*
X132798901Y-120093936D01*
X132931104Y-119838797D01*
X133027334Y-119568032D01*
X133085798Y-119286686D01*
X133105408Y-119000000D01*
X133085798Y-118713314D01*
X133027334Y-118431968D01*
X132931104Y-118161203D01*
X132798901Y-117906064D01*
X132633189Y-117671302D01*
X132437053Y-117461292D01*
X132214147Y-117279945D01*
X132214142Y-117279942D01*
X132214138Y-117279939D01*
X131968629Y-117130641D01*
X131968617Y-117130634D01*
X131705063Y-117016158D01*
X131705061Y-117016157D01*
X131705058Y-117016156D01*
X131428358Y-116938629D01*
X131143678Y-116899500D01*
X130856322Y-116899500D01*
X130571642Y-116938629D01*
X130294942Y-117016156D01*
X130294939Y-117016156D01*
X130294936Y-117016158D01*
X130031382Y-117130634D01*
X130031370Y-117130641D01*
X129785861Y-117279939D01*
X129785847Y-117279949D01*
X129562952Y-117461287D01*
X129562951Y-117461288D01*
X129366810Y-117671303D01*
X129366805Y-117671309D01*
X129201098Y-117906065D01*
X129068895Y-118161204D01*
X128972665Y-118431972D01*
X128914203Y-118713308D01*
X128914201Y-118713317D01*
X128894592Y-118999996D01*
X127500004Y-118999996D01*
X127500000Y-118999316D01*
X127500000Y-116868417D01*
X140449500Y-116868417D01*
X140449500Y-120131582D01*
X140459849Y-120247988D01*
X140514426Y-120438725D01*
X140514427Y-120438728D01*
X140566514Y-120538445D01*
X140595823Y-120594554D01*
X140606284Y-120614579D01*
X140731660Y-120768340D01*
X140885421Y-120893716D01*
X141061272Y-120985573D01*
X141213551Y-121029145D01*
X141252011Y-121040150D01*
X141252015Y-121040151D01*
X141368414Y-121050500D01*
X141368418Y-121050500D01*
X144631582Y-121050500D01*
X144631586Y-121050500D01*
X144747985Y-121040151D01*
X144938728Y-120985573D01*
X145114579Y-120893716D01*
X145268340Y-120768340D01*
X145393716Y-120614579D01*
X145485573Y-120438728D01*
X145540151Y-120247985D01*
X145550500Y-120131586D01*
X145550500Y-116868417D01*
X147449500Y-116868417D01*
X147449500Y-120131582D01*
X147459849Y-120247988D01*
X147514426Y-120438725D01*
X147514427Y-120438728D01*
X147566514Y-120538445D01*
X147595823Y-120594554D01*
X147606284Y-120614579D01*
X147731660Y-120768340D01*
X147885421Y-120893716D01*
X148061272Y-120985573D01*
X148213551Y-121029145D01*
X148252011Y-121040150D01*
X148252015Y-121040151D01*
X148368414Y-121050500D01*
X148368418Y-121050500D01*
X151631582Y-121050500D01*
X151631586Y-121050500D01*
X151747985Y-121040151D01*
X151938728Y-120985573D01*
X152114579Y-120893716D01*
X152268340Y-120768340D01*
X152393716Y-120614579D01*
X152485573Y-120438728D01*
X152540151Y-120247985D01*
X152550500Y-120131586D01*
X152550500Y-116868417D01*
X154449500Y-116868417D01*
X154449500Y-120131582D01*
X154459849Y-120247988D01*
X154514426Y-120438725D01*
X154514427Y-120438728D01*
X154566514Y-120538445D01*
X154595823Y-120594554D01*
X154606284Y-120614579D01*
X154731660Y-120768340D01*
X154885421Y-120893716D01*
X155061272Y-120985573D01*
X155213551Y-121029145D01*
X155252011Y-121040150D01*
X155252015Y-121040151D01*
X155368414Y-121050500D01*
X155368418Y-121050500D01*
X158631582Y-121050500D01*
X158631586Y-121050500D01*
X158747985Y-121040151D01*
X158938728Y-120985573D01*
X159114579Y-120893716D01*
X159268340Y-120768340D01*
X159393716Y-120614579D01*
X159485573Y-120438728D01*
X159540151Y-120247985D01*
X159550500Y-120131586D01*
X159550500Y-118999996D01*
X166894592Y-118999996D01*
X166894592Y-119000003D01*
X166914201Y-119286682D01*
X166914202Y-119286686D01*
X166972666Y-119568032D01*
X167068896Y-119838797D01*
X167201099Y-120093936D01*
X167366811Y-120328698D01*
X167562947Y-120538708D01*
X167785853Y-120720055D01*
X167785859Y-120720059D01*
X167785861Y-120720060D01*
X168031370Y-120869358D01*
X168031382Y-120869365D01*
X168218237Y-120950526D01*
X168294942Y-120983844D01*
X168571642Y-121061371D01*
X168856322Y-121100500D01*
X168856328Y-121100500D01*
X169143672Y-121100500D01*
X169143678Y-121100500D01*
X169428358Y-121061371D01*
X169705058Y-120983844D01*
X169912552Y-120893717D01*
X169968617Y-120869365D01*
X169968620Y-120869362D01*
X169968625Y-120869361D01*
X170214147Y-120720055D01*
X170437053Y-120538708D01*
X170633189Y-120328698D01*
X170798901Y-120093936D01*
X170931104Y-119838797D01*
X171027334Y-119568032D01*
X171085798Y-119286686D01*
X171105408Y-119000000D01*
X171085798Y-118713314D01*
X171027334Y-118431968D01*
X170931104Y-118161203D01*
X170798901Y-117906064D01*
X170633189Y-117671302D01*
X170437053Y-117461292D01*
X170214147Y-117279945D01*
X170214142Y-117279942D01*
X170214138Y-117279939D01*
X169968629Y-117130641D01*
X169968617Y-117130634D01*
X169705063Y-117016158D01*
X169705061Y-117016157D01*
X169705058Y-117016156D01*
X169428358Y-116938629D01*
X169143678Y-116899500D01*
X168856322Y-116899500D01*
X168571642Y-116938629D01*
X168294942Y-117016156D01*
X168294939Y-117016156D01*
X168294936Y-117016158D01*
X168031382Y-117130634D01*
X168031370Y-117130641D01*
X167785861Y-117279939D01*
X167785847Y-117279949D01*
X167562952Y-117461287D01*
X167562951Y-117461288D01*
X167366810Y-117671303D01*
X167366805Y-117671309D01*
X167201098Y-117906065D01*
X167068895Y-118161204D01*
X166972665Y-118431972D01*
X166914203Y-118713308D01*
X166914201Y-118713317D01*
X166894592Y-118999996D01*
X159550500Y-118999996D01*
X159550500Y-116868414D01*
X159540151Y-116752015D01*
X159485573Y-116561272D01*
X159393716Y-116385421D01*
X159268340Y-116231660D01*
X159114579Y-116106284D01*
X159114577Y-116106283D01*
X159114576Y-116106282D01*
X159038445Y-116066514D01*
X158938728Y-116014427D01*
X158938725Y-116014426D01*
X158747988Y-115959849D01*
X158698099Y-115955413D01*
X158631586Y-115949500D01*
X155368414Y-115949500D01*
X155310214Y-115954674D01*
X155252011Y-115959849D01*
X155061274Y-116014426D01*
X154885423Y-116106282D01*
X154731663Y-116231657D01*
X154731657Y-116231663D01*
X154606282Y-116385423D01*
X154514426Y-116561274D01*
X154459849Y-116752011D01*
X154449500Y-116868417D01*
X152550500Y-116868417D01*
X152550500Y-116868414D01*
X152540151Y-116752015D01*
X152485573Y-116561272D01*
X152393716Y-116385421D01*
X152268340Y-116231660D01*
X152114579Y-116106284D01*
X152114577Y-116106283D01*
X152114576Y-116106282D01*
X152038445Y-116066514D01*
X151938728Y-116014427D01*
X151938725Y-116014426D01*
X151747988Y-115959849D01*
X151698099Y-115955413D01*
X151631586Y-115949500D01*
X148368414Y-115949500D01*
X148310214Y-115954674D01*
X148252011Y-115959849D01*
X148061274Y-116014426D01*
X147885423Y-116106282D01*
X147731663Y-116231657D01*
X147731657Y-116231663D01*
X147606282Y-116385423D01*
X147514426Y-116561274D01*
X147459849Y-116752011D01*
X147449500Y-116868417D01*
X145550500Y-116868417D01*
X145550500Y-116868414D01*
X145540151Y-116752015D01*
X145485573Y-116561272D01*
X145393716Y-116385421D01*
X145268340Y-116231660D01*
X145114579Y-116106284D01*
X145114577Y-116106283D01*
X145114576Y-116106282D01*
X145038445Y-116066514D01*
X144938728Y-116014427D01*
X144938725Y-116014426D01*
X144747988Y-115959849D01*
X144698099Y-115955413D01*
X144631586Y-115949500D01*
X141368414Y-115949500D01*
X141310214Y-115954674D01*
X141252011Y-115959849D01*
X141061274Y-116014426D01*
X140885423Y-116106282D01*
X140731663Y-116231657D01*
X140731657Y-116231663D01*
X140606282Y-116385423D01*
X140514426Y-116561274D01*
X140459849Y-116752011D01*
X140449500Y-116868417D01*
X127500000Y-116868417D01*
X127500000Y-115499999D01*
X163894508Y-115499999D01*
X163894508Y-115500000D01*
X163914354Y-115625303D01*
X163914355Y-115625307D01*
X163969944Y-115734406D01*
X163971950Y-115738342D01*
X164061658Y-115828050D01*
X164174696Y-115885646D01*
X164300000Y-115905492D01*
X164425304Y-115885646D01*
X164538342Y-115828050D01*
X164628050Y-115738342D01*
X164685646Y-115625304D01*
X164705492Y-115500000D01*
X164685646Y-115374696D01*
X164628050Y-115261658D01*
X164538342Y-115171950D01*
X164534406Y-115169944D01*
X164425307Y-115114355D01*
X164425304Y-115114354D01*
X164300000Y-115094508D01*
X164174696Y-115114354D01*
X164174692Y-115114355D01*
X164061659Y-115171949D01*
X163971949Y-115261659D01*
X163914355Y-115374692D01*
X163914354Y-115374696D01*
X163894508Y-115499999D01*
X127500000Y-115499999D01*
X127500000Y-110649997D01*
X134544353Y-110649997D01*
X134544353Y-110650002D01*
X134564834Y-110792456D01*
X134624623Y-110923373D01*
X134634845Y-110935171D01*
X134658661Y-110991531D01*
X134644801Y-111051126D01*
X134634845Y-111064829D01*
X134624623Y-111076626D01*
X134564834Y-111207543D01*
X134544353Y-111349997D01*
X134544353Y-111350002D01*
X134564834Y-111492456D01*
X134621497Y-111616529D01*
X134624623Y-111623373D01*
X134718872Y-111732143D01*
X134718873Y-111732144D01*
X134788092Y-111776628D01*
X134839947Y-111809953D01*
X134946403Y-111841211D01*
X134978035Y-111850499D01*
X134978036Y-111850499D01*
X134978039Y-111850500D01*
X134978041Y-111850500D01*
X135121959Y-111850500D01*
X135121961Y-111850500D01*
X135260053Y-111809953D01*
X135381128Y-111732143D01*
X135400181Y-111710154D01*
X135452576Y-111678559D01*
X135513537Y-111683794D01*
X135549818Y-111710153D01*
X135568872Y-111732143D01*
X135568873Y-111732144D01*
X135638092Y-111776628D01*
X135689947Y-111809953D01*
X135796403Y-111841211D01*
X135828035Y-111850499D01*
X135828036Y-111850499D01*
X135828039Y-111850500D01*
X135828041Y-111850500D01*
X135971959Y-111850500D01*
X135971961Y-111850500D01*
X136110053Y-111809953D01*
X136231128Y-111732143D01*
X136250181Y-111710154D01*
X136302576Y-111678559D01*
X136363537Y-111683794D01*
X136399818Y-111710153D01*
X136418872Y-111732143D01*
X136418873Y-111732144D01*
X136488092Y-111776628D01*
X136539947Y-111809953D01*
X136646403Y-111841211D01*
X136678035Y-111850499D01*
X136678036Y-111850499D01*
X136678039Y-111850500D01*
X136678041Y-111850500D01*
X136821959Y-111850500D01*
X136821961Y-111850500D01*
X136960053Y-111809953D01*
X137081128Y-111732143D01*
X137175377Y-111623373D01*
X137235165Y-111492457D01*
X137255647Y-111350000D01*
X137254562Y-111342457D01*
X137235165Y-111207543D01*
X137231719Y-111199997D01*
X138644353Y-111199997D01*
X138644353Y-111200002D01*
X138664834Y-111342456D01*
X138724623Y-111473373D01*
X138799831Y-111560170D01*
X138823648Y-111616529D01*
X138809789Y-111676124D01*
X138799831Y-111689830D01*
X138724623Y-111776626D01*
X138664834Y-111907543D01*
X138644353Y-112049997D01*
X138644353Y-112050002D01*
X138664834Y-112192456D01*
X138724622Y-112323371D01*
X138724623Y-112323373D01*
X138818509Y-112431725D01*
X138821494Y-112435169D01*
X138845311Y-112491529D01*
X138831452Y-112551124D01*
X138821494Y-112564831D01*
X138724622Y-112676628D01*
X138664834Y-112807543D01*
X138644353Y-112949997D01*
X138644353Y-112950002D01*
X138664834Y-113092456D01*
X138724622Y-113223371D01*
X138724623Y-113223373D01*
X138818872Y-113332143D01*
X138818873Y-113332144D01*
X138939942Y-113409950D01*
X138939947Y-113409953D01*
X139046403Y-113441211D01*
X139078035Y-113450499D01*
X139078036Y-113450499D01*
X139078039Y-113450500D01*
X139078041Y-113450500D01*
X139221959Y-113450500D01*
X139221961Y-113450500D01*
X139360053Y-113409953D01*
X139481128Y-113332143D01*
X139500181Y-113310154D01*
X139552576Y-113278559D01*
X139613537Y-113283794D01*
X139649818Y-113310153D01*
X139668872Y-113332143D01*
X139668873Y-113332144D01*
X139789942Y-113409950D01*
X139789947Y-113409953D01*
X139896403Y-113441211D01*
X139928035Y-113450499D01*
X139928036Y-113450499D01*
X139928039Y-113450500D01*
X139928041Y-113450500D01*
X140071959Y-113450500D01*
X140071961Y-113450500D01*
X140210053Y-113409953D01*
X140331128Y-113332143D01*
X140350181Y-113310154D01*
X140402576Y-113278559D01*
X140463537Y-113283794D01*
X140499818Y-113310153D01*
X140518872Y-113332143D01*
X140518873Y-113332144D01*
X140639942Y-113409950D01*
X140639947Y-113409953D01*
X140746403Y-113441211D01*
X140778035Y-113450499D01*
X140778036Y-113450499D01*
X140778039Y-113450500D01*
X140778041Y-113450500D01*
X140921959Y-113450500D01*
X140921961Y-113450500D01*
X141060053Y-113409953D01*
X141181128Y-113332143D01*
X141275377Y-113223373D01*
X141335165Y-113092457D01*
X141355647Y-112950000D01*
X141335165Y-112807543D01*
X141275377Y-112676627D01*
X141181128Y-112567857D01*
X141178506Y-112564831D01*
X141154688Y-112508472D01*
X141168547Y-112448876D01*
X141178506Y-112435169D01*
X141181128Y-112432143D01*
X141275377Y-112323373D01*
X141335165Y-112192457D01*
X141355647Y-112050000D01*
X141335165Y-111907543D01*
X141275377Y-111776627D01*
X141200167Y-111689830D01*
X141176351Y-111633471D01*
X141190210Y-111573876D01*
X141200165Y-111560172D01*
X141275377Y-111473373D01*
X141335165Y-111342457D01*
X141341992Y-111294971D01*
X141355647Y-111200002D01*
X141355647Y-111199997D01*
X150644353Y-111199997D01*
X150644353Y-111200002D01*
X150664834Y-111342456D01*
X150724623Y-111473373D01*
X150799831Y-111560170D01*
X150823648Y-111616529D01*
X150809789Y-111676124D01*
X150799831Y-111689830D01*
X150724623Y-111776626D01*
X150664834Y-111907543D01*
X150644353Y-112049997D01*
X150644353Y-112050002D01*
X150664834Y-112192456D01*
X150724622Y-112323371D01*
X150724623Y-112323373D01*
X150818509Y-112431725D01*
X150821494Y-112435169D01*
X150845311Y-112491529D01*
X150831452Y-112551124D01*
X150821494Y-112564831D01*
X150724622Y-112676628D01*
X150664834Y-112807543D01*
X150644353Y-112949997D01*
X150644353Y-112950002D01*
X150664834Y-113092456D01*
X150724622Y-113223371D01*
X150724623Y-113223373D01*
X150818872Y-113332143D01*
X150818873Y-113332144D01*
X150939942Y-113409950D01*
X150939947Y-113409953D01*
X151046403Y-113441211D01*
X151078035Y-113450499D01*
X151078036Y-113450499D01*
X151078039Y-113450500D01*
X151078041Y-113450500D01*
X151221959Y-113450500D01*
X151221961Y-113450500D01*
X151360053Y-113409953D01*
X151481128Y-113332143D01*
X151500181Y-113310154D01*
X151552576Y-113278559D01*
X151613537Y-113283794D01*
X151649818Y-113310153D01*
X151668872Y-113332143D01*
X151668873Y-113332144D01*
X151789942Y-113409950D01*
X151789947Y-113409953D01*
X151896403Y-113441211D01*
X151928035Y-113450499D01*
X151928036Y-113450499D01*
X151928039Y-113450500D01*
X151928041Y-113450500D01*
X152071959Y-113450500D01*
X152071961Y-113450500D01*
X152210053Y-113409953D01*
X152331128Y-113332143D01*
X152350181Y-113310154D01*
X152402576Y-113278559D01*
X152463537Y-113283794D01*
X152499818Y-113310153D01*
X152518872Y-113332143D01*
X152518873Y-113332144D01*
X152639942Y-113409950D01*
X152639947Y-113409953D01*
X152746403Y-113441211D01*
X152778035Y-113450499D01*
X152778036Y-113450499D01*
X152778039Y-113450500D01*
X152778041Y-113450500D01*
X152921959Y-113450500D01*
X152921961Y-113450500D01*
X153060053Y-113409953D01*
X153181128Y-113332143D01*
X153275377Y-113223373D01*
X153335165Y-113092457D01*
X153355647Y-112950000D01*
X153335165Y-112807543D01*
X153275377Y-112676627D01*
X153181128Y-112567857D01*
X153178506Y-112564831D01*
X153154688Y-112508472D01*
X153168547Y-112448876D01*
X153178506Y-112435169D01*
X153181128Y-112432143D01*
X153275377Y-112323373D01*
X153335165Y-112192457D01*
X153355647Y-112050000D01*
X153335165Y-111907543D01*
X153275377Y-111776627D01*
X153200167Y-111689830D01*
X153176351Y-111633471D01*
X153190210Y-111573876D01*
X153200165Y-111560172D01*
X153275377Y-111473373D01*
X153335165Y-111342457D01*
X153341992Y-111294971D01*
X153355647Y-111200002D01*
X153355647Y-111199997D01*
X154644353Y-111199997D01*
X154644353Y-111200002D01*
X154664834Y-111342456D01*
X154724623Y-111473373D01*
X154799831Y-111560170D01*
X154823648Y-111616529D01*
X154809789Y-111676124D01*
X154799831Y-111689830D01*
X154724623Y-111776626D01*
X154664834Y-111907543D01*
X154644353Y-112049997D01*
X154644353Y-112050002D01*
X154664834Y-112192456D01*
X154724622Y-112323371D01*
X154724623Y-112323373D01*
X154818509Y-112431725D01*
X154821494Y-112435169D01*
X154845311Y-112491529D01*
X154831452Y-112551124D01*
X154821494Y-112564831D01*
X154724622Y-112676628D01*
X154664834Y-112807543D01*
X154644353Y-112949997D01*
X154644353Y-112950002D01*
X154664834Y-113092456D01*
X154724622Y-113223371D01*
X154724623Y-113223373D01*
X154818872Y-113332143D01*
X154818873Y-113332144D01*
X154939942Y-113409950D01*
X154939947Y-113409953D01*
X155046403Y-113441211D01*
X155078035Y-113450499D01*
X155078036Y-113450499D01*
X155078039Y-113450500D01*
X155078041Y-113450500D01*
X155221959Y-113450500D01*
X155221961Y-113450500D01*
X155360053Y-113409953D01*
X155481128Y-113332143D01*
X155500181Y-113310154D01*
X155552576Y-113278559D01*
X155613537Y-113283794D01*
X155649818Y-113310153D01*
X155668872Y-113332143D01*
X155668873Y-113332144D01*
X155789942Y-113409950D01*
X155789947Y-113409953D01*
X155896403Y-113441211D01*
X155928035Y-113450499D01*
X155928036Y-113450499D01*
X155928039Y-113450500D01*
X155928041Y-113450500D01*
X156071959Y-113450500D01*
X156071961Y-113450500D01*
X156210053Y-113409953D01*
X156331128Y-113332143D01*
X156350181Y-113310154D01*
X156402576Y-113278559D01*
X156463537Y-113283794D01*
X156499818Y-113310153D01*
X156518872Y-113332143D01*
X156518873Y-113332144D01*
X156639942Y-113409950D01*
X156639947Y-113409953D01*
X156746403Y-113441211D01*
X156778035Y-113450499D01*
X156778036Y-113450499D01*
X156778039Y-113450500D01*
X156778041Y-113450500D01*
X156921959Y-113450500D01*
X156921961Y-113450500D01*
X157060053Y-113409953D01*
X157181128Y-113332143D01*
X157275377Y-113223373D01*
X157335165Y-113092457D01*
X157355647Y-112950000D01*
X157335165Y-112807543D01*
X157275377Y-112676627D01*
X157181128Y-112567857D01*
X157178506Y-112564831D01*
X157154688Y-112508472D01*
X157168547Y-112448876D01*
X157178506Y-112435169D01*
X157181128Y-112432143D01*
X157275377Y-112323373D01*
X157335165Y-112192457D01*
X157355647Y-112050000D01*
X157335165Y-111907543D01*
X157275377Y-111776627D01*
X157200167Y-111689830D01*
X157176351Y-111633471D01*
X157190210Y-111573876D01*
X157200165Y-111560172D01*
X157275377Y-111473373D01*
X157335165Y-111342457D01*
X157341992Y-111294971D01*
X157355647Y-111200002D01*
X157355647Y-111199997D01*
X157335165Y-111057543D01*
X157312756Y-111008475D01*
X157275377Y-110926627D01*
X157181128Y-110817857D01*
X157181127Y-110817856D01*
X157181126Y-110817855D01*
X157060057Y-110740049D01*
X157060054Y-110740047D01*
X157060053Y-110740047D01*
X157060050Y-110740046D01*
X156921964Y-110699500D01*
X156921961Y-110699500D01*
X156778039Y-110699500D01*
X156778035Y-110699500D01*
X156639949Y-110740046D01*
X156639942Y-110740049D01*
X156518876Y-110817854D01*
X156518870Y-110817859D01*
X156499818Y-110839846D01*
X156447422Y-110871441D01*
X156386461Y-110866205D01*
X156350182Y-110839846D01*
X156343326Y-110831935D01*
X156331128Y-110817857D01*
X156291603Y-110792456D01*
X156210057Y-110740049D01*
X156210054Y-110740047D01*
X156210053Y-110740047D01*
X156210050Y-110740046D01*
X156071964Y-110699500D01*
X156071961Y-110699500D01*
X155928039Y-110699500D01*
X155928035Y-110699500D01*
X155789949Y-110740046D01*
X155789942Y-110740049D01*
X155668876Y-110817854D01*
X155668870Y-110817859D01*
X155649818Y-110839846D01*
X155597422Y-110871441D01*
X155536461Y-110866205D01*
X155500182Y-110839846D01*
X155493326Y-110831935D01*
X155481128Y-110817857D01*
X155441603Y-110792456D01*
X155360057Y-110740049D01*
X155360054Y-110740047D01*
X155360053Y-110740047D01*
X155360050Y-110740046D01*
X155221964Y-110699500D01*
X155221961Y-110699500D01*
X155078039Y-110699500D01*
X155078035Y-110699500D01*
X154939949Y-110740046D01*
X154939942Y-110740049D01*
X154818873Y-110817855D01*
X154724622Y-110926628D01*
X154664834Y-111057543D01*
X154644353Y-111199997D01*
X153355647Y-111199997D01*
X153335165Y-111057543D01*
X153312756Y-111008475D01*
X153275377Y-110926627D01*
X153181128Y-110817857D01*
X153181127Y-110817856D01*
X153181126Y-110817855D01*
X153060057Y-110740049D01*
X153060054Y-110740047D01*
X153060053Y-110740047D01*
X153060050Y-110740046D01*
X152921964Y-110699500D01*
X152921961Y-110699500D01*
X152778039Y-110699500D01*
X152778035Y-110699500D01*
X152639949Y-110740046D01*
X152639942Y-110740049D01*
X152518876Y-110817854D01*
X152518870Y-110817859D01*
X152499818Y-110839846D01*
X152447422Y-110871441D01*
X152386461Y-110866205D01*
X152350182Y-110839846D01*
X152343326Y-110831935D01*
X152331128Y-110817857D01*
X152291603Y-110792456D01*
X152210057Y-110740049D01*
X152210054Y-110740047D01*
X152210053Y-110740047D01*
X152210050Y-110740046D01*
X152071964Y-110699500D01*
X152071961Y-110699500D01*
X151928039Y-110699500D01*
X151928035Y-110699500D01*
X151789949Y-110740046D01*
X151789942Y-110740049D01*
X151668876Y-110817854D01*
X151668870Y-110817859D01*
X151649818Y-110839846D01*
X151597422Y-110871441D01*
X151536461Y-110866205D01*
X151500182Y-110839846D01*
X151493326Y-110831935D01*
X151481128Y-110817857D01*
X151441603Y-110792456D01*
X151360057Y-110740049D01*
X151360054Y-110740047D01*
X151360053Y-110740047D01*
X151360050Y-110740046D01*
X151221964Y-110699500D01*
X151221961Y-110699500D01*
X151078039Y-110699500D01*
X151078035Y-110699500D01*
X150939949Y-110740046D01*
X150939942Y-110740049D01*
X150818873Y-110817855D01*
X150724622Y-110926628D01*
X150664834Y-111057543D01*
X150644353Y-111199997D01*
X141355647Y-111199997D01*
X141335165Y-111057543D01*
X141312756Y-111008475D01*
X141275377Y-110926627D01*
X141181128Y-110817857D01*
X141181127Y-110817856D01*
X141181126Y-110817855D01*
X141060057Y-110740049D01*
X141060054Y-110740047D01*
X141060053Y-110740047D01*
X141060050Y-110740046D01*
X140921964Y-110699500D01*
X140921961Y-110699500D01*
X140778039Y-110699500D01*
X140778035Y-110699500D01*
X140639949Y-110740046D01*
X140639942Y-110740049D01*
X140518876Y-110817854D01*
X140518870Y-110817859D01*
X140499818Y-110839846D01*
X140447422Y-110871441D01*
X140386461Y-110866205D01*
X140350182Y-110839846D01*
X140343326Y-110831935D01*
X140331128Y-110817857D01*
X140291603Y-110792456D01*
X140210057Y-110740049D01*
X140210054Y-110740047D01*
X140210053Y-110740047D01*
X140210050Y-110740046D01*
X140071964Y-110699500D01*
X140071961Y-110699500D01*
X139928039Y-110699500D01*
X139928035Y-110699500D01*
X139789949Y-110740046D01*
X139789942Y-110740049D01*
X139668876Y-110817854D01*
X139668870Y-110817859D01*
X139649818Y-110839846D01*
X139597422Y-110871441D01*
X139536461Y-110866205D01*
X139500182Y-110839846D01*
X139493326Y-110831935D01*
X139481128Y-110817857D01*
X139441603Y-110792456D01*
X139360057Y-110740049D01*
X139360054Y-110740047D01*
X139360053Y-110740047D01*
X139360050Y-110740046D01*
X139221964Y-110699500D01*
X139221961Y-110699500D01*
X139078039Y-110699500D01*
X139078035Y-110699500D01*
X138939949Y-110740046D01*
X138939942Y-110740049D01*
X138818873Y-110817855D01*
X138724622Y-110926628D01*
X138664834Y-111057543D01*
X138644353Y-111199997D01*
X137231719Y-111199997D01*
X137175377Y-111076628D01*
X137175377Y-111076627D01*
X137165155Y-111064831D01*
X137141337Y-111008475D01*
X137155194Y-110948880D01*
X137165150Y-110935174D01*
X137175377Y-110923373D01*
X137235165Y-110792457D01*
X137255647Y-110650000D01*
X137255647Y-110649997D01*
X162844353Y-110649997D01*
X162844353Y-110650002D01*
X162864834Y-110792456D01*
X162924623Y-110923373D01*
X162934845Y-110935171D01*
X162958661Y-110991531D01*
X162944801Y-111051126D01*
X162934845Y-111064829D01*
X162924623Y-111076626D01*
X162864834Y-111207543D01*
X162844353Y-111349997D01*
X162844353Y-111350002D01*
X162864834Y-111492456D01*
X162921497Y-111616529D01*
X162924623Y-111623373D01*
X163018872Y-111732143D01*
X163018873Y-111732144D01*
X163088092Y-111776628D01*
X163139947Y-111809953D01*
X163246403Y-111841211D01*
X163278035Y-111850499D01*
X163278036Y-111850499D01*
X163278039Y-111850500D01*
X163278041Y-111850500D01*
X163421959Y-111850500D01*
X163421961Y-111850500D01*
X163560053Y-111809953D01*
X163681128Y-111732143D01*
X163700181Y-111710154D01*
X163752576Y-111678559D01*
X163813537Y-111683794D01*
X163849818Y-111710153D01*
X163868872Y-111732143D01*
X163868873Y-111732144D01*
X163938092Y-111776628D01*
X163989947Y-111809953D01*
X164096403Y-111841211D01*
X164128035Y-111850499D01*
X164128036Y-111850499D01*
X164128039Y-111850500D01*
X164128041Y-111850500D01*
X164271959Y-111850500D01*
X164271961Y-111850500D01*
X164410053Y-111809953D01*
X164531128Y-111732143D01*
X164550181Y-111710154D01*
X164602576Y-111678559D01*
X164663537Y-111683794D01*
X164699818Y-111710153D01*
X164718872Y-111732143D01*
X164718873Y-111732144D01*
X164788092Y-111776628D01*
X164839947Y-111809953D01*
X164946403Y-111841211D01*
X164978035Y-111850499D01*
X164978036Y-111850499D01*
X164978039Y-111850500D01*
X164978041Y-111850500D01*
X165121959Y-111850500D01*
X165121961Y-111850500D01*
X165260053Y-111809953D01*
X165381128Y-111732143D01*
X165475377Y-111623373D01*
X165535165Y-111492457D01*
X165555647Y-111350000D01*
X165554562Y-111342457D01*
X165535165Y-111207543D01*
X165475377Y-111076628D01*
X165475377Y-111076627D01*
X165465155Y-111064831D01*
X165441337Y-111008475D01*
X165455194Y-110948880D01*
X165465150Y-110935174D01*
X165475377Y-110923373D01*
X165535165Y-110792457D01*
X165555647Y-110650000D01*
X165535165Y-110507543D01*
X165475377Y-110376627D01*
X165381128Y-110267857D01*
X165381127Y-110267856D01*
X165381126Y-110267855D01*
X165260057Y-110190049D01*
X165260054Y-110190047D01*
X165260053Y-110190047D01*
X165260050Y-110190046D01*
X165121964Y-110149500D01*
X165121961Y-110149500D01*
X164978039Y-110149500D01*
X164978035Y-110149500D01*
X164839949Y-110190046D01*
X164839942Y-110190049D01*
X164718876Y-110267854D01*
X164718870Y-110267859D01*
X164699818Y-110289846D01*
X164647422Y-110321441D01*
X164586461Y-110316205D01*
X164550182Y-110289846D01*
X164543326Y-110281935D01*
X164531128Y-110267857D01*
X164498182Y-110246684D01*
X164410057Y-110190049D01*
X164410054Y-110190047D01*
X164410053Y-110190047D01*
X164410050Y-110190046D01*
X164271964Y-110149500D01*
X164271961Y-110149500D01*
X164128039Y-110149500D01*
X164128035Y-110149500D01*
X163989949Y-110190046D01*
X163989942Y-110190049D01*
X163868876Y-110267854D01*
X163868870Y-110267859D01*
X163849818Y-110289846D01*
X163797422Y-110321441D01*
X163736461Y-110316205D01*
X163700182Y-110289846D01*
X163693326Y-110281935D01*
X163681128Y-110267857D01*
X163648182Y-110246684D01*
X163560057Y-110190049D01*
X163560054Y-110190047D01*
X163560053Y-110190047D01*
X163560050Y-110190046D01*
X163421964Y-110149500D01*
X163421961Y-110149500D01*
X163278039Y-110149500D01*
X163278035Y-110149500D01*
X163139949Y-110190046D01*
X163139942Y-110190049D01*
X163018873Y-110267855D01*
X162924622Y-110376628D01*
X162864834Y-110507543D01*
X162844353Y-110649997D01*
X137255647Y-110649997D01*
X137235165Y-110507543D01*
X137175377Y-110376627D01*
X137081128Y-110267857D01*
X137081127Y-110267856D01*
X137081126Y-110267855D01*
X136960057Y-110190049D01*
X136960054Y-110190047D01*
X136960053Y-110190047D01*
X136960050Y-110190046D01*
X136821964Y-110149500D01*
X136821961Y-110149500D01*
X136678039Y-110149500D01*
X136678035Y-110149500D01*
X136539949Y-110190046D01*
X136539942Y-110190049D01*
X136418876Y-110267854D01*
X136418870Y-110267859D01*
X136399818Y-110289846D01*
X136347422Y-110321441D01*
X136286461Y-110316205D01*
X136250182Y-110289846D01*
X136243326Y-110281935D01*
X136231128Y-110267857D01*
X136198182Y-110246684D01*
X136110057Y-110190049D01*
X136110054Y-110190047D01*
X136110053Y-110190047D01*
X136110050Y-110190046D01*
X135971964Y-110149500D01*
X135971961Y-110149500D01*
X135828039Y-110149500D01*
X135828035Y-110149500D01*
X135689949Y-110190046D01*
X135689942Y-110190049D01*
X135568876Y-110267854D01*
X135568870Y-110267859D01*
X135549818Y-110289846D01*
X135497422Y-110321441D01*
X135436461Y-110316205D01*
X135400182Y-110289846D01*
X135393326Y-110281935D01*
X135381128Y-110267857D01*
X135348182Y-110246684D01*
X135260057Y-110190049D01*
X135260054Y-110190047D01*
X135260053Y-110190047D01*
X135260050Y-110190046D01*
X135121964Y-110149500D01*
X135121961Y-110149500D01*
X134978039Y-110149500D01*
X134978035Y-110149500D01*
X134839949Y-110190046D01*
X134839942Y-110190049D01*
X134718873Y-110267855D01*
X134624622Y-110376628D01*
X134564834Y-110507543D01*
X134544353Y-110649997D01*
X127500000Y-110649997D01*
X127500000Y-107900000D01*
X144377620Y-107900000D01*
X144395407Y-108012307D01*
X144397466Y-108025303D01*
X144397467Y-108025307D01*
X144448437Y-108125340D01*
X144455062Y-108138342D01*
X144544770Y-108228050D01*
X144544772Y-108228051D01*
X144546717Y-108229996D01*
X144574494Y-108284513D01*
X144564923Y-108344945D01*
X144546717Y-108370004D01*
X144544771Y-108371948D01*
X144544770Y-108371950D01*
X144468062Y-108448658D01*
X144455061Y-108461659D01*
X144397467Y-108574692D01*
X144397466Y-108574696D01*
X144377620Y-108700000D01*
X144395407Y-108812307D01*
X144397466Y-108825303D01*
X144397467Y-108825307D01*
X144448437Y-108925340D01*
X144455062Y-108938342D01*
X144544770Y-109028050D01*
X144657808Y-109085646D01*
X144783112Y-109105492D01*
X144908416Y-109085646D01*
X145021454Y-109028050D01*
X145111162Y-108938342D01*
X145168758Y-108825304D01*
X145188604Y-108700000D01*
X145168758Y-108574696D01*
X145111162Y-108461658D01*
X145021454Y-108371950D01*
X145021451Y-108371948D01*
X145019507Y-108370004D01*
X144991730Y-108315487D01*
X145001301Y-108255055D01*
X145019507Y-108229996D01*
X145021451Y-108228051D01*
X145021454Y-108228050D01*
X145111162Y-108138342D01*
X145168758Y-108025304D01*
X145188604Y-107900000D01*
X149594508Y-107900000D01*
X149612295Y-108012307D01*
X149614354Y-108025303D01*
X149614355Y-108025307D01*
X149665325Y-108125340D01*
X149671950Y-108138342D01*
X149761658Y-108228050D01*
X149761660Y-108228051D01*
X149763605Y-108229996D01*
X149791382Y-108284513D01*
X149781811Y-108344945D01*
X149763605Y-108370004D01*
X149761659Y-108371948D01*
X149761658Y-108371950D01*
X149684950Y-108448658D01*
X149671949Y-108461659D01*
X149614355Y-108574692D01*
X149614354Y-108574696D01*
X149594508Y-108700000D01*
X149612295Y-108812307D01*
X149614354Y-108825303D01*
X149614355Y-108825307D01*
X149665325Y-108925340D01*
X149671950Y-108938342D01*
X149761658Y-109028050D01*
X149874696Y-109085646D01*
X150000000Y-109105492D01*
X150125304Y-109085646D01*
X150238342Y-109028050D01*
X150328050Y-108938342D01*
X150385646Y-108825304D01*
X150405492Y-108700000D01*
X150385646Y-108574696D01*
X150328050Y-108461658D01*
X150238342Y-108371950D01*
X150238339Y-108371948D01*
X150236395Y-108370004D01*
X150208618Y-108315487D01*
X150218189Y-108255055D01*
X150236395Y-108229996D01*
X150238339Y-108228051D01*
X150238342Y-108228050D01*
X150328050Y-108138342D01*
X150385646Y-108025304D01*
X150405492Y-107900000D01*
X150403433Y-107886999D01*
X160041767Y-107886999D01*
X160041767Y-107887000D01*
X160061613Y-108012303D01*
X160061614Y-108012307D01*
X160117203Y-108121406D01*
X160119209Y-108125342D01*
X160208917Y-108215050D01*
X160208919Y-108215051D01*
X160210864Y-108216996D01*
X160238641Y-108271513D01*
X160229070Y-108331945D01*
X160210864Y-108357004D01*
X160208918Y-108358948D01*
X160208917Y-108358950D01*
X160119209Y-108448658D01*
X160119208Y-108448659D01*
X160061614Y-108561692D01*
X160061613Y-108561696D01*
X160041767Y-108686999D01*
X160041767Y-108687000D01*
X160061613Y-108812303D01*
X160061614Y-108812307D01*
X160068238Y-108825307D01*
X160119209Y-108925342D01*
X160208917Y-109015050D01*
X160321955Y-109072646D01*
X160447259Y-109092492D01*
X160572563Y-109072646D01*
X160685601Y-109015050D01*
X160775309Y-108925342D01*
X160832905Y-108812304D01*
X160852751Y-108687000D01*
X160832905Y-108561696D01*
X160775309Y-108448658D01*
X160685601Y-108358950D01*
X160685598Y-108358948D01*
X160683654Y-108357004D01*
X160655877Y-108302487D01*
X160665448Y-108242055D01*
X160683654Y-108216996D01*
X160685598Y-108215051D01*
X160685601Y-108215050D01*
X160775309Y-108125342D01*
X160832905Y-108012304D01*
X160850692Y-107899997D01*
X163019353Y-107899997D01*
X163019353Y-107900002D01*
X163039834Y-108042456D01*
X163099622Y-108173371D01*
X163099623Y-108173373D01*
X163184661Y-108271513D01*
X163193873Y-108282144D01*
X163291594Y-108344945D01*
X163314947Y-108359953D01*
X163421403Y-108391211D01*
X163453035Y-108400499D01*
X163453036Y-108400499D01*
X163453039Y-108400500D01*
X163453041Y-108400500D01*
X163596959Y-108400500D01*
X163596961Y-108400500D01*
X163735053Y-108359953D01*
X163856128Y-108282143D01*
X163856136Y-108282133D01*
X163860165Y-108278644D01*
X163916523Y-108254824D01*
X163976119Y-108268679D01*
X163989835Y-108278644D01*
X163993866Y-108282137D01*
X163993872Y-108282143D01*
X164114947Y-108359953D01*
X164221403Y-108391211D01*
X164253035Y-108400499D01*
X164253036Y-108400499D01*
X164253039Y-108400500D01*
X164253041Y-108400500D01*
X164396959Y-108400500D01*
X164396961Y-108400500D01*
X164535053Y-108359953D01*
X164656128Y-108282143D01*
X164662680Y-108274580D01*
X164715076Y-108242985D01*
X164776037Y-108248220D01*
X164812320Y-108274581D01*
X164818873Y-108282144D01*
X164916594Y-108344945D01*
X164939947Y-108359953D01*
X165046403Y-108391211D01*
X165078035Y-108400499D01*
X165078036Y-108400499D01*
X165078039Y-108400500D01*
X165078041Y-108400500D01*
X165221959Y-108400500D01*
X165221961Y-108400500D01*
X165360053Y-108359953D01*
X165481128Y-108282143D01*
X165575377Y-108173373D01*
X165635165Y-108042457D01*
X165655647Y-107900000D01*
X165635165Y-107757543D01*
X165575377Y-107626627D01*
X165481128Y-107517857D01*
X165481127Y-107517856D01*
X165481126Y-107517855D01*
X165360057Y-107440049D01*
X165360054Y-107440047D01*
X165360053Y-107440047D01*
X165333138Y-107432144D01*
X165221964Y-107399500D01*
X165221961Y-107399500D01*
X165078039Y-107399500D01*
X165078035Y-107399500D01*
X164939949Y-107440046D01*
X164939942Y-107440049D01*
X164818872Y-107517856D01*
X164818868Y-107517860D01*
X164812317Y-107525420D01*
X164759920Y-107557015D01*
X164698959Y-107551777D01*
X164662683Y-107525420D01*
X164656131Y-107517860D01*
X164656127Y-107517856D01*
X164535057Y-107440049D01*
X164535054Y-107440047D01*
X164535053Y-107440047D01*
X164508138Y-107432144D01*
X164396964Y-107399500D01*
X164396961Y-107399500D01*
X164253039Y-107399500D01*
X164253035Y-107399500D01*
X164114949Y-107440046D01*
X164114942Y-107440049D01*
X163993872Y-107517856D01*
X163989830Y-107521359D01*
X163933471Y-107545176D01*
X163873876Y-107531317D01*
X163860170Y-107521359D01*
X163856127Y-107517856D01*
X163735057Y-107440049D01*
X163735054Y-107440047D01*
X163735053Y-107440047D01*
X163708138Y-107432144D01*
X163596964Y-107399500D01*
X163596961Y-107399500D01*
X163453039Y-107399500D01*
X163453035Y-107399500D01*
X163314949Y-107440046D01*
X163314942Y-107440049D01*
X163193873Y-107517855D01*
X163099622Y-107626628D01*
X163039834Y-107757543D01*
X163019353Y-107899997D01*
X160850692Y-107899997D01*
X160852751Y-107887000D01*
X160832905Y-107761696D01*
X160775309Y-107648658D01*
X160685601Y-107558950D01*
X160658568Y-107545176D01*
X160572566Y-107501355D01*
X160572563Y-107501354D01*
X160447259Y-107481508D01*
X160321955Y-107501354D01*
X160321951Y-107501355D01*
X160208918Y-107558949D01*
X160119208Y-107648659D01*
X160061614Y-107761692D01*
X160061613Y-107761696D01*
X160041767Y-107886999D01*
X150403433Y-107886999D01*
X150385646Y-107774696D01*
X150328050Y-107661658D01*
X150238342Y-107571950D01*
X150209031Y-107557015D01*
X150125307Y-107514355D01*
X150125304Y-107514354D01*
X150000000Y-107494508D01*
X149874696Y-107514354D01*
X149874692Y-107514355D01*
X149761659Y-107571949D01*
X149671949Y-107661659D01*
X149614355Y-107774692D01*
X149614354Y-107774696D01*
X149594508Y-107900000D01*
X145188604Y-107900000D01*
X145168758Y-107774696D01*
X145111162Y-107661658D01*
X145021454Y-107571950D01*
X144992143Y-107557015D01*
X144908419Y-107514355D01*
X144908416Y-107514354D01*
X144783112Y-107494508D01*
X144657808Y-107514354D01*
X144657804Y-107514355D01*
X144544771Y-107571949D01*
X144455061Y-107661659D01*
X144397467Y-107774692D01*
X144397466Y-107774696D01*
X144377620Y-107900000D01*
X127500000Y-107900000D01*
X127500000Y-107049997D01*
X130694353Y-107049997D01*
X130694353Y-107050002D01*
X130714834Y-107192456D01*
X130774622Y-107323371D01*
X130774623Y-107323373D01*
X130840587Y-107399500D01*
X130868873Y-107432144D01*
X130976568Y-107501355D01*
X130989947Y-107509953D01*
X131096403Y-107541211D01*
X131128035Y-107550499D01*
X131128036Y-107550499D01*
X131128039Y-107550500D01*
X131128041Y-107550500D01*
X131271959Y-107550500D01*
X131271961Y-107550500D01*
X131410053Y-107509953D01*
X131531128Y-107432143D01*
X131625377Y-107323373D01*
X131685165Y-107192457D01*
X131705647Y-107050000D01*
X131705647Y-107049997D01*
X132394353Y-107049997D01*
X132394353Y-107050002D01*
X132414834Y-107192456D01*
X132474622Y-107323371D01*
X132474623Y-107323373D01*
X132540587Y-107399500D01*
X132568873Y-107432144D01*
X132676568Y-107501355D01*
X132689947Y-107509953D01*
X132796403Y-107541211D01*
X132828035Y-107550499D01*
X132828036Y-107550499D01*
X132828039Y-107550500D01*
X132828041Y-107550500D01*
X132971959Y-107550500D01*
X132971961Y-107550500D01*
X133110053Y-107509953D01*
X133231128Y-107432143D01*
X133325377Y-107323373D01*
X133385165Y-107192457D01*
X133405647Y-107050000D01*
X133385165Y-106907543D01*
X133325377Y-106776627D01*
X133231128Y-106667857D01*
X133231127Y-106667856D01*
X133231126Y-106667855D01*
X133110057Y-106590049D01*
X133110054Y-106590047D01*
X133110053Y-106590047D01*
X133110050Y-106590046D01*
X132971964Y-106549500D01*
X132971961Y-106549500D01*
X132828039Y-106549500D01*
X132828035Y-106549500D01*
X132689949Y-106590046D01*
X132689942Y-106590049D01*
X132568873Y-106667855D01*
X132474622Y-106776628D01*
X132414834Y-106907543D01*
X132394353Y-107049997D01*
X131705647Y-107049997D01*
X131685165Y-106907543D01*
X131625377Y-106776627D01*
X131531128Y-106667857D01*
X131531127Y-106667856D01*
X131531126Y-106667855D01*
X131410057Y-106590049D01*
X131410054Y-106590047D01*
X131410053Y-106590047D01*
X131410050Y-106590046D01*
X131271964Y-106549500D01*
X131271961Y-106549500D01*
X131128039Y-106549500D01*
X131128035Y-106549500D01*
X130989949Y-106590046D01*
X130989942Y-106590049D01*
X130868873Y-106667855D01*
X130774622Y-106776628D01*
X130714834Y-106907543D01*
X130694353Y-107049997D01*
X127500000Y-107049997D01*
X127500000Y-105500000D01*
X128532040Y-105500000D01*
X128550517Y-105675803D01*
X128551827Y-105688261D01*
X128610319Y-105868279D01*
X128610325Y-105868293D01*
X128675482Y-105981146D01*
X128704967Y-106032216D01*
X128831629Y-106172888D01*
X128984770Y-106284151D01*
X129157697Y-106361144D01*
X129342854Y-106400500D01*
X129342857Y-106400500D01*
X129532143Y-106400500D01*
X129532146Y-106400500D01*
X129717303Y-106361144D01*
X129890230Y-106284151D01*
X130043371Y-106172888D01*
X130170033Y-106032216D01*
X130264679Y-105868284D01*
X130323174Y-105688256D01*
X130342960Y-105500000D01*
X130323174Y-105311744D01*
X130319357Y-105299997D01*
X130694353Y-105299997D01*
X130694353Y-105300002D01*
X130714834Y-105442456D01*
X130765203Y-105552747D01*
X130774623Y-105573373D01*
X130868872Y-105682143D01*
X130868873Y-105682144D01*
X130989942Y-105759950D01*
X130989947Y-105759953D01*
X131096403Y-105791211D01*
X131128035Y-105800499D01*
X131128036Y-105800499D01*
X131128039Y-105800500D01*
X131128041Y-105800500D01*
X131271959Y-105800500D01*
X131271961Y-105800500D01*
X131410053Y-105759953D01*
X131531128Y-105682143D01*
X131625377Y-105573373D01*
X131685165Y-105442457D01*
X131703474Y-105315112D01*
X131705647Y-105300002D01*
X131705647Y-105299997D01*
X132394353Y-105299997D01*
X132394353Y-105300002D01*
X132414834Y-105442456D01*
X132465203Y-105552747D01*
X132474623Y-105573373D01*
X132568872Y-105682143D01*
X132568873Y-105682144D01*
X132689942Y-105759950D01*
X132689947Y-105759953D01*
X132796403Y-105791211D01*
X132828035Y-105800499D01*
X132828036Y-105800499D01*
X132828039Y-105800500D01*
X132828041Y-105800500D01*
X132971959Y-105800500D01*
X132971961Y-105800500D01*
X133110053Y-105759953D01*
X133231128Y-105682143D01*
X133325377Y-105573373D01*
X133385165Y-105442457D01*
X133403474Y-105315112D01*
X133405647Y-105300002D01*
X133405647Y-105299997D01*
X133404232Y-105290156D01*
X154261665Y-105290156D01*
X154261665Y-105290157D01*
X154281511Y-105415460D01*
X154281512Y-105415464D01*
X154316503Y-105484137D01*
X154339107Y-105528499D01*
X154428815Y-105618207D01*
X154541853Y-105675803D01*
X154667157Y-105695649D01*
X154722914Y-105686818D01*
X154783346Y-105696389D01*
X154826611Y-105739654D01*
X154836182Y-105800086D01*
X154827351Y-105855842D01*
X154827351Y-105855843D01*
X154847197Y-105981146D01*
X154847198Y-105981150D01*
X154873216Y-106032212D01*
X154904793Y-106094185D01*
X154994501Y-106183893D01*
X155107539Y-106241489D01*
X155232843Y-106261335D01*
X155358147Y-106241489D01*
X155471185Y-106183893D01*
X155560893Y-106094185D01*
X155618489Y-105981147D01*
X155634383Y-105880798D01*
X158909478Y-105880798D01*
X158925371Y-105981146D01*
X158929324Y-106006101D01*
X158929325Y-106006105D01*
X158974204Y-106094183D01*
X158986920Y-106119140D01*
X159076628Y-106208848D01*
X159189666Y-106266444D01*
X159314970Y-106286290D01*
X159440274Y-106266444D01*
X159553312Y-106208848D01*
X159643020Y-106119140D01*
X159700616Y-106006102D01*
X159720462Y-105880798D01*
X159718481Y-105868293D01*
X159711631Y-105825041D01*
X159721202Y-105764609D01*
X159764467Y-105721344D01*
X159824899Y-105711773D01*
X159880655Y-105720604D01*
X159880655Y-105720603D01*
X159880656Y-105720604D01*
X160005960Y-105700758D01*
X160118998Y-105643162D01*
X160208706Y-105553454D01*
X160266302Y-105440416D01*
X160286148Y-105315112D01*
X160266302Y-105189808D01*
X160208706Y-105076770D01*
X160118998Y-104987062D01*
X160081157Y-104967781D01*
X160005963Y-104929467D01*
X160005960Y-104929466D01*
X159880656Y-104909620D01*
X159755352Y-104929466D01*
X159755348Y-104929467D01*
X159642315Y-104987061D01*
X159552605Y-105076771D01*
X159495011Y-105189804D01*
X159495010Y-105189808D01*
X159475164Y-105315111D01*
X159475164Y-105315112D01*
X159483995Y-105370869D01*
X159474424Y-105431301D01*
X159431159Y-105474566D01*
X159370727Y-105484137D01*
X159314970Y-105475306D01*
X159189666Y-105495152D01*
X159189662Y-105495153D01*
X159076629Y-105552747D01*
X158986919Y-105642457D01*
X158929325Y-105755490D01*
X158929324Y-105755494D01*
X158911459Y-105868293D01*
X158909478Y-105880798D01*
X155634383Y-105880798D01*
X155638335Y-105855843D01*
X155618489Y-105730539D01*
X155560893Y-105617501D01*
X155471185Y-105527793D01*
X155467249Y-105525787D01*
X155358150Y-105470198D01*
X155358147Y-105470197D01*
X155232843Y-105450351D01*
X155177086Y-105459182D01*
X155116654Y-105449611D01*
X155073389Y-105406346D01*
X155063818Y-105345914D01*
X155072649Y-105290157D01*
X155072649Y-105290156D01*
X155056755Y-105189808D01*
X155052803Y-105164853D01*
X154995207Y-105051815D01*
X154905499Y-104962107D01*
X154841438Y-104929466D01*
X154792464Y-104904512D01*
X154792461Y-104904511D01*
X154667157Y-104884665D01*
X154541853Y-104904511D01*
X154541849Y-104904512D01*
X154428816Y-104962106D01*
X154339106Y-105051816D01*
X154281512Y-105164849D01*
X154281511Y-105164853D01*
X154261665Y-105290156D01*
X133404232Y-105290156D01*
X133385165Y-105157543D01*
X133373370Y-105131716D01*
X133325377Y-105026627D01*
X133231128Y-104917857D01*
X133231127Y-104917856D01*
X133231126Y-104917855D01*
X133110057Y-104840049D01*
X133110054Y-104840047D01*
X133110053Y-104840047D01*
X133110050Y-104840046D01*
X132971964Y-104799500D01*
X132971961Y-104799500D01*
X132828039Y-104799500D01*
X132828035Y-104799500D01*
X132689949Y-104840046D01*
X132689942Y-104840049D01*
X132568873Y-104917855D01*
X132474622Y-105026628D01*
X132414834Y-105157543D01*
X132394353Y-105299997D01*
X131705647Y-105299997D01*
X131685165Y-105157543D01*
X131673370Y-105131716D01*
X131625377Y-105026627D01*
X131531128Y-104917857D01*
X131531127Y-104917856D01*
X131531126Y-104917855D01*
X131410057Y-104840049D01*
X131410054Y-104840047D01*
X131410053Y-104840047D01*
X131410050Y-104840046D01*
X131271964Y-104799500D01*
X131271961Y-104799500D01*
X131128039Y-104799500D01*
X131128035Y-104799500D01*
X130989949Y-104840046D01*
X130989942Y-104840049D01*
X130868873Y-104917855D01*
X130774622Y-105026628D01*
X130714834Y-105157543D01*
X130694353Y-105299997D01*
X130319357Y-105299997D01*
X130264679Y-105131716D01*
X130264676Y-105131711D01*
X130264674Y-105131706D01*
X130216051Y-105047490D01*
X130170033Y-104967784D01*
X130080626Y-104868488D01*
X130043375Y-104827116D01*
X130043370Y-104827111D01*
X129897574Y-104721185D01*
X129890230Y-104715849D01*
X129890225Y-104715847D01*
X129890222Y-104715845D01*
X129717305Y-104638857D01*
X129717303Y-104638856D01*
X129717300Y-104638855D01*
X129717299Y-104638855D01*
X129682080Y-104631369D01*
X129532146Y-104599500D01*
X129342854Y-104599500D01*
X129224789Y-104624595D01*
X129157700Y-104638855D01*
X129157694Y-104638857D01*
X128984777Y-104715845D01*
X128984768Y-104715850D01*
X128831629Y-104827111D01*
X128831624Y-104827116D01*
X128704969Y-104967781D01*
X128704965Y-104967787D01*
X128610325Y-105131706D01*
X128610319Y-105131720D01*
X128551827Y-105311738D01*
X128551826Y-105311742D01*
X128551826Y-105311744D01*
X128532040Y-105500000D01*
X127500000Y-105500000D01*
X127500000Y-103599997D01*
X128094353Y-103599997D01*
X128094353Y-103600002D01*
X128114834Y-103742456D01*
X128174622Y-103873371D01*
X128174623Y-103873373D01*
X128265160Y-103977859D01*
X128268873Y-103982144D01*
X128389942Y-104059950D01*
X128389947Y-104059953D01*
X128479276Y-104086182D01*
X128528035Y-104100499D01*
X128528036Y-104100499D01*
X128528039Y-104100500D01*
X128528041Y-104100500D01*
X128671959Y-104100500D01*
X128671961Y-104100500D01*
X128810053Y-104059953D01*
X128931128Y-103982143D01*
X129025377Y-103873373D01*
X129085165Y-103742457D01*
X129105647Y-103600000D01*
X129105647Y-103599997D01*
X129844353Y-103599997D01*
X129844353Y-103600002D01*
X129864834Y-103742456D01*
X129924622Y-103873371D01*
X129924623Y-103873373D01*
X130015160Y-103977859D01*
X130018873Y-103982144D01*
X130139942Y-104059950D01*
X130139947Y-104059953D01*
X130229276Y-104086182D01*
X130278035Y-104100499D01*
X130278036Y-104100499D01*
X130278039Y-104100500D01*
X130278041Y-104100500D01*
X130421959Y-104100500D01*
X130421961Y-104100500D01*
X130560053Y-104059953D01*
X130681128Y-103982143D01*
X130775377Y-103873373D01*
X130835165Y-103742457D01*
X130855647Y-103600000D01*
X130855647Y-103599997D01*
X131544353Y-103599997D01*
X131544353Y-103600002D01*
X131564834Y-103742456D01*
X131624622Y-103873371D01*
X131624623Y-103873373D01*
X131715160Y-103977859D01*
X131718873Y-103982144D01*
X131839942Y-104059950D01*
X131839947Y-104059953D01*
X131929276Y-104086182D01*
X131978035Y-104100499D01*
X131978036Y-104100499D01*
X131978039Y-104100500D01*
X131978041Y-104100500D01*
X132121959Y-104100500D01*
X132121961Y-104100500D01*
X132260053Y-104059953D01*
X132381128Y-103982143D01*
X132475377Y-103873373D01*
X132535165Y-103742457D01*
X132555647Y-103600000D01*
X132549495Y-103557213D01*
X132535165Y-103457543D01*
X132475377Y-103326628D01*
X132475377Y-103326627D01*
X132381128Y-103217857D01*
X132381127Y-103217856D01*
X132381126Y-103217855D01*
X132260057Y-103140049D01*
X132260054Y-103140047D01*
X132260053Y-103140047D01*
X132233138Y-103132144D01*
X132121964Y-103099500D01*
X132121961Y-103099500D01*
X131978039Y-103099500D01*
X131978035Y-103099500D01*
X131839949Y-103140046D01*
X131839942Y-103140049D01*
X131718873Y-103217855D01*
X131624622Y-103326628D01*
X131564834Y-103457543D01*
X131544353Y-103599997D01*
X130855647Y-103599997D01*
X130849495Y-103557213D01*
X130835165Y-103457543D01*
X130775377Y-103326628D01*
X130775377Y-103326627D01*
X130681128Y-103217857D01*
X130681127Y-103217856D01*
X130681126Y-103217855D01*
X130560057Y-103140049D01*
X130560054Y-103140047D01*
X130560053Y-103140047D01*
X130533138Y-103132144D01*
X130421964Y-103099500D01*
X130421961Y-103099500D01*
X130278039Y-103099500D01*
X130278035Y-103099500D01*
X130139949Y-103140046D01*
X130139942Y-103140049D01*
X130018873Y-103217855D01*
X129924622Y-103326628D01*
X129864834Y-103457543D01*
X129844353Y-103599997D01*
X129105647Y-103599997D01*
X129099495Y-103557213D01*
X129085165Y-103457543D01*
X129025377Y-103326628D01*
X129025377Y-103326627D01*
X128931128Y-103217857D01*
X128931127Y-103217856D01*
X128931126Y-103217855D01*
X128810057Y-103140049D01*
X128810054Y-103140047D01*
X128810053Y-103140047D01*
X128783138Y-103132144D01*
X128671964Y-103099500D01*
X128671961Y-103099500D01*
X128528039Y-103099500D01*
X128528035Y-103099500D01*
X128389949Y-103140046D01*
X128389942Y-103140049D01*
X128268873Y-103217855D01*
X128174622Y-103326628D01*
X128114834Y-103457543D01*
X128094353Y-103599997D01*
X127500000Y-103599997D01*
X127500000Y-102500000D01*
X137482018Y-102500000D01*
X137501921Y-102778288D01*
X137501921Y-102778291D01*
X137501922Y-102778294D01*
X137555236Y-103023373D01*
X137561230Y-103050927D01*
X137658731Y-103312338D01*
X137658732Y-103312340D01*
X137792444Y-103557213D01*
X137792443Y-103557213D01*
X137959640Y-103780562D01*
X137959642Y-103780564D01*
X137959645Y-103780568D01*
X138156932Y-103977855D01*
X138156935Y-103977857D01*
X138156937Y-103977859D01*
X138380286Y-104145056D01*
X138563699Y-104245207D01*
X138625163Y-104278769D01*
X138886572Y-104376269D01*
X138886577Y-104376271D01*
X139159206Y-104435578D01*
X139437500Y-104455482D01*
X139715794Y-104435578D01*
X139988423Y-104376271D01*
X140249837Y-104278769D01*
X140494713Y-104145056D01*
X140718068Y-103977855D01*
X140778767Y-103917156D01*
X152561665Y-103917156D01*
X152561665Y-103917157D01*
X152581511Y-104042460D01*
X152581512Y-104042464D01*
X152609401Y-104097198D01*
X152639107Y-104155499D01*
X152728815Y-104245207D01*
X152841853Y-104302803D01*
X152967157Y-104322649D01*
X153022914Y-104313818D01*
X153083346Y-104323389D01*
X153126611Y-104366654D01*
X153136182Y-104427086D01*
X153131685Y-104455482D01*
X153127351Y-104482843D01*
X153145827Y-104599500D01*
X153147197Y-104608146D01*
X153147198Y-104608150D01*
X153202072Y-104715845D01*
X153204793Y-104721185D01*
X153294501Y-104810893D01*
X153407539Y-104868489D01*
X153532843Y-104888335D01*
X153658147Y-104868489D01*
X153771185Y-104810893D01*
X153860893Y-104721185D01*
X153918489Y-104608147D01*
X153938335Y-104482843D01*
X153918489Y-104357539D01*
X153860893Y-104244501D01*
X153771185Y-104154793D01*
X153752075Y-104145056D01*
X153658150Y-104097198D01*
X153658147Y-104097197D01*
X153532843Y-104077351D01*
X153477086Y-104086182D01*
X153416654Y-104076611D01*
X153373389Y-104033346D01*
X153363818Y-103972914D01*
X153372649Y-103917157D01*
X153372649Y-103917156D01*
X153365714Y-103873371D01*
X153352803Y-103791853D01*
X153295207Y-103678815D01*
X153205499Y-103589107D01*
X153142904Y-103557213D01*
X153092464Y-103531512D01*
X153092461Y-103531511D01*
X152967157Y-103511665D01*
X152841853Y-103531511D01*
X152841849Y-103531512D01*
X152728816Y-103589106D01*
X152639106Y-103678816D01*
X152581512Y-103791849D01*
X152581511Y-103791853D01*
X152561665Y-103917156D01*
X140778767Y-103917156D01*
X140915355Y-103780568D01*
X141082556Y-103557213D01*
X141216269Y-103312337D01*
X141313771Y-103050923D01*
X141373078Y-102778294D01*
X141389406Y-102549997D01*
X160964353Y-102549997D01*
X160964353Y-102550002D01*
X160984834Y-102692456D01*
X161011113Y-102749997D01*
X161044623Y-102823373D01*
X161138872Y-102932143D01*
X161138873Y-102932144D01*
X161259942Y-103009950D01*
X161259947Y-103009953D01*
X161366403Y-103041211D01*
X161398035Y-103050499D01*
X161398036Y-103050499D01*
X161398039Y-103050500D01*
X161398041Y-103050500D01*
X161541959Y-103050500D01*
X161541961Y-103050500D01*
X161680053Y-103009953D01*
X161801128Y-102932143D01*
X161895377Y-102823373D01*
X161955165Y-102692457D01*
X161975647Y-102550000D01*
X161955165Y-102407543D01*
X161895377Y-102276627D01*
X161801128Y-102167857D01*
X161801127Y-102167856D01*
X161801126Y-102167855D01*
X161680057Y-102090049D01*
X161680054Y-102090047D01*
X161680053Y-102090047D01*
X161680050Y-102090046D01*
X161541964Y-102049500D01*
X161541961Y-102049500D01*
X161398039Y-102049500D01*
X161398035Y-102049500D01*
X161259949Y-102090046D01*
X161259942Y-102090049D01*
X161138873Y-102167855D01*
X161044622Y-102276628D01*
X160984834Y-102407543D01*
X160964353Y-102549997D01*
X141389406Y-102549997D01*
X141392982Y-102500000D01*
X141373078Y-102221706D01*
X141313771Y-101949077D01*
X141216269Y-101687663D01*
X141082556Y-101442787D01*
X141082555Y-101442786D01*
X141082556Y-101442786D01*
X141050525Y-101399997D01*
X148794353Y-101399997D01*
X148794353Y-101400002D01*
X148814834Y-101542456D01*
X148853275Y-101626628D01*
X148874623Y-101673373D01*
X148930917Y-101738340D01*
X148968873Y-101782144D01*
X149089942Y-101859950D01*
X149089947Y-101859953D01*
X149196403Y-101891211D01*
X149228035Y-101900499D01*
X149228036Y-101900499D01*
X149228039Y-101900500D01*
X149228041Y-101900500D01*
X149371959Y-101900500D01*
X149371961Y-101900500D01*
X149510053Y-101859953D01*
X149631128Y-101782143D01*
X149679347Y-101726493D01*
X149731741Y-101694898D01*
X149792702Y-101700133D01*
X149828983Y-101726492D01*
X149877204Y-101782142D01*
X149877206Y-101782144D01*
X149998275Y-101859950D01*
X149998280Y-101859953D01*
X150104736Y-101891211D01*
X150136368Y-101900499D01*
X150136369Y-101900499D01*
X150136372Y-101900500D01*
X150136374Y-101900500D01*
X150280292Y-101900500D01*
X150280294Y-101900500D01*
X150418386Y-101859953D01*
X150539461Y-101782143D01*
X150587680Y-101726493D01*
X150640074Y-101694898D01*
X150701035Y-101700133D01*
X150737316Y-101726492D01*
X150785537Y-101782142D01*
X150785539Y-101782144D01*
X150906608Y-101859950D01*
X150906613Y-101859953D01*
X151013069Y-101891211D01*
X151044701Y-101900499D01*
X151044702Y-101900499D01*
X151044705Y-101900500D01*
X151044707Y-101900500D01*
X151188625Y-101900500D01*
X151188627Y-101900500D01*
X151326719Y-101859953D01*
X151447794Y-101782143D01*
X151542043Y-101673373D01*
X151601831Y-101542457D01*
X151616161Y-101442787D01*
X151622313Y-101400002D01*
X151622313Y-101399997D01*
X151601831Y-101257543D01*
X151588362Y-101228050D01*
X151542043Y-101126627D01*
X151447794Y-101017857D01*
X151447793Y-101017856D01*
X151447792Y-101017855D01*
X151326723Y-100940049D01*
X151326720Y-100940047D01*
X151326719Y-100940047D01*
X151326716Y-100940046D01*
X151188630Y-100899500D01*
X151188627Y-100899500D01*
X151044705Y-100899500D01*
X151044701Y-100899500D01*
X150906615Y-100940046D01*
X150906608Y-100940049D01*
X150785538Y-101017856D01*
X150785536Y-101017858D01*
X150737318Y-101073505D01*
X150684922Y-101105101D01*
X150623961Y-101099865D01*
X150587681Y-101073506D01*
X150539461Y-101017857D01*
X150539460Y-101017856D01*
X150539459Y-101017855D01*
X150418390Y-100940049D01*
X150418387Y-100940047D01*
X150418386Y-100940047D01*
X150418383Y-100940046D01*
X150280297Y-100899500D01*
X150280294Y-100899500D01*
X150136372Y-100899500D01*
X150136368Y-100899500D01*
X149998282Y-100940046D01*
X149998275Y-100940049D01*
X149877205Y-101017856D01*
X149877203Y-101017858D01*
X149828985Y-101073505D01*
X149776589Y-101105101D01*
X149715628Y-101099865D01*
X149679348Y-101073506D01*
X149631128Y-101017857D01*
X149631127Y-101017856D01*
X149631126Y-101017855D01*
X149510057Y-100940049D01*
X149510054Y-100940047D01*
X149510053Y-100940047D01*
X149510050Y-100940046D01*
X149371964Y-100899500D01*
X149371961Y-100899500D01*
X149228039Y-100899500D01*
X149228035Y-100899500D01*
X149089949Y-100940046D01*
X149089942Y-100940049D01*
X148968873Y-101017855D01*
X148874622Y-101126628D01*
X148814834Y-101257543D01*
X148794353Y-101399997D01*
X141050525Y-101399997D01*
X140915359Y-101219437D01*
X140915357Y-101219435D01*
X140915355Y-101219432D01*
X140718068Y-101022145D01*
X140718064Y-101022142D01*
X140718062Y-101022140D01*
X140494713Y-100854943D01*
X140249840Y-100721232D01*
X140249838Y-100721231D01*
X139988426Y-100623730D01*
X139988428Y-100623730D01*
X139814825Y-100585965D01*
X139715794Y-100564422D01*
X139715791Y-100564421D01*
X139715788Y-100564421D01*
X139437500Y-100544518D01*
X139159211Y-100564421D01*
X139159206Y-100564421D01*
X139159206Y-100564422D01*
X139060175Y-100585965D01*
X138886572Y-100623730D01*
X138625161Y-100721231D01*
X138625159Y-100721232D01*
X138380286Y-100854943D01*
X138156937Y-101022140D01*
X137959640Y-101219437D01*
X137792443Y-101442786D01*
X137658732Y-101687659D01*
X137658731Y-101687661D01*
X137561230Y-101949072D01*
X137501921Y-102221711D01*
X137482018Y-102500000D01*
X127500000Y-102500000D01*
X127500000Y-101899997D01*
X128094353Y-101899997D01*
X128094353Y-101900002D01*
X128114834Y-102042456D01*
X128144376Y-102107142D01*
X128174623Y-102173373D01*
X128264093Y-102276628D01*
X128268873Y-102282144D01*
X128389942Y-102359950D01*
X128389947Y-102359953D01*
X128496403Y-102391211D01*
X128528035Y-102400499D01*
X128528036Y-102400499D01*
X128528039Y-102400500D01*
X128528041Y-102400500D01*
X128671959Y-102400500D01*
X128671961Y-102400500D01*
X128810053Y-102359953D01*
X128931128Y-102282143D01*
X129025377Y-102173373D01*
X129085165Y-102042457D01*
X129098592Y-101949072D01*
X129105647Y-101900002D01*
X129105647Y-101899997D01*
X129844353Y-101899997D01*
X129844353Y-101900002D01*
X129864834Y-102042456D01*
X129894376Y-102107142D01*
X129924623Y-102173373D01*
X130014093Y-102276628D01*
X130018873Y-102282144D01*
X130139942Y-102359950D01*
X130139947Y-102359953D01*
X130246403Y-102391211D01*
X130278035Y-102400499D01*
X130278036Y-102400499D01*
X130278039Y-102400500D01*
X130278041Y-102400500D01*
X130421959Y-102400500D01*
X130421961Y-102400500D01*
X130560053Y-102359953D01*
X130681128Y-102282143D01*
X130775377Y-102173373D01*
X130835165Y-102042457D01*
X130848592Y-101949072D01*
X130855647Y-101900002D01*
X130855647Y-101899997D01*
X131544353Y-101899997D01*
X131544353Y-101900002D01*
X131564834Y-102042456D01*
X131594376Y-102107142D01*
X131624623Y-102173373D01*
X131714093Y-102276628D01*
X131718873Y-102282144D01*
X131839942Y-102359950D01*
X131839947Y-102359953D01*
X131946403Y-102391211D01*
X131978035Y-102400499D01*
X131978036Y-102400499D01*
X131978039Y-102400500D01*
X131978041Y-102400500D01*
X132121959Y-102400500D01*
X132121961Y-102400500D01*
X132260053Y-102359953D01*
X132381128Y-102282143D01*
X132475377Y-102173373D01*
X132535165Y-102042457D01*
X132548592Y-101949072D01*
X132555647Y-101900002D01*
X132555647Y-101899997D01*
X132535165Y-101757543D01*
X132520303Y-101725000D01*
X132475377Y-101626627D01*
X132381128Y-101517857D01*
X132381127Y-101517856D01*
X132381126Y-101517855D01*
X132260057Y-101440049D01*
X132260054Y-101440047D01*
X132260053Y-101440047D01*
X132260050Y-101440046D01*
X132121964Y-101399500D01*
X132121961Y-101399500D01*
X131978039Y-101399500D01*
X131978035Y-101399500D01*
X131839949Y-101440046D01*
X131839942Y-101440049D01*
X131718873Y-101517855D01*
X131624622Y-101626628D01*
X131564834Y-101757543D01*
X131544353Y-101899997D01*
X130855647Y-101899997D01*
X130835165Y-101757543D01*
X130820303Y-101725000D01*
X130775377Y-101626627D01*
X130681128Y-101517857D01*
X130681127Y-101517856D01*
X130681126Y-101517855D01*
X130560057Y-101440049D01*
X130560054Y-101440047D01*
X130560053Y-101440047D01*
X130560050Y-101440046D01*
X130421964Y-101399500D01*
X130421961Y-101399500D01*
X130278039Y-101399500D01*
X130278035Y-101399500D01*
X130139949Y-101440046D01*
X130139942Y-101440049D01*
X130018873Y-101517855D01*
X129924622Y-101626628D01*
X129864834Y-101757543D01*
X129844353Y-101899997D01*
X129105647Y-101899997D01*
X129085165Y-101757543D01*
X129070303Y-101725000D01*
X129025377Y-101626627D01*
X128931128Y-101517857D01*
X128931127Y-101517856D01*
X128931126Y-101517855D01*
X128810057Y-101440049D01*
X128810054Y-101440047D01*
X128810053Y-101440047D01*
X128810050Y-101440046D01*
X128671964Y-101399500D01*
X128671961Y-101399500D01*
X128528039Y-101399500D01*
X128528035Y-101399500D01*
X128389949Y-101440046D01*
X128389942Y-101440049D01*
X128268873Y-101517855D01*
X128174622Y-101626628D01*
X128114834Y-101757543D01*
X128094353Y-101899997D01*
X127500000Y-101899997D01*
X127500000Y-99249999D01*
X159794508Y-99249999D01*
X159794508Y-99250000D01*
X159814354Y-99375303D01*
X159814355Y-99375307D01*
X159869944Y-99484406D01*
X159871950Y-99488342D01*
X159961658Y-99578050D01*
X160074696Y-99635646D01*
X160200000Y-99655492D01*
X160325304Y-99635646D01*
X160438342Y-99578050D01*
X160439597Y-99576794D01*
X160441177Y-99575989D01*
X160444647Y-99573469D01*
X160445045Y-99574018D01*
X160494110Y-99549014D01*
X160554543Y-99558581D01*
X160597810Y-99601842D01*
X160607385Y-99631306D01*
X160614354Y-99675303D01*
X160614355Y-99675307D01*
X160663597Y-99771949D01*
X160671950Y-99788342D01*
X160761658Y-99878050D01*
X160874696Y-99935646D01*
X161000000Y-99955492D01*
X161088408Y-99941489D01*
X161148836Y-99951060D01*
X161192101Y-99994324D01*
X161201673Y-100054756D01*
X161194508Y-100099997D01*
X161194508Y-100100000D01*
X161214354Y-100225303D01*
X161214355Y-100225307D01*
X161269944Y-100334406D01*
X161271950Y-100338342D01*
X161293127Y-100359519D01*
X161320903Y-100414034D01*
X161311332Y-100474466D01*
X161268068Y-100517730D01*
X161161659Y-100571949D01*
X161071949Y-100661659D01*
X161014355Y-100774692D01*
X161014354Y-100774696D01*
X160994508Y-100900000D01*
X161013174Y-101017856D01*
X161014354Y-101025303D01*
X161014355Y-101025307D01*
X161049615Y-101094508D01*
X161071950Y-101138342D01*
X161161658Y-101228050D01*
X161274696Y-101285646D01*
X161400000Y-101305492D01*
X161525304Y-101285646D01*
X161638342Y-101228050D01*
X161728050Y-101138342D01*
X161785646Y-101025304D01*
X161802219Y-100920664D01*
X161810418Y-100904571D01*
X161807447Y-100895427D01*
X161989581Y-100895427D01*
X161997780Y-100920664D01*
X162013174Y-101017856D01*
X162014354Y-101025303D01*
X162014355Y-101025307D01*
X162049615Y-101094508D01*
X162071950Y-101138342D01*
X162161658Y-101228050D01*
X162274696Y-101285646D01*
X162400000Y-101305492D01*
X162496529Y-101290203D01*
X162556960Y-101299774D01*
X162600224Y-101343038D01*
X162609796Y-101403470D01*
X162602169Y-101451627D01*
X162594508Y-101500000D01*
X162601232Y-101542457D01*
X162614354Y-101625303D01*
X162614355Y-101625307D01*
X162649814Y-101694898D01*
X162671950Y-101738342D01*
X162761658Y-101828050D01*
X162874696Y-101885646D01*
X163000000Y-101905492D01*
X163125304Y-101885646D01*
X163238342Y-101828050D01*
X163328050Y-101738342D01*
X163334850Y-101724997D01*
X168294353Y-101724997D01*
X168294353Y-101725002D01*
X168314834Y-101867456D01*
X168352110Y-101949077D01*
X168374623Y-101998373D01*
X168468872Y-102107143D01*
X168534330Y-102149210D01*
X168542119Y-102154216D01*
X168580850Y-102201582D01*
X168584342Y-102262668D01*
X168551263Y-102314140D01*
X168542119Y-102320784D01*
X168468872Y-102367857D01*
X168374622Y-102476628D01*
X168314834Y-102607543D01*
X168294353Y-102749997D01*
X168294353Y-102750002D01*
X168314834Y-102892456D01*
X168368493Y-103009950D01*
X168374623Y-103023373D01*
X168440587Y-103099500D01*
X168468873Y-103132144D01*
X168589942Y-103209950D01*
X168589947Y-103209953D01*
X168696403Y-103241211D01*
X168728035Y-103250499D01*
X168728036Y-103250499D01*
X168728039Y-103250500D01*
X168728041Y-103250500D01*
X168871959Y-103250500D01*
X168871961Y-103250500D01*
X169010053Y-103209953D01*
X169131128Y-103132143D01*
X169225377Y-103023373D01*
X169285165Y-102892457D01*
X169305647Y-102750000D01*
X169285165Y-102607543D01*
X169225377Y-102476627D01*
X169131128Y-102367857D01*
X169131127Y-102367856D01*
X169131126Y-102367855D01*
X169057881Y-102320784D01*
X169019150Y-102273418D01*
X169015656Y-102212333D01*
X169048736Y-102160860D01*
X169057881Y-102154216D01*
X169131126Y-102107144D01*
X169131125Y-102107144D01*
X169131128Y-102107143D01*
X169225377Y-101998373D01*
X169285165Y-101867457D01*
X169305647Y-101725000D01*
X169300278Y-101687659D01*
X169285165Y-101582543D01*
X169266858Y-101542456D01*
X169225377Y-101451627D01*
X169131128Y-101342857D01*
X169131127Y-101342856D01*
X169131126Y-101342855D01*
X169010057Y-101265049D01*
X169010054Y-101265047D01*
X169010053Y-101265047D01*
X169010050Y-101265046D01*
X168871964Y-101224500D01*
X168871961Y-101224500D01*
X168728039Y-101224500D01*
X168728035Y-101224500D01*
X168589949Y-101265046D01*
X168589942Y-101265049D01*
X168468873Y-101342855D01*
X168374622Y-101451628D01*
X168314834Y-101582543D01*
X168294353Y-101724997D01*
X163334850Y-101724997D01*
X163385646Y-101625304D01*
X163405492Y-101500000D01*
X163385646Y-101374696D01*
X163328050Y-101261658D01*
X163238342Y-101171950D01*
X163172383Y-101138342D01*
X163125307Y-101114355D01*
X163125304Y-101114354D01*
X163000000Y-101094508D01*
X162999998Y-101094508D01*
X162903470Y-101109796D01*
X162843038Y-101100224D01*
X162799774Y-101056960D01*
X162790203Y-100996529D01*
X162805492Y-100900000D01*
X162785646Y-100774696D01*
X162728050Y-100661658D01*
X162638342Y-100571950D01*
X162584504Y-100544518D01*
X162525307Y-100514355D01*
X162525304Y-100514354D01*
X162400000Y-100494508D01*
X162274696Y-100514354D01*
X162274692Y-100514355D01*
X162161659Y-100571949D01*
X162071949Y-100661659D01*
X162014355Y-100774692D01*
X162014354Y-100774696D01*
X161997781Y-100879334D01*
X161989581Y-100895427D01*
X161807447Y-100895427D01*
X161802219Y-100879334D01*
X161798356Y-100854943D01*
X161785646Y-100774696D01*
X161728050Y-100661658D01*
X161706871Y-100640479D01*
X161679096Y-100585965D01*
X161688667Y-100525533D01*
X161731930Y-100482269D01*
X161838342Y-100428050D01*
X161928050Y-100338342D01*
X161985646Y-100225304D01*
X162005492Y-100100000D01*
X161985646Y-99974696D01*
X161928050Y-99861658D01*
X161838342Y-99771950D01*
X161834406Y-99769944D01*
X161725307Y-99714355D01*
X161725304Y-99714354D01*
X161600000Y-99694508D01*
X161511594Y-99708510D01*
X161451162Y-99698939D01*
X161407897Y-99655674D01*
X161398326Y-99595242D01*
X161405492Y-99550000D01*
X161385646Y-99424696D01*
X161328050Y-99311658D01*
X161238342Y-99221950D01*
X161234406Y-99219944D01*
X161125307Y-99164355D01*
X161125304Y-99164354D01*
X161000000Y-99144508D01*
X160874696Y-99164354D01*
X160874692Y-99164355D01*
X160761658Y-99221950D01*
X160761653Y-99221953D01*
X160760393Y-99223214D01*
X160758805Y-99224022D01*
X160755353Y-99226531D01*
X160754955Y-99225983D01*
X160705875Y-99250987D01*
X160645443Y-99241411D01*
X160602182Y-99198144D01*
X160592614Y-99168692D01*
X160591927Y-99164354D01*
X160585646Y-99124696D01*
X160528050Y-99011658D01*
X160438342Y-98921950D01*
X160434406Y-98919944D01*
X160325307Y-98864355D01*
X160325304Y-98864354D01*
X160200000Y-98844508D01*
X160074696Y-98864354D01*
X160074692Y-98864355D01*
X159961659Y-98921949D01*
X159871949Y-99011659D01*
X159814355Y-99124692D01*
X159814354Y-99124696D01*
X159794508Y-99249999D01*
X127500000Y-99249999D01*
X127500000Y-98337098D01*
X159227517Y-98337098D01*
X159227517Y-98337099D01*
X159247363Y-98462402D01*
X159247364Y-98462406D01*
X159302953Y-98571505D01*
X159304959Y-98575441D01*
X159394667Y-98665149D01*
X159507705Y-98722745D01*
X159633009Y-98742591D01*
X159758313Y-98722745D01*
X159871351Y-98665149D01*
X159961059Y-98575441D01*
X160018655Y-98462403D01*
X160038501Y-98337099D01*
X160018655Y-98211795D01*
X159961059Y-98098757D01*
X159871351Y-98009049D01*
X159867415Y-98007043D01*
X159758316Y-97951454D01*
X159758313Y-97951453D01*
X159633009Y-97931607D01*
X159507705Y-97951453D01*
X159507701Y-97951454D01*
X159394668Y-98009048D01*
X159304958Y-98098758D01*
X159247364Y-98211791D01*
X159247363Y-98211795D01*
X159227517Y-98337098D01*
X127500000Y-98337098D01*
X127500000Y-97324997D01*
X149019353Y-97324997D01*
X149019353Y-97325002D01*
X149039834Y-97467456D01*
X149099622Y-97598371D01*
X149099623Y-97598373D01*
X149193872Y-97707143D01*
X149193873Y-97707144D01*
X149314942Y-97784950D01*
X149314947Y-97784953D01*
X149421403Y-97816211D01*
X149453035Y-97825499D01*
X149453036Y-97825499D01*
X149453039Y-97825500D01*
X149453041Y-97825500D01*
X149596959Y-97825500D01*
X149596961Y-97825500D01*
X149735053Y-97784953D01*
X149856128Y-97707143D01*
X149950377Y-97598373D01*
X150010165Y-97467457D01*
X150023224Y-97376627D01*
X150030647Y-97325002D01*
X150030647Y-97324997D01*
X150010165Y-97182543D01*
X149995531Y-97150499D01*
X149950377Y-97051627D01*
X149856128Y-96942857D01*
X149856127Y-96942856D01*
X149856126Y-96942855D01*
X149735057Y-96865049D01*
X149735054Y-96865047D01*
X149735053Y-96865047D01*
X149735050Y-96865046D01*
X149596964Y-96824500D01*
X149596961Y-96824500D01*
X149453039Y-96824500D01*
X149453035Y-96824500D01*
X149314949Y-96865046D01*
X149314942Y-96865049D01*
X149193873Y-96942855D01*
X149099622Y-97051628D01*
X149039834Y-97182543D01*
X149019353Y-97324997D01*
X127500000Y-97324997D01*
X127500000Y-96900000D01*
X131194508Y-96900000D01*
X131209866Y-96996970D01*
X131214354Y-97025303D01*
X131214355Y-97025307D01*
X131229279Y-97054596D01*
X131271950Y-97138342D01*
X131361658Y-97228050D01*
X131474696Y-97285646D01*
X131600000Y-97305492D01*
X131725304Y-97285646D01*
X131838342Y-97228050D01*
X131928050Y-97138342D01*
X131985646Y-97025304D01*
X132005492Y-96900000D01*
X131985646Y-96774696D01*
X131928050Y-96661658D01*
X131838342Y-96571950D01*
X131772383Y-96538342D01*
X131725307Y-96514355D01*
X131725304Y-96514354D01*
X131600000Y-96494508D01*
X131474696Y-96514354D01*
X131474692Y-96514355D01*
X131361659Y-96571949D01*
X131271949Y-96661659D01*
X131214355Y-96774692D01*
X131214354Y-96774696D01*
X131200581Y-96861659D01*
X131194508Y-96900000D01*
X127500000Y-96900000D01*
X127500000Y-96300000D01*
X153794508Y-96300000D01*
X153805903Y-96371949D01*
X153814354Y-96425303D01*
X153814355Y-96425307D01*
X153856257Y-96507543D01*
X153871950Y-96538342D01*
X153961658Y-96628050D01*
X154074696Y-96685646D01*
X154200000Y-96705492D01*
X154234675Y-96700000D01*
X155794508Y-96700000D01*
X155809151Y-96792456D01*
X155814354Y-96825303D01*
X155814355Y-96825307D01*
X155834604Y-96865047D01*
X155871950Y-96938342D01*
X155961658Y-97028050D01*
X156074696Y-97085646D01*
X156200000Y-97105492D01*
X156325304Y-97085646D01*
X156438342Y-97028050D01*
X156528050Y-96938342D01*
X156585646Y-96825304D01*
X156605492Y-96700000D01*
X156597572Y-96649997D01*
X156944353Y-96649997D01*
X156944353Y-96650002D01*
X156964834Y-96792456D01*
X156997986Y-96865047D01*
X157024623Y-96923373D01*
X157118872Y-97032143D01*
X157118873Y-97032144D01*
X157239942Y-97109950D01*
X157239947Y-97109953D01*
X157336632Y-97138342D01*
X157378035Y-97150499D01*
X157378036Y-97150499D01*
X157378039Y-97150500D01*
X157378041Y-97150500D01*
X157521959Y-97150500D01*
X157521961Y-97150500D01*
X157531891Y-97147584D01*
X157593049Y-97149329D01*
X157641503Y-97186690D01*
X157658744Y-97245396D01*
X157638185Y-97303024D01*
X157634604Y-97307403D01*
X157574623Y-97376626D01*
X157514834Y-97507543D01*
X157494353Y-97649997D01*
X157494353Y-97650002D01*
X157514834Y-97792456D01*
X157529925Y-97825499D01*
X157574623Y-97923373D01*
X157648860Y-98009048D01*
X157668873Y-98032144D01*
X157772527Y-98098758D01*
X157789947Y-98109953D01*
X157896403Y-98141211D01*
X157928035Y-98150499D01*
X157928036Y-98150499D01*
X157928039Y-98150500D01*
X157928041Y-98150500D01*
X158071959Y-98150500D01*
X158071961Y-98150500D01*
X158210053Y-98109953D01*
X158331128Y-98032143D01*
X158425377Y-97923373D01*
X158485165Y-97792457D01*
X158505647Y-97650000D01*
X158498224Y-97598373D01*
X158485165Y-97507543D01*
X158425377Y-97376628D01*
X158425377Y-97376627D01*
X158331128Y-97267857D01*
X158331127Y-97267856D01*
X158331126Y-97267855D01*
X158210057Y-97190049D01*
X158210054Y-97190047D01*
X158210053Y-97190047D01*
X158210050Y-97190046D01*
X158071964Y-97149500D01*
X158071961Y-97149500D01*
X157928039Y-97149500D01*
X157928037Y-97149500D01*
X157918104Y-97152417D01*
X157856944Y-97150668D01*
X157808492Y-97113304D01*
X157791255Y-97054596D01*
X157811818Y-96996970D01*
X157815396Y-96992595D01*
X157875377Y-96923373D01*
X157935165Y-96792457D01*
X157955647Y-96650000D01*
X157944819Y-96574692D01*
X157935165Y-96507543D01*
X157875377Y-96376627D01*
X157781128Y-96267857D01*
X157781127Y-96267856D01*
X157781126Y-96267855D01*
X157660057Y-96190049D01*
X157660054Y-96190047D01*
X157660053Y-96190047D01*
X157660050Y-96190046D01*
X157521964Y-96149500D01*
X157521961Y-96149500D01*
X157378039Y-96149500D01*
X157378035Y-96149500D01*
X157239949Y-96190046D01*
X157239942Y-96190049D01*
X157118873Y-96267855D01*
X157024622Y-96376628D01*
X156964834Y-96507543D01*
X156944353Y-96649997D01*
X156597572Y-96649997D01*
X156585646Y-96574696D01*
X156528050Y-96461658D01*
X156438342Y-96371950D01*
X156400460Y-96352648D01*
X156325307Y-96314355D01*
X156325304Y-96314354D01*
X156200000Y-96294508D01*
X156074696Y-96314354D01*
X156074692Y-96314355D01*
X155961659Y-96371949D01*
X155871949Y-96461659D01*
X155814355Y-96574692D01*
X155814354Y-96574696D01*
X155796782Y-96685645D01*
X155794508Y-96700000D01*
X154234675Y-96700000D01*
X154325304Y-96685646D01*
X154438342Y-96628050D01*
X154528050Y-96538342D01*
X154585646Y-96425304D01*
X154605492Y-96300000D01*
X154605072Y-96297351D01*
X154600401Y-96267855D01*
X154585646Y-96174696D01*
X154528050Y-96061658D01*
X154438342Y-95971950D01*
X154395261Y-95949999D01*
X154325307Y-95914355D01*
X154325304Y-95914354D01*
X154200000Y-95894508D01*
X154074696Y-95914354D01*
X154074692Y-95914355D01*
X153961659Y-95971949D01*
X153871949Y-96061659D01*
X153814355Y-96174692D01*
X153814354Y-96174696D01*
X153794928Y-96297351D01*
X153794508Y-96300000D01*
X127500000Y-96300000D01*
X127500000Y-95649999D01*
X155219508Y-95649999D01*
X155219508Y-95650000D01*
X155239354Y-95775303D01*
X155239355Y-95775307D01*
X155277412Y-95849997D01*
X155296950Y-95888342D01*
X155386658Y-95978050D01*
X155499696Y-96035646D01*
X155625000Y-96055492D01*
X155750304Y-96035646D01*
X155863342Y-95978050D01*
X155891392Y-95950000D01*
X160444508Y-95950000D01*
X160451232Y-95992457D01*
X160464354Y-96075303D01*
X160464355Y-96075307D01*
X160476107Y-96098371D01*
X160521950Y-96188342D01*
X160611658Y-96278050D01*
X160724696Y-96335646D01*
X160832048Y-96352648D01*
X160886564Y-96380425D01*
X160914342Y-96434941D01*
X160904771Y-96495374D01*
X160864354Y-96574694D01*
X160864354Y-96574696D01*
X160846782Y-96685645D01*
X160844508Y-96700000D01*
X160859151Y-96792456D01*
X160864354Y-96825303D01*
X160864355Y-96825307D01*
X160884604Y-96865047D01*
X160921950Y-96938342D01*
X161011658Y-97028050D01*
X161124696Y-97085646D01*
X161250000Y-97105492D01*
X161375304Y-97085646D01*
X161488342Y-97028050D01*
X161578050Y-96938342D01*
X161635646Y-96825304D01*
X161655492Y-96700000D01*
X163659508Y-96700000D01*
X163674151Y-96792456D01*
X163679354Y-96825303D01*
X163679355Y-96825307D01*
X163699604Y-96865047D01*
X163736950Y-96938342D01*
X163826658Y-97028050D01*
X163939696Y-97085646D01*
X164065000Y-97105492D01*
X164190304Y-97085646D01*
X164303342Y-97028050D01*
X164393050Y-96938342D01*
X164450646Y-96825304D01*
X164470492Y-96700000D01*
X164794508Y-96700000D01*
X164809151Y-96792456D01*
X164814354Y-96825303D01*
X164814355Y-96825307D01*
X164834604Y-96865047D01*
X164871950Y-96938342D01*
X164961658Y-97028050D01*
X165074696Y-97085646D01*
X165200000Y-97105492D01*
X165234675Y-97100000D01*
X169044508Y-97100000D01*
X169052044Y-97147584D01*
X169064354Y-97225303D01*
X169064355Y-97225307D01*
X169065753Y-97228050D01*
X169121950Y-97338342D01*
X169211658Y-97428050D01*
X169324696Y-97485646D01*
X169450000Y-97505492D01*
X169575304Y-97485646D01*
X169688342Y-97428050D01*
X169778050Y-97338342D01*
X169835646Y-97225304D01*
X169855492Y-97100000D01*
X169835646Y-96974696D01*
X169778050Y-96861658D01*
X169688342Y-96771950D01*
X169684406Y-96769944D01*
X169575307Y-96714355D01*
X169575304Y-96714354D01*
X169450000Y-96694508D01*
X169324696Y-96714354D01*
X169324692Y-96714355D01*
X169211659Y-96771949D01*
X169121949Y-96861659D01*
X169064355Y-96974692D01*
X169064354Y-96974696D01*
X169046782Y-97085645D01*
X169044508Y-97100000D01*
X165234675Y-97100000D01*
X165325304Y-97085646D01*
X165438342Y-97028050D01*
X165528050Y-96938342D01*
X165585646Y-96825304D01*
X165605492Y-96700000D01*
X165585646Y-96574696D01*
X165528050Y-96461658D01*
X165438342Y-96371950D01*
X165400460Y-96352648D01*
X165325307Y-96314355D01*
X165325304Y-96314354D01*
X165200000Y-96294508D01*
X165074696Y-96314354D01*
X165074692Y-96314355D01*
X164961659Y-96371949D01*
X164871949Y-96461659D01*
X164814355Y-96574692D01*
X164814354Y-96574696D01*
X164796782Y-96685645D01*
X164794508Y-96700000D01*
X164470492Y-96700000D01*
X164450646Y-96574696D01*
X164393050Y-96461658D01*
X164303342Y-96371950D01*
X164265460Y-96352648D01*
X164190307Y-96314355D01*
X164190304Y-96314354D01*
X164065000Y-96294508D01*
X163939696Y-96314354D01*
X163939692Y-96314355D01*
X163826659Y-96371949D01*
X163736949Y-96461659D01*
X163679355Y-96574692D01*
X163679354Y-96574696D01*
X163661782Y-96685645D01*
X163659508Y-96700000D01*
X161655492Y-96700000D01*
X161635646Y-96574696D01*
X161578050Y-96461658D01*
X161488342Y-96371950D01*
X161450460Y-96352648D01*
X161375307Y-96314355D01*
X161375304Y-96314354D01*
X161316318Y-96305011D01*
X161267951Y-96297351D01*
X161213434Y-96269573D01*
X161185657Y-96215057D01*
X161195227Y-96154629D01*
X161235646Y-96075304D01*
X161255492Y-95950000D01*
X161235646Y-95824696D01*
X161178050Y-95711658D01*
X161088342Y-95621950D01*
X161084406Y-95619944D01*
X160975307Y-95564355D01*
X160975304Y-95564354D01*
X160850000Y-95544508D01*
X160724696Y-95564354D01*
X160724692Y-95564355D01*
X160611659Y-95621949D01*
X160521949Y-95711659D01*
X160464355Y-95824692D01*
X160464354Y-95824696D01*
X160450154Y-95914355D01*
X160444508Y-95950000D01*
X155891392Y-95950000D01*
X155953050Y-95888342D01*
X156010646Y-95775304D01*
X156030492Y-95650000D01*
X156010646Y-95524696D01*
X155953050Y-95411658D01*
X155863342Y-95321950D01*
X155789154Y-95284149D01*
X155750307Y-95264355D01*
X155750304Y-95264354D01*
X155625000Y-95244508D01*
X155499696Y-95264354D01*
X155499692Y-95264355D01*
X155386659Y-95321949D01*
X155296949Y-95411659D01*
X155239355Y-95524692D01*
X155239354Y-95524696D01*
X155219508Y-95649999D01*
X127500000Y-95649999D01*
X127500000Y-94500000D01*
X128532040Y-94500000D01*
X128547805Y-94650000D01*
X128551827Y-94688261D01*
X128610319Y-94868279D01*
X128610325Y-94868293D01*
X128670172Y-94971949D01*
X128704967Y-95032216D01*
X128723185Y-95052449D01*
X128811019Y-95149999D01*
X128831629Y-95172888D01*
X128984770Y-95284151D01*
X129157697Y-95361144D01*
X129342854Y-95400500D01*
X129342857Y-95400500D01*
X129532143Y-95400500D01*
X129532146Y-95400500D01*
X129717303Y-95361144D01*
X129890230Y-95284151D01*
X130043371Y-95172888D01*
X130170033Y-95032216D01*
X130264679Y-94868284D01*
X130323174Y-94688256D01*
X130327195Y-94650000D01*
X136694508Y-94650000D01*
X136709476Y-94744508D01*
X136714354Y-94775303D01*
X136714355Y-94775307D01*
X136748148Y-94841628D01*
X136771950Y-94888342D01*
X136861658Y-94978050D01*
X136974696Y-95035646D01*
X137100000Y-95055492D01*
X137225304Y-95035646D01*
X137338342Y-94978050D01*
X137428050Y-94888342D01*
X137485646Y-94775304D01*
X137489654Y-94749997D01*
X142594353Y-94749997D01*
X142594353Y-94750002D01*
X142614834Y-94892456D01*
X142657393Y-94985645D01*
X142674623Y-95023373D01*
X142719624Y-95075307D01*
X142768873Y-95132144D01*
X142889942Y-95209950D01*
X142889947Y-95209953D01*
X142996403Y-95241211D01*
X143028035Y-95250499D01*
X143028036Y-95250499D01*
X143028039Y-95250500D01*
X143028041Y-95250500D01*
X143171959Y-95250500D01*
X143171961Y-95250500D01*
X143310053Y-95209953D01*
X143403342Y-95150000D01*
X161544508Y-95150000D01*
X161560425Y-95250500D01*
X161564354Y-95275303D01*
X161564355Y-95275307D01*
X161619944Y-95384406D01*
X161621950Y-95388342D01*
X161711658Y-95478050D01*
X161711660Y-95478051D01*
X161717960Y-95482628D01*
X161715957Y-95485383D01*
X161748735Y-95518139D01*
X161758327Y-95578567D01*
X161750594Y-95604240D01*
X161714834Y-95682541D01*
X161714834Y-95682543D01*
X161694353Y-95824997D01*
X161694353Y-95825002D01*
X161714834Y-95967456D01*
X161764089Y-96075307D01*
X161774623Y-96098373D01*
X161854060Y-96190049D01*
X161868873Y-96207144D01*
X161989942Y-96284950D01*
X161989947Y-96284953D01*
X162090079Y-96314354D01*
X162128035Y-96325499D01*
X162128036Y-96325499D01*
X162128039Y-96325500D01*
X162128041Y-96325500D01*
X162271959Y-96325500D01*
X162271961Y-96325500D01*
X162410053Y-96284953D01*
X162531128Y-96207143D01*
X162625377Y-96098373D01*
X162685165Y-95967457D01*
X162696540Y-95888340D01*
X162702053Y-95849997D01*
X167594353Y-95849997D01*
X167594353Y-95850002D01*
X167614834Y-95992456D01*
X167663205Y-96098371D01*
X167674623Y-96123373D01*
X167754067Y-96215057D01*
X167768873Y-96232144D01*
X167889942Y-96309950D01*
X167889947Y-96309953D01*
X167996403Y-96341211D01*
X168028035Y-96350499D01*
X168028036Y-96350499D01*
X168028039Y-96350500D01*
X168028041Y-96350500D01*
X168171959Y-96350500D01*
X168171961Y-96350500D01*
X168310053Y-96309953D01*
X168431128Y-96232143D01*
X168525377Y-96123373D01*
X168585165Y-95992457D01*
X168605647Y-95850000D01*
X168602052Y-95824997D01*
X168585165Y-95707543D01*
X168573747Y-95682541D01*
X168525377Y-95576627D01*
X168431128Y-95467857D01*
X168431127Y-95467856D01*
X168431126Y-95467855D01*
X168310057Y-95390049D01*
X168310054Y-95390047D01*
X168310053Y-95390047D01*
X168310050Y-95390046D01*
X168171964Y-95349500D01*
X168171961Y-95349500D01*
X168028039Y-95349500D01*
X168028035Y-95349500D01*
X167889949Y-95390046D01*
X167889942Y-95390049D01*
X167768873Y-95467855D01*
X167674622Y-95576628D01*
X167614834Y-95707543D01*
X167594353Y-95849997D01*
X162702053Y-95849997D01*
X162705647Y-95825002D01*
X162705647Y-95824997D01*
X162685165Y-95682543D01*
X162670302Y-95649999D01*
X162625377Y-95551627D01*
X162531128Y-95442857D01*
X162531127Y-95442856D01*
X162531126Y-95442855D01*
X162410057Y-95365049D01*
X162410054Y-95365047D01*
X162410053Y-95365047D01*
X162408873Y-95364700D01*
X162408028Y-95364123D01*
X162403612Y-95362106D01*
X162403961Y-95361341D01*
X162358367Y-95330166D01*
X162347603Y-95300000D01*
X163694508Y-95300000D01*
X163710425Y-95400500D01*
X163714354Y-95425303D01*
X163714355Y-95425307D01*
X163741230Y-95478051D01*
X163771950Y-95538342D01*
X163861658Y-95628050D01*
X163974696Y-95685646D01*
X164100000Y-95705492D01*
X164225304Y-95685646D01*
X164338342Y-95628050D01*
X164428050Y-95538342D01*
X164485646Y-95425304D01*
X164505492Y-95300000D01*
X164485646Y-95174696D01*
X164428050Y-95061658D01*
X164338342Y-94971950D01*
X164285603Y-94945078D01*
X164225307Y-94914355D01*
X164225304Y-94914354D01*
X164100000Y-94894508D01*
X163974696Y-94914354D01*
X163974692Y-94914355D01*
X163861659Y-94971949D01*
X163771949Y-95061659D01*
X163714355Y-95174692D01*
X163714354Y-95174696D01*
X163697019Y-95284149D01*
X163694508Y-95300000D01*
X162347603Y-95300000D01*
X162337805Y-95272539D01*
X162338983Y-95254232D01*
X162355492Y-95150000D01*
X162349613Y-95112881D01*
X162359184Y-95052449D01*
X162402449Y-95009184D01*
X162462881Y-94999613D01*
X162499999Y-95005492D01*
X162499999Y-95005491D01*
X162500000Y-95005492D01*
X162625304Y-94985646D01*
X162738342Y-94928050D01*
X162828050Y-94838342D01*
X162885646Y-94725304D01*
X162905492Y-94600000D01*
X162885646Y-94474696D01*
X162847586Y-94399999D01*
X164544508Y-94399999D01*
X164544508Y-94400000D01*
X164564354Y-94525303D01*
X164564355Y-94525307D01*
X164599286Y-94593862D01*
X164621950Y-94638342D01*
X164711658Y-94728050D01*
X164824696Y-94785646D01*
X164950000Y-94805492D01*
X165075304Y-94785646D01*
X165168948Y-94737931D01*
X165229377Y-94728360D01*
X165283894Y-94756136D01*
X165311672Y-94810653D01*
X165311672Y-94841628D01*
X165294508Y-94949999D01*
X165294508Y-94950000D01*
X165314354Y-95075303D01*
X165314355Y-95075307D01*
X165352413Y-95149999D01*
X165371950Y-95188342D01*
X165461658Y-95278050D01*
X165574696Y-95335646D01*
X165700000Y-95355492D01*
X165825304Y-95335646D01*
X165938342Y-95278050D01*
X166028050Y-95188342D01*
X166085646Y-95075304D01*
X166105492Y-94950000D01*
X166104712Y-94945078D01*
X166095726Y-94888340D01*
X166085646Y-94824696D01*
X166028050Y-94711658D01*
X165938342Y-94621950D01*
X165895261Y-94599999D01*
X165825307Y-94564355D01*
X165825304Y-94564354D01*
X165700000Y-94544508D01*
X165574696Y-94564354D01*
X165574694Y-94564354D01*
X165504739Y-94599999D01*
X165481052Y-94612068D01*
X165420621Y-94621639D01*
X165366105Y-94593862D01*
X165338327Y-94539345D01*
X165338327Y-94508376D01*
X165355492Y-94400000D01*
X165335646Y-94274696D01*
X165278050Y-94161658D01*
X165266392Y-94150000D01*
X166844508Y-94150000D01*
X166859476Y-94244508D01*
X166864354Y-94275303D01*
X166864355Y-94275307D01*
X166871865Y-94290046D01*
X166921950Y-94388342D01*
X167011658Y-94478050D01*
X167124696Y-94535646D01*
X167250000Y-94555492D01*
X167375304Y-94535646D01*
X167488342Y-94478050D01*
X167578050Y-94388342D01*
X167635646Y-94275304D01*
X167655492Y-94150000D01*
X167635646Y-94024696D01*
X167578050Y-93911658D01*
X167488342Y-93821950D01*
X167484406Y-93819944D01*
X167375307Y-93764355D01*
X167375304Y-93764354D01*
X167250000Y-93744508D01*
X167124696Y-93764354D01*
X167124692Y-93764355D01*
X167011659Y-93821949D01*
X166921949Y-93911659D01*
X166864355Y-94024692D01*
X166864354Y-94024696D01*
X166854701Y-94085646D01*
X166844508Y-94150000D01*
X165266392Y-94150000D01*
X165188342Y-94071950D01*
X165184406Y-94069944D01*
X165075307Y-94014355D01*
X165075304Y-94014354D01*
X164950000Y-93994508D01*
X164824696Y-94014354D01*
X164824692Y-94014355D01*
X164711659Y-94071949D01*
X164621949Y-94161659D01*
X164564355Y-94274692D01*
X164564354Y-94274696D01*
X164544508Y-94399999D01*
X162847586Y-94399999D01*
X162828050Y-94361658D01*
X162738342Y-94271950D01*
X162694282Y-94249500D01*
X162625307Y-94214355D01*
X162625304Y-94214354D01*
X162500000Y-94194508D01*
X162374696Y-94214354D01*
X162374692Y-94214355D01*
X162261659Y-94271949D01*
X162171949Y-94361659D01*
X162114355Y-94474692D01*
X162114354Y-94474696D01*
X162094508Y-94599999D01*
X162094508Y-94600000D01*
X162100387Y-94637119D01*
X162090816Y-94697551D01*
X162047551Y-94740816D01*
X161987119Y-94750387D01*
X161950000Y-94744508D01*
X161824696Y-94764354D01*
X161824692Y-94764355D01*
X161711659Y-94821949D01*
X161621949Y-94911659D01*
X161564355Y-95024692D01*
X161564354Y-95024696D01*
X161556339Y-95075304D01*
X161544508Y-95150000D01*
X143403342Y-95150000D01*
X143431128Y-95132143D01*
X143525377Y-95023373D01*
X143585165Y-94892457D01*
X143592946Y-94838340D01*
X143605647Y-94750002D01*
X143605647Y-94749997D01*
X143585165Y-94607543D01*
X143561394Y-94555492D01*
X143525377Y-94476627D01*
X143431128Y-94367857D01*
X143431127Y-94367856D01*
X143431126Y-94367855D01*
X143310057Y-94290049D01*
X143310054Y-94290047D01*
X143310053Y-94290047D01*
X143310050Y-94290046D01*
X143171964Y-94249500D01*
X143171961Y-94249500D01*
X143028039Y-94249500D01*
X143028035Y-94249500D01*
X142889949Y-94290046D01*
X142889942Y-94290049D01*
X142768873Y-94367855D01*
X142674622Y-94476628D01*
X142614834Y-94607543D01*
X142594353Y-94749997D01*
X137489654Y-94749997D01*
X137505492Y-94650000D01*
X137485646Y-94524696D01*
X137428050Y-94411658D01*
X137338342Y-94321950D01*
X137318300Y-94311738D01*
X137225307Y-94264355D01*
X137225304Y-94264354D01*
X137100000Y-94244508D01*
X136974696Y-94264354D01*
X136974692Y-94264355D01*
X136861659Y-94321949D01*
X136771949Y-94411659D01*
X136714355Y-94524692D01*
X136714354Y-94524696D01*
X136694508Y-94650000D01*
X130327195Y-94650000D01*
X130342960Y-94500000D01*
X130323174Y-94311744D01*
X130264679Y-94131716D01*
X130264676Y-94131711D01*
X130264674Y-94131706D01*
X130216051Y-94047490D01*
X130170033Y-93967784D01*
X130043371Y-93827112D01*
X130040882Y-93825304D01*
X129890231Y-93715850D01*
X129890232Y-93715850D01*
X129890230Y-93715849D01*
X129890225Y-93715847D01*
X129890222Y-93715845D01*
X129854631Y-93699999D01*
X168494508Y-93699999D01*
X168494508Y-93700000D01*
X168514354Y-93825303D01*
X168514355Y-93825307D01*
X168515275Y-93827112D01*
X168571950Y-93938342D01*
X168661658Y-94028050D01*
X168774696Y-94085646D01*
X168900000Y-94105492D01*
X169025304Y-94085646D01*
X169138342Y-94028050D01*
X169228050Y-93938342D01*
X169285646Y-93825304D01*
X169305492Y-93700000D01*
X169285646Y-93574696D01*
X169228050Y-93461658D01*
X169138342Y-93371950D01*
X169134406Y-93369944D01*
X169025307Y-93314355D01*
X169025304Y-93314354D01*
X168900000Y-93294508D01*
X168774696Y-93314354D01*
X168774692Y-93314355D01*
X168661659Y-93371949D01*
X168571949Y-93461659D01*
X168514355Y-93574692D01*
X168514354Y-93574696D01*
X168494508Y-93699999D01*
X129854631Y-93699999D01*
X129717305Y-93638857D01*
X129717303Y-93638856D01*
X129717300Y-93638855D01*
X129717299Y-93638855D01*
X129682080Y-93631369D01*
X129532146Y-93599500D01*
X129342854Y-93599500D01*
X129224789Y-93624595D01*
X129157700Y-93638855D01*
X129157694Y-93638857D01*
X128984777Y-93715845D01*
X128984768Y-93715850D01*
X128831629Y-93827111D01*
X128831624Y-93827116D01*
X128704969Y-93967781D01*
X128704965Y-93967787D01*
X128610325Y-94131706D01*
X128610319Y-94131720D01*
X128551827Y-94311738D01*
X128551826Y-94311742D01*
X128551826Y-94311744D01*
X128532040Y-94500000D01*
X127500000Y-94500000D01*
X127500000Y-92849999D01*
X149144508Y-92849999D01*
X149144508Y-92850000D01*
X149164354Y-92975303D01*
X149164355Y-92975307D01*
X149165753Y-92978050D01*
X149221950Y-93088342D01*
X149311658Y-93178050D01*
X149424696Y-93235646D01*
X149550000Y-93255492D01*
X149675304Y-93235646D01*
X149788342Y-93178050D01*
X149878050Y-93088342D01*
X149935646Y-92975304D01*
X149955492Y-92850000D01*
X149935646Y-92724696D01*
X149878050Y-92611658D01*
X149788342Y-92521950D01*
X149784406Y-92519944D01*
X149704308Y-92479132D01*
X150415376Y-92479132D01*
X150422157Y-92521949D01*
X150435222Y-92604435D01*
X150435223Y-92604439D01*
X150458438Y-92650000D01*
X150492818Y-92717474D01*
X150582526Y-92807182D01*
X150695564Y-92864778D01*
X150820868Y-92884624D01*
X150946172Y-92864778D01*
X151059210Y-92807182D01*
X151148918Y-92717474D01*
X151183298Y-92649999D01*
X168244508Y-92649999D01*
X168244508Y-92650000D01*
X168264354Y-92775303D01*
X168264355Y-92775307D01*
X168302413Y-92849999D01*
X168321950Y-92888342D01*
X168411658Y-92978050D01*
X168524696Y-93035646D01*
X168650000Y-93055492D01*
X168775304Y-93035646D01*
X168888342Y-92978050D01*
X168978050Y-92888342D01*
X169035646Y-92775304D01*
X169055492Y-92650000D01*
X169035646Y-92524696D01*
X168978050Y-92411658D01*
X168888342Y-92321950D01*
X168884406Y-92319944D01*
X168775307Y-92264355D01*
X168775304Y-92264354D01*
X168650000Y-92244508D01*
X168649999Y-92244508D01*
X168561454Y-92258532D01*
X168527168Y-92253102D01*
X168524036Y-92259251D01*
X168498978Y-92277457D01*
X168411659Y-92321949D01*
X168321949Y-92411659D01*
X168264355Y-92524692D01*
X168264354Y-92524696D01*
X168244508Y-92649999D01*
X151183298Y-92649999D01*
X151206514Y-92604436D01*
X151226360Y-92479132D01*
X151206514Y-92353828D01*
X151148918Y-92240790D01*
X151059210Y-92151082D01*
X151055274Y-92149076D01*
X150946175Y-92093487D01*
X150946172Y-92093486D01*
X150820868Y-92073640D01*
X150695564Y-92093486D01*
X150695560Y-92093487D01*
X150582527Y-92151081D01*
X150492817Y-92240791D01*
X150435223Y-92353824D01*
X150435222Y-92353828D01*
X150417717Y-92464354D01*
X150415376Y-92479132D01*
X149704308Y-92479132D01*
X149675307Y-92464355D01*
X149675304Y-92464354D01*
X149550000Y-92444508D01*
X149424696Y-92464354D01*
X149424692Y-92464355D01*
X149311659Y-92521949D01*
X149221949Y-92611659D01*
X149164355Y-92724692D01*
X149164354Y-92724696D01*
X149144508Y-92849999D01*
X127500000Y-92849999D01*
X127500000Y-92199997D01*
X148094353Y-92199997D01*
X148094353Y-92200002D01*
X148114834Y-92342456D01*
X148174622Y-92473371D01*
X148174623Y-92473373D01*
X148268872Y-92582143D01*
X148268873Y-92582144D01*
X148389942Y-92659950D01*
X148389947Y-92659953D01*
X148496403Y-92691211D01*
X148528035Y-92700499D01*
X148528036Y-92700499D01*
X148528039Y-92700500D01*
X148528041Y-92700500D01*
X148671959Y-92700500D01*
X148671961Y-92700500D01*
X148810053Y-92659953D01*
X148931128Y-92582143D01*
X149025377Y-92473373D01*
X149085165Y-92342457D01*
X149091992Y-92294971D01*
X149105647Y-92200002D01*
X149105647Y-92199997D01*
X149085165Y-92057543D01*
X149071695Y-92028049D01*
X149025377Y-91926627D01*
X148958979Y-91849999D01*
X156944508Y-91849999D01*
X156944508Y-91850000D01*
X156964354Y-91975303D01*
X156964355Y-91975307D01*
X157006257Y-92057543D01*
X157021950Y-92088342D01*
X157111658Y-92178050D01*
X157224696Y-92235646D01*
X157350000Y-92255492D01*
X157475304Y-92235646D01*
X157588342Y-92178050D01*
X157678050Y-92088342D01*
X157735646Y-91975304D01*
X157755492Y-91850000D01*
X157739654Y-91749999D01*
X160044508Y-91749999D01*
X160044508Y-91750000D01*
X160064354Y-91875303D01*
X160064355Y-91875307D01*
X160115306Y-91975303D01*
X160121950Y-91988342D01*
X160211658Y-92078050D01*
X160324696Y-92135646D01*
X160450000Y-92155492D01*
X160575304Y-92135646D01*
X160688342Y-92078050D01*
X160778050Y-91988342D01*
X160835646Y-91875304D01*
X160855492Y-91750000D01*
X160853915Y-91740046D01*
X160847573Y-91700000D01*
X160847573Y-91699999D01*
X167944508Y-91699999D01*
X167944508Y-91700000D01*
X167964354Y-91825303D01*
X167964355Y-91825307D01*
X167976937Y-91850000D01*
X168021950Y-91938342D01*
X168111658Y-92028050D01*
X168224696Y-92085646D01*
X168350000Y-92105492D01*
X168438547Y-92091467D01*
X168472830Y-92096897D01*
X168475964Y-92090747D01*
X168501017Y-92072544D01*
X168588342Y-92028050D01*
X168678050Y-91938342D01*
X168735646Y-91825304D01*
X168755492Y-91700000D01*
X168735646Y-91574696D01*
X168678050Y-91461658D01*
X168588342Y-91371950D01*
X168573434Y-91364354D01*
X168475307Y-91314355D01*
X168475304Y-91314354D01*
X168350000Y-91294508D01*
X168224696Y-91314354D01*
X168224692Y-91314355D01*
X168111659Y-91371949D01*
X168021949Y-91461659D01*
X167964355Y-91574692D01*
X167964354Y-91574696D01*
X167944508Y-91699999D01*
X160847573Y-91699999D01*
X160835646Y-91624696D01*
X160778050Y-91511658D01*
X160688342Y-91421950D01*
X160684406Y-91419944D01*
X160575307Y-91364355D01*
X160575304Y-91364354D01*
X160450000Y-91344508D01*
X160324696Y-91364354D01*
X160324692Y-91364355D01*
X160211659Y-91421949D01*
X160121949Y-91511659D01*
X160064355Y-91624692D01*
X160064354Y-91624696D01*
X160044508Y-91749999D01*
X157739654Y-91749999D01*
X157735646Y-91724696D01*
X157678050Y-91611658D01*
X157588342Y-91521950D01*
X157568143Y-91511658D01*
X157475307Y-91464355D01*
X157475304Y-91464354D01*
X157350000Y-91444508D01*
X157224696Y-91464354D01*
X157224692Y-91464355D01*
X157111659Y-91521949D01*
X157021949Y-91611659D01*
X156964355Y-91724692D01*
X156964354Y-91724696D01*
X156944508Y-91849999D01*
X148958979Y-91849999D01*
X148931128Y-91817857D01*
X148931127Y-91817856D01*
X148931126Y-91817855D01*
X148810057Y-91740049D01*
X148810054Y-91740047D01*
X148810053Y-91740047D01*
X148810050Y-91740046D01*
X148671964Y-91699500D01*
X148671961Y-91699500D01*
X148528039Y-91699500D01*
X148528035Y-91699500D01*
X148389949Y-91740046D01*
X148389942Y-91740049D01*
X148268873Y-91817855D01*
X148174622Y-91926628D01*
X148114834Y-92057543D01*
X148094353Y-92199997D01*
X127500000Y-92199997D01*
X127500000Y-89974997D01*
X133394353Y-89974997D01*
X133394353Y-89975002D01*
X133414834Y-90117456D01*
X133447207Y-90188342D01*
X133474623Y-90248373D01*
X133550243Y-90335644D01*
X133571494Y-90360169D01*
X133595311Y-90416529D01*
X133581452Y-90476124D01*
X133571494Y-90489831D01*
X133474622Y-90601628D01*
X133414834Y-90732543D01*
X133394353Y-90874997D01*
X133394353Y-90875002D01*
X133414834Y-91017456D01*
X133440370Y-91073371D01*
X133474623Y-91148373D01*
X133503885Y-91182143D01*
X133568873Y-91257144D01*
X133689942Y-91334950D01*
X133689947Y-91334953D01*
X133790079Y-91364354D01*
X133828035Y-91375499D01*
X133828036Y-91375499D01*
X133828039Y-91375500D01*
X133828041Y-91375500D01*
X133971959Y-91375500D01*
X133971961Y-91375500D01*
X134110053Y-91334953D01*
X134231128Y-91257143D01*
X134325377Y-91148373D01*
X134385165Y-91017457D01*
X134405647Y-90875000D01*
X134394863Y-90799997D01*
X134385165Y-90732543D01*
X134325377Y-90601628D01*
X134325377Y-90601627D01*
X134231128Y-90492857D01*
X134228506Y-90489831D01*
X134204688Y-90433472D01*
X134218547Y-90373876D01*
X134228506Y-90360169D01*
X134249757Y-90335644D01*
X134325377Y-90248373D01*
X134385165Y-90117457D01*
X134401981Y-90000499D01*
X134405647Y-89975002D01*
X134405647Y-89974997D01*
X134385165Y-89832543D01*
X134371517Y-89802659D01*
X134325377Y-89701627D01*
X134231128Y-89592857D01*
X134231127Y-89592856D01*
X134231126Y-89592855D01*
X134110057Y-89515049D01*
X134110054Y-89515047D01*
X134110053Y-89515047D01*
X134110050Y-89515046D01*
X134058798Y-89499997D01*
X138894353Y-89499997D01*
X138894353Y-89500002D01*
X138914834Y-89642456D01*
X138953275Y-89726628D01*
X138974623Y-89773373D01*
X139065840Y-89878644D01*
X139068873Y-89882144D01*
X139189942Y-89959950D01*
X139189947Y-89959953D01*
X139296403Y-89991211D01*
X139328035Y-90000499D01*
X139328036Y-90000499D01*
X139328039Y-90000500D01*
X139328041Y-90000500D01*
X139471959Y-90000500D01*
X139471961Y-90000500D01*
X139610053Y-89959953D01*
X139731128Y-89882143D01*
X139731136Y-89882133D01*
X139735165Y-89878644D01*
X139791523Y-89854824D01*
X139851119Y-89868679D01*
X139864835Y-89878644D01*
X139868866Y-89882137D01*
X139868872Y-89882143D01*
X139989947Y-89959953D01*
X140096403Y-89991211D01*
X140128035Y-90000499D01*
X140128036Y-90000499D01*
X140128039Y-90000500D01*
X140128041Y-90000500D01*
X140271959Y-90000500D01*
X140271961Y-90000500D01*
X140410053Y-89959953D01*
X140531128Y-89882143D01*
X140531136Y-89882133D01*
X140535165Y-89878644D01*
X140591523Y-89854824D01*
X140651119Y-89868679D01*
X140664835Y-89878644D01*
X140668866Y-89882137D01*
X140668872Y-89882143D01*
X140789947Y-89959953D01*
X140896403Y-89991211D01*
X140928035Y-90000499D01*
X140928036Y-90000499D01*
X140928039Y-90000500D01*
X140928041Y-90000500D01*
X141071959Y-90000500D01*
X141071961Y-90000500D01*
X141210053Y-89959953D01*
X141225540Y-89950000D01*
X147744508Y-89950000D01*
X147752427Y-90000002D01*
X147764354Y-90075303D01*
X147764355Y-90075307D01*
X147785832Y-90117457D01*
X147821950Y-90188342D01*
X147911658Y-90278050D01*
X148024696Y-90335646D01*
X148150000Y-90355492D01*
X148275304Y-90335646D01*
X148388342Y-90278050D01*
X148478050Y-90188342D01*
X148535646Y-90075304D01*
X148555492Y-89950000D01*
X148539653Y-89849997D01*
X148744353Y-89849997D01*
X148744353Y-89850002D01*
X148764834Y-89992456D01*
X148821921Y-90117456D01*
X148824623Y-90123373D01*
X148880917Y-90188340D01*
X148918873Y-90232144D01*
X149039942Y-90309950D01*
X149039947Y-90309953D01*
X149146403Y-90341211D01*
X149178035Y-90350499D01*
X149178036Y-90350499D01*
X149178039Y-90350500D01*
X149178041Y-90350500D01*
X149321959Y-90350500D01*
X149321961Y-90350500D01*
X149460053Y-90309953D01*
X149581128Y-90232143D01*
X149675377Y-90123373D01*
X149735165Y-89992457D01*
X149751025Y-89882145D01*
X149755647Y-89850002D01*
X149755647Y-89849997D01*
X149735165Y-89707543D01*
X149705440Y-89642456D01*
X149675377Y-89576627D01*
X149581128Y-89467857D01*
X149581127Y-89467856D01*
X149581126Y-89467855D01*
X149460057Y-89390049D01*
X149460054Y-89390047D01*
X149460053Y-89390047D01*
X149460050Y-89390046D01*
X149321964Y-89349500D01*
X149321961Y-89349500D01*
X149178039Y-89349500D01*
X149178035Y-89349500D01*
X149039949Y-89390046D01*
X149039942Y-89390049D01*
X148918873Y-89467855D01*
X148824622Y-89576628D01*
X148764834Y-89707543D01*
X148744353Y-89849997D01*
X148539653Y-89849997D01*
X148535646Y-89824696D01*
X148478050Y-89711658D01*
X148388342Y-89621950D01*
X148345263Y-89600000D01*
X148275307Y-89564355D01*
X148275304Y-89564354D01*
X148150000Y-89544508D01*
X148024696Y-89564354D01*
X148024692Y-89564355D01*
X147911659Y-89621949D01*
X147821949Y-89711659D01*
X147764355Y-89824692D01*
X147764354Y-89824696D01*
X147755810Y-89878644D01*
X147744508Y-89950000D01*
X141225540Y-89950000D01*
X141331128Y-89882143D01*
X141425377Y-89773373D01*
X141485165Y-89642457D01*
X141499248Y-89544508D01*
X141505647Y-89500002D01*
X141505647Y-89499997D01*
X141485165Y-89357543D01*
X141459114Y-89300500D01*
X141425377Y-89226627D01*
X141331128Y-89117857D01*
X141331127Y-89117856D01*
X141331126Y-89117855D01*
X141210057Y-89040049D01*
X141210054Y-89040047D01*
X141210053Y-89040047D01*
X141210050Y-89040046D01*
X141073667Y-89000000D01*
X149884508Y-89000000D01*
X149903174Y-89117856D01*
X149904354Y-89125303D01*
X149904355Y-89125307D01*
X149934988Y-89185426D01*
X149961950Y-89238342D01*
X150051658Y-89328050D01*
X150164696Y-89385646D01*
X150290000Y-89405492D01*
X150415304Y-89385646D01*
X150528342Y-89328050D01*
X150618050Y-89238342D01*
X150618086Y-89238270D01*
X150618141Y-89238215D01*
X150622628Y-89232040D01*
X150623605Y-89232750D01*
X150661344Y-89195004D01*
X150721775Y-89185426D01*
X150776295Y-89213199D01*
X150804078Y-89267712D01*
X150804290Y-89269120D01*
X150814834Y-89342456D01*
X150874623Y-89473373D01*
X150928169Y-89535170D01*
X150951986Y-89591529D01*
X150938127Y-89651124D01*
X150928169Y-89664830D01*
X150874623Y-89726626D01*
X150814834Y-89857543D01*
X150794353Y-89999997D01*
X150794353Y-90000002D01*
X150814834Y-90142456D01*
X150874623Y-90273373D01*
X150928169Y-90335170D01*
X150951986Y-90391529D01*
X150938127Y-90451124D01*
X150928169Y-90464830D01*
X150874623Y-90526626D01*
X150814834Y-90657543D01*
X150794353Y-90799997D01*
X150794353Y-90800002D01*
X150814834Y-90942456D01*
X150874622Y-91073371D01*
X150874623Y-91073373D01*
X150968872Y-91182143D01*
X150968873Y-91182144D01*
X151085576Y-91257144D01*
X151089947Y-91259953D01*
X151196403Y-91291211D01*
X151228035Y-91300499D01*
X151228036Y-91300499D01*
X151228039Y-91300500D01*
X151228041Y-91300500D01*
X151371959Y-91300500D01*
X151371961Y-91300500D01*
X151510053Y-91259953D01*
X151631128Y-91182143D01*
X151725377Y-91073373D01*
X151785165Y-90942457D01*
X151791992Y-90894971D01*
X151805647Y-90800002D01*
X151805647Y-90799997D01*
X151785165Y-90657543D01*
X151725377Y-90526628D01*
X151725377Y-90526627D01*
X151671828Y-90464828D01*
X151648012Y-90408473D01*
X151661870Y-90348877D01*
X151671820Y-90335180D01*
X151725377Y-90273373D01*
X151785165Y-90142457D01*
X151805575Y-90000500D01*
X151805647Y-90000002D01*
X151805647Y-89999997D01*
X151785165Y-89857543D01*
X151746725Y-89773373D01*
X151725377Y-89726627D01*
X151671828Y-89664828D01*
X151648012Y-89608473D01*
X151661870Y-89548877D01*
X151671820Y-89535180D01*
X151725377Y-89473373D01*
X151785165Y-89342457D01*
X151798386Y-89250500D01*
X151805647Y-89200002D01*
X151805647Y-89199997D01*
X151785165Y-89057543D01*
X151769559Y-89023371D01*
X151725377Y-88926627D01*
X151631128Y-88817857D01*
X151631127Y-88817856D01*
X151631126Y-88817855D01*
X151525536Y-88749997D01*
X160294353Y-88749997D01*
X160294353Y-88750002D01*
X160314834Y-88892456D01*
X160363720Y-88999500D01*
X160374623Y-89023373D01*
X160468156Y-89131317D01*
X160468873Y-89132144D01*
X160589942Y-89209950D01*
X160589947Y-89209953D01*
X160686632Y-89238342D01*
X160728035Y-89250499D01*
X160728036Y-89250499D01*
X160728039Y-89250500D01*
X160728041Y-89250500D01*
X160871959Y-89250500D01*
X160871961Y-89250500D01*
X161010053Y-89209953D01*
X161131128Y-89132143D01*
X161225377Y-89023373D01*
X161285165Y-88892457D01*
X161298458Y-88800000D01*
X162219508Y-88800000D01*
X162237960Y-88916505D01*
X162239354Y-88925303D01*
X162239355Y-88925307D01*
X162274968Y-88995200D01*
X162296950Y-89038342D01*
X162386658Y-89128050D01*
X162499696Y-89185646D01*
X162625000Y-89205492D01*
X162750304Y-89185646D01*
X162863342Y-89128050D01*
X162953050Y-89038342D01*
X163010646Y-88925304D01*
X163030492Y-88800000D01*
X165969508Y-88800000D01*
X165987960Y-88916505D01*
X165989354Y-88925303D01*
X165989355Y-88925307D01*
X166024968Y-88995200D01*
X166046950Y-89038342D01*
X166136658Y-89128050D01*
X166249696Y-89185646D01*
X166375000Y-89205492D01*
X166500304Y-89185646D01*
X166613342Y-89128050D01*
X166703050Y-89038342D01*
X166760646Y-88925304D01*
X166780492Y-88800000D01*
X166780492Y-88799997D01*
X167394353Y-88799997D01*
X167394353Y-88800002D01*
X167414834Y-88942456D01*
X167474622Y-89073371D01*
X167474623Y-89073373D01*
X167568872Y-89182143D01*
X167568873Y-89182144D01*
X167689942Y-89259950D01*
X167689947Y-89259953D01*
X167796403Y-89291211D01*
X167828035Y-89300499D01*
X167828036Y-89300499D01*
X167828039Y-89300500D01*
X167828041Y-89300500D01*
X167971959Y-89300500D01*
X167971961Y-89300500D01*
X168110053Y-89259953D01*
X168231128Y-89182143D01*
X168325377Y-89073373D01*
X168385165Y-88942457D01*
X168392354Y-88892456D01*
X168405647Y-88800002D01*
X168405647Y-88799997D01*
X168385165Y-88657543D01*
X168365441Y-88614354D01*
X168325377Y-88526627D01*
X168231128Y-88417857D01*
X168231127Y-88417856D01*
X168231126Y-88417855D01*
X168110057Y-88340049D01*
X168110054Y-88340047D01*
X168110053Y-88340047D01*
X168110050Y-88340046D01*
X167971964Y-88299500D01*
X167971961Y-88299500D01*
X167828039Y-88299500D01*
X167828035Y-88299500D01*
X167689949Y-88340046D01*
X167689942Y-88340049D01*
X167568873Y-88417855D01*
X167474622Y-88526628D01*
X167414834Y-88657543D01*
X167394353Y-88799997D01*
X166780492Y-88799997D01*
X166760646Y-88674696D01*
X166703050Y-88561658D01*
X166613342Y-88471950D01*
X166589791Y-88459950D01*
X166500307Y-88414355D01*
X166500304Y-88414354D01*
X166375000Y-88394508D01*
X166249696Y-88414354D01*
X166249692Y-88414355D01*
X166136659Y-88471949D01*
X166046949Y-88561659D01*
X165989355Y-88674692D01*
X165989354Y-88674696D01*
X165975581Y-88761659D01*
X165969508Y-88800000D01*
X163030492Y-88800000D01*
X163010646Y-88674696D01*
X162988451Y-88631136D01*
X162978879Y-88570704D01*
X163006656Y-88516187D01*
X163061172Y-88488409D01*
X163092141Y-88488409D01*
X163200000Y-88505492D01*
X163325304Y-88485646D01*
X163438342Y-88428050D01*
X163528050Y-88338342D01*
X163561791Y-88272120D01*
X163605055Y-88228857D01*
X163665487Y-88219286D01*
X163720004Y-88247064D01*
X163738206Y-88272117D01*
X163771950Y-88338342D01*
X163861658Y-88428050D01*
X163974696Y-88485646D01*
X164100000Y-88505492D01*
X164225304Y-88485646D01*
X164338342Y-88428050D01*
X164428050Y-88338342D01*
X164485646Y-88225304D01*
X164505492Y-88100000D01*
X164485646Y-87974696D01*
X164428050Y-87861658D01*
X164338342Y-87771950D01*
X164334406Y-87769944D01*
X164225307Y-87714355D01*
X164225304Y-87714354D01*
X164100000Y-87694508D01*
X163974696Y-87714354D01*
X163974692Y-87714355D01*
X163861659Y-87771949D01*
X163771949Y-87861659D01*
X163738209Y-87927878D01*
X163694944Y-87971142D01*
X163634512Y-87980713D01*
X163579996Y-87952935D01*
X163561791Y-87927878D01*
X163547841Y-87900500D01*
X163528050Y-87861658D01*
X163438342Y-87771950D01*
X163434406Y-87769944D01*
X163325307Y-87714355D01*
X163325304Y-87714354D01*
X163200000Y-87694508D01*
X163074696Y-87714354D01*
X163074692Y-87714355D01*
X162961659Y-87771949D01*
X162871949Y-87861659D01*
X162814355Y-87974692D01*
X162814354Y-87974696D01*
X162794508Y-88100000D01*
X162801232Y-88142457D01*
X162814354Y-88225303D01*
X162814354Y-88225305D01*
X162836549Y-88268864D01*
X162846120Y-88329296D01*
X162818343Y-88383813D01*
X162763826Y-88411590D01*
X162732853Y-88411590D01*
X162625000Y-88394508D01*
X162499696Y-88414354D01*
X162499692Y-88414355D01*
X162386659Y-88471949D01*
X162296949Y-88561659D01*
X162239355Y-88674692D01*
X162239354Y-88674696D01*
X162225581Y-88761659D01*
X162219508Y-88800000D01*
X161298458Y-88800000D01*
X161305647Y-88750000D01*
X161304216Y-88740049D01*
X161285165Y-88607543D01*
X161248211Y-88526627D01*
X161225377Y-88476627D01*
X161131128Y-88367857D01*
X161131127Y-88367856D01*
X161131126Y-88367855D01*
X161010057Y-88290049D01*
X161010054Y-88290047D01*
X161010053Y-88290047D01*
X161010050Y-88290046D01*
X160871964Y-88249500D01*
X160871961Y-88249500D01*
X160728039Y-88249500D01*
X160728035Y-88249500D01*
X160589949Y-88290046D01*
X160589942Y-88290049D01*
X160468873Y-88367855D01*
X160374622Y-88476628D01*
X160314834Y-88607543D01*
X160294353Y-88749997D01*
X151525536Y-88749997D01*
X151510057Y-88740049D01*
X151510054Y-88740047D01*
X151510053Y-88740047D01*
X151510050Y-88740046D01*
X151371964Y-88699500D01*
X151371961Y-88699500D01*
X151228039Y-88699500D01*
X151228035Y-88699500D01*
X151089949Y-88740046D01*
X151089942Y-88740049D01*
X150968873Y-88817855D01*
X150874622Y-88926627D01*
X150869441Y-88937974D01*
X150828068Y-88983051D01*
X150768101Y-88995200D01*
X150712445Y-88969782D01*
X150682359Y-88916505D01*
X150681607Y-88912333D01*
X150675646Y-88874696D01*
X150618050Y-88761658D01*
X150528342Y-88671950D01*
X150500067Y-88657543D01*
X150415307Y-88614355D01*
X150415304Y-88614354D01*
X150290000Y-88594508D01*
X150164696Y-88614354D01*
X150164692Y-88614355D01*
X150051659Y-88671949D01*
X149961949Y-88761659D01*
X149904355Y-88874692D01*
X149904354Y-88874696D01*
X149896339Y-88925304D01*
X149884508Y-89000000D01*
X141073667Y-89000000D01*
X141071964Y-88999500D01*
X141071961Y-88999500D01*
X140928039Y-88999500D01*
X140928035Y-88999500D01*
X140789949Y-89040046D01*
X140789942Y-89040049D01*
X140668872Y-89117856D01*
X140664830Y-89121359D01*
X140608471Y-89145176D01*
X140548876Y-89131317D01*
X140535170Y-89121359D01*
X140531127Y-89117856D01*
X140410057Y-89040049D01*
X140410054Y-89040047D01*
X140410053Y-89040047D01*
X140410050Y-89040046D01*
X140271964Y-88999500D01*
X140271961Y-88999500D01*
X140128039Y-88999500D01*
X140128035Y-88999500D01*
X139989949Y-89040046D01*
X139989942Y-89040049D01*
X139868872Y-89117856D01*
X139864830Y-89121359D01*
X139808471Y-89145176D01*
X139748876Y-89131317D01*
X139735170Y-89121359D01*
X139731127Y-89117856D01*
X139610057Y-89040049D01*
X139610054Y-89040047D01*
X139610053Y-89040047D01*
X139610050Y-89040046D01*
X139471964Y-88999500D01*
X139471961Y-88999500D01*
X139328039Y-88999500D01*
X139328035Y-88999500D01*
X139189949Y-89040046D01*
X139189942Y-89040049D01*
X139068873Y-89117855D01*
X138974622Y-89226628D01*
X138914834Y-89357543D01*
X138894353Y-89499997D01*
X134058798Y-89499997D01*
X133971964Y-89474500D01*
X133971961Y-89474500D01*
X133828039Y-89474500D01*
X133828035Y-89474500D01*
X133689949Y-89515046D01*
X133689942Y-89515049D01*
X133568873Y-89592855D01*
X133474622Y-89701628D01*
X133414834Y-89832543D01*
X133394353Y-89974997D01*
X127500000Y-89974997D01*
X127500000Y-87999997D01*
X158694353Y-87999997D01*
X158694353Y-88000002D01*
X158714834Y-88142456D01*
X158754293Y-88228857D01*
X158774623Y-88273373D01*
X158856493Y-88367857D01*
X158868873Y-88382144D01*
X158989942Y-88459950D01*
X158989947Y-88459953D01*
X159096403Y-88491211D01*
X159128035Y-88500499D01*
X159128036Y-88500499D01*
X159128039Y-88500500D01*
X159128041Y-88500500D01*
X159271959Y-88500500D01*
X159271961Y-88500500D01*
X159410053Y-88459953D01*
X159531128Y-88382143D01*
X159625377Y-88273373D01*
X159685165Y-88142457D01*
X159705647Y-88000000D01*
X159702008Y-87974692D01*
X159685165Y-87857543D01*
X159650731Y-87782144D01*
X159625377Y-87726627D01*
X159531128Y-87617857D01*
X159531127Y-87617856D01*
X159531126Y-87617855D01*
X159410057Y-87540049D01*
X159410054Y-87540047D01*
X159410053Y-87540047D01*
X159410050Y-87540046D01*
X159271964Y-87499500D01*
X159271961Y-87499500D01*
X159128039Y-87499500D01*
X159128035Y-87499500D01*
X158989949Y-87540046D01*
X158989942Y-87540049D01*
X158868873Y-87617855D01*
X158774622Y-87726628D01*
X158714834Y-87857543D01*
X158694353Y-87999997D01*
X127500000Y-87999997D01*
X127500000Y-87399997D01*
X133394353Y-87399997D01*
X133394353Y-87400002D01*
X133414834Y-87542456D01*
X133449268Y-87617855D01*
X133474623Y-87673373D01*
X133560039Y-87771949D01*
X133568873Y-87782144D01*
X133686197Y-87857543D01*
X133689947Y-87859953D01*
X133796403Y-87891211D01*
X133828035Y-87900499D01*
X133828036Y-87900499D01*
X133828039Y-87900500D01*
X133828041Y-87900500D01*
X133971959Y-87900500D01*
X133971961Y-87900500D01*
X134110053Y-87859953D01*
X134231128Y-87782143D01*
X134325377Y-87673373D01*
X134385165Y-87542457D01*
X134405647Y-87400000D01*
X134405647Y-87399997D01*
X148694353Y-87399997D01*
X148694353Y-87400002D01*
X148714834Y-87542456D01*
X148749268Y-87617855D01*
X148774623Y-87673373D01*
X148860039Y-87771949D01*
X148868873Y-87782144D01*
X148986197Y-87857543D01*
X148989947Y-87859953D01*
X149096403Y-87891211D01*
X149128035Y-87900499D01*
X149128036Y-87900499D01*
X149128039Y-87900500D01*
X149128041Y-87900500D01*
X149271959Y-87900500D01*
X149271961Y-87900500D01*
X149410053Y-87859953D01*
X149531128Y-87782143D01*
X149625377Y-87673373D01*
X149685165Y-87542457D01*
X149705647Y-87400000D01*
X149701818Y-87373371D01*
X149685165Y-87257543D01*
X149672811Y-87230492D01*
X149625377Y-87126627D01*
X149602302Y-87099997D01*
X159694353Y-87099997D01*
X159694353Y-87100002D01*
X159714834Y-87242456D01*
X159774622Y-87373371D01*
X159774623Y-87373373D01*
X159868872Y-87482143D01*
X159868873Y-87482144D01*
X159989942Y-87559950D01*
X159989947Y-87559953D01*
X160096403Y-87591211D01*
X160128035Y-87600499D01*
X160128036Y-87600499D01*
X160128039Y-87600500D01*
X160128041Y-87600500D01*
X160271959Y-87600500D01*
X160271961Y-87600500D01*
X160410053Y-87559953D01*
X160531128Y-87482143D01*
X160625377Y-87373373D01*
X160685165Y-87242457D01*
X160705647Y-87100000D01*
X160703331Y-87083895D01*
X160685165Y-86957543D01*
X160658657Y-86899500D01*
X160625377Y-86826627D01*
X160623967Y-86825000D01*
X167464508Y-86825000D01*
X167482729Y-86940047D01*
X167484354Y-86950303D01*
X167484355Y-86950307D01*
X167488042Y-86957543D01*
X167541950Y-87063342D01*
X167631658Y-87153050D01*
X167744696Y-87210646D01*
X167870000Y-87230492D01*
X167995304Y-87210646D01*
X168108342Y-87153050D01*
X168177498Y-87083893D01*
X168232013Y-87056118D01*
X168292445Y-87065689D01*
X168317500Y-87083892D01*
X168361658Y-87128050D01*
X168474696Y-87185646D01*
X168600000Y-87205492D01*
X168725304Y-87185646D01*
X168838342Y-87128050D01*
X168928050Y-87038342D01*
X168985646Y-86925304D01*
X169005492Y-86800000D01*
X168985646Y-86674696D01*
X168928050Y-86561658D01*
X168838342Y-86471950D01*
X168795257Y-86449997D01*
X168725307Y-86414355D01*
X168725304Y-86414354D01*
X168600000Y-86394508D01*
X168474696Y-86414354D01*
X168474692Y-86414355D01*
X168361659Y-86471949D01*
X168361658Y-86471949D01*
X168361658Y-86471950D01*
X168292501Y-86541106D01*
X168237987Y-86568882D01*
X168177555Y-86559311D01*
X168152499Y-86541107D01*
X168108342Y-86496950D01*
X168059275Y-86471949D01*
X167995307Y-86439355D01*
X167995304Y-86439354D01*
X167870000Y-86419508D01*
X167744696Y-86439354D01*
X167744692Y-86439355D01*
X167631659Y-86496949D01*
X167541949Y-86586659D01*
X167484355Y-86699692D01*
X167484354Y-86699696D01*
X167468468Y-86800000D01*
X167464508Y-86825000D01*
X160623967Y-86825000D01*
X160531128Y-86717857D01*
X160531127Y-86717856D01*
X160531126Y-86717855D01*
X160410057Y-86640049D01*
X160410054Y-86640047D01*
X160410053Y-86640047D01*
X160410050Y-86640046D01*
X160271964Y-86599500D01*
X160271961Y-86599500D01*
X160128039Y-86599500D01*
X160128035Y-86599500D01*
X159989949Y-86640046D01*
X159989942Y-86640049D01*
X159868873Y-86717855D01*
X159774622Y-86826628D01*
X159714834Y-86957543D01*
X159694353Y-87099997D01*
X149602302Y-87099997D01*
X149531128Y-87017857D01*
X149531127Y-87017856D01*
X149531126Y-87017855D01*
X149410057Y-86940049D01*
X149410054Y-86940047D01*
X149410053Y-86940047D01*
X149410050Y-86940046D01*
X149271964Y-86899500D01*
X149271961Y-86899500D01*
X149128039Y-86899500D01*
X149128035Y-86899500D01*
X148989949Y-86940046D01*
X148989942Y-86940049D01*
X148868873Y-87017855D01*
X148774622Y-87126628D01*
X148714834Y-87257543D01*
X148694353Y-87399997D01*
X134405647Y-87399997D01*
X134401818Y-87373371D01*
X134385165Y-87257543D01*
X134372811Y-87230492D01*
X134325377Y-87126627D01*
X134231128Y-87017857D01*
X134231127Y-87017856D01*
X134231126Y-87017855D01*
X134110057Y-86940049D01*
X134110054Y-86940047D01*
X134110053Y-86940047D01*
X134110050Y-86940046D01*
X133971964Y-86899500D01*
X133971961Y-86899500D01*
X133828039Y-86899500D01*
X133828035Y-86899500D01*
X133689949Y-86940046D01*
X133689942Y-86940049D01*
X133568873Y-87017855D01*
X133474622Y-87126628D01*
X133414834Y-87257543D01*
X133394353Y-87399997D01*
X127500000Y-87399997D01*
X127500000Y-86449997D01*
X156444353Y-86449997D01*
X156444353Y-86450002D01*
X156464834Y-86592456D01*
X156513808Y-86699692D01*
X156524623Y-86723373D01*
X156614093Y-86826628D01*
X156618873Y-86832144D01*
X156739942Y-86909950D01*
X156739947Y-86909953D01*
X156842436Y-86940046D01*
X156878035Y-86950499D01*
X156878036Y-86950499D01*
X156878039Y-86950500D01*
X156878041Y-86950500D01*
X157021959Y-86950500D01*
X157021961Y-86950500D01*
X157160053Y-86909953D01*
X157281128Y-86832143D01*
X157375377Y-86723373D01*
X157435165Y-86592457D01*
X157455647Y-86450000D01*
X157454116Y-86439355D01*
X157435165Y-86307543D01*
X157375377Y-86176628D01*
X157375377Y-86176627D01*
X157281128Y-86067857D01*
X157281127Y-86067856D01*
X157281126Y-86067855D01*
X157160057Y-85990049D01*
X157160054Y-85990047D01*
X157160053Y-85990047D01*
X157160050Y-85990046D01*
X157021964Y-85949500D01*
X157021961Y-85949500D01*
X156878039Y-85949500D01*
X156878035Y-85949500D01*
X156739949Y-85990046D01*
X156739942Y-85990049D01*
X156618873Y-86067855D01*
X156524622Y-86176628D01*
X156464834Y-86307543D01*
X156444353Y-86449997D01*
X127500000Y-86449997D01*
X127500000Y-84249997D01*
X134394353Y-84249997D01*
X134394353Y-84250002D01*
X134414834Y-84392456D01*
X134452532Y-84475002D01*
X134474623Y-84523373D01*
X134568872Y-84632143D01*
X134568873Y-84632144D01*
X134689942Y-84709950D01*
X134689947Y-84709953D01*
X134796403Y-84741211D01*
X134828035Y-84750499D01*
X134828036Y-84750499D01*
X134828039Y-84750500D01*
X134828041Y-84750500D01*
X134971959Y-84750500D01*
X134971961Y-84750500D01*
X135110053Y-84709953D01*
X135231128Y-84632143D01*
X135325377Y-84523373D01*
X135347468Y-84475002D01*
X135359947Y-84447677D01*
X135401319Y-84402599D01*
X135461285Y-84390448D01*
X135516942Y-84415866D01*
X135540053Y-84447677D01*
X135574621Y-84523370D01*
X135574622Y-84523371D01*
X135574623Y-84523373D01*
X135668872Y-84632143D01*
X135668873Y-84632144D01*
X135789942Y-84709950D01*
X135789947Y-84709953D01*
X135896403Y-84741211D01*
X135928035Y-84750499D01*
X135928036Y-84750499D01*
X135928039Y-84750500D01*
X135928041Y-84750500D01*
X136071959Y-84750500D01*
X136071961Y-84750500D01*
X136210053Y-84709953D01*
X136331128Y-84632143D01*
X136413139Y-84537497D01*
X145144353Y-84537497D01*
X145144353Y-84537502D01*
X145164834Y-84679956D01*
X145196079Y-84748371D01*
X145224623Y-84810873D01*
X145264716Y-84857143D01*
X145318873Y-84919644D01*
X145405787Y-84975500D01*
X145439947Y-84997453D01*
X145546403Y-85028711D01*
X145578035Y-85037999D01*
X145578036Y-85037999D01*
X145578039Y-85038000D01*
X145578041Y-85038000D01*
X145721959Y-85038000D01*
X145721961Y-85038000D01*
X145860053Y-84997453D01*
X145981128Y-84919643D01*
X146075377Y-84810873D01*
X146135165Y-84679957D01*
X146144151Y-84617456D01*
X146155647Y-84537502D01*
X146155647Y-84537497D01*
X146146661Y-84474997D01*
X148894353Y-84474997D01*
X148894353Y-84475002D01*
X148914834Y-84617456D01*
X148957077Y-84709953D01*
X148974623Y-84748373D01*
X149068872Y-84857143D01*
X149068873Y-84857144D01*
X149189942Y-84934950D01*
X149189947Y-84934953D01*
X149296403Y-84966211D01*
X149328035Y-84975499D01*
X149328036Y-84975499D01*
X149328039Y-84975500D01*
X149328041Y-84975500D01*
X149471959Y-84975500D01*
X149471961Y-84975500D01*
X149610053Y-84934953D01*
X149731128Y-84857143D01*
X149825377Y-84748373D01*
X149885165Y-84617457D01*
X149898692Y-84523373D01*
X149905647Y-84475002D01*
X149905647Y-84474997D01*
X153694353Y-84474997D01*
X153694353Y-84475002D01*
X153714834Y-84617456D01*
X153757077Y-84709953D01*
X153774623Y-84748373D01*
X153868872Y-84857143D01*
X153868873Y-84857144D01*
X153989942Y-84934950D01*
X153989947Y-84934953D01*
X154096403Y-84966211D01*
X154128035Y-84975499D01*
X154128036Y-84975499D01*
X154128039Y-84975500D01*
X154128041Y-84975500D01*
X154271959Y-84975500D01*
X154271961Y-84975500D01*
X154410053Y-84934953D01*
X154531128Y-84857143D01*
X154625377Y-84748373D01*
X154685165Y-84617457D01*
X154698692Y-84523373D01*
X154705647Y-84475002D01*
X154705647Y-84474997D01*
X154685165Y-84332543D01*
X154670303Y-84300000D01*
X160594508Y-84300000D01*
X160610394Y-84400304D01*
X160614354Y-84425303D01*
X160614355Y-84425307D01*
X160659211Y-84513340D01*
X160671950Y-84538342D01*
X160761658Y-84628050D01*
X160874696Y-84685646D01*
X161000000Y-84705492D01*
X161125304Y-84685646D01*
X161238342Y-84628050D01*
X161328050Y-84538342D01*
X161385646Y-84425304D01*
X161404198Y-84308164D01*
X161410100Y-84296582D01*
X161409810Y-84296292D01*
X161404002Y-84278417D01*
X161589899Y-84278417D01*
X161590188Y-84278706D01*
X161599760Y-84308164D01*
X161614354Y-84400303D01*
X161614355Y-84400307D01*
X161638492Y-84447677D01*
X161671950Y-84513342D01*
X161761658Y-84603050D01*
X161874696Y-84660646D01*
X162000000Y-84680492D01*
X162125304Y-84660646D01*
X162238342Y-84603050D01*
X162328050Y-84513342D01*
X162385646Y-84400304D01*
X162405492Y-84275000D01*
X162385646Y-84149696D01*
X162328050Y-84036658D01*
X162238342Y-83946950D01*
X162225752Y-83940535D01*
X162125307Y-83889355D01*
X162125304Y-83889354D01*
X162000000Y-83869508D01*
X161874696Y-83889354D01*
X161874692Y-83889355D01*
X161761659Y-83946949D01*
X161671949Y-84036659D01*
X161614355Y-84149692D01*
X161614354Y-84149696D01*
X161595801Y-84266834D01*
X161589899Y-84278417D01*
X161404002Y-84278417D01*
X161400239Y-84266834D01*
X161397572Y-84249997D01*
X161385646Y-84174696D01*
X161328050Y-84061658D01*
X161238342Y-83971950D01*
X161234406Y-83969944D01*
X161125307Y-83914355D01*
X161125304Y-83914354D01*
X161000000Y-83894508D01*
X160874696Y-83914354D01*
X160874692Y-83914355D01*
X160761659Y-83971949D01*
X160671949Y-84061659D01*
X160614355Y-84174692D01*
X160614354Y-84174696D01*
X160597881Y-84278706D01*
X160594508Y-84300000D01*
X154670303Y-84300000D01*
X154668742Y-84296582D01*
X154625377Y-84201627D01*
X154531128Y-84092857D01*
X154531127Y-84092856D01*
X154531126Y-84092855D01*
X154410057Y-84015049D01*
X154410054Y-84015047D01*
X154410053Y-84015047D01*
X154410050Y-84015046D01*
X154271964Y-83974500D01*
X154271961Y-83974500D01*
X154128039Y-83974500D01*
X154128035Y-83974500D01*
X153989949Y-84015046D01*
X153989942Y-84015049D01*
X153868873Y-84092855D01*
X153774622Y-84201628D01*
X153714834Y-84332543D01*
X153694353Y-84474997D01*
X149905647Y-84474997D01*
X149885165Y-84332543D01*
X149868742Y-84296582D01*
X149825377Y-84201627D01*
X149731128Y-84092857D01*
X149731127Y-84092856D01*
X149731126Y-84092855D01*
X149610057Y-84015049D01*
X149610054Y-84015047D01*
X149610053Y-84015047D01*
X149610050Y-84015046D01*
X149471964Y-83974500D01*
X149471961Y-83974500D01*
X149328039Y-83974500D01*
X149328035Y-83974500D01*
X149189949Y-84015046D01*
X149189942Y-84015049D01*
X149068873Y-84092855D01*
X148974622Y-84201628D01*
X148914834Y-84332543D01*
X148894353Y-84474997D01*
X146146661Y-84474997D01*
X146135165Y-84395043D01*
X146133984Y-84392456D01*
X146075377Y-84264127D01*
X145981128Y-84155357D01*
X145981127Y-84155356D01*
X145981126Y-84155355D01*
X145860057Y-84077549D01*
X145860054Y-84077547D01*
X145860053Y-84077547D01*
X145860050Y-84077546D01*
X145721964Y-84037000D01*
X145721961Y-84037000D01*
X145578039Y-84037000D01*
X145578035Y-84037000D01*
X145439949Y-84077546D01*
X145439942Y-84077549D01*
X145318873Y-84155355D01*
X145224622Y-84264128D01*
X145164834Y-84395043D01*
X145144353Y-84537497D01*
X136413139Y-84537497D01*
X136425377Y-84523373D01*
X136485165Y-84392457D01*
X136505647Y-84250000D01*
X136498692Y-84201628D01*
X136485165Y-84107543D01*
X136464210Y-84061658D01*
X136425377Y-83976627D01*
X136331128Y-83867857D01*
X136331127Y-83867856D01*
X136331126Y-83867855D01*
X136210057Y-83790049D01*
X136210054Y-83790047D01*
X136210053Y-83790047D01*
X136210050Y-83790046D01*
X136071964Y-83749500D01*
X136071961Y-83749500D01*
X135967493Y-83749500D01*
X135909302Y-83730593D01*
X135873338Y-83681093D01*
X135873338Y-83619907D01*
X135877440Y-83609373D01*
X135885165Y-83592456D01*
X135905647Y-83450002D01*
X135905647Y-83449997D01*
X135885165Y-83307543D01*
X135825377Y-83176627D01*
X135731128Y-83067857D01*
X135731127Y-83067856D01*
X135731126Y-83067855D01*
X135610057Y-82990049D01*
X135610054Y-82990047D01*
X135610053Y-82990047D01*
X135610050Y-82990046D01*
X135471964Y-82949500D01*
X135471961Y-82949500D01*
X135328039Y-82949500D01*
X135328035Y-82949500D01*
X135189949Y-82990046D01*
X135189942Y-82990049D01*
X135068873Y-83067855D01*
X134974622Y-83176628D01*
X134914834Y-83307543D01*
X134894353Y-83449997D01*
X134894353Y-83450002D01*
X134914834Y-83592456D01*
X134922560Y-83609373D01*
X134929535Y-83670160D01*
X134899449Y-83723437D01*
X134843793Y-83748855D01*
X134832507Y-83749500D01*
X134828035Y-83749500D01*
X134689949Y-83790046D01*
X134689942Y-83790049D01*
X134568873Y-83867855D01*
X134474622Y-83976628D01*
X134414834Y-84107543D01*
X134394353Y-84249997D01*
X127500000Y-84249997D01*
X127500000Y-81000683D01*
X127500004Y-80999996D01*
X128894592Y-80999996D01*
X128894592Y-81000003D01*
X128914201Y-81286682D01*
X128914202Y-81286686D01*
X128972666Y-81568032D01*
X129068896Y-81838797D01*
X129201099Y-82093936D01*
X129366811Y-82328698D01*
X129562947Y-82538708D01*
X129785853Y-82720055D01*
X129785859Y-82720059D01*
X129785861Y-82720060D01*
X130031370Y-82869358D01*
X130031382Y-82869365D01*
X130157588Y-82924183D01*
X130294942Y-82983844D01*
X130571642Y-83061371D01*
X130856322Y-83100500D01*
X130856328Y-83100500D01*
X131143672Y-83100500D01*
X131143678Y-83100500D01*
X131428358Y-83061371D01*
X131705058Y-82983844D01*
X131866351Y-82913784D01*
X131968617Y-82869365D01*
X131968620Y-82869362D01*
X131968625Y-82869361D01*
X132106007Y-82785817D01*
X148384500Y-82785817D01*
X148384500Y-82924183D01*
X148420311Y-83057832D01*
X148420310Y-83057832D01*
X148420311Y-83057835D01*
X148420312Y-83057836D01*
X148489495Y-83177665D01*
X148587335Y-83275505D01*
X148707164Y-83344688D01*
X148840817Y-83380500D01*
X148840819Y-83380500D01*
X148979181Y-83380500D01*
X148979183Y-83380500D01*
X149112836Y-83344688D01*
X149232665Y-83275505D01*
X149330505Y-83177665D01*
X149399688Y-83057836D01*
X149435500Y-82924183D01*
X149435500Y-82824999D01*
X152544508Y-82824999D01*
X152544508Y-82825000D01*
X152564354Y-82950303D01*
X152564355Y-82950307D01*
X152619145Y-83057836D01*
X152621950Y-83063342D01*
X152711658Y-83153050D01*
X152824696Y-83210646D01*
X152950000Y-83230492D01*
X153075304Y-83210646D01*
X153188342Y-83153050D01*
X153278050Y-83063342D01*
X153335646Y-82950304D01*
X153355492Y-82825000D01*
X153349286Y-82785817D01*
X154164500Y-82785817D01*
X154164500Y-82924183D01*
X154200311Y-83057832D01*
X154200310Y-83057832D01*
X154200311Y-83057835D01*
X154200312Y-83057836D01*
X154269495Y-83177665D01*
X154367335Y-83275505D01*
X154487164Y-83344688D01*
X154620817Y-83380500D01*
X154620819Y-83380500D01*
X154759181Y-83380500D01*
X154759183Y-83380500D01*
X154892836Y-83344688D01*
X155012665Y-83275505D01*
X155110505Y-83177665D01*
X155179688Y-83057836D01*
X155215500Y-82924183D01*
X155215500Y-82785817D01*
X155179688Y-82652164D01*
X155110505Y-82532335D01*
X155012665Y-82434495D01*
X154892836Y-82365312D01*
X154759183Y-82329500D01*
X154620817Y-82329500D01*
X154487164Y-82365312D01*
X154367335Y-82434495D01*
X154269495Y-82532335D01*
X154200312Y-82652164D01*
X154164500Y-82785817D01*
X153349286Y-82785817D01*
X153335646Y-82699696D01*
X153278050Y-82586658D01*
X153188342Y-82496950D01*
X153184406Y-82494944D01*
X153075307Y-82439355D01*
X153075304Y-82439354D01*
X152950000Y-82419508D01*
X152824696Y-82439354D01*
X152824692Y-82439355D01*
X152711659Y-82496949D01*
X152621949Y-82586659D01*
X152564355Y-82699692D01*
X152564354Y-82699696D01*
X152544508Y-82824999D01*
X149435500Y-82824999D01*
X149435500Y-82785817D01*
X149399688Y-82652164D01*
X149330505Y-82532335D01*
X149232665Y-82434495D01*
X149112836Y-82365312D01*
X148979183Y-82329500D01*
X148840817Y-82329500D01*
X148707164Y-82365312D01*
X148587335Y-82434495D01*
X148489495Y-82532335D01*
X148420312Y-82652164D01*
X148384500Y-82785817D01*
X132106007Y-82785817D01*
X132214147Y-82720055D01*
X132437053Y-82538708D01*
X132633189Y-82328698D01*
X132671094Y-82274999D01*
X150329508Y-82274999D01*
X150329508Y-82275000D01*
X150349354Y-82400303D01*
X150349355Y-82400307D01*
X150398597Y-82496949D01*
X150406950Y-82513342D01*
X150496658Y-82603050D01*
X150609696Y-82660646D01*
X150735000Y-82680492D01*
X150860304Y-82660646D01*
X150973342Y-82603050D01*
X151063050Y-82513342D01*
X151120646Y-82400304D01*
X151140492Y-82275000D01*
X151120646Y-82149696D01*
X151063050Y-82036658D01*
X150973342Y-81946950D01*
X150969406Y-81944944D01*
X150860307Y-81889355D01*
X150860304Y-81889354D01*
X150735000Y-81869508D01*
X150609696Y-81889354D01*
X150609692Y-81889355D01*
X150496659Y-81946949D01*
X150406949Y-82036659D01*
X150349355Y-82149692D01*
X150349354Y-82149696D01*
X150329508Y-82274999D01*
X132671094Y-82274999D01*
X132798901Y-82093936D01*
X132931104Y-81838797D01*
X133007089Y-81624997D01*
X159494353Y-81624997D01*
X159494353Y-81625002D01*
X159514834Y-81767456D01*
X159574622Y-81898371D01*
X159574623Y-81898373D01*
X159616714Y-81946949D01*
X159668873Y-82007144D01*
X159789942Y-82084950D01*
X159789947Y-82084953D01*
X159896403Y-82116211D01*
X159928035Y-82125499D01*
X159928036Y-82125499D01*
X159928039Y-82125500D01*
X159928041Y-82125500D01*
X160071959Y-82125500D01*
X160071961Y-82125500D01*
X160210053Y-82084953D01*
X160331128Y-82007143D01*
X160425377Y-81898373D01*
X160485165Y-81767457D01*
X160505647Y-81625000D01*
X160497456Y-81568032D01*
X160485165Y-81482543D01*
X160452014Y-81409953D01*
X160425377Y-81351627D01*
X160331128Y-81242857D01*
X160331127Y-81242856D01*
X160331126Y-81242855D01*
X160210057Y-81165049D01*
X160210054Y-81165047D01*
X160210053Y-81165047D01*
X160210050Y-81165046D01*
X160071964Y-81124500D01*
X160071961Y-81124500D01*
X159928039Y-81124500D01*
X159928035Y-81124500D01*
X159789949Y-81165046D01*
X159789942Y-81165049D01*
X159668873Y-81242855D01*
X159574622Y-81351628D01*
X159514834Y-81482543D01*
X159494353Y-81624997D01*
X133007089Y-81624997D01*
X133027334Y-81568032D01*
X133085798Y-81286686D01*
X133105408Y-81000000D01*
X133104674Y-80989276D01*
X133101987Y-80949997D01*
X149494353Y-80949997D01*
X149494353Y-80950002D01*
X149514834Y-81092456D01*
X149562687Y-81197238D01*
X149574623Y-81223373D01*
X149629484Y-81286686D01*
X149668873Y-81332144D01*
X149699191Y-81351628D01*
X149789947Y-81409953D01*
X149896403Y-81441211D01*
X149928035Y-81450499D01*
X149928036Y-81450499D01*
X149928039Y-81450500D01*
X149928041Y-81450500D01*
X150071959Y-81450500D01*
X150071961Y-81450500D01*
X150210053Y-81409953D01*
X150331128Y-81332143D01*
X150425182Y-81223597D01*
X150477576Y-81192003D01*
X150538537Y-81197238D01*
X150574816Y-81223596D01*
X150629484Y-81286686D01*
X150668873Y-81332144D01*
X150699191Y-81351628D01*
X150789947Y-81409953D01*
X150896403Y-81441211D01*
X150928035Y-81450499D01*
X150928036Y-81450499D01*
X150928039Y-81450500D01*
X150928041Y-81450500D01*
X151071959Y-81450500D01*
X151071961Y-81450500D01*
X151210053Y-81409953D01*
X151331128Y-81332143D01*
X151425377Y-81223373D01*
X151485165Y-81092457D01*
X151498459Y-80999996D01*
X166894592Y-80999996D01*
X166894592Y-81000003D01*
X166914201Y-81286682D01*
X166914202Y-81286686D01*
X166972666Y-81568032D01*
X167068896Y-81838797D01*
X167201099Y-82093936D01*
X167366811Y-82328698D01*
X167562947Y-82538708D01*
X167785853Y-82720055D01*
X167785859Y-82720059D01*
X167785861Y-82720060D01*
X168031370Y-82869358D01*
X168031382Y-82869365D01*
X168157588Y-82924183D01*
X168294942Y-82983844D01*
X168571642Y-83061371D01*
X168856322Y-83100500D01*
X168856328Y-83100500D01*
X169143672Y-83100500D01*
X169143678Y-83100500D01*
X169428358Y-83061371D01*
X169705058Y-82983844D01*
X169866351Y-82913784D01*
X169968617Y-82869365D01*
X169968620Y-82869362D01*
X169968625Y-82869361D01*
X170214147Y-82720055D01*
X170437053Y-82538708D01*
X170633189Y-82328698D01*
X170798901Y-82093936D01*
X170931104Y-81838797D01*
X171027334Y-81568032D01*
X171085798Y-81286686D01*
X171105408Y-81000000D01*
X171104674Y-80989276D01*
X171085798Y-80713317D01*
X171085798Y-80713314D01*
X171027334Y-80431968D01*
X170931104Y-80161203D01*
X170798901Y-79906064D01*
X170633189Y-79671302D01*
X170437053Y-79461292D01*
X170214147Y-79279945D01*
X170214142Y-79279942D01*
X170214138Y-79279939D01*
X169968629Y-79130641D01*
X169968617Y-79130634D01*
X169705063Y-79016158D01*
X169705061Y-79016157D01*
X169705058Y-79016156D01*
X169428358Y-78938629D01*
X169143678Y-78899500D01*
X168856322Y-78899500D01*
X168571642Y-78938629D01*
X168294942Y-79016156D01*
X168294939Y-79016156D01*
X168294936Y-79016158D01*
X168031382Y-79130634D01*
X168031370Y-79130641D01*
X167785861Y-79279939D01*
X167785847Y-79279949D01*
X167562952Y-79461287D01*
X167562951Y-79461288D01*
X167366810Y-79671303D01*
X167366805Y-79671309D01*
X167201098Y-79906065D01*
X167068895Y-80161204D01*
X167033801Y-80259950D01*
X167001798Y-80350000D01*
X166972665Y-80431972D01*
X166914203Y-80713308D01*
X166914201Y-80713317D01*
X166894592Y-80999996D01*
X151498459Y-80999996D01*
X151505647Y-80950000D01*
X151485165Y-80807543D01*
X151425377Y-80676627D01*
X151331128Y-80567857D01*
X151331127Y-80567856D01*
X151331126Y-80567855D01*
X151210057Y-80490049D01*
X151210054Y-80490047D01*
X151210053Y-80490047D01*
X151210050Y-80490046D01*
X151071964Y-80449500D01*
X151071961Y-80449500D01*
X150928039Y-80449500D01*
X150928035Y-80449500D01*
X150789949Y-80490046D01*
X150789942Y-80490049D01*
X150668872Y-80567856D01*
X150668870Y-80567858D01*
X150574819Y-80676400D01*
X150522424Y-80707996D01*
X150461463Y-80702760D01*
X150425181Y-80676400D01*
X150331129Y-80567858D01*
X150331127Y-80567856D01*
X150210057Y-80490049D01*
X150210054Y-80490047D01*
X150210053Y-80490047D01*
X150210050Y-80490046D01*
X150071964Y-80449500D01*
X150071961Y-80449500D01*
X149928039Y-80449500D01*
X149928035Y-80449500D01*
X149789949Y-80490046D01*
X149789942Y-80490049D01*
X149668873Y-80567855D01*
X149574622Y-80676628D01*
X149514834Y-80807543D01*
X149494353Y-80949997D01*
X133101987Y-80949997D01*
X133085798Y-80713317D01*
X133085798Y-80713314D01*
X133027334Y-80431968D01*
X132998201Y-80349997D01*
X151594353Y-80349997D01*
X151594353Y-80350002D01*
X151614834Y-80492456D01*
X151649268Y-80567855D01*
X151674623Y-80623373D01*
X151768872Y-80732143D01*
X151768873Y-80732144D01*
X151779319Y-80738857D01*
X151889947Y-80809953D01*
X151996403Y-80841211D01*
X152028035Y-80850499D01*
X152028036Y-80850499D01*
X152028039Y-80850500D01*
X152028041Y-80850500D01*
X152171959Y-80850500D01*
X152171961Y-80850500D01*
X152310053Y-80809953D01*
X152431128Y-80732143D01*
X152525377Y-80623373D01*
X152585165Y-80492457D01*
X152605647Y-80350000D01*
X152605647Y-80349997D01*
X153794353Y-80349997D01*
X153794353Y-80350002D01*
X153814834Y-80492456D01*
X153849268Y-80567855D01*
X153874623Y-80623373D01*
X153968872Y-80732143D01*
X153968873Y-80732144D01*
X153979319Y-80738857D01*
X154089947Y-80809953D01*
X154196403Y-80841211D01*
X154228035Y-80850499D01*
X154228036Y-80850499D01*
X154228039Y-80850500D01*
X154228041Y-80850500D01*
X154371959Y-80850500D01*
X154371961Y-80850500D01*
X154510053Y-80809953D01*
X154596477Y-80754412D01*
X154655652Y-80738857D01*
X154703523Y-80754412D01*
X154789947Y-80809953D01*
X154896403Y-80841211D01*
X154928035Y-80850499D01*
X154928036Y-80850499D01*
X154928039Y-80850500D01*
X154928041Y-80850500D01*
X155071959Y-80850500D01*
X155071961Y-80850500D01*
X155210053Y-80809953D01*
X155331128Y-80732143D01*
X155425377Y-80623373D01*
X155485165Y-80492457D01*
X155505647Y-80350000D01*
X155485165Y-80207543D01*
X155425377Y-80076627D01*
X155331128Y-79967857D01*
X155331127Y-79967856D01*
X155331126Y-79967855D01*
X155210057Y-79890049D01*
X155210054Y-79890047D01*
X155210053Y-79890047D01*
X155210050Y-79890046D01*
X155071964Y-79849500D01*
X155071961Y-79849500D01*
X154928039Y-79849500D01*
X154928035Y-79849500D01*
X154789949Y-79890046D01*
X154789947Y-79890047D01*
X154703523Y-79945588D01*
X154644347Y-79961141D01*
X154596477Y-79945588D01*
X154575547Y-79932137D01*
X154510053Y-79890047D01*
X154510050Y-79890046D01*
X154371964Y-79849500D01*
X154371961Y-79849500D01*
X154228039Y-79849500D01*
X154228035Y-79849500D01*
X154089949Y-79890046D01*
X154089942Y-79890049D01*
X153968873Y-79967855D01*
X153874622Y-80076628D01*
X153814834Y-80207543D01*
X153794353Y-80349997D01*
X152605647Y-80349997D01*
X152585165Y-80207543D01*
X152525377Y-80076627D01*
X152431128Y-79967857D01*
X152431127Y-79967856D01*
X152431126Y-79967855D01*
X152310057Y-79890049D01*
X152310054Y-79890047D01*
X152310053Y-79890047D01*
X152310050Y-79890046D01*
X152171964Y-79849500D01*
X152171961Y-79849500D01*
X152028039Y-79849500D01*
X152028035Y-79849500D01*
X151889949Y-79890046D01*
X151889942Y-79890049D01*
X151768873Y-79967855D01*
X151674622Y-80076628D01*
X151614834Y-80207543D01*
X151594353Y-80349997D01*
X132998201Y-80349997D01*
X132931104Y-80161203D01*
X132798901Y-79906064D01*
X132633189Y-79671302D01*
X132437053Y-79461292D01*
X132214147Y-79279945D01*
X132214142Y-79279942D01*
X132214138Y-79279939D01*
X131968629Y-79130641D01*
X131968617Y-79130634D01*
X131705063Y-79016158D01*
X131705061Y-79016157D01*
X131705058Y-79016156D01*
X131428358Y-78938629D01*
X131143678Y-78899500D01*
X130856322Y-78899500D01*
X130571642Y-78938629D01*
X130294942Y-79016156D01*
X130294939Y-79016156D01*
X130294936Y-79016158D01*
X130031382Y-79130634D01*
X130031370Y-79130641D01*
X129785861Y-79279939D01*
X129785847Y-79279949D01*
X129562952Y-79461287D01*
X129562951Y-79461288D01*
X129366810Y-79671303D01*
X129366805Y-79671309D01*
X129201098Y-79906065D01*
X129068895Y-80161204D01*
X129033801Y-80259950D01*
X129001798Y-80350000D01*
X128972665Y-80431972D01*
X128914203Y-80713308D01*
X128914201Y-80713317D01*
X128894592Y-80999996D01*
X127500004Y-80999996D01*
X127500008Y-80999388D01*
X127500654Y-80949997D01*
X127502338Y-80821220D01*
X127502871Y-80812196D01*
X127540177Y-80457251D01*
X127541794Y-80447042D01*
X127615865Y-80098568D01*
X127618543Y-80088578D01*
X127728626Y-79749782D01*
X127732339Y-79740108D01*
X127769099Y-79657543D01*
X127877234Y-79414664D01*
X127881926Y-79405458D01*
X128060048Y-79096942D01*
X128065675Y-79088276D01*
X128275088Y-78800043D01*
X128281584Y-78792022D01*
X128519965Y-78527273D01*
X128527273Y-78519965D01*
X128792022Y-78281584D01*
X128800043Y-78275088D01*
X128903397Y-78199997D01*
X145794353Y-78199997D01*
X145794353Y-78200002D01*
X145814834Y-78342456D01*
X145874623Y-78473373D01*
X145928169Y-78535170D01*
X145951986Y-78591529D01*
X145938127Y-78651124D01*
X145928169Y-78664830D01*
X145874623Y-78726626D01*
X145814834Y-78857543D01*
X145794353Y-78999997D01*
X145794353Y-79000002D01*
X145814834Y-79142456D01*
X145874623Y-79273373D01*
X145928169Y-79335170D01*
X145951986Y-79391529D01*
X145938127Y-79451124D01*
X145928169Y-79464830D01*
X145874623Y-79526626D01*
X145814834Y-79657543D01*
X145794353Y-79799997D01*
X145794353Y-79800002D01*
X145814834Y-79942456D01*
X145836381Y-79989636D01*
X145874623Y-80073373D01*
X145968872Y-80182143D01*
X145968873Y-80182144D01*
X146008395Y-80207543D01*
X146089947Y-80259953D01*
X146196403Y-80291211D01*
X146228035Y-80300499D01*
X146228036Y-80300499D01*
X146228039Y-80300500D01*
X146228041Y-80300500D01*
X146371959Y-80300500D01*
X146371961Y-80300500D01*
X146510053Y-80259953D01*
X146631128Y-80182143D01*
X146725377Y-80073373D01*
X146785165Y-79942457D01*
X146805647Y-79800000D01*
X146785165Y-79657543D01*
X146725377Y-79526627D01*
X146671828Y-79464828D01*
X146648012Y-79408473D01*
X146661870Y-79348877D01*
X146671820Y-79335180D01*
X146725377Y-79273373D01*
X146785165Y-79142457D01*
X146805647Y-79000000D01*
X146796823Y-78938630D01*
X146785165Y-78857543D01*
X146725377Y-78726628D01*
X146725377Y-78726627D01*
X146671828Y-78664828D01*
X146648012Y-78608473D01*
X146661870Y-78548877D01*
X146671820Y-78535180D01*
X146725377Y-78473373D01*
X146785165Y-78342457D01*
X146805647Y-78200000D01*
X146785165Y-78057543D01*
X146725377Y-77926627D01*
X146631128Y-77817857D01*
X146631127Y-77817856D01*
X146631126Y-77817855D01*
X146510057Y-77740049D01*
X146510054Y-77740047D01*
X146510053Y-77740047D01*
X146510050Y-77740046D01*
X146371964Y-77699500D01*
X146371961Y-77699500D01*
X146228039Y-77699500D01*
X146228035Y-77699500D01*
X146089949Y-77740046D01*
X146089942Y-77740049D01*
X145968873Y-77817855D01*
X145874622Y-77926628D01*
X145814834Y-78057543D01*
X145794353Y-78199997D01*
X128903397Y-78199997D01*
X129088276Y-78065675D01*
X129096942Y-78060048D01*
X129405458Y-77881926D01*
X129414664Y-77877234D01*
X129740110Y-77732338D01*
X129749782Y-77728626D01*
X130088578Y-77618543D01*
X130098568Y-77615865D01*
X130447042Y-77541794D01*
X130457251Y-77540177D01*
X130812196Y-77502871D01*
X130821220Y-77502338D01*
X130999388Y-77500007D01*
X131000683Y-77500000D01*
X168999317Y-77500000D01*
X169000611Y-77500007D01*
G37*
%TD.AperFunction*%
M02*
