%TF.GenerationSoftware,KiCad,Pcbnew,8.0.7*%
%TF.CreationDate,2025-10-10T17:09:57-07:00*%
%TF.ProjectId,CurlDrive-2,4375726c-4472-4697-9665-2d322e6b6963,rev?*%
%TF.SameCoordinates,Original*%
%TF.FileFunction,Legend,Bot*%
%TF.FilePolarity,Positive*%
%FSLAX46Y46*%
G04 Gerber Fmt 4.6, Leading zero omitted, Abs format (unit mm)*
G04 Created by KiCad (PCBNEW 8.0.7) date 2025-10-10 17:09:57*
%MOMM*%
%LPD*%
G01*
G04 APERTURE LIST*
G04 Aperture macros list*
%AMRoundRect*
0 Rectangle with rounded corners*
0 $1 Rounding radius*
0 $2 $3 $4 $5 $6 $7 $8 $9 X,Y pos of 4 corners*
0 Add a 4 corners polygon primitive as box body*
4,1,4,$2,$3,$4,$5,$6,$7,$8,$9,$2,$3,0*
0 Add four circle primitives for the rounded corners*
1,1,$1+$1,$2,$3*
1,1,$1+$1,$4,$5*
1,1,$1+$1,$6,$7*
1,1,$1+$1,$8,$9*
0 Add four rect primitives between the rounded corners*
20,1,$1+$1,$2,$3,$4,$5,0*
20,1,$1+$1,$4,$5,$6,$7,0*
20,1,$1+$1,$6,$7,$8,$9,0*
20,1,$1+$1,$8,$9,$2,$3,0*%
G04 Aperture macros list end*
%ADD10C,0.250000*%
%ADD11C,0.100000*%
%ADD12C,0.200000*%
%ADD13C,0.125000*%
%ADD14C,0.150000*%
%ADD15C,0.120000*%
%ADD16C,0.000000*%
%ADD17C,3.800000*%
%ADD18C,0.550000*%
%ADD19C,1.800000*%
%ADD20RoundRect,0.675000X1.575000X-1.575000X1.575000X1.575000X-1.575000X1.575000X-1.575000X-1.575000X0*%
%ADD21C,1.400000*%
%ADD22RoundRect,0.770000X0.980000X-0.980000X0.980000X0.980000X-0.980000X0.980000X-0.980000X-0.980000X0*%
%ADD23C,3.500000*%
%ADD24C,0.650000*%
%ADD25O,1.000000X2.100000*%
%ADD26O,1.000000X1.800000*%
%ADD27C,0.499999*%
%ADD28RoundRect,0.225000X0.250000X-0.225000X0.250000X0.225000X-0.250000X0.225000X-0.250000X-0.225000X0*%
%ADD29RoundRect,0.112500X0.187500X0.112500X-0.187500X0.112500X-0.187500X-0.112500X0.187500X-0.112500X0*%
%ADD30RoundRect,0.135000X-0.135000X-0.185000X0.135000X-0.185000X0.135000X0.185000X-0.135000X0.185000X0*%
%ADD31RoundRect,0.225000X0.225000X0.250000X-0.225000X0.250000X-0.225000X-0.250000X0.225000X-0.250000X0*%
%ADD32RoundRect,0.140000X-0.140000X-0.170000X0.140000X-0.170000X0.140000X0.170000X-0.140000X0.170000X0*%
%ADD33RoundRect,0.140000X0.170000X-0.140000X0.170000X0.140000X-0.170000X0.140000X-0.170000X-0.140000X0*%
%ADD34RoundRect,0.250000X-0.650000X0.325000X-0.650000X-0.325000X0.650000X-0.325000X0.650000X0.325000X0*%
%ADD35RoundRect,0.100000X-0.637500X-0.100000X0.637500X-0.100000X0.637500X0.100000X-0.637500X0.100000X0*%
%ADD36RoundRect,0.150000X-0.625000X0.150000X-0.625000X-0.150000X0.625000X-0.150000X0.625000X0.150000X0*%
%ADD37RoundRect,0.250000X-0.650000X0.350000X-0.650000X-0.350000X0.650000X-0.350000X0.650000X0.350000X0*%
%ADD38RoundRect,0.140000X-0.170000X0.140000X-0.170000X-0.140000X0.170000X-0.140000X0.170000X0.140000X0*%
%ADD39RoundRect,0.135000X0.135000X0.185000X-0.135000X0.185000X-0.135000X-0.185000X0.135000X-0.185000X0*%
%ADD40RoundRect,0.150000X0.150000X-0.512500X0.150000X0.512500X-0.150000X0.512500X-0.150000X-0.512500X0*%
%ADD41RoundRect,0.200000X-0.200000X-0.275000X0.200000X-0.275000X0.200000X0.275000X-0.200000X0.275000X0*%
%ADD42RoundRect,0.200000X0.200000X0.275000X-0.200000X0.275000X-0.200000X-0.275000X0.200000X-0.275000X0*%
%ADD43RoundRect,0.200000X-0.275000X0.200000X-0.275000X-0.200000X0.275000X-0.200000X0.275000X0.200000X0*%
%ADD44RoundRect,0.250000X0.250000X0.475000X-0.250000X0.475000X-0.250000X-0.475000X0.250000X-0.475000X0*%
%ADD45RoundRect,0.250000X-0.900000X1.000000X-0.900000X-1.000000X0.900000X-1.000000X0.900000X1.000000X0*%
%ADD46RoundRect,0.075000X0.225000X0.075000X-0.225000X0.075000X-0.225000X-0.075000X0.225000X-0.075000X0*%
%ADD47RoundRect,0.080000X0.720000X1.120000X-0.720000X1.120000X-0.720000X-1.120000X0.720000X-1.120000X0*%
%ADD48RoundRect,0.140000X0.140000X0.170000X-0.140000X0.170000X-0.140000X-0.170000X0.140000X-0.170000X0*%
%ADD49RoundRect,0.150000X-0.512500X-0.150000X0.512500X-0.150000X0.512500X0.150000X-0.512500X0.150000X0*%
G04 APERTURE END LIST*
D10*
X150980330Y-100000000D02*
G75*
G02*
X148980330Y-100000000I-1000000J0D01*
G01*
X148980330Y-100000000D02*
G75*
G02*
X150980330Y-100000000I1000000J0D01*
G01*
D11*
X154480373Y-100000000D02*
G75*
G02*
X145480287Y-100000000I-4500043J0D01*
G01*
X145480287Y-100000000D02*
G75*
G02*
X154480373Y-100000000I4500043J0D01*
G01*
D12*
X149980330Y-100000000D02*
X148919670Y-98939340D01*
X149980330Y-100000000D02*
X151040990Y-98939340D01*
X151060660Y-101055330D02*
X150000000Y-99994670D01*
X149980330Y-100000000D02*
X148919670Y-101060660D01*
D13*
G36*
X158734817Y-87323848D02*
G01*
X158763027Y-87349373D01*
X158780486Y-87385974D01*
X158787859Y-87424618D01*
X158789992Y-87467196D01*
X158787812Y-87506562D01*
X158779230Y-87546071D01*
X158762441Y-87578375D01*
X158731422Y-87605046D01*
X158693467Y-87613937D01*
X158654700Y-87602020D01*
X158632699Y-87580133D01*
X158616633Y-87544190D01*
X158609847Y-87505218D01*
X158607884Y-87461725D01*
X158609940Y-87421539D01*
X158618036Y-87381491D01*
X158633872Y-87349177D01*
X158664309Y-87321582D01*
X158696202Y-87313811D01*
X158734817Y-87323848D01*
G37*
G36*
X152574150Y-87319346D02*
G01*
X152608732Y-87337561D01*
X152614556Y-87342729D01*
X152634920Y-87376952D01*
X152637417Y-87388842D01*
X152431471Y-87388842D01*
X152445175Y-87351163D01*
X152463125Y-87332764D01*
X152500623Y-87316939D01*
X152533662Y-87313811D01*
X152574150Y-87319346D01*
G37*
G36*
X155330875Y-87321840D02*
G01*
X155363619Y-87345925D01*
X155367466Y-87350350D01*
X155386948Y-87386681D01*
X155395676Y-87427799D01*
X155397556Y-87463678D01*
X155395192Y-87504146D01*
X155385878Y-87544706D01*
X155367661Y-87577789D01*
X155336328Y-87603735D01*
X155298384Y-87613795D01*
X155292825Y-87613937D01*
X155253847Y-87606123D01*
X155221911Y-87582681D01*
X155218184Y-87578375D01*
X155199081Y-87541809D01*
X155191014Y-87503455D01*
X155188680Y-87461334D01*
X155191029Y-87421936D01*
X155200281Y-87382306D01*
X155218380Y-87349764D01*
X155249186Y-87323958D01*
X155288576Y-87313846D01*
X155291262Y-87313811D01*
X155330875Y-87321840D01*
G37*
G36*
X158004548Y-87319346D02*
G01*
X158039129Y-87337561D01*
X158044953Y-87342729D01*
X158065318Y-87376952D01*
X158067815Y-87388842D01*
X157861869Y-87388842D01*
X157875573Y-87351163D01*
X157893523Y-87332764D01*
X157931021Y-87316939D01*
X157964060Y-87313811D01*
X158004548Y-87319346D01*
G37*
G36*
X159597378Y-87143661D02*
G01*
X159634263Y-87158430D01*
X159665614Y-87183045D01*
X159671220Y-87189150D01*
X159692472Y-87222900D01*
X159705524Y-87261958D01*
X159712436Y-87303125D01*
X159715012Y-87343606D01*
X159715184Y-87358166D01*
X159713652Y-87399846D01*
X159707992Y-87442518D01*
X159696418Y-87483432D01*
X159676887Y-87519446D01*
X159671611Y-87526009D01*
X159641202Y-87552594D01*
X159604688Y-87569332D01*
X159562068Y-87576224D01*
X159552811Y-87576421D01*
X159512069Y-87572526D01*
X159473326Y-87559062D01*
X159441452Y-87535981D01*
X159433230Y-87527182D01*
X159412733Y-87492976D01*
X159400146Y-87451827D01*
X159393479Y-87407527D01*
X159390995Y-87363394D01*
X159390829Y-87347419D01*
X159392942Y-87302408D01*
X159399281Y-87263120D01*
X159411701Y-87225226D01*
X159432271Y-87191528D01*
X159434988Y-87188368D01*
X159465679Y-87162196D01*
X159502552Y-87145717D01*
X159545607Y-87138932D01*
X159554960Y-87138738D01*
X159597378Y-87143661D01*
G37*
G36*
X160065510Y-88077983D02*
G01*
X152101661Y-88077983D01*
X152101661Y-87483023D01*
X152190550Y-87483023D01*
X152190550Y-87513895D01*
X152638198Y-87513895D01*
X152628113Y-87553596D01*
X152611429Y-87579743D01*
X152578688Y-87604286D01*
X152540615Y-87613636D01*
X152531513Y-87613937D01*
X152491654Y-87607625D01*
X152471918Y-87599282D01*
X152440682Y-87572879D01*
X152432448Y-87563525D01*
X152199538Y-87590099D01*
X152221099Y-87626623D01*
X152243868Y-87658819D01*
X152271961Y-87690912D01*
X152301699Y-87717115D01*
X152328498Y-87734886D01*
X152368823Y-87753094D01*
X152410478Y-87764759D01*
X152450916Y-87771587D01*
X152495722Y-87775489D01*
X152536398Y-87776505D01*
X152578631Y-87775330D01*
X152623526Y-87770990D01*
X152663709Y-87763453D01*
X152703863Y-87750923D01*
X152721632Y-87743092D01*
X152758041Y-87721066D01*
X152790771Y-87692795D01*
X152816777Y-87662423D01*
X152834374Y-87636407D01*
X152853865Y-87598293D01*
X152867787Y-87557028D01*
X152868700Y-87552387D01*
X152945358Y-87552387D01*
X152958238Y-87591577D01*
X152976465Y-87630625D01*
X152998813Y-87664941D01*
X153006321Y-87674314D01*
X153034180Y-87702585D01*
X153066466Y-87726581D01*
X153103179Y-87746304D01*
X153111052Y-87749736D01*
X153149541Y-87762676D01*
X153188217Y-87770623D01*
X153231094Y-87775224D01*
X153272057Y-87776505D01*
X153311622Y-87775663D01*
X153353244Y-87772641D01*
X153395485Y-87766613D01*
X153428959Y-87758919D01*
X153466584Y-87745669D01*
X153504048Y-87726157D01*
X153537403Y-87701473D01*
X153566282Y-87672453D01*
X153590590Y-87640200D01*
X153608722Y-87608075D01*
X153622323Y-87571152D01*
X153630257Y-87532212D01*
X153633884Y-87493057D01*
X153634514Y-87466414D01*
X153632535Y-87422304D01*
X153626600Y-87382004D01*
X153615194Y-87341220D01*
X153602860Y-87312834D01*
X153581480Y-87277741D01*
X153554488Y-87245809D01*
X153540138Y-87232136D01*
X153507365Y-87206050D01*
X153473817Y-87185898D01*
X153471559Y-87184851D01*
X153638226Y-87184851D01*
X153712085Y-87357384D01*
X153750529Y-87343462D01*
X153777933Y-87338822D01*
X153815932Y-87348362D01*
X153840850Y-87372625D01*
X153858573Y-87412364D01*
X153867073Y-87450558D01*
X153871799Y-87490098D01*
X153874163Y-87535917D01*
X153874458Y-87561180D01*
X153874458Y-87764000D01*
X154111862Y-87764000D01*
X154233006Y-87764000D01*
X154454388Y-87764000D01*
X154454388Y-87680371D01*
X154480852Y-87709181D01*
X154513092Y-87735239D01*
X154539580Y-87751103D01*
X154579202Y-87766582D01*
X154621026Y-87774495D01*
X154659161Y-87776505D01*
X154698762Y-87773756D01*
X154739258Y-87763882D01*
X154774673Y-87746828D01*
X154808443Y-87719059D01*
X154832122Y-87686550D01*
X154849036Y-87646470D01*
X154858285Y-87605189D01*
X154862091Y-87565191D01*
X154862567Y-87543595D01*
X154862567Y-87462311D01*
X154951276Y-87462311D01*
X154953504Y-87504203D01*
X154960187Y-87543663D01*
X154974088Y-87587803D01*
X154994405Y-87628439D01*
X155021138Y-87665573D01*
X155042525Y-87688382D01*
X155072673Y-87713769D01*
X155106207Y-87734853D01*
X155143129Y-87751634D01*
X155183438Y-87764112D01*
X155227133Y-87772288D01*
X155274216Y-87776161D01*
X155293997Y-87776505D01*
X155337358Y-87774721D01*
X155378047Y-87769368D01*
X155423348Y-87758235D01*
X155464802Y-87741964D01*
X155502410Y-87720555D01*
X155525344Y-87703427D01*
X155556754Y-87673660D01*
X155582840Y-87641145D01*
X155603603Y-87605883D01*
X155619042Y-87567872D01*
X155629157Y-87527114D01*
X155632528Y-87496505D01*
X155700222Y-87496505D01*
X155703700Y-87539840D01*
X155714132Y-87581259D01*
X155731520Y-87620761D01*
X155744186Y-87641878D01*
X155768317Y-87673080D01*
X155796747Y-87700252D01*
X155829475Y-87723394D01*
X155866503Y-87742506D01*
X155908097Y-87757381D01*
X155948620Y-87766909D01*
X155992994Y-87773185D01*
X156034096Y-87775974D01*
X156063069Y-87776505D01*
X156113105Y-87775219D01*
X156159167Y-87771363D01*
X156201253Y-87764937D01*
X156239364Y-87755939D01*
X156281413Y-87741078D01*
X156317250Y-87722200D01*
X156352057Y-87694244D01*
X156379940Y-87661617D01*
X156402918Y-87625431D01*
X156420991Y-87585688D01*
X156434160Y-87542386D01*
X156441387Y-87503583D01*
X156444088Y-87479115D01*
X156194960Y-87463483D01*
X156187633Y-87502276D01*
X156173432Y-87540296D01*
X156164283Y-87554537D01*
X156135288Y-87581236D01*
X156098813Y-87596852D01*
X156059161Y-87601431D01*
X156019176Y-87597093D01*
X155983091Y-87580160D01*
X155981394Y-87578766D01*
X155957616Y-87545984D01*
X155954430Y-87526595D01*
X155967552Y-87489537D01*
X155979831Y-87476575D01*
X156016579Y-87456737D01*
X156054817Y-87444339D01*
X156098408Y-87433553D01*
X156104493Y-87432220D01*
X156144347Y-87422792D01*
X156190026Y-87409908D01*
X156231107Y-87395803D01*
X156257444Y-87384739D01*
X156905414Y-87384739D01*
X156905414Y-87764000D01*
X157142623Y-87764000D01*
X157142623Y-87433979D01*
X157146176Y-87393646D01*
X157161185Y-87359924D01*
X157195843Y-87340491D01*
X157213746Y-87338822D01*
X157253568Y-87349085D01*
X157275100Y-87367935D01*
X157292070Y-87405865D01*
X157297911Y-87447433D01*
X157298743Y-87475011D01*
X157298743Y-87764000D01*
X157534974Y-87764000D01*
X157534974Y-87483023D01*
X157620948Y-87483023D01*
X157620948Y-87513895D01*
X158068596Y-87513895D01*
X158058511Y-87553596D01*
X158041827Y-87579743D01*
X158009086Y-87604286D01*
X157971013Y-87613636D01*
X157961911Y-87613937D01*
X157922052Y-87607625D01*
X157902316Y-87599282D01*
X157871080Y-87572879D01*
X157862846Y-87563525D01*
X157629936Y-87590099D01*
X157651496Y-87626623D01*
X157674266Y-87658819D01*
X157702359Y-87690912D01*
X157732097Y-87717115D01*
X157758896Y-87734886D01*
X157799221Y-87753094D01*
X157840876Y-87764759D01*
X157881313Y-87771587D01*
X157926120Y-87775489D01*
X157966796Y-87776505D01*
X158009028Y-87775330D01*
X158053924Y-87770990D01*
X158094107Y-87763453D01*
X158134261Y-87750923D01*
X158152029Y-87743092D01*
X158188439Y-87721066D01*
X158221169Y-87692795D01*
X158247175Y-87662423D01*
X158264772Y-87636407D01*
X158284263Y-87598293D01*
X158298184Y-87557028D01*
X158305798Y-87518337D01*
X158309148Y-87477233D01*
X158309252Y-87469931D01*
X158371848Y-87469931D01*
X158373594Y-87514695D01*
X158378832Y-87556053D01*
X158389727Y-87601187D01*
X158405650Y-87641416D01*
X158426601Y-87676741D01*
X158443362Y-87697565D01*
X158476454Y-87728324D01*
X158513155Y-87751528D01*
X158553466Y-87767177D01*
X158597385Y-87775271D01*
X158624102Y-87776505D01*
X158665610Y-87773828D01*
X158704086Y-87765799D01*
X158720822Y-87760287D01*
X158757336Y-87743752D01*
X158788233Y-87721794D01*
X158788233Y-87989094D01*
X159026614Y-87989094D01*
X159026614Y-87351522D01*
X159129392Y-87351522D01*
X159130575Y-87394499D01*
X159134124Y-87435015D01*
X159141506Y-87480385D01*
X159152295Y-87522210D01*
X159166492Y-87560490D01*
X159177849Y-87584041D01*
X159201031Y-87621951D01*
X159228344Y-87656009D01*
X159259791Y-87686215D01*
X159295370Y-87712568D01*
X159317556Y-87725898D01*
X159353334Y-87743096D01*
X159392230Y-87756736D01*
X159434246Y-87766818D01*
X159479379Y-87773342D01*
X159519373Y-87776060D01*
X159544409Y-87776505D01*
X159586312Y-87775441D01*
X159625925Y-87772250D01*
X159670438Y-87765612D01*
X159711654Y-87755910D01*
X159749573Y-87743144D01*
X159773020Y-87732932D01*
X159811125Y-87711352D01*
X159845939Y-87684911D01*
X159877462Y-87653607D01*
X159901862Y-87622906D01*
X159920348Y-87594593D01*
X159939472Y-87557407D01*
X159954639Y-87516923D01*
X159965850Y-87473143D01*
X159972170Y-87434140D01*
X159975742Y-87392848D01*
X159976621Y-87358166D01*
X159974875Y-87310044D01*
X159969636Y-87264645D01*
X159960904Y-87221970D01*
X159948680Y-87182018D01*
X159932963Y-87144789D01*
X159913753Y-87110284D01*
X159884829Y-87070981D01*
X159864856Y-87049443D01*
X159835556Y-87023477D01*
X159803539Y-87000973D01*
X159768804Y-86981931D01*
X159731353Y-86966351D01*
X159691184Y-86954234D01*
X159648298Y-86945578D01*
X159602695Y-86940385D01*
X159554374Y-86938654D01*
X159504927Y-86940355D01*
X159458387Y-86945456D01*
X159414753Y-86953959D01*
X159374025Y-86965863D01*
X159336204Y-86981168D01*
X159301290Y-86999874D01*
X159261734Y-87028039D01*
X159240180Y-87047489D01*
X159208264Y-87083608D01*
X159181757Y-87123944D01*
X159164446Y-87159250D01*
X159150597Y-87197254D01*
X159140211Y-87237957D01*
X159133287Y-87281359D01*
X159129824Y-87327460D01*
X159129466Y-87347419D01*
X159129392Y-87351522D01*
X159026614Y-87351522D01*
X159026614Y-87163748D01*
X158804842Y-87163748D01*
X158804842Y-87231941D01*
X158777143Y-87204146D01*
X158743421Y-87180329D01*
X158734109Y-87175472D01*
X158694963Y-87160707D01*
X158656472Y-87153160D01*
X158623125Y-87151243D01*
X158579919Y-87154485D01*
X158540574Y-87164212D01*
X158499551Y-87183756D01*
X158463782Y-87212127D01*
X158437305Y-87243469D01*
X158415060Y-87279471D01*
X158397417Y-87318455D01*
X158384377Y-87360419D01*
X158375939Y-87405366D01*
X158372423Y-87445098D01*
X158372038Y-87461725D01*
X158371848Y-87469931D01*
X158309252Y-87469931D01*
X158309322Y-87465046D01*
X158307137Y-87422512D01*
X158300583Y-87382591D01*
X158286949Y-87338138D01*
X158267024Y-87297448D01*
X158240806Y-87260523D01*
X158219831Y-87237998D01*
X158183902Y-87208515D01*
X158143234Y-87185132D01*
X158105722Y-87170305D01*
X158064919Y-87159715D01*
X158020825Y-87153361D01*
X157973439Y-87151243D01*
X157927740Y-87152569D01*
X157885750Y-87156546D01*
X157841450Y-87164538D01*
X157802199Y-87176138D01*
X157772574Y-87188954D01*
X157737757Y-87209837D01*
X157707361Y-87234969D01*
X157681386Y-87264352D01*
X157659831Y-87297984D01*
X157642820Y-87336367D01*
X157631922Y-87374259D01*
X157629425Y-87388842D01*
X157624745Y-87416172D01*
X157621555Y-87455298D01*
X157620948Y-87483023D01*
X157534974Y-87483023D01*
X157534974Y-87163748D01*
X157314179Y-87163748D01*
X157314179Y-87247572D01*
X157285135Y-87216468D01*
X157252520Y-87190859D01*
X157228791Y-87176840D01*
X157189013Y-87161242D01*
X157147288Y-87153268D01*
X157109406Y-87151243D01*
X157069586Y-87153992D01*
X157028931Y-87163865D01*
X156993455Y-87180920D01*
X156959734Y-87208689D01*
X156935969Y-87241234D01*
X156918994Y-87281424D01*
X156909711Y-87322862D01*
X156905891Y-87363038D01*
X156905414Y-87384739D01*
X156257444Y-87384739D01*
X156267589Y-87380477D01*
X156305297Y-87360474D01*
X156340920Y-87334914D01*
X156369166Y-87306188D01*
X156392952Y-87269375D01*
X156407677Y-87228311D01*
X156413128Y-87188895D01*
X156413411Y-87177035D01*
X156409047Y-87134500D01*
X156395956Y-87093673D01*
X156376482Y-87058040D01*
X156349710Y-87025376D01*
X156319514Y-87000058D01*
X156283538Y-86978603D01*
X156265693Y-86970308D01*
X156225515Y-86956459D01*
X156184870Y-86947588D01*
X156145953Y-86942394D01*
X156103271Y-86939427D01*
X156064828Y-86938654D01*
X156017717Y-86940071D01*
X155974202Y-86944321D01*
X155934285Y-86951405D01*
X155891132Y-86963646D01*
X155853158Y-86979968D01*
X155825470Y-86996686D01*
X155792318Y-87025656D01*
X155765523Y-87061788D01*
X155747617Y-87098459D01*
X155734382Y-87140392D01*
X155726922Y-87179355D01*
X155725819Y-87187586D01*
X155972797Y-87201655D01*
X155983766Y-87162017D01*
X156005589Y-87128196D01*
X156010704Y-87123692D01*
X156046941Y-87106159D01*
X156086306Y-87101244D01*
X156089447Y-87101222D01*
X156129090Y-87106415D01*
X156150606Y-87117635D01*
X156170361Y-87152486D01*
X156170536Y-87156714D01*
X156154514Y-87185828D01*
X156118215Y-87202585D01*
X156077970Y-87212742D01*
X156074011Y-87213574D01*
X156034423Y-87222202D01*
X155988998Y-87233072D01*
X155948087Y-87244039D01*
X155904949Y-87257324D01*
X155862836Y-87272997D01*
X155838170Y-87284307D01*
X155800800Y-87306172D01*
X155769580Y-87330881D01*
X155742107Y-87361670D01*
X155733244Y-87374969D01*
X155715830Y-87410179D01*
X155704866Y-87447907D01*
X155700351Y-87488153D01*
X155700222Y-87496505D01*
X155632528Y-87496505D01*
X155633948Y-87483609D01*
X155634374Y-87465437D01*
X155632127Y-87423868D01*
X155625387Y-87384646D01*
X155611366Y-87340678D01*
X155590875Y-87300089D01*
X155563913Y-87262880D01*
X155542343Y-87239952D01*
X155512024Y-87214396D01*
X155478585Y-87193172D01*
X155442025Y-87176279D01*
X155402347Y-87163718D01*
X155359548Y-87155488D01*
X155313629Y-87151590D01*
X155294388Y-87151243D01*
X155251197Y-87152873D01*
X155210723Y-87157764D01*
X155163951Y-87168463D01*
X155121425Y-87184257D01*
X155083145Y-87205146D01*
X155049110Y-87231129D01*
X155024939Y-87255584D01*
X154999905Y-87288451D01*
X154980051Y-87324039D01*
X154965375Y-87362347D01*
X154955880Y-87403375D01*
X154951564Y-87447123D01*
X154951295Y-87461334D01*
X154951276Y-87462311D01*
X154862567Y-87462311D01*
X154862567Y-87163748D01*
X154625358Y-87163748D01*
X154625358Y-87493378D01*
X154621805Y-87533653D01*
X154606796Y-87567628D01*
X154572059Y-87587242D01*
X154554235Y-87588926D01*
X154514670Y-87578731D01*
X154493076Y-87560008D01*
X154475966Y-87522078D01*
X154470076Y-87480510D01*
X154469238Y-87452932D01*
X154469238Y-87163748D01*
X154233006Y-87163748D01*
X154233006Y-87764000D01*
X154111862Y-87764000D01*
X154111862Y-87163748D01*
X153889894Y-87163748D01*
X153889894Y-87239757D01*
X153868808Y-87206060D01*
X153839407Y-87177404D01*
X153837333Y-87175863D01*
X153802391Y-87158191D01*
X153763581Y-87151459D01*
X153754486Y-87151243D01*
X153714232Y-87155969D01*
X153673808Y-87168605D01*
X153638226Y-87184851D01*
X153471559Y-87184851D01*
X153458073Y-87178598D01*
X153417688Y-87165375D01*
X153376912Y-87157254D01*
X153337466Y-87152953D01*
X153294504Y-87151270D01*
X153288080Y-87151243D01*
X153244499Y-87152517D01*
X153204247Y-87156338D01*
X153160341Y-87164286D01*
X153121229Y-87175902D01*
X153081659Y-87194090D01*
X153066698Y-87203413D01*
X153035187Y-87228874D01*
X153007847Y-87259609D01*
X152984676Y-87295617D01*
X152965676Y-87336898D01*
X152956691Y-87362855D01*
X153180027Y-87389429D01*
X153195305Y-87352906D01*
X153215198Y-87331397D01*
X153252429Y-87316284D01*
X153281436Y-87313811D01*
X153320885Y-87320196D01*
X153356084Y-87341354D01*
X153366824Y-87352499D01*
X153386708Y-87387194D01*
X153396873Y-87429232D01*
X153399454Y-87470908D01*
X153396306Y-87511842D01*
X153384216Y-87551995D01*
X153367214Y-87577984D01*
X153335467Y-87602561D01*
X153296988Y-87613375D01*
X153284758Y-87613937D01*
X153244038Y-87608202D01*
X153214611Y-87593616D01*
X153188038Y-87564359D01*
X153171454Y-87528755D01*
X153170452Y-87525814D01*
X152945358Y-87552387D01*
X152868700Y-87552387D01*
X152875400Y-87518337D01*
X152878750Y-87477233D01*
X152878924Y-87465046D01*
X152876739Y-87422512D01*
X152870185Y-87382591D01*
X152856551Y-87338138D01*
X152836626Y-87297448D01*
X152810408Y-87260523D01*
X152789433Y-87237998D01*
X152753505Y-87208515D01*
X152712836Y-87185132D01*
X152675325Y-87170305D01*
X152634522Y-87159715D01*
X152590427Y-87153361D01*
X152543041Y-87151243D01*
X152497342Y-87152569D01*
X152455352Y-87156546D01*
X152411052Y-87164538D01*
X152371801Y-87176138D01*
X152342176Y-87188954D01*
X152307359Y-87209837D01*
X152276963Y-87234969D01*
X152250988Y-87264352D01*
X152229433Y-87297984D01*
X152212422Y-87336367D01*
X152201524Y-87374259D01*
X152199027Y-87388842D01*
X152194347Y-87416172D01*
X152191158Y-87455298D01*
X152190550Y-87483023D01*
X152101661Y-87483023D01*
X152101661Y-86849765D01*
X160065510Y-86849765D01*
X160065510Y-88077983D01*
G37*
D14*
G36*
X164012491Y-85701390D02*
G01*
X164012491Y-85501306D01*
X163615450Y-85501306D01*
X163615450Y-85835430D01*
X163650310Y-85859956D01*
X163683815Y-85881878D01*
X163722233Y-85904746D01*
X163758700Y-85923864D01*
X163798779Y-85941427D01*
X163815143Y-85947391D01*
X163854195Y-85958735D01*
X163896295Y-85967293D01*
X163941443Y-85973065D01*
X163982567Y-85975794D01*
X164018548Y-85976505D01*
X164062562Y-85975303D01*
X164103991Y-85971696D01*
X164142834Y-85965686D01*
X164186033Y-85955299D01*
X164225509Y-85941451D01*
X164255561Y-85927265D01*
X164293766Y-85903423D01*
X164328026Y-85874981D01*
X164358340Y-85841938D01*
X164381182Y-85809954D01*
X164398004Y-85780720D01*
X164415136Y-85743167D01*
X164428723Y-85703637D01*
X164438766Y-85662128D01*
X164445265Y-85618640D01*
X164448218Y-85573174D01*
X164448415Y-85557579D01*
X164447065Y-85517071D01*
X164441881Y-85470653D01*
X164432809Y-85426625D01*
X164419849Y-85384988D01*
X164403001Y-85345741D01*
X164393119Y-85327014D01*
X164370576Y-85291827D01*
X164344420Y-85259979D01*
X164314650Y-85231469D01*
X164281268Y-85206297D01*
X164244272Y-85184464D01*
X164231137Y-85177928D01*
X164192009Y-85162625D01*
X164154154Y-85152500D01*
X164112316Y-85145136D01*
X164066492Y-85140533D01*
X164025263Y-85138807D01*
X164007997Y-85138654D01*
X163967567Y-85139274D01*
X163923383Y-85141656D01*
X163883926Y-85145823D01*
X163843866Y-85152942D01*
X163805959Y-85164055D01*
X163769754Y-85180585D01*
X163733805Y-85204208D01*
X163702358Y-85233364D01*
X163693803Y-85243190D01*
X163670256Y-85276072D01*
X163649956Y-85314487D01*
X163634636Y-85353279D01*
X163624829Y-85385242D01*
X163876887Y-85427056D01*
X163894310Y-85391954D01*
X163922557Y-85363011D01*
X163926713Y-85360231D01*
X163965205Y-85344111D01*
X164006901Y-85338822D01*
X164013468Y-85338738D01*
X164055431Y-85342803D01*
X164096074Y-85356854D01*
X164130421Y-85380943D01*
X164139497Y-85390127D01*
X164162166Y-85423917D01*
X164176088Y-85462153D01*
X164183461Y-85501941D01*
X164186346Y-85547638D01*
X164186392Y-85554648D01*
X164184722Y-85597339D01*
X164178555Y-85640963D01*
X164165943Y-85682668D01*
X164144661Y-85719192D01*
X164138911Y-85725814D01*
X164105553Y-85752501D01*
X164069233Y-85768069D01*
X164026947Y-85775630D01*
X164006238Y-85776421D01*
X163966133Y-85774418D01*
X163927885Y-85768410D01*
X163888660Y-85757761D01*
X163851532Y-85744436D01*
X163846015Y-85742227D01*
X163846015Y-85701390D01*
X164012491Y-85701390D01*
G37*
G36*
X163239416Y-85353361D02*
G01*
X163283511Y-85359715D01*
X163324313Y-85370305D01*
X163361825Y-85385132D01*
X163402494Y-85408515D01*
X163438422Y-85437998D01*
X163459397Y-85460523D01*
X163485615Y-85497448D01*
X163505540Y-85538138D01*
X163519174Y-85582591D01*
X163525728Y-85622512D01*
X163527913Y-85665046D01*
X163527739Y-85677233D01*
X163524389Y-85718337D01*
X163516775Y-85757028D01*
X163502854Y-85798293D01*
X163483363Y-85836407D01*
X163465766Y-85862423D01*
X163439760Y-85892795D01*
X163407030Y-85921066D01*
X163370621Y-85943092D01*
X163352852Y-85950923D01*
X163312698Y-85963453D01*
X163272515Y-85970990D01*
X163227619Y-85975330D01*
X163185387Y-85976505D01*
X163144711Y-85975489D01*
X163099904Y-85971587D01*
X163059467Y-85964759D01*
X163017812Y-85953094D01*
X162977487Y-85934886D01*
X162950688Y-85917115D01*
X162920950Y-85890912D01*
X162892857Y-85858819D01*
X162870088Y-85826623D01*
X162848527Y-85790099D01*
X163081437Y-85763525D01*
X163089671Y-85772879D01*
X163120907Y-85799282D01*
X163140643Y-85807625D01*
X163180502Y-85813937D01*
X163189604Y-85813636D01*
X163227677Y-85804286D01*
X163260418Y-85779743D01*
X163277102Y-85753596D01*
X163287187Y-85713895D01*
X162839539Y-85713895D01*
X162839539Y-85683023D01*
X162840146Y-85655298D01*
X162843336Y-85616172D01*
X162848016Y-85588842D01*
X163080460Y-85588842D01*
X163286406Y-85588842D01*
X163283909Y-85576952D01*
X163263545Y-85542729D01*
X163257720Y-85537561D01*
X163223139Y-85519346D01*
X163182651Y-85513811D01*
X163149612Y-85516939D01*
X163112114Y-85532764D01*
X163094164Y-85551163D01*
X163080460Y-85588842D01*
X162848016Y-85588842D01*
X162850513Y-85574259D01*
X162861411Y-85536367D01*
X162878422Y-85497984D01*
X162899977Y-85464352D01*
X162925952Y-85434969D01*
X162956348Y-85409837D01*
X162991165Y-85388954D01*
X163020790Y-85376138D01*
X163060041Y-85364538D01*
X163104341Y-85356546D01*
X163146331Y-85352569D01*
X163192030Y-85351243D01*
X163239416Y-85353361D01*
G37*
G36*
X162460371Y-85351590D02*
G01*
X162506290Y-85355488D01*
X162549088Y-85363718D01*
X162588767Y-85376279D01*
X162625327Y-85393172D01*
X162658766Y-85414396D01*
X162689085Y-85439952D01*
X162710655Y-85462880D01*
X162737617Y-85500089D01*
X162758108Y-85540678D01*
X162772129Y-85584646D01*
X162778869Y-85623868D01*
X162781116Y-85665437D01*
X162780690Y-85683609D01*
X162775899Y-85727114D01*
X162765784Y-85767872D01*
X162750345Y-85805883D01*
X162729582Y-85841145D01*
X162703496Y-85873660D01*
X162672086Y-85903427D01*
X162649152Y-85920555D01*
X162611544Y-85941964D01*
X162570090Y-85958235D01*
X162524789Y-85969368D01*
X162484100Y-85974721D01*
X162440739Y-85976505D01*
X162420958Y-85976161D01*
X162373875Y-85972288D01*
X162330180Y-85964112D01*
X162289871Y-85951634D01*
X162252949Y-85934853D01*
X162219415Y-85913769D01*
X162189267Y-85888382D01*
X162167880Y-85865573D01*
X162141147Y-85828439D01*
X162120830Y-85787803D01*
X162106929Y-85743663D01*
X162100245Y-85704203D01*
X162098018Y-85662311D01*
X162098036Y-85661334D01*
X162335422Y-85661334D01*
X162337756Y-85703455D01*
X162345823Y-85741809D01*
X162364926Y-85778375D01*
X162368652Y-85782681D01*
X162400589Y-85806123D01*
X162439567Y-85813937D01*
X162445126Y-85813795D01*
X162483070Y-85803735D01*
X162514403Y-85777789D01*
X162532620Y-85744706D01*
X162541933Y-85704146D01*
X162544298Y-85663678D01*
X162542418Y-85627799D01*
X162533690Y-85586681D01*
X162514207Y-85550350D01*
X162510361Y-85545925D01*
X162477617Y-85521840D01*
X162438004Y-85513811D01*
X162435318Y-85513846D01*
X162395928Y-85523958D01*
X162365122Y-85549764D01*
X162347023Y-85582306D01*
X162337771Y-85621936D01*
X162335422Y-85661334D01*
X162098036Y-85661334D01*
X162098305Y-85647123D01*
X162102622Y-85603375D01*
X162112117Y-85562347D01*
X162126793Y-85524039D01*
X162146647Y-85488451D01*
X162171681Y-85455584D01*
X162195852Y-85431129D01*
X162229887Y-85405146D01*
X162268167Y-85384257D01*
X162310693Y-85368463D01*
X162357465Y-85357764D01*
X162397939Y-85352873D01*
X162441130Y-85351243D01*
X162460371Y-85351590D01*
G37*
G36*
X162005010Y-85363748D02*
G01*
X161783042Y-85363748D01*
X161783042Y-85439757D01*
X161761956Y-85406060D01*
X161732555Y-85377404D01*
X161730481Y-85375863D01*
X161695539Y-85358191D01*
X161656729Y-85351459D01*
X161647634Y-85351243D01*
X161607380Y-85355969D01*
X161566956Y-85368605D01*
X161531374Y-85384851D01*
X161605233Y-85557384D01*
X161643677Y-85543462D01*
X161671081Y-85538822D01*
X161709080Y-85548362D01*
X161733998Y-85572625D01*
X161751721Y-85612364D01*
X161760221Y-85650558D01*
X161764947Y-85690098D01*
X161767311Y-85735917D01*
X161767606Y-85761180D01*
X161767606Y-85964000D01*
X162005010Y-85964000D01*
X162005010Y-85363748D01*
G37*
G36*
X161306216Y-85352394D02*
G01*
X161349820Y-85359947D01*
X161389441Y-85374551D01*
X161425079Y-85396204D01*
X161456734Y-85424907D01*
X161464920Y-85434370D01*
X161489414Y-85471520D01*
X161505260Y-85508349D01*
X161516351Y-85549780D01*
X161522689Y-85595814D01*
X161524340Y-85637691D01*
X161523062Y-85674521D01*
X161518152Y-85715682D01*
X161507771Y-85759519D01*
X161492379Y-85798848D01*
X161471974Y-85833672D01*
X161462584Y-85846425D01*
X161432224Y-85879748D01*
X161398580Y-85905666D01*
X161361653Y-85924179D01*
X161321442Y-85935286D01*
X161277948Y-85938989D01*
X161240319Y-85936279D01*
X161200867Y-85927040D01*
X161163447Y-85911243D01*
X161135830Y-85893906D01*
X161106587Y-85866889D01*
X161106587Y-85934495D01*
X161106609Y-85938148D01*
X161110851Y-85979172D01*
X161128862Y-86016170D01*
X161156852Y-86033316D01*
X161196664Y-86039031D01*
X161217707Y-86037695D01*
X161255673Y-86025353D01*
X161258404Y-86023578D01*
X161279316Y-85989596D01*
X161506755Y-85963218D01*
X161508318Y-86000147D01*
X161504092Y-86043830D01*
X161491416Y-86082848D01*
X161470289Y-86117201D01*
X161440711Y-86146889D01*
X161436366Y-86150255D01*
X161399923Y-86170824D01*
X161360291Y-86184288D01*
X161321346Y-86192570D01*
X161277020Y-86198180D01*
X161237684Y-86200744D01*
X161194905Y-86201599D01*
X161180475Y-86201475D01*
X161138998Y-86199621D01*
X161096103Y-86194949D01*
X161056566Y-86187531D01*
X161027575Y-86179458D01*
X160988941Y-86163091D01*
X160956133Y-86141613D01*
X160937119Y-86124467D01*
X160912399Y-86094169D01*
X160892240Y-86058375D01*
X160881725Y-86032436D01*
X160871586Y-85992246D01*
X160868206Y-85950517D01*
X160868792Y-85924530D01*
X160868792Y-85647461D01*
X161105024Y-85647461D01*
X161105677Y-85667096D01*
X161112579Y-85707524D01*
X161131793Y-85744767D01*
X161157364Y-85766406D01*
X161197055Y-85776421D01*
X161232088Y-85769723D01*
X161263489Y-85745939D01*
X161274516Y-85728464D01*
X161285716Y-85690950D01*
X161288695Y-85650392D01*
X161287545Y-85619898D01*
X161281090Y-85580366D01*
X161264661Y-85544879D01*
X161240640Y-85523641D01*
X161200963Y-85513811D01*
X161164082Y-85522311D01*
X161133161Y-85547810D01*
X161120851Y-85566787D01*
X161108349Y-85606065D01*
X161105024Y-85647461D01*
X160868792Y-85647461D01*
X160868792Y-85363748D01*
X161090760Y-85363748D01*
X161090760Y-85431550D01*
X161099982Y-85420546D01*
X161130372Y-85393490D01*
X161164619Y-85373323D01*
X161198736Y-85360752D01*
X161238486Y-85353399D01*
X161279511Y-85351243D01*
X161306216Y-85352394D01*
G37*
G36*
X160475760Y-85353361D02*
G01*
X160519854Y-85359715D01*
X160560657Y-85370305D01*
X160598168Y-85385132D01*
X160638837Y-85408515D01*
X160674766Y-85437998D01*
X160695740Y-85460523D01*
X160721958Y-85497448D01*
X160741884Y-85538138D01*
X160755517Y-85582591D01*
X160762071Y-85622512D01*
X160764256Y-85665046D01*
X160764082Y-85677233D01*
X160760732Y-85718337D01*
X160753119Y-85757028D01*
X160739197Y-85798293D01*
X160719706Y-85836407D01*
X160702109Y-85862423D01*
X160676104Y-85892795D01*
X160643373Y-85921066D01*
X160606964Y-85943092D01*
X160589195Y-85950923D01*
X160549042Y-85963453D01*
X160508858Y-85970990D01*
X160463963Y-85975330D01*
X160421730Y-85976505D01*
X160381054Y-85975489D01*
X160336248Y-85971587D01*
X160295810Y-85964759D01*
X160254155Y-85953094D01*
X160213831Y-85934886D01*
X160187031Y-85917115D01*
X160157293Y-85890912D01*
X160129200Y-85858819D01*
X160106431Y-85826623D01*
X160084870Y-85790099D01*
X160317780Y-85763525D01*
X160326014Y-85772879D01*
X160357250Y-85799282D01*
X160376987Y-85807625D01*
X160416845Y-85813937D01*
X160425948Y-85813636D01*
X160464021Y-85804286D01*
X160496762Y-85779743D01*
X160513445Y-85753596D01*
X160523531Y-85713895D01*
X160075882Y-85713895D01*
X160075882Y-85683023D01*
X160076490Y-85655298D01*
X160079679Y-85616172D01*
X160084359Y-85588842D01*
X160316803Y-85588842D01*
X160522749Y-85588842D01*
X160520253Y-85576952D01*
X160499888Y-85542729D01*
X160494064Y-85537561D01*
X160459482Y-85519346D01*
X160418995Y-85513811D01*
X160385956Y-85516939D01*
X160348457Y-85532764D01*
X160330508Y-85551163D01*
X160316803Y-85588842D01*
X160084359Y-85588842D01*
X160086856Y-85574259D01*
X160097754Y-85536367D01*
X160114766Y-85497984D01*
X160136320Y-85464352D01*
X160162295Y-85434969D01*
X160192691Y-85409837D01*
X160227508Y-85388954D01*
X160257133Y-85376138D01*
X160296384Y-85364538D01*
X160340684Y-85356546D01*
X160382674Y-85352569D01*
X160428374Y-85351243D01*
X160475760Y-85353361D01*
G37*
G36*
X159688220Y-85151159D02*
G01*
X159396692Y-85151159D01*
X159237445Y-85410643D01*
X159078394Y-85151159D01*
X158788234Y-85151159D01*
X159107117Y-85624404D01*
X159107117Y-85964000D01*
X159368946Y-85964000D01*
X159368946Y-85624404D01*
X159688220Y-85151159D01*
G37*
G36*
X158151835Y-85964000D02*
G01*
X158373217Y-85964000D01*
X158373217Y-85880371D01*
X158399680Y-85909181D01*
X158431920Y-85935239D01*
X158458408Y-85951103D01*
X158498031Y-85966582D01*
X158539855Y-85974495D01*
X158577990Y-85976505D01*
X158617591Y-85973756D01*
X158658086Y-85963882D01*
X158693501Y-85946828D01*
X158727271Y-85919059D01*
X158750950Y-85886550D01*
X158767864Y-85846470D01*
X158777114Y-85805189D01*
X158780919Y-85765191D01*
X158781395Y-85743595D01*
X158781395Y-85363748D01*
X158544187Y-85363748D01*
X158544187Y-85693378D01*
X158540634Y-85733653D01*
X158525624Y-85767628D01*
X158490887Y-85787242D01*
X158473063Y-85788926D01*
X158433498Y-85778731D01*
X158411905Y-85760008D01*
X158394794Y-85722078D01*
X158388905Y-85680510D01*
X158388066Y-85652932D01*
X158388066Y-85363748D01*
X158151835Y-85363748D01*
X158151835Y-85964000D01*
G37*
G36*
X157807115Y-85352273D02*
G01*
X157847772Y-85355787D01*
X157886489Y-85361794D01*
X157896545Y-85363853D01*
X157935436Y-85374642D01*
X157972854Y-85392080D01*
X157980951Y-85397224D01*
X158013927Y-85423543D01*
X158040460Y-85455974D01*
X158055426Y-85485288D01*
X158068082Y-85522453D01*
X158077585Y-85563050D01*
X157852100Y-85589429D01*
X157842670Y-85564909D01*
X157818297Y-85531787D01*
X157780529Y-85517252D01*
X157739357Y-85513811D01*
X157720722Y-85514739D01*
X157683866Y-85528661D01*
X157676498Y-85538591D01*
X157668625Y-85578291D01*
X157703710Y-85590536D01*
X157743265Y-85602129D01*
X157779137Y-85610578D01*
X157818393Y-85618897D01*
X157861838Y-85627679D01*
X157905833Y-85636323D01*
X157943638Y-85644793D01*
X157981804Y-85656637D01*
X158021478Y-85674969D01*
X158053161Y-85699436D01*
X158076411Y-85731760D01*
X158090010Y-85769625D01*
X158093998Y-85808856D01*
X158093505Y-85822026D01*
X158084743Y-85862998D01*
X158065028Y-85899466D01*
X158037920Y-85928438D01*
X158034365Y-85931395D01*
X157997910Y-85953786D01*
X157958758Y-85967304D01*
X157919290Y-85974205D01*
X157874961Y-85976505D01*
X157855330Y-85976120D01*
X157813348Y-85972442D01*
X157774396Y-85964868D01*
X157734668Y-85951885D01*
X157718257Y-85944221D01*
X157684727Y-85923798D01*
X157653970Y-85898152D01*
X157647913Y-85924921D01*
X157646765Y-85928267D01*
X157629155Y-85964000D01*
X157405624Y-85964000D01*
X157419555Y-85933426D01*
X157432393Y-85896393D01*
X157435732Y-85873082D01*
X157437278Y-85832890D01*
X157437278Y-85727377D01*
X157668625Y-85727377D01*
X157669629Y-85746597D01*
X157681325Y-85785605D01*
X157692070Y-85800022D01*
X157724508Y-85823316D01*
X157750271Y-85833436D01*
X157790942Y-85838947D01*
X157802940Y-85838473D01*
X157840963Y-85825465D01*
X157857180Y-85791076D01*
X157840572Y-85758445D01*
X157834104Y-85753775D01*
X157797059Y-85738449D01*
X157757138Y-85727572D01*
X157747794Y-85725404D01*
X157707050Y-85715103D01*
X157668625Y-85703734D01*
X157668625Y-85727377D01*
X157437278Y-85727377D01*
X157437278Y-85573602D01*
X157437427Y-85565577D01*
X157442657Y-85524321D01*
X157454277Y-85484111D01*
X157456452Y-85478332D01*
X157474452Y-85442492D01*
X157500976Y-85411424D01*
X157529114Y-85390721D01*
X157564694Y-85373722D01*
X157605122Y-85362771D01*
X157643164Y-85357199D01*
X157682170Y-85353776D01*
X157726060Y-85351795D01*
X157768471Y-85351243D01*
X157807115Y-85352273D01*
G37*
G36*
X157320041Y-85363748D02*
G01*
X157099246Y-85363748D01*
X157099246Y-85447572D01*
X157070202Y-85416468D01*
X157037587Y-85390859D01*
X157013859Y-85376840D01*
X156974081Y-85361242D01*
X156932355Y-85353268D01*
X156894473Y-85351243D01*
X156854653Y-85353992D01*
X156813998Y-85363865D01*
X156778522Y-85380920D01*
X156744801Y-85408689D01*
X156721036Y-85441234D01*
X156704061Y-85481424D01*
X156694778Y-85522862D01*
X156690958Y-85563038D01*
X156690481Y-85584739D01*
X156690481Y-85964000D01*
X156927690Y-85964000D01*
X156927690Y-85633979D01*
X156931243Y-85593646D01*
X156946252Y-85559924D01*
X156980910Y-85540491D01*
X156998813Y-85538822D01*
X157038635Y-85549085D01*
X157060167Y-85567935D01*
X157077137Y-85605865D01*
X157082978Y-85647433D01*
X157083810Y-85675011D01*
X157083810Y-85964000D01*
X157320041Y-85964000D01*
X157320041Y-85363748D01*
G37*
G36*
X156564842Y-85151159D02*
G01*
X156328220Y-85151159D01*
X156328220Y-85313727D01*
X156564842Y-85313727D01*
X156564842Y-85151159D01*
G37*
G36*
X156564842Y-85363748D02*
G01*
X156328220Y-85363748D01*
X156328220Y-85939380D01*
X156328996Y-85984412D01*
X156331324Y-86023422D01*
X156336598Y-86064731D01*
X156344438Y-86096086D01*
X156362067Y-86131286D01*
X156388920Y-86160681D01*
X156404424Y-86172290D01*
X156442535Y-86190150D01*
X156482144Y-86198737D01*
X156523894Y-86201570D01*
X156528890Y-86201599D01*
X156568677Y-86199976D01*
X156609026Y-86195809D01*
X156648178Y-86190058D01*
X156690921Y-86182345D01*
X156697320Y-86181083D01*
X156661367Y-86007377D01*
X156622075Y-86013787D01*
X156616817Y-86014020D01*
X156579837Y-85998393D01*
X156578129Y-85996240D01*
X156566413Y-85956329D01*
X156564842Y-85921990D01*
X156564842Y-85363748D01*
G37*
G36*
X156192616Y-85151159D02*
G01*
X155956385Y-85151159D01*
X155956385Y-85313727D01*
X156192616Y-85313727D01*
X156192616Y-85151159D01*
G37*
G36*
X156192616Y-85363748D02*
G01*
X155956385Y-85363748D01*
X155956385Y-85964000D01*
X156192616Y-85964000D01*
X156192616Y-85363748D01*
G37*
G36*
X155524173Y-85151159D02*
G01*
X155274849Y-85151159D01*
X155193565Y-85561487D01*
X155075352Y-85151159D01*
X154830132Y-85151159D01*
X154711332Y-85566958D01*
X154630048Y-85151159D01*
X154381898Y-85151159D01*
X154562247Y-85964000D01*
X154815868Y-85964000D01*
X154952449Y-85477077D01*
X155088443Y-85964000D01*
X155342260Y-85964000D01*
X155524173Y-85151159D01*
G37*
G36*
X154085245Y-85352273D02*
G01*
X154125902Y-85355787D01*
X154164619Y-85361794D01*
X154174675Y-85363853D01*
X154213565Y-85374642D01*
X154250983Y-85392080D01*
X154259081Y-85397224D01*
X154292057Y-85423543D01*
X154318590Y-85455974D01*
X154333555Y-85485288D01*
X154346212Y-85522453D01*
X154355715Y-85563050D01*
X154130230Y-85589429D01*
X154120800Y-85564909D01*
X154096427Y-85531787D01*
X154058659Y-85517252D01*
X154017487Y-85513811D01*
X153998852Y-85514739D01*
X153961995Y-85528661D01*
X153954628Y-85538591D01*
X153946755Y-85578291D01*
X153981840Y-85590536D01*
X154021395Y-85602129D01*
X154057266Y-85610578D01*
X154096522Y-85618897D01*
X154139967Y-85627679D01*
X154183963Y-85636323D01*
X154221767Y-85644793D01*
X154259934Y-85656637D01*
X154299608Y-85674969D01*
X154331290Y-85699436D01*
X154354541Y-85731760D01*
X154368140Y-85769625D01*
X154372128Y-85808856D01*
X154371635Y-85822026D01*
X154362873Y-85862998D01*
X154343158Y-85899466D01*
X154316050Y-85928438D01*
X154312495Y-85931395D01*
X154276040Y-85953786D01*
X154236888Y-85967304D01*
X154197420Y-85974205D01*
X154153091Y-85976505D01*
X154133460Y-85976120D01*
X154091478Y-85972442D01*
X154052525Y-85964868D01*
X154012798Y-85951885D01*
X153996387Y-85944221D01*
X153962857Y-85923798D01*
X153932100Y-85898152D01*
X153926043Y-85924921D01*
X153924895Y-85928267D01*
X153907285Y-85964000D01*
X153683754Y-85964000D01*
X153697685Y-85933426D01*
X153710523Y-85896393D01*
X153713862Y-85873082D01*
X153715408Y-85832890D01*
X153715408Y-85727377D01*
X153946755Y-85727377D01*
X153947759Y-85746597D01*
X153959455Y-85785605D01*
X153970200Y-85800022D01*
X154002637Y-85823316D01*
X154028401Y-85833436D01*
X154069071Y-85838947D01*
X154081070Y-85838473D01*
X154119092Y-85825465D01*
X154135310Y-85791076D01*
X154118702Y-85758445D01*
X154112234Y-85753775D01*
X154075188Y-85738449D01*
X154035268Y-85727572D01*
X154025924Y-85725404D01*
X153985180Y-85715103D01*
X153946755Y-85703734D01*
X153946755Y-85727377D01*
X153715408Y-85727377D01*
X153715408Y-85573602D01*
X153715557Y-85565577D01*
X153720786Y-85524321D01*
X153732407Y-85484111D01*
X153734582Y-85478332D01*
X153752581Y-85442492D01*
X153779106Y-85411424D01*
X153807244Y-85390721D01*
X153842823Y-85373722D01*
X153883251Y-85362771D01*
X153921294Y-85357199D01*
X153960299Y-85353776D01*
X154004190Y-85351795D01*
X154046601Y-85351243D01*
X154085245Y-85352273D01*
G37*
G36*
X153607550Y-85363748D02*
G01*
X153386755Y-85363748D01*
X153386755Y-85447572D01*
X153357711Y-85416468D01*
X153325095Y-85390859D01*
X153301367Y-85376840D01*
X153261589Y-85361242D01*
X153219864Y-85353268D01*
X153181981Y-85351243D01*
X153142161Y-85353992D01*
X153101507Y-85363865D01*
X153066031Y-85380920D01*
X153032309Y-85408689D01*
X153008545Y-85441234D01*
X152991570Y-85481424D01*
X152982286Y-85522862D01*
X152978467Y-85563038D01*
X152977990Y-85584739D01*
X152977990Y-85964000D01*
X153215198Y-85964000D01*
X153215198Y-85633979D01*
X153218751Y-85593646D01*
X153233761Y-85559924D01*
X153268419Y-85540491D01*
X153286322Y-85538822D01*
X153326144Y-85549085D01*
X153347676Y-85567935D01*
X153364646Y-85605865D01*
X153370487Y-85647433D01*
X153371318Y-85675011D01*
X153371318Y-85964000D01*
X153607550Y-85964000D01*
X153607550Y-85363748D01*
G37*
G36*
X152670570Y-85352394D02*
G01*
X152714174Y-85359947D01*
X152753795Y-85374551D01*
X152789433Y-85396204D01*
X152821088Y-85424907D01*
X152829275Y-85434370D01*
X152853769Y-85471520D01*
X152869614Y-85508349D01*
X152880706Y-85549780D01*
X152887044Y-85595814D01*
X152888695Y-85637691D01*
X152887416Y-85674521D01*
X152882507Y-85715682D01*
X152872126Y-85759519D01*
X152856733Y-85798848D01*
X152836329Y-85833672D01*
X152826939Y-85846425D01*
X152796578Y-85879748D01*
X152762935Y-85905666D01*
X152726007Y-85924179D01*
X152685797Y-85935286D01*
X152642302Y-85938989D01*
X152604674Y-85936279D01*
X152565222Y-85927040D01*
X152527801Y-85911243D01*
X152500184Y-85893906D01*
X152470942Y-85866889D01*
X152470942Y-85934495D01*
X152470963Y-85938148D01*
X152475205Y-85979172D01*
X152493217Y-86016170D01*
X152521207Y-86033316D01*
X152561018Y-86039031D01*
X152582061Y-86037695D01*
X152620027Y-86025353D01*
X152622759Y-86023578D01*
X152643670Y-85989596D01*
X152871109Y-85963218D01*
X152872672Y-86000147D01*
X152868447Y-86043830D01*
X152855771Y-86082848D01*
X152834644Y-86117201D01*
X152805066Y-86146889D01*
X152800721Y-86150255D01*
X152764277Y-86170824D01*
X152724646Y-86184288D01*
X152685700Y-86192570D01*
X152641374Y-86198180D01*
X152602039Y-86200744D01*
X152559260Y-86201599D01*
X152544830Y-86201475D01*
X152503353Y-86199621D01*
X152460457Y-86194949D01*
X152420921Y-86187531D01*
X152391929Y-86179458D01*
X152353296Y-86163091D01*
X152320488Y-86141613D01*
X152301474Y-86124467D01*
X152276753Y-86094169D01*
X152256594Y-86058375D01*
X152246079Y-86032436D01*
X152235940Y-85992246D01*
X152232561Y-85950517D01*
X152233147Y-85924530D01*
X152233147Y-85647461D01*
X152469378Y-85647461D01*
X152470032Y-85667096D01*
X152476933Y-85707524D01*
X152496147Y-85744767D01*
X152521718Y-85766406D01*
X152561409Y-85776421D01*
X152596443Y-85769723D01*
X152627843Y-85745939D01*
X152638871Y-85728464D01*
X152650071Y-85690950D01*
X152653049Y-85650392D01*
X152651899Y-85619898D01*
X152645445Y-85580366D01*
X152629016Y-85544879D01*
X152604994Y-85523641D01*
X152565317Y-85513811D01*
X152528436Y-85522311D01*
X152497515Y-85547810D01*
X152485205Y-85566787D01*
X152472703Y-85606065D01*
X152469378Y-85647461D01*
X152233147Y-85647461D01*
X152233147Y-85363748D01*
X152455115Y-85363748D01*
X152455115Y-85431550D01*
X152464337Y-85420546D01*
X152494727Y-85393490D01*
X152528974Y-85373323D01*
X152563090Y-85360752D01*
X152602840Y-85353399D01*
X152643866Y-85351243D01*
X152670570Y-85352394D01*
G37*
D13*
G36*
X166469720Y-95724452D02*
G01*
X165581044Y-95724452D01*
X165581044Y-95310889D01*
X165658822Y-95310889D01*
X165660166Y-95351646D01*
X165664198Y-95389606D01*
X165670919Y-95424769D01*
X165682531Y-95463273D01*
X165698015Y-95497750D01*
X165713875Y-95523405D01*
X165736785Y-95551178D01*
X165764228Y-95576283D01*
X165796203Y-95598719D01*
X165826310Y-95615376D01*
X165859565Y-95630181D01*
X165888435Y-95640690D01*
X165933400Y-95437407D01*
X165899879Y-95424929D01*
X165883306Y-95415523D01*
X165857874Y-95390652D01*
X165846718Y-95372780D01*
X165835699Y-95338813D01*
X165833896Y-95316189D01*
X165838318Y-95278806D01*
X165851585Y-95246670D01*
X165873697Y-95219781D01*
X165889803Y-95207110D01*
X165920774Y-95191964D01*
X165956843Y-95183128D01*
X165995421Y-95179089D01*
X166022646Y-95178387D01*
X166062315Y-95179584D01*
X166096946Y-95183172D01*
X166130983Y-95190382D01*
X166164672Y-95204436D01*
X166176006Y-95212411D01*
X166199271Y-95239192D01*
X166212878Y-95272518D01*
X166216868Y-95308496D01*
X166213729Y-95343221D01*
X166201676Y-95377265D01*
X166184726Y-95399281D01*
X166155442Y-95420174D01*
X166123325Y-95434242D01*
X166088424Y-95444305D01*
X166084196Y-95445272D01*
X166142496Y-95646674D01*
X166178474Y-95636593D01*
X166211457Y-95624450D01*
X166245485Y-95608047D01*
X166275603Y-95588952D01*
X166282521Y-95583757D01*
X166310911Y-95558490D01*
X166335108Y-95530004D01*
X166355113Y-95498299D01*
X166364415Y-95479295D01*
X166376458Y-95445998D01*
X166385060Y-95408513D01*
X166389764Y-95372277D01*
X166391834Y-95332835D01*
X166391942Y-95320976D01*
X166391119Y-95285721D01*
X166387962Y-95246115D01*
X166382436Y-95209454D01*
X166374542Y-95175738D01*
X166362339Y-95140126D01*
X166358260Y-95130687D01*
X166341087Y-95099264D01*
X166319038Y-95069772D01*
X166292112Y-95042211D01*
X166265152Y-95020124D01*
X166239949Y-95002801D01*
X166206508Y-94984557D01*
X166169785Y-94970087D01*
X166136675Y-94960913D01*
X166101287Y-94954359D01*
X166063619Y-94950427D01*
X166023672Y-94949117D01*
X165981079Y-94950594D01*
X165941008Y-94955026D01*
X165903459Y-94962412D01*
X165868431Y-94972753D01*
X165835926Y-94986049D01*
X165798840Y-95006823D01*
X165765695Y-95032214D01*
X165753540Y-95043663D01*
X165726253Y-95075162D01*
X165703591Y-95110458D01*
X165688791Y-95141431D01*
X165676952Y-95174834D01*
X165668072Y-95210668D01*
X165662152Y-95248933D01*
X165659192Y-95289630D01*
X165658822Y-95310889D01*
X165581044Y-95310889D01*
X165581044Y-94371922D01*
X165669764Y-94371922D01*
X166051882Y-94629061D01*
X165669764Y-94629061D01*
X165669764Y-94845167D01*
X166381000Y-94845167D01*
X166381000Y-94631625D01*
X166000933Y-94375854D01*
X166381000Y-94375854D01*
X166381000Y-94160090D01*
X165669764Y-94160090D01*
X165669764Y-94371922D01*
X165581044Y-94371922D01*
X165581044Y-94045711D01*
X165669764Y-94045711D01*
X165844838Y-94045711D01*
X165844838Y-93680348D01*
X165932374Y-93680348D01*
X165932374Y-94019382D01*
X166085563Y-94019382D01*
X166085563Y-93680348D01*
X166205926Y-93680348D01*
X166205926Y-94056311D01*
X166381000Y-94056311D01*
X166381000Y-93451078D01*
X165669764Y-93451078D01*
X165669764Y-94045711D01*
X165581044Y-94045711D01*
X165581044Y-93081270D01*
X166173100Y-93081270D01*
X166381000Y-93081270D01*
X166381000Y-92861231D01*
X166173100Y-92861231D01*
X166173100Y-93081270D01*
X165581044Y-93081270D01*
X165581044Y-92864651D01*
X165669764Y-92864651D01*
X165844838Y-92864651D01*
X165844838Y-92642561D01*
X166381000Y-92642561D01*
X166381000Y-92413803D01*
X165844838Y-92413803D01*
X165844838Y-92191542D01*
X165669764Y-92191542D01*
X165669764Y-92864651D01*
X165581044Y-92864651D01*
X165581044Y-91426109D01*
X165669764Y-91426109D01*
X165669764Y-91679145D01*
X165879715Y-91801217D01*
X165669764Y-91919016D01*
X165669764Y-92170000D01*
X166014440Y-91947055D01*
X166381000Y-92190858D01*
X166381000Y-91932693D01*
X166160961Y-91796772D01*
X166381000Y-91660509D01*
X166381000Y-91403712D01*
X166010508Y-91650935D01*
X165669764Y-91426109D01*
X165581044Y-91426109D01*
X165581044Y-91366270D01*
X165669764Y-91366270D01*
X165844838Y-91366270D01*
X165844838Y-91000907D01*
X165932374Y-91000907D01*
X165932374Y-91339940D01*
X166085563Y-91339940D01*
X166085563Y-91000907D01*
X166205926Y-91000907D01*
X166205926Y-91376870D01*
X166381000Y-91376870D01*
X166381000Y-90771636D01*
X165669764Y-90771636D01*
X165669764Y-91366270D01*
X165581044Y-91366270D01*
X165581044Y-90693858D01*
X166469720Y-90693858D01*
X166469720Y-95724452D01*
G37*
D11*
G36*
X164418715Y-84964000D02*
G01*
X164112533Y-84964000D01*
X164090578Y-84963731D01*
X164050058Y-84961581D01*
X164009875Y-84956594D01*
X163968527Y-84946805D01*
X163959654Y-84943827D01*
X163922579Y-84928649D01*
X163886858Y-84908377D01*
X163854221Y-84881934D01*
X163850742Y-84878469D01*
X163824733Y-84848376D01*
X163801973Y-84814056D01*
X163782461Y-84775512D01*
X163768053Y-84738319D01*
X163765048Y-84729126D01*
X163754966Y-84690199D01*
X163747987Y-84647829D01*
X163744425Y-84607931D01*
X163743237Y-84565395D01*
X163743349Y-84557775D01*
X163911472Y-84557775D01*
X163911731Y-84580703D01*
X163913808Y-84622859D01*
X163918625Y-84664388D01*
X163928080Y-84706665D01*
X163931244Y-84716617D01*
X163946936Y-84753511D01*
X163970676Y-84785018D01*
X163998002Y-84804178D01*
X164036133Y-84818626D01*
X164051198Y-84821672D01*
X164092209Y-84825518D01*
X164134612Y-84826442D01*
X164255952Y-84826442D01*
X164255952Y-84288717D01*
X164182875Y-84288717D01*
X164176723Y-84288725D01*
X164132109Y-84289335D01*
X164091698Y-84291190D01*
X164049420Y-84296533D01*
X164046578Y-84297173D01*
X164007752Y-84311090D01*
X163974193Y-84334830D01*
X163966976Y-84342212D01*
X163943609Y-84376095D01*
X163928080Y-84413378D01*
X163923296Y-84430196D01*
X163916159Y-84470214D01*
X163912510Y-84513506D01*
X163911472Y-84557775D01*
X163743349Y-84557775D01*
X163743650Y-84537390D01*
X163745813Y-84497522D01*
X163750682Y-84454258D01*
X163758075Y-84414490D01*
X163769616Y-84373323D01*
X163778450Y-84349551D01*
X163797334Y-84309743D01*
X163820051Y-84273768D01*
X163846601Y-84241627D01*
X163862907Y-84225576D01*
X163894734Y-84200722D01*
X163929746Y-84181062D01*
X163967941Y-84166595D01*
X163997311Y-84159842D01*
X164037505Y-84154551D01*
X164079591Y-84151898D01*
X164121325Y-84151159D01*
X164418715Y-84151159D01*
X164418715Y-84964000D01*
G37*
G36*
X163402752Y-84364071D02*
G01*
X163443918Y-84368914D01*
X163482253Y-84379568D01*
X163517759Y-84396034D01*
X163550434Y-84418311D01*
X163580279Y-84446400D01*
X163598047Y-84468003D01*
X163620258Y-84504118D01*
X163637138Y-84544683D01*
X163648688Y-84589700D01*
X163654241Y-84630615D01*
X163656092Y-84674621D01*
X163654065Y-84718873D01*
X163647986Y-84760185D01*
X163637854Y-84798557D01*
X163620910Y-84839609D01*
X163598450Y-84876658D01*
X163573677Y-84905423D01*
X163538836Y-84933504D01*
X163498416Y-84954566D01*
X163460473Y-84966754D01*
X163418656Y-84974067D01*
X163372965Y-84976505D01*
X163332449Y-84974523D01*
X163289924Y-84967403D01*
X163251428Y-84955105D01*
X163212937Y-84935081D01*
X163190113Y-84918141D01*
X163160410Y-84887734D01*
X163136147Y-84851330D01*
X163119148Y-84813937D01*
X163273119Y-84788926D01*
X163284348Y-84815478D01*
X163310635Y-84846177D01*
X163332541Y-84857689D01*
X163371402Y-84863958D01*
X163390787Y-84862570D01*
X163428547Y-84850043D01*
X163460502Y-84824488D01*
X163481044Y-84793612D01*
X163493506Y-84755256D01*
X163497822Y-84713895D01*
X163110942Y-84713895D01*
X163110811Y-84702871D01*
X163111826Y-84660567D01*
X163116348Y-84613853D01*
X163264326Y-84613853D01*
X163495087Y-84613853D01*
X163493735Y-84587333D01*
X163483935Y-84547742D01*
X163462651Y-84513225D01*
X163454124Y-84504570D01*
X163420000Y-84483364D01*
X163379218Y-84476295D01*
X163370477Y-84476605D01*
X163330535Y-84487424D01*
X163298911Y-84511466D01*
X163281344Y-84536494D01*
X163268375Y-84574889D01*
X163264326Y-84613853D01*
X163116348Y-84613853D01*
X163116555Y-84611714D01*
X163125130Y-84567335D01*
X163137549Y-84527431D01*
X163157527Y-84485452D01*
X163183042Y-84449917D01*
X163197630Y-84434518D01*
X163229700Y-84408263D01*
X163265631Y-84388067D01*
X163305423Y-84373930D01*
X163349075Y-84365852D01*
X163388401Y-84363748D01*
X163402752Y-84364071D01*
G37*
G36*
X163042554Y-84801431D02*
G01*
X162887606Y-84776421D01*
X162872609Y-84814230D01*
X162847550Y-84841683D01*
X162811207Y-84858389D01*
X162769469Y-84863871D01*
X162762749Y-84863958D01*
X162722055Y-84860853D01*
X162682857Y-84848239D01*
X162672672Y-84841878D01*
X162652669Y-84806979D01*
X162652351Y-84800650D01*
X162663293Y-84771536D01*
X162700988Y-84754787D01*
X162715073Y-84751215D01*
X162759635Y-84741018D01*
X162799923Y-84731041D01*
X162844272Y-84718878D01*
X162881943Y-84707059D01*
X162923462Y-84691089D01*
X162951891Y-84675793D01*
X162982152Y-84649732D01*
X163005862Y-84614867D01*
X163018628Y-84574128D01*
X163021060Y-84543706D01*
X163016331Y-84502774D01*
X163002142Y-84465705D01*
X162978494Y-84432501D01*
X162961270Y-84415723D01*
X162927161Y-84392984D01*
X162890564Y-84378417D01*
X162847665Y-84368824D01*
X162805879Y-84364560D01*
X162775450Y-84363748D01*
X162732697Y-84365191D01*
X162688289Y-84370520D01*
X162649771Y-84379777D01*
X162612964Y-84395164D01*
X162597445Y-84404781D01*
X162567473Y-84430984D01*
X162543281Y-84463431D01*
X162524869Y-84502123D01*
X162517138Y-84526316D01*
X162662903Y-84551327D01*
X162679964Y-84514162D01*
X162698464Y-84495639D01*
X162734748Y-84479998D01*
X162772714Y-84476295D01*
X162813573Y-84478686D01*
X162852920Y-84489310D01*
X162860055Y-84493295D01*
X162877641Y-84524753D01*
X162862205Y-84552695D01*
X162824313Y-84568632D01*
X162785064Y-84579922D01*
X162740221Y-84591103D01*
X162718004Y-84596267D01*
X162674379Y-84607199D01*
X162635975Y-84619037D01*
X162597768Y-84633994D01*
X162562805Y-84652599D01*
X162545666Y-84665046D01*
X162518188Y-84697270D01*
X162502117Y-84737251D01*
X162497404Y-84780329D01*
X162502705Y-84823740D01*
X162518609Y-84863626D01*
X162541647Y-84896123D01*
X162564424Y-84918668D01*
X162596821Y-84941204D01*
X162635371Y-84958205D01*
X162673310Y-84968371D01*
X162715770Y-84974471D01*
X162762749Y-84976505D01*
X162805767Y-84974849D01*
X162845282Y-84969883D01*
X162886954Y-84959904D01*
X162923858Y-84945418D01*
X162951695Y-84929415D01*
X162983386Y-84903757D01*
X163009092Y-84873874D01*
X163028815Y-84839765D01*
X163042554Y-84801431D01*
G37*
G36*
X162365317Y-84288717D02*
G01*
X162365317Y-84151159D01*
X162210760Y-84151159D01*
X162210760Y-84288717D01*
X162365317Y-84288717D01*
G37*
G36*
X162365317Y-84964000D02*
G01*
X162365317Y-84376254D01*
X162210760Y-84376254D01*
X162210760Y-84964000D01*
X162365317Y-84964000D01*
G37*
G36*
X161868335Y-84364966D02*
G01*
X161910734Y-84372961D01*
X161949861Y-84388416D01*
X161985715Y-84411333D01*
X162018297Y-84441711D01*
X162034829Y-84462288D01*
X162055494Y-84497230D01*
X162071200Y-84537063D01*
X162081946Y-84581787D01*
X162087112Y-84622793D01*
X162088834Y-84667196D01*
X162087517Y-84703014D01*
X162082462Y-84743516D01*
X162071771Y-84787347D01*
X162055919Y-84827494D01*
X162034905Y-84863958D01*
X162026141Y-84876072D01*
X161997548Y-84907726D01*
X161965508Y-84932346D01*
X161930018Y-84949931D01*
X161891081Y-84960482D01*
X161848695Y-84964000D01*
X161816604Y-84961896D01*
X161774643Y-84951882D01*
X161736142Y-84933622D01*
X161701099Y-84907115D01*
X161673817Y-84877831D01*
X161673817Y-84962241D01*
X161674671Y-84993627D01*
X161681046Y-85032387D01*
X161685280Y-85041904D01*
X161711723Y-85071076D01*
X161721922Y-85076254D01*
X161761335Y-85086524D01*
X161802386Y-85089052D01*
X161834306Y-85087073D01*
X161871751Y-85074983D01*
X161873685Y-85073698D01*
X161892072Y-85039031D01*
X162068513Y-85014020D01*
X162068904Y-85031606D01*
X162068360Y-85045228D01*
X162058681Y-85087360D01*
X162036906Y-85124454D01*
X162006964Y-85153532D01*
X162002996Y-85156489D01*
X161965197Y-85176767D01*
X161923286Y-85189582D01*
X161880800Y-85196905D01*
X161840766Y-85200425D01*
X161796524Y-85201599D01*
X161786788Y-85201534D01*
X161745620Y-85199636D01*
X161704954Y-85194446D01*
X161666392Y-85184990D01*
X161653868Y-85180640D01*
X161617637Y-85163759D01*
X161584326Y-85139073D01*
X161575017Y-85129375D01*
X161552556Y-85096484D01*
X161536454Y-85058375D01*
X161529017Y-85029396D01*
X161523190Y-84988940D01*
X161520269Y-84945999D01*
X161519455Y-84903036D01*
X161519455Y-84665632D01*
X161671081Y-84665632D01*
X161672035Y-84693290D01*
X161677531Y-84732958D01*
X161689552Y-84770841D01*
X161710160Y-84804558D01*
X161730786Y-84825074D01*
X161765802Y-84844858D01*
X161805708Y-84851452D01*
X161827994Y-84849265D01*
X161865166Y-84833592D01*
X161894612Y-84805730D01*
X161910341Y-84779572D01*
X161922665Y-84742261D01*
X161928844Y-84702089D01*
X161930565Y-84661529D01*
X161930003Y-84638833D01*
X161925509Y-84597947D01*
X161915081Y-84559131D01*
X161894612Y-84522018D01*
X161877872Y-84504202D01*
X161841871Y-84482725D01*
X161802972Y-84476295D01*
X161775678Y-84479214D01*
X161739362Y-84494537D01*
X161708597Y-84522995D01*
X161692184Y-84549348D01*
X161679324Y-84586412D01*
X161672876Y-84625949D01*
X161671081Y-84665632D01*
X161519455Y-84665632D01*
X161519455Y-84376254D01*
X161664047Y-84376254D01*
X161664047Y-84454216D01*
X161686954Y-84428153D01*
X161722134Y-84399087D01*
X161760942Y-84378679D01*
X161803377Y-84366929D01*
X161842637Y-84363748D01*
X161868335Y-84364966D01*
G37*
G36*
X160839483Y-84964000D02*
G01*
X160993845Y-84964000D01*
X160993845Y-84660552D01*
X160994467Y-84616637D01*
X160996657Y-84577393D01*
X161003197Y-84537728D01*
X161003810Y-84535891D01*
X161024314Y-84501724D01*
X161035854Y-84491927D01*
X161072518Y-84477532D01*
X161089392Y-84476295D01*
X161129788Y-84482637D01*
X161161493Y-84498766D01*
X161189708Y-84526624D01*
X161205261Y-84558166D01*
X161212852Y-84598522D01*
X161215840Y-84638589D01*
X161216939Y-84682535D01*
X161216985Y-84694746D01*
X161216985Y-84964000D01*
X161371346Y-84964000D01*
X161371346Y-84376254D01*
X161227927Y-84376254D01*
X161227927Y-84462032D01*
X161197890Y-84428631D01*
X161165077Y-84402140D01*
X161129489Y-84382560D01*
X161091127Y-84369891D01*
X161049988Y-84364132D01*
X161035659Y-84363748D01*
X160995548Y-84366812D01*
X160955669Y-84376963D01*
X160942260Y-84382311D01*
X160907061Y-84401946D01*
X160878171Y-84429596D01*
X160857975Y-84464382D01*
X160848080Y-84494858D01*
X160841910Y-84535885D01*
X160839693Y-84578722D01*
X160839483Y-84599198D01*
X160839483Y-84964000D01*
G37*
G36*
X160478091Y-84364071D02*
G01*
X160519256Y-84368914D01*
X160557592Y-84379568D01*
X160593097Y-84396034D01*
X160625772Y-84418311D01*
X160655617Y-84446400D01*
X160673386Y-84468003D01*
X160695597Y-84504118D01*
X160712477Y-84544683D01*
X160724026Y-84589700D01*
X160729579Y-84630615D01*
X160731430Y-84674621D01*
X160729404Y-84718873D01*
X160723324Y-84760185D01*
X160713192Y-84798557D01*
X160696249Y-84839609D01*
X160673789Y-84876658D01*
X160649015Y-84905423D01*
X160614174Y-84933504D01*
X160573755Y-84954566D01*
X160535811Y-84966754D01*
X160493994Y-84974067D01*
X160448304Y-84976505D01*
X160407788Y-84974523D01*
X160365262Y-84967403D01*
X160326766Y-84955105D01*
X160288276Y-84935081D01*
X160265451Y-84918141D01*
X160235748Y-84887734D01*
X160211486Y-84851330D01*
X160194487Y-84813937D01*
X160348457Y-84788926D01*
X160359686Y-84815478D01*
X160385973Y-84846177D01*
X160407879Y-84857689D01*
X160446741Y-84863958D01*
X160466126Y-84862570D01*
X160503885Y-84850043D01*
X160535840Y-84824488D01*
X160556383Y-84793612D01*
X160568844Y-84755256D01*
X160573161Y-84713895D01*
X160186280Y-84713895D01*
X160186149Y-84702871D01*
X160187164Y-84660567D01*
X160191687Y-84613853D01*
X160339665Y-84613853D01*
X160570425Y-84613853D01*
X160569073Y-84587333D01*
X160559273Y-84547742D01*
X160537990Y-84513225D01*
X160529463Y-84504570D01*
X160495338Y-84483364D01*
X160454556Y-84476295D01*
X160445816Y-84476605D01*
X160405873Y-84487424D01*
X160374249Y-84511466D01*
X160356683Y-84536494D01*
X160343714Y-84574889D01*
X160339665Y-84613853D01*
X160191687Y-84613853D01*
X160191894Y-84611714D01*
X160200468Y-84567335D01*
X160212887Y-84527431D01*
X160232866Y-84485452D01*
X160258381Y-84449917D01*
X160272968Y-84434518D01*
X160305039Y-84408263D01*
X160340970Y-84388067D01*
X160380762Y-84373930D01*
X160424414Y-84365852D01*
X160463740Y-84363748D01*
X160478091Y-84364071D01*
G37*
G36*
X159682554Y-84445032D02*
G01*
X159700844Y-84425981D01*
X159734837Y-84398754D01*
X159771353Y-84379307D01*
X159810395Y-84367638D01*
X159851960Y-84363748D01*
X159878012Y-84364960D01*
X159920855Y-84372914D01*
X159960200Y-84388292D01*
X159996049Y-84411094D01*
X160028401Y-84441320D01*
X160044750Y-84461830D01*
X160065187Y-84496786D01*
X160080718Y-84536770D01*
X160091345Y-84581782D01*
X160096454Y-84623134D01*
X160098157Y-84667977D01*
X160097037Y-84703414D01*
X160092485Y-84744884D01*
X160084432Y-84783216D01*
X160070146Y-84825071D01*
X160050818Y-84862406D01*
X160026448Y-84895221D01*
X160008068Y-84914272D01*
X159973730Y-84941499D01*
X159936624Y-84960946D01*
X159896751Y-84972615D01*
X159854110Y-84976505D01*
X159832519Y-84975355D01*
X159792622Y-84967117D01*
X159756022Y-84952471D01*
X159729675Y-84936802D01*
X159697718Y-84909563D01*
X159671612Y-84878221D01*
X159671612Y-84964000D01*
X159528192Y-84964000D01*
X159528192Y-84674425D01*
X159682163Y-84674425D01*
X159683079Y-84702829D01*
X159688354Y-84743492D01*
X159699895Y-84782203D01*
X159719678Y-84816477D01*
X159734230Y-84832613D01*
X159769576Y-84856121D01*
X159810146Y-84863958D01*
X159814318Y-84863896D01*
X159852824Y-84856477D01*
X159888437Y-84834035D01*
X159914682Y-84800650D01*
X159924732Y-84778911D01*
X159934807Y-84738871D01*
X159939240Y-84699227D01*
X159940474Y-84658989D01*
X159939894Y-84636934D01*
X159935253Y-84597073D01*
X159924486Y-84559004D01*
X159903349Y-84522213D01*
X159886256Y-84504321D01*
X159849997Y-84482753D01*
X159811318Y-84476295D01*
X159787510Y-84478521D01*
X159748502Y-84494461D01*
X159718506Y-84522799D01*
X159702606Y-84549642D01*
X159690148Y-84588656D01*
X159683902Y-84631172D01*
X159682163Y-84674425D01*
X159528192Y-84674425D01*
X159528192Y-84151159D01*
X159682554Y-84151159D01*
X159682554Y-84445032D01*
G37*
G36*
X159066866Y-84964000D02*
G01*
X158792533Y-84964000D01*
X158764380Y-84963752D01*
X158721946Y-84963218D01*
X158678432Y-84962375D01*
X158637874Y-84961114D01*
X158596357Y-84958528D01*
X158561505Y-84952576D01*
X158523359Y-84940180D01*
X158487327Y-84920231D01*
X158466407Y-84903391D01*
X158439379Y-84873230D01*
X158417571Y-84837189D01*
X158406372Y-84810920D01*
X158395574Y-84770831D01*
X158391974Y-84729917D01*
X158392110Y-84722297D01*
X158560209Y-84722297D01*
X158563982Y-84753909D01*
X158583070Y-84789903D01*
X158603743Y-84807287D01*
X158642079Y-84821557D01*
X158671898Y-84824720D01*
X158713703Y-84826137D01*
X158753649Y-84826442D01*
X158904298Y-84826442D01*
X158904298Y-84613853D01*
X158772993Y-84613853D01*
X158752832Y-84613954D01*
X158711120Y-84614979D01*
X158668453Y-84617917D01*
X158628597Y-84625381D01*
X158607607Y-84634789D01*
X158577794Y-84661725D01*
X158566408Y-84683693D01*
X158560209Y-84722297D01*
X158392110Y-84722297D01*
X158392129Y-84721244D01*
X158397552Y-84680009D01*
X158410722Y-84642323D01*
X158431639Y-84608187D01*
X158439341Y-84598744D01*
X158469352Y-84571114D01*
X158506042Y-84549399D01*
X158544773Y-84534914D01*
X158520043Y-84521395D01*
X158488032Y-84495484D01*
X158462121Y-84462813D01*
X158448785Y-84438193D01*
X158435926Y-84399066D01*
X158434086Y-84381138D01*
X158589909Y-84381138D01*
X158593875Y-84410533D01*
X158613942Y-84444446D01*
X158640240Y-84462813D01*
X158679595Y-84473560D01*
X158713532Y-84475430D01*
X158754626Y-84476124D01*
X158797613Y-84476295D01*
X158904298Y-84476295D01*
X158904298Y-84288717D01*
X158810900Y-84288717D01*
X158803808Y-84288720D01*
X158759120Y-84288888D01*
X158714415Y-84289489D01*
X158671779Y-84291452D01*
X158644128Y-84297845D01*
X158610621Y-84319980D01*
X158597210Y-84341385D01*
X158589909Y-84381138D01*
X158434086Y-84381138D01*
X158431639Y-84357300D01*
X158432512Y-84337741D01*
X158440388Y-84297908D01*
X158456454Y-84261557D01*
X158462805Y-84251128D01*
X158488108Y-84218857D01*
X158518199Y-84193169D01*
X158527636Y-84186999D01*
X158563118Y-84169779D01*
X158602414Y-84159366D01*
X158625259Y-84156168D01*
X158665971Y-84152963D01*
X158705382Y-84151552D01*
X158744856Y-84151159D01*
X159066866Y-84151159D01*
X159066866Y-84964000D01*
G37*
G36*
X158333551Y-84376254D02*
G01*
X158169225Y-84376254D01*
X158029518Y-84792443D01*
X157893328Y-84376254D01*
X157733300Y-84376254D01*
X157939441Y-84942702D01*
X157976175Y-85050950D01*
X157992396Y-85086961D01*
X158012732Y-85122471D01*
X158015059Y-85125786D01*
X158041522Y-85155431D01*
X158057264Y-85167600D01*
X158093348Y-85185600D01*
X158116078Y-85192611D01*
X158155776Y-85199624D01*
X158195017Y-85201599D01*
X158236396Y-85199710D01*
X158277002Y-85194043D01*
X158282358Y-85193002D01*
X158296036Y-85081041D01*
X158257437Y-85087518D01*
X158230579Y-85089052D01*
X158191532Y-85083215D01*
X158157938Y-85061974D01*
X158151053Y-85053685D01*
X158130670Y-85019208D01*
X158115963Y-84980563D01*
X158111388Y-84964000D01*
X158333551Y-84376254D01*
G37*
G36*
X167100868Y-90131524D02*
G01*
X166975816Y-90131524D01*
X166975816Y-90379675D01*
X167184644Y-90379675D01*
X167199973Y-90357888D01*
X167213674Y-90336947D01*
X167227966Y-90312936D01*
X167239915Y-90290144D01*
X167250891Y-90265095D01*
X167254619Y-90254867D01*
X167261709Y-90230460D01*
X167267058Y-90204147D01*
X167270665Y-90175930D01*
X167272371Y-90150227D01*
X167272815Y-90127739D01*
X167272064Y-90100230D01*
X167269810Y-90074337D01*
X167266053Y-90050060D01*
X167259562Y-90023060D01*
X167250906Y-89998388D01*
X167242041Y-89979605D01*
X167227139Y-89955727D01*
X167209363Y-89934315D01*
X167188711Y-89915369D01*
X167168721Y-89901092D01*
X167150450Y-89890579D01*
X167126979Y-89879871D01*
X167102273Y-89871379D01*
X167076330Y-89865102D01*
X167049150Y-89861041D01*
X167020734Y-89859195D01*
X167010987Y-89859072D01*
X166985669Y-89859915D01*
X166956658Y-89863155D01*
X166929141Y-89868825D01*
X166903117Y-89876925D01*
X166878588Y-89887456D01*
X166866884Y-89893632D01*
X166844892Y-89907721D01*
X166824986Y-89924069D01*
X166807168Y-89942675D01*
X166791436Y-89963539D01*
X166777790Y-89986661D01*
X166773705Y-89994871D01*
X166764141Y-90019326D01*
X166757812Y-90042985D01*
X166753210Y-90069134D01*
X166750333Y-90097773D01*
X166749254Y-90123542D01*
X166749159Y-90134333D01*
X166749546Y-90159602D01*
X166751035Y-90187217D01*
X166753639Y-90211877D01*
X166758089Y-90236915D01*
X166765034Y-90260607D01*
X166775365Y-90283235D01*
X166790130Y-90305703D01*
X166808352Y-90325357D01*
X166814494Y-90330704D01*
X166835045Y-90345421D01*
X166859054Y-90358109D01*
X166883299Y-90367684D01*
X166903276Y-90373813D01*
X166929410Y-90216277D01*
X166907471Y-90205387D01*
X166889382Y-90187733D01*
X166887644Y-90185136D01*
X166877569Y-90161078D01*
X166874263Y-90135018D01*
X166874211Y-90130914D01*
X166876752Y-90104687D01*
X166885534Y-90079285D01*
X166900589Y-90057818D01*
X166906329Y-90052146D01*
X166927448Y-90037978D01*
X166951345Y-90029276D01*
X166976213Y-90024668D01*
X167004774Y-90022865D01*
X167009155Y-90022836D01*
X167035837Y-90023880D01*
X167063102Y-90027734D01*
X167089167Y-90035617D01*
X167111995Y-90048918D01*
X167116133Y-90052512D01*
X167132813Y-90073361D01*
X167142543Y-90096061D01*
X167147269Y-90122489D01*
X167147763Y-90135432D01*
X167146511Y-90160498D01*
X167142756Y-90184403D01*
X167136100Y-90208919D01*
X167127772Y-90232123D01*
X167126392Y-90235572D01*
X167100868Y-90235572D01*
X167100868Y-90131524D01*
G37*
G36*
X167052997Y-91030827D02*
G01*
X167094640Y-91174686D01*
X167120338Y-91167485D01*
X167143898Y-91158811D01*
X167168203Y-91147095D01*
X167189716Y-91133455D01*
X167194658Y-91129745D01*
X167214936Y-91111697D01*
X167232220Y-91091350D01*
X167246509Y-91068703D01*
X167253154Y-91055129D01*
X167261756Y-91031346D01*
X167267900Y-91004571D01*
X167271260Y-90978688D01*
X167272738Y-90950515D01*
X167272815Y-90942044D01*
X167272228Y-90916862D01*
X167269972Y-90888572D01*
X167266025Y-90862386D01*
X167260387Y-90838303D01*
X167251671Y-90812865D01*
X167248757Y-90806123D01*
X167236491Y-90783678D01*
X167220741Y-90762613D01*
X167201509Y-90742926D01*
X167182252Y-90727150D01*
X167164249Y-90714776D01*
X167140363Y-90701745D01*
X167114132Y-90691409D01*
X167090482Y-90684856D01*
X167065205Y-90680175D01*
X167038299Y-90677366D01*
X167009766Y-90676430D01*
X166979342Y-90677485D01*
X166950720Y-90680651D01*
X166923899Y-90685927D01*
X166898879Y-90693314D01*
X166875661Y-90702810D01*
X166849171Y-90717649D01*
X166825496Y-90735786D01*
X166816814Y-90743963D01*
X166797323Y-90766462D01*
X166781136Y-90791674D01*
X166770565Y-90813797D01*
X166762108Y-90837657D01*
X166755766Y-90863253D01*
X166751537Y-90890585D01*
X166749423Y-90919654D01*
X166749159Y-90934839D01*
X166750119Y-90963951D01*
X166752999Y-90991065D01*
X166757799Y-91016182D01*
X166766094Y-91043685D01*
X166777153Y-91068311D01*
X166788482Y-91086636D01*
X166804846Y-91106474D01*
X166824448Y-91124406D01*
X166847287Y-91140432D01*
X166868793Y-91152330D01*
X166892546Y-91162905D01*
X166913168Y-91170411D01*
X166945286Y-91025209D01*
X166921342Y-91016296D01*
X166909504Y-91009577D01*
X166891338Y-90991813D01*
X166883370Y-90979047D01*
X166875499Y-90954785D01*
X166874211Y-90938625D01*
X166877370Y-90911923D01*
X166886846Y-90888968D01*
X166902640Y-90869762D01*
X166914145Y-90860711D01*
X166936267Y-90849892D01*
X166962030Y-90843581D01*
X166989586Y-90840696D01*
X167009033Y-90840195D01*
X167037368Y-90841049D01*
X167062104Y-90843613D01*
X167086417Y-90848763D01*
X167110480Y-90858801D01*
X167118576Y-90864497D01*
X167135193Y-90883627D01*
X167144913Y-90907432D01*
X167147763Y-90933129D01*
X167145521Y-90957933D01*
X167136911Y-90982250D01*
X167124804Y-90997976D01*
X167103887Y-91012900D01*
X167080946Y-91022948D01*
X167056017Y-91030136D01*
X167052997Y-91030827D01*
G37*
G36*
X166756974Y-91239532D02*
G01*
X166756974Y-91402931D01*
X166939424Y-91402931D01*
X166756974Y-91560345D01*
X166756974Y-91778210D01*
X166949071Y-91590387D01*
X167265000Y-91784072D01*
X167265000Y-91583182D01*
X167064232Y-91478402D01*
X167143122Y-91402931D01*
X167265000Y-91402931D01*
X167265000Y-91239532D01*
X166756974Y-91239532D01*
G37*
G36*
X166756974Y-92053349D02*
G01*
X166756974Y-92264986D01*
X167048478Y-92340945D01*
X166756974Y-92416538D01*
X166756974Y-92627564D01*
X167265000Y-92627564D01*
X167265000Y-92492620D01*
X166877142Y-92496528D01*
X167265000Y-92401029D01*
X167265000Y-92279885D01*
X166877142Y-92184630D01*
X167265000Y-92188538D01*
X167265000Y-92053349D01*
X166756974Y-92053349D01*
G37*
G36*
X166756974Y-92721720D02*
G01*
X166756974Y-92885363D01*
X167265000Y-92885363D01*
X167265000Y-92721720D01*
X166756974Y-92721720D01*
G37*
G36*
X166756974Y-93219365D02*
G01*
X166756974Y-93431001D01*
X167048478Y-93506961D01*
X166756974Y-93582554D01*
X166756974Y-93793580D01*
X167265000Y-93793580D01*
X167265000Y-93658635D01*
X166877142Y-93662543D01*
X167265000Y-93567044D01*
X167265000Y-93445900D01*
X166877142Y-93350645D01*
X167265000Y-93354553D01*
X167265000Y-93219365D01*
X166756974Y-93219365D01*
G37*
G36*
X167033030Y-93862517D02*
G01*
X167058838Y-93864750D01*
X167083214Y-93868700D01*
X167110577Y-93875706D01*
X167135879Y-93885186D01*
X167159120Y-93897139D01*
X167176816Y-93908692D01*
X167196004Y-93923942D01*
X167215569Y-93943644D01*
X167232095Y-93965403D01*
X167245582Y-93989218D01*
X167251965Y-94003873D01*
X167259943Y-94027572D01*
X167266007Y-94053332D01*
X167270156Y-94081153D01*
X167272150Y-94105911D01*
X167272815Y-94132100D01*
X167272537Y-94147748D01*
X167270838Y-94172744D01*
X167266761Y-94200952D01*
X167260460Y-94227212D01*
X167251935Y-94251522D01*
X167241186Y-94273883D01*
X167232855Y-94287750D01*
X167216384Y-94309987D01*
X167197505Y-94329641D01*
X167176219Y-94346712D01*
X167152526Y-94361200D01*
X167137806Y-94368298D01*
X167113881Y-94377171D01*
X167087740Y-94383915D01*
X167059384Y-94388528D01*
X167034062Y-94390747D01*
X167007201Y-94391486D01*
X166992162Y-94391216D01*
X166963349Y-94389052D01*
X166936223Y-94384724D01*
X166910783Y-94378233D01*
X166887031Y-94369577D01*
X166864965Y-94358758D01*
X166839755Y-94342191D01*
X166817180Y-94322243D01*
X166805024Y-94308772D01*
X166787421Y-94284050D01*
X166775730Y-94262228D01*
X166766164Y-94238590D01*
X166758724Y-94213135D01*
X166753410Y-94185864D01*
X166750221Y-94156776D01*
X166749159Y-94125872D01*
X166749172Y-94125506D01*
X166874211Y-94125506D01*
X166874332Y-94131351D01*
X166878573Y-94158261D01*
X166888872Y-94181307D01*
X166905230Y-94200488D01*
X166907205Y-94202186D01*
X166928266Y-94215043D01*
X166951950Y-94222805D01*
X166976505Y-94226767D01*
X167004637Y-94228088D01*
X167014621Y-94227984D01*
X167042204Y-94226431D01*
X167069892Y-94222265D01*
X167095610Y-94214397D01*
X167116988Y-94201587D01*
X167122488Y-94196448D01*
X167136914Y-94176527D01*
X167145329Y-94152313D01*
X167147763Y-94126849D01*
X167147640Y-94121063D01*
X167143332Y-94094426D01*
X167132871Y-94071604D01*
X167116256Y-94052599D01*
X167112154Y-94049301D01*
X167089645Y-94037094D01*
X167064074Y-94029861D01*
X167037404Y-94026323D01*
X167011353Y-94025366D01*
X167002254Y-94025473D01*
X166976953Y-94027083D01*
X166951223Y-94031404D01*
X166926812Y-94039561D01*
X166905718Y-94052843D01*
X166901903Y-94056347D01*
X166886518Y-94075941D01*
X166877288Y-94098994D01*
X166874211Y-94125506D01*
X166749172Y-94125506D01*
X166750241Y-94095672D01*
X166753486Y-94067170D01*
X166758896Y-94040366D01*
X166766469Y-94015260D01*
X166776207Y-93991853D01*
X166788108Y-93970144D01*
X166802173Y-93950134D01*
X166818401Y-93931821D01*
X166831863Y-93919337D01*
X166856427Y-93901260D01*
X166877993Y-93889254D01*
X166901261Y-93879431D01*
X166926231Y-93871791D01*
X166952903Y-93866333D01*
X166981277Y-93863059D01*
X167011353Y-93861968D01*
X167033030Y-93862517D01*
G37*
G36*
X167052997Y-95033967D02*
G01*
X167094640Y-95177826D01*
X167120338Y-95170625D01*
X167143898Y-95161951D01*
X167168203Y-95150235D01*
X167189716Y-95136596D01*
X167194658Y-95132885D01*
X167214936Y-95114837D01*
X167232220Y-95094490D01*
X167246509Y-95071844D01*
X167253154Y-95058269D01*
X167261756Y-95034486D01*
X167267900Y-95007711D01*
X167271260Y-94981828D01*
X167272738Y-94953655D01*
X167272815Y-94945185D01*
X167272228Y-94920002D01*
X167269972Y-94891712D01*
X167266025Y-94865526D01*
X167260387Y-94841443D01*
X167251671Y-94816005D01*
X167248757Y-94809263D01*
X167236491Y-94786819D01*
X167220741Y-94765753D01*
X167201509Y-94746066D01*
X167182252Y-94730290D01*
X167164249Y-94717917D01*
X167140363Y-94704885D01*
X167114132Y-94694549D01*
X167090482Y-94687996D01*
X167065205Y-94683315D01*
X167038299Y-94680507D01*
X167009766Y-94679571D01*
X166979342Y-94680626D01*
X166950720Y-94683791D01*
X166923899Y-94689067D01*
X166898879Y-94696454D01*
X166875661Y-94705951D01*
X166849171Y-94720789D01*
X166825496Y-94738926D01*
X166816814Y-94747104D01*
X166797323Y-94769603D01*
X166781136Y-94794814D01*
X166770565Y-94816938D01*
X166762108Y-94840797D01*
X166755766Y-94866393D01*
X166751537Y-94893725D01*
X166749423Y-94922794D01*
X166749159Y-94937979D01*
X166750119Y-94967091D01*
X166752999Y-94994205D01*
X166757799Y-95019322D01*
X166766094Y-95046825D01*
X166777153Y-95071452D01*
X166788482Y-95089776D01*
X166804846Y-95109614D01*
X166824448Y-95127546D01*
X166847287Y-95143572D01*
X166868793Y-95155470D01*
X166892546Y-95166045D01*
X166913168Y-95173552D01*
X166945286Y-95028349D01*
X166921342Y-95019436D01*
X166909504Y-95012718D01*
X166891338Y-94994953D01*
X166883370Y-94982187D01*
X166875499Y-94957925D01*
X166874211Y-94941765D01*
X166877370Y-94915063D01*
X166886846Y-94892109D01*
X166902640Y-94872902D01*
X166914145Y-94863852D01*
X166936267Y-94853033D01*
X166962030Y-94846721D01*
X166989586Y-94843836D01*
X167009033Y-94843335D01*
X167037368Y-94844190D01*
X167062104Y-94846753D01*
X167086417Y-94851903D01*
X167110480Y-94861942D01*
X167118576Y-94867638D01*
X167135193Y-94886767D01*
X167144913Y-94910572D01*
X167147763Y-94936270D01*
X167145521Y-94961073D01*
X167136911Y-94985391D01*
X167124804Y-95001116D01*
X167103887Y-95016040D01*
X167080946Y-95026089D01*
X167056017Y-95033277D01*
X167052997Y-95033967D01*
G37*
G36*
X167086946Y-95214462D02*
G01*
X167077177Y-95370167D01*
X167101422Y-95374747D01*
X167125185Y-95383623D01*
X167134085Y-95389340D01*
X167150772Y-95407462D01*
X167160532Y-95430259D01*
X167163394Y-95455042D01*
X167160683Y-95480033D01*
X167150100Y-95502585D01*
X167149228Y-95503646D01*
X167128740Y-95518507D01*
X167116622Y-95520499D01*
X167093460Y-95512297D01*
X167085359Y-95504623D01*
X167072960Y-95481655D01*
X167065212Y-95457757D01*
X167058470Y-95430512D01*
X167057637Y-95426709D01*
X167051745Y-95401800D01*
X167043693Y-95373251D01*
X167034877Y-95347576D01*
X167025298Y-95324774D01*
X167012796Y-95301207D01*
X166996821Y-95278942D01*
X166978867Y-95261289D01*
X166955859Y-95246422D01*
X166930194Y-95237219D01*
X166905559Y-95233812D01*
X166898147Y-95233635D01*
X166871562Y-95236363D01*
X166846045Y-95244545D01*
X166823775Y-95256716D01*
X166803360Y-95273448D01*
X166787536Y-95292321D01*
X166774127Y-95314806D01*
X166768942Y-95325959D01*
X166760287Y-95351070D01*
X166754742Y-95376474D01*
X166751496Y-95400797D01*
X166749642Y-95427473D01*
X166749159Y-95451500D01*
X166750044Y-95480945D01*
X166752701Y-95508141D01*
X166757128Y-95533089D01*
X166764779Y-95560060D01*
X166774980Y-95583794D01*
X166785429Y-95601099D01*
X166803535Y-95621819D01*
X166826118Y-95638565D01*
X166849037Y-95649757D01*
X166875245Y-95658028D01*
X166899597Y-95662691D01*
X166904741Y-95663381D01*
X166913534Y-95509019D01*
X166888761Y-95502163D01*
X166867622Y-95488524D01*
X166864808Y-95485328D01*
X166853849Y-95462680D01*
X166850777Y-95438076D01*
X166850764Y-95436113D01*
X166854009Y-95411336D01*
X166861022Y-95397889D01*
X166882804Y-95385542D01*
X166885446Y-95385432D01*
X166903642Y-95395446D01*
X166914115Y-95418133D01*
X166920464Y-95443286D01*
X166920983Y-95445760D01*
X166926376Y-95470503D01*
X166933170Y-95498894D01*
X166940024Y-95524463D01*
X166948327Y-95551424D01*
X166958123Y-95577745D01*
X166965191Y-95593161D01*
X166978857Y-95616518D01*
X166994300Y-95636030D01*
X167013544Y-95653201D01*
X167021856Y-95658740D01*
X167043861Y-95669624D01*
X167067441Y-95676476D01*
X167092596Y-95679298D01*
X167097815Y-95679379D01*
X167124900Y-95677205D01*
X167150786Y-95670685D01*
X167175475Y-95659817D01*
X167188674Y-95651901D01*
X167208175Y-95636819D01*
X167225157Y-95619051D01*
X167239621Y-95598595D01*
X167251566Y-95575453D01*
X167260863Y-95549457D01*
X167266818Y-95524130D01*
X167270740Y-95496396D01*
X167272483Y-95470707D01*
X167272815Y-95452599D01*
X167272012Y-95421326D01*
X167269602Y-95392538D01*
X167265585Y-95366234D01*
X167259962Y-95342415D01*
X167250673Y-95316135D01*
X167238875Y-95293736D01*
X167221402Y-95271982D01*
X167201010Y-95254555D01*
X167178394Y-95240194D01*
X167153555Y-95228898D01*
X167126491Y-95220668D01*
X167102239Y-95216151D01*
X167086946Y-95214462D01*
G37*
G36*
X166756974Y-95928995D02*
G01*
X166756974Y-96100209D01*
X167107829Y-96210729D01*
X166756974Y-96319417D01*
X166756974Y-96485991D01*
X167265000Y-96296214D01*
X167265000Y-96122191D01*
X166756974Y-95928995D01*
G37*
D15*
X144530000Y-86629420D02*
X144530000Y-86910580D01*
X145550000Y-86629420D02*
X145550000Y-86910580D01*
X152100000Y-78590000D02*
X154760000Y-78590000D01*
X152100000Y-80290000D02*
X154760000Y-80290000D01*
X154760000Y-80290000D02*
X154760000Y-78590000D01*
X167038641Y-88420000D02*
X166731359Y-88420000D01*
X167038641Y-89180000D02*
X166731359Y-89180000D01*
X166094420Y-100730000D02*
X166375580Y-100730000D01*
X166094420Y-101750000D02*
X166375580Y-101750000D01*
X165727836Y-96340000D02*
X165512164Y-96340000D01*
X165727836Y-97060000D02*
X165512164Y-97060000D01*
X147490000Y-91592164D02*
X147490000Y-91807836D01*
X148210000Y-91592164D02*
X148210000Y-91807836D01*
X147840000Y-109261252D02*
X147840000Y-107838748D01*
X149660000Y-109261252D02*
X149660000Y-107838748D01*
X147800000Y-97390000D02*
X150000000Y-97390000D01*
X147800000Y-102610000D02*
X150000000Y-102610000D01*
X152200000Y-97390000D02*
X150000000Y-97390000D01*
X152200000Y-102610000D02*
X150000000Y-102610000D01*
X147340000Y-102740000D02*
X146860000Y-102740000D01*
X147100000Y-102410000D01*
X147340000Y-102740000D01*
G36*
X147340000Y-102740000D02*
G01*
X146860000Y-102740000D01*
X147100000Y-102410000D01*
X147340000Y-102740000D01*
G37*
X158009420Y-97265000D02*
X158290580Y-97265000D01*
X158009420Y-98285000D02*
X158290580Y-98285000D01*
X167575000Y-90140000D02*
X168565000Y-90140000D01*
X168565000Y-89090000D02*
X171065000Y-89090000D01*
X168565000Y-90140000D02*
X168565000Y-89090000D01*
X168565000Y-96260000D02*
X168565000Y-97310000D01*
X168565000Y-97310000D02*
X171065000Y-97310000D01*
X173035000Y-96140000D02*
X173035000Y-90260000D01*
X159915000Y-89337836D02*
X159915000Y-89122164D01*
X160635000Y-89337836D02*
X160635000Y-89122164D01*
X154040000Y-100592164D02*
X154040000Y-100807836D01*
X154760000Y-100592164D02*
X154760000Y-100807836D01*
X153296359Y-81720000D02*
X153603641Y-81720000D01*
X153296359Y-82480000D02*
X153603641Y-82480000D01*
X138089420Y-86970000D02*
X138370580Y-86970000D01*
X138089420Y-87990000D02*
X138370580Y-87990000D01*
X150071359Y-82170000D02*
X150378641Y-82170000D01*
X150071359Y-82930000D02*
X150378641Y-82930000D01*
X144403641Y-89045000D02*
X144096359Y-89045000D01*
X144403641Y-89805000D02*
X144096359Y-89805000D01*
X145340000Y-109261252D02*
X145340000Y-107838748D01*
X147160000Y-109261252D02*
X147160000Y-107838748D01*
X149640000Y-79372164D02*
X149640000Y-79587836D01*
X150360000Y-79372164D02*
X150360000Y-79587836D01*
X164460000Y-104690000D02*
X164460000Y-105490000D01*
X164460000Y-106290000D02*
X164460000Y-105490000D01*
X167580000Y-104690000D02*
X167580000Y-105490000D01*
X167580000Y-106290000D02*
X167580000Y-105490000D01*
X167860000Y-107030000D02*
X167530000Y-106790000D01*
X167860000Y-106550000D01*
X167860000Y-107030000D01*
G36*
X167860000Y-107030000D02*
G01*
X167530000Y-106790000D01*
X167860000Y-106550000D01*
X167860000Y-107030000D01*
G37*
X161216359Y-96320000D02*
X161523641Y-96320000D01*
X161216359Y-97080000D02*
X161523641Y-97080000D01*
X163065000Y-105909420D02*
X163065000Y-106190580D01*
X164085000Y-105909420D02*
X164085000Y-106190580D01*
X149162258Y-86477500D02*
X148687742Y-86477500D01*
X149162258Y-87522500D02*
X148687742Y-87522500D01*
X148692742Y-84997500D02*
X149167258Y-84997500D01*
X148692742Y-86042500D02*
X149167258Y-86042500D01*
X131253641Y-97470000D02*
X130946359Y-97470000D01*
X131253641Y-98230000D02*
X130946359Y-98230000D01*
X167065000Y-97092164D02*
X167065000Y-97307836D01*
X167785000Y-97092164D02*
X167785000Y-97307836D01*
X130946359Y-98520000D02*
X131253641Y-98520000D01*
X130946359Y-99280000D02*
X131253641Y-99280000D01*
X160890000Y-89337836D02*
X160890000Y-89122164D01*
X161610000Y-89337836D02*
X161610000Y-89122164D01*
X169257836Y-87890000D02*
X169042164Y-87890000D01*
X169257836Y-88610000D02*
X169042164Y-88610000D01*
X136877500Y-93337258D02*
X136877500Y-92862742D01*
X137922500Y-93337258D02*
X137922500Y-92862742D01*
X150640000Y-79372164D02*
X150640000Y-79587836D01*
X151360000Y-79372164D02*
X151360000Y-79587836D01*
X145990000Y-86634420D02*
X145990000Y-86915580D01*
X147010000Y-86634420D02*
X147010000Y-86915580D01*
X144218748Y-78100000D02*
X144741252Y-78100000D01*
X144218748Y-79570000D02*
X144741252Y-79570000D01*
X157085000Y-96022164D02*
X157085000Y-96237836D01*
X157805000Y-96022164D02*
X157805000Y-96237836D01*
X132350000Y-102150000D02*
X132350000Y-96340000D01*
X136650000Y-96340000D02*
X132350000Y-96340000D01*
X136650000Y-102150000D02*
X136650000Y-96340000D01*
X155340000Y-109261252D02*
X155340000Y-107838748D01*
X157160000Y-109261252D02*
X157160000Y-107838748D01*
D16*
G36*
X153061522Y-92190077D02*
G01*
X153061522Y-92386108D01*
X152963506Y-92386108D01*
X152865491Y-92386108D01*
X152865491Y-92190077D01*
X152865491Y-91994046D01*
X152963506Y-91994046D01*
X153061522Y-91994046D01*
X153061522Y-92190077D01*
G37*
G36*
X153061522Y-94444432D02*
G01*
X153061522Y-94542447D01*
X152963506Y-94542447D01*
X152865491Y-94542447D01*
X152865491Y-94444432D01*
X152865491Y-94346417D01*
X152963506Y-94346417D01*
X153061522Y-94346417D01*
X153061522Y-94444432D01*
G37*
G36*
X153649614Y-90131753D02*
G01*
X153649614Y-90229768D01*
X153355568Y-90229768D01*
X153061522Y-90229768D01*
X153061522Y-90131753D01*
X153061522Y-90033737D01*
X153355568Y-90033737D01*
X153649614Y-90033737D01*
X153649614Y-90131753D01*
G37*
G36*
X153257553Y-94836494D02*
G01*
X153257553Y-94934509D01*
X153159537Y-94934509D01*
X153061522Y-94934509D01*
X153061522Y-94836494D01*
X153061522Y-94738478D01*
X153159537Y-94738478D01*
X153257553Y-94738478D01*
X153257553Y-94836494D01*
G37*
G36*
X153845645Y-89151598D02*
G01*
X153845645Y-89445645D01*
X153551599Y-89445645D01*
X153257553Y-89445645D01*
X153257553Y-89151598D01*
X153257553Y-88857552D01*
X153551599Y-88857552D01*
X153845645Y-88857552D01*
X153845645Y-89151598D01*
G37*
G36*
X153845645Y-91503969D02*
G01*
X153845645Y-91601984D01*
X153747630Y-91601984D01*
X153649614Y-91601984D01*
X153649614Y-91503969D01*
X153649614Y-91405953D01*
X153747630Y-91405953D01*
X153845645Y-91405953D01*
X153845645Y-91503969D01*
G37*
G36*
X154237707Y-93660308D02*
G01*
X154237707Y-93758324D01*
X154139692Y-93758324D01*
X154041676Y-93758324D01*
X154041676Y-93660308D01*
X154041676Y-93562293D01*
X154139692Y-93562293D01*
X154237707Y-93562293D01*
X154237707Y-93660308D01*
G37*
G36*
X154433738Y-90131753D02*
G01*
X154433738Y-90229768D01*
X154335722Y-90229768D01*
X154237707Y-90229768D01*
X154237707Y-90131753D01*
X154237707Y-90033737D01*
X154335722Y-90033737D01*
X154433738Y-90033737D01*
X154433738Y-90131753D01*
G37*
G36*
X154433738Y-91503969D02*
G01*
X154433738Y-91601984D01*
X154335722Y-91601984D01*
X154237707Y-91601984D01*
X154237707Y-91503969D01*
X154237707Y-91405953D01*
X154335722Y-91405953D01*
X154433738Y-91405953D01*
X154433738Y-91503969D01*
G37*
G36*
X154629769Y-88955568D02*
G01*
X154629769Y-89053583D01*
X154531753Y-89053583D01*
X154433738Y-89053583D01*
X154433738Y-88955568D01*
X154433738Y-88857552D01*
X154531753Y-88857552D01*
X154629769Y-88857552D01*
X154629769Y-88955568D01*
G37*
G36*
X154629769Y-92876185D02*
G01*
X154629769Y-92974200D01*
X154531753Y-92974200D01*
X154433738Y-92974200D01*
X154433738Y-92876185D01*
X154433738Y-92778170D01*
X154531753Y-92778170D01*
X154629769Y-92778170D01*
X154629769Y-92876185D01*
G37*
G36*
X155021830Y-89151598D02*
G01*
X155021830Y-89249614D01*
X154923815Y-89249614D01*
X154825800Y-89249614D01*
X154825800Y-89151598D01*
X154825800Y-89053583D01*
X154923815Y-89053583D01*
X155021830Y-89053583D01*
X155021830Y-89151598D01*
G37*
G36*
X155021830Y-91307938D02*
G01*
X155021830Y-91405953D01*
X154923815Y-91405953D01*
X154825800Y-91405953D01*
X154825800Y-91307938D01*
X154825800Y-91209923D01*
X154923815Y-91209923D01*
X155021830Y-91209923D01*
X155021830Y-91307938D01*
G37*
G36*
X155217861Y-88955568D02*
G01*
X155217861Y-89053583D01*
X155119846Y-89053583D01*
X155021830Y-89053583D01*
X155021830Y-88955568D01*
X155021830Y-88857552D01*
X155119846Y-88857552D01*
X155217861Y-88857552D01*
X155217861Y-88955568D01*
G37*
G36*
X155217861Y-90719845D02*
G01*
X155217861Y-90817861D01*
X155119846Y-90817861D01*
X155021830Y-90817861D01*
X155021830Y-90719845D01*
X155021830Y-90621830D01*
X155119846Y-90621830D01*
X155217861Y-90621830D01*
X155217861Y-90719845D01*
G37*
G36*
X155609923Y-89347629D02*
G01*
X155609923Y-89445645D01*
X155511908Y-89445645D01*
X155413892Y-89445645D01*
X155413892Y-89347629D01*
X155413892Y-89249614D01*
X155511908Y-89249614D01*
X155609923Y-89249614D01*
X155609923Y-89347629D01*
G37*
G36*
X156982139Y-91111907D02*
G01*
X156982139Y-91209923D01*
X156884124Y-91209923D01*
X156786108Y-91209923D01*
X156786108Y-91111907D01*
X156786108Y-91013892D01*
X156884124Y-91013892D01*
X156982139Y-91013892D01*
X156982139Y-91111907D01*
G37*
G36*
X157374201Y-88759537D02*
G01*
X157374201Y-88857552D01*
X157276185Y-88857552D01*
X157178170Y-88857552D01*
X157178170Y-88759537D01*
X157178170Y-88661521D01*
X157276185Y-88661521D01*
X157374201Y-88661521D01*
X157374201Y-88759537D01*
G37*
G36*
X158158324Y-90131753D02*
G01*
X158158324Y-90229768D01*
X158060309Y-90229768D01*
X157962294Y-90229768D01*
X157962294Y-90131753D01*
X157962294Y-90033737D01*
X158060309Y-90033737D01*
X158158324Y-90033737D01*
X158158324Y-90131753D01*
G37*
G36*
X158942448Y-89151598D02*
G01*
X158942448Y-89445645D01*
X158648402Y-89445645D01*
X158354355Y-89445645D01*
X158354355Y-89151598D01*
X158354355Y-88857552D01*
X158648402Y-88857552D01*
X158942448Y-88857552D01*
X158942448Y-89151598D01*
G37*
G36*
X158942448Y-94248401D02*
G01*
X158942448Y-94542447D01*
X158648402Y-94542447D01*
X158354355Y-94542447D01*
X158354355Y-94248401D01*
X158354355Y-93954355D01*
X158648402Y-93954355D01*
X158942448Y-93954355D01*
X158942448Y-94248401D01*
G37*
G36*
X159138479Y-91111907D02*
G01*
X159138479Y-91209923D01*
X159040463Y-91209923D01*
X158942448Y-91209923D01*
X158942448Y-91111907D01*
X158942448Y-91013892D01*
X159040463Y-91013892D01*
X159138479Y-91013892D01*
X159138479Y-91111907D01*
G37*
G36*
X159334510Y-90719845D02*
G01*
X159334510Y-90817861D01*
X159236494Y-90817861D01*
X159138479Y-90817861D01*
X159138479Y-90719845D01*
X159138479Y-90621830D01*
X159236494Y-90621830D01*
X159334510Y-90621830D01*
X159334510Y-90719845D01*
G37*
G36*
X159334510Y-92092062D02*
G01*
X159334510Y-92190077D01*
X159236494Y-92190077D01*
X159138479Y-92190077D01*
X159138479Y-92092062D01*
X159138479Y-91994046D01*
X159236494Y-91994046D01*
X159334510Y-91994046D01*
X159334510Y-92092062D01*
G37*
G36*
X159334510Y-92582139D02*
G01*
X159334510Y-92778170D01*
X159236494Y-92778170D01*
X159138479Y-92778170D01*
X159138479Y-92582139D01*
X159138479Y-92386108D01*
X159236494Y-92386108D01*
X159334510Y-92386108D01*
X159334510Y-92582139D01*
G37*
G36*
X155217861Y-91896031D02*
G01*
X155217861Y-91994046D01*
X155119846Y-91994046D01*
X155021830Y-91994046D01*
X155021830Y-92092062D01*
X155021830Y-92190077D01*
X154923815Y-92190077D01*
X154825800Y-92190077D01*
X154825800Y-91994046D01*
X154825800Y-91798015D01*
X155021830Y-91798015D01*
X155217861Y-91798015D01*
X155217861Y-91896031D01*
G37*
G36*
X154727784Y-88661521D02*
G01*
X154825800Y-88661521D01*
X154825800Y-88759537D01*
X154825800Y-88857552D01*
X154727784Y-88857552D01*
X154629769Y-88857552D01*
X154629769Y-88759537D01*
X154629769Y-88661521D01*
X154727784Y-88661521D01*
G37*
G36*
X154629769Y-88563506D02*
G01*
X154629769Y-88661521D01*
X154531753Y-88661521D01*
X154433738Y-88661521D01*
X154433738Y-88563506D01*
X154433738Y-88465490D01*
X154531753Y-88465490D01*
X154629769Y-88465490D01*
X154629769Y-88563506D01*
G37*
G36*
X155217861Y-92484123D02*
G01*
X155217861Y-92582139D01*
X155315877Y-92582139D01*
X155413892Y-92582139D01*
X155413892Y-92680154D01*
X155413892Y-92778170D01*
X155119846Y-92778170D01*
X154825800Y-92778170D01*
X154825800Y-92680154D01*
X154825800Y-92582139D01*
X154923815Y-92582139D01*
X155021830Y-92582139D01*
X155021830Y-92484123D01*
X155021830Y-92386108D01*
X155119846Y-92386108D01*
X155217861Y-92386108D01*
X155217861Y-92484123D01*
G37*
G36*
X158060309Y-91601984D02*
G01*
X158158324Y-91601984D01*
X158158324Y-91700000D01*
X158158324Y-91798015D01*
X158060309Y-91798015D01*
X157962294Y-91798015D01*
X157962294Y-91700000D01*
X157962294Y-91601984D01*
X158060309Y-91601984D01*
G37*
G36*
X157962294Y-91503969D02*
G01*
X157962294Y-91601984D01*
X157766263Y-91601984D01*
X157570232Y-91601984D01*
X157570232Y-91503969D01*
X157570232Y-91405953D01*
X157766263Y-91405953D01*
X157962294Y-91405953D01*
X157962294Y-91503969D01*
G37*
G36*
X159138479Y-90131753D02*
G01*
X159138479Y-90229768D01*
X159236494Y-90229768D01*
X159334510Y-90229768D01*
X159334510Y-90327784D01*
X159334510Y-90425799D01*
X159138479Y-90425799D01*
X158942448Y-90425799D01*
X158942448Y-90327784D01*
X158942448Y-90229768D01*
X158844432Y-90229768D01*
X158746417Y-90229768D01*
X158746417Y-90131753D01*
X158746417Y-90033737D01*
X158942448Y-90033737D01*
X159138479Y-90033737D01*
X159138479Y-90131753D01*
G37*
G36*
X154237707Y-89837706D02*
G01*
X153551599Y-89837706D01*
X152865491Y-89837706D01*
X152865491Y-89151598D01*
X152865491Y-88661521D01*
X153061522Y-88661521D01*
X153061522Y-89151598D01*
X153061522Y-89641676D01*
X153551599Y-89641676D01*
X154041676Y-89641676D01*
X154041676Y-89151598D01*
X154041676Y-88661521D01*
X153551599Y-88661521D01*
X153061522Y-88661521D01*
X152865491Y-88661521D01*
X152865491Y-88465490D01*
X153551599Y-88465490D01*
X154237707Y-88465490D01*
X154237707Y-89151598D01*
X154237707Y-89837706D01*
G37*
G36*
X159334510Y-89837706D02*
G01*
X158648402Y-89837706D01*
X157962294Y-89837706D01*
X157962294Y-89151598D01*
X157962294Y-88661521D01*
X158158324Y-88661521D01*
X158158324Y-89151598D01*
X158158324Y-89641676D01*
X158648402Y-89641676D01*
X159138479Y-89641676D01*
X159138479Y-89151598D01*
X159138479Y-88661521D01*
X158648402Y-88661521D01*
X158158324Y-88661521D01*
X157962294Y-88661521D01*
X157962294Y-88465490D01*
X158648402Y-88465490D01*
X159334510Y-88465490D01*
X159334510Y-89151598D01*
X159334510Y-89837706D01*
G37*
G36*
X159334510Y-94934509D02*
G01*
X158648402Y-94934509D01*
X157962294Y-94934509D01*
X157962294Y-94248401D01*
X157962294Y-93758324D01*
X158158324Y-93758324D01*
X158158324Y-94248401D01*
X158158324Y-94738478D01*
X158648402Y-94738478D01*
X159138479Y-94738478D01*
X159138479Y-94248401D01*
X159138479Y-93758324D01*
X158648402Y-93758324D01*
X158158324Y-93758324D01*
X157962294Y-93758324D01*
X157962294Y-93562293D01*
X158648402Y-93562293D01*
X159334510Y-93562293D01*
X159334510Y-94248401D01*
X159334510Y-94934509D01*
G37*
G36*
X155805954Y-88563506D02*
G01*
X155805954Y-88661521D01*
X155903969Y-88661521D01*
X156001985Y-88661521D01*
X156001985Y-88563506D01*
X156001985Y-88465490D01*
X156100000Y-88465490D01*
X156198016Y-88465490D01*
X156198016Y-88563506D01*
X156198016Y-88661521D01*
X156100000Y-88661521D01*
X156001985Y-88661521D01*
X156001985Y-88759537D01*
X156001985Y-88857552D01*
X156100000Y-88857552D01*
X156198016Y-88857552D01*
X156198016Y-88759537D01*
X156198016Y-88661521D01*
X156296031Y-88661521D01*
X156394047Y-88661521D01*
X156394047Y-88759537D01*
X156394047Y-88857552D01*
X156394047Y-89053583D01*
X156492062Y-89053583D01*
X156590077Y-89053583D01*
X156590077Y-88857552D01*
X156590077Y-88661521D01*
X156786108Y-88661521D01*
X156982139Y-88661521D01*
X156982139Y-88759537D01*
X156982139Y-88857552D01*
X156884124Y-88857552D01*
X156786108Y-88857552D01*
X156786108Y-89053583D01*
X156786108Y-89249614D01*
X156688093Y-89249614D01*
X156590077Y-89249614D01*
X156590077Y-89347629D01*
X156590077Y-89445645D01*
X156492062Y-89445645D01*
X156394047Y-89445645D01*
X156394047Y-89543660D01*
X156394047Y-89641676D01*
X156296031Y-89641676D01*
X156198016Y-89641676D01*
X156198016Y-89739691D01*
X156198016Y-89837706D01*
X156100000Y-89837706D01*
X156001985Y-89837706D01*
X156001985Y-89543660D01*
X156001985Y-89249614D01*
X155903969Y-89249614D01*
X155805954Y-89249614D01*
X155805954Y-89151598D01*
X155805954Y-89053583D01*
X155903969Y-89053583D01*
X156001985Y-89053583D01*
X156001985Y-89151598D01*
X156001985Y-89249614D01*
X156100000Y-89249614D01*
X156198016Y-89249614D01*
X156198016Y-89151598D01*
X156198016Y-89053583D01*
X156100000Y-89053583D01*
X156001985Y-89053583D01*
X156001985Y-88955568D01*
X156001985Y-88857552D01*
X155903969Y-88857552D01*
X155805954Y-88857552D01*
X155805954Y-88759537D01*
X155805954Y-88661521D01*
X155707938Y-88661521D01*
X155609923Y-88661521D01*
X155609923Y-88857552D01*
X155609923Y-89053583D01*
X155511908Y-89053583D01*
X155413892Y-89053583D01*
X155413892Y-88955568D01*
X155413892Y-88857552D01*
X155315877Y-88857552D01*
X155217861Y-88857552D01*
X155217861Y-88759537D01*
X155217861Y-88661521D01*
X155119846Y-88661521D01*
X155021830Y-88661521D01*
X155021830Y-88563506D01*
X155021830Y-88465490D01*
X155413892Y-88465490D01*
X155805954Y-88465490D01*
X155805954Y-88563506D01*
G37*
G36*
X156492062Y-89641676D02*
G01*
X156590077Y-89641676D01*
X156590077Y-89739691D01*
X156590077Y-89837706D01*
X156492062Y-89837706D01*
X156394047Y-89837706D01*
X156394047Y-89739691D01*
X156394047Y-89641676D01*
X156492062Y-89641676D01*
G37*
G36*
X154825800Y-92386108D02*
G01*
X154825800Y-92582139D01*
X154727784Y-92582139D01*
X154629769Y-92582139D01*
X154629769Y-92484123D01*
X154629769Y-92386108D01*
X154531753Y-92386108D01*
X154433738Y-92386108D01*
X154433738Y-92582139D01*
X154433738Y-92778170D01*
X154237707Y-92778170D01*
X154041676Y-92778170D01*
X154041676Y-92876185D01*
X154041676Y-92974200D01*
X154139692Y-92974200D01*
X154237707Y-92974200D01*
X154237707Y-93072216D01*
X154237707Y-93170231D01*
X154433738Y-93170231D01*
X154629769Y-93170231D01*
X154629769Y-93366262D01*
X154629769Y-93562293D01*
X154727784Y-93562293D01*
X154825800Y-93562293D01*
X154825800Y-93268247D01*
X154825800Y-92974200D01*
X155021830Y-92974200D01*
X155217861Y-92974200D01*
X155217861Y-93072216D01*
X155217861Y-93170231D01*
X155119846Y-93170231D01*
X155021830Y-93170231D01*
X155021830Y-93562293D01*
X155021830Y-93660308D01*
X155021830Y-93954355D01*
X154923815Y-93954355D01*
X154825800Y-93954355D01*
X154825800Y-93856339D01*
X154825800Y-93758324D01*
X154727784Y-93758324D01*
X154629769Y-93758324D01*
X154629769Y-93954355D01*
X154629769Y-94150386D01*
X154727784Y-94150386D01*
X154825800Y-94150386D01*
X154825800Y-94248401D01*
X154825800Y-94346417D01*
X154531753Y-94346417D01*
X154237707Y-94346417D01*
X154237707Y-94248401D01*
X154237707Y-94150386D01*
X154139692Y-94150386D01*
X154041676Y-94150386D01*
X154041676Y-94444432D01*
X154041676Y-94738478D01*
X153845645Y-94738478D01*
X153649614Y-94738478D01*
X153649614Y-94836494D01*
X153649614Y-94934509D01*
X153551599Y-94934509D01*
X153453583Y-94934509D01*
X153453583Y-94738478D01*
X153453583Y-94542447D01*
X153355568Y-94542447D01*
X153257553Y-94542447D01*
X153257553Y-94444432D01*
X153257553Y-94346417D01*
X153355568Y-94346417D01*
X153453583Y-94346417D01*
X153453583Y-94444432D01*
X153453583Y-94542447D01*
X153551599Y-94542447D01*
X153649614Y-94542447D01*
X153649614Y-94444432D01*
X153649614Y-94346417D01*
X153551599Y-94346417D01*
X153453583Y-94346417D01*
X153453583Y-94248401D01*
X153453583Y-94150386D01*
X153551599Y-94150386D01*
X153649614Y-94150386D01*
X153649614Y-94248401D01*
X153649614Y-94346417D01*
X153747630Y-94346417D01*
X153845645Y-94346417D01*
X153845645Y-94248401D01*
X153845645Y-94150386D01*
X153747630Y-94150386D01*
X153649614Y-94150386D01*
X153649614Y-94052370D01*
X153649614Y-93954355D01*
X153453583Y-93954355D01*
X153257553Y-93954355D01*
X153257553Y-94052370D01*
X153257553Y-94150386D01*
X153061522Y-94150386D01*
X152865491Y-94150386D01*
X152865491Y-94052370D01*
X152865491Y-93954355D01*
X152963506Y-93954355D01*
X153061522Y-93954355D01*
X153061522Y-93856339D01*
X153061522Y-93758324D01*
X153159537Y-93758324D01*
X153257553Y-93758324D01*
X153257553Y-93660308D01*
X153257553Y-93562293D01*
X153355568Y-93562293D01*
X153453583Y-93562293D01*
X153453583Y-93660308D01*
X153453583Y-93758324D01*
X153551599Y-93758324D01*
X153649614Y-93758324D01*
X153649614Y-93464278D01*
X153649614Y-93366262D01*
X153845645Y-93366262D01*
X153845645Y-93660308D01*
X153845645Y-93954355D01*
X154139692Y-93954355D01*
X154433738Y-93954355D01*
X154433738Y-93660308D01*
X154433738Y-93366262D01*
X154139692Y-93366262D01*
X153845645Y-93366262D01*
X153649614Y-93366262D01*
X153649614Y-93170231D01*
X153551599Y-93170231D01*
X153453583Y-93170231D01*
X153453583Y-93072216D01*
X153453583Y-92974200D01*
X153355568Y-92974200D01*
X153257553Y-92974200D01*
X153257553Y-93268247D01*
X153257553Y-93562293D01*
X153061522Y-93562293D01*
X152865491Y-93562293D01*
X152865491Y-93464278D01*
X152865491Y-93366262D01*
X152963506Y-93366262D01*
X153061522Y-93366262D01*
X153061522Y-93268247D01*
X153061522Y-93170231D01*
X152963506Y-93170231D01*
X152865491Y-93170231D01*
X152865491Y-93072216D01*
X152865491Y-92974200D01*
X152963506Y-92974200D01*
X153061522Y-92974200D01*
X153061522Y-92876185D01*
X153061522Y-92778170D01*
X152963506Y-92778170D01*
X152865491Y-92778170D01*
X152865491Y-92680154D01*
X152865491Y-92582139D01*
X152963506Y-92582139D01*
X153061522Y-92582139D01*
X153061522Y-92680154D01*
X153061522Y-92778170D01*
X153257553Y-92778170D01*
X153453583Y-92778170D01*
X153453583Y-92876185D01*
X153453583Y-92974200D01*
X153551599Y-92974200D01*
X153649614Y-92974200D01*
X153649614Y-92876185D01*
X153649614Y-92778170D01*
X153551599Y-92778170D01*
X153453583Y-92778170D01*
X153453583Y-92680154D01*
X153453583Y-92582139D01*
X153551599Y-92582139D01*
X153649614Y-92582139D01*
X153649614Y-92190077D01*
X153845645Y-92190077D01*
X153845645Y-92288092D01*
X153845645Y-92386108D01*
X153943661Y-92386108D01*
X154041676Y-92386108D01*
X154041676Y-92288092D01*
X154041676Y-92190077D01*
X153943661Y-92190077D01*
X153845645Y-92190077D01*
X153649614Y-92190077D01*
X153649614Y-92092062D01*
X154041676Y-92092062D01*
X154041676Y-92190077D01*
X154139692Y-92190077D01*
X154237707Y-92190077D01*
X154237707Y-92092062D01*
X154237707Y-91994046D01*
X154139692Y-91994046D01*
X154041676Y-91994046D01*
X154041676Y-92092062D01*
X153649614Y-92092062D01*
X153649614Y-91896031D01*
X153845645Y-91896031D01*
X153845645Y-91994046D01*
X153943661Y-91994046D01*
X154041676Y-91994046D01*
X154041676Y-91896031D01*
X154041676Y-91798015D01*
X153943661Y-91798015D01*
X153845645Y-91798015D01*
X153845645Y-91896031D01*
X153649614Y-91896031D01*
X153649614Y-91798015D01*
X153747630Y-91798015D01*
X153845645Y-91798015D01*
X153845645Y-91700000D01*
X153845645Y-91601984D01*
X154041676Y-91601984D01*
X154237707Y-91601984D01*
X154237707Y-91700000D01*
X154237707Y-91798015D01*
X154335722Y-91798015D01*
X154433738Y-91798015D01*
X154433738Y-91700000D01*
X154433738Y-91601984D01*
X154531753Y-91601984D01*
X154629769Y-91601984D01*
X154629769Y-91896031D01*
X154629769Y-92190077D01*
X154727784Y-92190077D01*
X154825800Y-92190077D01*
X154825800Y-92288092D01*
X154825800Y-92386108D01*
G37*
G36*
X155413892Y-94444432D02*
G01*
X155413892Y-94738478D01*
X155315877Y-94738478D01*
X155217861Y-94738478D01*
X155217861Y-94836494D01*
X155217861Y-94934509D01*
X154727784Y-94934509D01*
X154237707Y-94934509D01*
X154237707Y-94738478D01*
X154237707Y-94542447D01*
X154531753Y-94542447D01*
X154825800Y-94542447D01*
X155021830Y-94542447D01*
X155021830Y-94738478D01*
X155119846Y-94738478D01*
X155217861Y-94738478D01*
X155217861Y-94542447D01*
X155217861Y-94346417D01*
X155119846Y-94346417D01*
X155021830Y-94346417D01*
X155021830Y-94542447D01*
X154825800Y-94542447D01*
X154825800Y-94444432D01*
X154825800Y-94346417D01*
X154923815Y-94346417D01*
X155021830Y-94346417D01*
X155021830Y-94248401D01*
X155021830Y-94150386D01*
X155217861Y-94150386D01*
X155413892Y-94150386D01*
X155413892Y-94444432D01*
G37*
G36*
X155021830Y-89837706D02*
G01*
X155021830Y-90033737D01*
X155119846Y-90033737D01*
X155217861Y-90033737D01*
X155217861Y-89837706D01*
X155217861Y-89641676D01*
X155315877Y-89641676D01*
X155413892Y-89641676D01*
X155413892Y-89837706D01*
X155413892Y-89935722D01*
X155413892Y-90131753D01*
X155413892Y-90229768D01*
X155511908Y-90229768D01*
X155609923Y-90229768D01*
X155609923Y-89935722D01*
X155609923Y-89641676D01*
X155707938Y-89641676D01*
X155805954Y-89641676D01*
X155805954Y-89837706D01*
X155805954Y-90033737D01*
X155903969Y-90033737D01*
X156001985Y-90033737D01*
X156001985Y-90131753D01*
X156001985Y-90229768D01*
X156198016Y-90229768D01*
X156394047Y-90229768D01*
X156394047Y-90131753D01*
X156394047Y-90033737D01*
X156492062Y-90033737D01*
X156590077Y-90033737D01*
X156590077Y-90131753D01*
X156590077Y-90229768D01*
X156786108Y-90229768D01*
X156982139Y-90229768D01*
X156982139Y-90131753D01*
X156982139Y-90033737D01*
X156884124Y-90033737D01*
X156786108Y-90033737D01*
X156786108Y-89837706D01*
X156786108Y-89641676D01*
X156884124Y-89641676D01*
X156982139Y-89641676D01*
X156982139Y-89739691D01*
X156982139Y-89837706D01*
X157080155Y-89837706D01*
X157178170Y-89837706D01*
X157178170Y-90033737D01*
X157178170Y-90229768D01*
X157276185Y-90229768D01*
X157374201Y-90229768D01*
X157374201Y-90033737D01*
X157374201Y-89837706D01*
X157276185Y-89837706D01*
X157178170Y-89837706D01*
X157178170Y-89543660D01*
X157178170Y-89249614D01*
X157080155Y-89249614D01*
X156982139Y-89249614D01*
X156982139Y-89151598D01*
X156982139Y-89053583D01*
X157080155Y-89053583D01*
X157178170Y-89053583D01*
X157178170Y-89151598D01*
X157178170Y-89249614D01*
X157276185Y-89249614D01*
X157374201Y-89249614D01*
X157374201Y-89151598D01*
X157374201Y-89053583D01*
X157472216Y-89053583D01*
X157570232Y-89053583D01*
X157570232Y-88857552D01*
X157570232Y-88661521D01*
X157668247Y-88661521D01*
X157766263Y-88661521D01*
X157766263Y-88955568D01*
X157766263Y-89249614D01*
X157668247Y-89249614D01*
X157570232Y-89249614D01*
X157570232Y-89347629D01*
X157570232Y-89445645D01*
X157472216Y-89445645D01*
X157374201Y-89445645D01*
X157374201Y-89641676D01*
X157374201Y-89837706D01*
X157472216Y-89837706D01*
X157570232Y-89837706D01*
X157570232Y-89641676D01*
X157570232Y-89445645D01*
X157668247Y-89445645D01*
X157766263Y-89445645D01*
X157766263Y-89641676D01*
X157766263Y-89837706D01*
X157668247Y-89837706D01*
X157570232Y-89837706D01*
X157570232Y-90033737D01*
X157570232Y-90229768D01*
X157668247Y-90229768D01*
X157766263Y-90229768D01*
X157766263Y-90327784D01*
X157766263Y-90425799D01*
X157570232Y-90425799D01*
X157374201Y-90425799D01*
X157374201Y-90523815D01*
X157374201Y-90621830D01*
X157570232Y-90621830D01*
X157766263Y-90621830D01*
X157766263Y-90719845D01*
X157766263Y-90817861D01*
X157472216Y-90817861D01*
X157178170Y-90817861D01*
X157178170Y-90719845D01*
X157178170Y-90621830D01*
X156786108Y-90621830D01*
X156394047Y-90621830D01*
X156394047Y-90719845D01*
X156394047Y-90817861D01*
X156492062Y-90817861D01*
X156590077Y-90817861D01*
X156590077Y-90915876D01*
X156590077Y-91013892D01*
X156492062Y-91013892D01*
X156394047Y-91013892D01*
X156394047Y-91111907D01*
X156394047Y-91209923D01*
X156492062Y-91209923D01*
X156590077Y-91209923D01*
X156590077Y-91307938D01*
X156590077Y-91405953D01*
X156884124Y-91405953D01*
X157178170Y-91405953D01*
X157178170Y-91209923D01*
X157178170Y-91013892D01*
X157374201Y-91013892D01*
X157570232Y-91013892D01*
X157570232Y-91111907D01*
X157570232Y-91209923D01*
X157472216Y-91209923D01*
X157374201Y-91209923D01*
X157374201Y-91601984D01*
X157374201Y-91798015D01*
X157374201Y-91994046D01*
X157472216Y-91994046D01*
X157570232Y-91994046D01*
X157570232Y-92092062D01*
X157570232Y-92190077D01*
X157668247Y-92190077D01*
X157766263Y-92190077D01*
X157766263Y-92288092D01*
X157766263Y-92386108D01*
X157962294Y-92386108D01*
X158158324Y-92386108D01*
X158158324Y-92288092D01*
X158158324Y-92190077D01*
X157962294Y-92190077D01*
X157766263Y-92190077D01*
X157766263Y-92092062D01*
X157766263Y-91994046D01*
X157668247Y-91994046D01*
X157570232Y-91994046D01*
X157570232Y-91896031D01*
X157570232Y-91798015D01*
X157766263Y-91798015D01*
X157962294Y-91798015D01*
X157962294Y-91896031D01*
X157962294Y-91994046D01*
X158158324Y-91994046D01*
X158354355Y-91994046D01*
X158354355Y-92092062D01*
X158354355Y-92190077D01*
X158550386Y-92190077D01*
X158746417Y-92190077D01*
X158746417Y-92092062D01*
X158746417Y-91994046D01*
X158844432Y-91994046D01*
X158942448Y-91994046D01*
X158942448Y-92288092D01*
X158942448Y-92582139D01*
X158746417Y-92582139D01*
X158550386Y-92582139D01*
X158550386Y-92484123D01*
X158550386Y-92386108D01*
X158452371Y-92386108D01*
X158354355Y-92386108D01*
X158354355Y-92680154D01*
X158354355Y-92974200D01*
X158452371Y-92974200D01*
X158550386Y-92974200D01*
X158550386Y-92876185D01*
X158550386Y-92778170D01*
X158746417Y-92778170D01*
X158942448Y-92778170D01*
X158942448Y-92876185D01*
X158942448Y-92974200D01*
X158746417Y-92974200D01*
X158550386Y-92974200D01*
X158550386Y-93170231D01*
X158550386Y-93366262D01*
X158060309Y-93366262D01*
X157570232Y-93366262D01*
X157570232Y-93268247D01*
X157570232Y-93170231D01*
X157374201Y-93170231D01*
X157178170Y-93170231D01*
X157178170Y-93072216D01*
X157178170Y-92974200D01*
X157374201Y-92974200D01*
X157570232Y-92974200D01*
X157570232Y-92778170D01*
X157570232Y-92582139D01*
X157668247Y-92582139D01*
X157766263Y-92582139D01*
X157766263Y-92876185D01*
X157766263Y-93170231D01*
X158060309Y-93170231D01*
X158354355Y-93170231D01*
X158354355Y-93072216D01*
X158354355Y-92974200D01*
X158158324Y-92974200D01*
X157962294Y-92974200D01*
X157962294Y-92876185D01*
X157962294Y-92778170D01*
X158060309Y-92778170D01*
X158158324Y-92778170D01*
X158158324Y-92680154D01*
X158158324Y-92582139D01*
X157962294Y-92582139D01*
X157766263Y-92582139D01*
X157766263Y-92484123D01*
X157766263Y-92386108D01*
X157570232Y-92386108D01*
X157374201Y-92386108D01*
X157374201Y-92288092D01*
X157374201Y-92190077D01*
X157276185Y-92190077D01*
X157178170Y-92190077D01*
X157178170Y-92288092D01*
X157178170Y-92386108D01*
X156688093Y-92386108D01*
X156198016Y-92386108D01*
X156198016Y-92484123D01*
X156198016Y-92582139D01*
X156492062Y-92582139D01*
X156786108Y-92582139D01*
X156786108Y-92680154D01*
X156786108Y-92778170D01*
X156884124Y-92778170D01*
X156982139Y-92778170D01*
X156982139Y-93072216D01*
X156982139Y-93366262D01*
X156884124Y-93366262D01*
X156786108Y-93366262D01*
X156786108Y-93170231D01*
X156786108Y-92974200D01*
X156688093Y-92974200D01*
X156590077Y-92974200D01*
X156590077Y-92876185D01*
X156590077Y-92778170D01*
X156394047Y-92778170D01*
X156198016Y-92778170D01*
X156198016Y-92876185D01*
X156198016Y-92974200D01*
X156296031Y-92974200D01*
X156394047Y-92974200D01*
X156394047Y-93268247D01*
X156394047Y-93562293D01*
X156492062Y-93562293D01*
X156590077Y-93562293D01*
X156590077Y-93660308D01*
X156590077Y-93758324D01*
X156688093Y-93758324D01*
X156786108Y-93758324D01*
X156786108Y-93856339D01*
X156786108Y-93954355D01*
X156884124Y-93954355D01*
X156982139Y-93954355D01*
X156982139Y-94052370D01*
X156982139Y-94150386D01*
X157080155Y-94150386D01*
X157178170Y-94150386D01*
X157178170Y-94052370D01*
X157178170Y-93954355D01*
X157080155Y-93954355D01*
X156982139Y-93954355D01*
X156982139Y-93758324D01*
X156982139Y-93562293D01*
X157276185Y-93562293D01*
X157570232Y-93562293D01*
X157570232Y-93758324D01*
X157570232Y-93954355D01*
X157472216Y-93954355D01*
X157374201Y-93954355D01*
X157374201Y-94052370D01*
X157374201Y-94150386D01*
X157472216Y-94150386D01*
X157570232Y-94150386D01*
X157570232Y-94248401D01*
X157570232Y-94346417D01*
X157668247Y-94346417D01*
X157766263Y-94346417D01*
X157766263Y-94542447D01*
X157766263Y-94738478D01*
X157668247Y-94738478D01*
X157570232Y-94738478D01*
X157570232Y-94836494D01*
X157570232Y-94934509D01*
X157178170Y-94934509D01*
X156786108Y-94934509D01*
X156786108Y-94836494D01*
X156786108Y-94738478D01*
X156688093Y-94738478D01*
X156590077Y-94738478D01*
X156590077Y-94640463D01*
X156590077Y-94542447D01*
X156786108Y-94542447D01*
X156982139Y-94542447D01*
X156982139Y-94640463D01*
X156982139Y-94738478D01*
X157080155Y-94738478D01*
X157178170Y-94738478D01*
X157178170Y-94640463D01*
X157178170Y-94542447D01*
X157276185Y-94542447D01*
X157374201Y-94542447D01*
X157374201Y-94640463D01*
X157374201Y-94738478D01*
X157472216Y-94738478D01*
X157570232Y-94738478D01*
X157570232Y-94640463D01*
X157570232Y-94542447D01*
X157472216Y-94542447D01*
X157374201Y-94542447D01*
X157374201Y-94444432D01*
X157374201Y-94346417D01*
X156982139Y-94346417D01*
X156590077Y-94346417D01*
X156590077Y-94444432D01*
X156590077Y-94542447D01*
X156296031Y-94542447D01*
X156001985Y-94542447D01*
X156001985Y-94738478D01*
X156001985Y-94934509D01*
X155903969Y-94934509D01*
X155805954Y-94934509D01*
X155805954Y-94836494D01*
X155805954Y-94738478D01*
X155707938Y-94738478D01*
X155609923Y-94738478D01*
X155609923Y-94542447D01*
X155609923Y-94346417D01*
X155707938Y-94346417D01*
X155805954Y-94346417D01*
X155805954Y-94444432D01*
X155805954Y-94542447D01*
X155903969Y-94542447D01*
X156001985Y-94542447D01*
X156001985Y-94444432D01*
X156001985Y-94346417D01*
X155903969Y-94346417D01*
X155805954Y-94346417D01*
X155805954Y-94248401D01*
X155805954Y-94150386D01*
X155609923Y-94150386D01*
X155413892Y-94150386D01*
X155413892Y-94052370D01*
X156198016Y-94052370D01*
X156198016Y-94150386D01*
X156296031Y-94150386D01*
X156394047Y-94150386D01*
X156394047Y-94248401D01*
X156394047Y-94346417D01*
X156492062Y-94346417D01*
X156590077Y-94346417D01*
X156590077Y-94248401D01*
X156590077Y-94150386D01*
X156688093Y-94150386D01*
X156786108Y-94150386D01*
X156786108Y-94052370D01*
X156786108Y-93954355D01*
X156492062Y-93954355D01*
X156198016Y-93954355D01*
X156198016Y-94052370D01*
X155413892Y-94052370D01*
X155413892Y-93954355D01*
X155511908Y-93954355D01*
X155609923Y-93954355D01*
X155609923Y-93856339D01*
X155805954Y-93856339D01*
X155805954Y-93954355D01*
X156001985Y-93954355D01*
X156198016Y-93954355D01*
X156198016Y-93856339D01*
X156198016Y-93758324D01*
X156001985Y-93758324D01*
X155805954Y-93758324D01*
X155805954Y-93856339D01*
X155609923Y-93856339D01*
X155609923Y-93758324D01*
X155511908Y-93758324D01*
X155413892Y-93758324D01*
X155413892Y-93366262D01*
X155413892Y-92974200D01*
X155511908Y-92974200D01*
X155609923Y-92974200D01*
X155609923Y-93072216D01*
X155609923Y-93170231D01*
X155707938Y-93170231D01*
X155805954Y-93170231D01*
X156001985Y-93170231D01*
X156001985Y-93268247D01*
X156001985Y-93366262D01*
X156100000Y-93366262D01*
X156198016Y-93366262D01*
X156198016Y-93268247D01*
X156198016Y-93170231D01*
X156100000Y-93170231D01*
X156001985Y-93170231D01*
X155805954Y-93170231D01*
X155805954Y-93072216D01*
X155805954Y-92974200D01*
X155707938Y-92974200D01*
X155609923Y-92974200D01*
X155609923Y-92876185D01*
X155609923Y-92778170D01*
X155805954Y-92778170D01*
X156001985Y-92778170D01*
X156001985Y-92680154D01*
X156001985Y-92582139D01*
X155805954Y-92582139D01*
X155609923Y-92582139D01*
X155609923Y-92484123D01*
X155609923Y-92386108D01*
X155707938Y-92386108D01*
X155805954Y-92386108D01*
X155805954Y-92190077D01*
X155805954Y-91994046D01*
X155707938Y-91994046D01*
X155609923Y-91994046D01*
X155609923Y-92190077D01*
X155609923Y-92386108D01*
X155511908Y-92386108D01*
X155413892Y-92386108D01*
X155413892Y-91994046D01*
X155413892Y-91601984D01*
X155315877Y-91601984D01*
X155217861Y-91601984D01*
X155217861Y-91209923D01*
X155413892Y-91209923D01*
X155413892Y-91307938D01*
X155413892Y-91405953D01*
X155511908Y-91405953D01*
X155609923Y-91405953D01*
X155609923Y-91601984D01*
X155609923Y-91798015D01*
X155707938Y-91798015D01*
X155805954Y-91798015D01*
X155805954Y-91601984D01*
X156001985Y-91601984D01*
X156001985Y-91700000D01*
X156001985Y-91798015D01*
X156100000Y-91798015D01*
X156198016Y-91798015D01*
X156198016Y-91896031D01*
X156198016Y-91994046D01*
X156100000Y-91994046D01*
X156001985Y-91994046D01*
X156001985Y-92190077D01*
X156001985Y-92386108D01*
X156100000Y-92386108D01*
X156198016Y-92386108D01*
X156198016Y-92288092D01*
X156198016Y-92190077D01*
X156492062Y-92190077D01*
X156786108Y-92190077D01*
X156786108Y-92092062D01*
X156786108Y-91994046D01*
X156982139Y-91994046D01*
X157178170Y-91994046D01*
X157178170Y-91798015D01*
X157178170Y-91601984D01*
X156982139Y-91601984D01*
X156786108Y-91601984D01*
X156786108Y-91798015D01*
X156786108Y-91994046D01*
X156688093Y-91994046D01*
X156590077Y-91994046D01*
X156590077Y-91896031D01*
X156590077Y-91798015D01*
X156492062Y-91798015D01*
X156394047Y-91798015D01*
X156394047Y-91700000D01*
X156394047Y-91601984D01*
X156198016Y-91601984D01*
X156001985Y-91601984D01*
X155805954Y-91601984D01*
X155805954Y-91405953D01*
X155707938Y-91405953D01*
X155609923Y-91405953D01*
X155609923Y-91307938D01*
X155609923Y-91209923D01*
X155511908Y-91209923D01*
X155413892Y-91209923D01*
X155217861Y-91209923D01*
X155217861Y-90817861D01*
X155315877Y-90817861D01*
X155413892Y-90817861D01*
X155413892Y-90719845D01*
X155413892Y-90621830D01*
X155315877Y-90621830D01*
X155217861Y-90621830D01*
X155217861Y-90523815D01*
X155217861Y-90425799D01*
X155119846Y-90425799D01*
X155021830Y-90425799D01*
X155021830Y-90523815D01*
X155021830Y-90621830D01*
X154923815Y-90621830D01*
X154825800Y-90621830D01*
X154825800Y-90719845D01*
X154825800Y-90915876D01*
X154825800Y-91209923D01*
X154433738Y-91209923D01*
X154041676Y-91209923D01*
X154041676Y-91111907D01*
X154041676Y-91013892D01*
X153943661Y-91013892D01*
X153845645Y-91013892D01*
X153845645Y-91111907D01*
X153845645Y-91209923D01*
X153747630Y-91209923D01*
X153649614Y-91209923D01*
X153649614Y-91307938D01*
X153649614Y-91405953D01*
X153551599Y-91405953D01*
X153453583Y-91405953D01*
X153453583Y-91503969D01*
X153453583Y-91601984D01*
X153355568Y-91601984D01*
X153257553Y-91601984D01*
X153257553Y-91798015D01*
X153257553Y-91994046D01*
X153159537Y-91994046D01*
X153061522Y-91994046D01*
X153061522Y-91798015D01*
X153061522Y-91601984D01*
X152963506Y-91601984D01*
X152865491Y-91601984D01*
X152865491Y-91503969D01*
X152865491Y-91405953D01*
X152963506Y-91405953D01*
X153061522Y-91405953D01*
X153061522Y-91307938D01*
X153061522Y-91209923D01*
X153159537Y-91209923D01*
X153257553Y-91209923D01*
X153257553Y-91307938D01*
X153257553Y-91405953D01*
X153355568Y-91405953D01*
X153453583Y-91405953D01*
X153453583Y-91111907D01*
X153453583Y-90817861D01*
X153355568Y-90817861D01*
X153257553Y-90817861D01*
X153257553Y-90915876D01*
X153257553Y-91013892D01*
X153061522Y-91013892D01*
X152865491Y-91013892D01*
X152865491Y-90817861D01*
X152865491Y-90621830D01*
X152963506Y-90621830D01*
X153061522Y-90621830D01*
X153061522Y-90719845D01*
X153061522Y-90817861D01*
X153159537Y-90817861D01*
X153257553Y-90817861D01*
X153257553Y-90719845D01*
X153257553Y-90621830D01*
X153159537Y-90621830D01*
X153061522Y-90621830D01*
X153061522Y-90523815D01*
X153061522Y-90425799D01*
X153159537Y-90425799D01*
X153257553Y-90425799D01*
X153257553Y-90523815D01*
X153257553Y-90621830D01*
X153355568Y-90621830D01*
X153453583Y-90621830D01*
X153453583Y-90523815D01*
X153453583Y-90425799D01*
X153551599Y-90425799D01*
X153649614Y-90425799D01*
X153649614Y-90621830D01*
X153649614Y-90817861D01*
X153747630Y-90817861D01*
X153845645Y-90817861D01*
X154041676Y-90817861D01*
X154041676Y-90915876D01*
X154041676Y-91013892D01*
X154139692Y-91013892D01*
X154237707Y-91013892D01*
X154237707Y-90915876D01*
X154237707Y-90817861D01*
X154139692Y-90817861D01*
X154041676Y-90817861D01*
X153845645Y-90817861D01*
X153845645Y-90621830D01*
X154237707Y-90621830D01*
X154237707Y-90719845D01*
X154237707Y-90817861D01*
X154335722Y-90817861D01*
X154433738Y-90817861D01*
X154433738Y-90719845D01*
X154433738Y-90621830D01*
X154335722Y-90621830D01*
X154237707Y-90621830D01*
X153845645Y-90621830D01*
X153845645Y-90425799D01*
X153845645Y-90033737D01*
X153943661Y-90033737D01*
X154041676Y-90033737D01*
X154041676Y-90229768D01*
X154041676Y-90425799D01*
X154237707Y-90425799D01*
X154433738Y-90425799D01*
X154433738Y-90523815D01*
X154433738Y-90621830D01*
X154629769Y-90621830D01*
X154825800Y-90621830D01*
X154825800Y-90523815D01*
X154825800Y-90425799D01*
X154727784Y-90425799D01*
X154629769Y-90425799D01*
X154629769Y-90131753D01*
X154629769Y-90033737D01*
X154825800Y-90033737D01*
X154825800Y-90131753D01*
X154825800Y-90229768D01*
X154923815Y-90229768D01*
X155021830Y-90229768D01*
X155217861Y-90229768D01*
X155217861Y-90327784D01*
X155217861Y-90425799D01*
X155315877Y-90425799D01*
X155413892Y-90425799D01*
X155609923Y-90425799D01*
X155609923Y-90817861D01*
X155609923Y-91209923D01*
X155707938Y-91209923D01*
X155805954Y-91209923D01*
X155805954Y-91111907D01*
X155805954Y-91013892D01*
X155903969Y-91013892D01*
X156001985Y-91013892D01*
X156001985Y-91209923D01*
X156001985Y-91405953D01*
X156100000Y-91405953D01*
X156198016Y-91405953D01*
X156198016Y-91209923D01*
X156198016Y-91013892D01*
X156100000Y-91013892D01*
X156001985Y-91013892D01*
X156001985Y-90915876D01*
X156001985Y-90817861D01*
X155903969Y-90817861D01*
X155805954Y-90817861D01*
X155805954Y-90719845D01*
X155805954Y-90621830D01*
X156001985Y-90621830D01*
X156198016Y-90621830D01*
X156198016Y-90523815D01*
X156198016Y-90425799D01*
X156394047Y-90425799D01*
X156492062Y-90425799D01*
X156590077Y-90425799D01*
X156590077Y-90327784D01*
X156590077Y-90229768D01*
X156492062Y-90229768D01*
X156394047Y-90229768D01*
X156394047Y-90327784D01*
X156394047Y-90425799D01*
X156198016Y-90425799D01*
X155903969Y-90425799D01*
X155609923Y-90425799D01*
X155413892Y-90425799D01*
X155413892Y-90327784D01*
X155413892Y-90229768D01*
X155315877Y-90229768D01*
X155217861Y-90229768D01*
X155021830Y-90229768D01*
X155021830Y-90131753D01*
X155021830Y-90033737D01*
X154923815Y-90033737D01*
X154825800Y-90033737D01*
X154629769Y-90033737D01*
X154629769Y-89837706D01*
X154531753Y-89837706D01*
X154433738Y-89837706D01*
X154433738Y-89641676D01*
X154629769Y-89641676D01*
X154629769Y-89739691D01*
X154629769Y-89837706D01*
X154727784Y-89837706D01*
X154825800Y-89837706D01*
X154825800Y-89739691D01*
X154825800Y-89641676D01*
X154727784Y-89641676D01*
X154629769Y-89641676D01*
X154433738Y-89641676D01*
X154433738Y-89543660D01*
X154433738Y-89249614D01*
X154629769Y-89249614D01*
X154825800Y-89249614D01*
X154825800Y-89445645D01*
X154825800Y-89641676D01*
X154923815Y-89641676D01*
X155021830Y-89641676D01*
X155021830Y-89543660D01*
X155021830Y-89445645D01*
X155119846Y-89445645D01*
X155217861Y-89445645D01*
X155217861Y-89543660D01*
X155217861Y-89641676D01*
X155119846Y-89641676D01*
X155021830Y-89641676D01*
X155021830Y-89739691D01*
X155021830Y-89837706D01*
G37*
G36*
X159138479Y-92974200D02*
G01*
X159334510Y-92974200D01*
X159334510Y-93072216D01*
X159334510Y-93170231D01*
X159236494Y-93170231D01*
X159138479Y-93170231D01*
X159138479Y-93268247D01*
X159138479Y-93366262D01*
X158942448Y-93366262D01*
X158746417Y-93366262D01*
X158746417Y-93268247D01*
X158746417Y-93170231D01*
X158844432Y-93170231D01*
X158942448Y-93170231D01*
X158942448Y-93072216D01*
X158942448Y-92974200D01*
X159138479Y-92974200D01*
G37*
G36*
X153355568Y-91994046D02*
G01*
X153453583Y-91994046D01*
X153453583Y-92092062D01*
X153453583Y-92190077D01*
X153355568Y-92190077D01*
X153257553Y-92190077D01*
X153257553Y-92092062D01*
X153257553Y-91994046D01*
X153355568Y-91994046D01*
G37*
G36*
X158746417Y-90327784D02*
G01*
X158746417Y-90425799D01*
X158648402Y-90425799D01*
X158550386Y-90425799D01*
X158550386Y-90621830D01*
X158550386Y-90817861D01*
X158648402Y-90817861D01*
X158746417Y-90817861D01*
X158746417Y-90719845D01*
X158746417Y-90621830D01*
X158844432Y-90621830D01*
X158942448Y-90621830D01*
X158942448Y-90719845D01*
X158942448Y-90817861D01*
X158844432Y-90817861D01*
X158746417Y-90817861D01*
X158746417Y-90915876D01*
X158746417Y-91013892D01*
X158648402Y-91013892D01*
X158550386Y-91013892D01*
X158550386Y-91111907D01*
X158550386Y-91209923D01*
X158648402Y-91209923D01*
X158746417Y-91209923D01*
X158746417Y-91307938D01*
X158746417Y-91405953D01*
X158844432Y-91405953D01*
X158942448Y-91405953D01*
X158942448Y-91503969D01*
X158942448Y-91601984D01*
X159040463Y-91601984D01*
X159138479Y-91601984D01*
X159138479Y-91503969D01*
X159138479Y-91405953D01*
X159236494Y-91405953D01*
X159334510Y-91405953D01*
X159334510Y-91601984D01*
X159334510Y-91798015D01*
X159040463Y-91798015D01*
X158746417Y-91798015D01*
X158746417Y-91896031D01*
X158746417Y-91994046D01*
X158648402Y-91994046D01*
X158550386Y-91994046D01*
X158550386Y-91896031D01*
X158550386Y-91798015D01*
X158452371Y-91798015D01*
X158354355Y-91798015D01*
X158354355Y-91700000D01*
X158354355Y-91601984D01*
X158452371Y-91601984D01*
X158550386Y-91601984D01*
X158550386Y-91503969D01*
X158550386Y-91405953D01*
X158452371Y-91405953D01*
X158354355Y-91405953D01*
X158354355Y-91503969D01*
X158354355Y-91601984D01*
X158256340Y-91601984D01*
X158158324Y-91601984D01*
X158158324Y-91503969D01*
X158158324Y-91405953D01*
X158060309Y-91405953D01*
X157962294Y-91405953D01*
X157962294Y-91307938D01*
X157962294Y-91209923D01*
X158060309Y-91209923D01*
X158158324Y-91209923D01*
X158158324Y-91111907D01*
X158158324Y-91013892D01*
X158060309Y-91013892D01*
X157962294Y-91013892D01*
X157962294Y-90915876D01*
X157962294Y-90817861D01*
X158060309Y-90817861D01*
X158158324Y-90817861D01*
X158158324Y-90915876D01*
X158158324Y-91013892D01*
X158354355Y-91013892D01*
X158550386Y-91013892D01*
X158550386Y-90915876D01*
X158550386Y-90817861D01*
X158354355Y-90817861D01*
X158158324Y-90817861D01*
X158158324Y-90719845D01*
X158158324Y-90621830D01*
X158060309Y-90621830D01*
X157962294Y-90621830D01*
X157962294Y-90523815D01*
X157962294Y-90425799D01*
X158060309Y-90425799D01*
X158158324Y-90425799D01*
X158158324Y-90523815D01*
X158158324Y-90621830D01*
X158256340Y-90621830D01*
X158354355Y-90621830D01*
X158354355Y-90425799D01*
X158354355Y-90229768D01*
X158550386Y-90229768D01*
X158746417Y-90229768D01*
X158746417Y-90327784D01*
G37*
G36*
X153551599Y-91601984D02*
G01*
X153649614Y-91601984D01*
X153649614Y-91700000D01*
X153649614Y-91798015D01*
X153551599Y-91798015D01*
X153453583Y-91798015D01*
X153453583Y-91700000D01*
X153453583Y-91601984D01*
X153551599Y-91601984D01*
G37*
G36*
X157178170Y-90915876D02*
G01*
X157178170Y-91013892D01*
X157080155Y-91013892D01*
X156982139Y-91013892D01*
X156982139Y-90915876D01*
X156982139Y-90817861D01*
X157080155Y-90817861D01*
X157178170Y-90817861D01*
X157178170Y-90915876D01*
G37*
G36*
X153061522Y-90327784D02*
G01*
X153061522Y-90425799D01*
X152963506Y-90425799D01*
X152865491Y-90425799D01*
X152865491Y-90327784D01*
X152865491Y-90229768D01*
X152963506Y-90229768D01*
X153061522Y-90229768D01*
X153061522Y-90327784D01*
G37*
G36*
X157570232Y-88563506D02*
G01*
X157570232Y-88661521D01*
X157472216Y-88661521D01*
X157374201Y-88661521D01*
X157374201Y-88563506D01*
X157374201Y-88465490D01*
X157472216Y-88465490D01*
X157570232Y-88465490D01*
X157570232Y-88563506D01*
G37*
D15*
X137300000Y-84850000D02*
X139960000Y-84850000D01*
X137300000Y-86550000D02*
X139960000Y-86550000D01*
X139960000Y-86550000D02*
X139960000Y-84850000D01*
X152840000Y-109261252D02*
X152840000Y-107838748D01*
X154660000Y-109261252D02*
X154660000Y-107838748D01*
X150340000Y-109261252D02*
X150340000Y-107838748D01*
X152160000Y-109261252D02*
X152160000Y-107838748D01*
X144337836Y-93640000D02*
X144122164Y-93640000D01*
X144337836Y-94360000D02*
X144122164Y-94360000D01*
D11*
X143875000Y-90262500D02*
X146775000Y-90262500D01*
X146775000Y-93162500D02*
X143875000Y-93162500D01*
X146775000Y-90012500D02*
G75*
G02*
X146675000Y-90012500I-50000J0D01*
G01*
X146675000Y-90012500D02*
G75*
G02*
X146775000Y-90012500I50000J0D01*
G01*
D15*
X163477164Y-96340000D02*
X163692836Y-96340000D01*
X163477164Y-97060000D02*
X163692836Y-97060000D01*
X142840000Y-109261252D02*
X142840000Y-107838748D01*
X144660000Y-109261252D02*
X144660000Y-107838748D01*
X166094420Y-102190000D02*
X166375580Y-102190000D01*
X166094420Y-103210000D02*
X166375580Y-103210000D01*
X141460000Y-84995000D02*
X142260000Y-84995000D01*
X141460000Y-88115000D02*
X142260000Y-88115000D01*
X143060000Y-84995000D02*
X142260000Y-84995000D01*
X143060000Y-88115000D02*
X142260000Y-88115000D01*
X141200000Y-88395000D02*
X140720000Y-88395000D01*
X140960000Y-88065000D01*
X141200000Y-88395000D01*
G36*
X141200000Y-88395000D02*
G01*
X140720000Y-88395000D01*
X140960000Y-88065000D01*
X141200000Y-88395000D01*
G37*
X144218748Y-80075000D02*
X144741252Y-80075000D01*
X144218748Y-81545000D02*
X144741252Y-81545000D01*
%LPC*%
D17*
X131000000Y-81000000D03*
X131000000Y-119000000D03*
X169000000Y-119000000D03*
X169000000Y-81000000D03*
D18*
X142500000Y-120475000D03*
X143000000Y-120475000D03*
X143500000Y-120475000D03*
X142500000Y-120075000D03*
X143000000Y-120075000D03*
X143500000Y-120075000D03*
D19*
X141650000Y-119850000D03*
X144350000Y-119850000D03*
D18*
X142500000Y-119675000D03*
X143000000Y-119675000D03*
X143500000Y-119675000D03*
X141025000Y-119000000D03*
X141425000Y-119000000D03*
X141825000Y-119000000D03*
X144175000Y-119000000D03*
X144575000Y-119000000D03*
X144975000Y-119000000D03*
X141025000Y-118500000D03*
X141425000Y-118500000D03*
X141825000Y-118500000D03*
D20*
X143000000Y-118500000D03*
D18*
X144175000Y-118500000D03*
X144575000Y-118500000D03*
X144975000Y-118500000D03*
X141025000Y-118000000D03*
X141425000Y-118000000D03*
X141825000Y-118000000D03*
X144175000Y-118000000D03*
X144575000Y-118000000D03*
X144975000Y-118000000D03*
X142500000Y-117325000D03*
X143000000Y-117325000D03*
X143500000Y-117325000D03*
D19*
X141650000Y-117150000D03*
X144350000Y-117150000D03*
D18*
X142500000Y-116925000D03*
X143000000Y-116925000D03*
X143500000Y-116925000D03*
X142500000Y-116525000D03*
X143000000Y-116525000D03*
X143500000Y-116525000D03*
X156500000Y-120475000D03*
X157000000Y-120475000D03*
X157500000Y-120475000D03*
X156500000Y-120075000D03*
X157000000Y-120075000D03*
X157500000Y-120075000D03*
D19*
X155650000Y-119850000D03*
X158350000Y-119850000D03*
D18*
X156500000Y-119675000D03*
X157000000Y-119675000D03*
X157500000Y-119675000D03*
X155025000Y-119000000D03*
X155425000Y-119000000D03*
X155825000Y-119000000D03*
X158175000Y-119000000D03*
X158575000Y-119000000D03*
X158975000Y-119000000D03*
X155025000Y-118500000D03*
X155425000Y-118500000D03*
X155825000Y-118500000D03*
D20*
X157000000Y-118500000D03*
D18*
X158175000Y-118500000D03*
X158575000Y-118500000D03*
X158975000Y-118500000D03*
X155025000Y-118000000D03*
X155425000Y-118000000D03*
X155825000Y-118000000D03*
X158175000Y-118000000D03*
X158575000Y-118000000D03*
X158975000Y-118000000D03*
X156500000Y-117325000D03*
X157000000Y-117325000D03*
X157500000Y-117325000D03*
D19*
X155650000Y-117150000D03*
X158350000Y-117150000D03*
D18*
X156500000Y-116925000D03*
X157000000Y-116925000D03*
X157500000Y-116925000D03*
X156500000Y-116525000D03*
X157000000Y-116525000D03*
X157500000Y-116525000D03*
D21*
X129437500Y-105500000D03*
X129437500Y-94500000D03*
D22*
X139437500Y-97500000D03*
D23*
X139437500Y-102500000D03*
D24*
X154690000Y-82855000D03*
X148910000Y-82855000D03*
D25*
X156120000Y-83375000D03*
D26*
X156120000Y-79175000D03*
D25*
X147480000Y-83375000D03*
D26*
X147480000Y-79175000D03*
D27*
X155474999Y-101214999D03*
X155474999Y-102584999D03*
X156614999Y-100074999D03*
X156614999Y-101214999D03*
X156614999Y-102584999D03*
X156614999Y-103724999D03*
X157984999Y-100074999D03*
X157984999Y-101214999D03*
X157984999Y-102584999D03*
X157984999Y-103724999D03*
X159124999Y-101214999D03*
X159124999Y-102584999D03*
D18*
X149500000Y-120475000D03*
X150000000Y-120475000D03*
X150500000Y-120475000D03*
X149500000Y-120075000D03*
X150000000Y-120075000D03*
X150500000Y-120075000D03*
D19*
X148650000Y-119850000D03*
X151350000Y-119850000D03*
D18*
X149500000Y-119675000D03*
X150000000Y-119675000D03*
X150500000Y-119675000D03*
X148025000Y-119000000D03*
X148425000Y-119000000D03*
X148825000Y-119000000D03*
X151175000Y-119000000D03*
X151575000Y-119000000D03*
X151975000Y-119000000D03*
X148025000Y-118500000D03*
X148425000Y-118500000D03*
X148825000Y-118500000D03*
D20*
X150000000Y-118500000D03*
D18*
X151175000Y-118500000D03*
X151575000Y-118500000D03*
X151975000Y-118500000D03*
X148025000Y-118000000D03*
X148425000Y-118000000D03*
X148825000Y-118000000D03*
X151175000Y-118000000D03*
X151575000Y-118000000D03*
X151975000Y-118000000D03*
X149500000Y-117325000D03*
X150000000Y-117325000D03*
X150500000Y-117325000D03*
D19*
X148650000Y-117150000D03*
X151350000Y-117150000D03*
D18*
X149500000Y-116925000D03*
X150000000Y-116925000D03*
X150500000Y-116925000D03*
X149500000Y-116525000D03*
X150000000Y-116525000D03*
X150500000Y-116525000D03*
D28*
X145040000Y-87545000D03*
X145040000Y-85995000D03*
D29*
X154200000Y-79440000D03*
X152100000Y-79440000D03*
D30*
X166375000Y-88800000D03*
X167395000Y-88800000D03*
D31*
X167010000Y-101240000D03*
X165460000Y-101240000D03*
D32*
X165140000Y-96700000D03*
X166100000Y-96700000D03*
D33*
X147850000Y-92180000D03*
X147850000Y-91220000D03*
D34*
X148750000Y-107075000D03*
X148750000Y-110025000D03*
D35*
X147137500Y-101950000D03*
X147137500Y-101300000D03*
X147137500Y-100650000D03*
X147137500Y-100000000D03*
X147137500Y-99350000D03*
X147137500Y-98700000D03*
X147137500Y-98050000D03*
X152862500Y-98050000D03*
X152862500Y-98700000D03*
X152862500Y-99350000D03*
X152862500Y-100000000D03*
X152862500Y-100650000D03*
X152862500Y-101300000D03*
X152862500Y-101950000D03*
D31*
X158925000Y-97775000D03*
X157375000Y-97775000D03*
D36*
X168350000Y-90700000D03*
X168350000Y-91700000D03*
X168350000Y-92700000D03*
X168350000Y-93700000D03*
X168350000Y-94700000D03*
X168350000Y-95700000D03*
D37*
X172225000Y-89400000D03*
X172225000Y-97000000D03*
D38*
X160275000Y-88750000D03*
X160275000Y-89710000D03*
D33*
X154400000Y-101180000D03*
X154400000Y-100220000D03*
D39*
X153960000Y-82100000D03*
X152940000Y-82100000D03*
D31*
X139005000Y-87480000D03*
X137455000Y-87480000D03*
D39*
X150735000Y-82550000D03*
X149715000Y-82550000D03*
D30*
X143740000Y-89425000D03*
X144760000Y-89425000D03*
D34*
X146250000Y-107075000D03*
X146250000Y-110025000D03*
D33*
X150000000Y-79960000D03*
X150000000Y-79000000D03*
D40*
X166970000Y-106627500D03*
X166020000Y-106627500D03*
X165070000Y-106627500D03*
X165070000Y-104352500D03*
X166970000Y-104352500D03*
D39*
X161880000Y-96700000D03*
X160860000Y-96700000D03*
D28*
X163575000Y-106825000D03*
X163575000Y-105275000D03*
D41*
X148100000Y-87000000D03*
X149750000Y-87000000D03*
D42*
X149755000Y-85520000D03*
X148105000Y-85520000D03*
D30*
X130590000Y-97850000D03*
X131610000Y-97850000D03*
D33*
X167425000Y-97680000D03*
X167425000Y-96720000D03*
D39*
X131610000Y-98900000D03*
X130590000Y-98900000D03*
D38*
X161250000Y-88750000D03*
X161250000Y-89710000D03*
D32*
X168670000Y-88250000D03*
X169630000Y-88250000D03*
D43*
X137400000Y-92275000D03*
X137400000Y-93925000D03*
D33*
X151000000Y-79960000D03*
X151000000Y-79000000D03*
D28*
X146500000Y-87550000D03*
X146500000Y-86000000D03*
D44*
X145430000Y-78835000D03*
X143530000Y-78835000D03*
D33*
X157445000Y-96610000D03*
X157445000Y-95650000D03*
D45*
X134500000Y-97850000D03*
X134500000Y-102150000D03*
D34*
X156250000Y-107075000D03*
X156250000Y-110025000D03*
D29*
X139400000Y-85700000D03*
X137300000Y-85700000D03*
D34*
X153750000Y-107075000D03*
X153750000Y-110025000D03*
X151250000Y-107075000D03*
X151250000Y-110025000D03*
D32*
X143750000Y-94000000D03*
X144710000Y-94000000D03*
D46*
X146725000Y-90737500D03*
X146725000Y-91387500D03*
D47*
X145325000Y-91712500D03*
D46*
X146725000Y-92037500D03*
X146725000Y-92687500D03*
X143925000Y-92687500D03*
X143925000Y-92037500D03*
X143925000Y-91387500D03*
X143925000Y-90737500D03*
D48*
X164065000Y-96700000D03*
X163105000Y-96700000D03*
D34*
X143750000Y-107075000D03*
X143750000Y-110025000D03*
D31*
X167010000Y-102700000D03*
X165460000Y-102700000D03*
D49*
X141122500Y-87505000D03*
X141122500Y-86555000D03*
X141122500Y-85605000D03*
X143397500Y-85605000D03*
X143397500Y-87505000D03*
D44*
X145430000Y-80810000D03*
X143530000Y-80810000D03*
%LPD*%
M02*
