%TF.GenerationSoftware,KiCad,Pcbnew,8.0.7*%
%TF.CreationDate,2025-10-10T17:09:57-07:00*%
%TF.ProjectId,CurlDrive-2,4375726c-4472-4697-9665-2d322e6b6963,rev?*%
%TF.SameCoordinates,Original*%
%TF.FileFunction,Paste,Top*%
%TF.FilePolarity,Positive*%
%FSLAX46Y46*%
G04 Gerber Fmt 4.6, Leading zero omitted, Abs format (unit mm)*
G04 Created by KiCad (PCBNEW 8.0.7) date 2025-10-10 17:09:57*
%MOMM*%
%LPD*%
G01*
G04 APERTURE LIST*
G04 Aperture macros list*
%AMRoundRect*
0 Rectangle with rounded corners*
0 $1 Rounding radius*
0 $2 $3 $4 $5 $6 $7 $8 $9 X,Y pos of 4 corners*
0 Add a 4 corners polygon primitive as box body*
4,1,4,$2,$3,$4,$5,$6,$7,$8,$9,$2,$3,0*
0 Add four circle primitives for the rounded corners*
1,1,$1+$1,$2,$3*
1,1,$1+$1,$4,$5*
1,1,$1+$1,$6,$7*
1,1,$1+$1,$8,$9*
0 Add four rect primitives between the rounded corners*
20,1,$1+$1,$2,$3,$4,$5,0*
20,1,$1+$1,$4,$5,$6,$7,0*
20,1,$1+$1,$6,$7,$8,$9,0*
20,1,$1+$1,$8,$9,$2,$3,0*%
G04 Aperture macros list end*
%ADD10C,0.010000*%
%ADD11C,0.000000*%
%ADD12C,2.200000*%
%ADD13RoundRect,0.135000X0.185000X-0.135000X0.185000X0.135000X-0.185000X0.135000X-0.185000X-0.135000X0*%
%ADD14RoundRect,0.250000X0.625000X-0.312500X0.625000X0.312500X-0.625000X0.312500X-0.625000X-0.312500X0*%
%ADD15RoundRect,0.150000X-0.512500X-0.150000X0.512500X-0.150000X0.512500X0.150000X-0.512500X0.150000X0*%
%ADD16RoundRect,0.250000X1.500000X0.550000X-1.500000X0.550000X-1.500000X-0.550000X1.500000X-0.550000X0*%
%ADD17RoundRect,0.200000X-0.275000X0.200000X-0.275000X-0.200000X0.275000X-0.200000X0.275000X0.200000X0*%
%ADD18RoundRect,0.135000X0.135000X0.185000X-0.135000X0.185000X-0.135000X-0.185000X0.135000X-0.185000X0*%
%ADD19RoundRect,0.140000X-0.140000X-0.170000X0.140000X-0.170000X0.140000X0.170000X-0.140000X0.170000X0*%
%ADD20R,1.400000X1.200000*%
%ADD21RoundRect,0.375000X0.375000X0.875000X-0.375000X0.875000X-0.375000X-0.875000X0.375000X-0.875000X0*%
%ADD22RoundRect,0.140000X0.170000X-0.140000X0.170000X0.140000X-0.170000X0.140000X-0.170000X-0.140000X0*%
%ADD23RoundRect,0.243750X-0.243750X-0.456250X0.243750X-0.456250X0.243750X0.456250X-0.243750X0.456250X0*%
%ADD24RoundRect,0.200000X0.200000X0.275000X-0.200000X0.275000X-0.200000X-0.275000X0.200000X-0.275000X0*%
%ADD25RoundRect,0.150000X0.150000X-0.512500X0.150000X0.512500X-0.150000X0.512500X-0.150000X-0.512500X0*%
%ADD26RoundRect,0.150000X-0.625000X0.150000X-0.625000X-0.150000X0.625000X-0.150000X0.625000X0.150000X0*%
%ADD27RoundRect,0.250000X-0.650000X0.350000X-0.650000X-0.350000X0.650000X-0.350000X0.650000X0.350000X0*%
%ADD28RoundRect,0.225000X-0.250000X0.225000X-0.250000X-0.225000X0.250000X-0.225000X0.250000X0.225000X0*%
%ADD29RoundRect,0.225000X0.225000X0.250000X-0.225000X0.250000X-0.225000X-0.250000X0.225000X-0.250000X0*%
%ADD30RoundRect,0.135000X-0.185000X0.135000X-0.185000X-0.135000X0.185000X-0.135000X0.185000X0.135000X0*%
%ADD31R,0.600000X1.240000*%
%ADD32R,0.300000X1.240000*%
%ADD33RoundRect,0.243750X0.456250X-0.243750X0.456250X0.243750X-0.456250X0.243750X-0.456250X-0.243750X0*%
%ADD34RoundRect,0.250000X-0.250000X-0.475000X0.250000X-0.475000X0.250000X0.475000X-0.250000X0.475000X0*%
%ADD35RoundRect,0.250000X0.475000X-0.250000X0.475000X0.250000X-0.475000X0.250000X-0.475000X-0.250000X0*%
%ADD36RoundRect,0.250000X-1.500000X-0.550000X1.500000X-0.550000X1.500000X0.550000X-1.500000X0.550000X0*%
%ADD37R,0.900000X1.700000*%
%ADD38RoundRect,0.225000X0.250000X-0.225000X0.250000X0.225000X-0.250000X0.225000X-0.250000X-0.225000X0*%
%ADD39RoundRect,0.150000X0.150000X0.625000X-0.150000X0.625000X-0.150000X-0.625000X0.150000X-0.625000X0*%
%ADD40RoundRect,0.250000X0.350000X0.650000X-0.350000X0.650000X-0.350000X-0.650000X0.350000X-0.650000X0*%
%ADD41RoundRect,0.135000X-0.135000X-0.185000X0.135000X-0.185000X0.135000X0.185000X-0.135000X0.185000X0*%
%ADD42RoundRect,0.114000X0.266000X0.521000X-0.266000X0.521000X-0.266000X-0.521000X0.266000X-0.521000X0*%
%ADD43O,0.599999X0.230000*%
%ADD44O,0.230000X0.599999*%
%ADD45RoundRect,0.075000X-0.700000X-0.075000X0.700000X-0.075000X0.700000X0.075000X-0.700000X0.075000X0*%
%ADD46RoundRect,0.075000X-0.075000X-0.700000X0.075000X-0.700000X0.075000X0.700000X-0.075000X0.700000X0*%
%ADD47RoundRect,0.140000X0.140000X0.170000X-0.140000X0.170000X-0.140000X-0.170000X0.140000X-0.170000X0*%
%ADD48RoundRect,0.250000X0.250000X0.475000X-0.250000X0.475000X-0.250000X-0.475000X0.250000X-0.475000X0*%
%ADD49RoundRect,0.140000X-0.170000X0.140000X-0.170000X-0.140000X0.170000X-0.140000X0.170000X0.140000X0*%
G04 APERTURE END LIST*
D10*
X139145000Y-111530000D02*
X138905000Y-111530000D01*
X138905000Y-110930000D01*
X139145000Y-110930000D01*
X139145000Y-111530000D01*
G36*
X139145000Y-111530000D02*
G01*
X138905000Y-111530000D01*
X138905000Y-110930000D01*
X139145000Y-110930000D01*
X139145000Y-111530000D01*
G37*
X139145000Y-113130000D02*
X138905000Y-113130000D01*
X138905000Y-111730000D01*
X139145000Y-111730000D01*
X139145000Y-113130000D01*
G36*
X139145000Y-113130000D02*
G01*
X138905000Y-113130000D01*
X138905000Y-111730000D01*
X139145000Y-111730000D01*
X139145000Y-113130000D01*
G37*
X139575000Y-114175000D02*
X138905000Y-114175000D01*
X138905000Y-113825000D01*
X139575000Y-113825000D01*
X139575000Y-114175000D01*
G36*
X139575000Y-114175000D02*
G01*
X138905000Y-114175000D01*
X138905000Y-113825000D01*
X139575000Y-113825000D01*
X139575000Y-114175000D01*
G37*
X139145000Y-114625000D02*
X138905000Y-114625000D01*
X138905000Y-114325000D01*
X139145000Y-114325000D01*
X139145000Y-114625000D01*
G36*
X139145000Y-114625000D02*
G01*
X138905000Y-114625000D01*
X138905000Y-114325000D01*
X139145000Y-114325000D01*
X139145000Y-114625000D01*
G37*
X140545000Y-113130000D02*
X139455000Y-113130000D01*
X139455000Y-111730000D01*
X140545000Y-111730000D01*
X140545000Y-113130000D01*
G36*
X140545000Y-113130000D02*
G01*
X139455000Y-113130000D01*
X139455000Y-111730000D01*
X140545000Y-111730000D01*
X140545000Y-113130000D01*
G37*
X139795000Y-111530000D02*
X139555000Y-111530000D01*
X139555000Y-110930000D01*
X139795000Y-110930000D01*
X139795000Y-111530000D01*
G36*
X139795000Y-111530000D02*
G01*
X139555000Y-111530000D01*
X139555000Y-110930000D01*
X139795000Y-110930000D01*
X139795000Y-111530000D01*
G37*
X139795000Y-114625000D02*
X139555000Y-114625000D01*
X139555000Y-114325000D01*
X139795000Y-114325000D01*
X139795000Y-114625000D01*
G36*
X139795000Y-114625000D02*
G01*
X139555000Y-114625000D01*
X139555000Y-114325000D01*
X139795000Y-114325000D01*
X139795000Y-114625000D01*
G37*
X140445000Y-114175000D02*
X139775000Y-114175000D01*
X139775000Y-113825000D01*
X140445000Y-113825000D01*
X140445000Y-114175000D01*
G36*
X140445000Y-114175000D02*
G01*
X139775000Y-114175000D01*
X139775000Y-113825000D01*
X140445000Y-113825000D01*
X140445000Y-114175000D01*
G37*
X140445000Y-111530000D02*
X140205000Y-111530000D01*
X140205000Y-110930000D01*
X140445000Y-110930000D01*
X140445000Y-111530000D01*
G36*
X140445000Y-111530000D02*
G01*
X140205000Y-111530000D01*
X140205000Y-110930000D01*
X140445000Y-110930000D01*
X140445000Y-111530000D01*
G37*
X140445000Y-114625000D02*
X140205000Y-114625000D01*
X140205000Y-114325000D01*
X140445000Y-114325000D01*
X140445000Y-114625000D01*
G36*
X140445000Y-114625000D02*
G01*
X140205000Y-114625000D01*
X140205000Y-114325000D01*
X140445000Y-114325000D01*
X140445000Y-114625000D01*
G37*
X141095000Y-111530000D02*
X140855000Y-111530000D01*
X140855000Y-110930000D01*
X141095000Y-110930000D01*
X141095000Y-111530000D01*
G36*
X141095000Y-111530000D02*
G01*
X140855000Y-111530000D01*
X140855000Y-110930000D01*
X141095000Y-110930000D01*
X141095000Y-111530000D01*
G37*
X141095000Y-113130000D02*
X140855000Y-113130000D01*
X140855000Y-111730000D01*
X141095000Y-111730000D01*
X141095000Y-113130000D01*
G36*
X141095000Y-113130000D02*
G01*
X140855000Y-113130000D01*
X140855000Y-111730000D01*
X141095000Y-111730000D01*
X141095000Y-113130000D01*
G37*
X141095000Y-114630000D02*
X140855000Y-114630000D01*
X140855000Y-113930000D01*
X141095000Y-113930000D01*
X141095000Y-114630000D01*
G36*
X141095000Y-114630000D02*
G01*
X140855000Y-114630000D01*
X140855000Y-113930000D01*
X141095000Y-113930000D01*
X141095000Y-114630000D01*
G37*
X155145000Y-111530000D02*
X154905000Y-111530000D01*
X154905000Y-110930000D01*
X155145000Y-110930000D01*
X155145000Y-111530000D01*
G36*
X155145000Y-111530000D02*
G01*
X154905000Y-111530000D01*
X154905000Y-110930000D01*
X155145000Y-110930000D01*
X155145000Y-111530000D01*
G37*
X155145000Y-113130000D02*
X154905000Y-113130000D01*
X154905000Y-111730000D01*
X155145000Y-111730000D01*
X155145000Y-113130000D01*
G36*
X155145000Y-113130000D02*
G01*
X154905000Y-113130000D01*
X154905000Y-111730000D01*
X155145000Y-111730000D01*
X155145000Y-113130000D01*
G37*
X155575000Y-114175000D02*
X154905000Y-114175000D01*
X154905000Y-113825000D01*
X155575000Y-113825000D01*
X155575000Y-114175000D01*
G36*
X155575000Y-114175000D02*
G01*
X154905000Y-114175000D01*
X154905000Y-113825000D01*
X155575000Y-113825000D01*
X155575000Y-114175000D01*
G37*
X155145000Y-114625000D02*
X154905000Y-114625000D01*
X154905000Y-114325000D01*
X155145000Y-114325000D01*
X155145000Y-114625000D01*
G36*
X155145000Y-114625000D02*
G01*
X154905000Y-114625000D01*
X154905000Y-114325000D01*
X155145000Y-114325000D01*
X155145000Y-114625000D01*
G37*
X156545000Y-113130000D02*
X155455000Y-113130000D01*
X155455000Y-111730000D01*
X156545000Y-111730000D01*
X156545000Y-113130000D01*
G36*
X156545000Y-113130000D02*
G01*
X155455000Y-113130000D01*
X155455000Y-111730000D01*
X156545000Y-111730000D01*
X156545000Y-113130000D01*
G37*
X155795000Y-111530000D02*
X155555000Y-111530000D01*
X155555000Y-110930000D01*
X155795000Y-110930000D01*
X155795000Y-111530000D01*
G36*
X155795000Y-111530000D02*
G01*
X155555000Y-111530000D01*
X155555000Y-110930000D01*
X155795000Y-110930000D01*
X155795000Y-111530000D01*
G37*
X155795000Y-114625000D02*
X155555000Y-114625000D01*
X155555000Y-114325000D01*
X155795000Y-114325000D01*
X155795000Y-114625000D01*
G36*
X155795000Y-114625000D02*
G01*
X155555000Y-114625000D01*
X155555000Y-114325000D01*
X155795000Y-114325000D01*
X155795000Y-114625000D01*
G37*
X156445000Y-114175000D02*
X155775000Y-114175000D01*
X155775000Y-113825000D01*
X156445000Y-113825000D01*
X156445000Y-114175000D01*
G36*
X156445000Y-114175000D02*
G01*
X155775000Y-114175000D01*
X155775000Y-113825000D01*
X156445000Y-113825000D01*
X156445000Y-114175000D01*
G37*
X156445000Y-111530000D02*
X156205000Y-111530000D01*
X156205000Y-110930000D01*
X156445000Y-110930000D01*
X156445000Y-111530000D01*
G36*
X156445000Y-111530000D02*
G01*
X156205000Y-111530000D01*
X156205000Y-110930000D01*
X156445000Y-110930000D01*
X156445000Y-111530000D01*
G37*
X156445000Y-114625000D02*
X156205000Y-114625000D01*
X156205000Y-114325000D01*
X156445000Y-114325000D01*
X156445000Y-114625000D01*
G36*
X156445000Y-114625000D02*
G01*
X156205000Y-114625000D01*
X156205000Y-114325000D01*
X156445000Y-114325000D01*
X156445000Y-114625000D01*
G37*
X157095000Y-111530000D02*
X156855000Y-111530000D01*
X156855000Y-110930000D01*
X157095000Y-110930000D01*
X157095000Y-111530000D01*
G36*
X157095000Y-111530000D02*
G01*
X156855000Y-111530000D01*
X156855000Y-110930000D01*
X157095000Y-110930000D01*
X157095000Y-111530000D01*
G37*
X157095000Y-113130000D02*
X156855000Y-113130000D01*
X156855000Y-111730000D01*
X157095000Y-111730000D01*
X157095000Y-113130000D01*
G36*
X157095000Y-113130000D02*
G01*
X156855000Y-113130000D01*
X156855000Y-111730000D01*
X157095000Y-111730000D01*
X157095000Y-113130000D01*
G37*
X157095000Y-114630000D02*
X156855000Y-114630000D01*
X156855000Y-113930000D01*
X157095000Y-113930000D01*
X157095000Y-114630000D01*
G36*
X157095000Y-114630000D02*
G01*
X156855000Y-114630000D01*
X156855000Y-113930000D01*
X157095000Y-113930000D01*
X157095000Y-114630000D01*
G37*
X147145000Y-111650000D02*
X146905000Y-111650000D01*
X146905000Y-110950000D01*
X147145000Y-110950000D01*
X147145000Y-111650000D01*
G36*
X147145000Y-111650000D02*
G01*
X146905000Y-111650000D01*
X146905000Y-110950000D01*
X147145000Y-110950000D01*
X147145000Y-111650000D01*
G37*
X147145000Y-113850000D02*
X146905000Y-113850000D01*
X146905000Y-112450000D01*
X147145000Y-112450000D01*
X147145000Y-113850000D01*
G36*
X147145000Y-113850000D02*
G01*
X146905000Y-113850000D01*
X146905000Y-112450000D01*
X147145000Y-112450000D01*
X147145000Y-113850000D01*
G37*
X147145000Y-114650000D02*
X146905000Y-114650000D01*
X146905000Y-114050000D01*
X147145000Y-114050000D01*
X147145000Y-114650000D01*
G36*
X147145000Y-114650000D02*
G01*
X146905000Y-114650000D01*
X146905000Y-114050000D01*
X147145000Y-114050000D01*
X147145000Y-114650000D01*
G37*
X147795000Y-111255000D02*
X147555000Y-111255000D01*
X147555000Y-110955000D01*
X147795000Y-110955000D01*
X147795000Y-111255000D01*
G36*
X147795000Y-111255000D02*
G01*
X147555000Y-111255000D01*
X147555000Y-110955000D01*
X147795000Y-110955000D01*
X147795000Y-111255000D01*
G37*
X147795000Y-114650000D02*
X147555000Y-114650000D01*
X147555000Y-114050000D01*
X147795000Y-114050000D01*
X147795000Y-114650000D01*
G36*
X147795000Y-114650000D02*
G01*
X147555000Y-114650000D01*
X147555000Y-114050000D01*
X147795000Y-114050000D01*
X147795000Y-114650000D01*
G37*
X148225000Y-111755000D02*
X147555000Y-111755000D01*
X147555000Y-111405000D01*
X148225000Y-111405000D01*
X148225000Y-111755000D01*
G36*
X148225000Y-111755000D02*
G01*
X147555000Y-111755000D01*
X147555000Y-111405000D01*
X148225000Y-111405000D01*
X148225000Y-111755000D01*
G37*
X148445000Y-111255000D02*
X148205000Y-111255000D01*
X148205000Y-110955000D01*
X148445000Y-110955000D01*
X148445000Y-111255000D01*
G36*
X148445000Y-111255000D02*
G01*
X148205000Y-111255000D01*
X148205000Y-110955000D01*
X148445000Y-110955000D01*
X148445000Y-111255000D01*
G37*
X148445000Y-114650000D02*
X148205000Y-114650000D01*
X148205000Y-114050000D01*
X148445000Y-114050000D01*
X148445000Y-114650000D01*
G36*
X148445000Y-114650000D02*
G01*
X148205000Y-114650000D01*
X148205000Y-114050000D01*
X148445000Y-114050000D01*
X148445000Y-114650000D01*
G37*
X148545000Y-113850000D02*
X147455000Y-113850000D01*
X147455000Y-112450000D01*
X148545000Y-112450000D01*
X148545000Y-113850000D01*
G36*
X148545000Y-113850000D02*
G01*
X147455000Y-113850000D01*
X147455000Y-112450000D01*
X148545000Y-112450000D01*
X148545000Y-113850000D01*
G37*
X149095000Y-111255000D02*
X148855000Y-111255000D01*
X148855000Y-110955000D01*
X149095000Y-110955000D01*
X149095000Y-111255000D01*
G36*
X149095000Y-111255000D02*
G01*
X148855000Y-111255000D01*
X148855000Y-110955000D01*
X149095000Y-110955000D01*
X149095000Y-111255000D01*
G37*
X149095000Y-111755000D02*
X148425000Y-111755000D01*
X148425000Y-111405000D01*
X149095000Y-111405000D01*
X149095000Y-111755000D01*
G36*
X149095000Y-111755000D02*
G01*
X148425000Y-111755000D01*
X148425000Y-111405000D01*
X149095000Y-111405000D01*
X149095000Y-111755000D01*
G37*
X149095000Y-113850000D02*
X148855000Y-113850000D01*
X148855000Y-112450000D01*
X149095000Y-112450000D01*
X149095000Y-113850000D01*
G36*
X149095000Y-113850000D02*
G01*
X148855000Y-113850000D01*
X148855000Y-112450000D01*
X149095000Y-112450000D01*
X149095000Y-113850000D01*
G37*
X149095000Y-114650000D02*
X148855000Y-114650000D01*
X148855000Y-114050000D01*
X149095000Y-114050000D01*
X149095000Y-114650000D01*
G36*
X149095000Y-114650000D02*
G01*
X148855000Y-114650000D01*
X148855000Y-114050000D01*
X149095000Y-114050000D01*
X149095000Y-114650000D01*
G37*
X159145000Y-111650000D02*
X158905000Y-111650000D01*
X158905000Y-110950000D01*
X159145000Y-110950000D01*
X159145000Y-111650000D01*
G36*
X159145000Y-111650000D02*
G01*
X158905000Y-111650000D01*
X158905000Y-110950000D01*
X159145000Y-110950000D01*
X159145000Y-111650000D01*
G37*
X159145000Y-113850000D02*
X158905000Y-113850000D01*
X158905000Y-112450000D01*
X159145000Y-112450000D01*
X159145000Y-113850000D01*
G36*
X159145000Y-113850000D02*
G01*
X158905000Y-113850000D01*
X158905000Y-112450000D01*
X159145000Y-112450000D01*
X159145000Y-113850000D01*
G37*
X159145000Y-114650000D02*
X158905000Y-114650000D01*
X158905000Y-114050000D01*
X159145000Y-114050000D01*
X159145000Y-114650000D01*
G36*
X159145000Y-114650000D02*
G01*
X158905000Y-114650000D01*
X158905000Y-114050000D01*
X159145000Y-114050000D01*
X159145000Y-114650000D01*
G37*
X159795000Y-111255000D02*
X159555000Y-111255000D01*
X159555000Y-110955000D01*
X159795000Y-110955000D01*
X159795000Y-111255000D01*
G36*
X159795000Y-111255000D02*
G01*
X159555000Y-111255000D01*
X159555000Y-110955000D01*
X159795000Y-110955000D01*
X159795000Y-111255000D01*
G37*
X159795000Y-114650000D02*
X159555000Y-114650000D01*
X159555000Y-114050000D01*
X159795000Y-114050000D01*
X159795000Y-114650000D01*
G36*
X159795000Y-114650000D02*
G01*
X159555000Y-114650000D01*
X159555000Y-114050000D01*
X159795000Y-114050000D01*
X159795000Y-114650000D01*
G37*
X160225000Y-111755000D02*
X159555000Y-111755000D01*
X159555000Y-111405000D01*
X160225000Y-111405000D01*
X160225000Y-111755000D01*
G36*
X160225000Y-111755000D02*
G01*
X159555000Y-111755000D01*
X159555000Y-111405000D01*
X160225000Y-111405000D01*
X160225000Y-111755000D01*
G37*
X160445000Y-111255000D02*
X160205000Y-111255000D01*
X160205000Y-110955000D01*
X160445000Y-110955000D01*
X160445000Y-111255000D01*
G36*
X160445000Y-111255000D02*
G01*
X160205000Y-111255000D01*
X160205000Y-110955000D01*
X160445000Y-110955000D01*
X160445000Y-111255000D01*
G37*
X160445000Y-114650000D02*
X160205000Y-114650000D01*
X160205000Y-114050000D01*
X160445000Y-114050000D01*
X160445000Y-114650000D01*
G36*
X160445000Y-114650000D02*
G01*
X160205000Y-114650000D01*
X160205000Y-114050000D01*
X160445000Y-114050000D01*
X160445000Y-114650000D01*
G37*
X160545000Y-113850000D02*
X159455000Y-113850000D01*
X159455000Y-112450000D01*
X160545000Y-112450000D01*
X160545000Y-113850000D01*
G36*
X160545000Y-113850000D02*
G01*
X159455000Y-113850000D01*
X159455000Y-112450000D01*
X160545000Y-112450000D01*
X160545000Y-113850000D01*
G37*
X161095000Y-111255000D02*
X160855000Y-111255000D01*
X160855000Y-110955000D01*
X161095000Y-110955000D01*
X161095000Y-111255000D01*
G36*
X161095000Y-111255000D02*
G01*
X160855000Y-111255000D01*
X160855000Y-110955000D01*
X161095000Y-110955000D01*
X161095000Y-111255000D01*
G37*
X161095000Y-111755000D02*
X160425000Y-111755000D01*
X160425000Y-111405000D01*
X161095000Y-111405000D01*
X161095000Y-111755000D01*
G36*
X161095000Y-111755000D02*
G01*
X160425000Y-111755000D01*
X160425000Y-111405000D01*
X161095000Y-111405000D01*
X161095000Y-111755000D01*
G37*
X161095000Y-113850000D02*
X160855000Y-113850000D01*
X160855000Y-112450000D01*
X161095000Y-112450000D01*
X161095000Y-113850000D01*
G36*
X161095000Y-113850000D02*
G01*
X160855000Y-113850000D01*
X160855000Y-112450000D01*
X161095000Y-112450000D01*
X161095000Y-113850000D01*
G37*
X161095000Y-114650000D02*
X160855000Y-114650000D01*
X160855000Y-114050000D01*
X161095000Y-114050000D01*
X161095000Y-114650000D01*
G36*
X161095000Y-114650000D02*
G01*
X160855000Y-114650000D01*
X160855000Y-114050000D01*
X161095000Y-114050000D01*
X161095000Y-114650000D01*
G37*
X151145000Y-111530000D02*
X150905000Y-111530000D01*
X150905000Y-110930000D01*
X151145000Y-110930000D01*
X151145000Y-111530000D01*
G36*
X151145000Y-111530000D02*
G01*
X150905000Y-111530000D01*
X150905000Y-110930000D01*
X151145000Y-110930000D01*
X151145000Y-111530000D01*
G37*
X151145000Y-113130000D02*
X150905000Y-113130000D01*
X150905000Y-111730000D01*
X151145000Y-111730000D01*
X151145000Y-113130000D01*
G36*
X151145000Y-113130000D02*
G01*
X150905000Y-113130000D01*
X150905000Y-111730000D01*
X151145000Y-111730000D01*
X151145000Y-113130000D01*
G37*
X151575000Y-114175000D02*
X150905000Y-114175000D01*
X150905000Y-113825000D01*
X151575000Y-113825000D01*
X151575000Y-114175000D01*
G36*
X151575000Y-114175000D02*
G01*
X150905000Y-114175000D01*
X150905000Y-113825000D01*
X151575000Y-113825000D01*
X151575000Y-114175000D01*
G37*
X151145000Y-114625000D02*
X150905000Y-114625000D01*
X150905000Y-114325000D01*
X151145000Y-114325000D01*
X151145000Y-114625000D01*
G36*
X151145000Y-114625000D02*
G01*
X150905000Y-114625000D01*
X150905000Y-114325000D01*
X151145000Y-114325000D01*
X151145000Y-114625000D01*
G37*
X152545000Y-113130000D02*
X151455000Y-113130000D01*
X151455000Y-111730000D01*
X152545000Y-111730000D01*
X152545000Y-113130000D01*
G36*
X152545000Y-113130000D02*
G01*
X151455000Y-113130000D01*
X151455000Y-111730000D01*
X152545000Y-111730000D01*
X152545000Y-113130000D01*
G37*
X151795000Y-111530000D02*
X151555000Y-111530000D01*
X151555000Y-110930000D01*
X151795000Y-110930000D01*
X151795000Y-111530000D01*
G36*
X151795000Y-111530000D02*
G01*
X151555000Y-111530000D01*
X151555000Y-110930000D01*
X151795000Y-110930000D01*
X151795000Y-111530000D01*
G37*
X151795000Y-114625000D02*
X151555000Y-114625000D01*
X151555000Y-114325000D01*
X151795000Y-114325000D01*
X151795000Y-114625000D01*
G36*
X151795000Y-114625000D02*
G01*
X151555000Y-114625000D01*
X151555000Y-114325000D01*
X151795000Y-114325000D01*
X151795000Y-114625000D01*
G37*
X152445000Y-114175000D02*
X151775000Y-114175000D01*
X151775000Y-113825000D01*
X152445000Y-113825000D01*
X152445000Y-114175000D01*
G36*
X152445000Y-114175000D02*
G01*
X151775000Y-114175000D01*
X151775000Y-113825000D01*
X152445000Y-113825000D01*
X152445000Y-114175000D01*
G37*
X152445000Y-111530000D02*
X152205000Y-111530000D01*
X152205000Y-110930000D01*
X152445000Y-110930000D01*
X152445000Y-111530000D01*
G36*
X152445000Y-111530000D02*
G01*
X152205000Y-111530000D01*
X152205000Y-110930000D01*
X152445000Y-110930000D01*
X152445000Y-111530000D01*
G37*
X152445000Y-114625000D02*
X152205000Y-114625000D01*
X152205000Y-114325000D01*
X152445000Y-114325000D01*
X152445000Y-114625000D01*
G36*
X152445000Y-114625000D02*
G01*
X152205000Y-114625000D01*
X152205000Y-114325000D01*
X152445000Y-114325000D01*
X152445000Y-114625000D01*
G37*
X153095000Y-111530000D02*
X152855000Y-111530000D01*
X152855000Y-110930000D01*
X153095000Y-110930000D01*
X153095000Y-111530000D01*
G36*
X153095000Y-111530000D02*
G01*
X152855000Y-111530000D01*
X152855000Y-110930000D01*
X153095000Y-110930000D01*
X153095000Y-111530000D01*
G37*
X153095000Y-113130000D02*
X152855000Y-113130000D01*
X152855000Y-111730000D01*
X153095000Y-111730000D01*
X153095000Y-113130000D01*
G36*
X153095000Y-113130000D02*
G01*
X152855000Y-113130000D01*
X152855000Y-111730000D01*
X153095000Y-111730000D01*
X153095000Y-113130000D01*
G37*
X153095000Y-114630000D02*
X152855000Y-114630000D01*
X152855000Y-113930000D01*
X153095000Y-113930000D01*
X153095000Y-114630000D01*
G36*
X153095000Y-114630000D02*
G01*
X152855000Y-114630000D01*
X152855000Y-113930000D01*
X153095000Y-113930000D01*
X153095000Y-114630000D01*
G37*
X143145000Y-111650000D02*
X142905000Y-111650000D01*
X142905000Y-110950000D01*
X143145000Y-110950000D01*
X143145000Y-111650000D01*
G36*
X143145000Y-111650000D02*
G01*
X142905000Y-111650000D01*
X142905000Y-110950000D01*
X143145000Y-110950000D01*
X143145000Y-111650000D01*
G37*
X143145000Y-113850000D02*
X142905000Y-113850000D01*
X142905000Y-112450000D01*
X143145000Y-112450000D01*
X143145000Y-113850000D01*
G36*
X143145000Y-113850000D02*
G01*
X142905000Y-113850000D01*
X142905000Y-112450000D01*
X143145000Y-112450000D01*
X143145000Y-113850000D01*
G37*
X143145000Y-114650000D02*
X142905000Y-114650000D01*
X142905000Y-114050000D01*
X143145000Y-114050000D01*
X143145000Y-114650000D01*
G36*
X143145000Y-114650000D02*
G01*
X142905000Y-114650000D01*
X142905000Y-114050000D01*
X143145000Y-114050000D01*
X143145000Y-114650000D01*
G37*
X143795000Y-111255000D02*
X143555000Y-111255000D01*
X143555000Y-110955000D01*
X143795000Y-110955000D01*
X143795000Y-111255000D01*
G36*
X143795000Y-111255000D02*
G01*
X143555000Y-111255000D01*
X143555000Y-110955000D01*
X143795000Y-110955000D01*
X143795000Y-111255000D01*
G37*
X143795000Y-114650000D02*
X143555000Y-114650000D01*
X143555000Y-114050000D01*
X143795000Y-114050000D01*
X143795000Y-114650000D01*
G36*
X143795000Y-114650000D02*
G01*
X143555000Y-114650000D01*
X143555000Y-114050000D01*
X143795000Y-114050000D01*
X143795000Y-114650000D01*
G37*
X144225000Y-111755000D02*
X143555000Y-111755000D01*
X143555000Y-111405000D01*
X144225000Y-111405000D01*
X144225000Y-111755000D01*
G36*
X144225000Y-111755000D02*
G01*
X143555000Y-111755000D01*
X143555000Y-111405000D01*
X144225000Y-111405000D01*
X144225000Y-111755000D01*
G37*
X144445000Y-111255000D02*
X144205000Y-111255000D01*
X144205000Y-110955000D01*
X144445000Y-110955000D01*
X144445000Y-111255000D01*
G36*
X144445000Y-111255000D02*
G01*
X144205000Y-111255000D01*
X144205000Y-110955000D01*
X144445000Y-110955000D01*
X144445000Y-111255000D01*
G37*
X144445000Y-114650000D02*
X144205000Y-114650000D01*
X144205000Y-114050000D01*
X144445000Y-114050000D01*
X144445000Y-114650000D01*
G36*
X144445000Y-114650000D02*
G01*
X144205000Y-114650000D01*
X144205000Y-114050000D01*
X144445000Y-114050000D01*
X144445000Y-114650000D01*
G37*
X144545000Y-113850000D02*
X143455000Y-113850000D01*
X143455000Y-112450000D01*
X144545000Y-112450000D01*
X144545000Y-113850000D01*
G36*
X144545000Y-113850000D02*
G01*
X143455000Y-113850000D01*
X143455000Y-112450000D01*
X144545000Y-112450000D01*
X144545000Y-113850000D01*
G37*
X145095000Y-111255000D02*
X144855000Y-111255000D01*
X144855000Y-110955000D01*
X145095000Y-110955000D01*
X145095000Y-111255000D01*
G36*
X145095000Y-111255000D02*
G01*
X144855000Y-111255000D01*
X144855000Y-110955000D01*
X145095000Y-110955000D01*
X145095000Y-111255000D01*
G37*
X145095000Y-111755000D02*
X144425000Y-111755000D01*
X144425000Y-111405000D01*
X145095000Y-111405000D01*
X145095000Y-111755000D01*
G36*
X145095000Y-111755000D02*
G01*
X144425000Y-111755000D01*
X144425000Y-111405000D01*
X145095000Y-111405000D01*
X145095000Y-111755000D01*
G37*
X145095000Y-113850000D02*
X144855000Y-113850000D01*
X144855000Y-112450000D01*
X145095000Y-112450000D01*
X145095000Y-113850000D01*
G36*
X145095000Y-113850000D02*
G01*
X144855000Y-113850000D01*
X144855000Y-112450000D01*
X145095000Y-112450000D01*
X145095000Y-113850000D01*
G37*
X145095000Y-114650000D02*
X144855000Y-114650000D01*
X144855000Y-114050000D01*
X145095000Y-114050000D01*
X145095000Y-114650000D01*
G36*
X145095000Y-114650000D02*
G01*
X144855000Y-114650000D01*
X144855000Y-114050000D01*
X145095000Y-114050000D01*
X145095000Y-114650000D01*
G37*
D11*
G36*
X156514999Y-101114999D02*
G01*
X155344999Y-101114999D01*
X155344999Y-99944999D01*
X156514999Y-99944999D01*
X156514999Y-101114999D01*
G37*
G36*
X156514999Y-102484999D02*
G01*
X155344999Y-102484999D01*
X155344999Y-101314999D01*
X156514999Y-101314999D01*
X156514999Y-102484999D01*
G37*
G36*
X156514999Y-103854999D02*
G01*
X155344999Y-103854999D01*
X155344999Y-102684999D01*
X156514999Y-102684999D01*
X156514999Y-103854999D01*
G37*
G36*
X157884999Y-101114999D02*
G01*
X156714999Y-101114999D01*
X156714999Y-99944999D01*
X157884999Y-99944999D01*
X157884999Y-101114999D01*
G37*
G36*
X157884999Y-102484999D02*
G01*
X156714999Y-102484999D01*
X156714999Y-101314999D01*
X157884999Y-101314999D01*
X157884999Y-102484999D01*
G37*
G36*
X157884999Y-103854999D02*
G01*
X156714999Y-103854999D01*
X156714999Y-102684999D01*
X157884999Y-102684999D01*
X157884999Y-103854999D01*
G37*
G36*
X159254999Y-101114999D02*
G01*
X158084999Y-101114999D01*
X158084999Y-99944999D01*
X159254999Y-99944999D01*
X159254999Y-101114999D01*
G37*
G36*
X159254999Y-102484999D02*
G01*
X158084999Y-102484999D01*
X158084999Y-101314999D01*
X159254999Y-101314999D01*
X159254999Y-102484999D01*
G37*
G36*
X159254999Y-103854999D02*
G01*
X158084999Y-103854999D01*
X158084999Y-102684999D01*
X159254999Y-102684999D01*
X159254999Y-103854999D01*
G37*
D12*
X131000000Y-81000000D03*
X131000000Y-119000000D03*
X169000000Y-119000000D03*
X169000000Y-81000000D03*
D13*
X157300000Y-110151430D03*
X157300000Y-109131430D03*
X141300000Y-110151430D03*
X141300000Y-109131430D03*
X154000000Y-110151430D03*
X154000000Y-109131430D03*
D14*
X161067998Y-109750000D03*
X161067998Y-106825000D03*
D15*
X154662500Y-85500000D03*
X154662500Y-86450000D03*
X154662500Y-87400000D03*
X156937500Y-87400000D03*
X156937500Y-86450000D03*
X156937500Y-85500000D03*
D16*
X135800000Y-111000000D03*
X130200000Y-111000000D03*
D17*
X171400000Y-97575000D03*
X171400000Y-99225000D03*
D18*
X147900000Y-89000000D03*
X146880000Y-89000000D03*
D14*
X148775000Y-109762500D03*
X148775000Y-106837500D03*
D19*
X161470000Y-102550000D03*
X162430000Y-102550000D03*
D20*
X153825000Y-92150000D03*
X156025000Y-92150000D03*
X156025000Y-90450000D03*
X153825000Y-90450000D03*
D21*
X141200000Y-80140000D03*
X137500000Y-80140000D03*
D22*
X152425000Y-90990000D03*
X152425000Y-90030000D03*
D23*
X128862500Y-86400000D03*
X130737500Y-86400000D03*
D24*
X133925000Y-86400000D03*
X132275000Y-86400000D03*
D25*
X143750000Y-84537500D03*
X144700000Y-84537500D03*
X145650000Y-84537500D03*
X145650000Y-82262500D03*
X144700000Y-82262500D03*
X143750000Y-82262500D03*
D26*
X131875000Y-89925000D03*
X131875000Y-90925000D03*
D27*
X128000000Y-88625000D03*
X128000000Y-92225000D03*
D14*
X145400000Y-109762500D03*
X145400000Y-106837500D03*
D13*
X142700000Y-110151430D03*
X142700000Y-109131430D03*
D28*
X151375000Y-98725000D03*
X151375000Y-100275000D03*
D29*
X145475000Y-80550000D03*
X143925000Y-80550000D03*
D30*
X163500000Y-115640000D03*
X163500000Y-116660000D03*
D19*
X167070000Y-99750000D03*
X168030000Y-99750000D03*
D28*
X152850000Y-98750000D03*
X152850000Y-100300000D03*
D31*
X155000000Y-83975000D03*
X154200000Y-83975000D03*
D32*
X153050000Y-83975000D03*
X152050000Y-83975000D03*
X151550000Y-83975000D03*
X150550000Y-83975000D03*
D31*
X149400000Y-83975000D03*
X148600000Y-83975000D03*
X148600000Y-83975000D03*
X149400000Y-83975000D03*
D32*
X150050000Y-83975000D03*
X151050000Y-83975000D03*
X152550000Y-83975000D03*
X153550000Y-83975000D03*
D31*
X154200000Y-83975000D03*
X155000000Y-83975000D03*
D33*
X171200000Y-102637500D03*
X171200000Y-100762500D03*
D34*
X137430000Y-84200000D03*
X139330000Y-84200000D03*
D35*
X149600000Y-100375000D03*
X149600000Y-98475000D03*
D36*
X164200000Y-111000000D03*
X169800000Y-111000000D03*
D29*
X152875000Y-97050000D03*
X151325000Y-97050000D03*
D37*
X150285000Y-87000000D03*
X146885000Y-87000000D03*
D38*
X141980000Y-84750000D03*
X141980000Y-83200000D03*
D39*
X163000000Y-83000000D03*
X162000000Y-83000000D03*
X161000000Y-83000000D03*
X160000000Y-83000000D03*
D40*
X164300000Y-79125000D03*
X158700000Y-79125000D03*
D41*
X167050000Y-101750000D03*
X168070000Y-101750000D03*
D19*
X167080000Y-100750000D03*
X168040000Y-100750000D03*
D42*
X137100000Y-87250000D03*
X137100000Y-93600000D03*
D43*
X154400000Y-99649998D03*
X154400000Y-100149997D03*
X154400000Y-100649999D03*
X154400000Y-101149998D03*
X154400000Y-101649999D03*
X154400000Y-102149999D03*
X154400000Y-102649997D03*
X154400000Y-103149999D03*
X154400000Y-103649998D03*
X154400000Y-104150000D03*
D44*
X155049998Y-104799998D03*
X155549997Y-104799998D03*
X156049999Y-104799998D03*
X156549998Y-104799998D03*
X157049999Y-104799998D03*
X157549999Y-104799998D03*
X158049997Y-104799998D03*
X158549999Y-104799998D03*
X159049998Y-104799998D03*
X159550000Y-104799998D03*
D43*
X160199998Y-104150000D03*
X160199998Y-103649998D03*
X160199998Y-103149999D03*
X160199998Y-102649997D03*
X160199998Y-102149999D03*
X160199998Y-101649999D03*
X160199998Y-101149998D03*
X160199998Y-100649999D03*
X160199998Y-100149997D03*
X160199998Y-99649998D03*
D44*
X159550000Y-99000000D03*
X159049998Y-99000000D03*
X158549999Y-99000000D03*
X158049997Y-99000000D03*
X157549999Y-99000000D03*
X157049999Y-99000000D03*
X156549998Y-99000000D03*
X156049999Y-99000000D03*
X155549997Y-99000000D03*
X155049998Y-99000000D03*
D45*
X158945000Y-88750000D03*
X158945000Y-89250000D03*
X158945000Y-89750000D03*
X158945000Y-90250000D03*
X158945000Y-90750000D03*
X158945000Y-91250000D03*
X158945000Y-91750000D03*
X158945000Y-92250000D03*
X158945000Y-92750000D03*
X158945000Y-93250000D03*
X158945000Y-93750000D03*
X158945000Y-94250000D03*
X158945000Y-94750000D03*
X158945000Y-95250000D03*
X158945000Y-95750000D03*
X158945000Y-96250000D03*
D46*
X160870000Y-98175000D03*
X161370000Y-98175000D03*
X161870000Y-98175000D03*
X162370000Y-98175000D03*
X162870000Y-98175000D03*
X163370000Y-98175000D03*
X163870000Y-98175000D03*
X164370000Y-98175000D03*
X164870000Y-98175000D03*
X165370000Y-98175000D03*
X165870000Y-98175000D03*
X166370000Y-98175000D03*
X166870000Y-98175000D03*
X167370000Y-98175000D03*
X167870000Y-98175000D03*
X168370000Y-98175000D03*
D45*
X170295000Y-96250000D03*
X170295000Y-95750000D03*
X170295000Y-95250000D03*
X170295000Y-94750000D03*
X170295000Y-94250000D03*
X170295000Y-93750000D03*
X170295000Y-93250000D03*
X170295000Y-92750000D03*
X170295000Y-92250000D03*
X170295000Y-91750000D03*
X170295000Y-91250000D03*
X170295000Y-90750000D03*
X170295000Y-90250000D03*
X170295000Y-89750000D03*
X170295000Y-89250000D03*
X170295000Y-88750000D03*
D46*
X168370000Y-86825000D03*
X167870000Y-86825000D03*
X167370000Y-86825000D03*
X166870000Y-86825000D03*
X166370000Y-86825000D03*
X165870000Y-86825000D03*
X165370000Y-86825000D03*
X164870000Y-86825000D03*
X164370000Y-86825000D03*
X163870000Y-86825000D03*
X163370000Y-86825000D03*
X162870000Y-86825000D03*
X162370000Y-86825000D03*
X161870000Y-86825000D03*
X161370000Y-86825000D03*
X160870000Y-86825000D03*
D47*
X168040000Y-102750000D03*
X167080000Y-102750000D03*
D30*
X162500000Y-115640000D03*
X162500000Y-116660000D03*
D13*
X147000000Y-110151430D03*
X147000000Y-109131430D03*
D19*
X165200000Y-99750000D03*
X166160000Y-99750000D03*
D48*
X145425000Y-78840000D03*
X143525000Y-78840000D03*
D18*
X150290000Y-89000000D03*
X149270000Y-89000000D03*
D37*
X146885000Y-91000000D03*
X150285000Y-91000000D03*
D49*
X157425000Y-90020000D03*
X157425000Y-90980000D03*
D22*
X151400000Y-87960000D03*
X151400000Y-87000000D03*
D13*
X158750000Y-110151430D03*
X158750000Y-109131430D03*
M02*
