%TF.GenerationSoftware,KiCad,Pcbnew,8.0.7*%
%TF.CreationDate,2025-10-10T17:09:57-07:00*%
%TF.ProjectId,CurlDrive-2,4375726c-4472-4697-9665-2d322e6b6963,rev?*%
%TF.SameCoordinates,Original*%
%TF.FileFunction,Soldermask,Top*%
%TF.FilePolarity,Negative*%
%FSLAX46Y46*%
G04 Gerber Fmt 4.6, Leading zero omitted, Abs format (unit mm)*
G04 Created by KiCad (PCBNEW 8.0.7) date 2025-10-10 17:09:57*
%MOMM*%
%LPD*%
G01*
G04 APERTURE LIST*
G04 Aperture macros list*
%AMRoundRect*
0 Rectangle with rounded corners*
0 $1 Rounding radius*
0 $2 $3 $4 $5 $6 $7 $8 $9 X,Y pos of 4 corners*
0 Add a 4 corners polygon primitive as box body*
4,1,4,$2,$3,$4,$5,$6,$7,$8,$9,$2,$3,0*
0 Add four circle primitives for the rounded corners*
1,1,$1+$1,$2,$3*
1,1,$1+$1,$4,$5*
1,1,$1+$1,$6,$7*
1,1,$1+$1,$8,$9*
0 Add four rect primitives between the rounded corners*
20,1,$1+$1,$2,$3,$4,$5,0*
20,1,$1+$1,$4,$5,$6,$7,0*
20,1,$1+$1,$6,$7,$8,$9,0*
20,1,$1+$1,$8,$9,$2,$3,0*%
G04 Aperture macros list end*
%ADD10C,0.010000*%
%ADD11C,3.800000*%
%ADD12C,0.400000*%
%ADD13RoundRect,0.135000X0.185000X-0.135000X0.185000X0.135000X-0.185000X0.135000X-0.185000X-0.135000X0*%
%ADD14RoundRect,0.250000X0.625000X-0.312500X0.625000X0.312500X-0.625000X0.312500X-0.625000X-0.312500X0*%
%ADD15RoundRect,0.150000X-0.512500X-0.150000X0.512500X-0.150000X0.512500X0.150000X-0.512500X0.150000X0*%
%ADD16RoundRect,0.250000X1.500000X0.550000X-1.500000X0.550000X-1.500000X-0.550000X1.500000X-0.550000X0*%
%ADD17RoundRect,0.200000X-0.275000X0.200000X-0.275000X-0.200000X0.275000X-0.200000X0.275000X0.200000X0*%
%ADD18C,0.550000*%
%ADD19C,1.800000*%
%ADD20RoundRect,0.675000X1.575000X-1.575000X1.575000X1.575000X-1.575000X1.575000X-1.575000X-1.575000X0*%
%ADD21RoundRect,0.135000X0.135000X0.185000X-0.135000X0.185000X-0.135000X-0.185000X0.135000X-0.185000X0*%
%ADD22RoundRect,0.140000X-0.140000X-0.170000X0.140000X-0.170000X0.140000X0.170000X-0.140000X0.170000X0*%
%ADD23C,1.400000*%
%ADD24RoundRect,0.770000X0.980000X-0.980000X0.980000X0.980000X-0.980000X0.980000X-0.980000X-0.980000X0*%
%ADD25C,3.500000*%
%ADD26R,1.400000X1.200000*%
%ADD27RoundRect,0.375000X0.375000X0.875000X-0.375000X0.875000X-0.375000X-0.875000X0.375000X-0.875000X0*%
%ADD28RoundRect,0.140000X0.170000X-0.140000X0.170000X0.140000X-0.170000X0.140000X-0.170000X-0.140000X0*%
%ADD29RoundRect,0.243750X-0.243750X-0.456250X0.243750X-0.456250X0.243750X0.456250X-0.243750X0.456250X0*%
%ADD30RoundRect,0.200000X0.200000X0.275000X-0.200000X0.275000X-0.200000X-0.275000X0.200000X-0.275000X0*%
%ADD31RoundRect,0.150000X0.150000X-0.512500X0.150000X0.512500X-0.150000X0.512500X-0.150000X-0.512500X0*%
%ADD32RoundRect,0.150000X-0.625000X0.150000X-0.625000X-0.150000X0.625000X-0.150000X0.625000X0.150000X0*%
%ADD33RoundRect,0.250000X-0.650000X0.350000X-0.650000X-0.350000X0.650000X-0.350000X0.650000X0.350000X0*%
%ADD34RoundRect,0.225000X-0.250000X0.225000X-0.250000X-0.225000X0.250000X-0.225000X0.250000X0.225000X0*%
%ADD35RoundRect,0.225000X0.225000X0.250000X-0.225000X0.250000X-0.225000X-0.250000X0.225000X-0.250000X0*%
%ADD36RoundRect,0.135000X-0.185000X0.135000X-0.185000X-0.135000X0.185000X-0.135000X0.185000X0.135000X0*%
%ADD37C,0.650000*%
%ADD38R,0.600000X1.240000*%
%ADD39R,0.300000X1.240000*%
%ADD40O,1.000000X2.100000*%
%ADD41O,1.000000X1.800000*%
%ADD42RoundRect,0.243750X0.456250X-0.243750X0.456250X0.243750X-0.456250X0.243750X-0.456250X-0.243750X0*%
%ADD43RoundRect,0.250000X-0.250000X-0.475000X0.250000X-0.475000X0.250000X0.475000X-0.250000X0.475000X0*%
%ADD44RoundRect,0.250000X0.475000X-0.250000X0.475000X0.250000X-0.475000X0.250000X-0.475000X-0.250000X0*%
%ADD45RoundRect,0.250000X-1.500000X-0.550000X1.500000X-0.550000X1.500000X0.550000X-1.500000X0.550000X0*%
%ADD46R,0.900000X1.700000*%
%ADD47RoundRect,0.225000X0.250000X-0.225000X0.250000X0.225000X-0.250000X0.225000X-0.250000X-0.225000X0*%
%ADD48RoundRect,0.150000X0.150000X0.625000X-0.150000X0.625000X-0.150000X-0.625000X0.150000X-0.625000X0*%
%ADD49RoundRect,0.250000X0.350000X0.650000X-0.350000X0.650000X-0.350000X-0.650000X0.350000X-0.650000X0*%
%ADD50RoundRect,0.135000X-0.135000X-0.185000X0.135000X-0.185000X0.135000X0.185000X-0.135000X0.185000X0*%
%ADD51RoundRect,0.114000X0.266000X0.521000X-0.266000X0.521000X-0.266000X-0.521000X0.266000X-0.521000X0*%
%ADD52O,0.599999X0.230000*%
%ADD53O,0.230000X0.599999*%
%ADD54C,0.499999*%
%ADD55R,4.150000X4.150000*%
%ADD56RoundRect,0.075000X-0.700000X-0.075000X0.700000X-0.075000X0.700000X0.075000X-0.700000X0.075000X0*%
%ADD57RoundRect,0.075000X-0.075000X-0.700000X0.075000X-0.700000X0.075000X0.700000X-0.075000X0.700000X0*%
%ADD58RoundRect,0.140000X0.140000X0.170000X-0.140000X0.170000X-0.140000X-0.170000X0.140000X-0.170000X0*%
%ADD59RoundRect,0.250000X0.250000X0.475000X-0.250000X0.475000X-0.250000X-0.475000X0.250000X-0.475000X0*%
%ADD60RoundRect,0.140000X-0.170000X0.140000X-0.170000X-0.140000X0.170000X-0.140000X0.170000X0.140000X0*%
G04 APERTURE END LIST*
D10*
X141145000Y-114680000D02*
X140805000Y-114680000D01*
X140805000Y-113780000D01*
X141145000Y-113780000D01*
X141145000Y-114680000D01*
G36*
X141145000Y-114680000D02*
G01*
X140805000Y-114680000D01*
X140805000Y-113780000D01*
X141145000Y-113780000D01*
X141145000Y-114680000D01*
G37*
X140495000Y-114680000D02*
X140155000Y-114680000D01*
X140155000Y-114230000D01*
X139845000Y-114230000D01*
X139845000Y-114680000D01*
X139505000Y-114680000D01*
X139505000Y-114230000D01*
X139195000Y-114230000D01*
X139195000Y-114680000D01*
X138855000Y-114680000D01*
X138855000Y-113780000D01*
X140495000Y-113780000D01*
X140495000Y-114680000D01*
G36*
X140495000Y-114680000D02*
G01*
X140155000Y-114680000D01*
X140155000Y-114230000D01*
X139845000Y-114230000D01*
X139845000Y-114680000D01*
X139505000Y-114680000D01*
X139505000Y-114230000D01*
X139195000Y-114230000D01*
X139195000Y-114680000D01*
X138855000Y-114680000D01*
X138855000Y-113780000D01*
X140495000Y-113780000D01*
X140495000Y-114680000D01*
G37*
X139195000Y-111550000D02*
X139505000Y-111550000D01*
X139505000Y-110900000D01*
X139845000Y-110900000D01*
X139845000Y-111550000D01*
X140155000Y-111550000D01*
X140155000Y-110900000D01*
X140495000Y-110900000D01*
X140495000Y-111550000D01*
X140805000Y-111550000D01*
X140805000Y-110900000D01*
X141145000Y-110900000D01*
X141145000Y-113260000D01*
X138855000Y-113260000D01*
X138855000Y-110900000D01*
X139195000Y-110900000D01*
X139195000Y-111550000D01*
G36*
X139195000Y-111550000D02*
G01*
X139505000Y-111550000D01*
X139505000Y-110900000D01*
X139845000Y-110900000D01*
X139845000Y-111550000D01*
X140155000Y-111550000D01*
X140155000Y-110900000D01*
X140495000Y-110900000D01*
X140495000Y-111550000D01*
X140805000Y-111550000D01*
X140805000Y-110900000D01*
X141145000Y-110900000D01*
X141145000Y-113260000D01*
X138855000Y-113260000D01*
X138855000Y-110900000D01*
X139195000Y-110900000D01*
X139195000Y-111550000D01*
G37*
X157145000Y-114680000D02*
X156805000Y-114680000D01*
X156805000Y-113780000D01*
X157145000Y-113780000D01*
X157145000Y-114680000D01*
G36*
X157145000Y-114680000D02*
G01*
X156805000Y-114680000D01*
X156805000Y-113780000D01*
X157145000Y-113780000D01*
X157145000Y-114680000D01*
G37*
X156495000Y-114680000D02*
X156155000Y-114680000D01*
X156155000Y-114230000D01*
X155845000Y-114230000D01*
X155845000Y-114680000D01*
X155505000Y-114680000D01*
X155505000Y-114230000D01*
X155195000Y-114230000D01*
X155195000Y-114680000D01*
X154855000Y-114680000D01*
X154855000Y-113780000D01*
X156495000Y-113780000D01*
X156495000Y-114680000D01*
G36*
X156495000Y-114680000D02*
G01*
X156155000Y-114680000D01*
X156155000Y-114230000D01*
X155845000Y-114230000D01*
X155845000Y-114680000D01*
X155505000Y-114680000D01*
X155505000Y-114230000D01*
X155195000Y-114230000D01*
X155195000Y-114680000D01*
X154855000Y-114680000D01*
X154855000Y-113780000D01*
X156495000Y-113780000D01*
X156495000Y-114680000D01*
G37*
X155195000Y-111550000D02*
X155505000Y-111550000D01*
X155505000Y-110900000D01*
X155845000Y-110900000D01*
X155845000Y-111550000D01*
X156155000Y-111550000D01*
X156155000Y-110900000D01*
X156495000Y-110900000D01*
X156495000Y-111550000D01*
X156805000Y-111550000D01*
X156805000Y-110900000D01*
X157145000Y-110900000D01*
X157145000Y-113260000D01*
X154855000Y-113260000D01*
X154855000Y-110900000D01*
X155195000Y-110900000D01*
X155195000Y-111550000D01*
G36*
X155195000Y-111550000D02*
G01*
X155505000Y-111550000D01*
X155505000Y-110900000D01*
X155845000Y-110900000D01*
X155845000Y-111550000D01*
X156155000Y-111550000D01*
X156155000Y-110900000D01*
X156495000Y-110900000D01*
X156495000Y-111550000D01*
X156805000Y-111550000D01*
X156805000Y-110900000D01*
X157145000Y-110900000D01*
X157145000Y-113260000D01*
X154855000Y-113260000D01*
X154855000Y-110900000D01*
X155195000Y-110900000D01*
X155195000Y-111550000D01*
G37*
X147195000Y-111800000D02*
X146855000Y-111800000D01*
X146855000Y-110900000D01*
X147195000Y-110900000D01*
X147195000Y-111800000D01*
G36*
X147195000Y-111800000D02*
G01*
X146855000Y-111800000D01*
X146855000Y-110900000D01*
X147195000Y-110900000D01*
X147195000Y-111800000D01*
G37*
X147845000Y-111350000D02*
X148155000Y-111350000D01*
X148155000Y-110900000D01*
X148495000Y-110900000D01*
X148495000Y-111350000D01*
X148805000Y-111350000D01*
X148805000Y-110900000D01*
X149145000Y-110900000D01*
X149145000Y-111800000D01*
X147505000Y-111800000D01*
X147505000Y-110900000D01*
X147845000Y-110900000D01*
X147845000Y-111350000D01*
G36*
X147845000Y-111350000D02*
G01*
X148155000Y-111350000D01*
X148155000Y-110900000D01*
X148495000Y-110900000D01*
X148495000Y-111350000D01*
X148805000Y-111350000D01*
X148805000Y-110900000D01*
X149145000Y-110900000D01*
X149145000Y-111800000D01*
X147505000Y-111800000D01*
X147505000Y-110900000D01*
X147845000Y-110900000D01*
X147845000Y-111350000D01*
G37*
X149145000Y-114680000D02*
X148805000Y-114680000D01*
X148805000Y-114030000D01*
X148495000Y-114030000D01*
X148495000Y-114680000D01*
X148155000Y-114680000D01*
X148155000Y-114030000D01*
X147845000Y-114030000D01*
X147845000Y-114680000D01*
X147505000Y-114680000D01*
X147505000Y-114030000D01*
X147195000Y-114030000D01*
X147195000Y-114680000D01*
X146855000Y-114680000D01*
X146855000Y-112320000D01*
X149145000Y-112320000D01*
X149145000Y-114680000D01*
G36*
X149145000Y-114680000D02*
G01*
X148805000Y-114680000D01*
X148805000Y-114030000D01*
X148495000Y-114030000D01*
X148495000Y-114680000D01*
X148155000Y-114680000D01*
X148155000Y-114030000D01*
X147845000Y-114030000D01*
X147845000Y-114680000D01*
X147505000Y-114680000D01*
X147505000Y-114030000D01*
X147195000Y-114030000D01*
X147195000Y-114680000D01*
X146855000Y-114680000D01*
X146855000Y-112320000D01*
X149145000Y-112320000D01*
X149145000Y-114680000D01*
G37*
X159195000Y-111800000D02*
X158855000Y-111800000D01*
X158855000Y-110900000D01*
X159195000Y-110900000D01*
X159195000Y-111800000D01*
G36*
X159195000Y-111800000D02*
G01*
X158855000Y-111800000D01*
X158855000Y-110900000D01*
X159195000Y-110900000D01*
X159195000Y-111800000D01*
G37*
X159845000Y-111350000D02*
X160155000Y-111350000D01*
X160155000Y-110900000D01*
X160495000Y-110900000D01*
X160495000Y-111350000D01*
X160805000Y-111350000D01*
X160805000Y-110900000D01*
X161145000Y-110900000D01*
X161145000Y-111800000D01*
X159505000Y-111800000D01*
X159505000Y-110900000D01*
X159845000Y-110900000D01*
X159845000Y-111350000D01*
G36*
X159845000Y-111350000D02*
G01*
X160155000Y-111350000D01*
X160155000Y-110900000D01*
X160495000Y-110900000D01*
X160495000Y-111350000D01*
X160805000Y-111350000D01*
X160805000Y-110900000D01*
X161145000Y-110900000D01*
X161145000Y-111800000D01*
X159505000Y-111800000D01*
X159505000Y-110900000D01*
X159845000Y-110900000D01*
X159845000Y-111350000D01*
G37*
X161145000Y-114680000D02*
X160805000Y-114680000D01*
X160805000Y-114030000D01*
X160495000Y-114030000D01*
X160495000Y-114680000D01*
X160155000Y-114680000D01*
X160155000Y-114030000D01*
X159845000Y-114030000D01*
X159845000Y-114680000D01*
X159505000Y-114680000D01*
X159505000Y-114030000D01*
X159195000Y-114030000D01*
X159195000Y-114680000D01*
X158855000Y-114680000D01*
X158855000Y-112320000D01*
X161145000Y-112320000D01*
X161145000Y-114680000D01*
G36*
X161145000Y-114680000D02*
G01*
X160805000Y-114680000D01*
X160805000Y-114030000D01*
X160495000Y-114030000D01*
X160495000Y-114680000D01*
X160155000Y-114680000D01*
X160155000Y-114030000D01*
X159845000Y-114030000D01*
X159845000Y-114680000D01*
X159505000Y-114680000D01*
X159505000Y-114030000D01*
X159195000Y-114030000D01*
X159195000Y-114680000D01*
X158855000Y-114680000D01*
X158855000Y-112320000D01*
X161145000Y-112320000D01*
X161145000Y-114680000D01*
G37*
X153145000Y-114680000D02*
X152805000Y-114680000D01*
X152805000Y-113780000D01*
X153145000Y-113780000D01*
X153145000Y-114680000D01*
G36*
X153145000Y-114680000D02*
G01*
X152805000Y-114680000D01*
X152805000Y-113780000D01*
X153145000Y-113780000D01*
X153145000Y-114680000D01*
G37*
X152495000Y-114680000D02*
X152155000Y-114680000D01*
X152155000Y-114230000D01*
X151845000Y-114230000D01*
X151845000Y-114680000D01*
X151505000Y-114680000D01*
X151505000Y-114230000D01*
X151195000Y-114230000D01*
X151195000Y-114680000D01*
X150855000Y-114680000D01*
X150855000Y-113780000D01*
X152495000Y-113780000D01*
X152495000Y-114680000D01*
G36*
X152495000Y-114680000D02*
G01*
X152155000Y-114680000D01*
X152155000Y-114230000D01*
X151845000Y-114230000D01*
X151845000Y-114680000D01*
X151505000Y-114680000D01*
X151505000Y-114230000D01*
X151195000Y-114230000D01*
X151195000Y-114680000D01*
X150855000Y-114680000D01*
X150855000Y-113780000D01*
X152495000Y-113780000D01*
X152495000Y-114680000D01*
G37*
X151195000Y-111550000D02*
X151505000Y-111550000D01*
X151505000Y-110900000D01*
X151845000Y-110900000D01*
X151845000Y-111550000D01*
X152155000Y-111550000D01*
X152155000Y-110900000D01*
X152495000Y-110900000D01*
X152495000Y-111550000D01*
X152805000Y-111550000D01*
X152805000Y-110900000D01*
X153145000Y-110900000D01*
X153145000Y-113260000D01*
X150855000Y-113260000D01*
X150855000Y-110900000D01*
X151195000Y-110900000D01*
X151195000Y-111550000D01*
G36*
X151195000Y-111550000D02*
G01*
X151505000Y-111550000D01*
X151505000Y-110900000D01*
X151845000Y-110900000D01*
X151845000Y-111550000D01*
X152155000Y-111550000D01*
X152155000Y-110900000D01*
X152495000Y-110900000D01*
X152495000Y-111550000D01*
X152805000Y-111550000D01*
X152805000Y-110900000D01*
X153145000Y-110900000D01*
X153145000Y-113260000D01*
X150855000Y-113260000D01*
X150855000Y-110900000D01*
X151195000Y-110900000D01*
X151195000Y-111550000D01*
G37*
X143195000Y-111800000D02*
X142855000Y-111800000D01*
X142855000Y-110900000D01*
X143195000Y-110900000D01*
X143195000Y-111800000D01*
G36*
X143195000Y-111800000D02*
G01*
X142855000Y-111800000D01*
X142855000Y-110900000D01*
X143195000Y-110900000D01*
X143195000Y-111800000D01*
G37*
X143845000Y-111350000D02*
X144155000Y-111350000D01*
X144155000Y-110900000D01*
X144495000Y-110900000D01*
X144495000Y-111350000D01*
X144805000Y-111350000D01*
X144805000Y-110900000D01*
X145145000Y-110900000D01*
X145145000Y-111800000D01*
X143505000Y-111800000D01*
X143505000Y-110900000D01*
X143845000Y-110900000D01*
X143845000Y-111350000D01*
G36*
X143845000Y-111350000D02*
G01*
X144155000Y-111350000D01*
X144155000Y-110900000D01*
X144495000Y-110900000D01*
X144495000Y-111350000D01*
X144805000Y-111350000D01*
X144805000Y-110900000D01*
X145145000Y-110900000D01*
X145145000Y-111800000D01*
X143505000Y-111800000D01*
X143505000Y-110900000D01*
X143845000Y-110900000D01*
X143845000Y-111350000D01*
G37*
X145145000Y-114680000D02*
X144805000Y-114680000D01*
X144805000Y-114030000D01*
X144495000Y-114030000D01*
X144495000Y-114680000D01*
X144155000Y-114680000D01*
X144155000Y-114030000D01*
X143845000Y-114030000D01*
X143845000Y-114680000D01*
X143505000Y-114680000D01*
X143505000Y-114030000D01*
X143195000Y-114030000D01*
X143195000Y-114680000D01*
X142855000Y-114680000D01*
X142855000Y-112320000D01*
X145145000Y-112320000D01*
X145145000Y-114680000D01*
G36*
X145145000Y-114680000D02*
G01*
X144805000Y-114680000D01*
X144805000Y-114030000D01*
X144495000Y-114030000D01*
X144495000Y-114680000D01*
X144155000Y-114680000D01*
X144155000Y-114030000D01*
X143845000Y-114030000D01*
X143845000Y-114680000D01*
X143505000Y-114680000D01*
X143505000Y-114030000D01*
X143195000Y-114030000D01*
X143195000Y-114680000D01*
X142855000Y-114680000D01*
X142855000Y-112320000D01*
X145145000Y-112320000D01*
X145145000Y-114680000D01*
G37*
D11*
X131000000Y-81000000D03*
X131000000Y-119000000D03*
X169000000Y-119000000D03*
X169000000Y-81000000D03*
D12*
X138600000Y-109950000D03*
X169500000Y-98950000D03*
D13*
X157300000Y-110151430D03*
X157300000Y-109131430D03*
D12*
X156800000Y-94450000D03*
D13*
X141300000Y-110151430D03*
X141300000Y-109131430D03*
X154000000Y-110151430D03*
X154000000Y-109131430D03*
D12*
X156150000Y-95900000D03*
D14*
X161067998Y-109750000D03*
X161067998Y-106825000D03*
D15*
X154662500Y-85500000D03*
X154662500Y-86450000D03*
X154662500Y-87400000D03*
X156937500Y-87400000D03*
X156937500Y-86450000D03*
X156937500Y-85500000D03*
D16*
X135800000Y-111000000D03*
X130200000Y-111000000D03*
D12*
X169675000Y-101750000D03*
D17*
X171400000Y-97575000D03*
X171400000Y-99225000D03*
D18*
X142500000Y-120475000D03*
X143000000Y-120475000D03*
X143500000Y-120475000D03*
X142500000Y-120075000D03*
X143000000Y-120075000D03*
X143500000Y-120075000D03*
D19*
X141650000Y-119850000D03*
X144350000Y-119850000D03*
D18*
X142500000Y-119675000D03*
X143000000Y-119675000D03*
X143500000Y-119675000D03*
X141025000Y-119000000D03*
X141425000Y-119000000D03*
X141825000Y-119000000D03*
X144175000Y-119000000D03*
X144575000Y-119000000D03*
X144975000Y-119000000D03*
X141025000Y-118500000D03*
X141425000Y-118500000D03*
X141825000Y-118500000D03*
D20*
X143000000Y-118500000D03*
D18*
X144175000Y-118500000D03*
X144575000Y-118500000D03*
X144975000Y-118500000D03*
X141025000Y-118000000D03*
X141425000Y-118000000D03*
X141825000Y-118000000D03*
X144175000Y-118000000D03*
X144575000Y-118000000D03*
X144975000Y-118000000D03*
X142500000Y-117325000D03*
X143000000Y-117325000D03*
X143500000Y-117325000D03*
D19*
X141650000Y-117150000D03*
X144350000Y-117150000D03*
D18*
X142500000Y-116925000D03*
X143000000Y-116925000D03*
X143500000Y-116925000D03*
X142500000Y-116525000D03*
X143000000Y-116525000D03*
X143500000Y-116525000D03*
D21*
X147900000Y-89000000D03*
X146880000Y-89000000D03*
D14*
X148775000Y-109762500D03*
X148775000Y-106837500D03*
D18*
X156500000Y-120475000D03*
X157000000Y-120475000D03*
X157500000Y-120475000D03*
X156500000Y-120075000D03*
X157000000Y-120075000D03*
X157500000Y-120075000D03*
D19*
X155650000Y-119850000D03*
X158350000Y-119850000D03*
D18*
X156500000Y-119675000D03*
X157000000Y-119675000D03*
X157500000Y-119675000D03*
X155025000Y-119000000D03*
X155425000Y-119000000D03*
X155825000Y-119000000D03*
X158175000Y-119000000D03*
X158575000Y-119000000D03*
X158975000Y-119000000D03*
X155025000Y-118500000D03*
X155425000Y-118500000D03*
X155825000Y-118500000D03*
D20*
X157000000Y-118500000D03*
D18*
X158175000Y-118500000D03*
X158575000Y-118500000D03*
X158975000Y-118500000D03*
X155025000Y-118000000D03*
X155425000Y-118000000D03*
X155825000Y-118000000D03*
X158175000Y-118000000D03*
X158575000Y-118000000D03*
X158975000Y-118000000D03*
X156500000Y-117325000D03*
X157000000Y-117325000D03*
X157500000Y-117325000D03*
D19*
X155650000Y-117150000D03*
X158350000Y-117150000D03*
D18*
X156500000Y-116925000D03*
X157000000Y-116925000D03*
X157500000Y-116925000D03*
X156500000Y-116525000D03*
X157000000Y-116525000D03*
X157500000Y-116525000D03*
D22*
X161470000Y-102550000D03*
X162430000Y-102550000D03*
D23*
X129437500Y-105500000D03*
X129437500Y-94500000D03*
D24*
X139437500Y-97500000D03*
D25*
X139437500Y-102500000D03*
D12*
X169500000Y-98100000D03*
D26*
X153825000Y-92150000D03*
X156025000Y-92150000D03*
X156025000Y-90450000D03*
X153825000Y-90450000D03*
D27*
X141200000Y-80140000D03*
X137500000Y-80140000D03*
D28*
X152425000Y-90990000D03*
X152425000Y-90030000D03*
D29*
X128862500Y-86400000D03*
X130737500Y-86400000D03*
D12*
X138450000Y-85550000D03*
D30*
X133925000Y-86400000D03*
X132275000Y-86400000D03*
D12*
X171600000Y-94125000D03*
D31*
X143750000Y-84537500D03*
X144700000Y-84537500D03*
X145650000Y-84537500D03*
X145650000Y-82262500D03*
X144700000Y-82262500D03*
X143750000Y-82262500D03*
D12*
X171600000Y-95625000D03*
X152250000Y-89150000D03*
D32*
X131875000Y-89925000D03*
X131875000Y-90925000D03*
D33*
X128000000Y-88625000D03*
X128000000Y-92225000D03*
D14*
X145400000Y-109762500D03*
X145400000Y-106837500D03*
D13*
X142700000Y-110151430D03*
X142700000Y-109131430D03*
D34*
X151375000Y-98725000D03*
X151375000Y-100275000D03*
D12*
X157450000Y-95000000D03*
D35*
X145475000Y-80550000D03*
X143925000Y-80550000D03*
D36*
X163500000Y-115640000D03*
X163500000Y-116660000D03*
D22*
X167070000Y-99750000D03*
X168030000Y-99750000D03*
D34*
X152850000Y-98750000D03*
X152850000Y-100300000D03*
D37*
X154690000Y-82855000D03*
X148910000Y-82855000D03*
D38*
X155000000Y-83975000D03*
X154200000Y-83975000D03*
D39*
X153050000Y-83975000D03*
X152050000Y-83975000D03*
X151550000Y-83975000D03*
X150550000Y-83975000D03*
D38*
X149400000Y-83975000D03*
X148600000Y-83975000D03*
X148600000Y-83975000D03*
X149400000Y-83975000D03*
D39*
X150050000Y-83975000D03*
X151050000Y-83975000D03*
X152550000Y-83975000D03*
X153550000Y-83975000D03*
D38*
X154200000Y-83975000D03*
X155000000Y-83975000D03*
D40*
X156120000Y-83375000D03*
D41*
X156120000Y-79175000D03*
D40*
X147480000Y-83375000D03*
D41*
X147480000Y-79175000D03*
D42*
X171200000Y-102637500D03*
X171200000Y-100762500D03*
D12*
X161000000Y-101150000D03*
D43*
X137430000Y-84200000D03*
X139330000Y-84200000D03*
D12*
X171600000Y-94875000D03*
D44*
X149600000Y-100375000D03*
X149600000Y-98475000D03*
D12*
X152950000Y-88000000D03*
X162500000Y-101750000D03*
D45*
X164200000Y-111000000D03*
X169800000Y-111000000D03*
D12*
X151400000Y-92450000D03*
X154750000Y-95250000D03*
X138600000Y-109000000D03*
D35*
X152875000Y-97050000D03*
X151325000Y-97050000D03*
D46*
X150285000Y-87000000D03*
X146885000Y-87000000D03*
D47*
X141980000Y-84750000D03*
X141980000Y-83200000D03*
D48*
X163000000Y-83000000D03*
X162000000Y-83000000D03*
X161000000Y-83000000D03*
X160000000Y-83000000D03*
D49*
X164300000Y-79125000D03*
X158700000Y-79125000D03*
D50*
X167050000Y-101750000D03*
X168070000Y-101750000D03*
D22*
X167080000Y-100750000D03*
X168040000Y-100750000D03*
D51*
X137100000Y-87250000D03*
X137100000Y-93600000D03*
D12*
X164300000Y-99700000D03*
D52*
X154400000Y-99649998D03*
X154400000Y-100149997D03*
X154400000Y-100649999D03*
X154400000Y-101149998D03*
X154400000Y-101649999D03*
X154400000Y-102149999D03*
X154400000Y-102649997D03*
X154400000Y-103149999D03*
X154400000Y-103649998D03*
X154400000Y-104150000D03*
D53*
X155049998Y-104799998D03*
X155549997Y-104799998D03*
X156049999Y-104799998D03*
X156549998Y-104799998D03*
X157049999Y-104799998D03*
X157549999Y-104799998D03*
X158049997Y-104799998D03*
X158549999Y-104799998D03*
X159049998Y-104799998D03*
X159550000Y-104799998D03*
D52*
X160199998Y-104150000D03*
X160199998Y-103649998D03*
X160199998Y-103149999D03*
X160199998Y-102649997D03*
X160199998Y-102149999D03*
X160199998Y-101649999D03*
X160199998Y-101149998D03*
X160199998Y-100649999D03*
X160199998Y-100149997D03*
X160199998Y-99649998D03*
D53*
X159550000Y-99000000D03*
X159049998Y-99000000D03*
X158549999Y-99000000D03*
X158049997Y-99000000D03*
X157549999Y-99000000D03*
X157049999Y-99000000D03*
X156549998Y-99000000D03*
X156049999Y-99000000D03*
X155549997Y-99000000D03*
X155049998Y-99000000D03*
D54*
X155474999Y-101214999D03*
X155474999Y-102584999D03*
X156614999Y-100074999D03*
X156614999Y-101214999D03*
X156614999Y-102584999D03*
X156614999Y-103724999D03*
D55*
X157299999Y-101899999D03*
D54*
X157984999Y-100074999D03*
X157984999Y-101214999D03*
X157984999Y-102584999D03*
X157984999Y-103724999D03*
X159124999Y-101214999D03*
X159124999Y-102584999D03*
D56*
X158945000Y-88750000D03*
X158945000Y-89250000D03*
X158945000Y-89750000D03*
X158945000Y-90250000D03*
X158945000Y-90750000D03*
X158945000Y-91250000D03*
X158945000Y-91750000D03*
X158945000Y-92250000D03*
X158945000Y-92750000D03*
X158945000Y-93250000D03*
X158945000Y-93750000D03*
X158945000Y-94250000D03*
X158945000Y-94750000D03*
X158945000Y-95250000D03*
X158945000Y-95750000D03*
X158945000Y-96250000D03*
D57*
X160870000Y-98175000D03*
X161370000Y-98175000D03*
X161870000Y-98175000D03*
X162370000Y-98175000D03*
X162870000Y-98175000D03*
X163370000Y-98175000D03*
X163870000Y-98175000D03*
X164370000Y-98175000D03*
X164870000Y-98175000D03*
X165370000Y-98175000D03*
X165870000Y-98175000D03*
X166370000Y-98175000D03*
X166870000Y-98175000D03*
X167370000Y-98175000D03*
X167870000Y-98175000D03*
X168370000Y-98175000D03*
D56*
X170295000Y-96250000D03*
X170295000Y-95750000D03*
X170295000Y-95250000D03*
X170295000Y-94750000D03*
X170295000Y-94250000D03*
X170295000Y-93750000D03*
X170295000Y-93250000D03*
X170295000Y-92750000D03*
X170295000Y-92250000D03*
X170295000Y-91750000D03*
X170295000Y-91250000D03*
X170295000Y-90750000D03*
X170295000Y-90250000D03*
X170295000Y-89750000D03*
X170295000Y-89250000D03*
X170295000Y-88750000D03*
D57*
X168370000Y-86825000D03*
X167870000Y-86825000D03*
X167370000Y-86825000D03*
X166870000Y-86825000D03*
X166370000Y-86825000D03*
X165870000Y-86825000D03*
X165370000Y-86825000D03*
X164870000Y-86825000D03*
X164370000Y-86825000D03*
X163870000Y-86825000D03*
X163370000Y-86825000D03*
X162870000Y-86825000D03*
X162370000Y-86825000D03*
X161870000Y-86825000D03*
X161370000Y-86825000D03*
X160870000Y-86825000D03*
D12*
X150200000Y-92850000D03*
X136000000Y-83450000D03*
D58*
X168040000Y-102750000D03*
X167080000Y-102750000D03*
D36*
X162500000Y-115640000D03*
X162500000Y-116660000D03*
D13*
X147000000Y-110151430D03*
X147000000Y-109131430D03*
D22*
X165200000Y-99750000D03*
X166160000Y-99750000D03*
D12*
X160190000Y-98100000D03*
D59*
X145425000Y-78840000D03*
X143525000Y-78840000D03*
D12*
X162000000Y-101250000D03*
D18*
X149500000Y-120475000D03*
X150000000Y-120475000D03*
X150500000Y-120475000D03*
X149500000Y-120075000D03*
X150000000Y-120075000D03*
X150500000Y-120075000D03*
D19*
X148650000Y-119850000D03*
X151350000Y-119850000D03*
D18*
X149500000Y-119675000D03*
X150000000Y-119675000D03*
X150500000Y-119675000D03*
X148025000Y-119000000D03*
X148425000Y-119000000D03*
X148825000Y-119000000D03*
X151175000Y-119000000D03*
X151575000Y-119000000D03*
X151975000Y-119000000D03*
X148025000Y-118500000D03*
X148425000Y-118500000D03*
X148825000Y-118500000D03*
D20*
X150000000Y-118500000D03*
D18*
X151175000Y-118500000D03*
X151575000Y-118500000D03*
X151975000Y-118500000D03*
X148025000Y-118000000D03*
X148425000Y-118000000D03*
X148825000Y-118000000D03*
X151175000Y-118000000D03*
X151575000Y-118000000D03*
X151975000Y-118000000D03*
X149500000Y-117325000D03*
X150000000Y-117325000D03*
X150500000Y-117325000D03*
D19*
X148650000Y-117150000D03*
X151350000Y-117150000D03*
D18*
X149500000Y-116925000D03*
X150000000Y-116925000D03*
X150500000Y-116925000D03*
X149500000Y-116525000D03*
X150000000Y-116525000D03*
X150500000Y-116525000D03*
D12*
X157600000Y-94300000D03*
X161125000Y-100275000D03*
D21*
X150290000Y-89000000D03*
X149270000Y-89000000D03*
D46*
X146885000Y-91000000D03*
X150285000Y-91000000D03*
D60*
X157425000Y-90020000D03*
X157425000Y-90980000D03*
D28*
X151400000Y-87960000D03*
X151400000Y-87000000D03*
D13*
X158750000Y-110151430D03*
X158750000Y-109131430D03*
M02*
